<?xml version="1.0" encoding="UTF-8" standalone="no"?>
<!-- Created with Inkscape (http://www.inkscape.org/) -->

<svg
   width="20mm"
   height="40mm"
   viewBox="0 0 70.866142 141.73229"
   id="svg2"
   version="1.1"
   enable-background="new"
   xmlns="http://www.w3.org/2000/svg"
   xmlns:svg="http://www.w3.org/2000/svg"
   xmlns:rdf="http://www.w3.org/1999/02/22-rdf-syntax-ns#"
   xmlns:cc="http://creativecommons.org/ns#"
   xmlns:dc="http://purl.org/dc/elements/1.1/">
  <defs
     id="defs4">
    <marker
       style="overflow:visible"
       id="marker14127"
       refX="0"
       refY="0"
       orient="auto">
      <path
         transform="scale(-0.6)"
         d="M 8.7185878,4.0337352 -2.2072895,0.01601326 8.7185884,-4.0017078 c -1.7454984,2.3720609 -1.7354408,5.6174519 -6e-7,8.035443 z"
         style="fill:#000000;fill-opacity:1;fill-rule:evenodd;stroke:#000000;stroke-width:0.625;stroke-linejoin:round;stroke-opacity:1"
         id="path14125" />
    </marker>
    <marker
       orient="auto"
       refY="0"
       refX="0"
       id="marker10247"
       style="overflow:visible">
      <path
         id="path10245"
         style="fill:#000000;fill-opacity:1;fill-rule:evenodd;stroke:#000000;stroke-width:0.625;stroke-linejoin:round;stroke-opacity:1"
         d="M 8.7185878,4.0337352 -2.2072895,0.01601326 8.7185884,-4.0017078 c -1.7454984,2.3720609 -1.7354408,5.6174519 -6e-7,8.035443 z"
         transform="scale(-0.6)" />
    </marker>
    <marker
       style="overflow:visible"
       id="marker45512"
       refX="0"
       refY="0"
       orient="auto">
      <path
         transform="scale(-0.6)"
         d="M 8.7185878,4.0337352 -2.2072895,0.01601326 8.7185884,-4.0017078 c -1.7454984,2.3720609 -1.7354408,5.6174519 -6e-7,8.035443 z"
         style="fill:#000000;fill-opacity:1;fill-rule:evenodd;stroke:#000000;stroke-width:0.625;stroke-linejoin:round;stroke-opacity:1"
         id="path45514" />
    </marker>
    <marker
       style="overflow:visible"
       id="marker45150"
       refX="0"
       refY="0"
       orient="auto">
      <path
         transform="scale(-0.6)"
         d="M 8.7185878,4.0337352 -2.2072895,0.01601326 8.7185884,-4.0017078 c -1.7454984,2.3720609 -1.7354408,5.6174519 -6e-7,8.035443 z"
         style="fill:#000000;fill-opacity:1;fill-rule:evenodd;stroke:#000000;stroke-width:0.625;stroke-linejoin:round;stroke-opacity:1"
         id="path45152" />
    </marker>
    <marker
       style="overflow:visible"
       id="marker40448"
       refX="0"
       refY="0"
       orient="auto">
      <path
         transform="scale(-0.6)"
         d="M 8.7185878,4.0337352 -2.2072895,0.01601326 8.7185884,-4.0017078 c -1.7454984,2.3720609 -1.7354408,5.6174519 -6e-7,8.035443 z"
         style="fill:#483737;fill-opacity:1;fill-rule:evenodd;stroke:#483737;stroke-width:0.625;stroke-linejoin:round;stroke-opacity:1"
         id="path40450" />
    </marker>
    <marker
       style="overflow:visible"
       id="marker39324"
       refX="0"
       refY="0"
       orient="auto">
      <path
         transform="scale(-0.6)"
         d="M 8.7185878,4.0337352 -2.2072895,0.01601326 8.7185884,-4.0017078 c -1.7454984,2.3720609 -1.7354408,5.6174519 -6e-7,8.035443 z"
         style="fill:#483737;fill-opacity:1;fill-rule:evenodd;stroke:#483737;stroke-width:0.625;stroke-linejoin:round;stroke-opacity:1"
         id="path39326" />
    </marker>
    <marker
       orient="auto"
       refY="0"
       refX="0"
       id="marker38792"
       style="overflow:visible">
      <path
         id="path38794"
         style="fill:#483737;fill-opacity:1;fill-rule:evenodd;stroke:#483737;stroke-width:0.625;stroke-linejoin:round;stroke-opacity:1"
         d="M 8.7185878,4.0337352 -2.2072895,0.01601326 8.7185884,-4.0017078 c -1.7454984,2.3720609 -1.7354408,5.6174519 -6e-7,8.035443 z"
         transform="scale(-0.6)" />
    </marker>
    <marker
       orient="auto"
       refY="0"
       refX="0"
       id="marker38266"
       style="overflow:visible">
      <path
         id="path38268"
         style="fill:#483737;fill-opacity:1;fill-rule:evenodd;stroke:#483737;stroke-width:0.625;stroke-linejoin:round;stroke-opacity:1"
         d="M 8.7185878,4.0337352 -2.2072895,0.01601326 8.7185884,-4.0017078 c -1.7454984,2.3720609 -1.7354408,5.6174519 -6e-7,8.035443 z"
         transform="scale(-0.6)" />
    </marker>
    <marker
       style="overflow:visible"
       id="marker37746"
       refX="0"
       refY="0"
       orient="auto">
      <path
         transform="scale(-0.6)"
         d="M 8.7185878,4.0337352 -2.2072895,0.01601326 8.7185884,-4.0017078 c -1.7454984,2.3720609 -1.7354408,5.6174519 -6e-7,8.035443 z"
         style="fill:#483737;fill-opacity:1;fill-rule:evenodd;stroke:#483737;stroke-width:0.625;stroke-linejoin:round;stroke-opacity:1"
         id="path37748" />
    </marker>
    <marker
       orient="auto"
       refY="0"
       refX="0"
       id="marker37232"
       style="overflow:visible">
      <path
         id="path37234"
         style="fill:#483737;fill-opacity:1;fill-rule:evenodd;stroke:#483737;stroke-width:0.625;stroke-linejoin:round;stroke-opacity:1"
         d="M 8.7185878,4.0337352 -2.2072895,0.01601326 8.7185884,-4.0017078 c -1.7454984,2.3720609 -1.7354408,5.6174519 -6e-7,8.035443 z"
         transform="scale(-0.6)" />
    </marker>
    <marker
       orient="auto"
       refY="0"
       refX="0"
       id="marker36724"
       style="overflow:visible">
      <path
         id="path36726"
         style="fill:#483737;fill-opacity:1;fill-rule:evenodd;stroke:#483737;stroke-width:0.625;stroke-linejoin:round;stroke-opacity:1"
         d="M 8.7185878,4.0337352 -2.2072895,0.01601326 8.7185884,-4.0017078 c -1.7454984,2.3720609 -1.7354408,5.6174519 -6e-7,8.035443 z"
         transform="scale(-0.6)" />
    </marker>
    <marker
       orient="auto"
       refY="0"
       refX="0"
       id="marker36210"
       style="overflow:visible">
      <path
         id="path36212"
         style="fill:#483737;fill-opacity:1;fill-rule:evenodd;stroke:#483737;stroke-width:0.625;stroke-linejoin:round;stroke-opacity:1"
         d="M 8.7185878,4.0337352 -2.2072895,0.01601326 8.7185884,-4.0017078 c -1.7454984,2.3720609 -1.7354408,5.6174519 -6e-7,8.035443 z"
         transform="scale(-0.6)" />
    </marker>
    <marker
       style="overflow:visible"
       id="marker35720"
       refX="0"
       refY="0"
       orient="auto">
      <path
         transform="scale(0.6)"
         d="M 8.7185878,4.0337352 -2.2072895,0.01601326 8.7185884,-4.0017078 c -1.7454984,2.3720609 -1.7354408,5.6174519 -6e-7,8.035443 z"
         style="fill:#483737;fill-opacity:1;fill-rule:evenodd;stroke:#483737;stroke-width:0.625;stroke-linejoin:round;stroke-opacity:1"
         id="path35722" />
    </marker>
    <marker
       style="overflow:visible"
       id="marker35230"
       refX="0"
       refY="0"
       orient="auto">
      <path
         transform="scale(-0.6)"
         d="M 8.7185878,4.0337352 -2.2072895,0.01601326 8.7185884,-4.0017078 c -1.7454984,2.3720609 -1.7354408,5.6174519 -6e-7,8.035443 z"
         style="fill:#483737;fill-opacity:1;fill-rule:evenodd;stroke:#483737;stroke-width:0.625;stroke-linejoin:round;stroke-opacity:1"
         id="path35232" />
    </marker>
    <marker
       orient="auto"
       refY="0"
       refX="0"
       id="marker34456"
       style="overflow:visible">
      <path
         id="path34458"
         style="fill:#483737;fill-opacity:1;fill-rule:evenodd;stroke:#483737;stroke-width:0.625;stroke-linejoin:round;stroke-opacity:1"
         d="M 8.7185878,4.0337352 -2.2072895,0.01601326 8.7185884,-4.0017078 c -1.7454984,2.3720609 -1.7354408,5.6174519 -6e-7,8.035443 z"
         transform="scale(-0.6)" />
    </marker>
    <marker
       style="overflow:visible"
       id="marker33984"
       refX="0"
       refY="0"
       orient="auto">
      <path
         transform="scale(0.6)"
         d="M 8.7185878,4.0337352 -2.2072895,0.01601326 8.7185884,-4.0017078 c -1.7454984,2.3720609 -1.7354408,5.6174519 -6e-7,8.035443 z"
         style="fill:#483737;fill-opacity:1;fill-rule:evenodd;stroke:#483737;stroke-width:0.625;stroke-linejoin:round;stroke-opacity:1"
         id="path33986" />
    </marker>
    <marker
       orient="auto"
       refY="0"
       refX="0"
       id="marker33500"
       style="overflow:visible">
      <path
         id="path33502"
         style="fill:#483737;fill-opacity:1;fill-rule:evenodd;stroke:#483737;stroke-width:0.625;stroke-linejoin:round;stroke-opacity:1"
         d="M 8.7185878,4.0337352 -2.2072895,0.01601326 8.7185884,-4.0017078 c -1.7454984,2.3720609 -1.7354408,5.6174519 -6e-7,8.035443 z"
         transform="scale(-0.6)" />
    </marker>
    <marker
       orient="auto"
       refY="0"
       refX="0"
       id="marker32962"
       style="overflow:visible">
      <path
         id="path32964"
         style="fill:#483737;fill-opacity:1;fill-rule:evenodd;stroke:#483737;stroke-width:0.625;stroke-linejoin:round;stroke-opacity:1"
         d="M 8.7185878,4.0337352 -2.2072895,0.01601326 8.7185884,-4.0017078 c -1.7454984,2.3720609 -1.7354408,5.6174519 -6e-7,8.035443 z"
         transform="scale(-0.6)" />
    </marker>
    <marker
       orient="auto"
       refY="0"
       refX="0"
       id="marker32508"
       style="overflow:visible">
      <path
         id="path32510"
         style="fill:#483737;fill-opacity:1;fill-rule:evenodd;stroke:#483737;stroke-width:0.625;stroke-linejoin:round;stroke-opacity:1"
         d="M 8.7185878,4.0337352 -2.2072895,0.01601326 8.7185884,-4.0017078 c -1.7454984,2.3720609 -1.7354408,5.6174519 -6e-7,8.035443 z"
         transform="scale(0.6)" />
    </marker>
    <marker
       style="overflow:visible"
       id="marker32060"
       refX="0"
       refY="0"
       orient="auto">
      <path
         transform="scale(-0.6)"
         d="M 8.7185878,4.0337352 -2.2072895,0.01601326 8.7185884,-4.0017078 c -1.7454984,2.3720609 -1.7354408,5.6174519 -6e-7,8.035443 z"
         style="fill:#483737;fill-opacity:1;fill-rule:evenodd;stroke:#483737;stroke-width:0.625;stroke-linejoin:round;stroke-opacity:1"
         id="path32062" />
    </marker>
    <marker
       style="overflow:visible"
       id="marker31618"
       refX="0"
       refY="0"
       orient="auto">
      <path
         transform="scale(0.6)"
         d="M 8.7185878,4.0337352 -2.2072895,0.01601326 8.7185884,-4.0017078 c -1.7454984,2.3720609 -1.7354408,5.6174519 -6e-7,8.035443 z"
         style="fill:#483737;fill-opacity:1;fill-rule:evenodd;stroke:#483737;stroke-width:0.625;stroke-linejoin:round;stroke-opacity:1"
         id="path31620" />
    </marker>
    <marker
       orient="auto"
       refY="0"
       refX="0"
       id="marker31170"
       style="overflow:visible">
      <path
         id="path31172"
         style="fill:#483737;fill-opacity:1;fill-rule:evenodd;stroke:#483737;stroke-width:0.625;stroke-linejoin:round;stroke-opacity:1"
         d="M 8.7185878,4.0337352 -2.2072895,0.01601326 8.7185884,-4.0017078 c -1.7454984,2.3720609 -1.7354408,5.6174519 -6e-7,8.035443 z"
         transform="scale(-0.6)" />
    </marker>
    <marker
       style="overflow:visible"
       id="marker21930"
       refX="0"
       refY="0"
       orient="auto">
      <path
         transform="scale(-0.6)"
         d="M 8.7185878,4.0337352 -2.2072895,0.01601326 8.7185884,-4.0017078 c -1.7454984,2.3720609 -1.7354408,5.6174519 -6e-7,8.035443 z"
         style="fill:#483737;fill-opacity:1;fill-rule:evenodd;stroke:#483737;stroke-width:0.625;stroke-linejoin:round;stroke-opacity:1"
         id="path21932" />
    </marker>
    <marker
       orient="auto"
       refY="0"
       refX="0"
       id="marker21590"
       style="overflow:visible">
      <path
         id="path21592"
         style="fill:#483737;fill-opacity:1;fill-rule:evenodd;stroke:#483737;stroke-width:0.625;stroke-linejoin:round;stroke-opacity:1"
         d="M 8.7185878,4.0337352 -2.2072895,0.01601326 8.7185884,-4.0017078 c -1.7454984,2.3720609 -1.7354408,5.6174519 -6e-7,8.035443 z"
         transform="scale(0.6)" />
    </marker>
    <marker
       style="overflow:visible"
       id="marker19708"
       refX="0"
       refY="0"
       orient="auto">
      <path
         transform="scale(-0.6)"
         d="M 8.7185878,4.0337352 -2.2072895,0.01601326 8.7185884,-4.0017078 c -1.7454984,2.3720609 -1.7354408,5.6174519 -6e-7,8.035443 z"
         style="fill:#483737;fill-opacity:1;fill-rule:evenodd;stroke:#483737;stroke-width:0.625;stroke-linejoin:round;stroke-opacity:1"
         id="path19710" />
    </marker>
    <marker
       orient="auto"
       refY="0"
       refX="0"
       id="marker19398"
       style="overflow:visible">
      <path
         id="path19400"
         style="fill:#483737;fill-opacity:1;fill-rule:evenodd;stroke:#483737;stroke-width:0.625;stroke-linejoin:round;stroke-opacity:1"
         d="M 8.7185878,4.0337352 -2.2072895,0.01601326 8.7185884,-4.0017078 c -1.7454984,2.3720609 -1.7354408,5.6174519 -6e-7,8.035443 z"
         transform="scale(-0.6)" />
    </marker>
    <marker
       style="overflow:visible"
       id="marker19094"
       refX="0"
       refY="0"
       orient="auto">
      <path
         transform="scale(-0.6)"
         d="M 8.7185878,4.0337352 -2.2072895,0.01601326 8.7185884,-4.0017078 c -1.7454984,2.3720609 -1.7354408,5.6174519 -6e-7,8.035443 z"
         style="fill:#483737;fill-opacity:1;fill-rule:evenodd;stroke:#483737;stroke-width:0.625;stroke-linejoin:round;stroke-opacity:1"
         id="path19096" />
    </marker>
    <marker
       style="overflow:visible"
       id="marker18790"
       refX="0"
       refY="0"
       orient="auto">
      <path
         transform="scale(-0.6)"
         d="M 8.7185878,4.0337352 -2.2072895,0.01601326 8.7185884,-4.0017078 c -1.7454984,2.3720609 -1.7354408,5.6174519 -6e-7,8.035443 z"
         style="fill:#483737;fill-opacity:1;fill-rule:evenodd;stroke:#483737;stroke-width:0.625;stroke-linejoin:round;stroke-opacity:1"
         id="path18792" />
    </marker>
    <marker
       orient="auto"
       refY="0"
       refX="0"
       id="marker18504"
       style="overflow:visible">
      <path
         id="path18506"
         style="fill:#483737;fill-opacity:1;fill-rule:evenodd;stroke:#483737;stroke-width:0.625;stroke-linejoin:round;stroke-opacity:1"
         d="M 8.7185878,4.0337352 -2.2072895,0.01601326 8.7185884,-4.0017078 c -1.7454984,2.3720609 -1.7354408,5.6174519 -6e-7,8.035443 z"
         transform="scale(0.6)" />
    </marker>
    <marker
       orient="auto"
       refY="0"
       refX="0"
       id="marker18224"
       style="overflow:visible">
      <path
         id="path18226"
         style="fill:#483737;fill-opacity:1;fill-rule:evenodd;stroke:#483737;stroke-width:0.625;stroke-linejoin:round;stroke-opacity:1"
         d="M 8.7185878,4.0337352 -2.2072895,0.01601326 8.7185884,-4.0017078 c -1.7454984,2.3720609 -1.7354408,5.6174519 -6e-7,8.035443 z"
         transform="scale(-0.6)" />
    </marker>
    <marker
       style="overflow:visible"
       id="marker17938"
       refX="0"
       refY="0"
       orient="auto">
      <path
         transform="scale(-0.6)"
         d="M 8.7185878,4.0337352 -2.2072895,0.01601326 8.7185884,-4.0017078 c -1.7454984,2.3720609 -1.7354408,5.6174519 -6e-7,8.035443 z"
         style="fill:#483737;fill-opacity:1;fill-rule:evenodd;stroke:#483737;stroke-width:0.625;stroke-linejoin:round;stroke-opacity:1"
         id="path17940" />
    </marker>
    <marker
       style="overflow:visible"
       id="marker17670"
       refX="0"
       refY="0"
       orient="auto">
      <path
         transform="scale(0.6)"
         d="M 8.7185878,4.0337352 -2.2072895,0.01601326 8.7185884,-4.0017078 c -1.7454984,2.3720609 -1.7354408,5.6174519 -6e-7,8.035443 z"
         style="fill:#483737;fill-opacity:1;fill-rule:evenodd;stroke:#483737;stroke-width:0.625;stroke-linejoin:round;stroke-opacity:1"
         id="path17672" />
    </marker>
    <marker
       style="overflow:visible"
       id="marker14596"
       refX="0"
       refY="0"
       orient="auto">
      <path
         transform="scale(-0.6)"
         d="M 8.7185878,4.0337352 -2.2072895,0.01601326 8.7185884,-4.0017078 c -1.7454984,2.3720609 -1.7354408,5.6174519 -6e-7,8.035443 z"
         style="fill:#483737;fill-opacity:1;fill-rule:evenodd;stroke:#483737;stroke-width:0.625;stroke-linejoin:round;stroke-opacity:1"
         id="path14598" />
    </marker>
    <marker
       orient="auto"
       refY="0"
       refX="0"
       id="marker14394"
       style="overflow:visible">
      <path
         id="path14396"
         style="fill:#483737;fill-opacity:1;fill-rule:evenodd;stroke:#483737;stroke-width:0.625;stroke-linejoin:round;stroke-opacity:1"
         d="M 8.7185878,4.0337352 -2.2072895,0.01601326 8.7185884,-4.0017078 c -1.7454984,2.3720609 -1.7354408,5.6174519 -6e-7,8.035443 z"
         transform="scale(0.6)" />
    </marker>
    <marker
       orient="auto"
       refY="0"
       refX="0"
       id="marker13528"
       style="overflow:visible">
      <path
         id="path13530"
         style="fill:#483737;fill-opacity:1;fill-rule:evenodd;stroke:#483737;stroke-width:0.625;stroke-linejoin:round;stroke-opacity:1"
         d="M 8.7185878,4.0337352 -2.2072895,0.01601326 8.7185884,-4.0017078 c -1.7454984,2.3720609 -1.7354408,5.6174519 -6e-7,8.035443 z"
         transform="scale(-0.6)" />
    </marker>
    <marker
       style="overflow:visible"
       id="marker13338"
       refX="0"
       refY="0"
       orient="auto">
      <path
         transform="scale(-0.6)"
         d="M 8.7185878,4.0337352 -2.2072895,0.01601326 8.7185884,-4.0017078 c -1.7454984,2.3720609 -1.7354408,5.6174519 -6e-7,8.035443 z"
         style="fill:#483737;fill-opacity:1;fill-rule:evenodd;stroke:#483737;stroke-width:0.625;stroke-linejoin:round;stroke-opacity:1"
         id="path13340" />
    </marker>
    <marker
       orient="auto"
       refY="0"
       refX="0"
       id="marker13166"
       style="overflow:visible">
      <path
         id="path13168"
         style="fill:#483737;fill-opacity:1;fill-rule:evenodd;stroke:#483737;stroke-width:0.625;stroke-linejoin:round;stroke-opacity:1"
         d="M 8.7185878,4.0337352 -2.2072895,0.01601326 8.7185884,-4.0017078 c -1.7454984,2.3720609 -1.7354408,5.6174519 -6e-7,8.035443 z"
         transform="scale(0.6)" />
    </marker>
    <marker
       orient="auto"
       refY="0"
       refX="0"
       id="marker11977"
       style="overflow:visible">
      <path
         id="path11979"
         style="fill:#483737;fill-opacity:1;fill-rule:evenodd;stroke:#483737;stroke-width:0.625;stroke-linejoin:round;stroke-opacity:1"
         d="M 8.7185878,4.0337352 -2.2072895,0.01601326 8.7185884,-4.0017078 c -1.7454984,2.3720609 -1.7354408,5.6174519 -6e-7,8.035443 z"
         transform="scale(-0.6)" />
    </marker>
    <marker
       style="overflow:visible"
       id="marker11829"
       refX="0"
       refY="0"
       orient="auto">
      <path
         transform="scale(0.6)"
         d="M 8.7185878,4.0337352 -2.2072895,0.01601326 8.7185884,-4.0017078 c -1.7454984,2.3720609 -1.7354408,5.6174519 -6e-7,8.035443 z"
         style="fill:#483737;fill-opacity:1;fill-rule:evenodd;stroke:#483737;stroke-width:0.625;stroke-linejoin:round;stroke-opacity:1"
         id="path11831" />
    </marker>
    <marker
       style="overflow:visible"
       id="marker5839"
       refX="0"
       refY="0"
       orient="auto">
      <path
         transform="matrix(-0.8,0,0,-0.8,-10,0)"
         style="fill:#483737;fill-opacity:1;fill-rule:evenodd;stroke:#483737;stroke-width:1pt;stroke-opacity:1"
         d="M 0,0 5,-5 -12.5,0 5,5 Z"
         id="path5841" />
    </marker>
    <marker
       style="overflow:visible"
       id="marker5739"
       refX="0"
       refY="0"
       orient="auto">
      <path
         transform="matrix(-0.8,0,0,-0.8,-10,0)"
         style="fill:#483737;fill-opacity:1;fill-rule:evenodd;stroke:#483737;stroke-width:1pt;stroke-opacity:1"
         d="M 0,0 5,-5 -12.5,0 5,5 Z"
         id="path5741" />
    </marker>
    <marker
       style="overflow:visible"
       id="marker5633"
       refX="0"
       refY="0"
       orient="auto">
      <path
         transform="matrix(0.8,0,0,0.8,10,0)"
         style="fill:#483737;fill-opacity:1;fill-rule:evenodd;stroke:#483737;stroke-width:1pt;stroke-opacity:1"
         d="M 0,0 5,-5 -12.5,0 5,5 Z"
         id="path5635" />
    </marker>
    <marker
       orient="auto"
       refY="0"
       refX="0"
       id="marker5223"
       style="overflow:visible">
      <path
         id="path5225"
         d="M 0,0 5,-5 -12.5,0 5,5 Z"
         style="fill:#483737;fill-opacity:1;fill-rule:evenodd;stroke:#483737;stroke-width:1pt;stroke-opacity:1"
         transform="matrix(0.8,0,0,0.8,10,0)" />
    </marker>
    <marker
       style="overflow:visible"
       id="marker5165"
       refX="0"
       refY="0"
       orient="auto">
      <path
         transform="matrix(-0.8,0,0,-0.8,-10,0)"
         style="fill:#483737;fill-opacity:1;fill-rule:evenodd;stroke:#483737;stroke-width:1pt;stroke-opacity:1"
         d="M 0,0 5,-5 -12.5,0 5,5 Z"
         id="path5167" />
    </marker>
    <marker
       orient="auto"
       refY="0"
       refX="0"
       id="Arrow2Mend"
       style="overflow:visible">
      <path
         id="path4736"
         style="fill:#483737;fill-opacity:1;fill-rule:evenodd;stroke:#483737;stroke-width:0.625;stroke-linejoin:round;stroke-opacity:1"
         d="M 8.7185878,4.0337352 -2.2072895,0.01601326 8.7185884,-4.0017078 c -1.7454984,2.3720609 -1.7354408,5.6174519 -6e-7,8.035443 z"
         transform="scale(-0.6)" />
    </marker>
  </defs>
  <metadata
     id="metadata7">
    <rdf:RDF>
      <cc:Work
         rdf:about="">
        <dc:format>image/svg+xml</dc:format>
        <dc:type
           rdf:resource="http://purl.org/dc/dcmitype/StillImage" />
      </cc:Work>
    </rdf:RDF>
  </metadata>
  <g
     id="layer1"
     transform="translate(-4373.0001,-600.36218)"
     style="display:inline" />
  <g
     id="layer4"
     transform="translate(-4431.8662,-646.86614)" />
  <g
     id="layer2"
     style="display:inline"
     transform="translate(-4431.8662,-646.86614)" />
  <g
     id="layer3"
     style="display:inline"
     transform="translate(-4431.8662,-646.86614)">
    <path
       id="path55182"
       d="m 4457.6161,667.61614 h 20 l -5,15 10,25 h -30 l 10,-25 z"
       style="opacity:1;fill:#ff0000;fill-opacity:1;stroke:#483737;stroke-width:4;stroke-linecap:square;stroke-linejoin:round;stroke-miterlimit:4;stroke-dasharray:none;stroke-dashoffset:0;stroke-opacity:1" />
  </g>
</svg>
