<svg xmlns="http://www.w3.org/2000/svg" viewBox="0 0 28 28"><circle cx="14" cy="14" r="13.75" fill="#ffffff"/><g fill="#161616"><path d="M9.6 9.4C7.2 9 5.4 7.4 5 4.6C6.6 6.2 8.4 6.8 10.4 7.4Z"/><path d="M18.4 9.4C20.8 9 22.6 7.4 23 4.6C21.4 6.2 19.6 6.8 17.6 7.4Z"/><path d="M9.4 11.2C7.6 10.4 5.6 10.6 4.8 11.6C6 12.8 7.8 13 9.6 12.6Z"/><path d="M18.6 11.2C20.4 10.4 22.4 10.6 23.2 11.6C22 12.8 20.2 13 18.4 12.6Z"/><path d="M14 7.6C16.6 7.6 18.8 8.6 18.8 10.8C18.8 13.4 17.8 15.6 17.6 18.4C17.4 21.2 16 22.8 14 22.8C12 22.8 10.6 21.2 10.4 18.4C10.2 15.6 9.2 13.4 9.2 10.8C9.2 8.6 11.4 7.6 14 7.6Z"/></g><g fill="#ffffff"><ellipse cx="12.6" cy="20.2" rx="0.8" ry="1.1"/><ellipse cx="15.4" cy="20.2" rx="0.8" ry="1.1"/></g></svg>
