<?xml version="1.0" encoding="UTF-8"?>
<svg id="b" xmlns="http://www.w3.org/2000/svg" version="1.1" viewBox="0 0 968.5 1067.8">
  <!-- Generator: Adobe Illustrator 30.1.0, SVG Export Plug-In . SVG Version: 2.1.1 Build 136)  -->
  <defs>
    <style>
      .st0 {
        fill: none;
        stroke: #000;
        stroke-linecap: round;
        stroke-linejoin: round;
        stroke-width: 2px;
      }
    </style>
  </defs>
  <path class="st0" d="M767.2,297.5l.5,2c.8,2.9-2.7,3.7-3.6,6.3,8.5,1.8,17.5-1.5,25.7,5.6.9,14.9-13.6,19.6-20.9,30,3.2,6.4,9.9,3.1,14.8,2.9,7-.4,9.9,8.5,16.5,5.3,2.2,4.3,3.8,7.6,5.5,10.9-1.6,5.6-8.8,4.2-11.2,8.5,1.4,5.4,5.4,2.8,8.6,4,1.3,2.1,0,6.1,3.1,7.4,3.1,1.4,3.9-2.9,8-1,1.3,13.2,8,24.2,22.6,29.6-3.2,11.4,12.8,16.9,4.9,30-7.8,3.6-14.6,12.1-24.6,18.8-25.9,1.6-52.3-6.5-79.3-9-7.6-.7-15.4.1-22.6-1.4-11.6,14.3-17.9,30.6-23.5,47.3-1.2,3.6-2.9,7.4-5.9,10-16.8,14.8-23.2,36.7-36.4,53.7-12.7,16.5-8.6,34.5-9.6,52.3"/>
  <path class="st0" d="M337.7,388.5l1,1c5.4,4.4,7.5,10.3,8,17,1.4,20.9,11,39.4,16.8,59.1,3,10,5.8,20.1,8.4,29.6,24.6-.4,44.1-12.8,61.2-26.5,11.3-9,21.8-19.5,33.6-28.2,5.9-4.4,12.5-7.1,20-7,21,.3,42-1.3,63-1.9,21.4-.6,42.2,4.3,63,8.7,10.8,2.3,21.5,4.3,33,3.6,22-1.4,44.1.7,66,3.6l3.4-.3"/>
  <path class="st0" d="M239,571.3l-.3,2.1c-1.1,15.7-7.1,30.5-8.9,46-3.3,28.9-9.2,57.8-6.7,87,1.1,13.3-.8,25.4-7.7,35.8-7.3,11.2-2.7,21.2.6,31.1,3.8,11.5,11.2,19.5,23.6,24.4,27.3,10.8,52.3,26.6,79.1,38.7,5.3,2.4,10.8,4.5,16.2,6.7s5.2,2.2,7.8,3.3c13.2,6,24.3,15.8,38,21,3.3,1.3,6.6,2.7,10,3.9l2.1.7"/>
  <path class="st0" d="M568.1,681.8l-1.4,1.7c-4.2,8.7-7.3,17.7-10.1,27-4,13.3-11.6,24.5-20.7,35.2-10,11.7-17.9,25.2-27.9,37.1-4.5,5.4-10.5,8.4-14.8,14.4-14.8,21.1-22.8,43-20,69.3,1.5,13.9-2.5,28-4.5,42-2.4,17.5-2.4,35.3-4.2,53-1.2,11-5.2,21.7-5.2,35,8.2-6.3,18.3-8.4,19.1-20,3.2-.3,4,2,5.3,3.9,4.6,6.8,10,11.6,18.9,13.3,14.5,2.8,24.6,13.8,21.9,35.7-.6,4.8-.4,9.2,2.2,13,5.2,7.4.8,16.6,4.9,24.2,8.7,1.1,14.5-4.6,19.9-9.4,7-6.3,14.7-11.3,23.3-14.6,6.6-2.6,8-7.7,8.8-13.2,2.2-15,6.3-29.4,10.1-44,1.3-4.8,3.2-9.6,7-12.9,9.4-8.1,11-19.1,9.6-30-.9-7.1,1.7-13.3-.3-22.1,21.1,6.7,40.7,10.2,59.8,10.2,5,5,.3,12.6,7.1,15.7,4.1,1.7,6.4-4.5,10.7-1.4,3.7-10.5.6-20.4,4.5-28.6-1.4-6-6.3-7.6-10.2-11.5,7.8-3.1,14.8-7.4,23-.6,9.4-9.8.8-22.8,7.3-31.7-2.5-4.9-4.1-9.1-8.5-11-4.2,1.6-7.1,5.9-12.6,5.5-11.6-9.3-24.9-17.5-36.8-28-10.8-9.6-25.6-13.9-38-21.9-4.4-2.8-12.4-1.5-18.7-2.3-5.5-.7-10.8-1.5-16-3.2l-1.5-.7"/>
  <path class="st0" d="M682,860l.7-.5c3-2.3,7,.3,11-2.6v-24.6c-10,1.5-16.7-.3-20.2-5.2,11.9-1.5,22.9-5.2,33.1-10,.7-6.6-2.1-12.7-.8-18.6,2.1-9.3,10.7-6.4,16.8-7.1,1.1-7.8.8-14.4-.9-19.9,8.3-4.5,8.4-4.5,11,5,11.5-.4,24.9-12.3,27-24,1-5.4,9.6-14,11.7-14,6.8-.2,7.4,5.3,11.6,6.1,3.5-7.7,15.6-5.4,17.8-15.3-.3-2.3-2.9-3-3.9-4.6,3.1-6.1,8.8-11.3,5.9-19.2-2.7,1.5-5.4,1.5-8.4-.1,4.9-11.8-2.7-19.2-9.7-26.8l-1.1-1"/>
  <path class="st0" d="M562.5,431.8s2.8-20.8,2.8-30.4c0-17.1,6.6-31,15.1-45.2,8.2-13.7,17.5-26,29.1-37,10.5-10,21.4-17.7,36.1-20,17.5-2.7,34.1-8.9,51.1-13.5,11.9-3.2,25-2.1,36.8,1.9,11.9,4,24.1,7.1,36.2,10.5,4.2,1.2,9.4,1.4,14-1.4,3.9,2.8,8.4,4.1,11.9,6.8,8.2,6.2,16.7,3.4,23.9-.5,6.6-3.5,12.8-7.3,20.6-8.8-14.5-6.7-31-8.8-41.1-20.5-7-1.1-12.6,3.8-19.3-.5,6.5-5.5,14.2-4.3,22.5-6.4,9.8-3.2,8.5-19.2,18.8-22.6,5.2,1.1,7.3,3.8,9.7,6.2,9.6,9.2,18.9,10.8,29.9,3.8,4-2.5,8.2-5.1,12.8-7.8,6.2,5,14,1.8,21.3,1.7,6-.1,12-1,18,.2,6.7,1.4,12.4-.8,16.8-6-4.2-2.1-6.5-6.7-10.8-9.3-7.6,2.6-15.3,2.5-23.6,2.3-4.6-9.6-12.5-15.1-23.5-15.1.2-8.1-4.2-13.4-8.1-18.7-3.3-4.5-3.1-8.6,1.2-10.9,5.8-3,10.9-7.8,18.7-8.6,3,7.6,9.5,7.1,16.2,6.4,8.2-.8,16.1,1.2,24.7,3.8,11-13.6,28.4-16.7,43.4-27.7,2.2-4.2-1.8-9-3.5-12-1.7-6,4.5-8.7,1-14.2-9,2.3-18.3,4.6-27.7,6.9-11-4-16.5-19.7-31.4-15.6-4.4-2.9-1.8-8.5-6.7-12.2-2.2-1.2-6.3,3.2-8.1,1.6-3.9-3.2-1.5-4.9-1.7-6.9-4.5-6.7-12.4-1.5-18.1-5.3-7.8,6.2-15.3,13-25.8,12.5-2.1-.1-6-.7-6-4.7,4.6-6,17.4,1.4,18.4-13.2-14.6,2-25-10.4-40.1-11-2.5-3.7-3.5-9.4-5.5-13.5.8-4.8,4-4.9,6.2-6.4.9-21.9,10.5-25.3-31.3-33-5-7.4-5.8-16.6-8.7-24.9-4.3-12.6-6.5-13.6-19-8.9-1,.4-1.9,1-3.5.8-1.1,3.9-.2,8.1-.7,13-2.1,3.1-6,5.7-8.9,9.4,1.4,2.6,1,5.7,1,9.1-3.7,1.1-7.3,1-11.1-.4.8-6.4,3.7-12.4,4.2-19.9-2-3.3-5.2-6.8-7.1-11.6-1.5,10.6-12.5,14.9-14.5,25.4-1.2,6.5-10,7.1-16.3,8-2.5,3.5.2,7.8-1.9,11.2-3.6,2.5-7.5,4.1-11.2,5.9-24.8,12.2-43.3,30.1-52,57-1.4,4.5-3.8,7.3-7.9,10.2-19.1,13.7-18.9,14-23.3,37.3-4.1,1.5-7.3,4.7-10.2,7.8-7-1.7-13.3-2-19.7-.3-4.4,3.5-4.8,8.9-5.5,14.1-5.7-1.6-6.5-6.7-2.5-15.1-6-2.8-12.2-.6-18,.3-20,3-39.8,7.3-60,8.9-10.9.9-19.5,10.8-18.8,21.8,1,15.9-7.3,28.1-14.1,41.1-7.2,13.7-17.7,24.2-30.2,32.9-2.9,2-5,4.3-7,6.6.8,4.1,2.4,7.6,2,12.4-7.9,13.6-24.6,19.9-32.9,34.1-6,1-10.4-7.5-17-3-3.9,3.8,2.3,6.5.1,11.9-24.6,8.7-24.1,35.1-35.5,56.8-19.6,13.5-42.5,12.2-65.6,5.2-6.3-1.9-11.9-3-18.5-.8-7.9,17.2-2,33.6,3.6,49.9-1.7,3.8-5.6,5.6-7.7,8.9,3.1,2.7,7.1,3.3,9.5,6.4-.4,2.5-.9,5.1-3.1,6.9-9.1,0-26-13.2-28.2-23.1-30.8,2.8-58.5-13.5-89.9-15.8-8.7,4.6-15.6,13-22.9,19.8-3.9,0-7.2.7-9.9-.1-18.2-5.5-32.8,4.6-46.7,12.6-11.7,6.8-13,6.8-12.3,24.1-16.8,16.9-28.5,37.4-36.3,61,4.9,4.5,6.2,10.6,4.9,18.7-3.7,3.6-8.2,8.2-12.4,14.8,9.6,14,6.2,30.7,6.8,47.6,14.1,3.9,20.5,18.4,33.2,25.3-4.4,1.7-8.2,3.9-10.8,7.6,1.4,7.7,3.7,15.3-4.6,20.4-2.3,1.4-1.2,4.1-.9,5.9.9,7,1.5,14.1,2.8,21,2.9.8,5.2-2.5,7.4-1,1.4,0,2.6-.2,2.6,0,2.6,9.3,18.1,3.9,18.2,15.7-5.4,7.9-14.5-8.4-18.8,4.6,2.9,5.1,3,12.8,7.5,18.7,10.7-4.5,21-4.4,31.6.6-5.8,10.2-16.1,3.8-24.4,8.3-1.2,6.1-6.6,12-4.6,21.3,2.9,2.4,5.9,7.7,11.7,9.7,13.4-2.9,24.2-10.8,34.9-19,8.1,2.4,20.1,16.7,21,25,0,1,.4,2.3,0,3-6.8,9-6.3,19.6-5.8,29.1-3.8,3.9-8.9,3.1-11.3,7.5,2.5,4.7,6.5,8.5,11.3,11.3,9.3,5.5,12.8,13.3,12.1,24.1-.7,12-.1,24.1,2,36,1,5.6-4.5,10.5-.9,16.9,6.3.5,9.1,5.3,11,12-7.2,4.8-6.6,12.5-6.1,20.5,14.5,4,24-5,34.3-14.4,2.6,4.3,1.1,8.4,1.7,12.2,2.8,3.5,6.9,3,10.9,2.8,4.7-.2,9.1.2,13,3,8.1,6,16.8,4.3,24.9.8,4.8-2.1,9.6-4.8,14.2-7.7,9.5-5.8,17.8-.7,25.2,4.8,6.1-3.1,11.7-9.6,14.9-14.1"/>
  <path class="st0" d="M817,457.6l3.7,1.9c6.8,3.2,6.4,11.3,11.4,16.4,3.2,2.2,7.9-1.1,12.2,1.9,3.5,19.4,24.1,23.8,34.5,37.6,1.9,2.6,5.8,1.3,9.6.2,5.3,7.2,8.5,16.9,19.1,20.2,4.8,1.5-.3,8.8,4.2,11.8,4.3,2.2,9.5-.4,14.8,2.1,1,14.5-12.7,19.3-17.8,29.4-7.3-2-12.2-6.3-18.3-8.7-3.9,1.2-2.9,6-6.1,8.3-3.4-.6-3.2-5.5-6.7-6.2-10.3,14.1-20.7-1.9-29.3,0-8.8-5.9-11.1-15-16.8-21.8-.5-.5-2.9-.8-4.8,2.5,1.3,7.7,11.6,12.8,9.5,24.1-4.3,5-9.4.5-14.2-2.7-5.2,1.8-6,7.1-8.2,9.2-.8,15.3-7.4,25.5-20.4,31.5,2,8.3,5.3,16.2-3.6,22.6-2.5,1.8,1.2,13.8,4.8,18.8-5.7,18.5-18.4,31-33,39.2-18.9.3-34.5,4.5-47.9,14.9-9.6,7.5-18.9,15-31,18.2-1.9.5-3.8,1.9-6.1,1.7-20.7-1.2-40.8,3.3-61,6.9-1.3.2-3,.7-4-.9l-1.8-2.5"/>
  <path class="st0" d="M813.7,584.8l-2-.3c-25-4.9-47.4,7-70.9,11.3-16.9,3.1-33.4,8.4-50.1,12.4-8.3,2-17.3,1.5-26,1.9-28.3,1.4-56.6,3.6-84.9,4.4-3.7-2.2-6.6-5.5-9.1-8-17.7.6-34.8-3.3-51.6,4.9-2.9,3.4-6.8,7.5-9.1,12.3-4.4,9.2-11.8,12.7-21.2,12.9-26.5.6-52.4,7.1-79,7.4-21.2.2-41.9-5.3-63-3.3h-2.5"/>
  <path class="st0" d="M327.7,550.5c4.7,15.5,9.8,30.9,11.8,47,.9,7.2,2.6,14.1,4.4,20.9,5.7,21.3-6.1,38.2-13.4,56-7.7,18.7-14.4,37.7-22.7,56.1-2.4,5.2-4.7,10.2-7.8,15.2-4.9,7.8-9.2,15.9-10.8,25.7-1.6,9.9-10,17.5-15.6,26-12,18-16.3,38.4-17.5,59.1-.9,15.4-3.2,30.6-4.5,46-.8,9.3.6,16.9,7,24.2,6.4,7.3,11.3,15.9,18.8,22.4-5.2,11.3-7.3,22.2-1.7,33.4,3.8,7.4-3,12.6-4.1,19.4,6.8,5.9,13.9,2.7,18.9-1.7,7.2-6.4,14.6-12.7,21.3-19.7,1.9-1.9,3.8-4.2,7-4h1.1"/>
  <path class="st0" d="M170.3,557.9l-.6,1.5c-4,6.3-8.8,12.2-12,19-3,6.3-9.5,7.3-15,10-19.6,9.9-34.1,25.1-45.1,43.9-7.3,12.7-18,23.6-24.3,36.4-7.9,15.8-22.7,23.7-32.7,36.7l-1.1,1.2"/>
  <path class="st0" d="M686.7,973.5c-.8-1.6-.8-3.5-2.3-5.5-4.1,3.2-8.5,5.7-12.8,8.4-3.7,2.3-5.7,5.2-5.8,9.2-.3,7.2-3.2,13.7-7.3,18.8-4,4.8-4.2,11.2-2.3,13.9,6.8,9.5,4,19.4,3.6,29.3,0,1.7-.8,3.6,1.1,5.3,7.2-2.2,6.6-11.3,13.3-13.8,2-3.1,5.9.2,9.5-3.4-1.6-10.3,1.2-22.2-7-32.1,8.9-7.7,1.3-21.1,10-29v-1Z"/>
  <path class="st0" d="M580.1,1039.1l.6.4c8.3.4,15-5.1,23-6.1,5.4-.7,11.1-1.2,16-3.9,11.7-6.6,17.2-20.9,31-25.1,1.8-.5,2.5-3.7,2.8-4.9,2-11.6,6.6-22.3,11.3-32.5,6.9-.8,7.6-7.5,11.7-11.1-4.2-5.5-9.5-9-12.8-14.5v-10.7"/>
  <path class="st0" d="M469.6,213.5l2.2,2c11.8,12.6,28.4,18.1,42.4,27.4,4.5,3,13.6,1.2,20.7-.3,7.5-1.6,15.2-2.8,23-2.2,7.6.5,13.3-4.7,20-6.9,20.1-6.6,38-17.4,55.9-28.2,5.6-3.4,12,0,17.4-5,1.5-8.7,3.5-18.4,6.4-27.1-5.3-18.8-6.2-38.9-21.8-52.7l-2.1-1.9"/>
  <path class="st0" d="M488.7,804.2l-3-.7c-21.6-5.9-42.8-9.7-63.2,4.7-3.9,2.7-5.7,5.2-6.9,9.3-5.5,19.2-14,37.1-22.9,54.7-2.7,5.4-5.5,10.8-8.3,16.2-3.4,6.7-5,12.6-4,20.1,2.1,16.5,1.2,33.3,1.2,50,0,7.2-6.2,8.6-11,10.9-9,4.3-17,9.3-18.5,21.1-12.7-.3-23.5-2.9-32.4-13.2,5.6-41.4,4.8-83.6,12.8-124.9.5-2.5,1.9-4.5,2.1-7l.2-2.2"/>
  <path class="st0" d="M501.5,633.2l1.2,1.3c20.4,17.7,42.1,33.9,65.4,47.3,11.4,6.6,22.8,14.2,35.6,18.7,3.2,1.1,4.4,3.4,5.2,6.9,4.1,18.6.9,36-7.1,53.1-11.6,24.9-21.7,50.5-31.8,76.1-4,10.2.4,21.2.7,31.9.4,16.1,1.7,32.4-3.8,47.6-1.3,3.5-2.9,7-5,10.4-2.4,3.9-5.2,7.4-8,11-14.7,18.9-29.5,37.7-39.1,59.9l-.5,1"/>
  <path class="st0" d="M599.9,224.4l.5.8c5.7,22.8,19.7,43.3,29.7,64.1,1.8,3.7,6.3,12.3,6.3,12.3"/>
  <path class="st0" d="M459.4,995.2l-1.7.3c-6.1,1.4-10.9-4.6-16.8-1.4-4.8-10.1.7-20.1-4.4-28.6-3.3-1.4-6.9-2.6-11.5-1.8-1.5,5-3.4,10.4-10.2,13.2-12.6-.5-10.2-20.6-23.3-19.4-3.4-4.5-.9-11.2-7.8-12h-1.9"/>
  <path class="st0" d="M823.7,315.5c-1.3,2-3.4.4-5.1,1.3-1.5,3.9-2,8.7-6.4,12-7.1-5.5-12-1.1-16.8,4.3,1.4,7.3,11,5.7,11.1,13.6,9.7-9.2,15.3-19.3,21.5-28.6-1-1.9-2.2-1.6-3.3-1.6l-1-1Z"/>
  <path class="st0" d="M371.9,495.1c-12.9,8.1-16.1,25.7-26.9,35.6-4.2,3.9-10.1,6.7-12.3,12.7l-2,2c-1.2,1.2-1.4,3.8-3,3.9-18.9,1-35.1,10.7-53,15.1-15.8,3.9-31.5,7.8-48,7.1-13.6-.6-26.1-4.4-39.1-7.9-30-8.1-55.7-24.8-81.8-40.4-20.2-12.1-38.4-27.4-59.1-38.8l-1.3-1"/>
  <path class="st0" d="M566.8,916.1l1.9.3c13.8.9,27.7.2,41,5h.9"/>
  <path class="st0" d="M820.7,257.5c5.5,3.8,12.5,4.2,18,8.2,0,2.7-.5,5.4-2,7.8-3.3-.1-5.4-3.8-9-3-8.4,8.9-9.2,9-14.8,2.2,0-5.7,8.5-6.7,6.8-13.2l1-2Z"/>
</svg>