{
    "asset": {
        "generator": "Khronos glTF Blender I/O v4.2.69",
        "version": "2.0"
    },
    "extensionsUsed": ["KHR_materials_specular", "KHR_materials_sheen"],
    "scene": 0,
    "scenes": [
        {
            "name": "Scene",
            "nodes": [0, 1]
        }
    ],
    "nodes": [
        {
            "mesh": 0,
            "name": "blankblockerv2"
        },
        {
            "mesh": 1,
            "name": "blankblockerv2.001"
        }
    ],
    "materials": [
        {
            "doubleSided": true,
            "name": "Material.001",
            "pbrMetallicRoughness": {
                "baseColorFactor": [0.6038233637809753, 0.6038278341293335, 0.6038275361061096, 1],
                "metallicFactor": 0,
                "roughnessFactor": 0.5
            }
        },
        {
            "alphaMode": "BLEND",
            "doubleSided": true,
            "emissiveFactor": [1, 1, 1],
            "extensions": {
                "KHR_materials_sheen": {
                    "sheenColorFactor": [1, 1, 1],
                    "sheenRoughnessFactor": 1
                }
            },
            "name": "Material.002"
        }
    ],
    "meshes": [
        {
            "name": "blankblockerv2",
            "primitives": [
                {
                    "attributes": {
                        "POSITION": 0,
                        "NORMAL": 1,
                        "TEXCOORD_0": 2
                    },
                    "indices": 3,
                    "material": 0
                }
            ]
        },
        {
            "name": "blankblockerv2.001",
            "primitives": [
                {
                    "attributes": {
                        "POSITION": 4,
                        "NORMAL": 5,
                        "TEXCOORD_0": 6
                    },
                    "indices": 7,
                    "material": 1
                }
            ]
        }
    ],
    "accessors": [
        {
            "bufferView": 0,
            "componentType": 5126,
            "count": 58,
            "max": [15.299874305725098, 20, 0],
            "min": [-0.29987406730651855, 0, -20],
            "type": "VEC3"
        },
        {
            "bufferView": 1,
            "componentType": 5126,
            "count": 58,
            "type": "VEC3"
        },
        {
            "bufferView": 2,
            "componentType": 5126,
            "count": 58,
            "type": "VEC2"
        },
        {
            "bufferView": 3,
            "componentType": 5123,
            "count": 120,
            "type": "SCALAR"
        },
        {
            "bufferView": 4,
            "componentType": 5126,
            "count": 72,
            "max": [11.058892250061035, 20.203014373779297, -8.0172758102417],
            "min": [3.9405291080474854, 6.411559581756592, -12.414992332458496],
            "type": "VEC3"
        },
        {
            "bufferView": 5,
            "componentType": 5126,
            "count": 72,
            "type": "VEC3"
        },
        {
            "bufferView": 6,
            "componentType": 5126,
            "count": 72,
            "type": "VEC2"
        },
        {
            "bufferView": 7,
            "componentType": 5123,
            "count": 108,
            "type": "SCALAR"
        }
    ],
    "bufferViews": [
        {
            "buffer": 0,
            "byteLength": 696,
            "byteOffset": 0,
            "target": 34962
        },
        {
            "buffer": 0,
            "byteLength": 696,
            "byteOffset": 696,
            "target": 34962
        },
        {
            "buffer": 0,
            "byteLength": 464,
            "byteOffset": 1392,
            "target": 34962
        },
        {
            "buffer": 0,
            "byteLength": 240,
            "byteOffset": 1856,
            "target": 34963
        },
        {
            "buffer": 0,
            "byteLength": 864,
            "byteOffset": 2096,
            "target": 34962
        },
        {
            "buffer": 0,
            "byteLength": 864,
            "byteOffset": 2960,
            "target": 34962
        },
        {
            "buffer": 0,
            "byteLength": 576,
            "byteOffset": 3824,
            "target": 34962
        },
        {
            "buffer": 0,
            "byteLength": 216,
            "byteOffset": 4400,
            "target": 34963
        }
    ],
    "buffers": [
        {
            "byteLength": 4616,
            "uri": "/BarrierOne.bin"
        }
    ]
}
