<?xml version="1.0" encoding="UTF-8"?>
<svg xmlns="http://www.w3.org/2000/svg" viewBox="-1.5 0 24.62 19.11">
  <defs>
    <style>
      .d {
        mix-blend-mode: multiply;
        opacity: .6;
      }

      .e {
        fill: #231f20;
      }

      .f {
        stroke: #332626;
      }

      .f, .g {
        fill: none;
        stroke-miterlimit: 10;
        stroke-width: 2.75px;
      }

      .h {
        isolation: isolate;
      }

      .i {
        fill: #fff;
      }

      .g {
        stroke: #000;
      }
    </style>
  </defs>
  <g class="h">
    <g id="b" data-name="Layer 2">
      <g id="c" data-name="Layer 1">
        <g>
          <path class="e" d="M21.62,19.11h-3.82V4.02l-5.57,3.07v-3.6l4.43-2.63c1.02-.58,2.02-.86,3.07-.86h1.88v19.11Z"/>
          <g>
            <g class="d">
              <path class="g" d="M5.22,13.61v1.25h-1.44v-1.25c-2.15-.19-3.59-1.23-3.78-3.35h2.4c.14.83.66,1.35,1.38,1.54v-2.93c-2.1-.72-3.33-1.59-3.33-3.39,0-2.03,1.55-3.07,3.33-3.28V.93h1.44v1.25c2.24.24,3.33,1.55,3.55,3.35h-2.42c-.1-.75-.43-1.31-1.14-1.54v2.8c2.55.82,3.6,1.79,3.6,3.65,0,1.86-1.52,2.96-3.6,3.17ZM3.78,6.51v-2.56c-.63.16-1.01.59-1.01,1.25,0,.72.35,1.06,1.01,1.31ZM5.22,11.85c.75-.14,1.17-.53,1.17-1.26,0-.59-.29-1.06-1.17-1.38v2.64Z"/>
              <path class="g" d="M21.62,17.81h-3.82V2.72l-5.57,3.07v-3.6L16.66-.44c1.02-.58,2.02-.86,3.07-.86h1.88v19.11Z"/>
            </g>
            <g>
              <path class="f" d="M5.22,14.91v1.25h-1.44v-1.25c-2.15-.19-3.59-1.23-3.78-3.35h2.4c.14.83.66,1.35,1.38,1.54v-2.93c-2.1-.72-3.33-1.59-3.33-3.39,0-2.03,1.55-3.07,3.33-3.28v-1.26h1.44v1.25c2.24.24,3.33,1.55,3.55,3.35h-2.42c-.1-.75-.43-1.31-1.14-1.54v2.8c2.55.82,3.6,1.79,3.6,3.65,0,1.86-1.52,2.96-3.6,3.17ZM3.78,7.81v-2.56c-.63.16-1.01.59-1.01,1.25,0,.72.35,1.06,1.01,1.31ZM5.22,13.14c.75-.14,1.17-.53,1.17-1.26,0-.59-.29-1.06-1.17-1.38v2.64Z"/>
              <path class="f" d="M21.62,19.11h-3.82V4.02l-5.57,3.07v-3.6l4.43-2.63c1.02-.58,2.02-.86,3.07-.86h1.88v19.11Z"/>
            </g>
          </g>
          <g>
            <path class="i" d="M5.22,14.91v1.25h-1.44v-1.25c-2.15-.19-3.59-1.23-3.78-3.35h2.4c.14.83.66,1.35,1.38,1.54v-2.93c-2.1-.72-3.33-1.59-3.33-3.39,0-2.03,1.55-3.07,3.33-3.28v-1.26h1.44v1.25c2.24.24,3.33,1.55,3.55,3.35h-2.42c-.1-.75-.43-1.31-1.14-1.54v2.8c2.55.82,3.6,1.79,3.6,3.65,0,1.86-1.52,2.96-3.6,3.17ZM3.78,7.81v-2.56c-.63.16-1.01.59-1.01,1.25,0,.72.35,1.06,1.01,1.31ZM5.22,13.14c.75-.14,1.17-.53,1.17-1.26,0-.59-.29-1.06-1.17-1.38v2.64Z"/>
            <path class="i" d="M21.62,19.11h-3.82V4.02l-5.57,3.07v-3.6l4.43-2.63c1.02-.58,2.02-.86,3.07-.86h1.88v19.11Z"/>
          </g>
        </g>
      </g>
    </g>
  </g>
</svg>
