<?xml version="1.0" encoding="UTF-8"?>
<svg xmlns="http://www.w3.org/2000/svg" viewBox="-1.5 0 27.53 19.53">
  <defs>
    <style>
      .d {
        mix-blend-mode: multiply;
        opacity: .6;
      }

      .e {
        fill: #231f20;
      }

      .f {
        stroke: #332626;
      }

      .f, .g {
        fill: none;
        stroke-miterlimit: 10;
        stroke-width: 2.75px;
      }

      .h {
        isolation: isolate;
      }

      .i {
        fill: #fff;
      }

      .g {
        stroke: #000;
      }
    </style>
  </defs>
  <g class="h">
    <g id="b" data-name="Layer 2">
      <g id="c" data-name="Layer 1">
        <g>
          <path class="e" d="M24.39,16.51v3.02h-13.93v-1.8l6.43-6.29c2.58-2.52,3.6-3.88,3.6-5.71,0-1.69-.97-2.88-2.74-2.88-1.91,0-2.83,1.19-3.07,3.49l-.03.28h-3.79l.03-.28c.39-4.1,2.94-6.34,7.23-6.34s6.43,2.24,6.43,5.51c0,2.41-1.19,4.13-4.68,7.53l-3.54,3.46h8.09Z"/>
          <g>
            <g class="d">
              <path class="g" d="M5.22,14.02v1.25h-1.44v-1.25c-2.15-.19-3.59-1.23-3.78-3.35h2.4c.14.83.66,1.35,1.38,1.54v-2.93c-2.1-.72-3.33-1.59-3.33-3.39,0-2.03,1.55-3.07,3.33-3.28v-1.26h1.44v1.25c2.24.24,3.33,1.55,3.55,3.35h-2.42c-.1-.75-.43-1.31-1.14-1.54v2.8c2.55.82,3.6,1.79,3.6,3.65,0,1.86-1.52,2.96-3.6,3.17ZM3.78,6.93v-2.56c-.63.16-1.01.59-1.01,1.25,0,.72.35,1.06,1.01,1.31ZM5.22,12.26c.75-.14,1.17-.53,1.17-1.26,0-.59-.29-1.06-1.17-1.38v2.64Z"/>
              <path class="g" d="M24.39,15.21v3.02h-13.93v-1.8l6.43-6.29c2.58-2.52,3.6-3.88,3.6-5.71,0-1.69-.97-2.88-2.74-2.88-1.91,0-2.83,1.19-3.07,3.49l-.03.28h-3.79l.03-.28c.39-4.1,2.94-6.34,7.23-6.34s6.43,2.24,6.43,5.51c0,2.41-1.19,4.13-4.68,7.53l-3.54,3.46h8.09Z"/>
            </g>
            <g>
              <path class="f" d="M5.22,15.32v1.25h-1.44v-1.25c-2.15-.19-3.59-1.23-3.78-3.35h2.4c.14.83.66,1.35,1.38,1.54v-2.93c-2.1-.72-3.33-1.59-3.33-3.39,0-2.03,1.55-3.07,3.33-3.28v-1.26h1.44v1.25c2.24.24,3.33,1.55,3.55,3.35h-2.42c-.1-.75-.43-1.31-1.14-1.54v2.8c2.55.82,3.6,1.79,3.6,3.65,0,1.86-1.52,2.96-3.6,3.17ZM3.78,8.23v-2.56c-.63.16-1.01.59-1.01,1.25,0,.72.35,1.06,1.01,1.31ZM5.22,13.56c.75-.14,1.17-.53,1.17-1.26,0-.59-.29-1.06-1.17-1.38v2.64Z"/>
              <path class="f" d="M24.39,16.51v3.02h-13.93v-1.8l6.43-6.29c2.58-2.52,3.6-3.88,3.6-5.71,0-1.69-.97-2.88-2.74-2.88-1.91,0-2.83,1.19-3.07,3.49l-.03.28h-3.79l.03-.28c.39-4.1,2.94-6.34,7.23-6.34s6.43,2.24,6.43,5.51c0,2.41-1.19,4.13-4.68,7.53l-3.54,3.46h8.09Z"/>
            </g>
          </g>
          <g>
            <path class="i" d="M5.22,15.32v1.25h-1.44v-1.25c-2.15-.19-3.59-1.23-3.78-3.35h2.4c.14.83.66,1.35,1.38,1.54v-2.93c-2.1-.72-3.33-1.59-3.33-3.39,0-2.03,1.55-3.07,3.33-3.28v-1.26h1.44v1.25c2.24.24,3.33,1.55,3.55,3.35h-2.42c-.1-.75-.43-1.31-1.14-1.54v2.8c2.55.82,3.6,1.79,3.6,3.65,0,1.86-1.52,2.96-3.6,3.17ZM3.78,8.23v-2.56c-.63.16-1.01.59-1.01,1.25,0,.72.35,1.06,1.01,1.31ZM5.22,13.56c.75-.14,1.17-.53,1.17-1.26,0-.59-.29-1.06-1.17-1.38v2.64Z"/>
            <path class="i" d="M24.39,16.51v3.02h-13.93v-1.8l6.43-6.29c2.58-2.52,3.6-3.88,3.6-5.71,0-1.69-.97-2.88-2.74-2.88-1.91,0-2.83,1.19-3.07,3.49l-.03.28h-3.79l.03-.28c.39-4.1,2.94-6.34,7.23-6.34s6.43,2.24,6.43,5.51c0,2.41-1.19,4.13-4.68,7.53l-3.54,3.46h8.09Z"/>
          </g>
        </g>
      </g>
    </g>
  </g>
</svg>
