<?xml version="1.0" encoding="UTF-8"?>
<svg xmlns="http://www.w3.org/2000/svg" viewBox="-1.5 0 27.77 19.5">
  <defs>
    <style>
      .d {
        mix-blend-mode: multiply;
        opacity: .6;
      }

      .e {
        fill: #231f20;
      }

      .f {
        stroke: #332626;
      }

      .f, .g {
        fill: none;
        stroke-miterlimit: 10;
        stroke-width: 2.75px;
      }

      .h {
        isolation: isolate;
      }

      .i {
        fill: #fff;
      }

      .g {
        stroke: #000;
      }
    </style>
  </defs>
  <g class="h">
    <g id="b" data-name="Layer 2">
      <g id="c" data-name="Layer 1">
        <g>
          <path class="e" d="M24.77,12.77c0,4.38-3.52,6.73-7.26,6.73-4.27,0-6.7-1.77-7.09-5.62l-.03-.28h3.82l.03.28c.28,1.69,1.25,2.77,3.07,2.77,2.13,0,3.38-1.5,3.38-3.74s-1.22-3.77-3.3-3.77c-1.5,0-2.46.64-3.13,2.16h-3.54L12.09,0h11.91v2.99h-8.78l-.72,5.34.94-1.3c.89-.53,1.88-.75,2.99-.75,4.02,0,6.34,2.55,6.34,6.48Z"/>
          <g>
            <g class="d">
              <path class="g" d="M5.22,13.61v1.25h-1.44v-1.25c-2.15-.19-3.59-1.23-3.78-3.35h2.4c.14.83.66,1.35,1.38,1.54v-2.93c-2.1-.72-3.33-1.59-3.33-3.39,0-2.03,1.55-3.07,3.33-3.28V.93h1.44v1.25c2.24.24,3.33,1.55,3.55,3.35h-2.42c-.1-.75-.43-1.31-1.14-1.54v2.8c2.55.82,3.6,1.79,3.6,3.65,0,1.86-1.52,2.96-3.6,3.17ZM3.78,6.51v-2.56c-.63.16-1.01.59-1.01,1.25,0,.72.35,1.06,1.01,1.31ZM5.22,11.85c.75-.14,1.17-.53,1.17-1.26,0-.59-.29-1.06-1.17-1.38v2.64Z"/>
              <path class="g" d="M24.77,11.47c0,4.38-3.52,6.73-7.26,6.73-4.27,0-6.7-1.77-7.09-5.62l-.03-.28h3.82l.03.28c.28,1.69,1.25,2.77,3.07,2.77,2.13,0,3.38-1.5,3.38-3.74s-1.22-3.77-3.3-3.77c-1.5,0-2.46.64-3.13,2.16h-3.54l1.36-11.3h11.91V1.69h-8.78l-.72,5.34.94-1.3c.89-.53,1.88-.75,2.99-.75,4.02,0,6.34,2.55,6.34,6.48Z"/>
            </g>
            <g>
              <path class="f" d="M5.22,14.91v1.25h-1.44v-1.25c-2.15-.19-3.59-1.23-3.78-3.35h2.4c.14.83.66,1.35,1.38,1.54v-2.93c-2.1-.72-3.33-1.59-3.33-3.39,0-2.03,1.55-3.07,3.33-3.28v-1.26h1.44v1.25c2.24.24,3.33,1.55,3.55,3.35h-2.42c-.1-.75-.43-1.31-1.14-1.54v2.8c2.55.82,3.6,1.79,3.6,3.65,0,1.86-1.52,2.96-3.6,3.17ZM3.78,7.81v-2.56c-.63.16-1.01.59-1.01,1.25,0,.72.35,1.06,1.01,1.31ZM5.22,13.14c.75-.14,1.17-.53,1.17-1.26,0-.59-.29-1.06-1.17-1.38v2.64Z"/>
              <path class="f" d="M24.77,12.77c0,4.38-3.52,6.73-7.26,6.73-4.27,0-6.7-1.77-7.09-5.62l-.03-.28h3.82l.03.28c.28,1.69,1.25,2.77,3.07,2.77,2.13,0,3.38-1.5,3.38-3.74s-1.22-3.77-3.3-3.77c-1.5,0-2.46.64-3.13,2.16h-3.54L12.09,0h11.91v2.99h-8.78l-.72,5.34.94-1.3c.89-.53,1.88-.75,2.99-.75,4.02,0,6.34,2.55,6.34,6.48Z"/>
            </g>
          </g>
          <g>
            <path class="i" d="M5.22,14.91v1.25h-1.44v-1.25c-2.15-.19-3.59-1.23-3.78-3.35h2.4c.14.83.66,1.35,1.38,1.54v-2.93c-2.1-.72-3.33-1.59-3.33-3.39,0-2.03,1.55-3.07,3.33-3.28v-1.26h1.44v1.25c2.24.24,3.33,1.55,3.55,3.35h-2.42c-.1-.75-.43-1.31-1.14-1.54v2.8c2.55.82,3.6,1.79,3.6,3.65,0,1.86-1.52,2.96-3.6,3.17ZM3.78,7.81v-2.56c-.63.16-1.01.59-1.01,1.25,0,.72.35,1.06,1.01,1.31ZM5.22,13.14c.75-.14,1.17-.53,1.17-1.26,0-.59-.29-1.06-1.17-1.38v2.64Z"/>
            <path class="i" d="M24.77,12.77c0,4.38-3.52,6.73-7.26,6.73-4.27,0-6.7-1.77-7.09-5.62l-.03-.28h3.82l.03.28c.28,1.69,1.25,2.77,3.07,2.77,2.13,0,3.38-1.5,3.38-3.74s-1.22-3.77-3.3-3.77c-1.5,0-2.46.64-3.13,2.16h-3.54L12.09,0h11.91v2.99h-8.78l-.72,5.34.94-1.3c.89-.53,1.88-.75,2.99-.75,4.02,0,6.34,2.55,6.34,6.48Z"/>
          </g>
        </g>
      </g>
    </g>
  </g>
</svg>
