<?xml version="1.0" encoding="UTF-8"?>
<svg xmlns="http://www.w3.org/2000/svg" viewBox="-1.5 0 27.77 19.88">
  <defs>
    <style>
      .d {
        mix-blend-mode: multiply;
        opacity: .6;
      }

      .e {
        fill: #231f20;
      }

      .f {
        stroke: #332626;
      }

      .f, .g {
        fill: none;
        stroke-miterlimit: 10;
        stroke-width: 2.75px;
      }

      .h {
        isolation: isolate;
      }

      .i {
        fill: #fff;
      }

      .g {
        stroke: #000;
      }
    </style>
  </defs>
  <g class="h">
    <g id="b" data-name="Layer 2">
      <g id="c" data-name="Layer 1">
        <g>
          <path class="e" d="M24.77,12.91c0,4.43-3.32,6.98-7.26,6.98-4.79,0-7.34-2.85-7.34-9.33C10.18,3.46,13.56,0,18.07,0c3.79,0,6.09,2.08,6.48,5.37l.03.28h-3.88l-.06-.28c-.42-1.72-1.3-2.52-2.82-2.52-2.19,0-3.54,1.94-3.71,6.65l.97-1.75c1.03-.83,2.05-1.11,3.41-1.11,4.18,0,6.29,2.74,6.29,6.26ZM20.73,13.38c0-2.24-1.08-3.88-3.27-3.88-1.72,0-3.18,1.33-3.18,3.77,0,2.19,1.25,3.77,3.21,3.77s3.24-1.61,3.24-3.66Z"/>
          <g>
            <g class="d">
              <path class="g" d="M5.22,14v1.25h-1.44v-1.25c-2.15-.19-3.59-1.23-3.78-3.35h2.4c.14.83.66,1.35,1.38,1.54v-2.93c-2.1-.72-3.33-1.59-3.33-3.39,0-2.03,1.55-3.07,3.33-3.28v-1.26h1.44v1.25c2.24.24,3.33,1.55,3.55,3.35h-2.42c-.1-.75-.43-1.31-1.14-1.54v2.8c2.55.82,3.6,1.79,3.6,3.65,0,1.86-1.52,2.96-3.6,3.17ZM3.78,6.9v-2.56c-.63.16-1.01.59-1.01,1.25,0,.72.35,1.06,1.01,1.31ZM5.22,12.23c.75-.14,1.17-.53,1.17-1.26,0-.59-.29-1.06-1.17-1.38v2.64Z"/>
              <path class="g" d="M24.77,11.61c0,4.43-3.32,6.98-7.26,6.98-4.79,0-7.34-2.85-7.34-9.33,0-7.09,3.38-10.55,7.89-10.55,3.79,0,6.09,2.08,6.48,5.37l.03.28h-3.88l-.06-.28c-.42-1.72-1.3-2.52-2.82-2.52-2.19,0-3.54,1.94-3.71,6.65l.97-1.75c1.03-.83,2.05-1.11,3.41-1.11,4.18,0,6.29,2.74,6.29,6.26ZM20.73,12.08c0-2.24-1.08-3.88-3.27-3.88-1.72,0-3.18,1.33-3.18,3.77,0,2.19,1.25,3.77,3.21,3.77s3.24-1.61,3.24-3.66Z"/>
            </g>
            <g>
              <path class="f" d="M5.22,15.29v1.25h-1.44v-1.25c-2.15-.19-3.59-1.23-3.78-3.35h2.4c.14.83.66,1.35,1.38,1.54v-2.93c-2.1-.72-3.33-1.59-3.33-3.39,0-2.03,1.55-3.07,3.33-3.28v-1.26h1.44v1.25c2.24.24,3.33,1.55,3.55,3.35h-2.42c-.1-.75-.43-1.31-1.14-1.54v2.8c2.55.82,3.6,1.79,3.6,3.65,0,1.86-1.52,2.96-3.6,3.17ZM3.78,8.2v-2.56c-.63.16-1.01.59-1.01,1.25,0,.72.35,1.06,1.01,1.31ZM5.22,13.53c.75-.14,1.17-.53,1.17-1.26,0-.59-.29-1.06-1.17-1.38v2.64Z"/>
              <path class="f" d="M24.77,12.91c0,4.43-3.32,6.98-7.26,6.98-4.79,0-7.34-2.85-7.34-9.33C10.18,3.46,13.56,0,18.07,0c3.79,0,6.09,2.08,6.48,5.37l.03.28h-3.88l-.06-.28c-.42-1.72-1.3-2.52-2.82-2.52-2.19,0-3.54,1.94-3.71,6.65l.97-1.75c1.03-.83,2.05-1.11,3.41-1.11,4.18,0,6.29,2.74,6.29,6.26ZM20.73,13.38c0-2.24-1.08-3.88-3.27-3.88-1.72,0-3.18,1.33-3.18,3.77,0,2.19,1.25,3.77,3.21,3.77s3.24-1.61,3.24-3.66Z"/>
            </g>
          </g>
          <g>
            <path class="i" d="M5.22,15.29v1.25h-1.44v-1.25c-2.15-.19-3.59-1.23-3.78-3.35h2.4c.14.83.66,1.35,1.38,1.54v-2.93c-2.1-.72-3.33-1.59-3.33-3.39,0-2.03,1.55-3.07,3.33-3.28v-1.26h1.44v1.25c2.24.24,3.33,1.55,3.55,3.35h-2.42c-.1-.75-.43-1.31-1.14-1.54v2.8c2.55.82,3.6,1.79,3.6,3.65,0,1.86-1.52,2.96-3.6,3.17ZM3.78,8.2v-2.56c-.63.16-1.01.59-1.01,1.25,0,.72.35,1.06,1.01,1.31ZM5.22,13.53c.75-.14,1.17-.53,1.17-1.26,0-.59-.29-1.06-1.17-1.38v2.64Z"/>
            <path class="i" d="M24.77,12.91c0,4.43-3.32,6.98-7.26,6.98-4.79,0-7.34-2.85-7.34-9.33C10.18,3.46,13.56,0,18.07,0c3.79,0,6.09,2.08,6.48,5.37l.03.28h-3.88l-.06-.28c-.42-1.72-1.3-2.52-2.82-2.52-2.19,0-3.54,1.94-3.71,6.65l.97-1.75c1.03-.83,2.05-1.11,3.41-1.11,4.18,0,6.29,2.74,6.29,6.26ZM20.73,13.38c0-2.24-1.08-3.88-3.27-3.88-1.72,0-3.18,1.33-3.18,3.77,0,2.19,1.25,3.77,3.21,3.77s3.24-1.61,3.24-3.66Z"/>
          </g>
        </g>
      </g>
    </g>
  </g>
</svg>
