<?xml version="1.0" encoding="UTF-8"?>
<svg id="b" data-name="Layer 2" xmlns="http://www.w3.org/2000/svg" viewBox="0 0 73.48 123.14">
  <defs>
    <style>
      .d {
        fill: #c8bab8;
        stroke-width: .5px;
      }

      .d, .e, .f, .g {
        stroke: #332626;
        stroke-linecap: round;
        stroke-linejoin: round;
      }

      .e, .f, .g {
        stroke-width: .34px;
      }

      .e, .h {
        fill: #ebe3e4;
      }

      .f, .i {
        fill: #fff;
      }

      .j {
        fill: #00b4ac;
      }

      .k {
        fill: #19181d;
      }

      .g {
        fill: none;
      }

      .l {
        fill: #b2928e;
      }
    </style>
  </defs>
  <g id="c" data-name="Layer 1">
    <g>
      <g>
        <rect class="d" x="3.65" y="120.17" width="69.57" height="2.71"/>
        <rect class="f" x="3.65" y="8.48" width="69.57" height="91.12"/>
        <rect class="f" x="3.65" y="6.75" width="69.57" height="1.82"/>
        <g>
          <rect class="h" x="11.26" y="99.59" width="1.3" height="22.06" transform="translate(23.82 221.25) rotate(-180)"/>
          <rect class="l" x="11.26" y="99.59" width="1.3" height="1.3" transform="translate(23.82 200.49) rotate(-180)"/>
          <rect class="g" x="11.26" y="99.59" width="1.3" height="22.06" transform="translate(23.82 221.25) rotate(-180)"/>
        </g>
        <g>
          <rect class="h" x="29.31" y="99.59" width="1.3" height="22.06" transform="translate(59.91 221.25) rotate(-180)"/>
          <rect class="l" x="29.31" y="99.59" width="1.3" height="1.3" transform="translate(59.91 200.49) rotate(-180)"/>
          <rect class="g" x="29.31" y="99.59" width="1.3" height="22.06" transform="translate(59.91 221.25) rotate(-180)"/>
        </g>
        <g>
          <rect class="h" x="47.35" y="99.59" width="1.3" height="22.06" transform="translate(96.01 221.25) rotate(-180)"/>
          <rect class="l" x="47.35" y="99.59" width="1.3" height="1.3" transform="translate(96.01 200.49) rotate(-180)"/>
          <rect class="g" x="47.35" y="99.59" width="1.3" height="22.06" transform="translate(96.01 221.25) rotate(-180)"/>
        </g>
        <g>
          <rect class="h" x="65.4" y="99.59" width="1.3" height="22.06" transform="translate(132.1 221.25) rotate(-180)"/>
          <rect class="l" x="65.4" y="99.59" width="1.3" height="1.3" transform="translate(132.1 200.49) rotate(-180)"/>
          <rect class="g" x="65.4" y="99.59" width="1.3" height="22.06" transform="translate(132.1 221.25) rotate(-180)"/>
        </g>
        <rect class="f" x="3.65" y="102.46" width="69.57" height="2.49"/>
        <rect class="e" x="3.65" y="104.96" width="69.57" height="1.01"/>
        <path class="f" d="M2.29,1.79L4.4.17v84.58c0,1.97,1.6,3.57,3.57,3.57h4.59s0-2.29,0-2.29l7.44,4.29-7.44,4.29v-2.07s-4.59,0-4.59,0c-4.3,0-7.8-3.5-7.8-7.8V.17s2.11,1.62,2.11,1.62Z"/>
      </g>
      <g>
        <g>
          <path class="k" d="M68.79,37.5c.13.47-.48.39-.71.45-3.54.88-7.03,1.93-10.55,2.85.07,1.1.48,2.14.71,3.22,3.24,14.98-9.27,28.58-24.48,26.66-6.03-.76-11.61-4.14-15.14-9.02l-4.89.12c-.7-.09-.89-.53-.64-1.17.32-.8,3.09-3.02,3.11-3.25-.29-.78-.61-1.56-.84-2.36-2.86-9.82,1.33-20.25,10.13-25.35,4.64-2.68,10.08-3.57,15.37-2.6-.2-.92.65-1.52,1.31-1.96,2.98-1.95,8.26-3.71,11.71-3,.45.1,1.4.29,1.38.86l-1.24,4.78c2.08-.55,4.17-1.06,6.24-1.65.38-.11.58-.31,1.04-.34,1.76-.13,2.37,1.79.96,2.73l-7.7,2.04c-.05.18.05.13.1.18,1.19,1.02,2.75,2.77,2.75,4.47v1.19l8.28-2.15c.25.02,1.52,1.4,1.77,1.69.25.28,1.24,1.36,1.32,1.61ZM67.74,37.34l-2.04-2.31-.23-.07c-2.82.71-5.61,1.6-8.44,2.27-.11.03-.62.52-.61.68.02.27.96,1.92,1.15,2.01.06.03.12.05.19.05l9.98-2.62ZM61.65,27.91c.54-.2.94-.56.56-1.14-.38-.57-.7-.27-1.16-.15-2.44.62-4.86,1.31-7.3,1.94-.53.1-.61.82-.79,1.25l.79.22c2.51-.86,5.43-1.23,7.9-2.11ZM48.86,66.32c6.35-4.42,9.88-11.95,9.1-19.71l-.14-.58c-.17,3.53-1.18,7.27-3.47,10.02-2.72,3.29-7.17,4.9-11.39,4.8v2.58s.53.5.63.68c.59.94.4,2.05-.36,2.83-.11.11-.27.13-.27.15v2.08c2.1-.55,4.14-1.59,5.91-2.83ZM44.84,60.08c9.34-.9,13.25-9.27,12.19-17.85-.06-.47-.28-1.12-.3-1.55-.01-.24.14-.44.12-.5-.06-.29-.79-1.14-.95-1.58-.36-.95-.08-1.49.6-2.15.06-.06.2-.1.22-.13.11-.19-.05-1.17-.1-1.45-.36-1.89-1.97-4.05-4.01-4.22-2.03-.17-5.52.29-6.77,2.08-1.32,1.9-1.35,4.42-.18,6.39.74,1.25,1.69,1.28,2.53,2.24,1.88,2.17,1.22,5.63-.04,7.95-1.97,3.64-5.73,5.55-9.71,6.21l-18.99.03c-1.66,1.55-3.79,3.02-5.25,4.75-.07.08-.57.71-.5.77l31.15-1ZM53.66,26.86l.84-3.87c-2.43-.67-4.5.24-6.93.78-1.53.34-3.33.93-4.67,1.72-.3.18-1.37.85-1.34,1.2.02.22,2.28,2.44,2.59,2.81,1.98-2.28,5.48-2.91,8.39-2.77.23.01.99.21,1.12.13ZM52.07,29.88l.97-2.37c-2.86-.24-6.49.19-8.38,2.58l1.33,1.41c1.76-1.22,3.96-1.58,6.08-1.61ZM47.14,49.62c1.3-2.04,2.19-5.14.83-7.34-1.23-2.01-3.1-1.27-5.02-.83-3.13.73-6.33,1.92-9.14,3.48-.5.28-1.04.57-1.48.94h4.04c.05,0,.31.2.34.28.05.1-.13.41-.19.41h-5.39c-1.59,1.08-3.19,2.14-4.66,3.38h9.82c.13,0,.36.47.02.63l-10.78.08c-1.74,1.36-3.53,2.7-5.14,4.2h17.51c3.62-.44,7.23-2.09,9.23-5.23ZM45.4,32.02l-3.63-4.03c-15.68-3.85-29.88,10.29-25.95,26.01.1.38.78,2.69.94,2.82.1.07.14.04.2-.04,3.92-3.36,7.93-6.8,12.18-9.75,4.7-3.26,9.02-5.27,14.65-6.51.22-.05,1.69-.27,1.69-.38-1.54-1.97-1.81-4.64-.76-6.9.21-.44.52-.8.67-1.22ZM42.86,66.02c.22-.43.25-.94,0-1.36-.19-.31-.68-.43-.68-.86v-2.88h-1c.21,1.03-.08,2.11-.02,3.17-.05.26-.51.42-.66.72-.2.4-.12,1.14.18,1.48.17.2.39.16.48.25.17.17.08,1.52.09,1.87.02.38.21.8,0,1.18l.84-.16c.09-.52-.16-2.72.21-2.98.22-.16.35-.04.56-.44ZM40.57,69.76c-.26-.67.09-1.85-.1-2.48-.04-.15-.47-.47-.61-.7-.6-.96-.42-1.99.28-2.82.07-.08.35-.23.35-.27v-2.57l-7.32.23v2.5c0,.06.59.57.72.82.59,1.11.18,2.18-.71,2.96l.02,2.41c2.41.46,4.95.41,7.36-.08ZM33.01,66.4c.48-.67.3-1.6-.45-1.98l-.15-3.19h-.92v2.88c0,.43-.53.56-.71.91-.26.49-.17,1.25.25,1.62.21.19.4.1.5.5.11.43-.07,2.29.11,2.42l.7.12.09-2.79c.18-.25.38-.21.59-.49ZM30.71,69.3v-1.8s-.38-.37-.46-.46c-.69-.91-.69-1.92,0-2.84.08-.1.46-.43.46-.46v-2.49l-11.16.42c2.73,3.68,6.73,6.43,11.16,7.64Z"/>
          <path d="M62.2,26.78c.38.58-.02.94-.56,1.14-2.47.88-5.39,1.25-7.9,2.11l-.79-.22c.18-.43.26-1.15.79-1.25,2.44-.62,4.86-1.31,7.3-1.94.45-.12.77-.42,1.16.15Z"/>
          <path d="M53.04,27.51l-.97,2.37c-2.11.03-4.31.39-6.08,1.61l-1.33-1.41c1.88-2.38,5.52-2.82,8.38-2.58Z"/>
          <path class="k" d="M50.94,32.36c2.82-.36,2.95,4.07.06,3.82-2.22-.19-2.26-3.53-.06-3.82ZM50.37,35.16c1.31,1.23,2.98-1.02,1.49-1.91-1.33-.79-2.46,1-1.49,1.91Z"/>
        </g>
        <g>
          <g>
            <path d="M57.43,36.34l8.27-2.15c.25.02,1.52,1.4,1.77,1.69s1.24,1.36,1.31,1.61c.14.48-.48.39-.71.45-3.53.88-7.03,1.93-10.55,2.85.06,1.11.48,2.14.71,3.22,3.24,14.98-9.27,28.58-24.49,26.66-6.02-.76-11.61-4.13-15.14-9.02l-4.89.12c-.7-.09-.89-.54-.63-1.17.32-.8,3.09-3.02,3.11-3.24-.29-.78-.61-1.56-.84-2.36-2.86-9.82,1.33-20.25,10.13-25.35,4.64-2.68,10.08-3.57,15.37-2.6-.2-.91.65-1.51,1.32-1.95,2.98-1.95,8.25-3.72,11.71-3,.45.09,1.4.29,1.38.86l-1.24,4.78c2.08-.55,4.17-1.06,6.24-1.65.39-.11.58-.31,1.04-.34,1.76-.13,2.37,1.79.96,2.73l-7.7,2.04c-.05.18.04.13.1.18,1.19,1.03,2.75,2.77,2.75,4.47v1.19ZM54.5,22.99c-2.43-.66-5.21-.07-7.06.51-1.49.47-3.19,1.2-4.54,1.99-.3.18-1.37.85-1.34,1.2.02.22,2.28,2.44,2.58,2.81,1.98-2.28,5.48-2.92,8.4-2.77.23.01,1,.21,1.12.12l.84-3.86ZM52.96,29.81l.79.22c2.51-.86,5.43-1.23,7.9-2.11.54-.19.94-.55.56-1.14s-.7-.27-1.15-.15c-2.44.63-4.86,1.31-7.3,1.94-.53.09-.61.82-.79,1.25ZM41.77,27.99c-15.68-3.85-29.88,10.28-25.95,26.01.09.38.77,2.69.95,2.82.09.07.13.04.2-.04,3.92-3.36,7.93-6.8,12.18-9.74,4.7-3.26,9.03-5.27,14.65-6.51.22-.05,1.69-.27,1.69-.38-1.53-1.97-1.81-4.63-.76-6.9.2-.44.52-.79.67-1.22l-3.63-4.03ZM53.04,27.51c-2.85-.24-6.49.19-8.38,2.57l1.33,1.41c1.76-1.22,3.96-1.58,6.07-1.61l.97-2.37ZM56.72,36.33c.11-.19-.04-1.17-.1-1.45-.36-1.89-1.97-4.05-4.01-4.22s-5.52.29-6.77,2.08c-1.32,1.9-1.35,4.42-.18,6.39.74,1.26,1.69,1.28,2.52,2.25,1.88,2.17,1.22,5.63-.03,7.95-1.97,3.64-5.73,5.55-9.71,6.21l-18.99.02c-1.66,1.56-3.79,3.02-5.25,4.75-.07.08-.57.71-.5.77l31.14-1c9.34-.9,13.25-9.27,12.19-17.85-.06-.47-.28-1.13-.3-1.55-.01-.24.14-.44.12-.5-.06-.29-.79-1.14-.96-1.58-.36-.95-.07-1.49.61-2.14.06-.06.2-.1.21-.13ZM67.74,37.34l-2.04-2.31-.23-.07c-2.82.71-5.61,1.6-8.44,2.27-.11.03-.26-.03-.31,0-.12.07-.31.53-.3.68.01.27.96,1.92,1.15,2,.06.03.12.05.19.04l9.97-2.62ZM32.33,45.87h4.04s.31.2.34.28c.05.1-.13.41-.18.41h-5.39c-1.59,1.08-3.19,2.14-4.66,3.38h9.82c.13,0,.36.48.02.63l-10.78.08c-1.74,1.36-3.53,2.7-5.14,4.21h17.52c3.62-.44,7.23-2.08,9.23-5.23,1.3-2.04,2.18-5.14.83-7.35-1.23-2.01-3.1-1.27-5.02-.83-3.13.72-6.34,1.92-9.14,3.48-.5.28-1.04.58-1.49.94ZM42.95,69.15c2.1-.55,4.13-1.59,5.91-2.83,6.35-4.43,9.89-11.95,9.1-19.71l-.14-.58c-.17,3.53-1.18,7.26-3.47,10.02-2.73,3.28-7.17,4.9-11.39,4.8v2.57s.52.5.63.68c.59.94.4,2.05-.36,2.82-.11.11-.27.13-.27.15v2.07ZM40.49,60.92l-7.31.23v2.5c0,.05.59.57.72.82.59,1.11.18,2.18-.71,2.96l.02,2.41c2.42.46,4.95.41,7.36-.08-.26-.67.09-1.85-.09-2.48-.04-.15-.48-.47-.62-.69-.6-.96-.42-1.99.28-2.82.07-.08.35-.23.35-.27v-2.57ZM42.18,60.92h-1c.21,1.03-.08,2.12-.02,3.17-.05.26-.51.42-.66.72-.2.41-.12,1.14.18,1.48.17.2.39.16.48.25.17.17.08,1.52.09,1.87.01.38.2.8,0,1.19l.84-.16c.08-.52-.16-2.73.21-2.98.22-.16.35-.04.56-.44.22-.43.25-.94,0-1.36-.18-.31-.68-.43-.68-.86v-2.88ZM30.71,61.23l-11.16.42c2.73,3.68,6.73,6.43,11.16,7.64v-1.81s-.39-.37-.46-.46c-.69-.92-.69-1.92,0-2.84.07-.1.46-.43.46-.46v-2.5ZM31.48,61.23v2.88c0,.43-.53.56-.71.91-.25.49-.16,1.25.25,1.62.21.19.4.09.5.5.1.43-.07,2.29.11,2.43l.69.11.09-2.79c.18-.25.39-.21.59-.49.48-.67.3-1.6-.45-1.98l-.15-3.19h-.92Z"/>
            <path d="M36.65,71.11c-.97,0-1.94-.06-2.92-.18-5.96-.75-11.65-4.12-15.23-9.01l-4.76.11c-.54-.07-.78-.29-.88-.48-.11-.19-.2-.52,0-1.04.2-.5,1.12-1.38,2.22-2.38.33-.31.71-.65.85-.81l-.16-.41c-.23-.6-.46-1.22-.65-1.85-2.89-9.93,1.32-20.47,10.25-25.64,4.55-2.63,9.94-3.58,15.22-2.69.03-.92.94-1.52,1.46-1.86,3.14-2.06,8.45-3.75,11.9-3.03.53.11,1.61.34,1.58,1.12v.05s-1.14,4.37-1.14,4.37c.61-.16,1.22-.32,1.84-.48,1.31-.34,2.66-.69,3.98-1.06.13-.04.24-.09.35-.14.19-.09.41-.19.74-.22.91-.06,1.67.37,1.92,1.12.26.75-.05,1.57-.8,2.06l-.08.03-7.32,1.93c.92.83,2.66,2.63,2.66,4.5v.87l8-2.08h.04c.32.03,1.23.98,1.94,1.77l.09.1c.87.97,1.22,1.4,1.28,1.61.07.23,0,.39-.06.48-.16.23-.46.25-.68.27-.06,0-.11,0-.15.02-2.01.5-4.05,1.07-6.02,1.62-1.42.39-2.88.8-4.32,1.18.06.62.23,1.22.41,1.86.1.36.21.74.29,1.12,1.56,7.22-.4,14.47-5.38,19.89-4.32,4.7-10.2,7.26-16.46,7.26ZM18.75,61.4l.08.11c3.5,4.84,9.1,8.18,14.97,8.91,7.17.9,14.08-1.62,18.95-6.92,4.87-5.3,6.79-12.39,5.26-19.44-.08-.36-.18-.73-.28-1.09-.19-.7-.4-1.42-.44-2.17v-.21s.19-.05.19-.05c1.51-.39,3.04-.82,4.52-1.23,1.97-.55,4.01-1.12,6.03-1.62.06-.01.14-.02.23-.03.08,0,.25-.02.31-.05,0,0,0-.02-.01-.05-.03-.09-.27-.41-1.17-1.41l-.09-.1c-.59-.66-1.36-1.44-1.6-1.59l-8.51,2.21v-1.52c0-1.78-1.83-3.56-2.64-4.26-.11-.04-.28-.15-.2-.45l.04-.14,7.8-2.06c.53-.37.75-.94.57-1.46-.14-.42-.59-.85-1.41-.78-.24.02-.39.09-.57.17-.12.06-.25.12-.42.16-1.32.38-2.68.73-3.99,1.06-.75.19-1.5.39-2.25.59l-.42.11,1.34-5.17c-.02-.34-.85-.51-1.17-.58-3.33-.69-8.48.96-11.53,2.96-.7.46-1.37.96-1.21,1.69l.08.37-.37-.07c-5.26-.97-10.66-.06-15.2,2.57-8.72,5.05-12.84,15.35-10.02,25.06.18.61.41,1.22.63,1.81l.22.59v.06c-.02.16-.13.28-1.04,1.12-.76.7-1.91,1.76-2.09,2.2-.07.18-.14.43-.04.6.09.15.31.21.47.23l4.98-.12ZM36.63,70.41c-1.18,0-2.35-.11-3.47-.32l-.2-.04-.02-2.73.09-.08c.89-.79,1.13-1.76.65-2.66-.06-.11-.31-.36-.45-.51-.24-.24-.3-.3-.3-.43v-2.74l7.82-.25v2.83c0,.15-.1.22-.26.33-.06.04-.12.08-.15.11-.67.79-.76,1.71-.26,2.52.05.08.17.2.29.31.2.2.32.31.36.45.1.33.07.76.04,1.22-.03.46-.07.94.05,1.24l.06.16.17-.33c.1-.19.06-.41.02-.67-.02-.13-.05-.27-.05-.4,0-.09,0-.24,0-.43,0-.32.03-1.05-.03-1.26-.01,0-.02,0-.04,0-.12-.03-.29-.08-.45-.26-.36-.41-.46-1.25-.21-1.75.1-.2.27-.33.42-.45.07-.06.18-.15.21-.2-.02-.44.01-.87.05-1.3.05-.63.09-1.22-.02-1.79l-.06-.3h1.56s0,3.13,0,3.13c0,.12.08.2.28.35.13.1.27.21.37.38.28.47.28,1.07,0,1.6-.17.33-.33.41-.51.47-.05.02-.09.03-.13.06-.13.17-.1,1.27-.09,1.8.01.45.02.81-.01,1.01l-.03.17-1.42.27v.02s-.29.06-.29.06c-1.32.27-2.66.41-3.99.41ZM33.46,69.63c2.18.39,4.52.36,6.79-.07-.06-.36-.03-.77,0-1.18.03-.39.06-.79-.02-1.04-.02-.03-.14-.15-.23-.23-.14-.13-.28-.27-.36-.4-.62-.99-.51-2.16.3-3.12.05-.06.13-.12.25-.2.01,0,.02-.02.04-.02v-2.2l-6.81.21v2.17s.09.09.15.15c.25.25.45.46.54.63.57,1.08.32,2.26-.68,3.19l.02,2.09ZM41.48,61.18c.07.54.02,1.09-.02,1.63-.03.42-.07.86-.04,1.28v.03s0,.03,0,.03c-.04.23-.23.37-.4.51-.11.09-.23.18-.28.28-.15.32-.08.95.14,1.2.05.06.11.08.2.1.08.02.18.05.27.13.18.17.2.58.17,1.64,0,.17,0,.32,0,.4,0,.11.02.21.04.33.03.17.06.36.05.55l.26-.05c0-.19,0-.46,0-.75-.03-1.23-.03-2,.3-2.23.1-.07.19-.1.26-.13.09-.03.13-.04.22-.22.19-.38.2-.8,0-1.12-.05-.08-.14-.16-.25-.24-.2-.16-.47-.37-.47-.75v-2.63h-.45ZM32.57,69.98l-1.04-.17-.05-.04c-.18-.14-.2-.43-.18-1.51,0-.42.02-.9-.02-1.06-.04-.15-.06-.16-.16-.21-.07-.03-.17-.08-.27-.16-.48-.43-.62-1.31-.31-1.93.1-.19.26-.32.4-.43.19-.16.28-.24.28-.36v-3.13h1.42s.15,3.29.15,3.29c.34.21.58.54.68.93.11.46.02.95-.27,1.34-.14.19-.28.27-.39.34-.06.03-.11.06-.15.1l-.1,2.99ZM31.82,69.34l.27.04.08-2.58.05-.06c.12-.16.25-.24.35-.29.09-.05.16-.09.23-.19.2-.27.27-.61.19-.93-.07-.3-.27-.54-.55-.68l-.13-.07-.14-3.1h-.43v2.63c0,.37-.26.58-.47.75-.11.09-.22.18-.27.27-.21.41-.12,1.04.2,1.32.04.04.08.06.14.08.18.08.35.19.44.55.05.2.05.58.04,1.19,0,.35-.01.86.01,1.07ZM30.96,69.63l-.32-.09c-4.51-1.24-8.52-3.99-11.3-7.74l-.28-.38,11.9-.45v2.76c0,.13-.06.18-.29.4-.09.08-.18.17-.22.21-.62.83-.62,1.71,0,2.54.03.04.13.13.22.21.24.22.29.28.29.4v2.14ZM20.04,61.89c2.63,3.38,6.3,5.87,10.42,7.08v-1.38s-.09-.08-.14-.13c-.12-.11-.24-.22-.27-.28-.75-1-.75-2.14,0-3.14.04-.05.16-.17.27-.28.05-.05.1-.09.14-.13v-2.14l-10.42.39ZM42.7,69.47v-2.58l.21-.08s.1-.03.13-.07c.71-.72.83-1.71.33-2.51-.04-.07-.24-.26-.36-.38-.26-.25-.31-.31-.31-.43v-2.83h.26c4.4.13,8.69-1.7,11.19-4.71,2.01-2.41,3.22-5.92,3.41-9.87l.08-1.72.56,2.26c.8,7.83-2.73,15.47-9.2,19.98-1.93,1.35-4,2.34-5.99,2.86l-.32.08ZM43.2,67.24v1.58c1.83-.53,3.73-1.46,5.51-2.7,5.81-4.05,9.19-10.68,9.1-17.64-.49,3.06-1.62,5.75-3.27,7.73-2.58,3.11-6.81,4.95-11.34,4.9v2.23s.1.1.16.16c.21.2.36.36.43.47.63.99.47,2.25-.39,3.13-.06.07-.14.11-.2.14ZM13.6,61.33l-.07-.06c-.12-.1-.28-.24.47-1.12.94-1.1,2.14-2.1,3.3-3.06.7-.58,1.36-1.13,1.97-1.7l.07-.07,19.09-.03c4.38-.74,7.77-2.9,9.49-6.08,1.29-2.37,1.8-5.66.07-7.67-.33-.38-.68-.6-1.05-.84-.51-.33-1.04-.67-1.5-1.44-1.24-2.1-1.16-4.71.19-6.66,1.33-1.91,5-2.36,7-2.19,2.16.18,3.85,2.39,4.23,4.43.06.31.24,1.33.07,1.62h0c-.05.08-.12.12-.19.15-.02.01-.05.02-.07.04-.62.6-.86,1.03-.54,1.87.07.19.29.51.49.79.27.39.44.64.48.83.02.1-.01.18-.05.27-.03.08-.07.18-.07.27,0,.21.08.51.15.79.06.25.12.51.15.74.64,5.16-.53,10.03-3.22,13.37-2.21,2.75-5.4,4.4-9.2,4.77l-31.26,1ZM19.55,55.82c-.6.56-1.27,1.12-1.92,1.65-1.15.95-2.33,1.93-3.24,3-.06.07-.16.21-.26.34l30.7-.99c3.65-.35,6.72-1.94,8.84-4.58,2.6-3.23,3.73-7.96,3.11-12.99-.02-.2-.08-.44-.14-.68-.07-.31-.15-.63-.16-.89,0-.21.06-.38.11-.49,0,0,0-.01,0-.02-.06-.13-.25-.41-.39-.6-.22-.32-.45-.65-.55-.9-.41-1.08-.05-1.72.67-2.41.05-.05.12-.09.17-.11.02-.21-.05-.81-.13-1.23-.35-1.81-1.89-3.86-3.78-4.02-1.89-.16-5.33.24-6.54,1.97-1.25,1.79-1.31,4.19-.17,6.12.4.67.85.96,1.34,1.27.38.24.78.5,1.16.94,1.9,2.18,1.36,5.71,0,8.24-1.8,3.32-5.31,5.58-9.89,6.34l-18.93.03ZM16.87,57.11c-.1,0-.19-.05-.25-.1-.29-.23-1.03-2.93-1.04-2.96-1.87-7.46.26-15.15,5.68-20.57,5.42-5.43,13.11-7.57,20.58-5.74l.08.02,3.78,4.2-.05.14c-.09.27-.24.5-.39.73-.1.17-.21.34-.3.52-1.03,2.2-.75,4.75.73,6.64l.05.07v.09c0,.27-.16.32-1.58.57-.15.03-.26.05-.31.06-5.36,1.18-9.72,3.11-14.56,6.47-4.15,2.87-8.09,6.24-11.89,9.5l-.26.22c-.09.11-.18.15-.26.15ZM36.56,27.61c-5.55,0-10.9,2.18-14.95,6.23-5.29,5.3-7.37,12.81-5.54,20.1.11.42.6,2.06.82,2.58l.18-.15c3.82-3.27,7.77-6.65,11.94-9.54,4.9-3.39,9.31-5.35,14.74-6.55.05-.01.18-.03.33-.06.22-.04.71-.12,1.01-.19-1.41-2.01-1.64-4.62-.59-6.89.1-.21.21-.39.33-.57.11-.17.21-.33.28-.49l-3.47-3.85c-1.69-.41-3.39-.61-5.07-.61ZM20.39,55.11h-.64l.46-.44c1.37-1.28,2.89-2.46,4.35-3.6l.87-.68,10.77-.08c.02-.05,0-.1,0-.13h-10.42l.53-.44c1.34-1.13,2.81-2.13,4.24-3.1l.5-.34h5.36s.03-.05.04-.08c-.04-.04-.1-.08-.13-.11h-4.7l.56-.45c.44-.36.96-.64,1.45-.92l.07-.04c2.76-1.54,5.94-2.76,9.2-3.51.2-.05.4-.1.6-.15,1.72-.43,3.49-.87,4.69,1.09,1.45,2.37.46,5.58-.83,7.61-1.84,2.9-5.27,4.84-9.42,5.34h-17.55ZM21.04,54.6h16.87c3.96-.48,7.26-2.35,9.02-5.11,1.31-2.06,2.07-5.05.83-7.08-1.01-1.64-2.46-1.28-4.14-.86-.2.05-.4.1-.61.15-3.21.74-6.35,1.94-9.07,3.46l-.07.04c-.25.14-.5.28-.74.42h3.24c.19,0,.53.3.58.46.08.16-.06.42-.12.52-.04.06-.13.21-.3.21h-5.31l-.38.25c-1.22.83-2.48,1.69-3.66,2.62h9.11c.23,0,.38.24.43.45.06.29-.05.54-.31.66l-.11.02-10.69.07-.74.57c-1.29,1-2.62,2.03-3.84,3.13ZM57.74,40.21c-.11,0-.19-.03-.27-.06-.3-.14-1.28-1.89-1.3-2.22,0-.2.19-.78.43-.91.1-.06.2-.04.29-.03.03,0,.07,0,.09,0,1.55-.37,3.11-.81,4.63-1.24,1.25-.35,2.53-.71,3.81-1.04l.07-.02.36.11,2.35,2.67-10.37,2.72s-.06,0-.09,0ZM56.83,37.48c-.05.09-.15.34-.15.42.04.23.84,1.64,1.03,1.8,0,0,.02,0,.03,0l9.54-2.51-1.72-1.95-.09-.03c-1.25.32-2.51.67-3.73,1.01-1.52.43-3.09.87-4.65,1.24-.1.02-.19.01-.27,0ZM45.96,31.82l-1.63-1.72.14-.17c2.28-2.88,6.77-2.83,8.6-2.67l.34.03-1.17,2.84h-.17c-2.53.04-4.47.55-5.93,1.57l-.18.12ZM45,30.07l1.03,1.09c1.49-.97,3.41-1.47,5.87-1.53l.78-1.9c-1.87-.12-5.64-.02-7.68,2.34ZM53.75,30.29l-1.13-.31.11-.26c.04-.09.07-.19.1-.3.13-.42.31-1,.87-1.1,1.21-.31,2.42-.64,3.64-.97,1.21-.33,2.42-.65,3.63-.96.09-.02.17-.05.24-.08.33-.12.77-.28,1.19.34.19.28.24.56.16.81-.1.3-.38.54-.84.7-1.29.46-2.72.79-4.1,1.11-1.28.29-2.6.6-3.8,1.01l-.07.03ZM53.29,29.64l.45.12c1.21-.41,2.51-.71,3.78-1,1.37-.31,2.78-.64,4.04-1.09.29-.1.48-.25.53-.39.03-.1,0-.22-.1-.37-.19-.29-.28-.26-.59-.14-.09.03-.19.07-.29.09-1.21.31-2.42.64-3.63.96-1.22.33-2.44.66-3.67.97-.26.05-.37.34-.5.76,0,.02-.02.05-.02.07ZM44.14,29.89l-.19-.23c-.1-.12-.48-.52-.88-.93-1.53-1.58-1.74-1.83-1.76-2.01-.05-.48.9-1.11,1.46-1.44,1.32-.78,3.04-1.53,4.59-2.01,1.93-.6,4.75-1.19,7.2-.51l.23.06-.91,4.19-.08.06c-.15.11-.39.08-.93-.02-.15-.03-.28-.05-.35-.06-1.69-.08-5.87,0-8.19,2.68l-.2.23ZM41.83,26.66c.18.26,1.06,1.17,1.6,1.72.29.3.55.56.72.74,2.5-2.64,6.69-2.73,8.41-2.64.08,0,.24.03.41.06.13.02.34.06.48.08l.75-3.44c-2.28-.54-4.88,0-6.69.57-1.52.47-3.19,1.21-4.48,1.97-.57.34-1.11.76-1.2.94Z"/>
          </g>
          <g>
            <path d="M50.94,32.37c2.82-.37,2.95,4.07.06,3.82-2.21-.19-2.26-3.53-.06-3.82ZM50.37,35.16c1.31,1.23,2.99-1.02,1.49-1.91-1.33-.79-2.46,1-1.49,1.91Z"/>
            <path d="M51.23,36.45c-.08,0-.17,0-.25-.01-1.29-.11-1.9-1.17-1.92-2.1-.02-.95.55-2.05,1.85-2.22h0c.88-.12,1.64.2,2.08.87.48.72.5,1.74.06,2.48-.38.64-1.02.98-1.82.98ZM50.97,32.62c-1,.13-1.42.95-1.41,1.71.02.74.47,1.53,1.45,1.61.71.06,1.28-.2,1.6-.72.35-.58.33-1.38-.05-1.95-.34-.51-.9-.74-1.6-.65h0ZM51.2,35.77c-.35,0-.7-.15-1-.43-.62-.58-.53-1.42-.12-1.96.39-.51,1.13-.82,1.92-.35.49.29.75.76.71,1.29-.05.59-.47,1.15-1.02,1.36-.16.06-.32.09-.48.09ZM50.54,34.98c.37.35.72.32.95.23.37-.14.67-.53.7-.93.02-.23-.04-.57-.46-.81-.55-.33-1.01-.1-1.25.22-.27.36-.33.91.07,1.29Z"/>
          </g>
        </g>
      </g>
      <path class="i" d="M57.03,42.23c1.06,8.58-2.85,16.96-12.19,17.85l-31.15,1c-.07-.06.43-.69.5-.77,1.46-1.73,3.59-3.19,5.25-4.75l18.99-.03c3.98-.67,7.74-2.57,9.71-6.21,1.26-2.32,1.91-5.79.04-7.95-.84-.96-1.78-.99-2.53-2.24-1.17-1.98-1.14-4.5.18-6.39,1.25-1.79,4.74-2.25,6.77-2.08,2.04.17,3.65,2.33,4.01,4.22.05.28.21,1.26.1,1.45-.02.03-1.18,1.33-.82,2.27.17.44.9,1.3.95,1.58.02.06-.13.26-.12.5.02.42.24,1.08.3,1.55ZM51,36.18c2.89.25,2.76-4.18-.06-3.82-2.2.29-2.16,3.63.06,3.82Z"/>
      <path class="i" d="M47.97,42.28c1.36,2.21.47,5.3-.83,7.34-2,3.14-5.61,4.79-9.23,5.23h-17.51c1.61-1.51,3.39-2.85,5.14-4.2l10.78-.08c.34-.16.11-.63-.02-.63h-9.82c1.46-1.24,3.07-2.3,4.66-3.38h5.39c.06,0,.23-.31.19-.41-.03-.09-.29-.28-.34-.28h-4.04c.44-.36.98-.66,1.48-.94,2.8-1.56,6-2.76,9.14-3.48,1.92-.44,3.79-1.18,5.02.83Z"/>
      <path class="i" d="M42.86,64.66c.25.42.22.93,0,1.36-.21.4-.34.28-.56.44-.37.26-.12,2.46-.21,2.98l-.84.16c.2-.39.01-.81,0-1.18-.01-.35.08-1.7-.09-1.87-.09-.09-.31-.05-.48-.25-.29-.34-.37-1.07-.18-1.48.15-.3.61-.46.66-.72-.06-1.06.23-2.15.02-3.17h1v2.88c0,.42.49.54.68.86Z"/>
      <path class="i" d="M32.55,64.42c.76.38.94,1.32.45,1.98-.2.28-.41.24-.59.49l-.09,2.79-.7-.12c-.18-.14,0-2-.11-2.42-.1-.41-.29-.31-.5-.5-.41-.37-.51-1.13-.25-1.62.18-.35.71-.48.71-.91v-2.88h.92l.15,3.19Z"/>
      <path class="j" d="M18.4,90.32l-5.04-2.91v1.7h-5.39c-2.41,0-4.37-1.96-4.37-4.37V1.79s-1.31,1.01-1.31,1.01L.97,1.79v82.96c0,3.86,3.14,7,7,7h5.39v1.49s5.04-2.91,5.04-2.91Z"/>
      <path class="j" d="M57.95,46.6c.79,7.77-2.74,15.29-9.1,19.71-1.77,1.24-3.81,2.27-5.91,2.83v-2.08s.17-.04.27-.15c.76-.78.95-1.89.36-2.83-.11-.17-.63-.63-.63-.68v-2.58c4.22.1,8.67-1.52,11.39-4.8,2.29-2.76,3.3-6.49,3.47-10.02l.14.58Z"/>
      <path class="j" d="M41.77,27.99l3.63,4.03c-.15.43-.46.79-.67,1.22-1.06,2.27-.78,4.93.76,6.9,0,.11-1.47.33-1.69.38-5.63,1.23-9.95,3.25-14.65,6.51-4.25,2.94-8.26,6.38-12.18,9.75-.06.08-.1.11-.2.04-.17-.14-.85-2.44-.94-2.82-3.93-15.72,10.27-29.86,25.95-26.01Z"/>
      <path class="j" d="M40.47,67.28c.19.62-.16,1.81.1,2.48-2.41.49-4.94.54-7.36.08l-.02-2.41c.89-.78,1.3-1.85.71-2.96-.13-.25-.72-.76-.72-.82v-2.5l7.32-.23v2.57s-.28.19-.35.27c-.7.83-.88,1.86-.28,2.82.14.22.57.54.61.7Z"/>
      <path class="j" d="M30.71,67.49v1.8c-4.43-1.21-8.43-3.96-11.16-7.64l11.16-.42v2.49s-.38.37-.46.46c-.69.92-.69,1.92,0,2.84.08.1.46.43.46.46Z"/>
      <path class="i" d="M65.71,35.03l2.04,2.31-9.98,2.62c-.07,0-.13-.02-.19-.05-.19-.09-1.14-1.73-1.15-2.01,0-.16.51-.65.61-.68,2.83-.68,5.62-1.56,8.44-2.27l.23.07Z"/>
      <path class="i" d="M54.5,23l-.84,3.87c-.12.08-.89-.12-1.12-.13-2.91-.15-6.41.48-8.39,2.77-.3-.37-2.57-2.59-2.59-2.81-.04-.35,1.04-1.02,1.34-1.2,1.34-.79,3.01-1.65,4.54-1.99,2.43-.54,4.63-1.18,7.06-.51Z"/>
    </g>
    <g>
      <path class="k" d="M23.41,91.98c0-.48,0-1.19,0-2.13,0-1.53-.01-2.67-.03-3.42h1.26c.33-.01.6.07.82.24.22.17.38.42.49.76.11.34.16.76.16,1.26,0,.53-.05.98-.15,1.33-.1.36-.27.63-.5.83-.24.2-.56.29-.97.29-.17,0-.3,0-.39-.02,0,.51,0,.92.02,1.22.01.3.02.55.04.75h-.78c.02-.27.02-.65.03-1.13ZM24.12,87.85c0,.67-.01,1.34-.01,2.01v.69c.08.02.23.03.44.03.33,0,.55-.17.66-.51.11-.34.16-.84.16-1.5,0-.4-.06-.76-.17-1.08-.11-.32-.33-.48-.65-.48-.09,0-.19.01-.28.01h-.15s-.01.83-.01.83Z"/>
      <path class="k" d="M28.88,92.63c-.19.36-.52.54-.99.54s-.81-.18-.99-.54c-.18-.36-.27-.93-.27-1.7s.09-1.33.27-1.69c.18-.36.51-.54.99-.54s.81.18.99.54c.19.36.28.93.28,1.69s-.09,1.34-.28,1.7ZM28.32,92.22c.1-.25.15-.68.15-1.29s-.05-1.03-.15-1.28c-.1-.25-.24-.38-.43-.38s-.34.12-.44.37c-.09.25-.14.68-.14,1.28s.05,1.04.14,1.29c.09.25.24.37.44.37s.33-.13.43-.38Z"/>
      <path class="k" d="M29.8,91.05c0-1.03,0-1.79-.02-2.28h.7c0,.08-.01.34-.01.78.08-.19.2-.35.36-.48.17-.13.35-.2.54-.2.05,0,.11,0,.16.01h.02v.62c-.11,0-.22.02-.33.05-.21.06-.37.17-.48.33s-.18.36-.22.59c-.04.23-.06.51-.06.85v.84c0,.31.01.63.03.95h-.73c.02-.45.02-1.14.02-2.05Z"/>
      <path class="k" d="M33.63,93.08s-.02.01-.03.01-.01,0-.03.01c-.15.05-.29.07-.43.07-.21,0-.38-.06-.49-.19-.12-.12-.2-.29-.25-.49-.05-.2-.08-.44-.09-.71v-2.43l-.57.02v-.54h.29s.27.01.27.01c0-.59,0-1.19-.01-1.78h.73c-.02.73-.03,1.32-.03,1.78.36,0,.59,0,.69-.01v.54l-.69-.02v2.47c0,.22.02.39.05.5s.07.18.11.22.11.05.18.05c.13,0,.23-.02.29-.05v.54Z"/>
      <path class="k" d="M34.59,86.32l.61.06-.78,2.63-.48-.06.65-2.63Z"/>
      <path class="k" d="M37.34,91.64v-.29c0-.61,0-1.04-.03-1.28-.02-.24-.05-.39-.11-.45-.05-.06-.14-.09-.27-.09-.23,0-.38.13-.47.38-.09.25-.13.66-.13,1.22,0,.89,0,1.55.02,1.98h-.73c.02-.45.02-1.14.02-2.05,0-1.02,0-1.79-.02-2.28h.73c-.02.27-.02.47-.02.6.09-.15.2-.26.34-.32.14-.07.29-.1.47-.1s.32.03.44.08c.12.05.22.19.31.41.09.22.14.56.14,1.03v.7s-.01.36-.01.36c0,.39.01.92.03,1.59h-.71c0-.49.01-.98.01-1.47Z"/>
      <path class="k" d="M39.2,86.32l.61.06-.78,2.63-.48-.06.65-2.63Z"/>
      <path class="k" d="M42.38,87.84c-.03-.3-.1-.53-.21-.69-.11-.15-.26-.23-.45-.23-.29,0-.49.15-.61.44-.12.3-.18.62-.18.96,0,.26.03.46.09.61.06.15.14.27.25.36.11.09.27.2.48.31l.12.07c.33.18.58.33.75.46.17.13.3.3.4.5.1.2.15.46.15.79,0,.51-.13.93-.4,1.28-.27.35-.66.53-1.19.53-.38,0-.67-.09-.89-.28s-.36-.44-.45-.77c-.08-.33-.12-.72-.12-1.19h.73c0,.4.02.72.07.96.05.23.12.4.23.51.11.1.27.16.47.16.29,0,.5-.1.63-.3.12-.2.19-.46.19-.77,0-.25-.03-.45-.1-.6-.07-.15-.17-.28-.29-.37-.13-.1-.31-.21-.54-.33l-.03-.02c-.36-.18-.62-.35-.79-.52-.17-.16-.29-.35-.36-.56-.07-.21-.1-.49-.1-.84,0-.32.04-.62.12-.92.08-.3.24-.56.47-.77.23-.21.53-.32.92-.32s.69.11.9.34c.21.23.35.54.43.93.08.39.11.89.11,1.49h-.73c0-.51-.02-.92-.05-1.22Z"/>
      <path class="k" d="M45.41,93.08s-.02.01-.03.01-.01,0-.03.01c-.15.05-.29.07-.43.07-.21,0-.38-.06-.49-.19-.12-.12-.2-.29-.25-.49-.05-.2-.08-.44-.09-.71v-2.43l-.57.02v-.54h.29s.27.01.27.01c0-.59,0-1.19-.01-1.78h.73c-.02.73-.03,1.32-.03,1.78.36,0,.59,0,.69-.01v.54l-.69-.02v2.47c0,.22.02.39.05.5s.07.18.11.22.11.05.18.05c.13,0,.23-.02.29-.05v.54Z"/>
      <path class="k" d="M47.55,92.89v-.23c-.09.11-.2.2-.32.26-.12.06-.24.09-.36.09-.08,0-.17-.01-.28-.04-.22-.05-.39-.16-.5-.33s-.18-.49-.19-.95c0-.24.01-.47.01-.71v-.67c0-.44-.02-.95-.05-1.55h.74c-.02.55-.03,1.06-.03,1.55v.29c0,.62,0,1.05.03,1.29.02.24.05.39.11.44.05.06.15.09.29.09.17,0,.29-.06.36-.18.08-.12.13-.3.15-.54.03-.24.04-.59.04-1.05,0-.19,0-.38-.01-.58v-.48c0-.28-.02-.57-.02-.85h.71c0,.45-.01,1.14-.01,2.05,0,1.02,0,1.79.01,2.28h-.68v-.21Z"/>
      <path class="k" d="M51.05,91.78c0-.55,0-1.23,0-2.04v-.36c-.14,0-.49-.01-1.05-.01v.31c0,1.14.01,2.28.01,3.43h-.71c.02-.34.02-.78.03-1.32,0-.55,0-1.23,0-2.04v-.36h-.67s0-.53,0-.53c.11,0,.22.01.33.01h.34v-.22c0-.45.05-.83.12-1.15s.2-.56.37-.75c.18-.19.43-.28.74-.28.2,0,.36.03.48.1.12.07.22.18.3.33.09-.18.21-.3.35-.39.14-.08.32-.13.52-.13.32,0,.56.08.71.23s.26.35.31.59c.05.24.07.53.07.88h-.65c0-.31,0-.54-.03-.69-.02-.15-.06-.26-.11-.33s-.15-.11-.28-.11c-.15,0-.26.05-.34.16s-.12.27-.15.5c-.02.23-.03.56-.03,1.02v.23h.26c.16-.01.32-.01.48-.01v.54h-.74v.29c0,1.6,0,2.74.02,3.43h-.73c.02-.34.02-.78.03-1.32ZM51.06,88.87v-.67s.01-.23.01-.23c0-.34-.03-.58-.1-.72s-.2-.21-.39-.21c-.17,0-.3.06-.39.17-.08.11-.14.29-.16.54-.02.25-.03.63-.03,1.14.57,0,.92,0,1.05-.01Z"/>
      <path class="k" d="M55.48,93.08c-.28,0-.53,0-.74,0-.22,0-.38,0-.5.02v-.4c.03-.71.05-1.65.05-2.82,0-1.49-.02-2.64-.05-3.45h.78c-.03.52-.05,1.64-.05,3.36,0,1.49,0,2.39.01,2.7.11.01.33.02.64.02.52,0,.88-.01,1.09-.04v.64c-.41-.01-.82-.02-1.23-.02Z"/>
      <path class="k" d="M58.76,93.08s-.02.01-.03.01c0,0-.01,0-.03.01-.15.05-.3.07-.43.07-.21,0-.38-.06-.49-.19-.12-.12-.2-.29-.25-.49-.05-.2-.08-.44-.09-.71v-2.43l-.57.02v-.54h.3s.27.01.27.01c0-.59,0-1.19-.01-1.78h.73c-.02.73-.03,1.32-.03,1.78.36,0,.59,0,.69-.01v.54l-.69-.02v2.47c0,.22.01.39.05.5s.07.18.11.22c.05.03.11.05.18.05.13,0,.23-.02.3-.05v.54Z"/>
      <path class="k" d="M60.96,92.83c-.14.23-.36.34-.66.34-.42,0-.72-.19-.89-.56s-.26-.93-.26-1.67.09-1.3.26-1.7c.17-.4.47-.6.91-.6.15,0,.28.03.39.08.11.05.19.12.25.21,0-.62-.02-1.24-.02-1.87v-.52s.73,0,.73,0c-.03.93-.05,2.04-.05,3.32s.02,2.4.05,3.37h-.7v-.4ZM60.82,89.56c-.09-.22-.22-.33-.4-.33-.21,0-.36.14-.45.41s-.14.71-.14,1.32.05,1.03.14,1.28c.09.25.24.37.45.37.17,0,.31-.1.4-.31.09-.21.14-.58.14-1.12v-.49c0-.53-.05-.91-.14-1.13Z"/>
      <path class="k" d="M63.06,93c-.09.12-.2.18-.35.18s-.26-.06-.34-.18c-.08-.12-.12-.25-.12-.4s.03-.28.1-.41c.07-.13.17-.2.32-.2.09,0,.16.02.22.06.09.05.16.14.22.25.06.11.09.22.09.31,0,.14-.04.27-.13.39Z"/>
    </g>
  </g>
</svg>