<?xml version="1.0" encoding="UTF-8"?>
<svg id="b" data-name="Layer 2" xmlns="http://www.w3.org/2000/svg" viewBox="0 0 73.48 123.14">
  <defs>
    <style>
      .d {
        fill: #c8bab8;
        stroke-width: .5px;
      }

      .d, .e, .f, .g {
        stroke: #332626;
        stroke-linecap: round;
        stroke-linejoin: round;
      }

      .e, .f, .g {
        stroke-width: .34px;
      }

      .e, .h {
        fill: #ebe3e4;
      }

      .f, .i {
        fill: #fff;
      }

      .j {
        fill: #19181d;
      }

      .g {
        fill: none;
      }

      .k {
        fill: #b2928e;
      }

      .l {
        fill: #69504d;
      }
    </style>
  </defs>
  <g id="c" data-name="Layer 1">
    <g>
      <g>
        <rect class="d" x="3.65" y="120.17" width="69.57" height="2.71"/>
        <rect class="f" x="3.65" y="8.48" width="69.57" height="91.12"/>
        <rect class="f" x="3.65" y="6.75" width="69.57" height="1.82"/>
        <g>
          <rect class="h" x="11.26" y="99.59" width="1.3" height="22.06" transform="translate(23.82 221.25) rotate(-180)"/>
          <rect class="k" x="11.26" y="99.59" width="1.3" height="1.3" transform="translate(23.82 200.49) rotate(180)"/>
          <rect class="g" x="11.26" y="99.59" width="1.3" height="22.06" transform="translate(23.82 221.25) rotate(-180)"/>
        </g>
        <g>
          <rect class="h" x="29.31" y="99.59" width="1.3" height="22.06" transform="translate(59.91 221.25) rotate(-180)"/>
          <rect class="k" x="29.31" y="99.59" width="1.3" height="1.3" transform="translate(59.91 200.49) rotate(180)"/>
          <rect class="g" x="29.31" y="99.59" width="1.3" height="22.06" transform="translate(59.91 221.25) rotate(-180)"/>
        </g>
        <g>
          <rect class="h" x="47.35" y="99.59" width="1.3" height="22.06" transform="translate(96.01 221.25) rotate(-180)"/>
          <rect class="k" x="47.35" y="99.59" width="1.3" height="1.3" transform="translate(96.01 200.49) rotate(180)"/>
          <rect class="g" x="47.35" y="99.59" width="1.3" height="22.06" transform="translate(96.01 221.25) rotate(-180)"/>
        </g>
        <g>
          <rect class="h" x="65.4" y="99.59" width="1.3" height="22.06" transform="translate(132.1 221.25) rotate(-180)"/>
          <rect class="k" x="65.4" y="99.59" width="1.3" height="1.3" transform="translate(132.1 200.49) rotate(180)"/>
          <rect class="g" x="65.4" y="99.59" width="1.3" height="22.06" transform="translate(132.1 221.25) rotate(-180)"/>
        </g>
        <rect class="f" x="3.65" y="102.46" width="69.57" height="2.49"/>
        <rect class="e" x="3.65" y="104.96" width="69.57" height="1.01"/>
        <path class="f" d="M2.29,1.79L4.4.17v84.58c0,1.97,1.6,3.57,3.57,3.57h4.59s0-2.29,0-2.29l7.44,4.29-7.44,4.29v-2.07s-4.59,0-4.59,0c-4.3,0-7.8-3.5-7.8-7.8V.17s2.11,1.62,2.11,1.62Z"/>
      </g>
      <path class="l" d="M18.4,90.32l-5.04-2.91v1.7h-5.39c-2.41,0-4.37-1.96-4.37-4.37V1.79s-1.31,1.01-1.31,1.01L.97,1.79v82.96c0,3.86,3.14,7,7,7h5.39v1.49s5.04-2.91,5.04-2.91Z"/>
      <g>
        <g>
          <path class="j" d="M18.72,84.73l-.26.13v-4.78c.94-.06,1.68-.06,2.21.02.54.07.92.22,1.16.43.23.21.36.5.38.88,0,.26-.02.48-.09.67,0,.04-.02.07-.04.11-.02.04-.04.07-.05.11l-.02.04s-.03.04-.05.06c-.03.05-.07.09-.1.13-.11.11-.22.19-.33.23.22.04.39.17.53.39.13.22.18.54.15.96-.05.47-.29.8-.73,1-.05.02-.1.04-.15.06-.05.02-.09.03-.14.04-.06.01-.11.02-.14.03-.03,0-.07.02-.13.03-.17.03-.34.04-.5.03h-1.57l.22-.25-.37-.06.03-.24ZM20.44,82.05c.15-.07.23-.2.23-.39,0-.21-.08-.35-.23-.42-.15-.07-.33-.09-.55-.05v.94c.22.02.4,0,.55-.07ZM20.44,84.07c.15-.07.23-.18.23-.32,0-.13-.02-.23-.09-.32-.05-.07-.12-.11-.21-.13-.06-.02-.13-.03-.21-.03-.1,0-.2.02-.29.04v.85c.22,0,.4-.03.55-.09Z"/>
          <path class="j" d="M23.45,84.17s0-.08,0-.15c0-.05,0-.09,0-.11,0-.02,0-.06,0-.11l.08-3.7.28.16.31-.24.23.16.27-.16.31.08v3.69h1.6l-.08.29.24.24-.24.27.24.27-.16.32-3.1.13.02-.97c0-.07,0-.12,0-.15Z"/>
          <path class="j" d="M28.51,81.59s.02-.05.02-.08c.02-.05.03-.09.04-.14.01-.03.02-.05.02-.08l.31-1.17.19-.16.25.24.3-.24.28.32.28-.24.26.16.26-.08.9,3.69s.02.06.02.09c0,.02,0,.04.02.09l.05.19.28,1.13-.34.08-.31-.24-.28.24-.31-.16-.32.08-.17-.85h-1.12l-.17.85-.34-.08-.29.16-.29-.24-.28.24-.25-.08.96-3.58s.03-.09.04-.14ZM30.03,82.89l-.21-1.08h-.13l-.22,1.08h.55Z"/>
          <path class="j" d="M34.45,85.36c-.3-.03-.61-.16-.94-.38-.26-.17-.45-.4-.59-.68s-.22-.6-.26-.97c0-.06-.01-.13-.02-.19s0-.13,0-.19c0-.13,0-.23,0-.29.02-.27.06-.53.12-.78.06-.24.14-.45.23-.6.18-.32.43-.6.72-.84.3-.24.67-.38,1.11-.44.44-.05.94.05,1.5.3l-.05.34-.36.11.13.39-.28.09-.06.36c-.1-.05-.22-.09-.34-.11s-.26-.02-.38.01c-.05.01-.1.03-.15.05-.05.02-.1.05-.15.09-.03.03-.06.05-.09.08-.03.03-.06.06-.09.1-.12.14-.21.32-.29.54-.06.18-.08.36-.06.56.02.19.08.37.17.53.08.14.19.25.32.34s.29.12.49.12c.2,0,.43-.07.7-.2l.25.17-.1.34.29.16-.1.41.28.07c-.12.12-.28.22-.48.32-.08.03-.17.06-.26.09-.05.02-.1.03-.15.04-.05.01-.11.02-.16.03-.33.05-.64.06-.94.03Z"/>
          <path class="j" d="M37.55,81.33v-1.27l.21-.08.23.24.27-.32.26.24.39-.08-.02,1.65h.07l.53-.93s.04-.07.05-.09c.01-.02.03-.05.05-.09.02-.04.04-.06.05-.08s.03-.05.05-.08l.2-.35.29.09.36-.14.31.25.33-.31.36.17-1.52,2.06.88,1.8c.03.06.05.12.08.17.02.04.04.07.04.09,0,.02.02.05.04.09l.43.9-.31-.08-.26.24-.26-.32-.31.24-.33-.08-.89-2.06-.28.32v1.73l-.28-.16-.22.24-.32-.16-.27.16-.23-.08v-3.96Z"/>
          <path class="j" d="M42.76,84.11s0-.06,0-.11h0c0-.06,0-.09,0-.11,0-.02,0-.05,0-.09l.12-3.29.3.06v-.21s.19,0,.19,0l-.05-.28c.75-.03,1.4-.02,1.93.02.55.04.95.19,1.21.46.26.27.38.68.38,1.23,0,.39-.1.74-.31,1.05-.21.3-.46.54-.75.72l1.22,1.55-.43.2-.36-.2-.39.2-.3-.2-.22.19-.24-.35c-.04-.06-.09-.13-.13-.19-.03-.05-.06-.09-.09-.13l-.59-.85-.13,1.48-.36.16-.26-.24-.3.24-.3-.24-.2.08.03-1.02c0-.05,0-.09,0-.11ZM45.09,82.31c.2-.08.29-.22.29-.41,0-.14-.06-.25-.17-.34-.06-.05-.14-.09-.24-.12-.02,0-.04-.01-.06-.02-.04-.01-.08-.02-.13-.02-.14-.03-.27-.03-.4-.02v1.03c.28.01.52-.02.71-.11Z"/>
          <path class="j" d="M48.18,83.99s0-.07,0-.14h0c0-.08,0-.14,0-.17s0-.09,0-.17l.09-3.33.64-.03c.08,0,.17,0,.25,0,.07,0,.13,0,.16,0s.09,0,.15,0l1.84-.08-.08.2.16.22-.16.28.24.3-.16.26-1.71.07v.87h1.07l.08.16-.24.18.24.22-.16.17.08.28-1.07.02v.73h1.71l-.16.24.24.25-.24.21.32.26-.16.3h-3.18l.02-1.13c0-.06,0-.11,0-.14Z"/>
          <path class="j" d="M52.63,81.68v-1.58l3.01-.07.07.21-.17.23.23.23-.25.24.06.25h-.71c-.08,0-.17,0-.26,0h-.59v.93h1.19l-.17.18.22.24-.17.21.22.2-.17.3h-1.16v.83h1.69l.08.22-.24.21.24.2-.16.24.08.32h-3.06v-3.61Z"/>
          <path class="j" d="M57.01,83.93v-.11h0v-.21l.04-2.13c0-.09,0-.18,0-.27,0-.06,0-.1,0-.13,0-.03,0-.07,0-.13v-.81s3.41-.09,3.41-.09l-.17.28.29.29-.26.32.14.32-.1.17h-1.84v.76h1.5l.06.17-.26.23.22.21-.19.21.13.3h-1.47l-.06,2-.44.08-.25-.32-.29.32-.28-.24-.25.16.02-1.25v-.11Z"/>
          <path class="j" d="M22.61,89.14v-1.58l3.01-.07.07.21-.17.23.23.23-.25.24.06.25h-.71c-.08,0-.17,0-.26,0h-.59v.93h1.19l-.17.18.22.24-.17.21.22.2-.17.3h-1.16v.83h1.69l.08.22-.24.21.24.2-.16.24.08.32h-3.06v-3.61Z"/>
          <path class="j" d="M27.65,91.2s.04-.07.07-.13c.05-.09.1-.18.14-.26l.36-.66-1.36-2.47.3.08.25-.24.29.32.3-.24.4.08.74,1.26.25-.42s.05-.07.06-.09c.01-.02.03-.05.06-.09.04-.06.08-.13.12-.19l.36-.59.27.08.3-.24.28.24.28-.24.42.16-1.56,2.59.73,1.5c.03.06.06.12.09.18v.02s.04.07.05.09c0,.02.02.05.04.09l.36.73-.28.08-.29-.16-.26.16-.32-.24-.33.16-.66-1.25-.7,1.25-.32.08-.27-.24-.33.24-.34-.16-.31.08.77-1.43c.03-.06.05-.1.07-.13Z"/>
          <path class="j" d="M32.25,89.24v-.25l.02-1.19.29.09.03-.18s.08,0,.1,0,.06,0,.1,0c-.04-.09-.08-.19-.12-.28l.4-.02c.27,0,.55,0,.82,0,.49,0,.9.09,1.23.28.05.03.1.06.14.09.08.06.14.11.17.14.34.32.51.75.51,1.31,0,.48-.12.88-.35,1.2-.23.32-.54.55-.92.7-.38.15-.78.23-1.22.24v.65h0v.74l-.35.08-.25-.24-.29.27-.21-.19-.19.08.06-3.43v-.1ZM34.27,89.77c.19-.07.28-.2.28-.38,0-.21-.09-.35-.28-.42-.19-.07-.42-.08-.68-.04v.93c.27.01.5-.02.68-.09Z"/>
          <path class="j" d="M38.05,92.42c-.35-.22-.61-.54-.81-.94-.19-.4-.29-.86-.29-1.37,0-.2.03-.42.08-.65.01-.05.02-.09.04-.14.02-.05.03-.09.05-.13.02-.06.04-.11.07-.17.02-.06.05-.11.08-.16.21-.42.49-.76.84-1.02.35-.26.73-.39,1.12-.39.54,0,.99.17,1.34.52l-.23.33.23.09.04.26c.08-.03.15-.06.19-.07.04-.02.1-.04.18-.07.23.45.35.98.35,1.6,0,.28-.03.54-.09.79,0,.02,0,.03-.01.04,0,.01,0,.02-.01.04,0,.03-.01.05-.02.08,0,.03-.02.05-.03.08-.02.06-.04.1-.05.13-.01.03-.03.07-.05.13-.18.42-.44.75-.77,1s-.68.38-1.07.38c-.43,0-.82-.11-1.17-.33ZM39.77,90.91c.13-.22.2-.51.2-.85,0-.32-.07-.58-.22-.81-.15-.22-.33-.33-.55-.33s-.41.1-.57.31c-.16.2-.24.46-.24.78,0,.27.05.5.14.7.02.04.03.07.05.11.02.04.04.07.07.1.04.04.08.09.12.13.12.13.26.19.42.19.25,0,.44-.11.57-.33Z"/>
          <path class="j" d="M42.49,91.57s0-.06,0-.11h0c0-.06,0-.09,0-.11,0-.02,0-.05,0-.09l.12-3.29.3.06v-.21s.19,0,.19,0l-.05-.28c.75-.03,1.4-.02,1.93.02.55.04.95.19,1.21.46.26.27.38.68.38,1.23,0,.39-.1.74-.31,1.05-.21.3-.46.54-.75.72l1.22,1.55-.43.2-.36-.2-.39.2-.3-.2-.22.19-.24-.35c-.04-.06-.09-.13-.13-.19-.03-.05-.06-.09-.09-.13l-.59-.85-.13,1.48-.36.16-.26-.24-.3.24-.3-.24-.2.08.03-1.02c0-.05,0-.09,0-.11ZM44.83,89.78c.2-.08.29-.22.29-.41,0-.14-.06-.25-.17-.34-.06-.05-.14-.09-.24-.12-.02,0-.04-.01-.06-.02-.04-.01-.08-.02-.13-.02-.14-.03-.27-.03-.4-.02v1.03c.28.01.52-.02.71-.11Z"/>
          <path class="j" d="M48.78,90.2v-1.1h-1.06l-.08-.35.24-.28-.32-.32.24-.25-.08-.29,2.01-.03h.28c.1,0,.2,0,.3,0l1.15-.02.16.31-.32.28.24.28-.16.32.08.35-1.16.02-.06,2.55c0,.06,0,.11,0,.14,0,.03,0,.07,0,.14,0,.06,0,.1,0,.13,0,.03,0,.07,0,.12v.58s-.31.16-.31.16l-.26-.32-.35.24-.28-.16-.25.08v-2.56Z"/>
          <path class="j" d="M53.76,92.74c-.05,0-.1-.01-.15-.02-.05-.01-.1-.02-.15-.04-.12-.03-.2-.06-.26-.08-.25-.09-.48-.2-.69-.35l-.06-.37.36-.09-.04-.32.36-.07-.03-.34.04.05c.13.14.26.25.39.34.13.08.3.13.51.13.18,0,.32-.05.43-.15.11-.1.16-.22.16-.38,0-.13-.05-.23-.15-.3-.1-.07-.26-.14-.47-.21-.08-.03-.17-.06-.25-.1-.08-.03-.15-.07-.21-.11-.07-.03-.15-.06-.21-.1-.07-.04-.13-.09-.2-.14-.03-.03-.06-.05-.09-.08-.03-.03-.06-.06-.08-.1-.15-.19-.23-.45-.23-.77,0-.34.1-.65.3-.91.2-.27.46-.48.78-.62.32-.15.67-.22,1.04-.22.27,0,.54.05.81.14.27.09.51.23.73.41l-.28.09.08.32-.32.15.07.32-.28.18-.04-.04c-.08-.07-.19-.14-.3-.19-.12-.05-.26-.08-.42-.08s-.29.04-.38.13-.14.2-.14.35c0,.12.05.2.14.26.09.06.24.12.45.19.17.06.31.11.42.16.11.05.2.11.28.2.03.02.05.04.08.07.03.02.05.05.08.07.03.03.06.07.09.11.03.04.06.08.08.12.12.22.17.48.17.79,0,.35-.09.65-.26.89-.17.24-.41.43-.7.56-.29.13-.62.19-.98.19-.19,0-.35-.01-.48-.04Z"/>
        </g>
        <g>
          <path class="l" d="M16.46,70.23l-4.18-4.78v-6.71c.28-.13.57-.36.62-.87.07-.74-.36-1.08-.62-1.28v-.25c.08-.05.18-.1.27-.14.43-.21.95-.48,1-1.05.04-.52-.44-.9-.89-1.27-.13-.11-.27-.22-.38-.32v-9.71c.16-.02.33-.04.49-.1.59-.23.95-.72.95-1.32,0-.68-.46-1.34-1.12-1.6-.11-.05-.22-.07-.32-.09v-2.34l4.18-4.77h21.34v.09h21.81l4.18,4.77v2.34c-.1.02-.21.05-.32.09-.65.25-1.11.91-1.11,1.59,0,.6.36,1.09.95,1.32.16.06.32.09.48.1v9.71c-.11.1-.25.21-.38.32-.46.37-.93.75-.89,1.26.04.57.57.84,1,1.05.09.05.19.1.27.14v.25c-.26.2-.7.54-.62,1.28.05.51.34.74.62.87v6.71l-4.18,4.77-43.16-.09Z"/>
          <path class="j" d="M37.33,34.11v.09h22.07l3.17,3.62.76.87v1.81s-.01,0-.02,0c-.84.32-1.42,1.16-1.42,2.03,0,.79.48,1.46,1.25,1.76.06.02.12.04.19.06v9.1c-.06.05-.13.11-.2.17-.5.4-1.12.9-1.07,1.67.06.74.66,1.12,1.1,1.35-.26.28-.52.72-.45,1.38.05.56.33.89.62,1.09v6.26l-3.92,4.48-42.73-.09-2.28-2.6-1.65-1.88v-6.26c.29-.2.56-.53.62-1.09.07-.66-.19-1.1-.45-1.38.44-.23,1.04-.61,1.1-1.36.05-.76-.57-1.26-1.07-1.66-.07-.06-.14-.11-.2-.17v-9.1c.06-.02.12-.04.18-.06.77-.29,1.25-.97,1.25-1.76,0-.87-.58-1.71-1.41-2.03,0,0-.02,0-.03-.01v-1.81l1.63-1.86,2.29-2.62h20.66M38.27,33.17h-22.03c-1.73,1.98-2.71,3.09-4.44,5.07v2.9c.17.06.39.05.62.14.89.35,1.2,1.65.17,2.04-.22.09-.55.08-.79.12v10.32c.41.46,1.3.94,1.27,1.36-.04.48-.9.65-1.27.99v.71c.25.24.69.4.62,1.01-.04.42-.34.5-.62.58v7.21c1.73,1.98,2.71,3.09,4.44,5.07l43.59.09c1.73-1.98,2.71-3.09,4.44-5.07v-7.21c-.29-.08-.58-.16-.62-.58-.06-.61.37-.77.62-1.01v-.71c-.38-.33-1.24-.51-1.27-.99-.03-.42.86-.9,1.27-1.36v-10.32c-.24-.04-.56-.04-.79-.12-1.03-.4-.72-1.7.17-2.04.23-.09.44-.08.62-.14v-2.9c-1.73-1.98-2.71-3.09-4.44-5.07h-21.56v-.09h0Z"/>
        </g>
        <g>
          <path class="i" d="M16.91,70.08l.17-.59c.5-1.75,1.19-5.32,1.74-8.18.35-1.81.65-3.38.83-4.09.41-1.64.68-3.07.92-4.32.23-1.23.44-2.3.72-3.35-.14-.66-.29-1.04-.4-1.35-.3-.79-.38-1.15.04-2.86.42-1.68,1.98-3.29,3.55-3.65.17-.04.32-.04.45-.04.12,0,.18,0,.22-.02,1.58-3.18,3.5-6.07,5.71-8.59.04-.05,4.55-5.17,7.16-5.17.09,0,.19.01.29.03,2.57.3,6.74,5.03,6.92,5.23,2.21,2.52,4.13,5.41,5.71,8.59.04.01.11.01.22.02.13,0,.28,0,.45.04,1.57.37,3.13,1.97,3.55,3.65.42,1.7.34,2.07.04,2.86-.12.31-.26.69-.4,1.35.29,1.05.49,2.12.72,3.35.24,1.26.51,2.68.92,4.32.18.71.48,2.27.83,4.09.54,2.81,1.22,6.31,1.72,8.09l.17.59H16.91ZM52.17,62.42h.04c.07-.02.16-.03.22-.05v-.02c0-.35-.14-1-.23-1.47-.03-.16-.06-.31-.09-.44-1.57-8.41-6.61-17.46-13.97-17.46-.1,0-.21,0-.32,0-7.31.1-12.3,9.07-13.85,17.36-.02.13-.06.28-.09.44-.1.47-.23,1.12-.24,1.47v.02c.06.02.15.03.22.04h.04s14.83,0,14.83,0v.09h13.43ZM52,44.44c-.07,0-.1.02-.12.05-.17.21-.2.88-.06,1.51.15.71.75,1.75,1.1,1.75.06,0,.13-.05.17-.1.18-.17.24-.78,0-1.61-.29-.97-.78-1.56-1.01-1.6-.03,0-.06,0-.09,0ZM24.07,44.36s-.06,0-.09,0c-.23.04-.72.64-1.01,1.6-.24.83-.19,1.43,0,1.61.05.04.11.1.17.1.35,0,.96-1.04,1.1-1.75.14-.64.11-1.3-.06-1.51-.02-.03-.05-.05-.12-.05Z"/>
          <path class="j" d="M38.02,28.34c.08,0,.17.01.26.03,1.97.23,5.32,3.61,6.6,5.07,2.23,2.55,4.17,5.49,5.69,8.6.27.25.6.12.93.19,1.41.33,2.82,1.78,3.2,3.31.61,2.48.07,1.84-.39,4.12.6,2.16.85,4.5,1.67,7.77.45,1.78,1.72,9.24,2.55,12.19H17.53c.83-2.89,2.12-10.48,2.58-12.28.82-3.27,1.07-5.61,1.67-7.77-.47-2.28-1-1.63-.39-4.12.38-1.53,1.79-2.98,3.2-3.31.33-.08.66.06.93-.19,1.53-3.11,3.46-6.05,5.69-8.6,1.32-1.51,4.88-5.01,6.81-5.01M34.47,33.97c0,.46-.46,1.16-.93,1.16.47,0,.93-.7.93-1.16,0-.22-.11-.39-.38-.39.27,0,.38.17.38.39M41.6,34.05c0,.46.46,1.16.93,1.16-.47,0-.93-.7-.93-1.16,0-.22.11-.39.38-.39-.27,0-.38.17-.38.39M23.88,62.79h14.4v.09h13.93c.34-.05.71-.07.7-.53,0-.51-.23-1.45-.33-1.99-1.46-7.83-6.35-17.84-14.43-17.83-.11,0-.22,0-.33,0-7.99.11-12.84,9.96-14.29,17.74-.1.54-.33,1.48-.33,1.99,0,.46.36.48.7.53M23.15,48.14c.76,0,1.42-1.45,1.56-2.12.15-.7.24-2.12-.64-2.12-.05,0-.11,0-.17.02-1.01.18-2.09,3.2-1.24,4,.17.16.33.22.49.22M52.93,48.22c.16,0,.33-.07.49-.22.85-.8-.23-3.82-1.24-4-.06-.01-.12-.02-.17-.02-.88,0-.79,1.43-.64,2.12.14.67.8,2.12,1.56,2.12M38.02,27.41c-2.81,0-7.32,5.11-7.51,5.33-2.18,2.48-4.08,5.32-5.65,8.45-.13,0-.3,0-.48.05-1.76.41-3.43,2.12-3.89,3.99-.43,1.77-.36,2.24-.02,3.13.1.28.23.62.36,1.18-.28,1.03-.47,2.08-.7,3.28-.24,1.25-.51,2.67-.92,4.3-.18.72-.48,2.29-.84,4.11-.55,2.85-1.24,6.4-1.73,8.14l-.34,1.18h43.46l-.33-1.18c-.49-1.77-1.17-5.25-1.71-8.06-.35-1.82-.65-3.39-.84-4.11-.41-1.63-.68-3.05-.92-4.3-.23-1.2-.43-2.24-.7-3.28.13-.56.25-.9.36-1.18.34-.89.41-1.36-.02-3.13-.46-1.87-2.14-3.59-3.9-3.99-.18-.04-.35-.05-.48-.05-1.57-3.12-3.47-5.96-5.65-8.45-.45-.52-4.51-5.07-7.19-5.38h-.01c-.1-.02-.21-.03-.35-.03h0ZM24.15,61.87c.05-.31.12-.68.18-.97.03-.16.07-.32.09-.45,1.52-8.11,6.35-16.89,13.39-16.99.12,0,.22,0,.32,0,7.09,0,11.98,8.85,13.51,17.08.03.13.06.29.09.45.06.3.14.67.18.97h-12.72v-.09h-15.05ZM24.14,44.8s0,0,0,0h0ZM23.27,46.99c0-.52.28-1.43.61-1.91,0,.21-.02.47-.08.74-.08.38-.32.87-.53,1.17h0ZM52.81,47.08c-.21-.29-.45-.78-.53-1.16-.06-.27-.08-.54-.08-.75.32.48.62,1.39.61,1.91h0Z"/>
        </g>
        <g>
          <g>
            <path class="j" d="M33.89,33.65c-.43.1-1.09,1.29-.5,1.5.79.29,1.71-1.78.5-1.5Z"/>
            <path class="j" d="M33.54,35.43c-.08,0-.16-.01-.24-.04-.27-.1-.41-.34-.39-.66.03-.49.49-1.21.93-1.31.49-.11.7.1.79.23.23.36.03.95-.29,1.34-.24.29-.52.45-.79.45ZM34.1,33.87s-.09,0-.15.02h0c-.17.04-.52.52-.54.87,0,.14.04.16.07.17.16.06.35-.09.48-.25.25-.31.32-.66.25-.77-.01-.02-.05-.03-.11-.03Z"/>
          </g>
          <g>
            <path class="j" d="M42.19,33.74c-1.21-.28-.29,1.79.5,1.5.58-.21-.07-1.41-.5-1.5Z"/>
            <path class="j" d="M42.54,35.51c-.27,0-.56-.16-.79-.45-.32-.39-.52-.97-.29-1.34.08-.14.3-.35.79-.23.44.1.89.82.93,1.31.02.32-.12.56-.39.66-.08.03-.16.04-.24.04ZM41.98,33.96c-.06,0-.1.01-.11.03-.06.1,0,.46.25.77.13.16.32.31.48.25.03-.01.08-.03.07-.17-.02-.35-.38-.83-.54-.87h0c-.06-.01-.11-.02-.15-.02Z"/>
          </g>
        </g>
        <g>
          <path class="j" d="M52.55,60.98c-1.45-8.04-6.29-18.19-14.28-18.32v-.07c-8.28-.29-13.28,10.12-14.76,18.32-.1.56-.33,1.53-.33,2.06,0,.48.36.49.7.54l28.31.07c.34-.05.71-.07.7-.54,0-.53-.23-1.5-.33-2.06ZM48.82,51.9c-.06.13-.94,1.35-1.04,1.21l-.44-3.69c.6.69,1.07,1.62,1.48,2.48ZM46.44,48.13l-1.18,1.79-.44-3.6c.56.58,1.18,1.1,1.62,1.81ZM44,45.57c-.62.54-.98,1.32-1.44,2.01l-.55-3.18c.14-.16,1.73,1.05,2,1.17ZM41.19,43.98l-1.59,2.93-1.22-3.43c.96-.03,1.9.21,2.81.5ZM37.68,43.41l-1.22,3.43-1.59-2.93c.91-.29,1.85-.53,2.81-.5ZM34.06,44.33l-.55,3.18c-.46-.69-.83-1.47-1.44-2.01.27-.12,1.86-1.33,2-1.17ZM31.25,46.26l-.44,3.6-1.18-1.79c.44-.71,1.06-1.23,1.62-1.81ZM28.73,49.36l-.44,3.69c-.1.14-.98-1.08-1.04-1.21.42-.86.88-1.78,1.48-2.48ZM25.33,62.67l1.74-3.35,1.51,3.35h-3.25ZM29.47,62.67l1.7-3.68,2,3.68h-3.7ZM34.06,62.67l1.67-3.77,1.81,3.77h-3.48ZM38.53,62.74l1.81-3.77,1.67,3.77h-3.48ZM42.89,62.74l2-3.68,1.7,3.68h-3.7ZM47.48,62.74l1.51-3.35,1.74,3.35h-3.25ZM51.22,62.07l-1.9-3.71c-.15-.26-.51-.3-.69-.05l-1.56,3.6-.72-1.29c-.19-.38-1.09-2.51-1.25-2.61-.15-.11-.33-.04-.47.05-.39.23-1.65,3.06-2.06,3.7-.03.06-.16.26-.21.22l-1.67-4.01-.36-.24-.41.37-1.67,3.49v-.1c-.09.17-.17.34-.26.51l-1.9-3.96-.41-.37-.36.24-1.67,4.01s-.17-.16-.21-.22c-.41-.64-1.66-3.47-2.06-3.7-.14-.09-.32-.16-.47-.05-.15.1-1.06,2.23-1.25,2.61l-.72,1.29-1.56-3.6c-.18-.25-.53-.22-.69.05l-1.9,3.71-.92.59c.54-3.46,1.49-6.83,2.89-9.96.13-.11.35.36.44.46.28.33,1.15,1.58,1.51,1.04l.63-4.94c.14-.04.14.05.21.14.3.4.89,1.74,1.15,1.96.15.13.36.12.5-.04l.66-4.74c.08-.12.38.4.43.48.26.39.85,1.63,1.07,1.85.12.11.29.14.43.07.41-.23.56-3.31.85-3.9.42.49,1.25,2.84,1.66,3.06.3.15.48-.04.58-.34l.85-2.33h0s.01-.03.02-.05l.21-.58,1.11,3.02c.11.3.29.5.58.34.42-.22,1.25-2.57,1.66-3.06.29.59.44,3.67.85,3.9.14.07.31.04.43-.07.22-.22.81-1.46,1.07-1.85.05-.07.34-.59.43-.48l.66,4.74c.14.16.34.17.5.04.27-.22.85-1.56,1.15-1.96.07-.08.07-.17.21-.14l.63,4.94c.36.54,1.23-.71,1.51-1.04.09-.1.31-.57.44-.46,1.4,3.13,2.35,6.5,2.89,9.96l-.92-.59Z"/>
          <path class="l" d="M49.25,52.69c-.13-.11-.35.36-.44.46-.28.33-1.15,1.58-1.51,1.04l-.63-4.94c-.14-.04-.14.05-.21.14-.3.4-.89,1.74-1.15,1.96-.15.13-.36.12-.5-.04l-.66-4.74c-.08-.12-.38.4-.43.48-.26.39-.85,1.63-1.07,1.85-.12.11-.29.14-.43.07-.41-.23-.56-3.31-.85-3.9-.42.49-1.25,2.84-1.66,3.06-.3.15-.48-.04-.58-.34l-.87-2.37v-.11c-.1-.3-.18-.54-.22-.66l-1.12,3.05c-.11.3-.29.5-.58.34-.42-.22-1.25-2.57-1.66-3.06-.29.59-.44,3.67-.85,3.9-.14.07-.31.04-.43-.07-.22-.22-.81-1.46-1.07-1.85-.05-.07-.34-.59-.43-.48l-.66,4.74c-.14.16-.34.17-.5.04-.27-.22-.85-1.56-1.15-1.96-.07-.08-.07-.17-.21-.14l-.63,4.94c-.36.54-1.23-.71-1.51-1.04-.09-.1-.31-.57-.44-.46-1.4,3.13-2.35,6.5-2.89,9.96l.92-.59,1.9-3.71c.15-.26.51-.3.69-.05l1.56,3.6.72-1.29c.19-.38,1.09-2.51,1.25-2.61.15-.11.33-.04.47.05.39.23,1.65,3.06,2.06,3.7.03.06.16.26.21.22l1.67-4.01.36-.24.41.37,1.69,3.52v.02c.06.11.11.22.17.33l.04.09s0,0,0,0c.02.03.03.06.05.09l1.9-3.96.41-.37.36.24,1.67,4.01s.17-.16.21-.22c.41-.64,1.66-3.47,2.06-3.7.14-.09.32-.16.47-.05.15.1,1.06,2.23,1.25,2.61l.72,1.29,1.56-3.6c.18-.25.53-.22.69.05l1.9,3.71.92.59c-.54-3.46-1.49-6.83-2.89-9.96Z"/>
        </g>
        <g>
          <path class="i" d="M36.46,46.84l1.22-3.43c-.96-.03-1.9.21-2.81.5l1.59,2.93Z"/>
          <polygon class="i" points="34.06 62.67 37.53 62.67 35.72 58.91 34.06 62.67"/>
          <path class="i" d="M32.06,45.5c.62.54.98,1.32,1.44,2.01l.55-3.18c-.14-.16-1.73,1.05-2,1.17Z"/>
          <polygon class="i" points="29.47 62.67 33.17 62.67 31.17 58.99 29.47 62.67"/>
          <path class="i" d="M31.25,46.26c-.56.58-1.18,1.1-1.62,1.81l1.18,1.79.44-3.6Z"/>
          <path class="i" d="M28.29,52.86l.44-3.6c-.6.68-1.07,1.58-1.48,2.42.06.13.94,1.32,1.04,1.18Z"/>
          <polygon class="i" points="25.33 62.63 28.58 62.63 27.07 59.36 25.33 62.63"/>
          <path class="i" d="M41.19,43.98c-.91-.29-1.85-.53-2.81-.5l1.22,3.43,1.59-2.93Z"/>
          <polygon class="i" points="38.53 62.74 42.01 62.74 40.34 58.97 38.53 62.74"/>
          <path class="i" d="M44,45.57c-.27-.12-1.86-1.33-2-1.17l.55,3.18c.46-.69.83-1.47,1.44-2.01Z"/>
          <polygon class="i" points="42.89 62.74 46.59 62.74 44.89 59.06 42.89 62.74"/>
          <path class="i" d="M46.44,48.13c-.44-.71-1.06-1.23-1.62-1.81l.44,3.6,1.18-1.79Z"/>
          <path class="i" d="M48.83,51.76c-.42-.84-.88-1.74-1.48-2.42l.44,3.6c.1.14.98-1.05,1.04-1.18Z"/>
          <polygon class="i" points="49 59.43 47.48 62.7 50.74 62.7 49 59.43"/>
        </g>
        <g>
          <path class="j" d="M23.9,44.04c-1.01.19-2.09,3.23-1.24,4.04.94.89,1.88-1.1,2.05-1.91.16-.74.25-2.32-.81-2.12ZM24.14,45.37c-.04.69-.42,1.88-1.03,2.17-.2-.71.11-1.54.47-2.14.25-.41.61-.98.56-.03Z"/>
          <path class="j" d="M52.18,44.13c-1.06-.2-.97,1.38-.81,2.12.17.82,1.11,2.8,2.05,1.91.85-.81-.23-3.85-1.24-4.04ZM52.97,47.63c-.61-.29-1-1.48-1.03-2.17-.05-.95.31-.38.56.03.36.6.67,1.43.47,2.14Z"/>
        </g>
        <g>
          <path class="i" d="M23.58,45.4c-.36.6-.67,1.43-.47,2.14.61-.29,1-1.48,1.03-2.17.05-.95-.31-.38-.56.03Z"/>
          <path class="i" d="M52.5,45.49c-.25-.41-.61-.98-.56-.03.04.69.42,1.88,1.03,2.17.2-.71-.11-1.54-.47-2.14Z"/>
        </g>
        <path class="j" d="M47.01,66.84h-17.91c-.27,0-.49-.22-.49-.49s.22-.49.49-.49h17.91c.27,0,.49.22.49.49s-.22.49-.49.49Z"/>
      </g>
    </g>
  </g>
</svg>