<?xml version="1.0" encoding="UTF-8"?>
<svg id="b" data-name="Layer 2" xmlns="http://www.w3.org/2000/svg" viewBox="0 0 61.49 105.92">
  <defs>
    <style>
      .d {
        fill: #312726;
      }

      .e, .f, .g, .h {
        stroke: #312726;
        stroke-miterlimit: 10;
      }

      .e, .i {
        fill: #e24747;
      }

      .e, .h {
        stroke-width: .75px;
      }

      .f {
        fill: #121820;
      }

      .f, .g {
        stroke-width: .5px;
      }

      .g {
        fill: none;
      }

      .h {
        fill: #822a2a;
      }
    </style>
  </defs>
  <g id="c" data-name="Layer 1">
    <g>
      <g>
        <rect class="e" x=".44" y="81.34" width="60.63" height="24.21"/>
        <polygon class="h" points="61.07 81.34 .44 81.34 5.13 53 57.74 53 61.07 81.34"/>
      </g>
      <g>
        <rect class="d" x="43.07" y="96.11" width="9.83" height="9.43"/>
        <rect class="d" x="10.54" y="101.6" width="20.21" height="3.73"/>
      </g>
      <g>
        <rect class="i" x="44.57" y="99.93" width="2.86" height="5.37"/>
        <rect class="i" x="48.73" y="99.93" width="2.86" height="5.37"/>
        <rect class="e" x="51.75" y="83.68" width="5.34" height="5.12"/>
        <polygon class="e" points="12.92 73.05 6.37 73.05 7.3 66.77 13.34 66.77 12.92 73.05"/>
        <rect class="e" x="6.37" y="73.05" width="6.55" height="3.14"/>
      </g>
      <g>
        <path class="e" d="M33.71,20.51h-15.26v44.84h.08c0,6.58,15.09,6.58,15.1,0h.08V20.51Z"/>
        <path class="e" d="M33.64,20.51c.17,6.73-15.29,6.73-15.12,0-.17-6.73,15.29-6.73,15.12,0Z"/>
        <path class="e" d="M33.64,26.48c.17,6.73-15.29,6.73-15.12,0"/>
        <path class="h" d="M31.94,20.51c.13,5.21-11.85,5.21-11.71,0-.13-5.21,11.85-5.21,11.71,0Z"/>
      </g>
      <g>
        <path class="e" d="M52.9,5.42h-15.26v44.84l.08,15.09c.09,2.82,3.43,5.08,7.55,5.08s7.46-2.27,7.55-5.08l.08-15.09V5.42Z"/>
        <path class="e" d="M52.83,5.42c.17,6.73-15.29,6.73-15.12,0-.17-6.73,15.29-6.73,15.12,0Z"/>
        <path class="e" d="M52.83,11.4c.17,6.73-15.29,6.73-15.12,0"/>
        <path class="h" d="M51.13,5.42c.13,5.21-11.85,5.21-11.71,0-.13-5.21,11.85-5.21,11.71,0Z"/>
      </g>
      <rect class="d" x="10.54" y="98.41" width="20.21" height="2.27"/>
      <rect class="d" x="10.54" y="95.25" width="20.21" height="2.24"/>
      <rect class="g" x="9.65" y="94.12" width="22.01" height="11.43"/>
      <line class="g" x1="46" y1="100.83" x2="46" y2="105.29"/>
      <line class="f" x1="50.16" y1="100.83" x2="50.16" y2="105.29"/>
      <line class="g" x1="44.57" y1="100.96" x2="51.59" y2="100.96"/>
      <rect class="e" x="38.82" y="83.68" width="5.34" height="5.12"/>
      <rect class="e" x="45.32" y="83.68" width="5.34" height="5.12"/>
    </g>
  </g>
</svg>