<?xml version="1.0" encoding="UTF-8"?>
<svg id="b" data-name="Layer 2" xmlns="http://www.w3.org/2000/svg" xmlns:xlink="http://www.w3.org/1999/xlink" viewBox="0 0 893 1086">
  <defs>
    <style>
      .f {
        fill: none;
        filter: url(#d);
        stroke: #312726;
        stroke-miterlimit: 10;
      }
    </style>
    <filter id="d" data-name="drop-shadow-1" x="0" y="0" width="893" height="1086" filterUnits="userSpaceOnUse">
      <feOffset dx="0" dy="0"/>
      <feGaussianBlur result="e" stdDeviation="30"/>
      <feFlood flood-color="#000" flood-opacity=".5"/>
      <feComposite in2="e" operator="in"/>
      <feComposite in="SourceGraphic"/>
    </filter>
  </defs>
  <g id="c" data-name="Layer 1">
    <path class="f" d="M648.7,869.19l-.32,87.95c-.08,21.15-17.25,38.26-38.4,38.26h-114.61c-8.72,0-16.5-5.48-19.43-13.69h0c-4.3-12.04-17.57-18.28-29.58-13.91l-55.54,20.2c-13.46,4.9-27.68,7.4-42.01,7.4h-145.73c-27.5,0-52.75-16.66-72.6-40.72-36.01-43.66-46.33-103.1-28.45-156.8l21.93-65.85c11.33-34.02,7.88-71.22-9.52-102.58l-5.66-10.19c-16.53-29.79-22.14-64.47-15.58-97.91,1.61-8.22,3.56-16.37,5.84-24.45l5.68-20.09c13.3-47.08,11.27-96.28,1.27-144.17-7.38-35.33-4.58-127.38,9.91-159.85,28.3-63.42,80.29-82.06,154.23-82.06l112.67.7c43.98,0,60.83,49.84,102.64,49.44h59.75c38.49,0,85.8,17.34,100.09,52.17,7.83,19.08,39.48,59.08,60.11,59.27l54.59.51c22.33.21,40.34,18.33,40.41,40.66l.13,39.64c.07,23.03-18.58,41.74-41.61,41.74h-49.74c-9.03,0-16.4,7.24-16.57,16.27l-5.16,283.34c-.23,12.69,9.96,23.12,22.66,23.18l61.34.28c16.74.08,30.29,13.64,30.34,30.38l.14,45.34c.07,20.65-16.77,37.37-37.42,37.15l-53.7-.56c-42.56,1.29-60.32,18.68-62.11,58.94Z"/>
  </g>
</svg>