<?xml version="1.0" encoding="UTF-8"?>
<svg id="b" data-name="Layer 2" xmlns="http://www.w3.org/2000/svg" xmlns:xlink="http://www.w3.org/1999/xlink" viewBox="0 0 977 1173">
  <defs>
    <style>
      .f {
        fill: none;
        filter: url(#d);
        stroke: #312726;
        stroke-miterlimit: 10;
      }
    </style>
    <filter id="d" data-name="drop-shadow-1" x="0" y="0" width="977" height="1173" filterUnits="userSpaceOnUse">
      <feOffset dx="0" dy="0"/>
      <feGaussianBlur result="e" stdDeviation="30"/>
      <feFlood flood-color="#000" flood-opacity=".3"/>
      <feComposite in2="e" operator="in"/>
      <feComposite in="SourceGraphic"/>
    </filter>
  </defs>
  <g id="c" data-name="Layer 1">
    <path class="f" d="M541.08,1081.25c-29.17.43-35.43-22.28-65.07-22.04-8.08-.46-35.05,11.06-42.46,13.3-16.17,5.8-33.1,8.74-50.3,8.74,0,0-156.94,0-156.94,0-31.62,0-63.47-17.26-89.69-48.59-75.6-86.49-22.22-191.08-18.81-290.62.73-19.7.22-32.47-7.74-72.04-7.55-36.67-24.6-70.11-16.78-109.8,2.28-15.07,8.84-33.62,12.7-48.48,35.28-119.71-68.71-324.47,84.58-400.85,48.18-29.15,169.28-17.35,229.4-19.05,48.97-1.75,77.24,49.16,120.46,52.48,60.87-2.54,147.79-.43,175.98,64.6.59,10.69,73.31,57.22,82.66,53.96,41.98-3.79,83.73,9.96,85.53,58.36-1.66,33.18,9.19,86.37-20.09,111.47-11.79,11.83-26.47,18.35-41.35,18.38-26.93.21-48.96,22.42-48.96,49.35,0,0,0,163.26,0,163.26.17,35.05,31.97,53.17,64.17,49.26,60.53,5.26,46.25,86.53,46.9,126.72.02,24.97-19.13,64.38-49.3,69.49-63.69,23.1-81.89,47.52-94.05,113.02-2.31,19.25-10.32,33.81-32.32,46.11-29.7,23.72-134.18,9.05-168.52,12.98Z"/>
  </g>
</svg>