<?xml version="1.0" encoding="UTF-8"?>
<svg id="b" data-name="Layer 2" xmlns="http://www.w3.org/2000/svg" viewBox="0 0 743.07 590.43">
  <defs>
    <style>
      .d {
        fill: #727780;
      }

      .e {
        fill: #556aa6;
      }

      .f {
        fill: #464e82;
      }

      .g {
        fill: #4e5c9a;
      }
    </style>
  </defs>
  <g id="c" data-name="Layer 1">
    <g>
      <path class="f" d="M120,590.43c-32.04,0-62.17-12.48-84.84-35.13C12.49,532.63,0,502.49,0,470.43V121.97C0,56.07,53.61,2.24,119.5,1.97q475.24-1.97,475.47-1.97c24.89,0,48.76,7.52,69.02,21.75,19.45,13.66,34.21,32.54,42.82,54.73.62,1.2,1.28,2.46,1.68,3.21,11.97,22.81,36.85,70.25,34.43,127.36-1.9,44.78-15.64,77.1-25.67,100.69-4.37,10.28-7.52,17.7-7.83,21.78-1.4,18.57-4.02,53.13-18.6,89.85-16.27,40.95-42.7,73.95-78.63,98.25-1.75,3.38-3.55,6.77-5.44,10.22-21.04,38.49-61.37,62.42-105.24,62.44q-381.47.16-381.49.16Z"/>
      <path class="g" d="M120,550.43c-21.36,0-41.45-8.32-56.56-23.42-15.12-15.11-23.44-35.21-23.44-56.58V121.97c0-43.93,35.74-79.82,79.67-80q475.16-1.97,475.3-1.97c33.93,0,63.75,21.05,75.2,52.71.85,1.67,2.22,4.29,2.89,5.57,11.13,21.22,31.85,60.71,29.88,107.07-1.59,37.52-13.2,64.81-22.52,86.74-6.08,14.31-10.1,23.76-10.91,34.41-1.33,17.6-3.56,47.05-15.89,78.09-14.48,36.45-38.77,65.09-72.28,85.25-2.47,5.09-5.65,11.37-9.71,18.8-14.03,25.66-40.91,41.61-70.16,41.63q-381.46.16-381.47.16Z"/>
      <path class="e" d="M120,510.43c-10.61,0-20.78-4.21-28.28-11.71-7.5-7.5-11.72-17.68-11.72-28.29V121.97c0-22.03,17.81-39.91,39.83-40,0,0,475.08-1.97,475.13-1.97,17.46,0,32.87,11.33,38.13,27.9.76,1.74,2.94,5.89,4.55,8.96,10.04,19.14,26.85,51.17,25.33,86.78-1.29,30.26-10.89,52.85-19.37,72.79-6.8,16-12.68,29.82-13.98,47.05-2.44,32.25-7.51,99.36-75.57,135.88-1.46.79-2.59,1.41-3.46,1.9-.33.7-.66,1.43-.98,2.1-2.59,5.61-6.51,14.08-13.08,26.1-7.01,12.83-20.46,20.81-35.08,20.81,0,0-381.45.16-381.45.16Z"/>
      <path class="d" d="M472.42,470.27l-472.42.16V121.97l588.26-1.97c4.5,12.67,36.56,47.34,34.74,81.95-2.4,45.56-36.71,70.48-41.21,118.52-3.56,38.03-11.59,79.37-67.62,103.64-26.98,11.69-17.36,10.14-41.75,46.16Z"/>
    </g>
  </g>
</svg>
