<?xml version="1.0" encoding="UTF-8"?>
<svg id="b" data-name="Layer 2" xmlns="http://www.w3.org/2000/svg" viewBox="0 0 694.98 864.18">
  <defs>
    <style>
      .d {
        fill: none;
        stroke: #312726;
        stroke-miterlimit: 10;
      }
    </style>
  </defs>
  <g id="c" data-name="Layer 1">
    <path class="d" d="M576.79,852.4c-49.68,20.55-74.73,9.4-139.03-4.86-18.08-4.01-50.58,10.54-95.4,10.88-28.95.22-41.38-10.88-95.25-10.07-73.96,1.11-92.6,32.32-131.75-4.3-26.65-24.93-17.24-56.46-34.61-68.52-44.54-30.94-79.31-1.34-79.31-55.57l-.95-61.68c-.25-16.25,12.84-29.72,29.09-29.93l104.62-1.38-5.69-327.84-93.63-.26c-19.21-.05-34.69-15.81-34.35-35.01.61-35.02,2.8-77.74,2.84-101.34s40.88-71.02,42.81-86.93C52.28,25.67,51.72,4.23,101.73.5c0,0,113.99,10.9,156.28,4.23,62.72-9.9,133.02,4.39,177.32,2.57,32.12-1.31,107.4-4.89,150.36-.28,56.48,6.06,85.29,24.15,81.84,59.45-1.95,19.93-.32,52.1,4.43,71.55,12.09,49.57,16.79,112.68,9.65,204.21-1.57,20.14,12.64,40.87,12.87,61.16.37,33.31-11.98,42.26-12,76.1-.04,89.64,8.48,221.12,8.48,221.12,0,34.33-71.61,38.51-93.16,57.47-16.67,14.66,20.14,77.29-21,94.31Z"/>
  </g>
</svg>