<?xml version="1.0" encoding="UTF-8"?>
<svg id="b" data-name="Layer 2" xmlns="http://www.w3.org/2000/svg" viewBox="0 0 73.48 123.14">
  <defs>
    <style>
      .d {
        fill: #c8bab8;
        stroke-width: .5px;
      }

      .d, .e, .f, .g {
        stroke: #332626;
        stroke-linecap: round;
        stroke-linejoin: round;
      }

      .e, .f, .g {
        stroke-width: .34px;
      }

      .e, .h {
        fill: #ebe3e4;
      }

      .f, .i {
        fill: #fff;
      }

      .j {
        fill: #19181d;
      }

      .g {
        fill: none;
      }

      .k {
        fill: #f8971e;
      }

      .l {
        fill: #b2928e;
      }
    </style>
  </defs>
  <g id="c" data-name="Layer 1">
    <g>
      <g>
        <rect class="d" x="3.65" y="120.17" width="69.57" height="2.71"/>
        <rect class="f" x="3.65" y="8.48" width="69.57" height="91.12"/>
        <rect class="f" x="3.65" y="6.75" width="69.57" height="1.82"/>
        <g>
          <rect class="h" x="11.26" y="99.59" width="1.3" height="22.06" transform="translate(23.82 221.25) rotate(-180)"/>
          <rect class="l" x="11.26" y="99.59" width="1.3" height="1.3" transform="translate(23.82 200.49) rotate(-180)"/>
          <rect class="g" x="11.26" y="99.59" width="1.3" height="22.06" transform="translate(23.82 221.25) rotate(-180)"/>
        </g>
        <g>
          <rect class="h" x="29.31" y="99.59" width="1.3" height="22.06" transform="translate(59.91 221.25) rotate(-180)"/>
          <rect class="l" x="29.31" y="99.59" width="1.3" height="1.3" transform="translate(59.91 200.49) rotate(-180)"/>
          <rect class="g" x="29.31" y="99.59" width="1.3" height="22.06" transform="translate(59.91 221.25) rotate(-180)"/>
        </g>
        <g>
          <rect class="h" x="47.35" y="99.59" width="1.3" height="22.06" transform="translate(96.01 221.25) rotate(-180)"/>
          <rect class="l" x="47.35" y="99.59" width="1.3" height="1.3" transform="translate(96.01 200.49) rotate(-180)"/>
          <rect class="g" x="47.35" y="99.59" width="1.3" height="22.06" transform="translate(96.01 221.25) rotate(-180)"/>
        </g>
        <g>
          <rect class="h" x="65.4" y="99.59" width="1.3" height="22.06" transform="translate(132.1 221.25) rotate(-180)"/>
          <rect class="l" x="65.4" y="99.59" width="1.3" height="1.3" transform="translate(132.1 200.49) rotate(-180)"/>
          <rect class="g" x="65.4" y="99.59" width="1.3" height="22.06" transform="translate(132.1 221.25) rotate(-180)"/>
        </g>
        <rect class="f" x="3.65" y="102.46" width="69.57" height="2.49"/>
        <rect class="e" x="3.65" y="104.96" width="69.57" height="1.01"/>
        <path class="f" d="M2.29,1.79L4.4.17v84.58c0,1.97,1.6,3.57,3.57,3.57h4.59s0-2.29,0-2.29l7.44,4.29-7.44,4.29v-2.07s-4.59,0-4.59,0c-4.3,0-7.8-3.5-7.8-7.8V.17s2.11,1.62,2.11,1.62Z"/>
      </g>
      <path class="k" d="M18.4,90.32l-5.04-2.91v1.7h-5.39c-2.41,0-4.37-1.96-4.37-4.37V1.79s-1.31,1.01-1.31,1.01L.97,1.79v82.96c0,3.86,3.14,7,7,7h5.39v1.49s5.04-2.91,5.04-2.91Z"/>
      <g>
        <g>
          <path class="j" d="M60.01,33.67c1.78,4.06,3.28,10.62,1.2,14.75-1.29,2.54-5.48,5.83-7.65,7.94-.2.2-1.34,1.28-1.34,1.42l.58.99-.33.89,3.83.93c.7.34,3.48,3.05,3.8,3.77.44.99-.04,1.93-1.19,1.7-1.08-.22-2.79-2.46-3.77-3.11-1.15-.21-2.32-.42-3.5-.42l-.32.96,3.27.44c.47.14,2.65,2.64,2.91,3.18.65,1.32.04,2.39-1.44,1.7-1.05-.5-1.63-1.53-2.42-2.28l-3.48-.6-.57.9c.88.55,2.92.45,3.62,1.08.38.35,1.69,2.08,1.82,2.54.23.89-.15,1.62-1.12,1.64-1.22.03-1.89-1.18-2.51-2.03l-3.33-.67c-.15.01-1.06,1.28-1.27,1.52-1.78,2.06-3.31,3.25-6.15,3.44-2.24.15-5.88.17-8.11-.01-.48-.04-1.3-.19-1.78-.31-2.26-.57-3.95-2.95-5.4-4.62l-3.34.64c-.58.72-1.04,1.73-2.03,1.98-1.13.28-2.01-.44-1.62-1.62.17-.52,1.72-2.57,2.2-2.76.65-.27,2.64-.39,3.1-.73.22-.16-.37-.72-.35-.99l-3.65.65c-.73.8-2.02,2.62-3.25,2.45-.27-.04-.62-.23-.72-.51-.5-1.48,2.02-3.57,2.92-4.56l3.4-.52c.13-.1.04-.11.02-.2-.04-.15-.22-.67-.34-.7-.49-.04-.99.02-1.47.07-.81.09-1.77.15-2.4.65-.9.71-2.56,2.87-3.71,2.84-.72-.02-1.08-.6-1-1.26.16-1.29,3.11-3.58,4.18-4.36l3.66-.82-.35-.9.6-1.04-7.71-7.36c-3.82-4.4-2.28-11.78-.14-16.66,1.9-4.35,6.97-8.16,11.9-6.87.35.09,1.19.38,1.47.64.02.02.03.04.05.05.39.47-.6,1.12-.89,1.45-2.02,2.33-3.82,4.87-5.45,7.48l8.6-2.78c.88.02-.05,1.87-.27,2.27-1.69,3.04-5.19,4.48-8.5,4.96-.03.08,0,.2-.03.27-.86,1.71-1.45,3.55-2.61,5.14-.32.44-.68.82-1.03,1.23.24.4.62.63.83,1.08.17.37.16.76.39,1.09.39.57,1.74,1.76,2.31,2.3,1.06,1.03,2.23,1.95,3.23,3.04l.13-.04c.82-.9,1.83-1.77,2.85-2.46.71-.49,1.73-1.13,2.49-1.51.29-.14.98-.21,1.15-.51.17-.29.37-1.66.4-2.04.03-.43.02-2.51-.28-2.73-3.06-.64-3.38-4.99-.45-6.09,3.71-1.39,6.17,3.64,2.87,5.73l-.05.13c.18,1.41.2,2.85.62,4.21,2.36-.49,4.79-.43,7.16-.04.32-.18.62-3.61.6-4.18-.21-.34-.58-.53-.85-.88-2.15-2.75.98-6.39,4-4.86,2.33,1.19,2.33,4.45.05,5.72-.22.12-.61.19-.75.29-.62.46-.26,3.99.1,4.76.07.12.46.27.62.34,1.97.8,3.97,2.21,5.53,3.66.13.13.32.58.55.45.69-.67,1.35-1.38,2.05-2.05.75-.71,1.64-1.44,2.36-2.17.19-.19,1.11-1.13,1.18-1.26.15-.26.11-.69.33-1.06.18-.31.56-.66.8-.94v-.12c-.82-.52-1.45-1.62-1.93-2.46-.73-1.3-1.2-2.71-1.84-4.04-3.31-.54-6.77-1.95-8.45-5-.27-.49-1.26-2.43-.07-2.2l8.37,2.75c.03-.16-.1-.27-.17-.39-1.21-2.08-3.01-4.39-4.54-6.26-.23-.28-1.61-1.73-1.64-1.85-.07-.23.07-.44.32-.61.44-.31,1.19-.52,1.5-.59,4.88-1.08,9.77,2.62,11.64,6.91ZM61.15,46.01c.67-3.61-.15-7.3-1.36-10.69-2.29.68-4.19,2.4-5.33,4.46-.22.39-.46.75-.38,1.19.22,1.22,2,4.79,2.92,5.61,1.06.94,3.09-.02,4.15-.57ZM59.43,65.17c.06-.4-.3-.86-.56-1.16-.82-1-2.04-1.88-3.01-2.74l-3.53-.82-.4,1.29c1.23.02,2.46.2,3.65.48.97.81,1.9,1.93,2.89,2.68.17.13.82.62.94.26ZM60.84,47.06c-.76.35-1.58.64-2.41.77-.27.04-.58-.05-.82.05-.2.09-1,1.11-1.04,1.33-.09.61,1.14.98,1.6.98,1.2.03,2.42-2.09,2.66-3.13ZM51.73,57.05l6.32-6.08c-.66-.05-1.3-.28-1.81-.68l-.19.03-5.5,5.39,1.18,1.35ZM54.78,37.84c1.23-1.47,2.77-2.73,4.66-3.21-1.48-4.61-6.94-8.56-11.86-6.78,2.71,3.1,5.1,6.46,7.2,10ZM56.92,68.18c.07-.46-.16-.77-.4-1.12-.57-.82-1.44-1.59-2.14-2.3l-3.44-.49-.4.96,3.56.59c.9.73,1.55,2.27,2.81,2.37ZM54.29,38.56l-.69-1.02-8.63-2.83c1.29,3.39,5.06,5,8.45,5.38l.88-1.53ZM53.16,71.01c.46.35,1.32.52,1.09-.31-.08-.3-1.3-1.92-1.56-2.14-.58-.48-2.73-.48-3.49-.98l-.66,1.12c.82.16,2.71.28,3.38.68.31.18.72,1.24,1.24,1.63ZM51.18,61.29c.15-.52.58-1.84.58-2.3,0-.56-2.23-3.1-2.74-3.59-1.19-1.17-4.02-3.27-5.59-3.74-.16-.05-.11.03-.12.13-.16,1.23.65,3.68-1.38,3.76-2.52.1-1.85-3.4-1.59-4.93-2.4-.47-4.83-.49-7.24,0,.02,1.21.5,2.53.11,3.72-.34,1.04-1.48,1.47-2.46,1.01-1.1-.52-.63-2.69-.62-3.68-.12-.12-2.16,1.01-2.44,1.18-1.69,1.02-3.36,2.47-4.63,3.99-.29.35-1.23,1.53-1.35,1.87-.09.24-.05.39-.03.63.46,3.76,5.12,12.33,8.79,13.76,1.72.67,6.51.55,8.51.48,2.23-.07,3.71-.04,5.49-1.48,2.88-2.34,5.63-7.27,6.7-10.8ZM42.98,45.03c2.96-.46,2.45-5.26-.92-4.74-2.89.45-2.41,5.26.92,4.74ZM42.53,54.06c.23-2.25-.51-4.84-.35-7.13.03-.35.15-.74.18-1.09l-.7-.09c.04.95-.16,1.88-.26,2.83-.01.12.09.26.06.41-.14,1.24-.92,4.16-.45,5.19.32.71,1.43.82,1.53-.13ZM32.49,53.89c.17-1.42-.33-3.78-.49-5.27-.11-.95-.24-1.9-.3-2.86l-.69.09c.07.21.14.44.16.67.26,2.38-.46,4.88-.34,7.21.04.77.13,1.13.99.97.37-.06.63-.43.68-.8ZM31.29,45.03c2.96-.43,2.47-5.27-.91-4.74-2.89.45-2.39,5.21.91,4.74ZM28.48,34.71l-8.57,2.8c-.21.11-.8.92-.75,1.13.28.24.73,1.42.99,1.46.32.05,1.83-.36,2.22-.48,2.67-.79,5.01-2.27,6.11-4.91ZM25.69,28.06c.05-.07.12-.09.09-.22-4.94-1.79-10.29,2.2-11.86,6.78,1.89.47,3.47,1.72,4.67,3.21,1.79-2.82,3.61-5.62,5.71-8.21.39-.48,1.08-1.11,1.39-1.56ZM24.81,68.7c.12-.11-.52-1.09-.65-1.1-.95.45-2.27.45-3.19.8-.38.14-1.98,2.22-1.9,2.6.62.76,1.4-.15,1.8-.7.17-.23.3-.61.45-.77.42-.45,2.79-.71,3.49-.82ZM22.81,65.23l-.35-1.04-3.48.57c-.38.35-2.96,3.02-2.53,3.43,1.28-.08,1.95-1.52,2.77-2.33l3.6-.62ZM21.72,57.05l1.05-1.3-5.46-5.43c-.14-.07-.85.4-1.08.48-.26.09-.56.16-.83.17l6.32,6.08ZM21.5,61.75l-.35-1.3-3.7.88c-.84.77-1.86,1.5-2.63,2.33-.19.21-1.1,1.31-.91,1.56.36.16.58-.04.87-.22.96-.62,2.48-2.64,3.39-2.88,1-.26,2.29-.32,3.33-.37ZM19.36,40.81c.04-.54-1.34-2.42-1.74-2.88-1.09-1.23-2.39-2.05-3.93-2.61-1.38,3.35-2.12,7.16-1.42,10.76,1.16.45,2.79,1.39,3.98.58.89-.6,2.3-3.48,2.69-4.53.12-.31.39-1.03.42-1.31ZM14.93,50.17c.5.08,1.87-.26,1.86-.89-.02-.55-.75-.95-.98-1.41-1.13.06-2.15-.42-3.21-.72.15.92,1.42,2.88,2.33,3.02Z"/>
          <path class="j" d="M48.6,57.41c.62-.16,1.03,1.6.99,2.03-.05.56-.73.67-.86.06-.05-.21.01-.44-.04-.65-.12-.53-.69-1.1-.09-1.44Z"/>
          <path class="j" d="M48.52,61.16c1.06-.32.21,1.53.07,1.89-1.53,3.91-3.72,7.99-8.16,8.91-.45.1-1.68.5-1.58-.26.06-.45,1.53-.55,1.96-.67,3.66-1,5.38-4.52,6.78-7.76.25-.56.45-1.43.7-1.91.05-.1.1-.19.22-.22Z"/>
          <path class="j" d="M45.92,20.57c.23.16.36.34.17.6l-5.21,4.28c.02.93,1.9,6.08,1.69,6.55-.03.07-.2.23-.28.25l-.35-.05-5.21-3.66-5.29,3.68c-.26.12-.62-.03-.61-.35l1.71-6.39-5.13-4.14-.03-.02c-.21-.23-.2-.66.13-.75l6.54-.05,2.19-6.56c.1-.31.46-.53.75-.3l2.31,6.87,6.62.05ZM40.01,25.19l4.61-3.89h-5.71l-.29-.41-1.9-5.67-2.18,6.08h-5.8l4.67,3.91-1.49,5.65c1.28-.9,2.61-1.74,3.88-2.66.33-.24.37-.55.83-.57.62-.03.69.36,1.1.65,1.21.89,2.5,1.7,3.74,2.57l-1.46-5.67Z"/>
          <path class="j" d="M44.42,53.42c.29.29.04,1.58-.11,1.98-1.13,2.92-5.45,1.95-5.46-.91,0-.43.29-1.3.77-.81.3.3-.21,1.34.63,2.11,1.41,1.29,3.2.41,3.48-1.41.04-.26-.06-.72.05-.9.11-.18.49-.22.64-.07Z"/>
          <path class="j" d="M32.54,71.04c.34.09,2.69.28,1.93,1.03-.23.22-1.47-.1-1.83-.18-2.69-.65-3.99-1.9-5.43-4.15-.82-1.28-2.68-4.67-2.89-6.08-.05-.36.12-.62.52-.51.28.09.75,1.67.92,2.04,1.38,3.17,3.16,6.89,6.78,7.85Z"/>
          <path d="M34.49,53.97c.58,3.08-4.05,4.58-5.36,1.52-.2-.46-.65-2.05.1-2.16.61-.09.42,1.05.48,1.41.12.73.85,1.52,1.6,1.62,1.03.14,2.25-.53,2.38-1.61.04-.29-.05-.68.03-.93.12-.4.69-.24.76.16Z"/>
          <path class="j" d="M24.96,57.51c.28.4-.11.78-.21,1.18-.09.35-.04,1.13-.35,1.22-.85.25-.52-1.14-.38-1.6.13-.43.38-1.16.94-.8Z"/>
        </g>
        <g>
          <g>
            <path d="M26.79,27.52c.39.47-.6,1.12-.89,1.45-2.02,2.33-3.82,4.87-5.45,7.48l8.6-2.79c.88.02-.04,1.87-.26,2.27-1.69,3.04-5.19,4.48-8.5,4.96-.02.08,0,.2-.03.27-.86,1.72-1.45,3.56-2.61,5.14-.32.44-.68.83-1.03,1.23.24.41.63.64.84,1.08.17.36.16.76.39,1.09.39.57,1.74,1.75,2.31,2.31,1.06,1.02,2.23,1.95,3.24,3.04l.13-.04c.81-.91,1.83-1.77,2.85-2.46.71-.49,1.73-1.13,2.5-1.51.29-.14.98-.22,1.15-.51s.37-1.65.4-2.04c.03-.43.02-2.51-.28-2.72-3.05-.65-3.38-4.99-.45-6.09,3.7-1.39,6.17,3.64,2.87,5.73l-.05.13c.18,1.41.19,2.85.62,4.21,2.35-.49,4.79-.43,7.16-.04.32-.18.62-3.61.6-4.17-.21-.34-.58-.53-.86-.89-2.15-2.74.98-6.39,4-4.86,2.33,1.18,2.33,4.45.06,5.71-.23.12-.62.19-.75.29-.62.46-.26,3.99.1,4.76.07.12.47.27.62.34,1.97.8,3.97,2.21,5.53,3.66.13.12.31.58.55.45.69-.67,1.35-1.38,2.05-2.05.75-.71,1.64-1.44,2.36-2.17.19-.19,1.1-1.13,1.18-1.26.15-.26.11-.69.33-1.07.18-.32.56-.66.8-.94v-.13c-.82-.51-1.45-1.61-1.93-2.46-.73-1.3-1.2-2.7-1.84-4.04-3.31-.54-6.77-1.95-8.46-5-.27-.49-1.26-2.42-.07-2.2l8.37,2.75c.02-.16-.1-.27-.17-.39-1.21-2.08-3.01-4.39-4.54-6.26-.23-.28-1.6-1.73-1.64-1.85-.2-.66,1.33-1.09,1.82-1.2,4.88-1.07,9.77,2.63,11.64,6.91,1.78,4.06,3.28,10.62,1.2,14.75-1.28,2.55-5.48,5.83-7.65,7.94-.2.19-1.35,1.29-1.34,1.42l.58.99-.33.9,3.83.92c.7.34,3.49,3.06,3.8,3.77.44.99-.04,1.93-1.18,1.7-1.08-.22-2.79-2.46-3.77-3.11-1.15-.21-2.32-.42-3.5-.42l-.32.96,3.27.44c.47.14,2.65,2.64,2.91,3.18.64,1.32.04,2.39-1.44,1.7-1.06-.5-1.63-1.53-2.43-2.27l-3.48-.6-.57.9c.88.55,2.92.45,3.62,1.08.38.34,1.69,2.08,1.81,2.54.23.89-.15,1.62-1.12,1.64-1.22.03-1.89-1.18-2.51-2.03l-3.34-.67c-.15.01-1.06,1.28-1.27,1.52-1.78,2.06-3.31,3.25-6.14,3.44-2.24.15-5.88.17-8.11-.01-.48-.04-1.3-.19-1.78-.31-2.26-.57-3.95-2.95-5.4-4.62l-3.34.64c-.58.72-1.04,1.73-2.03,1.98-1.13.28-2.02-.43-1.62-1.62.17-.52,1.72-2.57,2.2-2.76.65-.27,2.64-.39,3.1-.73.22-.16-.37-.72-.36-.99l-3.65.65c-.73.8-2.02,2.62-3.25,2.46-.27-.04-.62-.24-.72-.51-.5-1.48,2.02-3.57,2.92-4.56l3.4-.52c.13-.1.05-.11.02-.2-.04-.16-.22-.67-.34-.71-.49-.04-.98.03-1.47.08-.81.09-1.77.15-2.4.65-.9.71-2.56,2.87-3.71,2.83-.72-.02-1.08-.59-1-1.26.16-1.29,3.11-3.58,4.18-4.36l3.67-.82-.35-.91.6-1.04-7.71-7.36c-3.83-4.4-2.28-11.79-.14-16.67,1.9-4.35,6.97-8.16,11.9-6.87.37.1,1.3.42,1.52.7ZM25.77,27.85c-4.94-1.79-10.29,2.2-11.86,6.78,1.89.47,3.47,1.72,4.67,3.22,1.79-2.82,3.61-5.62,5.72-8.21.39-.48,1.08-1.11,1.39-1.57.05-.07.12-.09.09-.22ZM59.45,34.62c-1.48-4.61-6.94-8.56-11.86-6.78,2.71,3.09,5.1,6.46,7.2,9.99,1.23-1.47,2.77-2.72,4.67-3.22ZM28.48,34.71l-8.57,2.8c-.2.11-.79.92-.75,1.13.28.24.73,1.42.99,1.46.31.05,1.82-.36,2.22-.48,2.66-.79,5.01-2.27,6.11-4.91ZM53.41,40.09l.87-1.52-.69-1.02-8.63-2.83c1.29,3.39,5.06,5,8.45,5.38ZM12.27,46.08c1.17.45,2.79,1.4,3.98.58.89-.6,2.3-3.48,2.69-4.54.11-.31.39-1.03.41-1.32.05-.54-1.34-2.42-1.74-2.88-1.09-1.23-2.38-2.05-3.93-2.6-1.38,3.34-2.12,7.16-1.42,10.75ZM59.8,35.32c-2.29.68-4.19,2.4-5.34,4.46-.22.39-.46.75-.38,1.19.22,1.22,2,4.79,2.92,5.61,1.06.94,3.09-.01,4.15-.57.67-3.61-.15-7.29-1.35-10.69ZM30.37,40.3c-2.89.45-2.39,5.21.92,4.74,2.96-.43,2.47-5.27-.92-4.74ZM42.06,40.3c-2.89.45-2.41,5.26.92,4.74,2.97-.46,2.45-5.27-.92-4.74ZM31.7,45.75l-.7.09c.07.21.14.44.16.66.25,2.38-.46,4.88-.34,7.21.04.77.13,1.13.99.98.38-.07.63-.43.68-.8.17-1.42-.32-3.78-.49-5.27-.11-.95-.24-1.9-.3-2.86ZM42.35,45.84l-.7-.09c.04.95-.16,1.89-.26,2.83-.01.12.08.26.06.41-.14,1.24-.93,4.15-.46,5.2.32.71,1.43.82,1.53-.13.23-2.25-.5-4.84-.35-7.13.02-.34.15-.74.17-1.09ZM60.84,47.06c-.76.35-1.57.64-2.41.77-.26.04-.58-.05-.82.06-.2.09-1,1.1-1.03,1.32-.09.61,1.14.98,1.6.99,1.2.02,2.42-2.09,2.66-3.14ZM15.81,47.86c-1.13.06-2.15-.41-3.21-.71.15.91,1.41,2.88,2.33,3.02.5.08,1.88-.26,1.86-.89-.02-.55-.75-.95-.98-1.41ZM15.39,50.97l6.32,6.08,1.05-1.3-5.46-5.44c-.14-.07-.85.4-1.08.49-.26.09-.55.16-.83.17ZM40.34,50.62c-2.4-.47-4.84-.5-7.24,0,.01,1.21.5,2.53.11,3.72-.34,1.04-1.48,1.47-2.46,1.01-1.1-.52-.63-2.69-.62-3.69-.12-.12-2.16,1.01-2.43,1.18-1.69,1.02-3.37,2.47-4.63,3.99-.29.35-1.23,1.53-1.35,1.87-.08.24-.05.39-.02.63.46,3.76,5.12,12.33,8.79,13.76,1.72.67,6.51.55,8.51.48,2.23-.08,3.71-.04,5.49-1.48,2.88-2.34,5.63-7.27,6.7-10.8.16-.52.58-1.84.58-2.3,0-.56-2.24-3.1-2.74-3.6-1.19-1.17-4.02-3.27-5.59-3.73-.16-.05-.11.02-.13.13-.16,1.23.65,3.69-1.38,3.76-2.52.09-1.86-3.4-1.59-4.93ZM58.05,50.97c-.65-.06-1.3-.28-1.81-.68l-.19.03-5.5,5.39,1.18,1.35,6.32-6.08ZM21.15,60.44l-3.7.88c-.84.77-1.86,1.5-2.63,2.34-.2.21-1.1,1.31-.91,1.56.35.16.58-.04.86-.22.96-.62,2.48-2.64,3.39-2.88,1-.26,2.29-.32,3.33-.37l-.35-1.3ZM51.94,61.75c1.23.02,2.46.2,3.66.48.97.81,1.9,1.93,2.89,2.68.17.13.82.61.94.25.06-.4-.31-.86-.56-1.16-.82-1-2.04-1.88-3.02-2.73l-3.52-.82-.4,1.29ZM22.81,65.23l-.35-1.04-3.48.57c-.39.35-2.96,3.02-2.53,3.43,1.28-.08,1.95-1.52,2.77-2.33l3.6-.63ZM56.92,68.18c.07-.46-.16-.77-.4-1.12-.57-.83-1.44-1.59-2.13-2.31l-3.44-.49-.39.96,3.55.59c.9.73,1.56,2.27,2.81,2.37ZM24.81,68.7c.12-.11-.53-1.09-.65-1.1-.94.45-2.27.45-3.19.8-.38.14-1.97,2.22-1.9,2.6.62.76,1.4-.15,1.8-.7.17-.23.3-.61.45-.77.42-.45,2.79-.7,3.49-.82ZM52.7,68.56c-.57-.48-2.73-.48-3.49-.98l-.66,1.12c.82.17,2.71.28,3.38.68.31.18.71,1.24,1.24,1.63.47.34,1.32.51,1.1-.31-.08-.3-1.3-1.92-1.56-2.14Z"/>
            <path d="M36.56,74.61c-1.43,0-2.89-.04-4.02-.13-.5-.04-1.33-.2-1.8-.32-1.97-.5-3.48-2.3-4.81-3.89-.21-.25-.41-.49-.61-.72l-3.21.62c-.12.16-.24.32-.36.49-.44.64-.9,1.29-1.71,1.49-.63.16-1.22.03-1.57-.35-.33-.35-.41-.87-.22-1.44.18-.54,1.74-2.62,2.27-2.85.3-.12.84-.21,1.41-.31.67-.11,1.43-.24,1.67-.41,0-.05-.12-.25-.19-.36-.08-.13-.16-.25-.2-.37l-3.48.62c-.1.12-.22.25-.34.39-.8.94-1.89,2.22-3,2.07-.32-.04-.71-.27-.83-.6-.44-1.29,1.24-2.97,2.35-4.07.23-.23.44-.44.6-.61l.03-.03,3.38-.52s-.01-.03-.02-.04c-.05-.18-.19-.53-.26-.61-.41-.03-.84.02-1.25.06l-.35.04c-.75.08-1.59.16-2.15.6-.25.2-.58.53-.93.88-.88.88-1.96,1.98-2.83,1.98,0,0-.02,0-.03,0-.35-.01-.65-.14-.85-.38-.23-.26-.32-.63-.27-1.03.16-1.33,3.01-3.55,4.23-4.45l.05-.02,3.52-.79-.32-.82.58-1-7.64-7.28c-3.7-4.25-2.51-11.47-.17-16.81,1.91-4.36,7.06-8.25,12.05-6.95.27.07,1.31.4,1.59.74.38.46-.22,1-.62,1.36-.11.1-.21.19-.27.26-1.81,2.08-3.52,4.43-5.24,7.15l8.27-2.68h.02c.24,0,.36.13.42.23.33.57-.48,2.07-.57,2.24-1.96,3.53-6.12,4.65-8.49,5.01,0,0,0,0,0,0,0,.07,0,.14-.03.21-.28.55-.53,1.13-.78,1.69-.52,1.17-1.05,2.39-1.85,3.47-.26.36-.56.69-.84,1.01l-.14.16c.09.14.2.25.32.38.17.18.35.37.47.64.08.17.12.33.16.5.05.21.1.4.22.58.29.42,1.15,1.22,1.78,1.8.2.19.38.35.52.48.41.39.84.78,1.26,1.15.65.58,1.32,1.18,1.93,1.83h.01c.78-.86,1.78-1.73,2.85-2.46.7-.48,1.73-1.13,2.51-1.52.11-.05.26-.1.41-.14.26-.07.59-.17.68-.32.14-.25.36-1.57.38-1.98.04-.62-.01-2.36-.21-2.59-1.43-.32-2.42-1.48-2.54-2.98-.12-1.52.71-2.83,2.1-3.36,1.99-.75,3.55.27,4.22,1.61.65,1.3.55,3.2-1.2,4.33l-.02.06c.05.39.09.78.12,1.18.09.95.18,1.94.45,2.87,2.14-.43,4.5-.44,7.02-.03.23-.37.53-3.22.52-3.99-.1-.16-.25-.28-.4-.41-.15-.13-.3-.26-.43-.43-1.22-1.56-.74-3.23.05-4.18.86-1.04,2.47-1.71,4.12-.87,1.12.57,1.81,1.66,1.83,2.91.02,1.26-.66,2.43-1.77,3.04-.12.07-.28.11-.42.16-.12.04-.26.08-.31.12-.51.38-.25,3.75.14,4.6.02.02.13.1.52.26,1.84.74,3.87,2.09,5.6,3.7.05.04.09.11.14.18.07.11.19.27.25.25.32-.31.63-.62.93-.94.35-.36.72-.74,1.09-1.09.32-.3.67-.61,1.01-.91.46-.41.94-.83,1.35-1.25.45-.45,1.1-1.13,1.16-1.23.06-.1.08-.24.11-.4.04-.21.08-.44.21-.67.14-.24.38-.5.59-.72.07-.07.13-.14.19-.21h0c-.84-.57-1.49-1.71-1.92-2.47-.45-.8-.8-1.64-1.15-2.46-.21-.5-.43-1.02-.66-1.52-2.87-.48-6.65-1.74-8.48-5.06-.28-.51-.9-1.75-.56-2.22.12-.17.33-.23.63-.17l8.14,2.67s0,0,0,0c-.03-.03-.05-.07-.07-.11-1.29-2.21-3.2-4.62-4.53-6.24-.08-.1-.34-.38-.61-.68-.84-.91-1.03-1.13-1.05-1.22-.05-.15-.03-.3.06-.44.33-.56,1.6-.87,1.86-.92,4.99-1.1,9.91,2.69,11.8,6.99,2.01,4.59,3.16,10.97,1.19,14.86-.97,1.93-3.61,4.29-5.73,6.19-.72.65-1.4,1.26-1.95,1.79l-.06.05c-.9.87-1.16,1.17-1.23,1.26l.58.98-.3.82,3.68.89c.73.35,3.56,3.09,3.89,3.85.25.57.22,1.15-.08,1.53-.27.34-.72.47-1.26.36-.71-.14-1.61-1.04-2.48-1.92-.49-.49-.95-.96-1.31-1.2-1.13-.21-2.24-.4-3.35-.41l-.24.72,3.11.42c.56.16,2.77,2.75,3.02,3.26.37.75.36,1.46-.02,1.84-.2.2-.67.47-1.6.04-.73-.34-1.23-.93-1.72-1.49-.24-.28-.46-.54-.71-.78l-3.35-.57-.45.71c.4.2,1,.3,1.58.4.79.14,1.54.27,1.94.63.39.35,1.72,2.1,1.85,2.61.14.52.07.99-.18,1.33-.23.3-.6.47-1.07.48-.02,0-.03,0-.05,0-1.12,0-1.8-.98-2.35-1.77-.07-.1-.13-.19-.2-.28l-3.25-.65c-.1.08-.58.7-.84,1.04-.15.19-.27.36-.33.43-1.83,2.11-3.36,3.29-6.24,3.49-1.07.07-2.58.12-4.1.12ZM25.41,69.27l.05.06c.21.25.43.51.66.78,1.31,1.56,2.79,3.32,4.67,3.8.47.12,1.28.27,1.76.31,2.33.19,6.01.15,8.09.01,2.78-.19,4.27-1.34,6.05-3.39.06-.07.18-.23.32-.42.75-.99.9-1.14,1.03-1.15h.02s3.41.68,3.41.68l.03.04c.08.1.15.22.23.33.54.77,1.15,1.65,2.13,1.65.01,0,.03,0,.04,0,.38,0,.68-.14.86-.38.2-.27.25-.66.13-1.1-.11-.42-1.4-2.14-1.77-2.48-.35-.31-1.09-.44-1.81-.56-.67-.12-1.36-.23-1.79-.51l-.11-.07.69-1.09,3.61.62.03.03c.27.25.52.54.76.82.47.55.95,1.11,1.63,1.43.57.27,1.04.27,1.29.02.29-.29.28-.9-.03-1.53-.27-.56-2.44-3-2.83-3.11l-3.4-.46.4-1.2h.1c1.17,0,2.33.2,3.52.42l.05.02c.38.26.86.74,1.37,1.25.8.8,1.71,1.72,2.35,1.84.44.09.79,0,1-.26.24-.3.25-.78.04-1.25-.32-.71-3.09-3.39-3.74-3.71l-3.95-.95.36-.98-.57-.99c0-.09-.02-.18,1.32-1.48l.06-.05c.55-.53,1.23-1.15,1.96-1.79,2.1-1.88,4.72-4.23,5.67-6.11,1.93-3.82.79-10.1-1.2-14.64-1.84-4.2-6.64-7.91-11.49-6.84-.52.11-1.45.41-1.68.8-.05.08-.06.15-.03.23.05.08.62.7.99,1.11.29.31.53.58.62.69,1.33,1.63,3.26,4.05,4.55,6.27.02.03.04.06.06.08.07.1.16.22.13.39l-.02.16-8.52-2.8c-.17-.03-.29,0-.34.07-.2.27.15,1.17.57,1.94,1.8,3.25,5.54,4.48,8.36,4.94h.07s.03.07.03.07c.25.52.48,1.07.7,1.59.34.81.69,1.65,1.13,2.44.43.76,1.08,1.91,1.89,2.42l.06.04v.25s-.03.04-.03.04c-.07.08-.15.16-.23.25-.2.21-.43.45-.55.67-.11.19-.14.39-.18.59-.03.18-.06.34-.14.48-.09.15-1.02,1.1-1.2,1.28-.42.43-.9.85-1.37,1.27-.34.3-.68.61-1,.91-.37.35-.74.73-1.09,1.09-.32.32-.63.65-.96.96l-.03.02c-.28.14-.48-.16-.6-.34-.04-.06-.08-.11-.1-.14-1.71-1.59-3.71-2.92-5.49-3.64-.38-.15-.61-.26-.69-.39-.34-.74-.8-4.39-.06-4.94.09-.07.23-.11.39-.16.14-.04.28-.09.37-.14,1.04-.58,1.65-1.62,1.63-2.8-.02-1.15-.65-2.15-1.68-2.67-1.52-.77-3-.15-3.79.81-.73.88-1.17,2.41-.05,3.85.12.15.26.27.4.39.17.15.34.3.47.5l.02.03v.04c0,.29-.23,4.05-.67,4.29l-.04.02h-.05c-2.56-.43-4.95-.42-7.11.03l-.12.02-.04-.12c-.31-.99-.4-2.03-.5-3.04-.04-.4-.07-.8-.12-1.2v-.03s.07-.2.07-.2l.04-.02c1.65-1.04,1.76-2.77,1.14-4.01-.62-1.23-2.06-2.17-3.89-1.48-1.28.48-2.04,1.69-1.93,3.09.11,1.39,1.03,2.47,2.36,2.75l.05.02c.43.3.34,2.82.34,2.84-.03.37-.23,1.77-.42,2.09-.14.24-.51.35-.84.44-.14.04-.28.08-.37.12-.77.38-1.79,1.03-2.48,1.5-1.06.73-2.06,1.59-2.83,2.44l-.03.03-.24.07-.06-.06c-.61-.66-1.3-1.28-1.97-1.87-.42-.38-.85-.76-1.26-1.16-.14-.13-.31-.3-.51-.48-.67-.62-1.51-1.4-1.81-1.85-.15-.21-.2-.44-.26-.66-.04-.16-.08-.31-.14-.45-.1-.22-.26-.39-.43-.57-.14-.15-.29-.31-.4-.51l-.05-.08.27-.3c.29-.33.57-.64.82-.99.78-1.06,1.31-2.26,1.82-3.42.25-.56.5-1.14.78-1.7,0-.01,0-.06,0-.08,0-.05,0-.11.01-.16l.02-.08h.09c2.31-.35,6.47-1.43,8.4-4.91.35-.63.76-1.66.57-1.98-.02-.04-.06-.09-.17-.09l-8.92,2.89.19-.31c1.79-2.87,3.58-5.32,5.46-7.49.07-.08.17-.18.29-.28.43-.39.8-.75.59-1h0c-.19-.23-1.03-.54-1.45-.65-4.86-1.27-9.88,2.54-11.74,6.8-2.31,5.27-3.48,12.38.12,16.53l7.78,7.42-.62,1.07.38.99-3.79.85c-.95.7-3.95,3-4.1,4.25-.04.33.04.62.21.82.15.18.38.28.66.29,0,0,.02,0,.02,0,.75,0,1.8-1.05,2.64-1.9.35-.36.69-.7.96-.91.62-.49,1.51-.58,2.29-.66l.34-.04c.44-.05.89-.1,1.33-.06.26.08.46.8.46.8.11.18.01.28-.07.34l-.06.02-3.36.51c-.16.17-.36.37-.58.59-1.06,1.06-2.67,2.66-2.28,3.8.07.21.37.39.61.42.97.13,2.05-1.14,2.76-1.98.14-.16.26-.31.38-.43l.03-.03h.05s3.82-.69,3.82-.69v.17c-.01.07.09.25.17.37.16.26.34.55.12.72-.28.21-1.01.33-1.78.46-.53.09-1.08.18-1.35.29-.42.17-1.95,2.17-2.12,2.68-.16.48-.1.89.16,1.17.28.3.77.4,1.3.27.71-.18,1.14-.79,1.56-1.39.13-.18.26-.37.4-.54l.03-.04,3.46-.67ZM36.08,73.76c-2.82,0-4.71-.18-5.64-.55-3.66-1.42-8.41-10.04-8.87-13.86v-.05c-.03-.22-.05-.39.03-.64.15-.43,1.36-1.9,1.37-1.91,1.27-1.53,2.97-3,4.66-4.02.02-.01,2.36-1.41,2.6-1.16l.04.04v.05c0,.21-.02.46-.05.73-.09,1.04-.2,2.46.59,2.83.45.21.96.23,1.4.04.42-.18.73-.52.87-.97.24-.74.13-1.56.01-2.36-.06-.43-.13-.88-.13-1.32v-.11s.11-.02.11-.02c2.34-.49,4.8-.49,7.29,0l.13.02-.04.24c-.2,1.15-.57,3.28.24,4.21.29.33.69.47,1.23.45.41-.02.7-.13.91-.35.43-.47.38-1.37.34-2.17-.02-.41-.04-.8,0-1.12,0-.02,0-.03,0-.05,0-.05,0-.12.07-.18.08-.06.18-.03.23-.01,1.58.47,4.4,2.54,5.64,3.77.34.33,2.78,3.02,2.78,3.69,0,.42-.33,1.48-.52,2.11l-.07.23c-1.05,3.46-3.77,8.45-6.74,10.86-1.72,1.39-3.18,1.44-5.2,1.5h-.37c-1.06.05-2.04.07-2.92.07ZM30,51.81c-.44.15-1.86.93-2.23,1.15-1.67,1.01-3.34,2.45-4.59,3.96-.39.47-1.23,1.54-1.33,1.83-.07.19-.05.31-.03.52v.05c.47,3.77,5.12,12.25,8.71,13.65.82.32,2.95.66,8.46.47h.37c2.04-.08,3.39-.12,5.04-1.45,2.94-2.38,5.62-7.31,6.66-10.73l.07-.23c.18-.57.51-1.65.51-2.03,0-.46-2.06-2.87-2.7-3.5-1.19-1.16-3.96-3.21-5.49-3.69,0,0,0,0,0,0-.04.3-.02.67,0,1.07.05.85.1,1.81-.41,2.36-.25.27-.62.42-1.1.44-.62.02-1.1-.16-1.44-.54-.89-1.02-.52-3.22-.31-4.41-2.38-.45-4.71-.44-6.95,0,.01.38.07.77.12,1.17.12.82.24,1.68-.02,2.48-.17.52-.53.92-1.02,1.13-.51.22-1.1.2-1.62-.05-.96-.45-.83-1.98-.74-3.09.02-.2.03-.4.04-.56ZM53.92,71.43c-.27,0-.6-.13-.84-.31-.31-.23-.57-.65-.8-1.03-.16-.26-.32-.53-.43-.59-.44-.26-1.5-.4-2.36-.51-.38-.05-.73-.1-.98-.15l-.18-.04.83-1.41.12.08c.35.23,1.06.35,1.74.47.74.13,1.45.25,1.77.52h0c.27.23,1.51,1.86,1.6,2.21.11.4-.02.59-.15.68-.09.06-.2.09-.32.09ZM48.75,68.61c.22.04.49.07.78.11.92.12,1.97.26,2.46.55.17.1.33.36.52.69.22.35.46.76.73.95.29.22.7.32.85.22.1-.07.08-.25.04-.39-.07-.27-1.26-1.86-1.52-2.07h0c-.26-.22-.96-.34-1.64-.46-.64-.11-1.31-.23-1.72-.44l-.5.85ZM19.6,71.42c-.24,0-.45-.11-.63-.34l-.03-.06c-.1-.49,1.61-2.61,1.98-2.75.43-.16.92-.25,1.44-.34.61-.11,1.24-.22,1.74-.45l.03-.02h.04c.22.03.68.83.76,1.05.02.05.06.19-.03.28l-.03.03h-.04c-.13.03-.31.05-.52.08-.84.12-2.58.37-2.9.71-.07.07-.14.22-.22.36-.07.14-.14.28-.22.39-.51.69-.95,1.04-1.36,1.05,0,0-.01,0-.02,0ZM19.2,70.94c.13.14.25.22.41.21.32,0,.7-.32,1.15-.94.07-.1.14-.23.2-.36.08-.17.16-.32.26-.43.35-.37,1.7-.59,3.05-.79.15-.02.29-.04.4-.06-.07-.21-.39-.7-.53-.84-.52.23-1.14.34-1.74.44-.51.09-.99.17-1.39.33-.35.13-1.78,2.05-1.82,2.42ZM57.03,68.32h-.12c-.89-.08-1.48-.8-2.05-1.5-.27-.33-.53-.65-.81-.89l-3.68-.61.5-1.21,3.59.51.03.03c.18.18.37.37.56.56.57.56,1.16,1.14,1.59,1.76l.04.05c.24.35.46.67.38,1.16l-.02.12ZM50.74,65.12l3.42.57.03.02c.31.26.6.61.88.95.5.62,1.02,1.26,1.73,1.38,0-.32-.15-.55-.35-.84l-.04-.06c-.41-.6-.99-1.17-1.55-1.72-.18-.18-.36-.36-.53-.53l-3.29-.47-.29.71ZM16.39,68.32l-.04-.04s-.09-.11-.09-.23c.02-.79,2.41-3.2,2.63-3.39l.03-.03h.04s3.59-.59,3.59-.59l.44,1.3-3.71.65c-.21.21-.41.46-.62.73-.57.73-1.22,1.55-2.21,1.61h-.06ZM19.03,64.88c-.55.5-2.48,2.59-2.51,3.16.81-.1,1.37-.81,1.92-1.5.22-.29.44-.56.67-.78l.03-.03,3.49-.61-.27-.79-3.33.54ZM59.25,65.43c-.13,0-.38-.06-.84-.41-.55-.42-1.09-.95-1.6-1.47-.41-.41-.84-.84-1.27-1.2-1.26-.3-2.47-.46-3.6-.47h-.18s.49-1.58.49-1.58l3.7.88c.28.25.59.5.89.75.76.63,1.55,1.28,2.14,2,.25.3.66.8.58,1.27-.05.15-.14.21-.21.23-.02,0-.06.02-.11.02ZM52.12,61.62c1.1.03,2.28.19,3.51.48l.05.03c.44.37.88.81,1.31,1.23.51.51,1.04,1.04,1.58,1.44.52.4.69.36.71.35,0,0,.02,0,.03-.03.05-.33-.31-.77-.53-1.04-.57-.7-1.35-1.34-2.1-1.96-.3-.25-.6-.49-.87-.74l-3.37-.78-.31,1.01ZM14.16,65.41c-.09,0-.2-.02-.31-.07h-.03s-.02-.04-.02-.04c-.3-.4.91-1.72.92-1.73.5-.54,1.09-1.03,1.67-1.51.33-.27.66-.55.97-.83l.03-.02,3.86-.92.43,1.59h-.27c-1,.06-2.25.13-3.21.38-.5.13-1.23.87-1.93,1.58-.52.52-1.01,1.02-1.42,1.29l-.08.06c-.18.12-.37.25-.6.25ZM14.02,65.12c.21.07.36-.01.6-.18l.09-.06c.39-.25.87-.74,1.38-1.25.73-.74,1.48-1.5,2.05-1.65.96-.25,2.19-.32,3.2-.37l-.27-1.02-3.54.84c-.3.27-.63.55-.95.81-.57.48-1.16.97-1.64,1.49-.37.4-.91,1.16-.91,1.37ZM21.73,57.25l-6.65-6.4h.31c.25-.02.52-.08.79-.18.08-.03.23-.11.37-.19.47-.26.68-.36.82-.29l.03.02,5.54,5.52-1.22,1.51ZM15.69,51.07l6.01,5.78.88-1.1-5.35-5.32c-.08.02-.39.19-.56.28-.17.09-.32.17-.41.21-.19.07-.39.12-.58.15ZM51.72,57.25l-1.35-1.55,5.62-5.51.3-.04.04.04c.47.37,1.07.6,1.74.66l.29.02-6.64,6.38ZM50.73,55.71l1,1.15,6.02-5.79c-.59-.09-1.12-.31-1.55-.64h-.1s-5.38,5.29-5.38,5.29ZM41.84,54.88c-.39,0-.79-.26-.96-.64-.36-.8-.03-2.57.23-4,.09-.51.18-.94.21-1.27,0-.06-.01-.12-.03-.18-.02-.07-.04-.15-.03-.23.03-.27.07-.54.1-.81.09-.65.18-1.33.16-1.99v-.16s.97.12.97.12v.13c-.02.18-.06.37-.1.56-.04.19-.07.36-.08.53-.07,1.08.06,2.26.19,3.4.14,1.25.29,2.54.16,3.73-.05.44-.3.74-.68.8-.05,0-.09.01-.14.01ZM41.79,45.9c0,.64-.08,1.27-.16,1.88-.04.27-.07.54-.1.8,0,.03.01.08.03.13.02.08.05.18.04.29-.04.33-.12.78-.22,1.29-.24,1.31-.58,3.11-.25,3.84.16.36.54.52.81.47.26-.04.42-.24.46-.56.12-1.16-.02-2.44-.16-3.67-.13-1.15-.26-2.34-.19-3.45.01-.18.05-.38.09-.56.03-.13.05-.27.07-.4l-.41-.05ZM31.48,54.85c-.2,0-.36-.05-.47-.14-.24-.19-.28-.55-.3-1-.05-1.08.07-2.21.19-3.31.14-1.29.29-2.62.15-3.89-.02-.18-.07-.39-.16-.63l-.06-.16,1-.13v.14c.05.7.13,1.41.22,2.09.03.25.06.51.09.76.05.41.12.88.19,1.39.2,1.35.43,2.87.3,3.92-.06.47-.38.84-.79.92-.14.02-.26.04-.36.04ZM31.19,45.95c.06.2.1.37.12.54.14,1.3,0,2.65-.15,3.95-.12,1.09-.24,2.21-.19,3.27.02.43.06.69.2.8.11.09.32.1.63.05.32-.06.53-.39.57-.69.12-1.01-.1-2.52-.3-3.85-.08-.51-.15-.98-.19-1.4-.03-.25-.06-.5-.09-.76-.08-.64-.16-1.31-.2-1.97l-.39.05ZM58.2,50.33h-.02c-.37,0-1.22-.23-1.57-.65-.13-.15-.18-.32-.16-.49.04-.28.88-1.32,1.11-1.42.17-.08.36-.07.54-.06.11,0,.22,0,.31,0,.74-.12,1.54-.38,2.37-.76l.25-.11-.06.26c-.22.98-1.43,3.24-2.77,3.24ZM57.93,47.96c-.1,0-.19,0-.26.04-.17.08-.92,1.04-.96,1.22-.01.1.02.19.1.28.29.34,1.06.54,1.37.55h.02c.99,0,2.08-1.66,2.44-2.77-.76.33-1.49.55-2.18.67-.12.02-.24.01-.36,0-.05,0-.11,0-.16,0ZM15.1,50.31c-.07,0-.13,0-.19-.01-1.03-.16-2.3-2.25-2.44-3.13l-.03-.21.2.06c.26.07.52.16.77.24.8.26,1.56.52,2.39.47h.09s.04.07.04.07c.08.16.24.33.41.5.28.29.57.58.59.97,0,.19-.08.37-.26.53-.39.34-1.12.52-1.57.52ZM12.78,47.34c.28.95,1.41,2.58,2.17,2.7.35.06,1.16-.11,1.53-.44.12-.1.17-.21.17-.32,0-.28-.26-.54-.51-.79-.15-.16-.31-.32-.42-.49-.85.02-1.64-.23-2.41-.48-.18-.06-.36-.12-.54-.17ZM58.17,47.11c-.52,0-.94-.14-1.26-.43-.95-.84-2.73-4.4-2.97-5.68-.08-.44.13-.8.32-1.15l.07-.13c1.24-2.22,3.21-3.87,5.41-4.52l.12-.04.04.12c1.5,4.23,1.94,7.65,1.36,10.76v.06s-.07.03-.07.03c-1.25.66-2.26.98-3.04.98ZM59.71,35.49c-2.09.66-3.95,2.24-5.13,4.36l-.07.13c-.18.32-.36.63-.29.97.22,1.22,1.98,4.73,2.88,5.53.7.62,2.03.43,3.94-.56.55-3.01.13-6.33-1.32-10.44ZM15.17,47.11c-.79,0-1.63-.36-2.36-.67-.2-.09-.4-.17-.59-.24l-.07-.03v-.07c-.82-4.14.32-8.17,1.41-10.83l.05-.12.12.04c1.63.59,2.93,1.45,3.98,2.64.27.31,1.83,2.33,1.78,2.98-.02.25-.2.74-.38,1.23l-.05.12c-.38,1.06-1.82,3.98-2.74,4.6-.36.25-.76.34-1.17.34ZM12.39,45.98c.17.07.34.14.53.22,1.09.47,2.33.99,3.27.35.83-.57,2.24-3.39,2.64-4.47l.05-.13c.12-.32.34-.92.36-1.16.04-.44-1.19-2.2-1.71-2.78-1-1.12-2.22-1.95-3.75-2.52-1.06,2.61-2.13,6.5-1.37,10.49ZM42.5,45.21c-.77,0-1.43-.3-1.88-.86-.59-.73-.75-1.82-.4-2.72.31-.81.96-1.33,1.83-1.47h0c1.78-.28,2.79.89,2.98,2.09.2,1.26-.43,2.66-2.02,2.91-.17.03-.34.04-.51.04ZM42.06,40.3l.02.13c-.77.12-1.35.58-1.63,1.3-.31.81-.17,1.8.36,2.46.49.6,1.25.86,2.14.72,1.42-.22,1.98-1.48,1.8-2.61-.17-1.11-1.07-2.12-2.68-1.87l-.02-.13ZM30.84,45.2c-1.47,0-2.3-1.07-2.47-2.16-.19-1.24.43-2.63,1.98-2.87h0c1.01-.16,1.88.14,2.44.84.59.73.74,1.82.39,2.71-.32.81-.99,1.33-1.88,1.45-.16.02-.32.03-.47.03ZM30.39,40.43h0c-1.37.22-1.92,1.46-1.75,2.57.17,1.11,1.05,2.13,2.63,1.9.79-.11,1.38-.57,1.67-1.29.32-.8.18-1.79-.35-2.45-.5-.62-1.28-.88-2.19-.74ZM20.2,40.24s-.05,0-.07,0c-.2-.03-.37-.32-.65-.84-.14-.26-.31-.56-.41-.65l-.03-.03v-.04c-.07-.29.58-1.15.8-1.28l8.87-2.9-.11.27c-1,2.39-3.08,4.06-6.19,4.99-.02,0-1.69.49-2.21.49ZM19.29,38.59c.13.14.27.4.42.68.14.25.36.67.46.7.24.03,1.53-.29,2.16-.48,2.91-.86,4.9-2.4,5.9-4.56l-8.29,2.71c-.15.08-.61.75-.65.95ZM53.49,40.23h-.09c-1.59-.19-6.9-1.1-8.56-5.47l-.1-.26,8.94,2.93.76,1.13-.96,1.67ZM45.2,34.93c1.68,3.93,6.53,4.83,8.15,5.02l.79-1.38-.62-.92-8.32-2.73ZM54.76,38.07l-.1-.16c-2.18-3.66-4.6-7.02-7.18-9.98l-.13-.15.18-.07c2.03-.74,4.25-.57,6.42.49,2.62,1.28,4.77,3.72,5.62,6.37l.04.13-.14.04c-1.64.42-3.19,1.49-4.6,3.17l-.12.14ZM47.81,27.91c2.51,2.89,4.86,6.15,6.99,9.71,1.38-1.6,2.88-2.63,4.48-3.08-.86-2.53-2.93-4.86-5.44-6.08-1.43-.7-3.62-1.35-6.02-.55ZM18.59,38.07l-.12-.15c-.92-1.15-2.47-2.64-4.6-3.17l-.14-.03.05-.14c.93-2.71,3.14-5.17,5.77-6.42,2.11-1.01,4.28-1.16,6.27-.44l.07.02.02.07c.04.16-.02.24-.08.3,0,0-.02.02-.03.03-.19.27-.49.59-.79.91-.22.23-.44.46-.61.67-2.12,2.62-3.98,5.49-5.71,8.2l-.1.16ZM14.08,34.53c2.04.55,3.54,1.94,4.48,3.08,1.7-2.67,3.53-5.49,5.63-8.07.17-.21.4-.45.62-.68.29-.31.59-.62.77-.87.01-.02.03-.04.05-.05-1.89-.65-3.95-.49-5.96.47-2.52,1.2-4.65,3.54-5.58,6.13Z"/>
          </g>
          <g>
            <path d="M39.3,20.51l6.62.05c.23.16.35.34.16.59l-5.21,4.29c.02.93,1.9,6.08,1.69,6.55-.03.07-.2.23-.28.25l-.35-.05-5.21-3.65-5.28,3.68c-.26.12-.63-.03-.61-.35l1.71-6.4-5.15-4.16c-.21-.23-.21-.66.13-.75l6.54-.05,2.19-6.56c.1-.32.46-.53.75-.31l2.31,6.87ZM44.62,21.3h-5.71l-.29-.41-1.89-5.68-2.18,6.09h-5.8l4.68,3.91-1.49,5.65c1.28-.9,2.61-1.74,3.87-2.66.33-.24.37-.54.83-.57.62-.03.69.35,1.1.65,1.21.9,2.51,1.7,3.74,2.57l-1.47-5.68,4.61-3.89Z"/>
            <path d="M31.24,32.38c-.12,0-.23-.03-.33-.1-.15-.1-.23-.25-.22-.42l1.69-6.34-5.08-4.11c-.17-.19-.23-.43-.17-.64.05-.17.18-.29.35-.34h.03s6.44-.06,6.44-.06l2.16-6.47c.07-.23.25-.4.46-.47.17-.05.35-.02.5.1l.03.02v.04s2.29,6.78,2.29,6.78l6.57.05.03.02c.12.08.28.21.31.4.02.12-.02.25-.11.38l-5.18,4.27c.04.48.44,1.78.83,3.04.67,2.18.97,3.23.85,3.49-.05.11-.25.29-.37.33h-.03s-.43-.07-.43-.07l-5.14-3.6-5.21,3.62c-.09.04-.18.06-.28.06ZM27.53,20.69c-.08.03-.13.08-.15.15-.03.12,0,.27.1.37l5.2,4.2-1.73,6.48c0,.07.06.13.1.16.09.06.23.07.32.03l5.34-3.72.08.05,5.19,3.64.28.04c.05-.03.16-.13.18-.17.08-.23-.46-2.01-.86-3.31-.43-1.4-.83-2.73-.84-3.18v-.06s5.26-4.33,5.26-4.33c.03-.05.05-.1.04-.15,0-.06-.07-.13-.17-.21l-6.67-.05-2.33-6.91c-.07-.04-.15-.06-.23-.03-.13.04-.24.15-.28.3l-2.22,6.65-6.61.05ZM31.7,31.19l1.56-5.93-4.89-4.09h6.07l2.28-6.36,2.01,6.02.24.34h6.01l-4.82,4.07,1.54,5.94-.3-.21c-.51-.36-1.02-.7-1.54-1.05-.73-.49-1.49-1-2.21-1.53-.13-.1-.23-.21-.32-.3-.19-.21-.33-.35-.69-.33-.25.01-.34.11-.48.27-.08.09-.16.18-.29.27-.7.5-1.42.99-2.13,1.47-.58.39-1.17.79-1.75,1.19l-.3.21ZM36.7,27.51c.45,0,.64.21.83.41.08.09.17.18.28.27.71.53,1.47,1.03,2.2,1.52.42.28.84.56,1.25.84l-1.4-5.41.06-.05,4.33-3.65h-5.42l-.34-.5-1.77-5.31-2.08,5.81h-5.53l4.46,3.73-1.42,5.38c.48-.34.98-.67,1.45-.99.7-.47,1.43-.96,2.12-1.46.1-.07.17-.15.24-.23.15-.17.3-.34.66-.36.02,0,.05,0,.07,0Z"/>
          </g>
          <g>
            <path d="M48.52,61.15c1.06-.32.21,1.53.07,1.9-1.52,3.91-3.71,7.99-8.15,8.91-.45.09-1.68.5-1.58-.26.06-.44,1.53-.55,1.96-.66,3.66-.99,5.38-4.52,6.78-7.76.24-.56.45-1.43.7-1.91.05-.1.1-.19.22-.22Z"/>
            <path d="M39.35,72.29c-.2,0-.37-.04-.49-.15-.12-.11-.16-.26-.14-.46.06-.4.76-.55,1.6-.69.19-.03.35-.06.45-.09,3.53-.96,5.24-4.32,6.7-7.68.1-.24.2-.55.3-.85.13-.39.26-.79.41-1.07.06-.11.12-.24.3-.29h0c.26-.08.45-.05.57.09.29.32.03,1.08-.29,1.86l-.05.12c-1.53,3.92-3.7,8.05-8.25,9-.06.01-.13.03-.2.05-.28.07-.61.15-.9.15ZM48.56,61.28c-.06.02-.08.05-.13.15-.14.26-.27.66-.39,1.03-.1.3-.2.62-.31.87-1.48,3.42-3.23,6.85-6.87,7.83-.11.03-.28.06-.48.09-.44.07-1.35.22-1.38.46-.02.16.03.21.05.22.19.17.82.02,1.15-.06.08-.02.15-.04.21-.05,4.42-.92,6.55-4.98,8.06-8.83l.05-.13c.37-.9.48-1.43.34-1.58-.06-.06-.2-.04-.3,0h0Z"/>
          </g>
          <g>
            <path d="M34.48,72.07c-.23.23-1.47-.09-1.83-.18-2.68-.65-3.99-1.9-5.43-4.15-.82-1.28-2.68-4.67-2.9-6.08-.06-.36.12-.63.51-.51.28.09.75,1.67.92,2.04,1.38,3.17,3.17,6.89,6.78,7.85.35.09,2.69.28,1.93,1.03Z"/>
            <path d="M34.14,72.28c-.31,0-.78-.08-1.46-.25h-.06c-2.8-.69-4.1-2.02-5.51-4.22-.76-1.19-2.68-4.65-2.91-6.13-.04-.25.02-.46.16-.58.09-.08.26-.16.52-.07.23.07.45.58.82,1.64.07.21.14.38.18.48,1.5,3.43,3.24,6.86,6.69,7.77.06.02.17.03.32.06.86.14,1.72.3,1.85.71.05.16,0,.32-.17.48h0c-.08.08-.22.12-.43.12ZM24.67,61.26s-.1.01-.14.04c-.07.06-.1.19-.07.34.21,1.33,1.98,4.63,2.88,6.03,1.37,2.15,2.63,3.44,5.35,4.1h.06c1.37.35,1.6.25,1.64.21h0c.06-.06.13-.14.11-.21-.09-.29-1.22-.47-1.64-.53-.16-.02-.28-.04-.34-.06-3.57-.95-5.35-4.43-6.87-7.92-.04-.1-.11-.28-.18-.5-.15-.42-.49-1.39-.65-1.47-.04-.01-.09-.02-.13-.02Z"/>
          </g>
          <g>
            <path d="M44.42,53.42c.29.29.04,1.58-.11,1.98-1.13,2.92-5.46,1.96-5.46-.91,0-.42.29-1.29.77-.8.3.3-.21,1.34.63,2.11,1.41,1.3,3.2.41,3.48-1.4.04-.26-.06-.72.05-.9s.49-.21.63-.06Z"/>
            <path d="M41.74,57.3c-.2,0-.4-.02-.59-.05-1.21-.22-2.43-1.16-2.44-2.76,0-.3.14-.91.48-1.05.12-.05.3-.06.51.16.15.15.15.4.15.69,0,.43,0,.97.48,1.42.58.53,1.27.71,1.9.49.7-.25,1.22-.94,1.36-1.81.01-.09,0-.22,0-.35-.01-.24-.02-.46.07-.61.07-.11.22-.2.39-.22.18-.02.35.03.45.13.37.37.06,1.75-.08,2.12-.53,1.38-1.68,1.85-2.7,1.85ZM39.35,53.67s-.03,0-.04,0c-.17.07-.32.51-.32.81,0,1.44,1.11,2.29,2.22,2.5,1.01.19,2.4-.13,2.98-1.63.17-.44.35-1.62.14-1.84h0s-.13-.06-.23-.05c-.1.01-.17.05-.19.09-.05.08-.04.29-.03.46,0,.15.01.28,0,.4-.15.97-.73,1.74-1.53,2.02-.73.25-1.52.06-2.17-.54-.57-.52-.57-1.15-.56-1.61,0-.22,0-.43-.07-.5-.07-.07-.13-.1-.18-.1Z"/>
          </g>
          <g>
            <path d="M29.24,53.33c.6-.09.42,1.05.48,1.4.12.73.85,1.52,1.6,1.62,1.03.14,2.25-.53,2.38-1.61.03-.29-.05-.68.03-.93.12-.41.69-.24.77.16.58,3.08-4.06,4.58-5.36,1.52-.2-.46-.65-2.05.11-2.16Z"/>
            <path d="M31.62,57.3c-1.03,0-2.08-.5-2.61-1.76-.12-.29-.52-1.49-.2-2.06.09-.16.23-.26.41-.28h0c.15-.02.27.01.37.1.25.21.25.7.25,1.09,0,.13,0,.26.01.33.12.7.83,1.42,1.49,1.51.54.07,1.15-.1,1.6-.44.26-.2.57-.54.63-1.06.01-.11,0-.25,0-.39,0-.2-.02-.4.03-.56.06-.21.24-.35.46-.33.27.01.51.23.57.5.32,1.69-.85,2.85-2.07,3.22-.3.09-.61.14-.93.14ZM29.3,53.46s-.03,0-.04,0c-.1.01-.17.06-.22.15-.22.4.04,1.4.22,1.82.64,1.49,2.08,1.82,3.22,1.47,1.11-.33,2.17-1.39,1.88-2.91-.03-.17-.19-.28-.32-.29-.09-.02-.16.04-.19.14-.04.12-.03.3-.02.48,0,.15.01.29,0,.43-.06.47-.32.91-.74,1.23-.51.39-1.18.57-1.8.49-.78-.11-1.58-.91-1.71-1.73-.02-.09-.02-.22-.02-.37,0-.3,0-.75-.16-.89-.02-.02-.05-.04-.11-.04Z"/>
          </g>
          <g>
            <path d="M48.6,57.41c.62-.16,1.03,1.6.99,2.03-.05.56-.73.67-.86.07-.05-.22,0-.44-.04-.66-.12-.53-.69-1.1-.09-1.44Z"/>
            <path d="M49.16,60.05c-.21,0-.47-.13-.55-.51-.03-.12-.02-.24-.02-.36,0-.11,0-.21-.02-.3-.03-.14-.1-.29-.17-.44-.17-.38-.39-.84.14-1.15h.03c.11-.04.27-.04.45.11.47.39.75,1.66.72,2.05-.03.39-.3.58-.54.59-.01,0-.02,0-.03,0ZM48.65,57.54c-.27.17-.22.36-.01.8.07.16.15.32.19.49.03.12.03.25.02.36,0,.1,0,.2.02.29.04.19.16.31.3.3.13,0,.27-.12.29-.35.03-.34-.24-1.51-.62-1.83-.09-.07-.15-.07-.19-.07Z"/>
          </g>
          <g>
            <path d="M24.97,57.51c.27.4-.11.78-.21,1.18-.09.34-.04,1.13-.35,1.22-.85.25-.52-1.14-.38-1.6.13-.43.38-1.16.94-.8Z"/>
            <path d="M24.22,60.07c-.16,0-.27-.07-.33-.13-.36-.36-.08-1.37.01-1.67.13-.4.29-.84.62-.96.16-.06.34-.03.52.09l.04.04c.23.34.08.67-.06.96-.06.12-.11.22-.14.33-.02.09-.04.23-.05.38-.04.4-.08.85-.39.94-.08.02-.16.03-.22.03ZM24.68,57.55s-.05,0-.08.01c-.23.09-.38.56-.45.79-.17.54-.27,1.21-.08,1.4.02.02.08.09.29.03.13-.04.17-.46.2-.71.02-.16.03-.31.06-.42.03-.13.09-.26.15-.38.14-.28.22-.47.1-.67-.07-.04-.13-.06-.19-.06Z"/>
          </g>
        </g>
      </g>
      <g>
        <g>
          <g>
            <path class="j" d="M21.65,88.46c.11,0,.18.06.22.15.04.09.33.67.4.82.07.14.31.59.35.65.04.07.1.09.16.01.06-.08.15-.24.27-.43.1-.18.46-.86.5-.96.04-.1.08-.21.2-.18.12.03.18.04.19.19,0,.14.14,3.27.15,3.47.01.2-.18.26-.28.27-.1.01-.21-.02-.23-.14s-.1-2.6-.09-2.74c0-.14-.04-.13-.08-.09s-.6.91-.68,1.04c-.08.12-.16.14-.23.06-.07-.08-.47-.93-.53-1.03-.07-.1-.09-.14-.09,0s0,2.26,0,2.56c0,.3-.17.37-.29.36-.12-.02-.23-.07-.24-.2s.04-3.59.04-3.7c.01-.11.14-.09.26-.09Z"/>
            <path class="j" d="M21.62,92.53s-.03,0-.04,0c-.18-.02-.28-.11-.3-.26-.02-.16.04-3.69.04-3.72.02-.16.18-.16.29-.16h.04c.13,0,.23.07.28.19.02.05.11.22.19.4.08.17.17.35.2.41.06.12.26.48.32.6l.02.04s.02.02.02.03c0,0,0,0,.02-.02.06-.08.16-.25.26-.43.1-.17.45-.85.5-.95v-.02c.05-.09.11-.24.28-.2.12.03.23.05.25.25,0,.19.14,3.27.15,3.47.01.21-.16.33-.34.35-.09.01-.17,0-.23-.05-.04-.04-.07-.09-.08-.15,0-.11-.1-2.58-.09-2.75-.11.16-.48.74-.64.99-.06.09-.12.14-.19.14-.04,0-.09,0-.15-.07-.04-.05-.16-.28-.33-.63-.06-.13-.13-.25-.17-.33,0,.48,0,2.19,0,2.46,0,.2-.07.3-.12.35-.06.05-.13.08-.2.08ZM21.58,88.53c-.1,0-.12.01-.12.03,0,.2-.06,3.57-.04,3.69,0,.06.03.12.18.14.02,0,.08,0,.14-.04.05-.05.08-.13.08-.25,0-.29,0-2.19,0-2.56,0-.07,0-.14.06-.16.06-.02.1.03.15.12.03.04.1.19.21.42.11.23.28.57.31.61,0,0,.02.02.03.02h0s.05-.02.08-.08c.06-.1.64-1.01.7-1.06.02-.01.07-.06.13-.03.06.03.06.11.06.18,0,.15.08,2.62.09,2.73,0,.03.02.05.03.06.02.02.07.03.12.02.04,0,.22-.03.21-.2-.01-.2-.14-3.28-.15-3.47,0-.09-.03-.1-.14-.12-.04-.01-.06,0-.11.12v.02c-.05.11-.41.79-.51.97-.13.22-.21.36-.28.44-.05.07-.11.08-.15.08-.05,0-.1-.04-.13-.1l-.02-.04c-.07-.13-.27-.48-.33-.61-.03-.07-.12-.24-.2-.41-.09-.18-.18-.36-.2-.41-.03-.07-.08-.11-.16-.11h-.04s-.02,0-.03,0Z"/>
          </g>
          <g>
            <path class="j" d="M25.14,89.19c.13-.01.18.01.2.1s.03.99.03,1.5-.02,1.38-.03,1.51c-.01.13-.15.12-.25.13-.1.01-.23-.07-.23-.18s.01-.84.01-1.05.01-1.79.03-1.92c.02-.08.12-.09.24-.1Z"/>
            <path class="j" d="M25.07,92.51c-.07,0-.14-.03-.2-.08-.05-.05-.08-.11-.08-.17,0-.04,0-.19,0-.37,0-.25,0-.56,0-.68,0-.16.01-1.79.03-1.93.04-.14.17-.15.29-.16l.02.07v-.07c.07,0,.23-.02.27.16.02.1.03,1.02.03,1.52s-.02,1.38-.03,1.51c-.01.17-.18.18-.27.19h-.04s-.02,0-.03,0ZM25.14,89.26h-.01c-.11.01-.16.02-.17.05-.01.11-.03,1.64-.03,1.9,0,.13,0,.43,0,.69,0,.18,0,.32,0,.37,0,.03.02.05.03.06.03.03.08.05.12.04h.05c.11-.01.14-.02.15-.07.01-.13.03-.97.03-1.5s-.02-1.41-.03-1.49c0-.04,0-.06-.12-.05Z"/>
          </g>
          <g>
            <path class="j" d="M27.27,89.81c.02-.07.07-.12.06-.26,0-.14-.14-.31-.44-.27-.22.03-.29.28-.23.5.07.27.46.67.61.86.15.19.41.57.38,1.01-.03.45-.42.78-.97.76-.63-.02-.69-.58-.68-.75.01-.14.04-.3.08-.4s.16,0,.15.06c0,.07-.07.19-.07.41s.2.49.53.5c.33,0,.51-.27.53-.59.03-.32-.13-.55-.33-.8-.19-.24-.58-.59-.62-1-.04-.41.24-.7.63-.72.39-.02.58.26.59.44,0,.09-.03.21-.07.29-.05.09-.19.09-.14-.04Z"/>
            <path class="j" d="M26.7,92.48s-.03,0-.04,0c-.23,0-.41-.08-.54-.22-.21-.22-.21-.52-.21-.61.01-.17.05-.32.09-.42.03-.07.09-.1.16-.08.07.02.13.1.12.18,0,.02,0,.05-.02.09-.02.07-.04.17-.04.31,0,.17.17.43.47.43.31,0,.44-.27.46-.53.03-.3-.13-.53-.32-.75-.04-.05-.09-.1-.14-.16-.21-.23-.47-.53-.5-.88-.02-.21.03-.41.16-.55.13-.15.32-.23.53-.24.25-.01.4.08.49.17.1.09.17.22.17.34,0,.1-.03.23-.08.32-.04.08-.14.12-.21.09-.05-.02-.09-.08-.06-.18,0-.02.01-.03.02-.05.02-.05.04-.09.04-.19,0-.05-.03-.1-.07-.14-.05-.04-.14-.08-.29-.06-.06,0-.11.04-.14.09-.05.08-.07.2-.04.33.05.19.29.48.45.67.06.07.1.12.14.17.28.35.42.71.39,1.06-.03.48-.45.83-1,.83ZM26.12,91.29c-.03.08-.06.22-.07.38,0,.05,0,.32.17.5.1.11.25.17.44.17.5,0,.88-.28.9-.7.02-.31-.11-.64-.37-.96-.03-.04-.08-.1-.14-.16-.18-.21-.43-.5-.48-.72-.04-.16-.02-.32.05-.44.05-.08.14-.13.23-.15.1-.01.18,0,.24.01-.06-.02-.13-.03-.22-.03-.18,0-.33.08-.44.2-.1.12-.15.27-.13.45.03.31.27.58.47.8.05.06.1.11.14.16.2.25.38.5.35.85-.03.4-.27.66-.59.66h-.01c-.39,0-.6-.33-.6-.57,0-.16.03-.27.05-.34,0-.03.02-.05.02-.07,0-.01-.02-.03-.02-.03ZM27.36,89.41s.03.09.04.14c0,.12-.02.19-.05.25,0,.01-.01.03-.02.04h0s0,0,0,0c0,0,.01-.01.02-.02.03-.06.06-.17.06-.25,0-.04-.02-.1-.05-.15Z"/>
          </g>
          <g>
            <path class="j" d="M29.98,89.47c.02.17-.14.32-.23.32-.08,0-.1-.12-.04-.17.04-.04.13.07.15-.14,0-.06-.1-.2-.28-.2-.73,0-.84,1.06-.86,1.56-.02.35.03,1.45.55,1.44.63-.02.69-.37.79-.47.1-.09.2-.02.14.12-.06.13-.39.54-.93.54s-1.08-.17-1.08-1.55c0-.9.34-1.75,1.4-1.75.18,0,.37.13.39.3Z"/>
            <path class="j" d="M29.27,92.53c-.53,0-1.15-.18-1.15-1.62,0-1.16.53-1.82,1.47-1.82.22,0,.43.17.46.36h0c0,.1-.02.2-.1.28-.06.07-.14.12-.2.12-.06,0-.11-.03-.14-.09-.03-.07-.01-.16.04-.2.04-.03.08-.03.1-.02,0,0,.02,0,.03-.07,0-.02-.07-.13-.21-.13-.47,0-.74.5-.8,1.49-.02.31.02,1.02.27,1.28.06.06.13.1.21.09.47-.02.59-.22.67-.35.02-.04.04-.07.07-.1.07-.07.15-.08.21-.04.06.04.08.13.04.23-.07.16-.42.58-.99.58ZM29.34,89.25c-.93.14-1.08,1.08-1.08,1.66,0,1.3.49,1.48,1.01,1.48.5,0,.81-.37.87-.5.02-.04,0-.06,0-.06,0,0-.02,0-.04.02-.01.01-.03.04-.05.07-.09.15-.24.4-.78.41-.12,0-.22-.04-.31-.13-.3-.31-.33-1.1-.31-1.38.05-.91.28-1.44.69-1.58ZM29.75,89.68s0,.01,0,.02c0,.01,0,.02,0,.02.01,0,.04-.02.08-.05-.03,0-.06,0-.07,0,0,0,0,0,0,0Z"/>
          </g>
          <g>
            <path class="j" d="M30.93,89.16c.13,0,1.5.05,1.57.04.08,0,.14.13.02.14-.08,0-1.07.01-1.12,0-.06,0-.07.02-.08.1s.01.5.01.58,0,.13.07.13.92.02,1.02.04c.1.02.02.13-.06.13-.07,0-.9.06-.96.04-.06-.02-.08.04-.08.11s-.03,1.44-.03,1.54-.07.13.08.12c.14-.01.75.03,1.1.04.34,0,.18.15.02.15-.17,0-1.56.04-1.6.04-.04,0-.1-.01-.1-.16s0-1.04.02-1.56c.01-.53-.01-1.22,0-1.4.01-.08.07-.09.14-.09Z"/>
            <path class="j" d="M30.91,92.44s-.03,0-.04,0c-.07-.01-.16-.05-.16-.23,0-.15,0-1.04.02-1.57,0-.32,0-.68,0-.98,0-.19,0-.35,0-.42.02-.15.16-.15.21-.15.06,0,.33,0,.64.02.37.01.89.03.93.03.09,0,.15.07.16.14,0,.06-.03.13-.13.14-.08,0-1.06.01-1.13,0,0,0,0,.02,0,.04,0,.05,0,.25,0,.39,0,.08,0,.15,0,.18,0,.03,0,.06,0,.07.06,0,.92.01,1.03.03.08.01.11.07.11.12,0,.08-.1.15-.18.14-.03,0-.2,0-.36.02-.42.03-.56.03-.61.03,0,0,0,.02,0,.04,0,.08-.03,1.46-.03,1.55,0,.02,0,.04,0,.05,0,0,0,0,0,0,.08,0,.3,0,.56.02.19,0,.39.02.54.02.07,0,.27,0,.27.13,0,.09-.13.16-.25.16-.01,0-1.34.04-1.58.04ZM30.93,89.23c-.07,0-.07,0-.07.03,0,.06,0,.22,0,.41,0,.3,0,.67,0,.99-.01.53-.02,1.41-.02,1.56,0,.09.02.09.04.1.06,0,1.39-.03,1.59-.04.02,0,.05,0,.07-.01-.02,0-.05,0-.08,0-.15,0-.36-.01-.55-.02-.24-.01-.46-.02-.54-.02-.07,0-.12,0-.15-.03-.03-.04-.02-.08-.01-.1,0-.01,0-.03,0-.06,0-.12.04-1.47.03-1.53,0-.07.01-.13.05-.16.03-.03.07-.03.11-.02.04,0,.36-.01.58-.03.13,0,.23-.01.29-.02-.27-.01-.83-.03-.89-.03-.14,0-.14-.13-.14-.2,0-.03,0-.1,0-.18,0-.16-.01-.35,0-.41,0-.05,0-.11.05-.14.04-.03.09-.03.1-.03.06,0,1,0,1.11,0,0,0,0,0,0,0-.04,0-.4,0-.94-.03-.31,0-.58-.02-.64-.02Z"/>
          </g>
          <g>
            <path class="j" d="M33.46,89.14c.09.02.23,0,.25.13.01.13.01.27.02.65.01.38,0,2,0,2.09,0,.08-.03.18.08.18s.7.04.88.04c.18,0,.15.12.08.13s-.34.03-.59.04c-.37,0-.78-.01-.8-.02-.02-.01-.12,0-.14-.11s.01-1.06.01-1.53c0-.47.02-1.21.03-1.47-.02-.11.1-.13.2-.12Z"/>
            <path class="j" d="M34.03,92.46c-.26,0-.65,0-.7-.03-.04,0-.15-.03-.18-.16-.01-.07,0-.38,0-.87,0-.24,0-.49,0-.67,0-.45.02-1.18.03-1.47,0-.06.02-.1.04-.13.07-.07.19-.07.23-.06h0s.04,0,.06,0c.09,0,.23.02.25.18,0,.1.01.19.01.37v.29c.02.33.01,1.55,0,1.95v.17s0,.07,0,.08c.05,0,.16,0,.3.01.21.01.48.03.59.02.19,0,.2.1.21.12,0,.07-.05.13-.12.14-.07.01-.33.03-.6.04-.04,0-.09,0-.14,0ZM33.42,89.21s-.07,0-.08.02c0,0,0,0,0,.02-.01.3-.03,1.03-.03,1.48,0,.18,0,.43,0,.67,0,.35-.02.78,0,.84,0,.04.03.04.07.05.01,0,.03,0,.04.01.03,0,.41.02.77.02.19,0,.37-.02.49-.03h0c-.13,0-.37-.01-.57-.03-.13,0-.24-.01-.28-.01-.05,0-.09-.01-.11-.04-.05-.05-.04-.12-.03-.18v-.03s0-.13,0-.13c0-.4,0-1.62,0-1.94v-.29c-.01-.18-.01-.27-.02-.36,0-.04-.02-.05-.12-.06-.02,0-.04,0-.07,0-.01,0-.02,0-.03,0Z"/>
          </g>
          <g>
            <path class="j" d="M35.61,89.14c.09.02.23,0,.25.13.01.13.01.27.02.65.01.38,0,2,0,2.09,0,.08-.03.18.08.18s.7.04.88.04c.18,0,.15.12.08.13-.08.01-.34.03-.59.04-.37,0-.78-.01-.8-.02-.02-.01-.12,0-.14-.11s.01-1.06.01-1.53c0-.47.02-1.21.03-1.47-.02-.11.1-.13.2-.12Z"/>
            <path class="j" d="M36.18,92.46c-.26,0-.65,0-.7-.03-.04,0-.15-.03-.18-.16-.01-.07,0-.38,0-.87,0-.24,0-.49,0-.67,0-.45.02-1.18.03-1.47,0-.06.02-.1.04-.13.07-.07.19-.07.23-.06h0s.04,0,.06,0c.09,0,.23.02.25.18,0,.1.01.19.01.37v.29c.02.33.01,1.55,0,1.95v.17s0,.07,0,.08c.05,0,.16,0,.3.01.21.01.48.03.59.02.18,0,.2.1.21.12,0,.07-.05.13-.12.14-.07.01-.33.03-.6.04-.04,0-.09,0-.14,0ZM35.57,89.21s-.07,0-.08.02c0,0,0,0,0,.02-.01.3-.03,1.03-.03,1.48,0,.18,0,.43,0,.67,0,.35-.02.78,0,.84,0,.04.03.04.07.05.01,0,.03,0,.04.01.03,0,.41.02.77.02.19,0,.37-.02.49-.03-.12,0-.37-.01-.57-.03-.13,0-.24-.01-.28-.01-.05,0-.09-.01-.11-.04-.05-.05-.04-.12-.03-.18v-.03s0-.13,0-.13c0-.4,0-1.62,0-1.94v-.29c-.01-.18-.01-.27-.02-.36,0-.04-.02-.05-.12-.06-.02,0-.04,0-.07,0-.01,0-.02,0-.03,0Z"/>
          </g>
          <g>
            <path class="j" d="M37.99,89.48c.03-.1.08-.28.34-.29.28,0,.26.13.29.24.07.21.59,2.57.66,2.81.06.2-.31.25-.36.05-.03-.16-.28-1.43-.31-1.53-.03-.1-.04-.06-.08-.06-.04,0-.33.02-.38.03-.04,0-.07,0-.08.05-.01.05-.27,1.33-.29,1.45-.02.23-.53.21-.46-.08.06-.26.63-2.47.68-2.68ZM38.49,90.51s.06-.04.05-.08l-.15-.72c-.01-.07-.09-.07-.1,0l-.15.72c-.01.05.01.07.06.07h.29Z"/>
            <path class="j" d="M39.1,92.49s-.06,0-.09-.01c-.09-.03-.15-.09-.16-.17-.03-.16-.28-1.43-.31-1.53,0,0,0,0,0-.01,0,0,0,0-.01,0,0,0-.06,0-.13,0-.08,0-.21.01-.24.02-.02,0-.04,0-.04,0,0,0-.26,1.32-.28,1.44,0,.08-.07.15-.16.19-.12.05-.28.03-.37-.05-.07-.06-.09-.15-.07-.24.03-.15.24-.94.41-1.63.13-.51.24-.96.26-1.05h0c.03-.1.09-.33.4-.34,0,0,.01,0,.02,0,.26,0,.3.12.33.24,0,.02,0,.03.01.05.04.12.22.91.39,1.67.12.54.24,1.05.27,1.15.02.07,0,.14-.05.19-.05.05-.12.07-.19.07ZM38.57,90.63c.07,0,.09.07.11.11.04.12.29,1.39.31,1.54,0,.04.04.06.07.06.05.01.11,0,.14-.02.01-.01.02-.03.01-.06-.03-.11-.14-.59-.27-1.16-.16-.72-.35-1.54-.39-1.65,0-.02-.01-.04-.01-.06-.02-.08-.03-.14-.21-.13-.19,0-.24.11-.27.23-.02.09-.14.54-.27,1.05-.18.69-.38,1.48-.41,1.63-.01.05,0,.08.03.11.05.04.15.05.23.03.03-.01.07-.04.07-.08.02-.13.29-1.45.29-1.46.02-.09.09-.1.13-.11.03,0,.13-.01.26-.02.06,0,.11,0,.13,0h.02s.02,0,.03,0ZM38.49,90.58h-.29s-.07,0-.11-.04c-.02-.03-.03-.07-.02-.11l.15-.72c.02-.07.06-.11.13-.11.06,0,.1.04.11.11l.15.72s0,.08-.02.12c-.02.03-.06.05-.1.05ZM38.21,90.44h.26s-.13-.64-.13-.64l-.13.64Z"/>
          </g>
          <g>
            <path class="j" d="M40.17,89.14c.07.02.1.04.17.16.07.13,1.05,2.32,1.11,2.39,0-.25.02-.77.02-.88s.03-1.11.03-1.37.11-.31.19-.3c.08,0,.3-.03.3.13s-.04,2.37-.05,2.76c-.01.37-.15.36-.23.36s-.2,0-.27-.08c-.08-.09-1.06-2.32-1.1-2.44,0,.23,0,.35,0,.48,0,.13.04,1.65.03,1.87,0,.17-.15.17-.26.19-.11.02-.27.02-.27-.1s-.02-.94-.01-1.26c0-.32.02-1.73.03-1.85.02-.08.25-.07.31-.04Z"/>
            <path class="j" d="M40.01,92.49c-.08,0-.14-.02-.18-.05-.04-.03-.06-.08-.06-.13,0-.04,0-.14,0-.26,0-.31-.01-.77,0-1,0-.1,0-.31,0-.55,0-.55.01-1.23.02-1.31,0-.04.03-.07.07-.09.09-.05.27-.04.33-.01.09.03.13.06.21.2.03.05.17.37.41.89.19.42.43.96.58,1.26,0-.1,0-.21,0-.31,0-.13,0-.25,0-.29s0-.23.01-.46c0-.34.02-.76.02-.91s.03-.25.1-.31c.04-.04.1-.06.16-.06.01,0,.03,0,.04,0,.08,0,.2,0,.26.06.02.02.05.06.05.13,0,.17-.04,2.37-.05,2.76-.01.38-.16.43-.29.43h0c-.09,0-.23,0-.33-.1-.09-.1-.7-1.51-.98-2.15,0,.05,0,.09,0,.14,0,.11.04,1.64.03,1.88,0,.21-.18.23-.29.25h-.03s-.08.01-.11.01ZM39.92,89.21c0,.14-.01.8-.02,1.29,0,.24,0,.45,0,.55,0,.23,0,.69,0,.99,0,.13,0,.23,0,.27,0,.02,0,.02,0,.03,0,0,.05.03.18.01h.04c.13-.02.17-.04.17-.12,0-.22-.03-1.72-.03-1.87,0-.13,0-.25,0-.48v-.46l.13.44c.04.12,1,2.31,1.09,2.42.05.05.15.05.22.05.07,0,.15,0,.16-.3.01-.39.05-2.59.05-2.76,0-.02,0-.03-.01-.03-.03-.03-.11-.03-.17-.02-.02,0-.04,0-.06,0-.02,0-.04,0-.06.02-.02.02-.06.07-.06.21,0,.16-.01.58-.02.91,0,.22-.01.41-.01.46s0,.16,0,.3c0,.2-.01.44-.01.59v.18l-.12-.14s-.24-.49-.72-1.53c-.19-.43-.38-.83-.4-.88-.06-.11-.08-.12-.13-.13-.05-.02-.19-.02-.22,0Z"/>
          </g>
          <g>
            <path class="j" d="M44.6,89.23c-.08.15-.58.88-.85,1.27.01.44-.02,1.71-.01,1.81,0,.12-.15.15-.28.16s-.24-.03-.24-.13.02-.55.02-.82c0-.24.02-.48.03-.87-.24-.38-.69-1.26-.73-1.39-.04-.12.11-.18.23-.23.12-.05.17.07.26.18.08.09.4.83.58,1.17.19-.27.43-.6.51-.73.12-.19.23-.4.31-.49.09-.1.26-.12.15.08Z"/>
            <path class="j" d="M43.42,92.53c-.09,0-.16-.02-.21-.07-.04-.04-.06-.08-.06-.13,0-.04,0-.12,0-.23,0-.18.02-.42.02-.59,0-.13,0-.26.01-.42,0-.12.01-.26.02-.43-.23-.38-.68-1.24-.73-1.39-.07-.18.15-.27.27-.32.14-.06.22.04.28.13.02.02.03.05.05.07.05.05.15.27.31.61.08.17.16.34.23.47.07-.09.13-.19.2-.28.1-.15.2-.28.25-.35l.08-.13c.09-.15.17-.29.24-.37.07-.08.19-.12.26-.07.03.03.08.09,0,.23-.07.14-.47.71-.75,1.12l-.09.13c0,.28,0,.84,0,1.25,0,.27,0,.5,0,.54,0,.13-.11.21-.34.23-.01,0-.03,0-.04,0ZM42.83,89.08s-.02,0-.03,0c-.11.05-.21.09-.19.14.04.13.5,1,.73,1.38v.02s.01.02.01.02c0,.18-.01.32-.02.45,0,.15-.01.28-.01.41,0,.17,0,.41-.02.59,0,.11,0,.19,0,.23,0,.01,0,.02.01.03.03.02.08.03.15.03.06,0,.22-.03.21-.09,0-.04,0-.22,0-.54,0-.42.01-1,0-1.27v-.02s.12-.17.12-.17c.27-.39.68-.98.74-1.11h0s.02-.04.02-.05c-.02,0-.04.02-.07.04-.06.07-.14.2-.22.35l-.08.14c-.04.08-.14.21-.25.36-.09.12-.18.25-.26.37l-.06.09-.05-.1c-.08-.15-.18-.37-.28-.58-.11-.24-.25-.53-.29-.58-.02-.03-.04-.05-.06-.08-.05-.07-.07-.09-.09-.09Z"/>
          </g>
          <g>
            <path class="j" d="M48.86,88.71c.02.21-.18.4-.28.4-.1,0-.12-.15-.06-.21.06-.05.16.08.19-.17.01-.08-.12-.25-.34-.25-.72,0-1.04,1.04-1.07,1.85-.02.44.03,2,.68,1.97.64-.03.72-.46.84-.58.12-.12.25-.03.18.14-.07.16-.47.66-1.01.66-.64,0-1.26-.4-1.26-2.1,0-1.56.95-2.1,1.66-2.1.23,0,.46.16.48.37Z"/>
            <path class="j" d="M47.98,92.6c-.88,0-1.33-.73-1.33-2.16,0-1.71,1.09-2.16,1.73-2.16.27,0,.52.2.55.43h0c.01.11-.03.24-.12.34-.07.08-.16.14-.23.14-.07,0-.12-.03-.15-.1-.03-.08-.01-.18.05-.23.04-.04.09-.03.12-.03,0,0,.02,0,.02,0,0,0,.02-.02.02-.1,0-.01-.01-.05-.05-.08-.03-.03-.1-.09-.22-.09-.64,0-.96.93-1,1.79-.01.38.02,1.46.37,1.8.07.07.15.11.24.1.46-.02.6-.25.7-.42.03-.05.06-.1.09-.13.08-.08.18-.09.25-.05.06.04.1.13.04.26-.08.2-.52.71-1.08.71ZM48.38,88.41c-.59,0-1.59.43-1.59,2.03,0,1.36.39,2.03,1.19,2.03.52,0,.9-.49.95-.62.02-.06.02-.09,0-.09,0,0-.04,0-.07.03-.02.02-.04.06-.07.1-.1.18-.27.47-.81.49-.13,0-.24-.04-.34-.14-.46-.45-.41-1.89-.41-1.9.04-.96.41-1.92,1.14-1.92.13,0,.25.05.33.15.05.06.08.13.07.18-.01.1-.03.16-.08.19-.04.04-.09.03-.12.03,0,0-.02,0-.02,0,0,0-.01.05,0,.07,0,.01.01.01.02.01.02,0,.08-.03.13-.09.06-.07.09-.16.08-.23h0c-.02-.17-.21-.31-.41-.31Z"/>
          </g>
          <g>
            <path class="j" d="M49.44,91.97c-.3-.57-.23-1.44-.04-1.99.18-.54.58-.85,1-.85s.7.31.72,1.61c.01,1.29-.61,1.63-.8,1.67-.2.04-.62.04-.88-.44ZM50.92,90.76c0-.99-.2-1.47-.54-1.47-.25,0-.41.29-.55.75-.13.47-.15,1.38,0,1.74.15.37.34.46.47.44.13-.02.61-.47.61-1.47Z"/>
            <path class="j" d="M50.16,92.5c-.22,0-.56-.08-.78-.5h0c-.31-.59-.24-1.47-.05-2.04.18-.55.59-.89,1.07-.89.53,0,.77.5.79,1.68.01,1.24-.56,1.68-.86,1.74-.04,0-.1.02-.17.02ZM49.5,91.94c.24.46.64.44.8.41.21-.04.76-.41.75-1.6-.02-1.36-.36-1.54-.65-1.54-.41,0-.77.31-.94.8-.19.56-.24,1.4.04,1.93h0ZM50.28,92.29c-.13,0-.34-.08-.51-.48-.16-.37-.14-1.3,0-1.79.11-.38.27-.81.61-.8.4,0,.6.52.61,1.54h0c0,1-.48,1.5-.67,1.53-.01,0-.03,0-.04,0ZM50.38,89.35c-.19,0-.34.22-.47.7-.12.46-.15,1.35,0,1.7.11.27.26.41.4.4.09-.02.55-.43.55-1.4,0-.9-.17-1.4-.47-1.4h0Z"/>
          </g>
        </g>
        <g>
          <path class="j" d="M51.69,92.28c-.03-.06-.05-.13-.05-.18,0-.06.03-.13.05-.14.04-.03.08-.04.12-.04.07,0,.14.04.2.12.03.03.04.08.04.13,0,.05-.02.11-.05.14-.02.02-.08.04-.14.04-.08,0-.15-.03-.17-.06Z"/>
          <path class="j" d="M51.86,92.41c-.1,0-.19-.03-.23-.09h0c-.04-.07-.06-.15-.06-.22s.03-.17.09-.2c.06-.04.11-.05.15-.05.06,0,.16.03.26.15.04.05.05.12.05.17,0,.07-.03.14-.07.19-.04.04-.11.06-.19.06ZM51.75,92.25s.05.03.11.03c.05,0,.09-.01.1-.02.01-.01.03-.05.03-.09s0-.07-.02-.09c-.05-.06-.1-.1-.15-.1,0,0-.03,0-.08.03,0,0-.02.05-.02.08,0,.05.01.1.04.14Z"/>
        </g>
      </g>
      <g>
        <g>
          <path class="j" d="M24.45,79.76c.31,0,.46-.01.47.25,0,.26-.09,1.9-.09,2.68,0,.72.03,2.59.24,3.17.14.37.47.66.78.69.32.03.94-.22,1.13-.71.19-.49.34-2.74.32-3.54-.02-.8,0-2.14-.03-2.39-.02-.25.29-.2.33,0,.04.2.09,1.6.09,2.36s-.06,2.8-.3,3.6-1.08,1.04-1.56,1.05c-.48.01-.91-.1-1.45-.7-.5-.55-.48-2.42-.48-3.42s.09-2.51.11-2.78c.02-.12.13-.27.44-.25Z"/>
          <path class="j" d="M25.76,87.03c-.43,0-.91-.11-1.48-.74-.51-.57-.51-2.33-.51-3.39v-.11c0-.95.09-2.45.11-2.79.03-.2.19-.38.57-.36h.07c.26,0,.5.01.51.37,0,.1-.01.38-.03.73-.03.61-.06,1.45-.06,1.95,0,1.15.06,2.65.23,3.13.12.33.41.58.68.61.25.03.83-.18,1-.63.18-.48.33-2.73.31-3.5,0-.38-.01-.89-.01-1.34,0-.47,0-.91-.01-1.04-.01-.18.1-.28.21-.3.14-.02.32.08.36.26.04.21.09,1.62.09,2.38s-.05,2.8-.3,3.64c-.26.87-1.17,1.12-1.67,1.13-.02,0-.04,0-.06,0ZM24.39,79.88c-.15,0-.24.05-.26.15-.02.33-.11,1.82-.11,2.76v.11c0,.95,0,2.73.44,3.22.5.56.88.67,1.35.66.43,0,1.22-.22,1.44-.96.24-.8.29-2.9.29-3.57,0-.78-.05-2.16-.09-2.34,0-.03-.03-.05-.04-.06-.02-.01-.03-.01-.04-.01,0,0,0,.01,0,.03.01.13.01.56.02,1.06,0,.45,0,.96.01,1.34.02.8-.12,3.06-.33,3.59-.21.54-.87.82-1.26.79-.37-.03-.73-.35-.89-.77-.23-.65-.25-2.79-.25-3.21,0-.5.04-1.34.06-1.96.01-.35.03-.63.03-.72,0-.11,0-.11-.27-.12h-.08s-.03,0-.05,0Z"/>
        </g>
        <g>
          <path class="j" d="M29.68,81.11c.12.04.18.07.31.3s1.88,4.17,2,4.3c0-.44.03-1.38.03-1.59s.06-2,.06-2.47.2-.55.34-.54c.14,0,.54-.06.54.23s-.07,4.26-.09,4.97c-.02.67-.28.65-.42.65s-.36,0-.49-.14c-.15-.17-1.91-4.17-1.98-4.39,0,.4,0,.62,0,.86,0,.24.07,2.96.06,3.37,0,.31-.28.31-.48.34-.2.03-.49.04-.49-.19s-.03-1.69-.02-2.27c0-.58.03-3.12.05-3.34.04-.14.45-.12.56-.08Z"/>
          <path class="j" d="M29.38,87.12c-.14,0-.25-.03-.32-.09-.07-.06-.1-.14-.1-.23,0-.07,0-.25,0-.48,0-.55-.02-1.39-.01-1.8,0-.18,0-.55.01-.98.01-.98.02-2.21.04-2.36.02-.06.05-.12.12-.16.16-.09.48-.06.6-.02h0c.16.05.24.11.38.35.05.09.31.67.74,1.6.35.76.78,1.71,1.04,2.26,0-.18,0-.38.01-.55,0-.24.01-.45.01-.53s0-.42.02-.83c.02-.61.04-1.36.04-1.64s.06-.45.18-.57c.08-.07.18-.11.29-.1.02,0,.05,0,.08,0,.14,0,.35,0,.48.11.04.04.09.12.09.24,0,.3-.07,4.26-.09,4.97-.02.68-.29.77-.53.77-.16.01-.42,0-.59-.18-.16-.18-1.26-2.71-1.76-3.87,0,.09,0,.16,0,.25,0,.2.07,2.95.06,3.37-.01.38-.33.42-.52.45h-.06c-.07.02-.14.03-.2.03ZM29.23,81.23c-.01.24-.03,1.43-.04,2.31,0,.43,0,.8-.01.98,0,.41,0,1.24.01,1.79,0,.23,0,.41,0,.48,0,.03,0,.04.02.05.02.01.09.06.33.02h.07c.23-.04.3-.07.3-.22,0-.39-.05-3.09-.06-3.36,0-.24,0-.46,0-.86v-.83l.24.79c.07.21,1.8,4.15,1.96,4.35.09.1.28.09.4.09.12,0,.27-.01.28-.53.02-.71.09-4.66.09-4.96,0-.04-.01-.05-.02-.06-.05-.05-.21-.05-.3-.04-.04,0-.08,0-.1,0-.04,0-.07,0-.1.04-.04.04-.1.13-.1.38,0,.28-.02,1.04-.04,1.65-.01.4-.02.74-.02.82s0,.29-.01.54c0,.35-.02.79-.02,1.05v.33l-.22-.25c-.07-.08-.44-.88-1.29-2.74-.35-.77-.68-1.5-.73-1.58-.11-.2-.15-.21-.24-.24h0c-.09-.03-.33-.03-.4,0Z"/>
        </g>
        <g>
          <path class="j" d="M34.84,81.18c.23-.02.33.02.36.19s.06,1.78.06,2.7-.03,2.48-.05,2.72c-.02.24-.28.22-.46.24-.18.02-.42-.13-.42-.32s.02-1.51.02-1.9.02-3.22.05-3.46c.04-.15.21-.16.44-.18Z"/>
          <path class="j" d="M34.71,87.15c-.13,0-.26-.05-.36-.14-.09-.08-.15-.19-.15-.3,0-.08,0-.35,0-.66,0-.45.01-1,.01-1.23,0-.28.02-3.22.05-3.47.06-.24.3-.26.53-.28l.03.12v-.12c.13-.01.42-.04.48.29.03.18.06,1.83.06,2.73s-.03,2.47-.05,2.73c-.03.31-.33.33-.49.34h-.08s-.03,0-.05,0ZM34.85,81.31h-.02c-.2.02-.29.03-.3.09-.02.2-.05,2.95-.05,3.42,0,.23,0,.78-.01,1.23,0,.32,0,.58,0,.66,0,.05.04.09.06.11.06.05.15.09.22.08h.08c.21-.02.25-.04.26-.12.02-.23.05-1.74.05-2.71s-.03-2.53-.06-2.68c-.01-.07-.02-.1-.22-.09Z"/>
        </g>
        <g>
          <path class="j" d="M37.65,86.7c0-.2-.03-1.84.03-2.87.02-.32.05-1.87.07-2.37-.55,0-1.15,0-1.32.01-.22,0-.23-.18-.11-.24.33-.01,1.42-.06,2.09-.1.66-.04,1.36-.02,1.63.01.28.03.16.19-.03.21-.15.02-.73.06-1.29.08,0,.91-.09,4.75-.09,5.06,0,.35-.19.53-.45.52-.27-.01-.53-.12-.54-.32Z"/>
          <path class="j" d="M38.21,87.14s-.02,0-.02,0c-.32-.01-.65-.15-.66-.43h0c-.01-.2-.03-1.85.03-2.89.01-.17.02-.74.04-1.29,0-.36.02-.71.03-.95-.5,0-1.03,0-1.18.01-.19,0-.28-.09-.31-.19-.03-.11.03-.23.14-.28h.05c.33-.02,1.42-.07,2.09-.11.69-.04,1.38-.02,1.66.01.25.03.27.16.27.21,0,.12-.13.22-.3.24-.15.02-.67.05-1.18.08,0,.55-.03,1.73-.05,2.8-.02,1.05-.04,1.99-.04,2.14,0,.21-.06.39-.19.51-.1.09-.22.14-.37.14ZM37.75,81.34h.13v.13c-.01.22-.02.64-.04,1.08-.01.55-.03,1.12-.04,1.3-.06,1.03-.04,2.66-.03,2.86h0c0,.1.2.19.43.2.09.01.15-.02.21-.07.07-.07.11-.18.11-.33s.02-1.1.04-2.15c.02-1.16.05-2.44.05-2.92v-.12s.12,0,.12,0c.41-.01.81-.04,1.06-.06-.33-.02-.86-.02-1.37,0-.48.03-1.17.06-1.65.08.26,0,.63,0,.98,0Z"/>
        </g>
        <g>
          <path class="j" d="M41,81.14c.24,0,2.7.09,2.83.08.14,0,.25.23.03.25-.14.01-1.92.02-2.02.01-.1-.01-.13.03-.14.19s.02.9.02,1.05,0,.24.13.24,1.65.04,1.84.07c.19.03.03.24-.1.23-.13,0-1.62.11-1.73.08-.11-.03-.15.07-.14.2s-.05,2.59-.06,2.77-.12.24.14.22,1.36.06,1.97.07c.61,0,.33.27.03.28-.3,0-2.81.08-2.88.07-.07-.01-.19-.02-.19-.3s0-1.87.03-2.81c.02-.95-.02-2.19,0-2.52.02-.15.13-.16.25-.16Z"/>
          <path class="j" d="M40.97,87.04s-.06,0-.06,0c-.13-.02-.29-.08-.29-.42,0-.27,0-1.87.03-2.82.01-.57,0-1.23,0-1.76,0-.35,0-.62,0-.75.04-.28.28-.28.37-.28.1,0,.6.02,1.16.03.67.02,1.59.05,1.67.05.16,0,.28.12.29.25,0,.11-.06.23-.24.24-.15.01-1.9.02-2.04.01,0,.01,0,.04,0,.07,0,.1,0,.45.01.71,0,.15,0,.28,0,.33,0,.05,0,.11,0,.13.12-.01,1.66.02,1.86.05.15.02.2.13.19.22-.02.14-.17.27-.32.25-.05,0-.36.02-.64.03-.72.04-1,.06-1.1.05,0,.01,0,.04,0,.07.01.14-.05,2.64-.06,2.79,0,.03,0,.06-.01.09,0,0,.01,0,.02,0,.15-.01.55,0,1,.03.35.02.71.03.98.04.12,0,.48,0,.49.23,0,.17-.23.28-.45.29-.03,0-2.41.07-2.84.07ZM41,81.26c-.12,0-.12.01-.13.05,0,.12,0,.39,0,.73,0,.53.02,1.2,0,1.77-.02.95-.03,2.55-.03,2.81,0,.16.04.17.08.17.12,0,2.5-.06,2.87-.07.04,0,.09,0,.12-.02-.04,0-.09,0-.15,0-.27,0-.64-.02-.99-.04-.43-.02-.83-.04-.97-.03-.12.01-.21.01-.27-.06-.05-.06-.04-.14-.02-.19,0-.03.02-.06.02-.1.01-.22.07-2.64.06-2.76,0-.13.02-.23.09-.29.05-.05.13-.06.2-.04.08.01.65-.03,1.04-.05.24-.01.41-.03.53-.03-.48-.03-1.5-.05-1.61-.05-.25,0-.25-.23-.25-.36,0-.05,0-.18,0-.32,0-.29-.02-.62-.01-.73,0-.09.02-.19.09-.26.07-.06.16-.05.18-.05.1,0,1.8,0,1.99,0,0,0,0,0,0,0-.08,0-.72-.01-1.69-.05-.55-.02-1.05-.03-1.15-.03Z"/>
        </g>
        <g>
          <path class="j" d="M45.02,86.82c0-.18.04-5.02.06-5.36,0-.34.21-.36,1.48-.34,1.11.02,2.94.56,2.94,2.76,0,2.36-1.58,2.81-2.35,3.01-.4.1-1.43.08-1.6.08-.17-.01-.53.02-.53-.16ZM48.53,83.84c0-1.87-1.2-2.43-1.92-2.39s-.61.27-.61.39c0,.37.1,1.33.08,1.79-.04.81-.1,2.71-.07,2.82.04.12.1.14.19.14,1.49-.05,2.34-.89,2.34-2.74Z"/>
          <path class="j" d="M45.87,87.11c-.08,0-.16,0-.24,0h-.08s-.07,0-.1,0c-.21,0-.55,0-.56-.28-.01-.25.04-5.08.06-5.37,0-.07,0-.2.1-.29.17-.17.5-.18,1.5-.16,1.41.03,3.06.8,3.06,2.89,0,2.51-1.77,2.96-2.44,3.13-.28.07-.84.08-1.31.08ZM45.14,86.82s.24.04.31.04c.04,0,.07,0,.1,0h.07c.28,0,1.15,0,1.49-.08.67-.17,2.25-.58,2.25-2.89,0-2.47-2.35-2.63-2.82-2.64-.76-.01-1.23-.01-1.32.09-.01.01-.03.04-.03.12-.02.39-.07,5.22-.06,5.36ZM46.19,86.71c-.11,0-.24-.03-.31-.22-.04-.17.04-2.31.06-2.87.01-.26-.02-.7-.04-1.08-.02-.28-.04-.54-.04-.7v-.03c0-.07-.02-.18.07-.28.1-.12.31-.18.66-.2.47-.02.96.17,1.32.51.33.31.73.92.73,2,0,1.85-.83,2.81-2.46,2.87h0ZM46.68,81.57s-.05,0-.07,0c-.37.02-.46.09-.49.12-.02.02-.02.04-.01.09,0,.02,0,.04,0,.05,0,.15.02.41.04.68.03.39.06.84.04,1.11-.04.86-.1,2.65-.07,2.79.01.04.02.04.07.04,1.49-.05,2.21-.91,2.21-2.62,0-.79-.23-1.42-.65-1.82-.3-.28-.7-.45-1.07-.45Z"/>
        </g>
      </g>
      <path class="k" d="M21.15,60.44l.35,1.3c-1.04.05-2.33.11-3.33.37-.91.24-2.44,2.26-3.39,2.88-.28.19-.51.38-.87.22-.19-.26.72-1.35.91-1.56.77-.83,1.79-1.56,2.63-2.33l3.7-.88Z"/>
      <path class="k" d="M22.45,64.18l.35,1.04-3.6.62c-.82.81-1.49,2.25-2.77,2.33-.43-.41,2.15-3.08,2.53-3.43l3.48-.57Z"/>
      <path class="k" d="M24.16,67.6c.13.01.77.99.65,1.1-.7.12-3.07.37-3.49.82-.15.16-.28.54-.45.77-.4.55-1.18,1.46-1.8.7-.07-.38,1.52-2.45,1.9-2.6.92-.35,2.24-.35,3.19-.8Z"/>
      <path class="k" d="M54.26,70.7c.22.82-.63.65-1.09.31-.53-.39-.93-1.45-1.24-1.63-.67-.39-2.56-.51-3.38-.68l.66-1.12c.76.49,2.92.5,3.49.98.26.22,1.48,1.84,1.56,2.14Z"/>
      <path class="k" d="M56.52,67.06c.24.36.48.66.4,1.12-1.26-.1-1.92-1.63-2.81-2.37l-3.56-.59.4-.96,3.44.49c.7.72,1.57,1.48,2.14,2.3Z"/>
      <path class="k" d="M58.88,64.01c.25.3.62.76.56,1.16-.12.36-.77-.12-.94-.26-.99-.76-1.92-1.87-2.89-2.68-1.19-.28-2.42-.46-3.65-.48l.4-1.29,3.53.82c.97.86,2.2,1.74,3.01,2.74Z"/>
      <path class="k" d="M58.44,47.83c.83-.13,1.65-.42,2.41-.77-.24,1.05-1.46,3.16-2.66,3.13-.46,0-1.69-.38-1.6-.98.03-.22.84-1.23,1.04-1.33.24-.11.55-.01.82-.05Z"/>
      <path class="k" d="M58.05,50.97l-6.32,6.08-1.18-1.35,5.5-5.39.19-.03c.51.4,1.15.63,1.81.68Z"/>
      <path class="k" d="M22.77,55.75l-1.05,1.3-6.32-6.08c.28-.01.57-.08.83-.17.24-.09.95-.55,1.08-.48l5.46,5.43Z"/>
      <path class="k" d="M16.79,49.27c.02.63-1.36.97-1.86.89-.92-.14-2.18-2.11-2.33-3.02,1.06.3,2.08.78,3.21.72.23.46.97.86.98,1.41Z"/>
      <path class="k" d="M17.62,37.93c.4.46,1.78,2.34,1.74,2.88-.03.29-.3,1-.42,1.31-.38,1.06-1.8,3.93-2.69,4.53-1.19.81-2.82-.13-3.98-.58-.7-3.59.04-7.41,1.42-10.76,1.54.56,2.84,1.38,3.93,2.61Z"/>
      <path class="k" d="M19.91,37.51l8.57-2.8c-1.1,2.63-3.44,4.12-6.11,4.91-.4.12-1.91.53-2.22.48-.26-.04-.71-1.22-.99-1.46-.05-.21.54-1.02.75-1.13Z"/>
      <path class="k" d="M25.77,27.84c.04.13-.03.14-.09.22-.32.46-1,1.09-1.39,1.56-2.1,2.6-3.93,5.4-5.71,8.21-1.2-1.5-2.78-2.75-4.67-3.21,1.57-4.58,6.92-8.57,11.86-6.78Z"/>
      <path class="k" d="M53.6,37.54l.69,1.02-.88,1.53c-3.39-.38-7.16-1.99-8.45-5.38l8.63,2.83Z"/>
      <path class="k" d="M59.45,34.62c-1.9.49-3.43,1.75-4.66,3.21-2.1-3.53-4.49-6.9-7.2-10,4.92-1.78,10.38,2.17,11.86,6.78Z"/>
      <path class="k" d="M59.79,35.32c1.21,3.4,2.02,7.08,1.36,10.69-1.06.55-3.09,1.51-4.15.57-.92-.82-2.7-4.39-2.92-5.61-.08-.44.17-.8.38-1.19,1.14-2.06,3.04-3.78,5.33-4.46Z"/>
      <path class="k" d="M42.17,46.93c-.15,2.28.58,4.88.35,7.13-.1.95-1.21.84-1.53.13-.47-1.04.31-3.95.45-5.19.02-.15-.07-.29-.06-.41.1-.94.3-1.88.26-2.83l.7.09c-.03.35-.15.75-.18,1.09Z"/>
      <path class="k" d="M32,48.61c.17,1.5.66,3.85.49,5.27-.05.37-.3.73-.68.8-.86.15-.95-.21-.99-.97-.12-2.33.6-4.83.34-7.21-.02-.22-.09-.45-.16-.67l.69-.09c.06.96.19,1.91.3,2.86Z"/>
      <path class="k" d="M51.77,58.99c0,.46-.43,1.78-.58,2.3-1.07,3.53-3.81,8.46-6.7,10.8-1.78,1.44-3.26,1.41-5.49,1.48-2,.07-6.79.19-8.51-.48-3.67-1.43-8.33-10-8.79-13.76-.03-.23-.06-.39.03-.63.12-.34,1.06-1.52,1.35-1.87,1.26-1.52,2.93-2.97,4.63-3.99.28-.17,2.32-1.3,2.44-1.18-.01,1-.48,3.17.62,3.68.98.46,2.12.04,2.46-1.01.39-1.19-.1-2.51-.11-3.72,2.4-.49,4.84-.47,7.24,0-.26,1.53-.93,5.02,1.59,4.93,2.02-.07,1.22-2.53,1.38-3.76.01-.1-.04-.18.12-.13,1.58.47,4.4,2.57,5.59,3.74.51.49,2.74,3.03,2.74,3.59ZM49.6,59.45c.04-.44-.37-2.19-.99-2.03-.6.35-.03.91.09,1.44.05.22,0,.44.04.65.13.61.81.49.86-.06ZM48.59,63.05c.14-.37.99-2.21-.07-1.89-.12.03-.17.12-.22.22-.25.48-.45,1.34-.7,1.91-1.4,3.24-3.12,6.76-6.78,7.76-.43.12-1.9.22-1.96.67-.11.76,1.13.35,1.58.26,4.44-.92,6.63-5.01,8.16-8.91ZM44.31,55.4c.15-.4.4-1.69.11-1.98-.15-.15-.53-.11-.64.07-.11.18-.01.64-.05.9-.28,1.81-2.07,2.7-3.48,1.41-.84-.78-.33-1.81-.63-2.11-.49-.49-.77.38-.77.81,0,2.86,4.33,3.83,5.46.91ZM34.48,72.07c.76-.75-1.59-.94-1.93-1.03-3.62-.96-5.4-4.67-6.78-7.85-.17-.38-.64-1.96-.92-2.04-.4-.12-.57.15-.52.51.22,1.41,2.08,4.8,2.89,6.08,1.44,2.25,2.75,3.5,5.43,4.15.35.09,1.6.4,1.83.18ZM29.14,55.49c1.3,3.07,5.94,1.56,5.36-1.52-.07-.4-.64-.56-.76-.16-.07.25.01.64-.03.93-.13,1.08-1.35,1.75-2.38,1.61-.75-.1-1.48-.89-1.6-1.62-.06-.35.13-1.49-.48-1.41-.75.11-.3,1.7-.1,2.16ZM24.75,58.69c.11-.39.49-.78.21-1.18-.56-.36-.81.37-.94.8-.14.45-.48,1.85.38,1.6.31-.09.26-.88.35-1.22Z"/>
      <path class="i" d="M44.62,21.3l-4.61,3.89,1.46,5.67c-1.23-.87-2.53-1.68-3.74-2.57-.41-.3-.48-.68-1.1-.65-.46.02-.51.33-.83.57-1.27.92-2.6,1.76-3.88,2.66l1.49-5.65-4.67-3.91h5.8l2.18-6.08,1.9,5.67.29.41h5.71Z"/>
      <path class="i" d="M30.37,40.3c3.39-.53,3.88,4.31.91,4.74-3.3.47-3.81-4.28-.91-4.74Z"/>
      <path class="i" d="M42.07,40.3c3.36-.53,3.88,4.27.92,4.74-3.33.52-3.81-4.28-.92-4.74Z"/>
    </g>
  </g>
</svg>