<?xml version="1.0" encoding="UTF-8"?>
<svg id="b" data-name="Layer 2" xmlns="http://www.w3.org/2000/svg" viewBox="0 0 73.48 123.14">
  <defs>
    <style>
      .d {
        fill: #c8bab8;
        stroke-width: .5px;
      }

      .d, .e, .f, .g {
        stroke: #332626;
        stroke-linecap: round;
        stroke-linejoin: round;
      }

      .h {
        fill: #f1709a;
      }

      .e, .f, .g {
        stroke-width: .34px;
      }

      .e, .i {
        fill: #ebe3e4;
      }

      .f, .j {
        fill: #fff;
      }

      .g {
        fill: none;
      }

      .k {
        fill: #b2928e;
      }
    </style>
  </defs>
  <g id="c" data-name="Layer 1">
    <g>
      <g>
        <rect class="d" x="3.65" y="120.17" width="69.57" height="2.71"/>
        <rect class="f" x="3.65" y="8.48" width="69.57" height="91.12"/>
        <rect class="f" x="3.65" y="6.75" width="69.57" height="1.82"/>
        <g>
          <rect class="i" x="11.26" y="99.59" width="1.3" height="22.06" transform="translate(23.82 221.25) rotate(-180)"/>
          <rect class="k" x="11.26" y="99.59" width="1.3" height="1.3" transform="translate(23.82 200.49) rotate(-180)"/>
          <rect class="g" x="11.26" y="99.59" width="1.3" height="22.06" transform="translate(23.82 221.25) rotate(-180)"/>
        </g>
        <g>
          <rect class="i" x="29.31" y="99.59" width="1.3" height="22.06" transform="translate(59.91 221.25) rotate(-180)"/>
          <rect class="k" x="29.31" y="99.59" width="1.3" height="1.3" transform="translate(59.91 200.49) rotate(-180)"/>
          <rect class="g" x="29.31" y="99.59" width="1.3" height="22.06" transform="translate(59.91 221.25) rotate(-180)"/>
        </g>
        <g>
          <rect class="i" x="47.35" y="99.59" width="1.3" height="22.06" transform="translate(96.01 221.25) rotate(-180)"/>
          <rect class="k" x="47.35" y="99.59" width="1.3" height="1.3" transform="translate(96.01 200.49) rotate(-180)"/>
          <rect class="g" x="47.35" y="99.59" width="1.3" height="22.06" transform="translate(96.01 221.25) rotate(-180)"/>
        </g>
        <g>
          <rect class="i" x="65.4" y="99.59" width="1.3" height="22.06" transform="translate(132.1 221.25) rotate(-180)"/>
          <rect class="k" x="65.4" y="99.59" width="1.3" height="1.3" transform="translate(132.1 200.49) rotate(-180)"/>
          <rect class="g" x="65.4" y="99.59" width="1.3" height="22.06" transform="translate(132.1 221.25) rotate(-180)"/>
        </g>
        <rect class="f" x="3.65" y="102.46" width="69.57" height="2.49"/>
        <rect class="e" x="3.65" y="104.96" width="69.57" height="1.01"/>
        <path class="f" d="M2.29,1.79L4.4.17v84.58c0,1.97,1.6,3.57,3.57,3.57h4.59s0-2.29,0-2.29l7.44,4.29-7.44,4.29v-2.07s-4.59,0-4.59,0c-4.3,0-7.8-3.5-7.8-7.8V.17s2.11,1.62,2.11,1.62Z"/>
      </g>
      <polygon class="h" points="22.51 57.9 9.67 58 9.43 46.48 13.85 46.4 13.85 46.4 13.93 51.16 17.41 51.14 17.4 46.39 22.22 46.29 22.51 57.9"/>
      <g>
        <g>
          <path d="M25.23,81.96l-.42.12s-.07.02-.1.02c-.1,0-.13-.06-.15-.17-.06-.41-.25-.62-.57-.62s-.61.24-.67.57c-.06.31.06.56.41.9l.32.31c.53.5,1.05.9.87,1.8-.17.86-.9,1.43-1.83,1.43-1.44,0-1.45-1.24-1.41-1.43.02-.11.13-.19.25-.22l.34-.1c.07-.02.12-.03.17-.03.09,0,.13.05.13.18.03.52.28.78.68.78.38,0,.69-.26.77-.64.06-.36-.06-.59-.62-1.11l-.48-.45c-.39-.36-.63-.8-.52-1.42.16-.82.89-1.39,1.75-1.39,1.17,0,1.32,1.1,1.29,1.27-.02.1-.1.17-.21.21Z"/>
          <path d="M28.13,86.23h-.42c-.16,0-.23-.1-.23-.23v-.77c0-.14-.1-.24-.24-.24h-.75c-.12,0-.27.13-.31.24l-.3.78c-.06.13-.17.22-.31.22h-.41c-.13,0-.18-.11-.13-.23l2.02-5.22c.06-.14.16-.21.3-.21h.75c.17,0,.24.08.24.23l.03,5.2c0,.14-.1.23-.24.23ZM27.42,81.91l-.77,2.08c-.06.13.03.21.16.21h.45c.14,0,.23-.07.23-.22l.02-2.07c0-.06-.06-.07-.1,0Z"/>
          <path d="M29.92,86.02c-.02.11-.16.21-.27.21h-.43c-.11,0-.21-.1-.18-.21l1.01-5.22c.02-.13.14-.22.27-.22h.44c.1,0,.2.1.18.21l-1.02,5.23Z"/>
          <path d="M34.13,86.01c-.02.11-.15.22-.27.22h-.43c-.16,0-.25-.1-.27-.23l-.66-2.95c-.02-.11-.08-.1-.1,0l-.57,2.95c-.03.13-.14.23-.28.23h-.43c-.13,0-.21-.09-.18-.22l1.01-5.21c.02-.13.13-.23.27-.23h.43c.14,0,.25.1.27.22l.67,2.96c.02.11.07.1.1,0l.57-2.95c.02-.13.13-.23.27-.23h.43c.13,0,.21.08.18.22l-1.01,5.22Z"/>
          <path d="M38.69,81.23c-.02.13-.14.22-.27.22h-.64c-.12,0-.25.1-.27.23l-.85,4.33c-.02.12-.15.22-.27.22h-.43c-.12,0-.2-.1-.18-.22l.85-4.34c.02-.11-.09-.22-.19-.22h-.64c-.12,0-.2-.11-.17-.23l.08-.43c.02-.12.15-.22.27-.22h2.62c.12,0,.2.1.17.22l-.08.44Z"/>
          <path d="M42.58,82.4c-.13.17-.17.28-.14.44l.59,3.16c.02.12-.06.23-.18.23h-.51c-.17,0-.24-.07-.26-.23l-.36-2.21c0-.06-.09-.08-.15-.08-.13,0-.45.33-.56.89l-.28,1.41c-.02.13-.14.22-.27.22h-.42c-.11,0-.21-.1-.18-.22l1.01-5.22c.02-.13.15-.22.27-.22h.42c.13,0,.21.1.18.23l-.37,1.89c-.02.09.06.08.12,0l1.39-1.89c.11-.14.23-.23.4-.23h.48c.13,0,.13.13.05.23l-1.24,1.6Z"/>
          <path d="M46.5,83.56c-.16.1-.21.15-.18.29l.29,2.16c.02.12-.08.23-.2.23h-.47c-.17,0-.24-.08-.25-.23l-.25-1.86c-.02-.16-.08-.22-.25-.22h-.08c-.15,0-.25.07-.28.22l-.36,1.87c-.02.13-.13.22-.26.22h-.44c-.13,0-.2-.1-.17-.22l1.01-5.21c.02-.12.15-.23.27-.23h1.16c1.05,0,1.51.56,1.3,1.62-.12.63-.4,1.09-.84,1.37ZM45.7,81.38h-.1c-.13,0-.25.1-.28.23l-.25,1.27c-.02.13.06.23.19.23h.1c.67,0,.94-.23,1.06-.87.13-.63-.06-.86-.73-.86Z"/>
          <path d="M48.32,86.02c-.02.11-.16.21-.27.21h-.43c-.11,0-.21-.1-.18-.21l1.01-5.22c.02-.13.14-.22.27-.22h.44c.1,0,.2.1.18.21l-1.02,5.23Z"/>
          <path d="M51.97,86.01c-.02.13-.13.22-.26.22h-2.17c-.12,0-.21-.1-.18-.22l1.01-5.21c.02-.13.13-.23.27-.23h.42c.13,0,.22.09.19.23l-.86,4.39c-.02.13.04.23.17.23h1.3c.15,0,.21.08.17.23l-.07.36Z"/>
          <path d="M55.14,86.01c-.02.13-.13.22-.26.22h-2.17c-.12,0-.21-.1-.18-.22l1.01-5.21c.02-.13.13-.23.27-.23h.42c.13,0,.22.09.19.23l-.86,4.39c-.02.13.04.23.17.23h1.3c.15,0,.21.08.17.23l-.07.36Z"/>
          <path d="M26.67,93.56c-.02.13-.13.22-.26.22h-2.17c-.12,0-.21-.1-.18-.22l1.01-5.21c.02-.13.13-.23.27-.23h.42c.13,0,.22.09.19.23l-.86,4.39c-.02.13.04.23.17.23h1.3c.15,0,.21.08.17.23l-.07.36Z"/>
          <path d="M30.55,91.98c-.13.64-.29,1.03-.59,1.34-.34.36-.8.55-1.33.55s-.94-.2-1.12-.55c-.17-.33-.19-.7-.06-1.34l.4-2.05c.13-.64.3-1.04.59-1.35.33-.36.78-.54,1.32-.54s.94.19,1.13.54c.17.33.18.71.06,1.35l-.4,2.05ZM29.61,88.86c-.5,0-.72.28-.88,1.09l-.4,2.03c-.15.8-.05,1.08.46,1.08s.72-.28.87-1.08l.4-2.03c.16-.81.04-1.09-.45-1.09Z"/>
          <path d="M34.57,89.97h-.43c-.14,0-.19-.1-.17-.23.09-.58-.08-.89-.5-.89-.48,0-.7.3-.86,1.12l-.33,1.72c-.2,1.01-.08,1.36.43,1.36.45,0,.71-.33.86-1.09.02-.15,0-.27-.18-.27h-.26c-.13,0-.2-.1-.17-.23l.05-.25c.03-.14.13-.24.27-.24h1.14c.11,0,.22.1.19.23l-.46,2.36c-.02.13-.17.22-.28.22h-.43c-.2,0-.15-.15-.21-.15-.03,0-.08.03-.12.06-.21.13-.43.18-.7.18-.52,0-.91-.25-1.05-.67-.12-.37-.1-.71.05-1.51l.3-1.55c.18-.93.29-1.23.63-1.57.33-.35.79-.53,1.31-.53,1.04,0,1.4.74,1.21,1.71-.03.14-.13.22-.27.22Z"/>
          <path d="M36.04,93.57c-.02.11-.16.21-.27.21h-.43c-.11,0-.21-.1-.18-.21l1.01-5.22c.02-.13.14-.22.27-.22h.44c.1,0,.2.1.18.21l-1.02,5.23Z"/>
          <path d="M40.57,89.52l-.42.12s-.07.02-.1.02c-.1,0-.13-.06-.15-.17-.06-.41-.25-.62-.57-.62s-.61.24-.67.57c-.06.31.06.56.41.9l.32.31c.53.5,1.05.9.87,1.8-.17.86-.9,1.43-1.83,1.43-1.43,0-1.45-1.24-1.41-1.43.02-.11.13-.19.25-.22l.34-.1c.07-.02.12-.03.17-.03.09,0,.13.05.13.18.03.52.28.78.68.78.38,0,.69-.26.77-.64.06-.36-.06-.59-.62-1.11l-.48-.45c-.39-.36-.63-.8-.52-1.42.16-.82.89-1.39,1.75-1.39,1.17,0,1.32,1.1,1.29,1.27-.02.1-.1.17-.21.21Z"/>
          <path d="M44.32,88.78c-.02.13-.14.22-.27.22h-.64c-.12,0-.25.1-.27.23l-.85,4.33c-.02.12-.15.22-.27.22h-.43c-.12,0-.2-.1-.18-.22l.85-4.34c.02-.11-.09-.22-.19-.22h-.64c-.12,0-.2-.11-.17-.23l.08-.43c.02-.12.15-.22.27-.22h2.62c.12,0,.2.1.17.22l-.08.44Z"/>
          <path d="M44.9,93.57c-.02.11-.16.21-.27.21h-.43c-.11,0-.21-.1-.18-.21l1.01-5.22c.02-.13.14-.22.27-.22h.44c.1,0,.2.1.18.21l-1.02,5.23Z"/>
          <path d="M49.38,89.97h-.4c-.12,0-.2-.1-.18-.22.09-.59-.09-.9-.51-.9-.48,0-.7.3-.86,1.11l-.36,1.87c-.18.91-.07,1.22.41,1.22.44,0,.74-.34.89-1.04.03-.13.14-.22.28-.22h.4c.14,0,.22.09.19.23-.23,1.2-.9,1.85-1.91,1.85-.56,0-.98-.24-1.14-.63-.14-.37-.14-.67.02-1.52l.3-1.58c.18-.93.3-1.23.63-1.57.33-.35.79-.53,1.31-.53.96,0,1.42.65,1.21,1.71-.02.12-.17.22-.29.22Z"/>
          <path d="M53.23,89.52l-.42.12s-.07.02-.1.02c-.1,0-.13-.06-.15-.17-.06-.41-.25-.62-.57-.62s-.61.24-.67.57c-.06.31.06.56.41.9l.33.31c.53.5,1.05.9.87,1.8-.17.86-.9,1.43-1.83,1.43-1.44,0-1.45-1.24-1.41-1.43.02-.11.13-.19.25-.22l.34-.1c.07-.02.12-.03.17-.03.09,0,.13.05.13.18.03.52.28.78.68.78.38,0,.69-.26.77-.64.06-.36-.06-.59-.62-1.11l-.48-.45c-.39-.36-.63-.8-.52-1.42.16-.82.89-1.39,1.75-1.39,1.17,0,1.32,1.1,1.29,1.27-.02.1-.1.17-.21.21Z"/>
        </g>
        <g>
          <path d="M9.04,58.65l-.27-12.8,5.71-.11.08,4.77,2.21-.02v-4.74s6.08-.12,6.08-.12l.32,12.9-14.13.11ZM10.09,47.11l.21,10.23,11.55-.09-.26-10.31-3.54.07v4.76s-4.76.04-4.76.04l-.08-4.76-3.12.06Z"/>
          <g>
            <path class="j" d="M31.04,36.66c4.49-.71,4.72,6.23.09,5.67-3.05-.37-3.11-5.19-.09-5.67Z"/>
            <path d="M51.77,37.92c-.25-.74.19-1.4-.78-1.48-1.39-.13-2.85.09-4.23.1-2.82.03-5.65-.04-8.46,0-1.25.01-2.68.28-3.94.1-.73-.1-1.43-.99-2.75-.99-.84,0-1.43.5-2.07.59-3.55.54-7.68-2.76-9.08-5.86-3.11-6.91,4.01-11.16,10.07-11.15,8.26,0,16.61.75,24.88.89.77.01,1.94.09,2.66,0,.3-.03.75-.76.81-1.06.21-1.08-1.15-1.66-2.05-1.6.18-1.08-.41-1.57-1.43-1.67l-27.94-.59c-4.96.42-10.21,3.5-11.7,8.46-1.52,5.08,1.08,9.77,5.26,12.54-.91.43-.19,1.51.15,2.11,2.01,3.45,6.22,5.92,9.83,7.38.25.18.99,2.15.92,2.26-1.37.57-2.88,1.05-4.07,1.95l-3.37-2.75s-1.86-1.45-2.08-1.51c-1.55-.41-1.84,1.16-1.52,2.31.51,1.86,2.86,5.61,2.86,5.61.52.95,3.48,3.99,3.48,3.99.34.3,2.02,1.81,2.14.57.1-.94-2.43-4.23-2.73-5.35.45.08.78.65,1.24.69.27.02.39-.15.48-.15,2.82-.08,4.81-.6,7.33-1.87.49-.25.63-.6,1.28-.34-.99,1.22-2.38,2.11-3.15,3.5-1.32.05-5.17-1.23-4.38,1.43.39,1.33,3.94,3.1,5.25,3.41.55.13,3.37.66,2.59-.62-.22-.35-2.83-1.52-2.76-1.66.09-.14.19-.14.34-.15.61-.07,1.35-.41,1.95-.7,2.15-1.04,3.92-2.71,5.45-4.52l.42.05c-.51.72-1.1,1.41-1.59,2.14-.65.98-1.56,2.22,0,2.9,1.5.65,4.34,1.08,5.91.65.45-.13,1.35-.6.76-1.12-.24-.21-1.38-.34-1.83-.54-.19-.08-1.28-.75-1.28-.88.82-.81,1.31-1.85,1.72-2.9,3.47,2.78,5.61,6.99,4.4,11.48-.9,3.36-3.75,5.71-7,6.67l-15.59-3.69c-.55.08-.5.43-.41.88.21,1.1,1.45,2.34,2.32,2.99l1.86,1.14c-1.64.14-3.43.71-4.79,1.65-.45.31-2.28,1.7-1.46,2.29l19.77.09c8.21-.94,15.73-6.48,18.17-14.48,3.03-9.89-2.42-19.69-11.88-23.18ZM27.73,56.7c-2.2-2.07-4.03-4.59-5.21-7.38l2.8,2.37.55,1.61,1.86,3.41ZM27.33,51.98c-.07.08-.39-.2-.48-.26-.47-.32-.99-.75-1.44-1.12-.66-.54-3.46-2.83-3.65-3.43-.34-1.14.55-.55,1.03-.24,1.57,1.02,2.95,2.58,4.49,3.66.29.35-.07.92.05,1.39ZM30.28,55.23c.21.01.43-.01.65,0,.65.04,2.35.17,2.9.35.23.07.41.34.59.5,0,.03-.23.15-.25.15-.53,0-1.15.04-1.67,0-.33-.03-.9-.15-1.23-.25-.37-.11-.93-.32-.99-.74ZM34.52,58.22c.12.08.25.15.39.15.03.17-.23.1-.32.08-.93-.2-2.1-.85-2.83-1.45.37.14.89.02,1.21.12.1.03,1.29.94,1.55,1.1ZM31.04,36.66c4.49-.71,4.72,6.23.09,5.67-3.05-.37-3.11-5.19-.09-5.67ZM16.32,27.89c-.74-6.08,4.2-10.57,9.81-11.57.99-.18,1.5-.12,2.43-.13,6.23-.02,12.46.26,18.68.39,2.52.06,5.41-.12,7.88.09.32.03.54.13.83.21.15.19-.49.46-.65.48-1.25.19-2.68-.08-3.92-.1-6.92-.12-13.84-.23-20.76-.39-1.23-.03-2.12-.26-3.41-.08-4.72.68-9.5,4.08-10.57,8.91l-.32,2.18ZM17.72,25.21c1.29-4.29,6.45-7.63,10.84-7.55,7.4.12,14.83.4,22.22.6,1.96.05,4.06-.08,6.01.09.37.03,1.25.12,1.14.63-.03.14-1.21.26-1.43.26-7.09-.05-14.24-.61-21.34-.8-3.64-.1-7.15-.43-10.57,1.04-6.75,2.9-7.62,10.17-2.17,14.95.77.68,1.68,1.16,2.46,1.82-.53-.1-1.56.13-2.02,0-.09-.03-1.41-.9-1.61-1.05-3.17-2.18-4.65-6.24-3.52-9.99ZM36.77,49.38c-1.11,1.56-4.27,2.48-6.1,2.85-.46.1-1.91.46-2.24.12-.23-.23-.18-1.31-.05-1.62.15-.34.9-.66,1.24-.83,1.55-.77,5.04-2.28,6.69-2.04.85.12.9.89.45,1.52ZM42,50.38c-.16.37-.36.46-.55.73-.99,1.46-2.55,2.97-4.1,3.87-.63.37-1.5.94-2.19.54-.71-.43-.46-.71-.06-1.21.95-1.21,3.72-3.81,4.97-4.77.3-.24.81-.55,1.2-.57.94-.05,1.05.7.73,1.42ZM45.73,56.7l-.84.1-2.01-.34,1.13-.74c.57.33,1.06.82,1.72.98ZM45.38,52.08c-.44,1.1-1.05,2.08-1.97,2.85-.54.46-1.47,1.14-2.2.88-.07-.37.19-.66.36-.95.45-.74,2.92-4.02,3.53-4.34.19-.1.39-.15.61-.1.3.19-.22,1.37-.34,1.66ZM46.21,49.61c-.72-.35-1.21-.15-1.81.3-.46.35-.77,1.09-1.43.98.03-.88.39-1.74-.39-2.41-1.01-.87-2.18-.33-3.1.35-.31.23-1.59,1.54-1.75,1.54-.13,0-.31-.11-.46-.07.18-.49.62-.77.69-1.33.35-2.94-3.44-2.04-5.12-1.43-.51-1.02-.47-2.22-1.57-2.81-.52-.28-1.21-.45-1.75-.72-1.5-.74-2.9-1.52-4.21-2.58-1.42-1.15-2.92-2.66-3.69-4.32h6.98c-.14.43-.46.79-.59,1.23-.54,1.73.24,3.63,1.82,4.48,3.41,1.85,7.05-2.02,5.07-5.32l15.82-.18c.01.07.12.19.12.23v2.36c0,.35-.33,1.5-.45,1.92-.79,2.86-2.5,5.37-4.19,7.76ZM50.76,55.99c-.75-1.62-1.97-2.95-3.27-4.15-.13-.12-.74-.52-.77-.55-.08-.13.05-.36.06-.53,0-.1-.07-.21-.06-.3.01-.21,2.1-2.99,2.43-3.55.93-1.57,1.83-3.44,2.26-5.22.19-.78.21-1.89.42-2.54.03-.11-.07-.17.15-.14.17.02.75.31.97.41,3.78,1.66,7.25,5.06,9,8.8.15.32.68,1.47.67,1.74,0,.4-.4,1.26-.61,1.64-1.95,3.61-7.35,5.59-11.24,4.4ZM26.94,74.7c-.2-.17,1.06-.95,1.19-1.03,1.16-.67,2.95-1.22,4.28-1.32.55-.05,2.06.12,2.39-.17.27-.23.19-.71-.1-.88-.3-.17-1.42-.31-1.89-.47-1.6-.54-3.17-1.7-4.01-3.17l.15-.05,13.42,3.25c-1.32,1.17-1.46,2.61-.1,3.84h-15.34ZM50.3,73.52c-1.52.54-4.32,1.34-5.88,1.05-.97-.17-2.59-.92-2.11-2.15.46-1.17,2.28-1.45,3.31-1.9,2.59-1.12,4.63-3.17,5.75-5.75,1.86,2.05,4.76,3.19,7.53,2.85-2.17,2.68-5.35,4.75-8.61,5.9ZM61.28,64.34c-.19.34-1.12,1.92-1.32,2.06-.48.34-2.27.38-2.87.33-1.54-.14-3.66-1.12-4.72-2.26-.12-.12-.6-.75-.62-.86-.05-.23.25-1.28.27-1.65.13-1.69-.21-3.26-.68-4.86,3.67.72,8.1-.85,10.52-3.69.48-.57.81-1.24,1.28-1.82.96,4.37.29,8.85-1.85,12.75Z"/>
          </g>
          <rect x="13.29" y="45.78" width="5.86" height="1.29"/>
          <g>
            <path d="M51.77,37.92c-.25-.74.2-1.4-.78-1.48-1.39-.13-2.85.09-4.23.11-2.82.03-5.65-.04-8.47,0-1.25.01-2.68.28-3.93.11-.73-.1-1.44-1-2.75-1-.84,0-1.43.49-2.07.59-3.55.54-7.68-2.76-9.08-5.86-3.11-6.91,4.01-11.16,10.07-11.15,8.26,0,16.61.75,24.88.89.77.01,1.94.09,2.67,0,.3-.04.75-.77.81-1.06.21-1.08-1.15-1.66-2.05-1.6.18-1.08-.41-1.57-1.43-1.67l-27.94-.6c-4.96.42-10.21,3.5-11.7,8.46-1.52,5.08,1.08,9.77,5.26,12.54-.91.43-.19,1.51.16,2.11,2.01,3.45,6.22,5.92,9.83,7.38.25.18,1,2.15.93,2.25-1.37.57-2.88,1.05-4.07,1.96l-3.37-2.76s-1.88-1.45-2.08-1.51c-1.55-.41-1.84,1.16-1.52,2.31.51,1.86,1.86,3.87,2.85,5.51,0,0,.41.52.56.75.11.17,2.93,3.34,2.93,3.34.34.3,2.02,1.81,2.14.57.09-.93-2.43-4.22-2.73-5.35.44.08.78.65,1.24.69.27.02.38-.15.48-.15,2.82-.08,4.81-.6,7.33-1.87.49-.25.63-.61,1.28-.34-.99,1.22-2.38,2.11-3.15,3.5-1.32.05-5.17-1.23-4.38,1.43.39,1.33,3.94,3.1,5.25,3.41.55.13,3.37.66,2.58-.62-.22-.35-2.82-1.52-2.76-1.66.09-.13.2-.13.34-.15.61-.07,1.36-.41,1.96-.7,2.15-1.04,3.92-2.71,5.44-4.51l.42.05c-.51.72-1.11,1.41-1.59,2.14-.65.98-1.56,2.22,0,2.9,1.5.66,4.34,1.08,5.91.64.45-.12,1.35-.6.76-1.12-.24-.21-1.38-.34-1.83-.53-.19-.08-1.28-.75-1.28-.89.82-.81,1.31-1.85,1.72-2.9,3.47,2.78,5.61,6.99,4.4,11.48-.9,3.36-3.76,5.71-7,6.67l-15.58-3.69c-.55.09-.49.43-.41.89.21,1.1,1.45,2.34,2.33,2.98l1.86,1.14c-1.64.14-3.44.71-4.79,1.65-.45.31-2.28,1.71-1.46,2.29l19.77.09c8.21-.93,15.72-6.47,18.17-14.48,3.03-9.89-2.42-19.69-11.88-23.19ZM27.72,56.7c-2.2-2.07-4.03-4.59-5.21-7.38l2.8,2.36.56,1.61,1.85,3.41ZM27.33,51.98c-.07.08-.39-.2-.48-.26-.47-.32-.99-.76-1.44-1.12-.66-.54-3.46-2.83-3.65-3.44-.34-1.14.55-.55,1.03-.24,1.57,1.02,2.95,2.58,4.49,3.67.29.35-.08.92.04,1.38ZM30.28,55.23c.21.01.43-.02.64,0,.65.03,2.35.17,2.9.34.23.07.41.34.58.5.01.03-.23.15-.25.15-.53,0-1.15.04-1.67,0-.33-.03-.9-.15-1.23-.25-.36-.11-.93-.31-.98-.74ZM34.52,58.22c.12.08.24.14.39.15.02.17-.22.1-.32.07-.93-.2-2.1-.85-2.83-1.45.37.14.89.02,1.21.12.1.03,1.29.94,1.55,1.11ZM31.04,36.66c4.49-.71,4.72,6.23.09,5.67-3.05-.37-3.11-5.19-.09-5.67ZM16.32,27.88c-.73-6.08,4.2-10.56,9.82-11.57.98-.18,1.49-.12,2.42-.13,6.23-.02,12.47.26,18.69.39,2.52.06,5.4-.12,7.88.09.31.03.54.13.83.2.15.2-.49.46-.65.48-1.25.19-2.68-.07-3.92-.1-6.92-.12-13.84-.23-20.76-.39-1.23-.03-2.12-.26-3.41-.08-4.72.68-9.5,4.08-10.57,8.91l-.33,2.18ZM17.72,25.21c1.29-4.29,6.45-7.63,10.85-7.56,7.4.12,14.82.4,22.22.6,1.96.05,4.06-.07,6.01.09.37.03,1.25.12,1.13.63-.03.14-1.21.26-1.43.26-7.09-.04-14.25-.6-21.34-.8-3.63-.1-7.15-.43-10.57,1.04-6.75,2.89-7.62,10.17-2.17,14.95.77.68,1.68,1.16,2.46,1.82-.53-.1-1.56.13-2.02,0-.09-.03-1.41-.9-1.61-1.04-3.17-2.18-4.65-6.24-3.52-10ZM36.77,49.38c-1.11,1.56-4.27,2.49-6.1,2.85-.47.09-1.91.46-2.24.12-.23-.24-.18-1.31-.05-1.62.15-.34.9-.66,1.24-.83,1.55-.77,5.04-2.28,6.7-2.04.85.12.9.89.45,1.51ZM42.01,50.38c-.16.37-.37.46-.55.73-.99,1.45-2.55,2.96-4.1,3.87-.63.37-1.5.94-2.19.53-.71-.42-.46-.71-.06-1.21.96-1.21,3.72-3.81,4.97-4.77.31-.24.81-.55,1.2-.57.94-.05,1.05.7.73,1.42ZM45.72,56.7l-.83.1-2.02-.34,1.13-.74c.57.33,1.06.82,1.72.98ZM45.38,52.08c-.44,1.1-1.05,2.08-1.97,2.85-.55.46-1.47,1.14-2.2.88-.07-.37.19-.66.36-.95.45-.74,2.91-4.02,3.53-4.34.2-.1.39-.16.61-.1.3.19-.22,1.37-.33,1.66ZM46.21,49.62c-.72-.35-1.21-.16-1.81.3-.46.36-.78,1.09-1.43.98.03-.88.39-1.74-.39-2.41-1.01-.87-2.18-.33-3.1.35-.31.23-1.59,1.55-1.75,1.55-.13,0-.31-.11-.47-.07.18-.49.62-.77.69-1.32.35-2.94-3.44-2.04-5.11-1.43-.51-1.02-.47-2.22-1.57-2.81-.52-.28-1.2-.45-1.74-.71-1.5-.73-2.9-1.52-4.21-2.58-1.42-1.15-2.91-2.66-3.69-4.32h6.98c-.14.43-.46.79-.6,1.22-.54,1.73.24,3.63,1.82,4.48,3.41,1.84,7.05-2.01,5.07-5.31l15.82-.18c.01.07.11.19.11.23v2.36c0,.35-.33,1.5-.44,1.92-.79,2.87-2.49,5.37-4.19,7.76ZM50.77,55.99c-.76-1.62-1.97-2.95-3.27-4.16-.13-.12-.75-.52-.77-.56-.07-.13.05-.36.06-.52,0-.1-.07-.21-.07-.3.01-.21,2.1-2.99,2.43-3.55.93-1.58,1.82-3.44,2.25-5.22.19-.78.21-1.89.42-2.53.04-.11-.07-.17.15-.14.17.02.76.31.97.41,3.78,1.67,7.25,5.06,9,8.8.15.32.68,1.47.67,1.74,0,.4-.4,1.27-.61,1.64-1.95,3.61-7.36,5.59-11.24,4.4ZM26.94,74.7c-.2-.17,1.06-.95,1.19-1.02,1.16-.67,2.95-1.22,4.28-1.32.55-.04,2.06.12,2.39-.16.27-.23.18-.71-.1-.88-.3-.17-1.42-.31-1.89-.47-1.6-.54-3.16-1.7-4.01-3.17l.15-.05,13.42,3.25c-1.32,1.17-1.47,2.61-.1,3.83h-15.34ZM50.3,73.52c-1.52.54-4.32,1.33-5.88,1.05-.97-.17-2.59-.92-2.11-2.16.46-1.17,2.28-1.46,3.31-1.9,2.59-1.12,4.62-3.17,5.76-5.75,1.86,2.05,4.76,3.19,7.52,2.85-2.17,2.68-5.35,4.75-8.6,5.9ZM61.28,64.34c-.19.34-1.12,1.92-1.32,2.07-.48.34-2.27.38-2.87.32-1.54-.14-3.67-1.12-4.72-2.26-.11-.12-.6-.75-.62-.86-.05-.22.25-1.28.27-1.65.13-1.69-.21-3.27-.69-4.87,3.67.72,8.1-.85,10.52-3.69.49-.57.82-1.23,1.28-1.82.96,4.37.29,8.85-1.85,12.75Z"/>
            <path d="M45.5,75.75l-19.85-.09-.04-.03c-.18-.13-.28-.31-.28-.52,0-.81,1.56-1.91,1.74-2.04,1.2-.83,2.78-1.42,4.4-1.63l-1.46-.89c-.79-.58-2.17-1.88-2.4-3.09-.06-.31-.11-.6.04-.82.1-.14.26-.22.5-.26h.03s.03,0,.03,0l15.54,3.68c3.47-1.04,6.03-3.48,6.85-6.54,1.07-3.97-.49-8.14-4.18-11.18-.38.93-.84,1.88-1.57,2.65.24.2.96.66,1.13.73.18.08.5.15.81.22.55.12.9.21,1.06.35.26.22.27.44.24.59-.1.43-.74.72-1.06.81-1.62.45-4.48.02-6.02-.65-.5-.22-.8-.51-.91-.88-.2-.69.31-1.46.77-2.14l.08-.12c.28-.42.6-.83.91-1.23.18-.23.36-.46.53-.69h-.06c-1.8,2.11-3.58,3.58-5.44,4.48-.64.31-1.38.64-2.01.71-.04,0-.07,0-.1.01.21.13.61.34.95.52.96.51,1.55.83,1.68,1.04.19.31.21.56.07.76-.47.65-2.73.13-2.83.1-1.19-.28-4.93-2.05-5.36-3.52-.18-.62-.14-1.1.14-1.42.58-.68,2.03-.48,3.2-.32.42.06.82.11,1.11.11.47-.82,1.16-1.48,1.83-2.11.38-.36.78-.74,1.13-1.14-.24-.04-.37.05-.57.19-.1.07-.21.15-.35.22-2.58,1.3-4.58,1.81-7.4,1.88,0,0-.02.02-.04.03-.09.05-.24.14-.46.12-.29-.02-.52-.21-.74-.38-.07-.05-.13-.11-.2-.15.23.5.67,1.22,1.1,1.93.8,1.31,1.56,2.54,1.5,3.12-.03.31-.15.51-.36.59-.4.16-1.05-.17-2.03-1.04l-.04-.03c-.47-.53-2.83-3.19-2.94-3.36-.14-.22-.54-.73-.55-.74-.15-.25-.3-.49-.45-.73-.93-1.51-1.99-3.21-2.43-4.83-.2-.74-.18-1.72.34-2.24.23-.23.65-.46,1.39-.27.02,0,1.79,1.18,2.14,1.54h0s3.28,2.67,3.28,2.67c.94-.68,2.05-1.12,3.12-1.54.26-.1.52-.21.78-.31-.09-.41-.68-1.88-.85-2.02-2.69-1.08-7.59-3.52-9.87-7.43l-.07-.12c-.29-.48-.68-1.14-.51-1.68.05-.16.14-.29.27-.39-4.56-3.12-6.52-7.92-5.12-12.58,1.6-5.34,7.26-8.19,11.84-8.58l27.95.59c.64.06,1.09.27,1.35.61.21.27.29.63.26,1.06.58.02,1.31.25,1.73.72.27.31.37.68.3,1.07-.06.32-.53,1.14-.95,1.19-.56.07-1.35.04-2.05.02-.23,0-.44-.01-.63-.02-3.71-.07-7.5-.25-11.16-.43-4.5-.22-9.16-.45-13.71-.46h-.02c-3.99,0-7.96,1.83-9.66,4.46-1.22,1.88-1.3,4.12-.25,6.47,1.42,3.15,5.52,6.28,8.91,5.77.24-.04.49-.14.75-.25.38-.16.82-.34,1.35-.34h0c.84,0,1.45.35,1.94.63.31.18.58.33.83.36.79.11,1.66.04,2.5-.03.47-.04.96-.08,1.41-.08,1.42-.02,2.87,0,4.26,0,1.38,0,2.8.02,4.2,0,.51,0,1.03-.04,1.54-.07.89-.06,1.81-.12,2.7-.03.8.07.82.54.83.96,0,.18.01.37.06.56,9.75,3.65,14.87,13.67,11.91,23.36-2.37,7.76-9.73,13.62-18.31,14.59ZM25.76,75.34l19.72.09c8.43-.96,15.68-6.73,18.02-14.37,2.92-9.54-2.14-19.43-11.78-22.99l-.07-.03-.02-.07c-.09-.26-.1-.51-.1-.72-.01-.43-.02-.6-.54-.65-.87-.08-1.78-.02-2.65.04-.51.03-1.05.07-1.56.07-1.4.02-2.83,0-4.21,0-1.4-.01-2.84-.02-4.26,0-.45,0-.9.04-1.39.08-.86.07-1.74.14-2.57.03-.32-.04-.62-.22-.95-.41-.48-.28-1.03-.59-1.78-.59h0c-.46,0-.85.16-1.22.32-.28.12-.54.23-.82.27-3.52.53-7.79-2.7-9.25-5.95-1.1-2.45-1.01-4.8.27-6.77,2.06-3.18,6.47-4.61,9.93-4.61h.02c4.56,0,9.22.24,13.72.46,3.66.18,7.45.37,11.15.43.19,0,.41.01.64.02.69.02,1.47.05,2-.02.19-.02.61-.65.67-.93.06-.29-.02-.56-.22-.8-.39-.44-1.15-.64-1.66-.61h-.2s.03-.19.03-.19c.07-.43.01-.76-.17-1-.2-.27-.58-.43-1.11-.48l-27.92-.59c-4.46.38-9.99,3.16-11.54,8.35-1.65,5.48,1.61,9.98,5.2,12.36l.24.16-.26.12c-.18.08-.28.19-.33.34-.12.4.24,1.01.48,1.42l.07.13c2.23,3.84,7.07,6.23,9.75,7.32.32.22.96,1.94,1.02,2.3.01.07.02.13-.03.19l-.03.04-.04.02c-.29.12-.59.24-.89.36-1.09.43-2.22.88-3.15,1.58l-.1.08-3.51-2.87c-.27-.22-1.79-1.37-1.99-1.44-.46-.12-.82-.06-1.07.19-.42.42-.43,1.3-.25,1.93.43,1.57,1.47,3.26,2.39,4.75.15.25.3.49.44.72,0,0,.4.52.55.74.09.14,1.79,2.06,2.92,3.32,1.17,1.04,1.58,1.04,1.7.99.09-.03.14-.14.16-.32.05-.47-.79-1.83-1.45-2.92-.58-.95-1.14-1.85-1.27-2.37l-.06-.24.25.04c.25.04.46.21.66.37.19.15.37.3.56.32.12.01.19-.03.27-.08.06-.03.12-.07.2-.07,2.76-.08,4.73-.58,7.26-1.85.12-.06.22-.13.32-.2.28-.19.54-.38,1.09-.15l.2.08-.14.17c-.4.49-.86.93-1.31,1.36-.67.64-1.37,1.3-1.82,2.11l-.04.08h-.09c-.32.02-.75-.04-1.25-.11-1.09-.15-2.45-.33-2.91.21-.2.23-.22.61-.07,1.12.37,1.24,3.87,3,5.13,3.3.9.21,2.26.34,2.49.02.07-.1,0-.27-.08-.4-.09-.15-1.01-.63-1.56-.92-1.15-.61-1.3-.69-1.21-.89.14-.21.29-.23.43-.24.61-.07,1.36-.41,1.94-.69,1.84-.89,3.6-2.35,5.39-4.47l.06-.07.78.09-.16.22c-.22.31-.46.62-.7.93-.3.39-.62.8-.89,1.21l-.08.12c-.41.62-.88,1.32-.73,1.87.08.28.32.5.73.68,1.49.65,4.29,1.06,5.8.64.31-.09.78-.33.83-.57,0-.03.03-.13-.14-.27-.11-.09-.57-.2-.92-.27-.34-.08-.66-.15-.87-.24-.01,0-1.38-.74-1.37-1.03v-.07s.05-.05.05-.05c.81-.8,1.29-1.84,1.68-2.85l.08-.2.17.14c3.91,3.14,5.58,7.49,4.46,11.65-.86,3.18-3.52,5.72-7.11,6.78h-.04s-.04,0-.04,0l-15.55-3.68c-.13.02-.22.06-.26.12-.08.11-.03.33.01.57.21,1.11,1.52,2.34,2.26,2.88l2.26,1.39-.49.04c-1.7.15-3.46.75-4.71,1.62-.64.44-1.6,1.28-1.6,1.78,0,.09.03.16.1.22ZM42.71,74.86h-15.83l-.05-.04c-.06-.05-.08-.12-.08-.19.03-.36,1.24-1.06,1.29-1.09,1.18-.68,2.97-1.23,4.35-1.34.18-.02.44,0,.74,0,.55.01,1.38.03,1.57-.12.08-.06.11-.17.1-.29-.01-.14-.08-.27-.18-.32-.15-.09-.59-.17-.98-.25-.34-.07-.66-.13-.88-.2-1.74-.59-3.27-1.8-4.09-3.25l-.1-.17.38-.13h.05s13.72,3.33,13.72,3.33l-.23.2c-.66.58-1.01,1.23-1.01,1.87,0,.61.31,1.19.91,1.73l.32.28ZM27.19,74.54h14.7c-.48-.52-.73-1.1-.73-1.69,0-.66.31-1.31.9-1.9l-12.97-3.14c.81,1.26,2.23,2.35,3.78,2.87.19.07.52.13.84.19.46.09.89.18,1.08.29.19.11.32.33.34.57.02.23-.06.43-.22.57-.26.22-.9.22-1.78.2-.28,0-.54-.01-.7,0-1.32.11-3.09.65-4.22,1.3-.29.17-.79.51-1.02.72ZM45.16,74.8c-.28,0-.53-.02-.77-.06-.6-.11-1.73-.49-2.17-1.27-.19-.35-.22-.72-.07-1.11.37-.96,1.53-1.35,2.56-1.69.31-.1.6-.2.84-.3,2.54-1.1,4.55-3.11,5.67-5.67l.1-.23.17.18c1.87,2.06,4.7,3.13,7.39,2.8l.4-.05-.25.31c-2.07,2.56-5.24,4.73-8.68,5.95h0c-.58.21-3.27,1.12-5.19,1.12ZM51.43,65.06c-1.17,2.53-3.2,4.51-5.74,5.61-.26.11-.55.21-.87.31-.96.32-2.04.68-2.36,1.5-.12.3-.1.57.05.83.33.58,1.23.98,1.94,1.11,1.4.25,4-.41,5.8-1.05,3.25-1.16,6.25-3.17,8.28-5.55-2.59.2-5.26-.85-7.1-2.76ZM57.68,66.91c-.27,0-.49,0-.61-.02-1.65-.15-3.77-1.16-4.83-2.31-.05-.06-.62-.76-.66-.94-.03-.15.03-.48.14-1,.06-.27.12-.55.13-.7.13-1.78-.27-3.43-.68-4.81l-.08-.26.26.05c3.61.71,7.97-.82,10.37-3.64.25-.3.47-.63.68-.96.19-.29.38-.58.6-.86l.21-.26.07.33c.96,4.36.29,8.93-1.87,12.87h0s-1.09,1.92-1.37,2.12c-.42.3-1.6.37-2.37.37ZM51.56,57.3c.39,1.36.75,2.95.62,4.67-.01.17-.07.45-.13.74-.06.3-.16.77-.14.86.04.09.46.65.58.78,1,1.08,3.07,2.07,4.62,2.21.62.06,2.35,0,2.76-.29.16-.12,1-1.51,1.28-2.01h0c2.06-3.76,2.74-8.11,1.91-12.29-.13.18-.25.37-.37.55-.22.33-.44.67-.71.99-2.41,2.83-6.75,4.4-10.42,3.79ZM34.79,58.65c-.07,0-.15-.02-.21-.03-1.05-.23-2.25-.93-2.93-1.49l-.77-.64.94.37c.17.07.41.07.63.07.21,0,.4,0,.56.05.07.02.22.12.91.63.28.21.57.42.68.49.11.07.21.12.31.13h.13s.02.14.02.14c.02.12-.04.2-.07.23-.06.05-.13.07-.2.07ZM32.35,57.24c.52.36,1.18.71,1.81.93-.12-.09-.27-.2-.42-.31-.32-.23-.75-.55-.82-.59-.1-.03-.28-.03-.46-.03h-.11ZM28.35,57.51l-.73-.69c-2.28-2.14-4.09-4.71-5.25-7.43l-.26-.62,3.35,2.83.57,1.65,2.32,4.27ZM22.95,49.9c1,2.13,2.4,4.15,4.11,5.92l-1.33-2.45-.55-1.59-2.23-1.88ZM44.89,56.96l-2.45-.42,1.56-1.02.09.05c.19.11.38.24.56.37.36.26.71.5,1.12.6l.86.22-1.74.2ZM43.31,56.37l1.59.27.19-.02c-.22-.12-.42-.26-.62-.41-.15-.1-.3-.21-.45-.3l-.7.46ZM53.2,56.5c-.86,0-1.69-.11-2.48-.35l-.07-.02-.03-.06c-.8-1.71-2.15-3.09-3.23-4.11-.06-.06-.28-.21-.44-.32-.31-.21-.34-.23-.36-.28-.08-.14-.04-.3,0-.45.02-.06.03-.12.04-.16,0-.02-.02-.06-.03-.09-.02-.06-.05-.13-.04-.21,0-.14.26-.52,1.41-2.12.47-.65.91-1.27,1.04-1.5.76-1.3,1.77-3.25,2.24-5.18.09-.35.14-.78.19-1.19.06-.51.12-.99.24-1.36,0-.06-.01-.14.05-.2.07-.07.17-.06.27-.05.14.02.44.15.81.33.08.04.15.07.2.09,3.83,1.69,7.31,5.09,9.08,8.88.26.55.69,1.53.69,1.81,0,.47-.47,1.42-.63,1.72-1.56,2.88-5.4,4.83-8.95,4.83ZM50.88,55.86c3.9,1.15,9.12-.9,10.98-4.34.24-.45.58-1.24.59-1.57,0-.15-.27-.83-.66-1.67-1.74-3.72-5.16-7.07-8.92-8.72-.05-.02-.13-.06-.21-.1-.18-.09-.54-.25-.68-.29,0,0,0,.02,0,.03-.11.33-.16.8-.22,1.29-.05.42-.1.86-.19,1.23-.48,1.97-1.5,3.95-2.27,5.27-.14.24-.59.86-1.06,1.52-.55.77-1.3,1.82-1.35,1.98,0-.02.02.03.03.06.02.06.05.14.04.22,0,.08-.03.16-.05.23-.02.06-.05.17-.04.2.01,0,.13.08.27.17.23.16.4.28.48.35,1.09,1.02,2.45,2.41,3.27,4.14ZM33.04,56.39c-.19,0-.38,0-.56-.02-.34-.03-.92-.15-1.26-.25-.25-.07-1.02-.3-1.1-.87l-.02-.19h.19c.1.02.2.01.31,0,.11,0,.23,0,.34,0,.58.03,2.35.16,2.94.35.2.06.35.23.49.38.05.06.1.11.15.15l.04.05.04.08-.05.08c-.05.08-.31.21-.38.21-.17,0-.36,0-.54,0-.19,0-.39.01-.58.01ZM30.52,55.39c.12.16.39.3.79.42.32.09.87.21,1.2.24.34.03.73.02,1.11,0,.18,0,.35,0,.52-.01,0,0,.01,0,.02-.01,0-.01-.02-.02-.03-.03-.11-.12-.23-.25-.35-.29-.52-.17-2.15-.3-2.86-.34-.1,0-.21,0-.31,0-.03,0-.06,0-.09,0ZM41.55,56.03c-.14,0-.27-.02-.39-.07l-.09-.03-.02-.09c-.07-.37.12-.66.29-.91.03-.05.06-.1.09-.15.39-.64,2.91-4.05,3.59-4.4.17-.09.42-.19.73-.11l.05.02c.32.21.14.85-.23,1.76l-.04.09c-.49,1.23-1.15,2.18-2.01,2.91-.77.65-1.43.97-1.96.97ZM41.36,55.68c.48.11,1.13-.19,1.95-.88.82-.69,1.45-1.61,1.92-2.79l.04-.1c.43-1.04.4-1.29.36-1.36-.14-.03-.29,0-.46.09-.55.29-2.97,3.47-3.46,4.28-.03.05-.07.1-.1.16-.13.19-.25.38-.25.58ZM35.7,55.81c-.21,0-.42-.05-.61-.16-.32-.19-.48-.37-.52-.58-.05-.28.14-.53.39-.84l.03-.04c.95-1.19,3.7-3.8,4.99-4.8.17-.13.78-.57,1.29-.6.52-.03.78.18.91.35.21.31.21.78-.02,1.29h0c-.11.25-.24.39-.36.52-.07.07-.14.14-.2.24-1.04,1.53-2.63,3.03-4.15,3.92l-.14.08c-.46.27-1.04.62-1.6.62ZM41.37,49.11s-.06,0-.08,0c-.34.02-.81.3-1.11.54-1.28.99-4,3.57-4.94,4.74l-.03.04c-.2.25-.35.44-.32.58.02.1.14.22.37.36.56.33,1.3-.1,1.89-.45l.14-.08c1.48-.87,3.03-2.33,4.05-3.82.08-.12.16-.2.24-.28.11-.12.21-.22.3-.42h0c.18-.4.2-.77.05-.98-.1-.14-.28-.22-.54-.22ZM28.99,52.65c-.3,0-.54-.05-.67-.19-.31-.31-.22-1.48-.08-1.8.14-.32.66-.59,1.17-.84l.14-.07c.48-.24,4.77-2.35,6.79-2.05.5.07.71.33.8.54.15.35.06.81-.24,1.23h0c-1.29,1.81-5.07,2.69-6.2,2.92l-.19.04c-.53.11-1.09.22-1.53.22ZM35.93,48c-1.66,0-4.64,1.25-6.23,2.05l-.14.07c-.32.15-.91.44-1.02.68-.13.3-.14,1.28.02,1.45.23.23,1.49-.04,1.9-.13l.19-.04c2.26-.46,5.03-1.43,6-2.79h0c.23-.32.31-.67.2-.91-.1-.24-.35-.32-.55-.35-.11-.02-.24-.02-.37-.02ZM27.3,52.16c-.15,0-.32-.14-.47-.25-.03-.02-.05-.04-.07-.05-.4-.27-.84-.63-1.23-.95l-.22-.18c-2.32-1.89-3.57-3.08-3.7-3.51-.08-.27-.16-.64.06-.81.26-.2.7.06,1.2.38.86.56,1.66,1.27,2.43,1.96.67.6,1.36,1.21,2.08,1.72l.03.03c.21.26.15.59.1.88-.03.2-.07.4-.03.56l.02.08-.06.06s-.1.07-.15.07ZM21.91,46.65s-.03,0-.04,0c0,0-.06.08.05.46.04.13.42.77,3.59,3.36l.22.18c.38.31.81.67,1.2.93.02.01.05.04.09.06.03.02.07.06.12.09,0-.14.03-.28.05-.42.04-.25.08-.47-.02-.61-.72-.51-1.41-1.13-2.08-1.73-.77-.68-1.56-1.39-2.38-1.93-.5-.33-.71-.41-.8-.41ZM43.1,51.07c-.05,0-.1,0-.16-.01l-.14-.02v-.14c.01-.2.04-.41.06-.61.08-.65.15-1.22-.39-1.68-.75-.65-1.7-.53-2.9.36-.11.08-.39.34-.67.62-.85.81-1.03.96-1.17.96-.09.01-.15-.02-.23-.04-.08-.02-.15-.05-.2-.03l-.3.07.11-.28c.08-.22.21-.4.34-.57.16-.22.31-.43.35-.72.08-.68-.07-1.19-.45-1.49-.89-.7-2.95-.31-4.44.23l-.14.05-.06-.13c-.17-.33-.28-.68-.38-1.01-.23-.73-.43-1.35-1.12-1.73-.27-.14-.59-.26-.9-.38-.28-.1-.57-.21-.83-.34-1.2-.59-2.77-1.41-4.24-2.6-1.24-1-2.89-2.57-3.74-4.38l-.11-.23h7.46l-.07.21c-.07.22-.19.43-.3.62-.12.2-.23.39-.29.6-.52,1.66.22,3.47,1.75,4.29,1.48.8,3.19.53,4.35-.69,1.17-1.23,1.37-2.95.5-4.4l-.14-.24,16.23-.19.03.13s.03.06.05.09c.04.06.07.11.07.18v2.36c0,.3-.2,1.07-.42,1.85l-.03.12c-.78,2.84-2.44,5.31-4.21,7.81l-.08.11-.12-.06c-.65-.32-1.08-.15-1.64.29-.13.1-.25.24-.38.38-.27.31-.57.65-1.02.65ZM41.42,47.88c.47,0,.89.16,1.27.49.67.58.58,1.28.5,1.96-.02.14-.03.28-.04.42.29-.02.5-.26.74-.54.13-.15.27-.3.42-.42.6-.46,1.12-.69,1.85-.38,1.73-2.44,3.33-4.86,4.09-7.6l.03-.12c.12-.44.41-1.46.41-1.76v-2.33s-.01-.02-.02-.04c-.01-.02-.02-.04-.03-.06l-15.44.18c.79,1.52.53,3.28-.68,4.55-1.27,1.32-3.13,1.62-4.74.75-1.66-.9-2.46-2.86-1.9-4.67.07-.24.2-.46.32-.66.07-.12.13-.23.19-.35h-6.48c.85,1.66,2.38,3.1,3.54,4.04,1.13.91,2.41,1.7,4.18,2.56.25.12.53.22.8.32.32.12.66.24.95.39.81.44,1.05,1.19,1.28,1.91.09.28.18.56.3.84.8-.28,3.42-1.08,4.61-.13.48.38.67.98.57,1.78-.04.37-.23.62-.4.87-.07.1-.14.19-.2.3.03,0,.06.02.09.03.05.01.11.02.13.03.08-.04.6-.54.95-.87.31-.29.58-.55.71-.64.75-.55,1.43-.83,2.03-.83ZM31.66,42.53c-.17,0-.35-.01-.55-.03-1.67-.2-2.44-1.62-2.46-2.93-.02-1.33.7-2.79,2.37-3.06,1.33-.21,2.46.23,3.12,1.2.68,1.02.71,2.45.08,3.48-.32.52-1.06,1.34-2.56,1.34ZM31.04,36.66l.03.16c-1.48.23-2.12,1.54-2.1,2.73.02,1.18.7,2.44,2.18,2.62,1.25.15,2.24-.26,2.79-1.15.57-.93.54-2.22-.07-3.14-.59-.88-1.58-1.26-2.8-1.07l-.03-.16ZM25.44,36.51l-.6-.11c-.23-.04-.59-.02-.94.01-.42.03-.83.06-1.09-.01-.14-.04-1.65-1.05-1.66-1.06-3.24-2.23-4.71-6.41-3.58-10.18h0c1.26-4.19,6.21-7.67,10.86-7.67.05,0,.1,0,.15,0,4.89.08,9.87.23,14.68.38,2.52.08,5.03.15,7.54.22.74.02,1.52.01,2.27,0,1.24-.01,2.53-.02,3.74.08.47.04.98.12,1.19.41.09.12.12.26.08.42-.07.34-1.57.39-1.59.39h0c-4.15-.03-8.4-.23-12.5-.43-2.9-.14-5.9-.29-8.84-.37-.42-.01-.84-.03-1.26-.04-3.22-.11-6.25-.22-9.25,1.07-3.08,1.32-5.09,3.68-5.54,6.48-.46,2.9.78,5.89,3.41,8.2.39.35.84.65,1.27.94.4.27.81.55,1.19.87l.46.39ZM17.88,25.25c-1.09,3.63.33,7.66,3.46,9.82.26.18,1.46.97,1.58,1.02.2.06.59.03.97,0,.17-.01.34-.03.5-.03-.25-.19-.52-.37-.78-.55-.44-.3-.89-.61-1.3-.97-2.72-2.38-4-5.48-3.52-8.49.46-2.91,2.55-5.36,5.73-6.72,3.06-1.31,6.14-1.21,9.39-1.09.42.01.83.03,1.25.04,2.94.08,5.94.23,8.84.37,4.1.2,8.34.41,12.49.43h0c.25,0,1.07-.1,1.28-.19,0-.04-.01-.07-.03-.11-.16-.21-.76-.27-.96-.28-1.2-.1-2.48-.09-3.71-.08-.76,0-1.54.01-2.28,0-2.51-.07-5.03-.14-7.54-.22-4.81-.15-9.79-.3-14.67-.38-4.49-.08-9.48,3.41-10.69,7.44h0ZM16.3,29.09l-.14-1.19c-.77-6.33,4.55-10.78,9.95-11.75.79-.14,1.29-.14,1.92-.13.16,0,.34,0,.53,0,4.27-.02,8.6.11,12.8.24,1.97.06,3.93.12,5.9.16.94.02,1.95,0,2.93,0,1.67-.02,3.4-.04,4.95.09.24.02.43.08.62.14.08.02.16.05.24.07h.05s.03.06.03.06c.06.08.07.17.03.26-.11.26-.65.46-.78.48-.84.13-1.75.06-2.63-.02-.46-.04-.9-.07-1.32-.08l-2.75-.05c-5.9-.1-12.01-.2-18.01-.34-.43,0-.81-.04-1.19-.08-.7-.06-1.37-.12-2.2,0-4.36.63-9.34,3.85-10.43,8.78l-.5,3.35ZM27.65,16.34c-.46,0-.88.02-1.49.13-4.71.85-9.36,4.41-9.73,9.57l.05-.36c1.12-5.09,6.24-8.4,10.71-9.04.87-.13,1.55-.06,2.27,0,.37.03.75.07,1.17.07,6,.13,12.11.24,18.01.34l2.75.05c.43,0,.87.04,1.34.08.86.07,1.76.14,2.56.02.1-.02.35-.13.47-.21-.03-.01-.06-.02-.09-.03-.19-.06-.35-.11-.55-.12-1.54-.13-3.26-.11-4.92-.09-.98.01-2,.02-2.94,0-1.97-.04-3.93-.1-5.9-.16-4.19-.12-8.52-.26-12.78-.24-.2,0-.37,0-.54,0-.13,0-.25,0-.37,0Z"/>
          </g>
        </g>
      </g>
      <path class="h" d="M18.4,90.32l-5.04-2.91v1.7h-5.39c-2.41,0-4.37-1.96-4.37-4.37V1.79s-1.31,1.01-1.31,1.01L.97,1.79v82.96c0,3.86,3.14,7,7,7h5.39v1.49s5.04-2.91,5.04-2.91Z"/>
      <path class="h" d="M55.95,16.87c.15.19-.49.46-.65.48-1.25.19-2.68-.08-3.92-.1-6.92-.12-13.84-.23-20.76-.39-1.23-.03-2.12-.26-3.41-.08-4.72.68-9.5,4.08-10.57,8.91l-.32,2.18c-.74-6.08,4.2-10.57,9.81-11.57.99-.18,1.5-.12,2.43-.13,6.23-.02,12.46.26,18.68.39,2.52.06,5.41-.12,7.88.09.32.03.54.13.83.21Z"/>
      <path class="h" d="M56.79,18.34c.37.03,1.25.12,1.14.63-.03.14-1.21.26-1.43.26-7.09-.05-14.24-.61-21.34-.8-3.64-.1-7.15-.43-10.57,1.04-6.75,2.9-7.62,10.17-2.17,14.95.77.68,1.68,1.16,2.46,1.82-.53-.1-1.56.13-2.02,0-.09-.03-1.41-.9-1.61-1.05-3.17-2.18-4.65-6.24-3.52-9.99,1.29-4.29,6.45-7.63,10.84-7.55,7.4.12,14.83.4,22.22.6,1.96.05,4.06-.08,6.01.09Z"/>
      <path class="h" d="M34.91,58.38c.03.17-.23.1-.32.08-.93-.2-2.1-.85-2.83-1.45.37.14.89.02,1.21.12.1.03,1.29.94,1.55,1.1.12.08.25.15.39.15Z"/>
      <path class="h" d="M34.42,56.07s-.23.15-.25.15c-.53,0-1.15.04-1.67,0-.33-.03-.9-.15-1.23-.25-.37-.11-.93-.32-.99-.74.21.01.43-.01.65,0,.65.04,2.35.17,2.9.35.23.07.41.34.59.5Z"/>
      <path class="h" d="M41.27,48.96c.94-.05,1.05.7.73,1.42-.16.37-.36.46-.55.73-.99,1.46-2.55,2.97-4.1,3.87-.63.37-1.5.94-2.19.54-.71-.43-.46-.71-.06-1.21.95-1.21,3.72-3.81,4.97-4.77.3-.24.81-.55,1.2-.57Z"/>
      <path class="h" d="M25.87,53.3l1.86,3.41c-2.2-2.07-4.03-4.59-5.21-7.38l2.8,2.37.55,1.61Z"/>
      <path class="h" d="M27.29,50.59c.29.35-.07.92.05,1.39-.07.08-.39-.2-.48-.26-.47-.32-.99-.75-1.44-1.12-.66-.54-3.46-2.83-3.65-3.43-.34-1.14.55-.55,1.03-.24,1.57,1.02,2.95,2.58,4.49,3.66Z"/>
      <path class="h" d="M36.32,47.86c.85.12.9.89.45,1.52-1.11,1.56-4.27,2.48-6.1,2.85-.46.1-1.91.46-2.24.12-.23-.23-.18-1.31-.05-1.62.15-.34.9-.66,1.24-.83,1.55-.77,5.04-2.28,6.69-2.04Z"/>
      <path class="h" d="M45.71,50.42c.3.19-.22,1.37-.34,1.66-.44,1.1-1.05,2.08-1.97,2.85-.54.46-1.47,1.14-2.2.88-.07-.37.19-.66.36-.95.45-.74,2.92-4.02,3.53-4.34.19-.1.39-.15.61-.1Z"/>
      <path class="h" d="M28.96,67.62l13.42,3.25c-1.32,1.17-1.46,2.61-.1,3.84h-15.34c-.2-.17,1.06-.95,1.19-1.03,1.16-.67,2.95-1.22,4.28-1.32.55-.05,2.06.12,2.39-.17.27-.23.19-.71-.1-.88-.3-.17-1.42-.31-1.89-.47-1.6-.54-3.17-1.7-4.01-3.17l.15-.05Z"/>
      <path class="h" d="M51.38,64.77c1.86,2.05,4.76,3.19,7.53,2.85-2.17,2.68-5.35,4.75-8.61,5.9-1.52.54-4.32,1.34-5.88,1.05-.97-.17-2.59-.92-2.11-2.15.46-1.17,2.28-1.45,3.31-1.9,2.59-1.12,4.63-3.17,5.75-5.75Z"/>
      <path class="h" d="M63.13,51.59c.96,4.37.29,8.85-1.85,12.75-.19.34-1.12,1.92-1.32,2.06-.48.34-2.27.38-2.87.33-1.54-.14-3.66-1.12-4.72-2.26-.12-.12-.6-.75-.62-.86-.05-.23.25-1.28.27-1.65.13-1.69-.21-3.26-.68-4.86,3.67.72,8.1-.85,10.52-3.69.48-.57.81-1.24,1.28-1.82Z"/>
      <path class="h" d="M61.94,48.21c.15.32.68,1.47.67,1.74,0,.4-.4,1.26-.61,1.64-1.95,3.61-7.35,5.59-11.24,4.4-.75-1.62-1.97-2.95-3.27-4.15-.13-.12-.74-.52-.77-.55-.08-.13.05-.36.06-.53,0-.1-.07-.21-.06-.3.01-.21,2.1-2.99,2.43-3.55.93-1.57,1.83-3.44,2.26-5.22.19-.78.21-1.89.42-2.54.03-.11-.07-.17.15-.14.17.02.75.31.97.41,3.78,1.66,7.25,5.06,9,8.8Z"/>
      <path class="h" d="M50.84,37.58v2.36c0,.35-.33,1.5-.45,1.92-.79,2.86-2.5,5.37-4.19,7.76-.72-.35-1.21-.15-1.81.3-.46.35-.77,1.09-1.43.98.03-.88.39-1.74-.39-2.41-1.01-.87-2.18-.33-3.1.35-.31.23-1.59,1.54-1.75,1.54-.13,0-.31-.11-.46-.07.18-.49.62-.77.69-1.33.35-2.94-3.44-2.04-5.12-1.43-.51-1.02-.47-2.22-1.57-2.81-.52-.28-1.21-.45-1.75-.72-1.5-.74-2.9-1.52-4.21-2.58-1.42-1.15-2.92-2.66-3.69-4.32h6.98c-.14.43-.46.79-.59,1.23-.54,1.73.24,3.63,1.82,4.48,3.41,1.85,7.05-2.02,5.07-5.32l15.82-.18c.01.07.12.19.12.23Z"/>
    </g>
  </g>
</svg>