<?xml version="1.0" encoding="UTF-8"?>
<svg id="b" data-name="Layer 2" xmlns="http://www.w3.org/2000/svg" viewBox="0 0 73.48 123.14">
  <defs>
    <style>
      .d {
        fill: #c8bab8;
        stroke-width: .5px;
      }

      .d, .e, .f, .g {
        stroke: #332626;
        stroke-linecap: round;
        stroke-linejoin: round;
      }

      .e, .f, .g {
        stroke-width: .34px;
      }

      .e, .h {
        fill: #ebe3e4;
      }

      .f, .i {
        fill: #fff;
      }

      .j {
        fill: #19181d;
      }

      .g {
        fill: none;
      }

      .k {
        fill: #b2928e;
      }

      .l {
        fill: #9966a3;
      }
    </style>
  </defs>
  <g id="c" data-name="Layer 1">
    <g>
      <g>
        <rect class="d" x="3.65" y="120.17" width="69.57" height="2.71"/>
        <rect class="f" x="3.65" y="8.48" width="69.57" height="91.12"/>
        <rect class="f" x="3.65" y="6.75" width="69.57" height="1.82"/>
        <g>
          <rect class="h" x="11.26" y="99.59" width="1.3" height="22.06" transform="translate(23.82 221.25) rotate(-180)"/>
          <rect class="k" x="11.26" y="99.59" width="1.3" height="1.3" transform="translate(23.82 200.49) rotate(-180)"/>
          <rect class="g" x="11.26" y="99.59" width="1.3" height="22.06" transform="translate(23.82 221.25) rotate(-180)"/>
        </g>
        <g>
          <rect class="h" x="29.31" y="99.59" width="1.3" height="22.06" transform="translate(59.91 221.25) rotate(-180)"/>
          <rect class="k" x="29.31" y="99.59" width="1.3" height="1.3" transform="translate(59.91 200.49) rotate(-180)"/>
          <rect class="g" x="29.31" y="99.59" width="1.3" height="22.06" transform="translate(59.91 221.25) rotate(-180)"/>
        </g>
        <g>
          <rect class="h" x="47.35" y="99.59" width="1.3" height="22.06" transform="translate(96.01 221.25) rotate(-180)"/>
          <rect class="k" x="47.35" y="99.59" width="1.3" height="1.3" transform="translate(96.01 200.49) rotate(-180)"/>
          <rect class="g" x="47.35" y="99.59" width="1.3" height="22.06" transform="translate(96.01 221.25) rotate(-180)"/>
        </g>
        <g>
          <rect class="h" x="65.4" y="99.59" width="1.3" height="22.06" transform="translate(132.1 221.25) rotate(-180)"/>
          <rect class="k" x="65.4" y="99.59" width="1.3" height="1.3" transform="translate(132.1 200.49) rotate(-180)"/>
          <rect class="g" x="65.4" y="99.59" width="1.3" height="22.06" transform="translate(132.1 221.25) rotate(-180)"/>
        </g>
        <rect class="f" x="3.65" y="102.46" width="69.57" height="2.49"/>
        <rect class="e" x="3.65" y="104.96" width="69.57" height="1.01"/>
        <path class="f" d="M2.29,1.79L4.4.17v84.58c0,1.97,1.6,3.57,3.57,3.57h4.59s0-2.29,0-2.29l7.44,4.29-7.44,4.29v-2.07s-4.59,0-4.59,0c-4.3,0-7.8-3.5-7.8-7.8V.17s2.11,1.62,2.11,1.62Z"/>
      </g>
      <path class="l" d="M18.4,90.32l-5.04-2.91v1.7h-5.39c-2.41,0-4.37-1.96-4.37-4.37V1.79s-1.31,1.01-1.31,1.01L.97,1.79v82.96c0,3.86,3.14,7,7,7h5.39v1.49s5.04-2.91,5.04-2.91Z"/>
      <g>
        <g>
          <path d="M48.45,41.91h1.92c.23,0,1.35.44,1.65.56,1.73.72,4.4,3.21,6.14,1.29,1.64-1.8.09-4.94-2.29-4.51-.72.13-1.11,1.07-1.78-.25-.83-1.63.1-3.64,1.66-4.42,3.14-1.56,6.98.73,8.64,3.44,3.21,5.24,1.15,12.89-4.75,15.08,1.38,3.72-1.09,7.72-.7,11.36.32,2.96,3.95,2.35,5.25.35.26-.4.5-1.31.92-1.4,1.98.67,2.36,3.32,1.73,5.11-2,5.69-10.74,6.27-14.54,1.89-.22-.25-.93-1.49-1.1-1.45-2.57,2.92-6.18,4.87-10.04,5.46-5.75.88-11.6-1.16-15.48-5.46l-.93,1.28c-3.43,4.15-10.34,4.21-13.69-.06-1.37-1.75-1.92-4.54-.18-6.24,1.3-1.27,1.3.02,1.78.79,1.41,2.21,5.11,2.75,5.39-.61s-2.14-7.39-.83-10.94c-.68-.48-1.44-.78-2.12-1.26-5.67-4.04-5.44-14.36,1.16-17.22,2.69-1.16,7.15-.49,6.89,3.15-.05.67-.44,2-1.31,1.84-.46-.08-.4-.55-1.39-.46-3.59.35-3.04,6.62,1.37,4.87,1.16-.46,3.57-2.2,4.68-2.2h2.04c-6.17-7.38-1.95-19.1,7.55-20.72,11.94-2.03,19.69,11.26,12.38,20.72ZM32.46,42.05c.62,1.14-1.14.96-1.92,1.23-.99.35-2.01,1.31-2.34,2.32-.56,1.75.84,2.7,2.47,2.47,1.03-.15.79-.93,1.1-1.7.2-.5.56-1.13.89-1.55.39-.49,1.7-1.8,2.34-1.29l.17.31c.03.42-1.32,1.21-1.7,1.68-.94,1.17-1.36,3.06-.54,4.4,1.24,2.03,4.24.69,4.83-1.16.15-.49,0-1.47.73-1.44.63.03.48.8.6,1.21.62,2.09,3.84,3.6,4.99,1.19.69-1.45.18-3.35-.88-4.49-.48-.51-1.58-.82-1.37-1.49.3-1,1.96.51,2.31.91.36.42.76,1.09.96,1.61.31.8.13,1.67,1.09,1.82.86.14,2.01-.07,2.46-.91.8-1.5-.83-3.3-2.15-3.84-.68-.27-2.24-.17-2.13-1.02.13-.96,1.89.03,2.33-.24.05-.03.7-.8.81-.94,4.84-5.82,2.61-14.95-4.23-18.03-9.68-4.36-19.63,5.43-15.56,15.22.3.72,2.01,3.71,2.73,3.81.56.07,1.4-.52,2-.09ZM22,38.18c.16-3.42-3.52-3.52-5.86-2.19-6.07,3.44-5.06,13.91,1.59,16.08l.42-.65c-1.98-1.02-.73-2.43.65-.76l1.34-1.16c-4.94-.72-7.23-8.31-2.26-10.71.27-.13,1.52-.6,1.73-.6h2.39ZM55.03,38.18c.31.1,1.85,0,2.33,0,.3,0,1.59.57,1.92.76,4.69,2.64,2.32,9.73-2.45,10.56l1.24,1.16c.26.05,1.04-1.31,1.57-.64.43.54-.42,1.27-.94,1.35l.47.81c5.72-2.15,7.46-10.1,3.5-14.64-1.55-1.77-5.24-3.55-7.16-1.44-.29.32-1.03,1.91-.48,2.09ZM28.64,43.07c-3.56-1.18-6.92,4.36-10.24,1.8-1.29-.99-1.47-2.23-1.33-3.76.01-.13.14-.4-.08-.37-1.91,2.56-.22,6.6,2.65,7.55,1.73.57,2.26.14,3.83-.07.3-.04.77.1.92,0,.26-.17,1.07-1.41,1.39-1.76.8-.89,1.17-1.23,1.88-2.2.3-.42.65-.78.98-1.17ZM59.87,41.03c.03.58,0,1.17,0,1.75,0,.93-1.29,2.2-2.14,2.53-3.29,1.28-6.09-3.35-9.52-2.23.72.56,1.02,1.39,1.51,2.04.79,1.04,2.16,1.9,2.79,3.15.26,0,.49-.09.76-.06,1.54.16,1.86.6,3.58.2,3.05-.7,5.1-4.93,3.06-7.55-.47-.29-.06.12-.06.18ZM28.76,48.9c-.79-.23-1.43-.94-1.63-1.75-2.39,2.52-3.98,6.06-4.08,9.56,1.19-1.21,2.57-2.2,4.16-2.83.31-1.72.86-3.38,1.54-4.98ZM53.92,56.71c-.2-2.94-1.28-5.97-3.05-8.32-.14-.19-.94-1.27-1.14-1.13-.18.76-.87,1.45-1.63,1.63.77,1.54,1.27,3.2,1.58,4.89,1.56.77,3.02,1.69,4.25,2.92ZM28.41,53.33c.08.06,1.68-.48,1.96-.55.82-.2,2.17-.29,2.85-.53.82-.29-.18-.68-.44-.91-.74-.66-1.1-1.32-1.34-2.28l-1.56.18c-.76,1.25-1.08,2.69-1.48,4.08ZM48.45,53.33c-.25-1.38-.71-2.72-1.34-3.97l-1.69-.35c-.18,1.16-.8,2.31-1.97,2.7l.03.46,4.96,1.16ZM23.63,49.37c-1.48.02-3.23,1.07-4.19,2.16-3.97,4.51,1.81,11.78-1.23,15.09l-1.22.82c2.48-.27,4.21-1.8,4.65-4.27.06-.33.22-1.24.24-1.51.05-.62-.42-2.32-.46-3.14-.12-2.36.43-5.11,1.34-7.28.1-.24.95-1.8.87-1.87ZM59.87,67.33c-.53-.14-1.07-.57-1.38-1.01-2.4-3.5,2.27-9.66-.39-13.95-.94-1.51-3.07-2.98-4.87-2.99,1.7,2.96,2.44,6.32,2.22,9.74-.08,1.2-.41,1.83-.25,3.04.18,1.4.13,2.21,1.06,3.37.76.94,2.03,1.71,3.23,1.9.12.02.4.12.38-.09ZM36.04,51.93c1.57-.09,3.3,0,4.89,0,.08,0,.59.32.64,0-1.32-.1-2.34-1.09-3.09-2.1-.82.99-1.75,1.92-3.09,2.1.05.32.55,0,.64,0ZM42.62,53.33c-2.74-.29-5.52-.35-8.26.02-.49,2.57-.55,5.29-.02,7.86l4.62-.31,3.66.35c.47-2.63.35-5.29,0-7.93ZM33.18,53.57c-1.03.13-2.06.34-3.05.62-.36.1-1.84.45-1.94.74-.27,2.74.11,5.5,1.03,8.08,1.23-.72,2.57-1.18,3.95-1.53-.27-2.62-.37-5.3.01-7.91ZM48.66,54.75c-1.63-.5-3.28-1.02-4.99-1.19.53,2.61.43,5.31,0,7.92l4.07,1.4c.85-2.6,1.34-5.41.92-8.14ZM27.12,55.32c-1.63.69-3.37,1.82-4.16,3.45.19,2.99,1.29,5.71,2.88,8.2.3.04.18,0,.23-.17.29-.97.59-1.58,1.28-2.34.23-.25.93-.7.93-.93-.97-2.57-1.53-5.5-1.16-8.22ZM50.9,66.97c.25.19,1.84-3.07,1.95-3.35.42-1.05,1.18-3.68,1.08-4.75-.11-1.24-2.94-3.13-4.08-3.56.15,2.84-.21,5.55-1.17,8.22.88,1.11,1.98,1.93,2.22,3.44ZM34.58,62.31c.27,1.75.98,3.56,1.85,5.09.18.32.73,1.31.95,1.5.29.26,1.73.25,2.05.06.42-.25,1.57-2.52,1.82-3.08.2-.45,1.26-3.24,1.1-3.46-2.55-.58-5.19-.35-7.76-.11ZM33.53,62.66c-.12-.12-1.71.42-1.98.53-.33.13-1.74.73-1.75,1.04.92,2.12,2.4,4.12,4.25,5.5.62-.34,1.3-.42,1.98-.54.11-.02.26.05.18-.17-.1-.26-.65-.91-.83-1.26-.84-1.57-1.55-3.33-1.84-5.09ZM47.16,64.07c-1.17-.61-2.37-1.26-3.71-1.4-.32,1.26-.71,2.52-1.24,3.72-.43.97-1.02,1.84-1.45,2.8l2.22.52c1.79-1.52,3.32-3.45,4.18-5.64ZM11.16,65.34c-1.27,3.55,2.32,6.31,5.45,6.85,2.59.44,5.64-.57,7.31-2.65.32-.39.98-1.37.79-1.83-.84-1.11-1.55-2.34-2.01-3.65l-.88,1.74c-2.22,3.07-6.64,3.84-9.48,1.1l-1.18-1.56ZM65.58,65.46c-2.51,4.9-9.81,3.68-11.25-1.4l-2.25,3.88c1.27,3.17,5.01,4.8,8.28,4.25,2.77-.47,6.12-2.89,5.63-6.04-.02-.13-.16-.91-.41-.69ZM32.48,72.22c-.31-.81.29-1.3.41-1.98-1.71-1.51-3.03-3.35-4.08-5.36-2.15,1.9-2.05,3.47.12,5.24,1.05.85,2.31,1.57,3.55,2.1ZM48.87,69.38c.34-.4.91-1.58.85-2.11s-1.01-1.99-1.45-2.29c-.1-.07-.11-.16-.29-.11-.87,2.07-2.36,4-4.08,5.43.41.6.83,1.16.47,1.92.08.07,1.64-.76,1.85-.88.67-.39,2.17-1.4,2.65-1.95ZM34.16,71.45c-.5.58-.24.91.34,1.27,1.75,1.07,6.21,1.05,7.95-.02,1.69-1.04-.94-2.03-1.83-2.26-1.67-.42-5.24-.38-6.46,1.01Z"/>
          <path d="M35.14,36.33c-.21-.12-1.37.22-1.78.21-2.48-.06-3.93-2.2-3.45-4.55-.52.06-1.35,1.77-1.87.97-.55-.84,1.36-2.18,2.27-2.14,1.35.06,3.13,2.01,4.03,2.97.34.37,2.14,2.43,2.19,2.71.02.1.03.2,0,.3-.7.99-1.13-.32-1.4-.48ZM34.23,35.38c-.75-.88-1.51-1.81-2.39-2.57-.1-.09-.79-.68-.88-.58-.27,2.28.99,3.48,3.26,3.15Z"/>
          <path d="M47.05,32c.26,2.44-.95,4.48-3.56,4.55-.45.01-1.29-.3-1.6-.22-.37.1-.94,1.64-1.57.37-.02-.33,1.46-2,1.78-2.37.98-1.13,3.07-3.54,4.66-3.51,1.33.03,3.05,2.2,1.73,2.32-.44.04-1.03-.94-1.44-1.14ZM42.74,35.38c2.06.33,3.55-.92,3.21-3.03-.13-.18-.19-.06-.33.02-.18.1-.72.57-.9.74s-2.1,2.18-1.98,2.27Z"/>
          <path d="M42.01,23.86c.98-.29,2.49.9,2.49,1.9,0,1.92-3.39.83-3.16-1.04.03-.27.41-.78.66-.86ZM43.32,25.7c.19-.19-.7-.65-.81-.7-.2.22.67.67.81.7Z"/>
          <path d="M32.63,26.48c-1.1-1.1,1.63-3.51,2.65-2.36,1.22,1.37-1.53,3.48-2.65,2.36ZM34.47,25c-.36.06-.75.39-.93.7.39-.02.73-.39.93-.7Z"/>
          <path d="M40.85,42.34c-.11.13-.44.14-.61.15-.8.06-3.15.12-3.85,0-.34-.06-.45-.31-.42-.63.04-.24.43-.48.65-.52.47-.08,3.26-.09,3.72,0,.42.08.74.62.5,1.02Z"/>
          <path d="M39.45,22.7c.85,1.44-1.96,1.72-2.14.56-.15-.94,1.61-.8,2.14-.56Z"/>
          <path d="M37.23,25.84c1.18-.17.55,2.13-.62,1.63-.9-.39-.09-1.52.62-1.63Z"/>
          <path d="M39.44,25.83c.63-.15,1.68.92,1.03,1.5-.94.84-2.1-1.26-1.03-1.5Z"/>
          <path d="M14.86,47.64c.75-.21,1.5,1.23.85,1.56-.81.41-1.61-1.35-.85-1.56Z"/>
          <path d="M13.46,44.25c.78-.22,1.02,1.22.42,1.6-.87.29-1.14-1.22-.42-1.6Z"/>
          <path d="M13.8,40.3c1.25-.38.72,1.5-.02,1.51-.9,0-.44-1.36.02-1.51Z"/>
          <path d="M19.52,36c.77,0,.78,1.16-.41,1.22-.99.05-.78-1.23.41-1.22Z"/>
          <path d="M16.72,37.39c.54.61-.7,1.54-1.15.97-.49-.66.66-1.46,1.15-.97Z"/>
          <path d="M62.29,47.77c.46.45-.54,1.91-1.21,1.38-.62-.49.59-1.99,1.21-1.38Z"/>
          <path d="M63.68,44.38c.33.33.26,1.7-.59,1.47-.93-.25-.18-2.25.59-1.47Z"/>
          <path d="M57.38,35.99c1.09-.12,1.5,1.2.46,1.24s-1.35-1.14-.46-1.24Z"/>
          <path d="M63.57,41.64c-.63.71-1.63-.84-1.09-1.26.71-.56,1.45.85,1.09,1.26Z"/>
          <path d="M60.42,37.26c.67-.2,1.43.64.85,1.21-.76.42-1.7-.96-.85-1.21Z"/>
          <path d="M61.47,69.92c.79.78-1.49,1.64-1.79.67-.28-.9,1.44-1.02,1.79-.67Z"/>
          <path d="M64.27,68.04c.34-.05.69.37.6.72-.08.29-1.01,1.07-1.38.84-.91-.57.12-1.47.78-1.56Z"/>
          <path d="M53.89,67.12c2.24,1,.48,2.72-.52.52l.52-.52Z"/>
          <path d="M57.39,70.44c-.55.45-1.8-.3-1.26-.97.33-.41,1.36.05,1.41.48l-.15.49Z"/>
          <path d="M15.67,69.8c.61-.18,1.91.05,1.49.91-.25.51-1.2.31-1.57.05s-.34-.84.08-.96Z"/>
          <path d="M12.53,68.04c.38-.05,1.32.66,1.29,1.07-.59,1.56-2.66-.87-1.29-1.07Z"/>
          <path d="M23.37,67.24c.61.54-.72,1.96-1.34,1.34-.56-.55.9-1.73,1.34-1.34Z"/>
          <path d="M20.22,69.33c1.2-.15.67,1.52-.47,1.24-.79-.5-.28-1.15.47-1.24Z"/>
        </g>
        <g>
          <path class="l" d="M65.99,66.15c.49,3.16-2.86,5.57-5.63,6.04-3.27.56-7.01-1.07-8.29-4.25l2.26-3.88c1.44,5.08,8.74,6.3,11.25,1.4.25-.21.39.57.41.69ZM64.86,68.76c.1-.35-.26-.76-.59-.72-.67.1-1.7.99-.78,1.56.38.23,1.3-.56,1.38-.85ZM59.68,70.59c.3.96,2.58.11,1.79-.68-.35-.34-2.07-.22-1.79.68ZM57.39,70.45l.15-.49c-.05-.43-1.08-.89-1.41-.48-.54.67.71,1.42,1.26.97ZM53.37,67.64c.99,2.2,2.76.48.52-.52l-.52.52Z"/>
          <path class="l" d="M62.67,37.53c3.96,4.54,2.22,12.49-3.5,14.64l-.47-.81c.52-.09,1.36-.81.94-1.35-.53-.67-1.31.69-1.57.64l-1.24-1.15c4.77-.82,7.14-7.92,2.45-10.56-.34-.19-1.63-.76-1.93-.76-.48,0-2.02.1-2.33,0-.55-.18.19-1.77.48-2.09,1.92-2.1,5.61-.33,7.16,1.44ZM63.1,45.85c.85.23.92-1.14.59-1.47-.76-.77-1.51,1.22-.59,1.47ZM63.57,41.65c.36-.42-.38-1.82-1.09-1.27-.54.43.47,1.97,1.09,1.27ZM61.08,49.15c.67.53,1.67-.93,1.2-1.38-.61-.61-1.82.89-1.2,1.38ZM61.27,38.47c.58-.56-.18-1.4-.85-1.21-.85.25.09,1.63.85,1.21ZM57.83,37.23c1.05-.04.63-1.35-.46-1.23-.89.1-.59,1.27.46,1.23Z"/>
          <path class="l" d="M59.93,40.86c2.04,2.62-.01,6.85-3.06,7.55-1.73.4-2.05-.05-3.58-.2-.27-.03-.5.05-.76.06-.63-1.25-2-2.11-2.79-3.15-.49-.65-.8-1.48-1.51-2.04,3.43-1.11,6.22,3.51,9.51,2.24.85-.33,2.14-1.59,2.14-2.53,0-.58.03-1.17,0-1.75,0-.06-.41-.47.06-.18Z"/>
          <path class="l" d="M59.87,67.32c.02.21-.26.11-.38.09-1.2-.19-2.47-.96-3.23-1.9-.94-1.15-.88-1.97-1.06-3.37-.16-1.21.17-1.84.25-3.04.22-3.42-.52-6.78-2.22-9.74,1.81.01,3.94,1.48,4.88,2.99,2.66,4.29-2.02,10.46.39,13.96.31.44.85.88,1.38,1.01Z"/>
          <path class="i" d="M53.93,58.87c.1,1.07-.66,3.7-1.08,4.75-.11.29-1.71,3.54-1.96,3.36-.23-1.51-1.34-2.34-2.22-3.45.96-2.67,1.32-5.37,1.17-8.21,1.14.43,3.97,2.31,4.08,3.55Z"/>
          <path class="i" d="M50.88,48.4c1.77,2.34,2.84,5.38,3.05,8.32-1.23-1.23-2.69-2.15-4.25-2.92-.3-1.7-.81-3.36-1.57-4.9.77-.18,1.46-.88,1.63-1.63.2-.15,1,.93,1.15,1.13Z"/>
          <path class="i" d="M49.73,67.28c.06.53-.51,1.7-.86,2.1-.47.56-1.97,1.56-2.65,1.96-.22.13-1.77.95-1.85.88.36-.76-.05-1.31-.47-1.92,1.72-1.43,3.21-3.36,4.08-5.43.18-.05.19.05.29.11.44.3,1.39,1.76,1.46,2.29Z"/>
          <path class="l" d="M46.5,43.34c1.32.54,2.94,2.34,2.15,3.84-.44.83-1.6,1.04-2.46.9-.97-.15-.79-1.02-1.09-1.82-.2-.52-.6-1.19-.96-1.61-.34-.4-2.01-1.91-2.31-.91-.2.68.9.98,1.38,1.5,1.07,1.14,1.58,3.04.89,4.49-1.16,2.41-4.38.9-5-1.19-.13-.42.03-1.18-.6-1.22-.74-.03-.58.94-.73,1.44-.58,1.85-3.59,3.2-4.83,1.16-.81-1.34-.39-3.23.55-4.4.38-.47,1.73-1.27,1.69-1.68l-.17-.31c-.64-.51-1.95.8-2.34,1.29-.34.42-.69,1.05-.89,1.55-.31.77-.06,1.55-1.1,1.7-1.63.24-3.03-.72-2.47-2.47.32-1.01,1.35-1.97,2.34-2.32.77-.28,2.54-.1,1.92-1.23-.61-.43-1.44.16-2.01.09-.71-.09-2.43-3.09-2.73-3.8-4.06-9.79,5.88-19.58,15.56-15.22,6.84,3.08,9.07,12.21,4.23,18.03-.12.14-.76.9-.81.94-.44.27-2.2-.72-2.34.24-.11.84,1.46.74,2.13,1.01ZM48.49,33.14c1.31-.12-.4-2.29-1.73-2.31-1.59-.04-3.68,2.37-4.66,3.5-.32.37-1.81,2.04-1.78,2.37.63,1.27,1.2-.28,1.57-.37.3-.08,1.15.23,1.6.22,2.61-.06,3.83-2.1,3.56-4.55.4.2.99,1.18,1.44,1.14ZM41.34,24.72c-.23,1.87,3.16,2.96,3.15,1.04,0-1-1.51-2.19-2.49-1.9-.26.08-.63.59-.66.86ZM40.85,42.35c.24-.4-.09-.94-.5-1.02-.45-.09-3.25-.09-3.72,0-.23.05-.61.29-.65.52-.03.32.08.57.41.64.7.13,3.05.07,3.85,0,.17-.01.5-.02.61-.15ZM40.47,27.34c.65-.58-.4-1.65-1.03-1.5-1.06.25.09,2.35,1.03,1.5ZM37.31,23.25c.18,1.16,2.98.88,2.14-.56-.53-.24-2.28-.38-2.14.56ZM36.62,27.46c1.17.5,1.79-1.8.61-1.63-.7.1-1.52,1.24-.61,1.63ZM36.54,36.81c.03-.1.02-.2,0-.3-.06-.28-1.85-2.34-2.19-2.71-.89-.97-2.68-2.91-4.02-2.97-.92-.05-2.83,1.3-2.28,2.14.52.8,1.35-.92,1.88-.97-.49,2.35.97,4.49,3.44,4.55.4.01,1.57-.34,1.77-.21.27.16.7,1.46,1.4.48ZM32.63,26.48c1.12,1.12,3.86-1,2.65-2.36-1.02-1.15-3.75,1.26-2.65,2.36Z"/>
          <path class="i" d="M48.66,54.76c.42,2.72-.06,5.54-.92,8.13l-4.08-1.4c.43-2.61.53-5.31,0-7.92,1.71.17,3.36.69,4.99,1.19Z"/>
          <path class="i" d="M48.45,53.33l-4.96-1.16-.03-.46c1.17-.38,1.78-1.54,1.97-2.7l1.69.35c.63,1.25,1.09,2.59,1.34,3.96Z"/>
          <path class="i" d="M43.45,62.67c1.34.14,2.54.78,3.71,1.4-.87,2.2-2.39,4.12-4.18,5.64l-2.22-.52c.43-.96,1.02-1.83,1.45-2.8.53-1.19.92-2.45,1.24-3.71Z"/>
          <path class="i" d="M42.63,53.33c.34,2.63.47,5.29,0,7.93l-3.66-.35-4.62.3c-.52-2.56-.47-5.29.03-7.86,2.74-.37,5.51-.31,8.26-.02Z"/>
          <path class="i" d="M40.62,70.43c.89.22,3.52,1.22,1.83,2.26-1.74,1.07-6.2,1.09-7.95.02-.58-.36-.84-.69-.34-1.27,1.22-1.39,4.8-1.43,6.46-1.01Z"/>
          <path class="i" d="M42.34,62.42c.16.22-.9,3.02-1.1,3.46-.24.56-1.4,2.83-1.82,3.08-.32.19-1.76.19-2.05-.06-.22-.19-.77-1.18-.95-1.5-.87-1.53-1.57-3.35-1.84-5.09,2.57-.24,5.21-.47,7.76.11Z"/>
          <path class="i" d="M41.57,51.93c-.05.32-.56,0-.64,0-1.59,0-3.32-.09-4.89,0-.09,0-.59.32-.64,0,1.34-.18,2.27-1.11,3.09-2.1.74,1.01,1.77,2,3.09,2.1Z"/>
          <g>
            <path class="i" d="M45.94,32.34c.35,2.12-1.15,3.37-3.21,3.04-.12-.09,1.8-2.11,1.98-2.27.18-.17.72-.63.9-.74.14-.08.2-.2.33-.02Z"/>
            <path class="i" d="M30.97,32.23c.09-.1.78.49.88.58.88.76,1.64,1.69,2.38,2.57-2.27.32-3.54-.87-3.26-3.15Z"/>
            <path d="M42.74,35.38c2.06.33,3.55-.92,3.21-3.04-.13-.18-.19-.06-.33.02-.18.11-.72.57-.9.74-.18.16-2.1,2.18-1.98,2.27ZM47.05,31.99c.26,2.45-.95,4.49-3.56,4.55-.45.01-1.3-.3-1.6-.22-.37.09-.94,1.64-1.57.37-.03-.33,1.46-2,1.78-2.37.98-1.13,3.07-3.54,4.66-3.5,1.33.03,3.05,2.2,1.73,2.31-.44.04-1.03-.94-1.44-1.14Z"/>
            <path d="M30.97,32.23c-.27,2.28.99,3.47,3.26,3.15-.74-.88-1.51-1.81-2.38-2.57-.1-.09-.8-.68-.88-.58ZM36.54,36.51c.02.1.03.2,0,.3-.7.98-1.13-.32-1.4-.48-.2-.13-1.37.22-1.77.21-2.48-.06-3.93-2.2-3.44-4.55-.52.06-1.35,1.77-1.88.97-.55-.84,1.36-2.18,2.28-2.14,1.35.06,3.13,2,4.02,2.97.35.38,2.14,2.43,2.19,2.71Z"/>
          </g>
          <path class="i" d="M36.21,69.02c.09.22-.07.15-.18.17-.68.13-1.36.2-1.98.54-1.85-1.38-3.33-3.38-4.25-5.5,0-.31,1.42-.92,1.75-1.04.27-.11,1.86-.65,1.98-.53.3,1.76,1,3.53,1.85,5.09.19.35.73,1.01.84,1.27Z"/>
          <path class="i" d="M32.78,51.35c.26.23,1.26.62.43.9-.68.24-2.03.33-2.85.53-.28.07-1.88.61-1.96.55.39-1.39.72-2.83,1.48-4.08l1.56-.18c.24.96.6,1.62,1.34,2.28Z"/>
          <path class="i" d="M33.18,53.57c-.38,2.62-.29,5.29-.02,7.92-1.38.35-2.72.81-3.94,1.53-.92-2.59-1.3-5.35-1.03-8.09.1-.29,1.57-.64,1.93-.75,1-.27,2.03-.48,3.06-.61Z"/>
          <path class="i" d="M32.9,70.24c-.13.68-.73,1.17-.41,1.98-1.24-.53-2.51-1.25-3.55-2.1-2.17-1.77-2.27-3.34-.12-5.24,1.06,2.02,2.38,3.85,4.09,5.36Z"/>
          <path class="i" d="M28.29,63.54c0,.23-.7.68-.93.93-.68.76-.99,1.37-1.27,2.34-.05.16.07.2-.23.16-1.59-2.49-2.69-5.21-2.88-8.2.79-1.63,2.53-2.76,4.16-3.45-.37,2.72.2,5.65,1.16,8.22Z"/>
          <path class="l" d="M28.64,43.07c-.32.39-.68.76-.98,1.18-.71.97-1.08,1.31-1.88,2.2-.32.36-1.14,1.59-1.39,1.76-.15.1-.63-.04-.92,0-1.57.22-2.1.64-3.83.07-2.87-.95-4.56-4.99-2.65-7.55.22-.02.1.24.09.38-.15,1.53.03,2.76,1.32,3.75,3.33,2.56,6.68-2.98,10.24-1.8Z"/>
          <path class="i" d="M28.76,48.9c-.69,1.61-1.23,3.26-1.55,4.98-1.59.63-2.97,1.62-4.17,2.83.1-3.5,1.68-7.05,4.08-9.57.2.81.84,1.52,1.63,1.75Z"/>
          <path class="l" d="M24.71,67.71c.19.46-.47,1.44-.79,1.83-1.67,2.08-4.72,3.09-7.31,2.64-3.13-.53-6.72-3.29-5.45-6.84l1.18,1.56c2.84,2.74,7.26,1.97,9.48-1.1l.88-1.74c.47,1.31,1.18,2.54,2.02,3.65ZM22.03,68.58c.62.61,1.94-.81,1.34-1.34-.44-.39-1.89.78-1.34,1.34ZM19.75,70.57c1.14.27,1.67-1.39.48-1.25-.76.09-1.26.75-.48,1.25ZM17.16,70.71c.42-.86-.88-1.09-1.49-.91-.41.13-.43.72-.07.96.36.26,1.32.46,1.57-.05ZM13.81,69.12c.04-.41-.91-1.13-1.28-1.07-1.38.19.69,2.63,1.28,1.07Z"/>
          <path class="l" d="M23.63,49.37c.07.07-.77,1.63-.87,1.87-.91,2.17-1.46,4.92-1.35,7.28.05.83.51,2.53.46,3.15-.02.26-.18,1.18-.24,1.51-.44,2.47-2.17,4-4.65,4.27l1.22-.82c3.04-3.31-2.73-10.58,1.23-15.09.97-1.09,2.71-2.14,4.19-2.16Z"/>
          <path class="l" d="M16.13,35.98c2.34-1.33,6.02-1.22,5.87,2.2h-2.39c-.22,0-1.46.47-1.73.6-4.97,2.41-2.68,9.99,2.26,10.71l-1.34,1.16c-1.38-1.67-2.63-.26-.65.76l-.42.65c-6.65-2.17-7.66-12.64-1.59-16.08ZM19.11,37.22c1.18-.06,1.18-1.21.4-1.22-1.19-.01-1.39,1.27-.4,1.22ZM15.58,38.36c.45.57,1.69-.36,1.15-.97-.49-.48-1.64.32-1.15.97ZM15.71,49.19c.65-.32-.1-1.76-.85-1.56-.76.21.03,1.97.85,1.56ZM13.78,41.8c.74,0,1.27-1.89.02-1.5-.46.14-.92,1.51-.02,1.5ZM13.88,45.85c.6-.38.36-1.83-.42-1.6-.72.39-.45,1.89.42,1.6Z"/>
        </g>
        <g>
          <path class="j" d="M23.41,81.4v7.3h-1.8v-7.3h1.8ZM22.31,84.4h3.99c.57,0,1.02.17,1.33.51.32.34.47.81.47,1.42v1.86c0,.13,0,.23,0,.3,0,.07.01.14.03.21h-1.78c-.01-.08-.03-.16-.04-.23-.01-.07-.02-.14-.02-.21v-1.6c0-.32-.06-.54-.19-.67-.13-.13-.34-.2-.65-.2h-3.15v-1.39ZM28.2,81.4l-2.09,3.72h-1.63s1.93-3.72,1.93-3.72h1.78Z"/>
          <path class="j" d="M32.09,82.9c.12.02.25.05.37.08v1.5c-.07-.03-.15-.05-.23-.07s-.18-.02-.29-.02c-.22,0-.42.03-.59.1-.17.07-.32.17-.43.31-.12.14-.21.31-.27.51-.06.2-.09.44-.09.71v2.66h-1.63v-2.72c0-.99.24-1.75.72-2.29.48-.54,1.16-.81,2.04-.81.14,0,.28,0,.4.03Z"/>
          <path class="j" d="M38.31,86.72c-.05.28-.15.53-.29.78-.15.24-.33.46-.55.64-.22.18-.48.33-.77.43-.29.11-.61.16-.96.16-.39,0-.75-.07-1.08-.21-.33-.14-.61-.34-.85-.59-.24-.25-.42-.55-.55-.9-.13-.35-.2-.72-.2-1.13s.08-.85.23-1.22c.15-.37.37-.69.64-.96.28-.27.6-.48.99-.63.38-.15.8-.23,1.26-.23s.87.08,1.24.23c.37.15.69.37.96.66.26.29.47.63.61,1.03.14.4.21.86.21,1.36v2.53h-1.5v-1.32s-.13-.23-.13-.23v-1.11c0-.25-.03-.48-.1-.68-.06-.2-.16-.37-.28-.51-.12-.14-.27-.25-.45-.32-.18-.07-.38-.11-.59-.11s-.42.04-.6.11c-.18.07-.34.17-.47.3s-.23.29-.3.47c-.07.18-.1.39-.1.6,0,.21.03.4.1.58.07.17.16.32.28.44.12.12.26.21.43.28.17.06.36.1.57.1.25,0,.48-.05.71-.14.22-.09.43-.22.62-.4.19-.18.36-.39.52-.64.15-.25.28-.54.39-.86v1.47Z"/>
          <path class="j" d="M40.1,81.11h1.63v7.58h-1.63v-7.58ZM41.01,85.22h2.51c.42,0,.79.03,1.1.08.31.05.57.15.78.29.21.14.36.33.46.57.1.24.15.53.15.9v1.14c0,.08,0,.16.01.24s.02.16.03.24h-1.61c-.01-.07-.03-.14-.03-.2,0-.06-.01-.13-.01-.21v-.91c0-.3-.07-.52-.22-.66-.15-.14-.39-.22-.71-.22h-2.46v-1.26ZM44.3,83.06h1.6s-1.45,2.82-1.45,2.82h-1.47s1.31-2.82,1.31-2.82Z"/>
          <path class="j" d="M49.06,84.37c-.19.07-.35.18-.48.32-.13.14-.24.3-.31.49-.07.19-.11.41-.11.66s.04.46.11.65c.07.2.18.36.32.5s.3.24.49.32c.19.08.41.11.65.11.26,0,.51-.05.74-.14s.46-.23.67-.41l.75,1.16c-.29.28-.62.49-1.01.63s-.79.22-1.22.22-.85-.07-1.22-.22c-.37-.15-.69-.35-.95-.62s-.47-.58-.62-.95c-.15-.37-.22-.78-.22-1.22,0-.44.07-.85.22-1.21.15-.37.35-.68.62-.95s.58-.47.96-.62.78-.22,1.22-.22c.41,0,.78.06,1.13.18s.65.3.91.53.47.5.63.82c.16.32.26.67.29,1.05l-4.86,1.51-.28-1.14,4.16-1.28-.46.85c-.04-.17-.1-.33-.19-.47-.09-.14-.2-.26-.33-.36-.13-.1-.28-.17-.45-.23s-.35-.08-.54-.08c-.23,0-.44.04-.63.11Z"/>
          <path class="j" d="M57.58,83.1c.37.15.68.36.95.64s.46.62.6,1.02.21.84.21,1.34v2.6h-1.63v-2.69c0-.26-.03-.49-.09-.69-.06-.2-.15-.37-.27-.51-.12-.14-.26-.24-.43-.31-.17-.07-.37-.1-.59-.1s-.42.04-.6.11-.32.18-.43.31c-.12.13-.2.3-.27.5-.06.2-.09.43-.09.69v2.69h-1.58v-2.6c0-.5.07-.95.21-1.34.14-.39.34-.73.59-1.01s.57-.49.93-.64c.37-.15.78-.22,1.24-.22s.88.07,1.25.22Z"/>
          <path class="j" d="M21.44,92.3c.09-.22.2-.4.36-.55.15-.15.34-.27.55-.36s.45-.13.7-.13c.28,0,.55.05.79.16.24.11.44.26.6.45l-.59.52c-.09-.11-.21-.19-.34-.25-.14-.06-.28-.09-.44-.09-.14,0-.26.02-.38.07-.12.05-.22.11-.3.2-.08.09-.15.19-.19.31-.04.12-.07.26-.07.41,0,.14.02.27.07.39.05.12.11.22.2.3s.19.15.32.19c.12.04.26.07.42.07h.64s0-1.02,0-1.02h.79v1.74h-1.4c-.29,0-.55-.04-.77-.12s-.42-.19-.58-.34c-.16-.15-.28-.33-.37-.53s-.13-.44-.13-.7.04-.5.13-.72Z"/>
          <path class="j" d="M24.97,91.22h.75v3.5h-.75v-3.5Z"/>
          <path class="j" d="M26.19,92.86c.07-.17.17-.31.29-.44s.27-.22.45-.29.37-.1.57-.1.4.03.57.1.32.16.45.28c.13.12.22.27.29.44s.1.36.1.56c0,.2-.03.39-.1.56-.07.17-.17.32-.29.44-.13.12-.27.22-.45.29s-.36.1-.57.1-.4-.03-.57-.1-.32-.16-.45-.29-.22-.27-.29-.44c-.07-.17-.11-.36-.11-.56,0-.2.04-.39.11-.56ZM28.14,93.14c-.03-.08-.08-.16-.14-.22-.06-.06-.13-.1-.22-.14-.08-.03-.18-.05-.28-.05s-.19.02-.28.05-.16.08-.22.14-.11.13-.14.22c-.03.08-.05.18-.05.28,0,.1.02.19.05.28.03.09.08.16.14.22s.13.11.22.14.18.05.28.05.19-.02.28-.05c.08-.03.15-.08.21-.14.06-.06.1-.13.14-.22.03-.08.05-.18.05-.28,0-.1-.02-.19-.05-.28Z"/>
          <path class="j" d="M29.74,92.74c.05-.1.11-.19.19-.27.08-.08.17-.15.27-.21s.21-.1.33-.14c.12-.03.24-.05.37-.05.18,0,.34.03.49.09.15.06.28.15.38.27.11.12.19.25.25.41.06.16.09.34.09.53,0,.21-.04.4-.11.58s-.17.33-.29.45c-.13.13-.28.23-.45.3-.18.07-.37.11-.58.11s-.4-.04-.57-.11-.32-.17-.44-.3c-.12-.13-.22-.29-.28-.48-.07-.19-.1-.4-.1-.63v-2.07h.75v2.12c0,.12.01.23.04.32.03.09.07.17.13.23.06.06.12.11.2.15s.17.05.27.05.2-.02.28-.05.16-.08.22-.14c.06-.06.11-.13.14-.21s.05-.17.05-.28c0-.1-.02-.18-.05-.26-.03-.08-.07-.15-.13-.2-.06-.06-.13-.1-.21-.13-.08-.03-.17-.05-.27-.05-.21,0-.39.06-.56.19s-.3.3-.39.53v-.75Z"/>
          <path class="j" d="M34.81,93.81c-.02.13-.07.25-.14.36-.07.11-.15.21-.25.3-.1.09-.22.15-.36.2-.14.05-.28.07-.44.07-.18,0-.35-.03-.5-.1-.15-.07-.28-.16-.39-.27s-.19-.25-.25-.41c-.06-.16-.09-.33-.09-.52,0-.2.04-.39.11-.56s.17-.32.3-.44c.13-.12.28-.22.46-.29.18-.07.37-.11.58-.11s.4.04.57.11.32.17.44.3c.12.13.22.29.28.48.07.19.1.4.1.63v1.17h-.69v-.61s-.06-.11-.06-.11v-.51c0-.12-.02-.22-.05-.31-.03-.09-.07-.17-.13-.24s-.12-.11-.21-.15-.17-.05-.27-.05-.19.02-.28.05c-.08.03-.16.08-.22.14s-.11.13-.14.22-.05.18-.05.28.01.19.04.27c.03.08.07.15.13.2.06.06.12.1.2.13.08.03.17.04.26.04.11,0,.22-.02.33-.06.1-.04.2-.1.29-.19s.17-.18.24-.3.13-.25.18-.4v.68Z"/>
          <path class="j" d="M35.64,91.22h.75v3.5h-.75v-3.5Z"/>
          <path class="j" d="M39.05,94.71h-.83v-3.37h.83v3.37ZM38.67,92.63h2.28v.72h-2.28v-.72ZM40.63,91.35h.83v3.37h-.83v-3.37Z"/>
          <path class="j" d="M41.93,92.86c.07-.17.17-.31.29-.44s.27-.22.45-.29.37-.1.57-.1.4.03.57.1.32.16.45.28c.13.12.22.27.29.44s.1.36.1.56c0,.2-.03.39-.1.56-.07.17-.17.32-.29.44-.13.12-.27.22-.45.29s-.36.1-.57.1-.4-.03-.57-.1-.32-.16-.45-.29-.22-.27-.29-.44c-.07-.17-.11-.36-.11-.56,0-.2.04-.39.11-.56ZM43.87,93.14c-.03-.08-.08-.16-.14-.22-.06-.06-.13-.1-.22-.14-.08-.03-.18-.05-.28-.05s-.19.02-.28.05-.16.08-.22.14-.11.13-.14.22c-.03.08-.05.18-.05.28,0,.1.02.19.05.28.03.09.08.16.14.22s.13.11.22.14.18.05.28.05.19-.02.28-.05c.08-.03.15-.08.21-.14.06-.06.1-.13.14-.22.03-.08.05-.18.05-.28,0-.1-.02-.19-.05-.28Z"/>
          <path class="j" d="M45.02,91.22h.75v3.5h-.75v-3.5Z"/>
          <path class="j" d="M48.97,91.22v2.07c0,.23-.03.44-.1.63-.07.19-.16.35-.28.48-.12.13-.27.23-.44.3s-.36.11-.57.11-.41-.04-.58-.11-.33-.17-.45-.3c-.13-.13-.22-.28-.29-.45s-.11-.37-.11-.57.03-.37.09-.53c.06-.16.14-.3.25-.41.11-.11.23-.2.38-.27.15-.06.31-.1.49-.1.12,0,.24.02.36.05.12.03.23.08.33.13.1.06.19.13.27.21.08.08.15.17.2.28l-.05.65c-.1-.2-.23-.35-.39-.46s-.33-.16-.52-.16c-.1,0-.19.02-.27.05-.08.03-.15.07-.21.13-.06.06-.1.12-.13.2-.03.08-.04.17-.04.26,0,.1.02.2.05.28s.08.15.14.21.13.11.22.14.18.05.28.05.19-.02.27-.05c.08-.03.15-.08.2-.15.06-.06.1-.14.13-.23.03-.09.04-.2.04-.32v-2.12h.75Z"/>
          <path class="j" d="M50.02,91.17c.07.06.11.15.11.26s0,.1-.03.14c-.02.04-.04.08-.08.11-.03.03-.07.05-.12.07-.05.02-.1.02-.15.02-.11,0-.2-.03-.27-.09-.07-.06-.11-.15-.11-.25,0-.05,0-.1.03-.15.02-.04.04-.08.08-.11.03-.03.07-.05.12-.07s.1-.02.15-.02c.11,0,.2.03.27.1ZM49.38,92.12h.75v2.6h-.75v-2.6Z"/>
          <path class="j" d="M52.5,92.13c.17.07.32.17.44.3s.21.29.28.47c.06.18.1.39.1.62v1.2h-.75v-1.24c0-.12-.01-.23-.04-.32-.03-.09-.07-.17-.12-.23-.05-.06-.12-.11-.2-.14-.08-.03-.17-.05-.27-.05s-.2.02-.28.05c-.08.03-.15.08-.2.14-.05.06-.09.14-.12.23-.03.09-.04.2-.04.32v1.24h-.73v-1.2c0-.23.03-.44.1-.62.06-.18.15-.34.27-.47.12-.13.26-.23.43-.3.17-.07.36-.1.57-.1s.41.03.58.1Z"/>
          <path class="j" d="M56.11,93.78c-.04.14-.09.27-.17.38-.08.11-.17.21-.28.29-.11.08-.23.14-.36.19-.13.04-.27.07-.42.07-.18,0-.34-.03-.49-.09-.15-.06-.28-.15-.39-.26-.11-.11-.19-.25-.25-.4-.06-.15-.09-.32-.09-.51s.04-.39.11-.56c.07-.17.17-.32.3-.45.13-.13.28-.22.46-.29s.37-.11.59-.11.4.04.57.11.32.17.44.3c.12.13.22.29.28.48.07.19.1.4.1.63v.85c0,.23-.03.44-.1.63s-.16.35-.29.48c-.13.13-.28.23-.45.3-.18.07-.38.11-.6.11-.14,0-.28-.01-.42-.04-.14-.03-.28-.07-.42-.12l.19-.59c.08.04.17.07.27.09.1.02.2.03.3.03.13,0,.24-.02.34-.05s.18-.09.24-.16c.06-.07.11-.17.14-.28s.05-.24.05-.39v-.9c0-.12-.02-.22-.05-.31-.03-.09-.07-.17-.13-.24-.06-.07-.13-.11-.21-.15s-.17-.05-.27-.05-.19.02-.28.05c-.08.03-.16.08-.22.14s-.11.13-.14.22-.05.18-.05.28.01.19.04.27c.03.08.07.15.13.2.06.06.13.1.21.13.08.03.17.04.27.04s.2-.02.3-.05c.1-.03.19-.08.27-.14.08-.06.16-.14.22-.23.07-.09.12-.19.17-.31l.09.43Z"/>
          <path class="j" d="M56.82,94.05h.87s.07,0,.1-.01c.03,0,.06-.02.08-.04s.04-.04.05-.06c0-.02.01-.05.01-.08,0-.03,0-.05-.01-.08-.01-.03-.03-.05-.06-.09s-.07-.07-.12-.12-.12-.1-.2-.17c-.06-.04-.11-.09-.15-.14-.04-.05-.08-.1-.11-.15-.03-.05-.05-.11-.06-.17-.01-.06-.02-.12-.02-.18s.02-.19.05-.27c.04-.08.08-.15.15-.21.06-.06.14-.1.23-.14s.19-.05.3-.05h1.19v.65h-.83s-.06,0-.09.01c-.03,0-.05.02-.07.04s-.03.04-.04.06c0,.02-.01.05-.01.08,0,.03,0,.05.01.08.01.02.03.05.06.08.03.03.07.07.12.12.05.05.12.1.21.17.06.05.11.09.15.14.04.05.08.1.11.15.03.05.05.11.06.17.01.06.02.12.02.19s-.02.2-.05.28c-.03.08-.08.15-.14.2s-.14.1-.23.13c-.09.03-.19.05-.31.05h-1.25v-.66Z"/>
        </g>
      </g>
    </g>
  </g>
</svg>