<?xml version="1.0" encoding="UTF-8"?>
<svg id="b" data-name="Layer 2" xmlns="http://www.w3.org/2000/svg" viewBox="0 0 863.09 568.78">
  <defs>
    <style>
      .d {
        fill: #727780;
      }

      .e {
        fill: #556aa6;
      }

      .f {
        fill: #464e82;
      }

      .g {
        fill: #4e5c9a;
      }
    </style>
  </defs>
  <g id="c" data-name="Layer 1">
    <g>
      <path class="f" d="M188.74,568.78c-55.18,0-99.06-29.06-120.3-46.38C8.89,473.84,0,419.28,0,391.07V121.42C0,55.42,53.7,1.58,119.71,1.42Q708.13,0,708.26,0c38.95,0,75.29,18.81,97.81,50.48.1.11.46.51.46.51,18.29,20.35,61.17,68.06,56.15,136.97-3.7,50.83-28.15,84.41-42.76,104.47-.42.58-.82,1.13-1.19,1.64-3.93,22.43-12.2,52.41-33.76,82.29-26.36,36.53-63.94,62.05-114.87,78.01-43.64,24.65-97.58,38.42-152.54,38.88-11.85.53-64.83,3.17-121.63,10.15-58.87,7.23-88.68,15.02-101.79,19.29-26.46,29.43-64.2,46.08-105.39,46.08Z"/>
      <path class="g" d="M188.74,528.78c-42.79,0-77.9-23.42-95.02-37.38-46.74-38.11-53.72-79.22-53.72-100.33V121.42c0-44,35.8-79.89,79.81-80q588.38-1.42,588.46-1.42c26.54,0,51.6,13.43,66.36,35.32.73.82,1.54,1.73,2.06,2.3l.08.09c16.16,17.99,49.81,55.42,46.03,107.36-2.87,39.43-22.33,66.15-35.2,83.83-1.8,2.48-5.21,7.16-6.94,9.89-2.98,21.12-9.18,47.94-28.12,74.18-21.13,29.29-52.03,49.98-94.45,63.27-1.87.58-3.25,1.03-4.25,1.36-38.61,22.74-87.14,35.38-137.31,35.68-9.25.41-65.54,3.08-125.48,10.44-78.97,9.7-110.62,20.76-120.96,25.31-18.77,25.1-48.37,39.76-81.34,39.76Z"/>
      <path class="e" d="M188.74,488.78c-31.54,0-59.28-19.85-69.74-28.38-33.93-27.67-39-55.31-39-69.33V121.42c0-22.05,17.85-39.95,39.9-40,0,0,588.33-1.42,588.36-1.42,14.12,0,27.1,7.43,34.29,19.4,1.03,1.23,2.97,3.39,4.45,5.04,14.38,16,38.44,42.77,35.89,77.72-2.04,28.03-16.24,47.52-27.64,63.18-7.98,10.96-12.92,18.02-13.79,24.74-2.33,18-6.69,39.13-21.37,59.47-15.9,22.03-40.09,37.89-73.97,48.5-5.85,1.83-8.39,2.74-9.48,3.19-33.25,20.52-76.18,31.88-121.08,32.03-7.02.3-66.15,2.97-129.4,10.73-113.81,13.98-140.16,31.78-144.18,35.07-10.72,18.64-30.46,29.7-53.24,29.7Z"/>
      <path class="d" d="M514.7,373.28s-278.27,10.81-307.04,65.23c-16.3,30.83-87.66-14.43-87.66-47.43V121.42l588.26-1.42c4.5,9.16,36.56,34.23,34.74,59.26-2.4,32.94-36.71,50.96-41.21,85.69-3.56,27.5-11.59,57.39-67.62,74.94-9.44,2.96-14.4,4.74-17.91,6.93-28.06,17.52-64.48,26.45-101.56,26.46Z"/>
    </g>
  </g>
</svg>
