<?xml version="1.0" encoding="UTF-8"?>
<svg id="b" data-name="Layer 2" xmlns="http://www.w3.org/2000/svg" viewBox="0 0 56.69 66.31">
  <defs>
    <style>
      .d {
        fill: #121820;
      }

      .e {
        fill: #8d9092;
      }

      .f {
        fill: #252324;
      }

      .g {
        fill: #76787a;
      }
    </style>
  </defs>
  <g id="c" data-name="Layer 1">
    <g>
      <polygon class="g" points="56.69 11.73 28.35 0 28.35 52.67 56.69 52.67 56.69 11.73"/>
      <polygon class="e" points="28.35 0 0 11.73 0 52.67 28.35 52.67 28.35 0"/>
      <g>
        <polygon class="f" points="0 16.32 0 11.73 28.35 0 28.35 4.58 0 16.32"/>
        <polygon class="f" points="0 25.4 0 20.82 28.35 9.44 28.35 14.02 0 25.4"/>
        <polygon class="f" points="0 34.49 0 29.91 28.35 18.53 28.35 23.11 0 34.49"/>
        <polygon class="f" points="0 43.58 0 39 28.35 27.25 28.35 31.83 0 43.58"/>
        <polygon class="f" points="0 52.67 0 48.08 28.35 36.42 28.35 41 0 52.67"/>
      </g>
      <g>
        <polygon class="f" points="56.69 16.32 56.69 11.73 28.35 0 28.35 4.58 56.69 16.32"/>
        <polygon class="f" points="56.69 25.4 56.69 20.82 28.35 9.44 28.35 14.02 56.69 25.4"/>
        <polygon class="f" points="56.69 34.49 56.69 29.91 28.35 18.53 28.35 23.11 56.69 34.49"/>
        <polygon class="f" points="56.69 43.58 56.69 39 28.35 27.25 28.35 31.83 56.69 43.58"/>
        <polygon class="f" points="56.69 52.67 56.69 48.08 28.35 36.42 28.35 41 56.69 52.67"/>
      </g>
    </g>
    <g>
      <polygon class="e" points="28.35 41 0 52.63 0 66.31 56.69 66.31 56.69 52.63 28.35 41"/>
      <g>
        <polygon class="d" points="31.45 48.38 31.45 52.67 34.18 50.85 34.18 46.56 31.45 48.38"/>
        <polygon class="d" points="25.29 46.02 22.47 47.9 25.02 47.9 27.9 46.02 25.29 46.02"/>
        <polygon class="d" points="27.46 47.9 30.05 47.9 30.65 47.9 33.47 46.02 32.26 46.02 30.34 46.02 27.46 47.83 27.46 47.9"/>
        <polygon class="d" points="25.02 50.17 25.02 48.63 25.02 48.58 21.76 48.58 21.76 53.2 22.99 53.2 30.34 53.2 30.34 49.18 30.34 48.58 27.46 48.58 27.46 50.17 25.02 50.17"/>
      </g>
      <g>
        <rect class="d" x="8.53" y="59.07" width="12.82" height="1.71"/>
        <rect class="d" x="8.53" y="63.64" width="12.82" height="2.67"/>
        <rect class="d" x="8.53" y="61.35" width="12.82" height="1.71"/>
        <rect class="d" x="8.53" y="56.79" width="12.82" height="1.71"/>
      </g>
      <g>
        <rect class="d" x="34.96" y="59.07" width="12.82" height="1.71"/>
        <rect class="d" x="34.96" y="63.64" width="12.82" height="2.67"/>
        <rect class="d" x="34.96" y="61.35" width="12.82" height="1.71"/>
        <rect class="d" x="34.96" y="56.79" width="12.82" height="1.71"/>
      </g>
    </g>
  </g>
</svg>