{
    "asset": {
        "generator": "Khronos glTF Blender I/O v4.2.69",
        "version": "2.0"
    },
    "scene": 0,
    "scenes": [
        {
            "name": "Scene",
            "nodes": [0]
        }
    ],
    "nodes": [
        {
            "mesh": 0,
            "name": "roundedblocker"
        }
    ],
    "materials": [
        {
            "doubleSided": true,
            "name": "Material.006",
            "pbrMetallicRoughness": {
                "baseColorTexture": {
                    "index": 0
                },
                "metallicFactor": 0,
                "roughnessFactor": 0.5
            }
        }
    ],
    "meshes": [
        {
            "name": "roundedblocker",
            "primitives": [
                {
                    "attributes": {
                        "POSITION": 0,
                        "NORMAL": 1,
                        "TEXCOORD_0": 2
                    },
                    "indices": 3,
                    "material": 0
                }
            ]
        }
    ],
    "textures": [
        {
            "sampler": 0,
            "source": 0
        }
    ],
    "images": [
        {
            "mimeType": "image/png",
            "name": "selectedfacesroundedblocker",
            "uri": "selectedfacesroundedblocker.png"
        }
    ],
    "accessors": [
        {
            "bufferView": 0,
            "componentType": 5126,
            "count": 695,
            "max": [16.385194778442383, 20, 0],
            "min": [-1.3851956129074097, 0, -20],
            "type": "VEC3"
        },
        {
            "bufferView": 1,
            "componentType": 5126,
            "count": 695,
            "type": "VEC3"
        },
        {
            "bufferView": 2,
            "componentType": 5126,
            "count": 695,
            "type": "VEC2"
        },
        {
            "bufferView": 3,
            "componentType": 5123,
            "count": 1524,
            "type": "SCALAR"
        }
    ],
    "bufferViews": [
        {
            "buffer": 0,
            "byteLength": 8340,
            "byteOffset": 0,
            "target": 34962
        },
        {
            "buffer": 0,
            "byteLength": 8340,
            "byteOffset": 8340,
            "target": 34962
        },
        {
            "buffer": 0,
            "byteLength": 5560,
            "byteOffset": 16680,
            "target": 34962
        },
        {
            "buffer": 0,
            "byteLength": 3048,
            "byteOffset": 22240,
            "target": 34963
        }
    ],
    "samplers": [
        {
            "magFilter": 9729,
            "minFilter": 9987
        }
    ],
    "buffers": [
        {
            "byteLength": 25288,
            "uri": "Barrier.bin"
        }
    ]
}
