{"scene":0,"asset":{"generator":"ImageToStl.com","version":"2.0"},"scenes":[{"name":"Scene","nodes":[0]}],"nodes":[{"name":"Node0","children":[1]},{"name":"Node1","mesh":0}],"materials":[{"name":"Material #25","pbrMetallicRoughness":{"baseColorFactor":[0.58431375,0.58431375,0.58431375,1.0],"metallicFactor":0.0,"roughnessFactor":1.0},"doubleSided":true},{"name":"Material #26","pbrMetallicRoughness":{"baseColorFactor":[0.58431375,0.58431375,0.58431375,1.0],"metallicFactor":0.0,"roughnessFactor":1.0},"doubleSided":true},{"name":"01 - Default","pbrMetallicRoughness":{"baseColorFactor":[0.5882353,0.5882353,0.5882353,1.0],"metallicFactor":0.0,"roughnessFactor":1.0},"doubleSided":true},{"name":"Material #28","pbrMetallicRoughness":{"baseColorFactor":[0.58431375,0.58431375,0.58431375,1.0],"metallicFactor":0.0,"roughnessFactor":1.0},"doubleSided":true},{"name":"Material #29","pbrMetallicRoughness":{"baseColorFactor":[0.58431375,0.58431375,0.58431375,1.0],"metallicFactor":0.0,"roughnessFactor":1.0},"doubleSided":true},{"name":"Material #30","pbrMetallicRoughness":{"baseColorFactor":[0.58431375,0.58431375,0.58431375,1.0],"metallicFactor":0.0,"roughnessFactor":1.0},"doubleSided":true}],"meshes":[{"name":"Mesh0","primitives":[{"indices":1,"material":2,"attributes":{"POSITION":0}}]}],"accessors":[{"bufferView":0,"componentType":5126,"count":16,"type":"VEC3","min":[-0.22849801,-0.9999999,0.0],"max":[0.22849801,1.0,0.8130001]},{"bufferView":1,"componentType":5123,"count":84,"type":"SCALAR"}],"bufferViews":[{"target":34962,"buffer":0,"byteLength":192,"byteOffset":0},{"target":34963,"buffer":0,"byteLength":168,"byteOffset":192}],"buffers":[{"byteLength":360,"uri":"data:application/octet-stream;base64,"}]}