<?xml version="1.0" standalone="no"?>
<!DOCTYPE svg PUBLIC "-//W3C//DTD SVG 20010904//EN"
 "http://www.w3.org/TR/2001/REC-SVG-20010904/DTD/svg10.dtd">
<svg version="1.0" xmlns="http://www.w3.org/2000/svg"
 width="240.000000pt" height="240.000000pt" viewBox="0 0 240.000000 240.000000"
 preserveAspectRatio="xMidYMid meet">
<metadata>
Created by potrace 1.14, written by Peter Selinger 2001-2017
</metadata>
<g transform="translate(0.000000,240.000000) scale(0.100000,-0.100000)"
fill="#000000" stroke="none">
<path d="M0 1205 l0 -1016 663 4 c364 2 678 7 697 11 65 14 182 57 224 81 57
34 123 91 157 137 15 21 29 35 31 31 3 -4 4 -108 4 -230 l-1 -223 107 0 c105
0 108 1 109 23 0 12 1 266 1 565 l1 542 199 0 c181 0 198 1 199 18 1 9 1 55 2
102 l1 85 -440 3 -440 2 53 55 c52 56 118 174 128 230 22 135 12 226 -37 317
-34 64 -100 131 -168 171 -46 26 -170 71 -225 81 -17 3 -41 9 -55 13 -14 3
-292 8 -617 10 l-593 4 0 -1016z m968 651 c111 -31 160 -92 164 -202 6 -201
-88 -262 -396 -260 l-128 1 0 185 c0 102 1 211 1 244 l1 59 153 -6 c86 -3 175
-12 205 -21z m808 -769 c1 -31 -1 -35 -13 -26 -8 7 -23 25 -35 41 l-20 29 33
-3 c30 -3 33 -6 35 -41z m-772 -52 c66 -14 124 -40 164 -74 50 -43 76 -153 57
-241 -13 -59 -55 -108 -120 -140 -77 -39 -122 -45 -329 -45 l-169 0 1 235 c0
129 1 245 1 258 l1 23 165 -1 c94 -1 192 -7 229 -15z"/>
</g>
</svg>
