<?xml version="1.0" encoding="UTF-8"?>
<svg id="b" data-name="Layer 2" xmlns="http://www.w3.org/2000/svg" viewBox="0 0 66.9 30.18">
  <g id="c" data-name="Layer 1">
    <path d="M11.26,26.25c-1.47,0-8.17,3.7-9.03,1.53L.06,22.21c-.29-.75.49-2.36,1.2-2.59l6.68-2.12c.48-4.93,3.78-8.82,7.77-10.51,5.11-2.16,9.81-.17,13.75,2.99L58.37.24c2.57-.87,5.88.83,8.53,1.57-1.48,2.81-3.52,6.19-6.48,7.23l-28.02,9.86c-.87,5.02-3.47,8.96-7.72,10.42-4.8,1.65-9.69,1.09-13.41-3.07ZM24.44,18.13c0-2.34-1.9-4.24-4.24-4.24s-4.24,1.9-4.24,4.24,1.9,4.24,4.24,4.24,4.24-1.9,4.24-4.24Z"/>
  </g>
</svg>