<svg xmlns="http://www.w3.org/2000/svg" viewBox="0 0 168 230" role="img" aria-label="Orange meeple">
  <path
    d="M84 22
       C62 22 44 40 44 62
       C44 78 54 90 67 96
       L53 114
       C44 126 44 142 53 153
       L60 163
       L51 201
       C49 209 54 214 62 214
       L76 214
       C82 214 86 210 87 205
       L89 180
       C89 177 91 175 94 175
       C97 175 99 177 99 180
       L101 205
       C102 210 106 214 112 214
       L126 214
       C134 214 139 209 137 201
       L128 163
       L135 153
       C144 142 144 126 135 114
       L121 96
       C134 90 144 78 144 62
       C144 40 126 22 104 22
       Z"
    fill="#f46b0b"
    stroke="#df5f06"
    stroke-width="5"
    stroke-linejoin="round"
    stroke-linecap="round"
  />
</svg>
