<?xml version="1.0" encoding="UTF-8"?>
<svg id="b" data-name="Layer 2" xmlns="http://www.w3.org/2000/svg" viewBox="0 0 40.57 40.57">
  <defs>
    <style>
      .d {
        fill: #7d7d7d;
      }

      .e {
        fill: #fefefe;
      }

      .f {
        fill: #787878;
      }
    </style>
  </defs>
  <g id="c" data-name="Layer 1">
    <g>
      <path class="e" d="M40.57,20.28C40.57,9.08,31.49,0,20.28,0S0,9.08,0,20.28s9.08,20.28,20.28,20.28,20.28-9.08,20.28-20.28Z"/>
      <path class="f" d="M40.57,20.28c0,11.2-9.08,20.28-20.28,20.28S0,31.49,0,20.28,9.08,0,20.28,0s20.28,9.08,20.28,20.28ZM23.33,22.46c3.07-.34,5.74-.99,8.43-2.51l.04-6.35c0-.9-.54-1.7-1.48-1.7l-5.22-.02-.06-1.85c-.04-1.07-.78-1.89-1.89-1.89h-5.72c-1.34-.02-2.01.91-2.05,2.16l-.06,1.59h-5.09c-.83.01-1.58.65-1.58,1.53l.02,6.51c2.62,1.53,5.3,2.17,8.38,2.55,1.78-1.49,4.36-1.71,6.29-.01ZM30.97,27.32l-.02-5.83c-2.45.99-4.81,1.54-7.41,1.83-1.72,2.09-4.99,1.97-6.68-.03-2.63-.27-4.88-.8-7.37-1.82l.02,6.25c0,.45.77.92,1.22.91h18.87c.74.05,1.37-.5,1.37-1.32Z"/>
      <path class="e" d="M23.33,22.46c-1.93-1.7-4.51-1.48-6.29.01-3.08-.38-5.76-1.02-8.38-2.55l-.02-6.51c0-.88.75-1.52,1.58-1.52h5.09s.06-1.6.06-1.6c.05-1.26.71-2.18,2.05-2.18h5.72c1.12.02,1.86.83,1.89,1.9l.06,1.85,5.22.02c.94,0,1.49.8,1.48,1.7l-.04,6.35c-2.69,1.52-5.36,2.17-8.43,2.51ZM22.85,11.87c.15-.63.06-1.85-.36-1.88-1.58-.11-2.95-.11-4.49-.05-.45.3-.6,1.39-.31,1.92h5.16Z"/>
      <path class="e" d="M30.97,27.32c0,.82-.64,1.37-1.37,1.32H10.73c-.44,0-1.22-.47-1.22-.91l-.02-6.25c2.49,1.01,4.74,1.55,7.37,1.82,1.68,2,4.96,2.11,6.68.03,2.6-.29,4.97-.84,7.41-1.83l.02,5.83Z"/>
      <path class="d" d="M22.85,11.87h-5.16c-.29-.54-.15-1.63.31-1.93,1.54-.06,2.91-.07,4.49.05.42.03.51,1.25.36,1.88Z"/>
    </g>
  </g>
</svg>