<?xml version="1.0" encoding="UTF-8"?>
<svg id="b" data-name="Layer 2" xmlns="http://www.w3.org/2000/svg" viewBox="0 0 40.14 40.14">
  <defs>
    <style>
      .d {
        fill: #393939;
      }

      .e {
        fill: #363636;
      }

      .f {
        fill: #fefefe;
      }
    </style>
  </defs>
  <g id="c" data-name="Layer 1">
    <g>
      <circle class="e" cx="20.07" cy="20.07" r="20.07"/>
      <g>
        <path class="f" d="M30.18,26.76l-.04,1.94c0,.35-.61.93-.96.93h-8.66c-.54-.01-.93-.65-.94-1.18l-.08-10.46c-.58-.86-1.29-1.77-.97-2.87.41-1.39,1.66-1.35,2.55-2,1.02-.76,1.53-1.17,2.93-1.29.91-.08,1.67-1.37,3.08-.81,1.03.41,1.54,1.2,2.25,2.26.49.73,1.86.77,1.88,2,.02,1.11-.02,1.91-1.13,2.87l2.38.12c.9.05,1.68.84,1.67,1.81l-.02,4.99c0,1.05-.94,1.69-1.84,1.69h-2.1Z"/>
        <path class="e" d="M26.47,18.62l-.08-1.56-5.62-.07c-.58,0-.83-1.11-.67-1.54.26-.69,1.11-.71,1.89-.67.23-.35.56-.99.83-1.25s1.28-.06,1.63-.03c.54-.47,1.29-.98,1.93-.89,1.03.15,1.48.88,1.44,1.96l.87.18c.48.1,1.03.6,1.03,1.15s-.69.93-1.29,1.08l-.79.2c-.25.06.51.9-.11,1.82-.16.24-1.04-.08-1.05-.38Z"/>
        <rect class="d" x="30.09" y="20.25" width="2.09" height="4.53"/>
      </g>
      <g>
        <path class="f" d="M14.76,27.72c1.04.84,2.62.16,2.98,1.1.1.26-.41.8-.73.8h-6.42c-.28,0-.77-.4-.75-.62.02-.26.46-.62.74-.68l2.29-.48c.11-2.31.15-4.29.11-6.67-2.46-.5-4.68-2.29-4.69-4.92,0-1.04.91-6.07,2.46-6.06l6.5.04c.88.6,1.33,2.02,1.37,3.05-1.49,1.55-1.56,3.74.07,5.2-.9,1.46-2.23,2.32-4.06,2.69-.09,2.16-.04,4.31.14,6.55Z"/>
        <polygon class="e" points="17.23 13.62 10.41 13.63 10.97 11.48 16.56 11.48 17.23 13.62"/>
      </g>
    </g>
  </g>
</svg>