<?xml version="1.0" encoding="UTF-8"?>
<svg xmlns="http://www.w3.org/2000/svg" viewBox="0 0 56 56">
  <defs>
    <radialGradient id="green_base" cx="36%" cy="30%" r="68%">
      <stop offset="0%" stop-color="#89e3b3"/>
      <stop offset="42%" stop-color="#28a56f"/>
      <stop offset="100%" stop-color="#0f5f43"/>
    </radialGradient>
    <radialGradient id="green_core" cx="34%" cy="28%" r="54%">
      <stop offset="0%" stop-color="#caf7dd" stop-opacity=".94"/>
      <stop offset="68%" stop-color="#56bf90" stop-opacity=".33"/>
      <stop offset="100%" stop-color="#56bf90" stop-opacity="0"/>
    </radialGradient>
    <linearGradient id="green_gloss" x1="0" y1="0" x2="0" y2="1">
      <stop offset="0%" stop-color="#ffffff" stop-opacity=".78"/>
      <stop offset="100%" stop-color="#ffffff" stop-opacity="0"/>
    </linearGradient>
    <filter id="green_shadow" x="-25%" y="-25%" width="150%" height="150%">
      <feDropShadow dx="0" dy="1.2" stdDeviation="1.1" flood-color="#08271b" flood-opacity=".47"/>
    </filter>
  </defs>
  <g filter="url(#green_shadow)">
    <circle cx="28" cy="28" r="24.2" fill="url(#green_base)" stroke="#0a4b34" stroke-width="1.6"/>
    <circle cx="28" cy="28" r="17.8" fill="url(#green_core)"/>
    <path d="M12.8 33.4C17.2 29.3 21.5 28.2 26 25C30.3 21.8 33.2 17.4 36.4 14.1" fill="none" stroke="#98f1c6" stroke-opacity=".76" stroke-width="2.25" stroke-linecap="round"/>
    <path d="M20.1 42.9C25.1 40.9 28.1 36.4 32.8 33.4C36.8 30.8 41.2 30.5 44 26.6" fill="none" stroke="#aef5d1" stroke-opacity=".44" stroke-width="1.7" stroke-linecap="round"/>
    <path d="M15.1 19.9C17.7 21.4 20 22 22.5 24.3" fill="none" stroke="#dcfaea" stroke-opacity=".52" stroke-width="1.25" stroke-linecap="round"/>
    <ellipse cx="20.8" cy="18.7" rx="11.2" ry="7.3" fill="url(#green_gloss)" opacity=".8"/>
    <ellipse cx="36.5" cy="37.1" rx="6.3" ry="4.2" fill="#a4f1c7" opacity=".19"/>
  </g>
</svg>
