<?xml version="1.0" encoding="UTF-8"?>
<svg xmlns="http://www.w3.org/2000/svg" width="2646" height="1280" viewBox="0 0 2646 1280">
  <image href="indo_map_sm.jpg" x="0" y="0" width="2646" height="1280" preserveAspectRatio="none"/>
  <g id="segments" fill="none" stroke-linecap="round" stroke-linejoin="round">
    <path d="M 1323.71 265.75 L 1324.02 267" stroke="#e03131" stroke-width="2.1" opacity="0.88"/>
    <path d="M 1324.02 267 C 1324.52 268.81 1322.34 269.31 1321.78 270.93" stroke="#e03131" stroke-width="2.1" opacity="0.88"/>
    <path d="M 1321.78 270.93 C 1327.08 272.06 1332.69 270 1337.79 274.43" stroke="#e03131" stroke-width="2.1" opacity="0.88"/>
    <path d="M 1337.79 274.43 C 1338.36 283.73 1329.32 286.67 1324.78 293.16" stroke="#e03131" stroke-width="2.1" opacity="0.88"/>
    <path d="M 1324.78 293.16 C 1326.77 297.16 1330.94 295.09 1334 294.97" stroke="#e03131" stroke-width="2.1" opacity="0.88"/>
    <path d="M 1334 294.97 C 1338.36 294.72 1340.17 300.28 1344.28 298.28" stroke="#e03131" stroke-width="2.1" opacity="0.88"/>
    <path d="M 1344.28 298.28 C 1345.65 300.96 1346.65 303.02 1347.7 305.08" stroke="#e03131" stroke-width="2.1" opacity="0.88"/>
    <path d="M 1347.7 305.08 C 1346.71 308.58 1342.22 307.71 1340.73 310.39" stroke="#e03131" stroke-width="2.1" opacity="0.88"/>
    <path d="M 1340.73 310.39 C 1341.6 313.76 1344.09 312.14 1346.09 312.89" stroke="#e03131" stroke-width="2.1" opacity="0.88"/>
    <path d="M 1346.09 312.89 C 1346.9 314.2 1346.09 316.7 1348.02 317.51" stroke="#e03131" stroke-width="2.1" opacity="0.88"/>
    <path d="M 1348.02 317.51 C 1349.95 318.38 1350.45 315.7 1353 316.88" stroke="#e03131" stroke-width="2.1" opacity="0.88"/>
    <path d="M 1353 316.88 C 1353.81 325.12 1357.99 331.99 1367.08 335.36" stroke="#e03131" stroke-width="2.1" opacity="0.88"/>
    <path d="M 1367.08 335.36 C 1365.09 342.48 1375.06 345.91 1370.14 354.09" stroke="#e03131" stroke-width="2.1" opacity="0.88"/>
    <path d="M 1370.14 354.09 C 1365.3 356.33 1361.08 361.6 1354.89 365.78" stroke="#e03131" stroke-width="2.1" opacity="0.88"/>
    <path d="M 1354.76 365.84 C 1338.64 366.82 1322.21 361.78 1305.41 360.22" stroke="#e03131" stroke-width="2.1" opacity="0.88"/>
    <path d="M 1305.41 360.22 C 1300.67 359.78 1295.81 360.28 1291.33 359.35" stroke="#e03131" stroke-width="2.1" opacity="0.88"/>
    <path d="M 1291.33 359.35 C 1284.1 368.28 1280.18 378.45 1276.69 388.88" stroke="#e03131" stroke-width="2.1" opacity="0.88"/>
    <path d="M 1276.69 388.88 C 1275.94 391.13 1274.89 393.5 1273.02 395.13" stroke="#e03131" stroke-width="2.1" opacity="0.88"/>
    <path d="M 1273.02 395.13 C 1262.55 404.37 1258.57 418.04 1250.34 428.66" stroke="#e03131" stroke-width="2.1" opacity="0.88"/>
    <path d="M 1250.34 428.66 C 1242.43 438.96 1244.99 450.2 1244.37 461.31" stroke="#e03131" stroke-width="2.1" opacity="0.88"/>
    <path d="M 1056.76 323.23 C 1060.12 325.97 1061.43 329.66 1061.74 333.84" stroke="#1971c2" stroke-width="2.1" opacity="0.88"/>
    <path d="M 1061.74 333.84 C 1062.62 346.89 1068.6 358.44 1072.22 370.74" stroke="#1971c2" stroke-width="2.1" opacity="0.88"/>
    <path d="M 1072.22 370.74 C 1074.08 376.96 1075.82 383.25 1077.44 389.16" stroke="#1971c2" stroke-width="2.1" opacity="0.88"/>
    <path d="M 1077.45 389.22 C 1092.78 388.97 1104.93 381.22 1115.58 372.67" stroke="#1971c2" stroke-width="2.1" opacity="0.88"/>
    <path d="M 1115.58 372.67 C 1122.62 367.05 1129.16 360.49 1136.51 355.06" stroke="#1971c2" stroke-width="2.1" opacity="0.88"/>
    <path d="M 1136.51 355.06 C 1140.18 352.31 1144.3 350.63 1148.97 350.69" stroke="#1971c2" stroke-width="2.1" opacity="0.88"/>
    <path d="M 1148.97 350.69 C 1162.05 350.87 1175.14 349.87 1188.22 349.5" stroke="#1971c2" stroke-width="2.1" opacity="0.88"/>
    <path d="M 1188.22 349.5 C 1201.55 349.12 1214.51 352.18 1227.47 354.92" stroke="#1971c2" stroke-width="2.1" opacity="0.88"/>
    <path d="M 1227.47 354.92 C 1234.2 356.36 1240.86 357.61 1248.03 357.17" stroke="#1971c2" stroke-width="2.1" opacity="0.88"/>
    <path d="M 1248.03 357.17 C 1261.74 356.29 1275.5 357.6 1289.15 359.41" stroke="#1971c2" stroke-width="2.1" opacity="0.88"/>
    <path d="M 1289.15 359.41 L 1291.27 359.22" stroke="#1971c2" stroke-width="2.1" opacity="0.88"/>
    <path d="M 994.66 436.75 L 994.47 438.06" stroke="#2f9e44" stroke-width="2.1" opacity="0.88"/>
    <path d="M 994.47 438.06 C 993.79 447.86 990.05 457.1 988.93 466.78" stroke="#2f9e44" stroke-width="2.1" opacity="0.88"/>
    <path d="M 988.93 466.78 C 986.88 484.82 983.21 502.87 984.77 521.1" stroke="#2f9e44" stroke-width="2.1" opacity="0.88"/>
    <path d="M 984.77 521.1 C 985.45 529.4 984.27 536.96 979.97 543.45" stroke="#2f9e44" stroke-width="2.1" opacity="0.88"/>
    <path d="M 979.97 543.45 C 975.42 550.44 978.29 556.69 980.35 562.87" stroke="#2f9e44" stroke-width="2.1" opacity="0.88"/>
    <path d="M 980.35 562.87 C 982.72 570.05 987.33 575.04 995.05 578.1" stroke="#2f9e44" stroke-width="2.1" opacity="0.88"/>
    <path d="M 995.05 578.1 C 1000.78 580.37 1006.35 583 1011.86 585.77" stroke="#2f9e44" stroke-width="2.1" opacity="0.88"/>
    <path d="M 1011.86 585.77 C 1022.69 591.23 1033.27 597.25 1044.34 602.26" stroke="#2f9e44" stroke-width="2.1" opacity="0.88"/>
    <path d="M 1044.34 602.26 C 1047.63 603.75 1051.04 605.06 1054.4 606.43" stroke="#2f9e44" stroke-width="2.1" opacity="0.88"/>
    <path d="M 1054.43 606.44 C 1057.79 607.81 1057.67 607.81 1059.29 608.5" stroke="#2f9e44" stroke-width="2.1" opacity="0.88"/>
    <path d="M 1059.29 608.5 C 1067.51 612.24 1074.43 618.36 1082.97 621.61" stroke="#2f9e44" stroke-width="2.1" opacity="0.88"/>
    <path d="M 1082.97 621.61 C 1085.02 622.42 1087.08 623.29 1089.2 624.04" stroke="#2f9e44" stroke-width="2.1" opacity="0.88"/>
    <path d="M 1089.2 624.04 L 1090.51 624.48" stroke="#2f9e44" stroke-width="2.1" opacity="0.88"/>
    <path d="M 1199.7 505.71 L 1198.83 506.77" stroke="#f08c00" stroke-width="2.1" opacity="0.88"/>
    <path d="M 1198.83 506.77 C 1196.22 512.2 1194.28 517.82 1192.54 523.63" stroke="#f08c00" stroke-width="2.1" opacity="0.88"/>
    <path d="M 1192.54 523.63 C 1190.05 531.93 1185.32 538.93 1179.65 545.61" stroke="#f08c00" stroke-width="2.1" opacity="0.88"/>
    <path d="M 1179.65 545.61 C 1173.42 552.91 1168.5 561.34 1162.27 568.77" stroke="#f08c00" stroke-width="2.1" opacity="0.88"/>
    <path d="M 1162.27 568.77 C 1159.47 572.15 1155.73 574.02 1153.05 577.77" stroke="#f08c00" stroke-width="2.1" opacity="0.88"/>
    <path d="M 1153.05 577.77 C 1152.04 579.2 1151.09 580.65 1150.19 582.1" stroke="#f08c00" stroke-width="2.1" opacity="0.88"/>
    <path d="M 1150.17 582.12 C 1142.82 593.97 1139.04 606.42 1140.59 621.04" stroke="#f08c00" stroke-width="2.1" opacity="0.88"/>
    <path d="M 1140.59 621.04 C 1141.53 629.72 1139.04 638.52 1137.79 647.26" stroke="#f08c00" stroke-width="2.1" opacity="0.88"/>
    <path d="M 1137.79 647.26 C 1136.3 658.19 1136.3 669.3 1135.18 680.35" stroke="#f08c00" stroke-width="2.1" opacity="0.88"/>
    <path d="M 1135.18 680.35 C 1134.46 686.99 1132.11 693.46 1131.95 701.39" stroke="#f08c00" stroke-width="2.1" opacity="0.88"/>
    <path d="M 1131.95 701.4 C 1131.95 701.67 1131.95 701.94 1131.95 702.2" stroke="#f08c00" stroke-width="2.1" opacity="0.88"/>
    <path d="M 1131.95 702.2 C 1137.05 698.27 1143.35 696.96 1143.84 689.72" stroke="#f08c00" stroke-width="2.1" opacity="0.88"/>
    <path d="M 1143.84 689.72 C 1145.84 689.53 1146.34 690.96 1147.15 692.15" stroke="#f08c00" stroke-width="2.1" opacity="0.88"/>
    <path d="M 1147.15 692.15 C 1150.01 696.4 1153.38 699.39 1158.92 700.45" stroke="#f08c00" stroke-width="2.1" opacity="0.88"/>
    <path d="M 1158.92 700.45 C 1161.63 700.98 1164.09 701.96 1166.17 703.45" stroke="#f08c00" stroke-width="2.1" opacity="0.88"/>
    <path d="M 1166.17 703.45 C 1171.01 706.93 1173.75 713.17 1172.57 722.74" stroke="#f08c00" stroke-width="2.1" opacity="0.88"/>
    <path d="M 1172.57 722.74 C 1172.2 725.74 1172.32 728.48 1173.94 730.86" stroke="#f08c00" stroke-width="2.1" opacity="0.88"/>
    <path d="M 1173.94 730.86 C 1177.18 735.48 1174.44 741.22 1177 745.97" stroke="#f08c00" stroke-width="2.1" opacity="0.88"/>
    <path d="M 1177 745.97 C 1182.42 746.65 1186.03 743.09 1189.39 740.1" stroke="#f08c00" stroke-width="2.1" opacity="0.88"/>
    <path d="M 1189.39 740.1 C 1193.75 736.16 1198.55 733.04 1203.91 730.98" stroke="#f08c00" stroke-width="2.1" opacity="0.88"/>
    <path d="M 1203.91 730.98 C 1205.35 730.41 1206.39 729.65 1207.16 728.75" stroke="#f08c00" stroke-width="2.1" opacity="0.88"/>
    <path d="M 1207.16 728.75 C 1208.58 727.09 1209.07 724.97 1209.39 722.74" stroke="#f08c00" stroke-width="2.1" opacity="0.88"/>
    <path d="M 1209.39 722.74 C 1210.76 713.37 1213.31 704.38 1215.68 695.26" stroke="#f08c00" stroke-width="2.1" opacity="0.88"/>
    <path d="M 1215.68 695.26 C 1216.49 692.27 1217.67 689.27 1220.04 687.21" stroke="#f08c00" stroke-width="2.1" opacity="0.88"/>
    <path d="M 1220.04 687.21 C 1225.89 682.15 1226.89 675.28 1226.02 668.48" stroke="#f08c00" stroke-width="2.1" opacity="0.88"/>
    <path d="M 1226.02 668.48 C 1225.48 664.21 1226.95 660.47 1225.96 655.3" stroke="#f08c00" stroke-width="2.1" opacity="0.88"/>
    <path d="M 1225.83 654.68 C 1237.58 658.42 1248.59 660.56 1259.29 660.97" stroke="#f08c00" stroke-width="2.1" opacity="0.88"/>
    <path d="M 1259.29 660.97 C 1260.56 661.02 1261.82 661.04 1263.08 661.04" stroke="#f08c00" stroke-width="2.1" opacity="0.88"/>
    <path d="M 1263.08 661.04 C 1266.2 664.16 1263.27 668.91 1267.51 670.84" stroke="#f08c00" stroke-width="2.1" opacity="0.88"/>
    <path d="M 1267.51 670.84 C 1270.06 671.9 1271.5 668.03 1274.18 669.97" stroke="#f08c00" stroke-width="2.1" opacity="0.88"/>
    <path d="M 1274.18 669.97 C 1276.48 663.41 1274.55 657.23 1276.98 652.11" stroke="#f08c00" stroke-width="2.1" opacity="0.88"/>
    <path d="M 1276.98 652.11 C 1276.1 648.37 1273.05 647.37 1270.62 644.93" stroke="#f08c00" stroke-width="2.1" opacity="0.88"/>
    <path d="M 1270.62 644.93 C 1275.48 643 1279.84 640.31 1284.95 644.56" stroke="#f08c00" stroke-width="2.1" opacity="0.88"/>
    <path d="M 1284.95 644.56 C 1290.81 638.44 1285.45 630.32 1289.5 624.76" stroke="#f08c00" stroke-width="2.1" opacity="0.88"/>
    <path d="M 1289.5 624.76 C 1287.94 621.7 1286.94 619.08 1284.2 617.9" stroke="#f08c00" stroke-width="2.1" opacity="0.88"/>
    <path d="M 1284.2 617.9 C 1281.58 618.89 1279.78 621.58 1276.35 621.33" stroke="#f08c00" stroke-width="2.1" opacity="0.88"/>
    <path d="M 1276.35 621.33 C 1274.51 619.85 1272.6 618.42 1270.65 616.99" stroke="#f08c00" stroke-width="2.1" opacity="0.88"/>
    <path d="M 1270.65 616.99 C 1264.96 612.83 1258.95 608.74 1253.42 603.85" stroke="#f08c00" stroke-width="2.1" opacity="0.88"/>
    <path d="M 1253.42 603.85 C 1246.69 597.86 1237.47 595.18 1229.74 590.18" stroke="#f08c00" stroke-width="2.1" opacity="0.88"/>
    <path d="M 1229.74 590.18 C 1227 588.43 1222.02 589.25 1218.09 588.75" stroke="#f08c00" stroke-width="2.1" opacity="0.88"/>
    <path d="M 1218.09 588.75 C 1214.67 588.31 1211.36 587.81 1208.12 586.75" stroke="#f08c00" stroke-width="2.1" opacity="0.88"/>
    <path d="M 1271.12 616.65 C 1272.98 615.21 1275.48 616.84 1277.97 615.02" stroke="#7048e8" stroke-width="2.1" opacity="0.88"/>
    <path d="M 1277.97 615.02 L 1277.97 599.67" stroke="#7048e8" stroke-width="2.1" opacity="0.88"/>
    <path d="M 1277.97 599.67 C 1271.74 600.6 1267.56 599.48 1265.38 596.42" stroke="#7048e8" stroke-width="2.1" opacity="0.88"/>
    <path d="M 1265.38 596.42 C 1272.8 595.48 1279.65 593.17 1286 590.17" stroke="#7048e8" stroke-width="2.1" opacity="0.88"/>
    <path d="M 1286 590.17 C 1286.44 586.05 1284.69 582.24 1285.5 578.56" stroke="#7048e8" stroke-width="2.1" opacity="0.88"/>
    <path d="M 1285.5 578.56 C 1286.81 572.75 1292.17 574.56 1295.97 574.13" stroke="#7048e8" stroke-width="2.1" opacity="0.88"/>
    <path d="M 1295.97 574.13 C 1296.65 569.26 1296.47 565.14 1295.41 561.7" stroke="#7048e8" stroke-width="2.1" opacity="0.88"/>
    <path d="M 1295.41 561.7 C 1300.58 558.89 1300.64 558.89 1302.26 564.82" stroke="#7048e8" stroke-width="2.1" opacity="0.88"/>
    <path d="M 1302.26 564.82 C 1309.42 564.57 1317.77 557.14 1319.08 549.84" stroke="#7048e8" stroke-width="2.1" opacity="0.88"/>
    <path d="M 1319.08 549.84 C 1319.7 546.46 1325.06 541.09 1326.37 541.09" stroke="#7048e8" stroke-width="2.1" opacity="0.88"/>
    <path d="M 1326.37 541.09 C 1330.6 540.97 1330.98 544.4 1333.59 544.9" stroke="#7048e8" stroke-width="2.1" opacity="0.88"/>
    <path d="M 1333.59 544.9 C 1335.77 540.09 1343.31 541.53 1344.68 535.35" stroke="#7048e8" stroke-width="2.1" opacity="0.88"/>
    <path d="M 1344.68 535.35 C 1344.5 533.91 1342.88 533.47 1342.25 532.48" stroke="#7048e8" stroke-width="2.1" opacity="0.88"/>
    <path d="M 1342.25 532.48 C 1344.18 528.67 1347.73 525.42 1345.93 520.49" stroke="#7048e8" stroke-width="2.1" opacity="0.88"/>
    <path d="M 1345.93 520.49 C 1344.24 521.42 1342.56 521.42 1340.69 520.43" stroke="#7048e8" stroke-width="2.1" opacity="0.88"/>
    <path d="M 1340.69 520.43 C 1343.75 513.06 1339.01 508.44 1334.65 503.69" stroke="#7048e8" stroke-width="2.1" opacity="0.88"/>
    <path d="M 1196.32 348.81 C 1197.38 342.81 1197.94 336.7 1197.94 330.7" stroke="#0ca678" stroke-width="2.1" opacity="0.88"/>
    <path d="M 1197.94 330.7 C 1197.93 320.02 1202.04 311.35 1207.34 302.48" stroke="#0ca678" stroke-width="2.1" opacity="0.88"/>
    <path d="M 1207.34 302.48 C 1212.45 293.92 1218.24 286.24 1225.47 279.38" stroke="#0ca678" stroke-width="2.1" opacity="0.88"/>
    <path d="M 1225.47 279.38 C 1230.56 274.51 1235.81 270.51 1242.22 268.31" stroke="#0ca678" stroke-width="2.1" opacity="0.88"/>
    <path d="M 1242.22 268.31 C 1244.03 267.68 1245.94 267.2 1247.95 266.88" stroke="#0ca678" stroke-width="2.1" opacity="0.88"/>
    <path d="M 1247.95 266.88 C 1258.86 265.2 1269.2 261.33 1279.79 258.45" stroke="#0ca678" stroke-width="2.1" opacity="0.88"/>
    <path d="M 1279.79 258.45 C 1287.2 256.45 1295.36 257.14 1302.72 259.63" stroke="#0ca678" stroke-width="2.1" opacity="0.88"/>
    <path d="M 1302.72 259.63 C 1309.62 261.96 1316.69 263.8 1323.71 265.75" stroke="#0ca678" stroke-width="2.1" opacity="0.88"/>
    <path d="M 1323.71 265.75 C 1324.23 265.9 1324.75 266.04 1325.27 266.19" stroke="#0ca678" stroke-width="2.1" opacity="0.88"/>
    <path d="M 1325.27 266.19 C 1327.89 266.94 1331.13 267.06 1333.99 265.31" stroke="#0ca678" stroke-width="2.1" opacity="0.88"/>
    <path d="M 1333.99 265.31 C 1336.42 267.06 1339.23 267.87 1341.41 269.56" stroke="#0ca678" stroke-width="2.1" opacity="0.88"/>
    <path d="M 1341.41 269.56 C 1346.52 273.43 1351.81 271.68 1356.3 269.24" stroke="#0ca678" stroke-width="2.1" opacity="0.88"/>
    <path d="M 1356.3 269.24 C 1360.41 267.06 1364.27 264.68 1369.13 263.75" stroke="#0ca678" stroke-width="2.1" opacity="0.88"/>
    <path d="M 1369.13 263.75 C 1360.1 259.56 1349.82 258.26 1343.52 250.95" stroke="#0ca678" stroke-width="2.1" opacity="0.88"/>
    <path d="M 1343.52 250.95 C 1339.16 250.26 1335.67 253.32 1331.5 250.64" stroke="#0ca678" stroke-width="2.1" opacity="0.88"/>
    <path d="M 1331.5 250.64 C 1335.55 247.21 1340.35 247.95 1345.52 246.64" stroke="#0ca678" stroke-width="2.1" opacity="0.88"/>
    <path d="M 1345.52 246.64 C 1351.62 244.64 1350.81 234.65 1357.23 232.53" stroke="#0ca678" stroke-width="2.1" opacity="0.88"/>
    <path d="M 1357.23 232.53 C 1360.47 233.22 1361.78 234.9 1363.27 236.4" stroke="#0ca678" stroke-width="2.1" opacity="0.88"/>
    <path d="M 1363.27 236.4 C 1369.25 242.14 1375.05 243.14 1381.9 238.77" stroke="#0ca678" stroke-width="2.1" opacity="0.88"/>
    <path d="M 1381.9 238.77 C 1384.39 237.21 1387.01 235.59 1389.87 233.9" stroke="#0ca678" stroke-width="2.1" opacity="0.88"/>
    <path d="M 1389.87 233.9 C 1393.74 237.02 1398.6 235.02 1403.14 234.96" stroke="#0ca678" stroke-width="2.1" opacity="0.88"/>
    <path d="M 1403.14 234.96 C 1406.88 234.9 1410.62 234.33 1414.36 235.08" stroke="#0ca678" stroke-width="2.1" opacity="0.88"/>
    <path d="M 1414.36 235.08 C 1418.53 235.96 1422.08 234.58 1424.82 231.34" stroke="#0ca678" stroke-width="2.1" opacity="0.88"/>
    <path d="M 1424.82 231.34 C 1422.21 230.02 1420.77 227.15 1418.09 225.53" stroke="#0ca678" stroke-width="2.1" opacity="0.88"/>
    <path d="M 1418.09 225.53 C 1413.36 227.15 1408.56 227.09 1403.39 226.97" stroke="#0ca678" stroke-width="2.1" opacity="0.88"/>
    <path d="M 1403.39 226.97 C 1400.52 220.97 1395.6 217.54 1388.75 217.54" stroke="#0ca678" stroke-width="2.1" opacity="0.88"/>
    <path d="M 1388.75 217.54 C 1388.87 212.48 1386.13 209.18 1383.7 205.87" stroke="#0ca678" stroke-width="2.1" opacity="0.88"/>
    <path d="M 1383.7 205.87 C 1381.65 203.06 1381.77 200.5 1384.45 199.06" stroke="#0ca678" stroke-width="2.1" opacity="0.88"/>
    <path d="M 1384.45 199.06 C 1388.06 197.19 1391.24 194.19 1396.1 193.69" stroke="#0ca678" stroke-width="2.1" opacity="0.88"/>
    <path d="M 1396.1 193.69 C 1397.97 198.43 1402.02 198.12 1406.19 197.68" stroke="#0ca678" stroke-width="2.1" opacity="0.88"/>
    <path d="M 1406.19 197.68 C 1411.3 197.18 1416.22 198.43 1421.58 200.05" stroke="#0ca678" stroke-width="2.1" opacity="0.88"/>
    <path d="M 1421.58 200.05 C 1428.43 191.56 1439.27 189.63 1448.62 182.76" stroke="#0ca678" stroke-width="2.1" opacity="0.88"/>
    <path d="M 1448.62 182.76 C 1449.99 180.13 1447.49 177.14 1446.43 175.26" stroke="#0ca678" stroke-width="2.1" opacity="0.88"/>
    <path d="M 1446.43 175.26 C 1445.38 171.52 1449.24 169.83 1447.06 166.4" stroke="#0ca678" stroke-width="2.1" opacity="0.88"/>
    <path d="M 1447.06 166.4 C 1441.45 167.84 1435.66 169.27 1429.8 170.71" stroke="#0ca678" stroke-width="2.1" opacity="0.88"/>
    <path d="M 1429.8 170.71 C 1422.95 168.21 1419.52 158.41 1410.24 160.97" stroke="#0ca678" stroke-width="2.1" opacity="0.88"/>
    <path d="M 1410.24 160.97 C 1407.49 159.16 1409.11 155.66 1406.06 153.35" stroke="#0ca678" stroke-width="2.1" opacity="0.88"/>
    <path d="M 1406.06 153.35 C 1404.69 152.61 1402.14 155.35 1401.01 154.35" stroke="#0ca678" stroke-width="2.1" opacity="0.88"/>
    <path d="M 1401.01 154.35 C 1398.58 152.36 1400.08 151.3 1399.95 150.05" stroke="#0ca678" stroke-width="2.1" opacity="0.88"/>
    <path d="M 1399.95 150.05 C 1397.15 145.86 1392.23 149.11 1388.68 146.74" stroke="#0ca678" stroke-width="2.1" opacity="0.88"/>
    <path d="M 1388.68 146.74 C 1383.82 150.61 1379.15 154.86 1372.6 154.55" stroke="#0ca678" stroke-width="2.1" opacity="0.88"/>
    <path d="M 1372.6 154.55 C 1371.3 154.48 1368.87 154.11 1368.87 151.61" stroke="#0ca678" stroke-width="2.1" opacity="0.88"/>
    <path d="M 1368.87 151.61 C 1371.73 147.87 1379.71 152.48 1380.33 143.37" stroke="#0ca678" stroke-width="2.1" opacity="0.88"/>
    <path d="M 1380.33 143.37 C 1371.23 144.62 1364.75 136.88 1355.34 136.5" stroke="#0ca678" stroke-width="2.1" opacity="0.88"/>
    <path d="M 1355.34 136.5 C 1353.79 134.19 1353.16 130.64 1351.92 128.08" stroke="#0ca678" stroke-width="2.1" opacity="0.88"/>
    <path d="M 1351.92 128.08 C 1352.42 125.08 1354.41 125.02 1355.78 124.08" stroke="#0ca678" stroke-width="2.1" opacity="0.88"/>
    <path d="M 1355.78 124.08 C 1356.34 110.41 1362.32 108.28 1336.28 103.48" stroke="#0ca678" stroke-width="2.1" opacity="0.88"/>
    <path d="M 1336.28 103.48 C 1333.16 98.86 1332.66 93.11 1330.85 87.93" stroke="#0ca678" stroke-width="2.1" opacity="0.88"/>
    <path d="M 1330.85 87.93 C 1328.17 80.07 1326.8 79.44 1319.02 82.38" stroke="#0ca678" stroke-width="2.1" opacity="0.88"/>
    <path d="M 1319.02 82.38 C 1318.39 82.63 1317.83 83 1316.84 82.88" stroke="#0ca678" stroke-width="2.1" opacity="0.88"/>
    <path d="M 1316.84 82.88 C 1316.15 85.31 1316.71 87.93 1316.4 90.99" stroke="#0ca678" stroke-width="2.1" opacity="0.88"/>
    <path d="M 1316.4 90.99 C 1315.09 92.93 1312.66 94.55 1310.86 96.86" stroke="#0ca678" stroke-width="2.1" opacity="0.88"/>
    <path d="M 1310.86 96.86 C 1311.73 98.49 1311.48 100.42 1311.48 102.54" stroke="#0ca678" stroke-width="2.1" opacity="0.88"/>
    <path d="M 1311.48 102.54 C 1309.18 103.23 1306.93 103.17 1304.56 102.3" stroke="#0ca678" stroke-width="2.1" opacity="0.88"/>
    <path d="M 1304.56 102.3 C 1305.06 98.3 1306.87 94.55 1307.18 89.87" stroke="#0ca678" stroke-width="2.1" opacity="0.88"/>
    <path d="M 1307.18 89.87 C 1305.93 87.81 1303.94 85.63 1302.76 82.63" stroke="#0ca678" stroke-width="2.1" opacity="0.88"/>
    <path d="M 1302.76 82.63 C 1301.82 89.25 1294.97 91.93 1293.72 98.49" stroke="#0ca678" stroke-width="2.1" opacity="0.88"/>
    <path d="M 1293.72 98.49 C 1292.98 102.55 1287.49 102.92 1283.57 103.49" stroke="#0ca678" stroke-width="2.1" opacity="0.88"/>
    <path d="M 1283.57 103.49 C 1282.01 105.67 1283.69 108.35 1282.39 110.48" stroke="#0ca678" stroke-width="2.1" opacity="0.88"/>
    <path d="M 1282.39 110.48 C 1280.14 112.04 1277.71 113.04 1275.41 114.16" stroke="#0ca678" stroke-width="2.1" opacity="0.88"/>
    <path d="M 1275.41 114.16 C 1259.96 121.78 1248.44 132.96 1243.02 149.76" stroke="#0ca678" stroke-width="2.1" opacity="0.88"/>
    <path d="M 1243.02 149.76 C 1242.47 151.52 1241.68 152.86 1240.53 154.07" stroke="#0ca678" stroke-width="2.1" opacity="0.88"/>
    <path d="M 1240.53 154.07 C 1239.85 154.78 1239.05 155.45 1238.1 156.12" stroke="#0ca678" stroke-width="2.1" opacity="0.88"/>
    <path d="M 1238.1 156.12 C 1226.2 164.68 1226.32 164.87 1223.58 179.42" stroke="#0ca678" stroke-width="2.1" opacity="0.88"/>
    <path d="M 1223.58 179.42 C 1221.03 180.35 1219.04 182.35 1217.23 184.29" stroke="#0ca678" stroke-width="2.1" opacity="0.88"/>
    <path d="M 1217.23 184.29 C 1212.87 183.23 1208.94 183.04 1204.96 184.1" stroke="#0ca678" stroke-width="2.1" opacity="0.88"/>
    <path d="M 1204.96 184.1 C 1202.21 186.29 1201.97 189.66 1201.53 192.9" stroke="#0ca678" stroke-width="2.1" opacity="0.88"/>
    <path d="M 1201.53 192.9 C 1197.98 191.91 1197.48 188.72 1199.97 183.48" stroke="#0ca678" stroke-width="2.1" opacity="0.88"/>
    <path d="M 1199.97 183.48 C 1196.23 181.73 1192.37 183.1 1188.76 183.67" stroke="#0ca678" stroke-width="2.1" opacity="0.88"/>
    <path d="M 1188.76 183.67 C 1176.3 185.54 1163.96 188.23 1151.38 189.23" stroke="#0ca678" stroke-width="2.1" opacity="0.88"/>
    <path d="M 1151.38 189.23 C 1144.59 189.79 1139.23 195.97 1139.67 202.84" stroke="#0ca678" stroke-width="2.1" opacity="0.88"/>
    <path d="M 1139.67 202.84 C 1139.9 206.61 1139.3 210.05 1138.24 213.31" stroke="#0ca678" stroke-width="2.1" opacity="0.88"/>
    <path d="M 1138.24 213.31 C 1136.5 218.63 1133.51 223.47 1130.89 228.5" stroke="#0ca678" stroke-width="2.1" opacity="0.88"/>
    <path d="M 1130.89 228.5 C 1126.4 237.06 1119.86 243.61 1112.07 249.05" stroke="#0ca678" stroke-width="2.1" opacity="0.88"/>
    <path d="M 1112.07 249.05 C 1110.27 250.3 1108.96 251.73 1107.71 253.17" stroke="#0ca678" stroke-width="2.1" opacity="0.88"/>
    <path d="M 1107.71 253.17 C 1108.21 255.73 1109.21 257.91 1108.96 260.91" stroke="#0ca678" stroke-width="2.1" opacity="0.88"/>
    <path d="M 1108.96 260.91 C 1104.04 269.4 1093.64 273.34 1088.47 282.2" stroke="#0ca678" stroke-width="2.1" opacity="0.88"/>
    <path d="M 1088.47 282.2 C 1084.73 282.83 1081.99 277.52 1077.87 280.33" stroke="#0ca678" stroke-width="2.1" opacity="0.88"/>
    <path d="M 1077.87 280.33 C 1075.44 282.7 1079.31 284.39 1077.94 287.76" stroke="#0ca678" stroke-width="2.1" opacity="0.88"/>
    <path d="M 1077.94 287.76 C 1062.84 293.11 1062.92 309.18 1056.14 322.61" stroke="#0ca678" stroke-width="2.1" opacity="0.88"/>
    <path d="M 1055.82 323.23 C 1043.61 331.66 1029.35 330.85 1014.96 326.48" stroke="#0ca678" stroke-width="2.1" opacity="0.88"/>
    <path d="M 1014.96 326.48 C 1011.03 325.29 1007.54 324.61 1003.43 325.98" stroke="#0ca678" stroke-width="2.1" opacity="0.88"/>
    <path d="M 1003.43 325.98 C 998.51 336.72 1002.19 346.96 1005.68 357.14" stroke="#0ca678" stroke-width="2.1" opacity="0.88"/>
    <path d="M 1005.68 357.14 C 1004.62 359.51 1002.19 360.63 1000.88 362.7" stroke="#0ca678" stroke-width="2.1" opacity="0.88"/>
    <path d="M 1000.88 362.7 C 1002.81 364.38 1005.3 364.75 1006.8 366.69" stroke="#0ca678" stroke-width="2.1" opacity="0.88"/>
    <path d="M 1006.8 366.69 C 1006.55 368.25 1006.24 369.87 1004.87 371" stroke="#0ca678" stroke-width="2.1" opacity="0.88"/>
    <path d="M 1004.87 371 C 999.2 371 988.67 362.76 987.3 356.58" stroke="#0ca678" stroke-width="2.1" opacity="0.88"/>
    <path d="M 987.3 356.58 C 968.11 358.33 950.85 348.15 931.29 346.72" stroke="#0ca678" stroke-width="2.1" opacity="0.88"/>
    <path d="M 931.29 346.72 C 925.87 349.59 921.57 354.84 917.02 359.09" stroke="#0ca678" stroke-width="2.1" opacity="0.88"/>
    <path d="M 917.02 359.09 C 914.59 359.09 912.54 359.52 910.85 359.02" stroke="#0ca678" stroke-width="2.1" opacity="0.88"/>
    <path d="M 910.85 359.02 C 899.52 355.59 890.42 361.9 881.76 366.89" stroke="#0ca678" stroke-width="2.1" opacity="0.88"/>
    <path d="M 881.76 366.89 C 874.49 371.13 873.67 371.14 874.1 381.88" stroke="#0ca678" stroke-width="2.1" opacity="0.88"/>
    <path d="M 874.1 381.94 C 863.63 392.5 856.35 405.3 851.49 420.03" stroke="#0ca678" stroke-width="2.1" opacity="0.88"/>
    <path d="M 851.49 420.03 C 854.54 422.84 855.35 426.65 854.54 431.71" stroke="#0ca678" stroke-width="2.1" opacity="0.88"/>
    <path d="M 854.54 431.71 C 852.24 433.95 849.44 436.83 846.82 440.95" stroke="#0ca678" stroke-width="2.1" opacity="0.88"/>
    <path d="M 846.82 440.95 C 852.8 449.69 850.68 460.12 851.06 470.67" stroke="#0ca678" stroke-width="2.1" opacity="0.88"/>
    <path d="M 851.06 470.67 C 859.84 473.1 863.83 482.15 871.75 486.46" stroke="#0ca678" stroke-width="2.1" opacity="0.88"/>
    <path d="M 871.75 486.46 C 869.01 487.52 866.64 488.9 865.02 491.21" stroke="#0ca678" stroke-width="2.1" opacity="0.88"/>
    <path d="M 865.02 491.21 C 865.89 496.01 867.32 500.76 862.15 503.94" stroke="#0ca678" stroke-width="2.1" opacity="0.88"/>
    <path d="M 862.15 503.94 C 860.72 504.82 861.41 506.5 861.59 507.63" stroke="#0ca678" stroke-width="2.1" opacity="0.88"/>
    <path d="M 861.59 507.63 C 862.16 512 862.53 516.43 863.34 520.74" stroke="#0ca678" stroke-width="2.1" opacity="0.88"/>
    <path d="M 863.34 520.74 C 865.15 521.24 866.58 519.18 867.95 520.11" stroke="#0ca678" stroke-width="2.1" opacity="0.88"/>
    <path d="M 867.95 520.11 C 868.82 520.11 869.57 519.99 869.57 520.11" stroke="#0ca678" stroke-width="2.1" opacity="0.88"/>
    <path d="M 869.57 520.11 C 869.71 520.6 869.9 521.02 870.14 521.39" stroke="#0ca678" stroke-width="2.1" opacity="0.88"/>
    <path d="M 870.14 521.39 C 872.75 525.43 880.85 523.17 880.91 529.91" stroke="#0ca678" stroke-width="2.1" opacity="0.88"/>
    <path d="M 880.91 529.91 C 877.55 534.85 871.88 524.67 869.2 532.79" stroke="#0ca678" stroke-width="2.1" opacity="0.88"/>
    <path d="M 869.2 532.79 C 871.01 535.97 871.07 540.78 873.87 544.46" stroke="#0ca678" stroke-width="2.1" opacity="0.88"/>
    <path d="M 873.87 544.46 C 880.54 541.65 886.96 541.71 893.56 544.84" stroke="#0ca678" stroke-width="2.1" opacity="0.88"/>
    <path d="M 893.56 544.84 C 889.95 551.2 883.53 547.21 878.36 550.02" stroke="#0ca678" stroke-width="2.1" opacity="0.88"/>
    <path d="M 878.36 550.02 C 877.61 553.83 874.25 557.51 875.49 563.32" stroke="#0ca678" stroke-width="2.1" opacity="0.88"/>
    <path d="M 875.49 563.32 C 877.3 564.82 879.17 568.13 882.78 569.37" stroke="#0ca678" stroke-width="2.1" opacity="0.88"/>
    <path d="M 882.78 569.37 C 891.13 567.56 897.86 562.63 904.53 557.51" stroke="#0ca678" stroke-width="2.1" opacity="0.88"/>
    <path d="M 904.53 557.51 C 909.57 559.01 917.05 567.93 917.61 573.12" stroke="#0ca678" stroke-width="2.1" opacity="0.88"/>
    <path d="M 917.61 573.12 C 917.61 573.74 917.86 574.55 917.61 574.99" stroke="#0ca678" stroke-width="2.1" opacity="0.88"/>
    <path d="M 917.61 574.99 C 913.38 580.61 913.69 587.23 914 593.16" stroke="#0ca678" stroke-width="2.1" opacity="0.88"/>
    <path d="M 914 593.16 C 911.63 595.59 908.46 595.09 906.96 597.84" stroke="#0ca678" stroke-width="2.1" opacity="0.88"/>
    <path d="M 906.96 597.84 C 908.52 600.78 911.01 603.15 914 604.9" stroke="#0ca678" stroke-width="2.1" opacity="0.88"/>
    <path d="M 914 604.9 C 919.8 608.33 921.98 613.2 921.54 619.94" stroke="#0ca678" stroke-width="2.1" opacity="0.88"/>
    <path d="M 921.54 619.94 C 921.11 627.43 921.48 634.99 922.79 642.42" stroke="#0ca678" stroke-width="2.1" opacity="0.88"/>
    <path d="M 922.79 642.42 C 923.42 645.92 919.99 648.98 922.23 652.97" stroke="#0ca678" stroke-width="2.1" opacity="0.88"/>
    <path d="M 922.23 652.97 C 926.16 653.28 927.9 656.28 929.09 660.46" stroke="#0ca678" stroke-width="2.1" opacity="0.88"/>
    <path d="M 929.09 660.46 C 924.6 663.46 924.98 668.27 925.29 673.26" stroke="#0ca678" stroke-width="2.1" opacity="0.88"/>
    <path d="M 925.29 673.26 C 934.32 675.76 940.24 670.14 946.66 664.27" stroke="#0ca678" stroke-width="2.1" opacity="0.88"/>
    <path d="M 946.66 664.27 C 948.28 666.95 947.34 669.51 947.72 671.89" stroke="#0ca678" stroke-width="2.1" opacity="0.88"/>
    <path d="M 947.72 671.89 C 949.46 674.07 952.02 673.76 954.51 673.63" stroke="#0ca678" stroke-width="2.1" opacity="0.88"/>
    <path d="M 954.51 673.63 C 957.44 673.51 960.18 673.76 962.61 675.5" stroke="#0ca678" stroke-width="2.1" opacity="0.88"/>
    <path d="M 962.61 675.5 C 967.65 679.25 973.07 678.19 978.12 676" stroke="#0ca678" stroke-width="2.1" opacity="0.88"/>
    <path d="M 978.12 676 C 981.11 674.69 984.1 673 986.97 671.19" stroke="#0ca678" stroke-width="2.1" opacity="0.88"/>
    <path d="M 986.97 671.19 C 992.88 667.57 998.06 670.75 1002.67 674.19" stroke="#0ca678" stroke-width="2.1" opacity="0.88"/>
    <path d="M 1002.67 674.19 C 1006.47 672.25 1009.96 668.19 1011.95 665.38" stroke="#0ca678" stroke-width="2.1" opacity="0.88"/>
    <path d="M 1354.89 365.78 L 1357.06 366.89" stroke="#c2255c" stroke-width="2.1" opacity="0.88"/>
    <path d="M 1357.06 366.89 C 1361.29 368.89 1361.05 373.95 1364.16 377.13" stroke="#c2255c" stroke-width="2.1" opacity="0.88"/>
    <path d="M 1364.16 377.13 C 1366.16 378.5 1369.08 376.44 1371.76 378.32" stroke="#c2255c" stroke-width="2.1" opacity="0.88"/>
    <path d="M 1371.76 378.32 C 1373.94 390.43 1386.78 393.17 1393.26 401.79" stroke="#c2255c" stroke-width="2.1" opacity="0.88"/>
    <path d="M 1393.26 401.79 C 1394.44 403.41 1396.87 402.6 1399.24 401.91" stroke="#c2255c" stroke-width="2.1" opacity="0.88"/>
    <path d="M 1399.24 401.91 C 1402.54 406.41 1404.54 412.46 1411.14 414.52" stroke="#c2255c" stroke-width="2.1" opacity="0.88"/>
    <path d="M 1411.14 414.52 C 1414.13 415.46 1410.96 420.02 1413.76 421.89" stroke="#c2255c" stroke-width="2.1" opacity="0.88"/>
    <path d="M 1413.76 421.89 C 1416.44 423.26 1419.68 421.64 1422.98 423.2" stroke="#c2255c" stroke-width="2.1" opacity="0.88"/>
    <path d="M 1422.98 423.2 C 1423.6 432.25 1415.07 435.25 1411.89 441.56" stroke="#c2255c" stroke-width="2.1" opacity="0.88"/>
    <path d="M 1411.89 441.56 C 1407.35 440.31 1404.29 437.63 1400.49 436.13" stroke="#c2255c" stroke-width="2.1" opacity="0.88"/>
    <path d="M 1400.49 436.13 C 1398.06 436.88 1398.69 439.87 1396.69 441.31" stroke="#c2255c" stroke-width="2.1" opacity="0.88"/>
    <path d="M 1396.69 441.31 C 1394.57 440.94 1394.7 437.88 1392.52 437.44" stroke="#c2255c" stroke-width="2.1" opacity="0.88"/>
    <path d="M 1392.52 437.44 C 1386.1 446.25 1379.62 436.26 1374.26 437.44" stroke="#c2255c" stroke-width="2.1" opacity="0.88"/>
    <path d="M 1374.26 437.44 C 1368.78 433.76 1367.35 428.08 1363.79 423.83" stroke="#c2255c" stroke-width="2.1" opacity="0.88"/>
    <path d="M 1363.79 423.83 C 1363.48 423.52 1361.99 423.33 1360.8 425.39" stroke="#c2255c" stroke-width="2.1" opacity="0.88"/>
    <path d="M 1360.8 425.39 C 1361.61 430.2 1368.03 433.39 1366.72 440.44" stroke="#c2255c" stroke-width="2.1" opacity="0.88"/>
    <path d="M 1366.72 440.44 C 1364.05 443.56 1360.87 440.75 1357.88 438.76" stroke="#c2255c" stroke-width="2.1" opacity="0.88"/>
    <path d="M 1357.88 438.76 C 1354.64 439.88 1354.14 443.19 1352.77 444.5" stroke="#c2255c" stroke-width="2.1" opacity="0.88"/>
    <path d="M 1352.73 445.13 C 1352.09 454.33 1347.98 460.51 1340.06 464.17" stroke="#c2255c" stroke-width="2.1" opacity="0.88"/>
    <path d="M 1340.06 464.17 C 1341.31 469.35 1343.37 474.28 1337.82 478.28" stroke="#c2255c" stroke-width="2.1" opacity="0.88"/>
    <path d="M 1337.82 478.28 C 1336.26 479.41 1338.57 486.9 1340.81 490.02" stroke="#c2255c" stroke-width="2.1" opacity="0.88"/>
    <path d="M 1340.81 490.02 C 1339.27 495.05 1336.9 499.37 1333.96 503.07" stroke="#c2255c" stroke-width="2.1" opacity="0.88"/>
    <path d="M 1333.96 503.07 C 1330.15 507.86 1325.39 511.61 1320.26 514.5" stroke="#c2255c" stroke-width="2.1" opacity="0.88"/>
    <path d="M 1320.26 514.5 C 1308.48 514.69 1298.76 517.31 1290.42 523.8" stroke="#c2255c" stroke-width="2.1" opacity="0.88"/>
    <path d="M 1290.42 523.8 C 1284.44 528.49 1278.64 533.17 1271.1 535.17" stroke="#c2255c" stroke-width="2.1" opacity="0.88"/>
    <path d="M 1271.1 535.17 C 1269.92 535.48 1268.74 536.36 1267.3 536.23" stroke="#c2255c" stroke-width="2.1" opacity="0.88"/>
    <path d="M 1267.3 536.23 C 1254.41 535.48 1241.89 538.3 1229.3 540.54" stroke="#c2255c" stroke-width="2.1" opacity="0.88"/>
    <path d="M 1229.3 540.54 C 1228.49 540.67 1227.43 540.98 1226.81 539.98" stroke="#c2255c" stroke-width="2.1" opacity="0.88"/>
    <path d="M 1226.81 539.98 L 1225.76 538.52" stroke="#c2255c" stroke-width="2.1" opacity="0.88"/>
    <path d="M 1352.71 445.13 L 1351.46 444.94" stroke="#1c7ed6" stroke-width="2.1" opacity="0.88"/>
    <path d="M 1351.46 444.94 C 1335.89 441.88 1321.93 449.31 1307.29 452" stroke="#1c7ed6" stroke-width="2.1" opacity="0.88"/>
    <path d="M 1307.29 452 C 1296.76 453.94 1286.48 457.25 1276.08 459.75" stroke="#1c7ed6" stroke-width="2.1" opacity="0.88"/>
    <path d="M 1276.08 459.75 C 1270.91 461 1265.3 460.68 1259.88 460.93" stroke="#1c7ed6" stroke-width="2.1" opacity="0.88"/>
    <path d="M 1259.88 460.93 C 1254.72 461.19 1249.56 461.49 1244.4 461.8" stroke="#1c7ed6" stroke-width="2.1" opacity="0.88"/>
    <path d="M 1244.4 461.8 C 1231.93 462.54 1219.46 463.33 1206.99 463.69" stroke="#1c7ed6" stroke-width="2.1" opacity="0.88"/>
    <path d="M 1206.99 463.69 C 1204.68 462.32 1202.87 460.26 1201.32 458.69" stroke="#1c7ed6" stroke-width="2.1" opacity="0.88"/>
    <path d="M 1201.32 458.69 C 1190.29 459.07 1179.64 456.64 1169.17 461.76" stroke="#1c7ed6" stroke-width="2.1" opacity="0.88"/>
    <path d="M 1169.17 461.76 C 1167.36 463.88 1164.93 466.44 1163.5 469.44" stroke="#1c7ed6" stroke-width="2.1" opacity="0.88"/>
    <path d="M 1163.5 469.44 C 1162.17 472.22 1160.41 474.17 1158.28 475.45" stroke="#1c7ed6" stroke-width="2.1" opacity="0.88"/>
    <path d="M 1158.26 475.46 C 1155.99 476.82 1153.31 477.43 1150.29 477.49" stroke="#1c7ed6" stroke-width="2.1" opacity="0.88"/>
    <path d="M 1150.29 477.49 C 1133.78 477.87 1117.65 481.93 1101.08 482.12" stroke="#1c7ed6" stroke-width="2.1" opacity="0.88"/>
    <path d="M 1101.08 482.12 C 1087.87 482.25 1074.97 478.82 1061.83 480.07" stroke="#1c7ed6" stroke-width="2.1" opacity="0.88"/>
    <path d="M 1061.83 480.07 L 1060.27 480.07" stroke="#1c7ed6" stroke-width="2.1" opacity="0.88"/>
    <path d="M 1049.92 423.75 C 1052.85 433.43 1056.03 443.04 1057.28 453.09" stroke="#5f3dc4" stroke-width="2.1" opacity="0.88"/>
    <path d="M 1057.28 453.09 C 1057.84 457.59 1058.9 461.9 1060.02 466.14" stroke="#5f3dc4" stroke-width="2.1" opacity="0.88"/>
    <path d="M 1060.02 466.14 C 1061.34 471.1 1061.15 475.68 1060.16 480.04" stroke="#5f3dc4" stroke-width="2.1" opacity="0.88"/>
    <path d="M 1060.16 480.04 C 1058.48 487.39 1054.53 494.14 1051.67 501.11" stroke="#5f3dc4" stroke-width="2.1" opacity="0.88"/>
    <path d="M 1051.67 501.11 C 1046.88 512.79 1042.71 524.65 1037.54 536.14" stroke="#5f3dc4" stroke-width="2.1" opacity="0.88"/>
    <path d="M 1037.54 536.14 C 1036.04 539.38 1034.61 542.51 1032.68 545.63" stroke="#5f3dc4" stroke-width="2.1" opacity="0.88"/>
    <path d="M 1032.68 545.63 C 1029.63 550.5 1026.95 555.56 1025.95 561.68" stroke="#5f3dc4" stroke-width="2.1" opacity="0.88"/>
    <path d="M 1025.95 561.68 C 1024.96 567.86 1019.72 572.6 1016.24 577.91" stroke="#5f3dc4" stroke-width="2.1" opacity="0.88"/>
    <path d="M 1016.24 577.91 C 1014.54 580.46 1013.09 583.08 1011.86 585.77" stroke="#5f3dc4" stroke-width="2.1" opacity="0.88"/>
    <path d="M 1011.86 585.77 C 1007.65 594.93 1005.91 604.82 1005.34 614.81" stroke="#5f3dc4" stroke-width="2.1" opacity="0.88"/>
    <path d="M 1005.34 614.81 C 1004.78 624.43 1003.35 633.92 1002.54 643.53" stroke="#5f3dc4" stroke-width="2.1" opacity="0.88"/>
    <path d="M 1002.54 643.53 C 1002.04 649.34 1002.91 654.08 1006.9 658.64" stroke="#5f3dc4" stroke-width="2.1" opacity="0.88"/>
    <path d="M 1006.9 658.64 C 1008.75 660.75 1010.39 663.03 1012.09 665.28" stroke="#5f3dc4" stroke-width="2.1" opacity="0.88"/>
    <path d="M 1012.09 665.28 C 1014.06 667.89 1016.1 670.44 1018.62 672.63" stroke="#5f3dc4" stroke-width="2.1" opacity="0.88"/>
    <path d="M 1018.62 672.63 C 1015.38 679.68 1014.07 686.49 1017.56 693.48" stroke="#5f3dc4" stroke-width="2.1" opacity="0.88"/>
    <path d="M 1017.56 693.48 C 1019.93 698.1 1015.69 701.35 1015.01 705.59" stroke="#5f3dc4" stroke-width="2.1" opacity="0.88"/>
    <path d="M 1015.01 705.59 C 1019.24 709.28 1023.67 707.28 1026.78 704.53" stroke="#5f3dc4" stroke-width="2.1" opacity="0.88"/>
    <path d="M 1026.78 704.53 C 1031.27 700.53 1035.88 696.6 1040.05 692.23" stroke="#5f3dc4" stroke-width="2.1" opacity="0.88"/>
    <path d="M 1040.05 692.23 C 1041.23 691.04 1042.42 689.6 1044.41 689.73" stroke="#5f3dc4" stroke-width="2.1" opacity="0.88"/>
    <path d="M 951.86 428.38 L 951.48 429.32" stroke="#37b24d" stroke-width="2.1" opacity="0.88"/>
    <path d="M 951.48 429.32 C 948.99 433.25 946 436.94 944.01 441.18" stroke="#37b24d" stroke-width="2.1" opacity="0.88"/>
    <path d="M 944.01 441.18 C 942.14 445.12 938.09 445.74 934.67 447.43" stroke="#37b24d" stroke-width="2.1" opacity="0.88"/>
    <path d="M 934.67 447.43 C 922.46 453.61 913.42 463.1 906.57 474.84" stroke="#37b24d" stroke-width="2.1" opacity="0.88"/>
    <path d="M 906.57 474.84 C 902.02 482.77 895.36 489.58 891.44 497.57" stroke="#37b24d" stroke-width="2.1" opacity="0.88"/>
    <path d="M 891.44 497.57 C 886.51 507.44 877.29 512.37 871.07 520.49" stroke="#37b24d" stroke-width="2.1" opacity="0.88"/>
    <path d="M 871.07 520.49 L 870.38 521.24" stroke="#37b24d" stroke-width="2.1" opacity="0.88"/>
    <path d="M 1273.62 687.83 C 1273.12 686.83 1273.12 685.64 1272.18 684.39" stroke="#e8590c" stroke-width="2.1" opacity="0.88"/>
    <path d="M 1272.18 684.39 C 1269.63 686.39 1266.89 687.95 1264.21 689.64" stroke="#e8590c" stroke-width="2.1" opacity="0.88"/>
    <path d="M 1264.21 689.64 C 1261.91 691.07 1260.66 692.88 1260.6 695.38" stroke="#e8590c" stroke-width="2.1" opacity="0.88"/>
    <path d="M 1260.6 695.38 C 1260.41 699.88 1258.6 703.94 1256.05 707.12" stroke="#e8590c" stroke-width="2.1" opacity="0.88"/>
    <path d="M 1256.05 707.12 C 1253.56 710.12 1253.44 714.11 1254.62 715.8" stroke="#e8590c" stroke-width="2.1" opacity="0.88"/>
    <path d="M 1254.62 715.8 C 1258.86 721.73 1257.11 727.91 1256.86 734.09" stroke="#e8590c" stroke-width="2.1" opacity="0.88"/>
    <path d="M 1256.86 734.09 C 1256.86 735.15 1256.37 736.34 1257.55 737.4" stroke="#e8590c" stroke-width="2.1" opacity="0.88"/>
    <path d="M 1257.55 737.4 C 1262.04 736.03 1261.66 730.35 1265.84 728.78" stroke="#e8590c" stroke-width="2.1" opacity="0.88"/>
    <path d="M 1265.84 728.78 C 1267.08 726.85 1269.51 728.91 1271.75 726.66" stroke="#e8590c" stroke-width="2.1" opacity="0.88"/>
    <path d="M 1271.75 726.66 C 1270.76 720.23 1272.5 712.8 1267.39 706.62" stroke="#e8590c" stroke-width="2.1" opacity="0.88"/>
    <path d="M 1267.39 706.62 C 1272.93 701.81 1268.2 693.45 1273.62 688.51" stroke="#e8590c" stroke-width="2.1" opacity="0.88"/>
    <path d="M 1207.58 729.04 C 1212.75 729.29 1216.93 725.86 1221.91 725.23" stroke="#d6336c" stroke-width="2.1" opacity="0.88"/>
    <path d="M 1221.91 725.23 C 1225.28 724.79 1228.83 724.48 1231.88 722.8" stroke="#d6336c" stroke-width="2.1" opacity="0.88"/>
    <path d="M 1231.88 722.8 C 1239.17 718.67 1242.59 709.74 1251.19 707.12" stroke="#d6336c" stroke-width="2.1" opacity="0.88"/>
    <path d="M 1251.19 707.12 C 1252.31 706.81 1252.75 704.81 1252.94 704.06" stroke="#d6336c" stroke-width="2.1" opacity="0.88"/>
    <path d="M 1252.94 704.06 C 1254.18 696.82 1257.05 690.14 1259.97 683.77" stroke="#d6336c" stroke-width="2.1" opacity="0.88"/>
    <path d="M 1259.97 683.77 C 1264.27 683.27 1264.71 679.09 1267.26 676.84" stroke="#d6336c" stroke-width="2.1" opacity="0.88"/>
    <path d="M 1267.26 676.84 C 1264.64 673.4 1261.34 671.22 1259.29 667.79" stroke="#d6336c" stroke-width="2.1" opacity="0.88"/>
    <path d="M 1259.29 667.79 L 1259.28 661.1" stroke="#d6336c" stroke-width="2.1" opacity="0.88"/>
    <path d="M 1138.3 213.33 L 1139.67 214.58" stroke="#099268" stroke-width="2.1" opacity="0.88"/>
    <path d="M 1139.67 214.58 C 1147.02 222.44 1157.36 225.88 1166.09 231.68" stroke="#099268" stroke-width="2.1" opacity="0.88"/>
    <path d="M 1166.09 231.68 C 1168.89 233.55 1174.56 232.43 1178.98 231.49" stroke="#099268" stroke-width="2.1" opacity="0.88"/>
    <path d="M 1178.98 231.49 C 1183.65 230.49 1188.45 229.74 1193.31 230.12" stroke="#099268" stroke-width="2.1" opacity="0.88"/>
    <path d="M 1193.31 230.12 C 1198.05 230.43 1201.6 227.18 1205.77 225.81" stroke="#099268" stroke-width="2.1" opacity="0.88"/>
    <path d="M 1205.77 225.81 C 1210.52 224.25 1215.06 222.31 1219.49 220.14" stroke="#099268" stroke-width="2.1" opacity="0.88"/>
    <path d="M 1219.49 220.14 C 1226.74 216.57 1233.67 212.39 1240.6 208.2" stroke="#099268" stroke-width="2.1" opacity="0.88"/>
    <path d="M 1240.6 208.2 C 1244.08 206.07 1248.07 208.2 1251.44 205.07" stroke="#099268" stroke-width="2.1" opacity="0.88"/>
    <path d="M 1251.44 205.07 C 1252.37 199.64 1253.61 193.58 1255.42 188.15" stroke="#099268" stroke-width="2.1" opacity="0.88"/>
    <path d="M 1255.42 188.15 C 1252.12 176.41 1251.55 163.86 1241.83 155.25" stroke="#099268" stroke-width="2.1" opacity="0.88"/>
    <path d="M 1241.83 155.25 L 1240.53 154.07" stroke="#099268" stroke-width="2.1" opacity="0.88"/>
    <path d="M 1150.17 582.12 L 1148.38 581.7" stroke="#ae3ec9" stroke-width="2.1" opacity="0.88"/>
    <path d="M 1148.38 581.7 C 1134.92 578.02 1121.71 575.65 1109 584.64" stroke="#ae3ec9" stroke-width="2.1" opacity="0.88"/>
    <path d="M 1109 584.64 C 1106.57 586.33 1105.45 587.89 1104.71 590.45" stroke="#ae3ec9" stroke-width="2.1" opacity="0.88"/>
    <path d="M 1104.71 590.45 C 1101.29 602.39 1096.03 613.53 1090.51 624.48" stroke="#ae3ec9" stroke-width="2.1" opacity="0.88"/>
    <path d="M 1090.44 624.6 C 1088.76 627.97 1087.02 631.35 1085.27 634.72" stroke="#ae3ec9" stroke-width="2.1" opacity="0.88"/>
    <path d="M 1085.27 634.72 C 1083.16 638.9 1082.16 642.58 1082.78 647.27" stroke="#ae3ec9" stroke-width="2.1" opacity="0.88"/>
    <path d="M 1082.78 647.27 C 1083.75 654.9 1083.7 662.63 1083.6 670.37" stroke="#ae3ec9" stroke-width="2.1" opacity="0.88"/>
    <path d="M 1083.6 670.37 C 1083.57 673.08 1083.53 675.78 1083.53 678.49" stroke="#ae3ec9" stroke-width="2.1" opacity="0.88"/>
    <path d="M 1083.53 678.49 C 1083.54 682.98 1079.67 683.86 1076.68 685.29" stroke="#ae3ec9" stroke-width="2.1" opacity="0.88"/>
    <path d="M 1076.68 685.29 C 1071.08 687.98 1066.09 691.1 1065.16 698.47" stroke="#ae3ec9" stroke-width="2.1" opacity="0.88"/>
    <path d="M 1065.16 698.47 C 1057.25 698.28 1050.52 696.66 1044.97 690.23" stroke="#ae3ec9" stroke-width="2.1" opacity="0.88"/>
    <path d="M 1045.04 689.72 C 1048.45 664.04 1047.99 637.86 1052.94 612.24" stroke="#ae3ec9" stroke-width="2.1" opacity="0.88"/>
    <path d="M 1052.94 612.24 C 1053.25 610.68 1054.12 609.44 1054.24 607.87" stroke="#ae3ec9" stroke-width="2.1" opacity="0.88"/>
    <path d="M 1054.24 607.87 L 1054.37 606.5" stroke="#ae3ec9" stroke-width="2.1" opacity="0.88"/>
    <path d="M 1158.95 476.18 C 1171.67 487.23 1185.19 497.34 1199.7 505.71" stroke="#f76707" stroke-width="2.1" opacity="0.88"/>
    <path d="M 1199.7 505.71 C 1206.81 509.83 1213.91 514.57 1221.88 517.38" stroke="#f76707" stroke-width="2.1" opacity="0.88"/>
    <path d="M 1221.88 517.38 C 1223.88 518.07 1224.63 519.5 1225.12 521.69" stroke="#f76707" stroke-width="2.1" opacity="0.88"/>
    <path d="M 1225.12 521.69 C 1226.39 527.43 1226.54 532.99 1225.77 538.43" stroke="#f76707" stroke-width="2.1" opacity="0.88"/>
    <path d="M 1225.76 538.52 C 1224.96 544.05 1223.21 549.47 1220.71 554.84" stroke="#f76707" stroke-width="2.1" opacity="0.88"/>
    <path d="M 1220.71 554.84 C 1213.48 570.39 1207.19 586.38 1200.9 602.36" stroke="#f76707" stroke-width="2.1" opacity="0.88"/>
    <path d="M 1200.9 602.36 C 1198.41 608.73 1201.15 615.6 1201.34 622.28" stroke="#f76707" stroke-width="2.1" opacity="0.88"/>
    <path d="M 1201.34 622.28 C 1201.65 634.64 1202.84 647.19 1195.86 658.49" stroke="#f76707" stroke-width="2.1" opacity="0.88"/>
    <path d="M 1195.86 658.49 C 1194.37 660.93 1192.62 663.11 1190.88 665.36" stroke="#f76707" stroke-width="2.1" opacity="0.88"/>
    <path d="M 1190.88 665.36 C 1181.72 677.16 1172.5 688.9 1166.52 702.76" stroke="#f76707" stroke-width="2.1" opacity="0.88"/>
    <path d="M 1219.73 220.62 C 1223.28 234.86 1232 247.66 1238.23 260.64" stroke="#2b8a3e" stroke-width="2.1" opacity="0.88"/>
    <path d="M 1238.23 260.64 C 1239.36 262.95 1240.04 265.57 1241.79 267.57" stroke="#2b8a3e" stroke-width="2.1" opacity="0.88"/>
    <path d="M 1131.95 701.4 L 1130.95 701.58" stroke="#4263eb" stroke-width="2.1" opacity="0.88"/>
    <path d="M 1130.95 701.58 C 1127.15 702.46 1124.16 698.71 1120.48 700.71" stroke="#4263eb" stroke-width="2.1" opacity="0.88"/>
    <path d="M 1120.48 700.71 C 1117.49 694.4 1120.92 688.16 1117.74 682.85" stroke="#4263eb" stroke-width="2.1" opacity="0.88"/>
    <path d="M 1117.74 682.85 C 1115.68 681.98 1113.44 681.23 1110.57 681.73" stroke="#4263eb" stroke-width="2.1" opacity="0.88"/>
    <path d="M 1110.57 681.73 C 1109.64 684.85 1108.46 688.22 1104.22 689.97" stroke="#4263eb" stroke-width="2.1" opacity="0.88"/>
    <path d="M 1104.22 689.97 C 1096.37 689.66 1097.86 677.11 1089.7 677.86" stroke="#4263eb" stroke-width="2.1" opacity="0.88"/>
    <path d="M 1089.7 677.86 C 1087.58 675.05 1089.14 670.87 1084.84 670.37" stroke="#4263eb" stroke-width="2.1" opacity="0.88"/>
    <path d="M 1084.84 670.37 L 1083.66 670.37" stroke="#4263eb" stroke-width="2.1" opacity="0.88"/>
    <path d="M 1358.91 276.98 C 1358.11 278.23 1356.8 277.23 1355.74 277.8" stroke="#a61e4d" stroke-width="2.1" opacity="0.88"/>
    <path d="M 1355.74 277.8 C 1354.8 280.23 1354.49 283.23 1351.75 285.29" stroke="#a61e4d" stroke-width="2.1" opacity="0.88"/>
    <path d="M 1351.75 285.29 C 1347.33 281.86 1344.28 284.6 1341.29 287.98" stroke="#a61e4d" stroke-width="2.1" opacity="0.88"/>
    <path d="M 1341.29 287.98 C 1342.16 292.53 1348.14 291.53 1348.2 296.47" stroke="#a61e4d" stroke-width="2.1" opacity="0.88"/>
    <path d="M 1348.2 296.47 C 1354.24 290.72 1357.73 284.41 1361.59 278.61" stroke="#a61e4d" stroke-width="2.1" opacity="0.88"/>
    <path d="M 1361.59 278.61 C 1360.97 277.42 1360.22 277.61 1359.54 277.61" stroke="#a61e4d" stroke-width="2.1" opacity="0.88"/>
    <path d="M 1077.44 389.17 C 1069.41 394.23 1067.42 405.21 1060.7 411.39" stroke="#364fc7" stroke-width="2.1" opacity="0.88"/>
    <path d="M 1060.7 411.39 C 1058.08 413.82 1054.4 415.57 1053.03 419.32" stroke="#364fc7" stroke-width="2.1" opacity="0.88"/>
    <path d="M 1053.03 419.32 L 1051.79 420.57" stroke="#364fc7" stroke-width="2.1" opacity="0.88"/>
    <path d="M 1051.79 420.57 C 1051.04 421.32 1050.92 422.94 1049.92 423" stroke="#364fc7" stroke-width="2.1" opacity="0.88"/>
    <path d="M 1049.88 423 C 1038.12 423.64 1028.04 429.69 1016.9 432.43" stroke="#364fc7" stroke-width="2.1" opacity="0.88"/>
    <path d="M 1016.9 432.43 C 1009.53 434.26 1002.19 436.08 994.66 436.7" stroke="#364fc7" stroke-width="2.1" opacity="0.88"/>
    <path d="M 994.66 436.7 C 992.13 436.91 989.58 436.98 987 436.87" stroke="#364fc7" stroke-width="2.1" opacity="0.88"/>
    <path d="M 987 436.87 C 978.52 436.5 970.74 434.13 962.64 431.94" stroke="#364fc7" stroke-width="2.1" opacity="0.88"/>
    <path d="M 962.64 431.94 C 958.95 430.94 955.37 429.74 951.86 428.37" stroke="#364fc7" stroke-width="2.1" opacity="0.88"/>
    <path d="M 951.86 428.37 C 937.62 422.8 924.72 414.54 911.67 406.72" stroke="#364fc7" stroke-width="2.1" opacity="0.88"/>
    <path d="M 911.67 406.72 C 899.08 399.17 887.74 389.62 874.85 382.5" stroke="#364fc7" stroke-width="2.1" opacity="0.88"/>
    <path d="M 874.85 382.5 L 874.1 381.93" stroke="#364fc7" stroke-width="2.1" opacity="0.88"/>
    <path d="M 1200.1 652.25 C 1208.69 652.81 1217.35 652.37 1225.64 655.37" stroke="#66a80f" stroke-width="2.1" opacity="0.88"/>
    <path d="M 1357.04 240.77 C 1360.47 243.14 1364.83 243.39 1368.26 245.89" stroke="#495057" stroke-width="2.1" opacity="0.88"/>
    <path d="M 1368.26 245.89 C 1368.26 247.58 1367.94 249.26 1367.01 250.76" stroke="#495057" stroke-width="2.1" opacity="0.88"/>
    <path d="M 1367.01 250.76 C 1364.95 250.7 1363.65 248.39 1361.4 248.89" stroke="#495057" stroke-width="2.1" opacity="0.88"/>
    <path d="M 1361.4 248.89 C 1356.17 254.45 1355.67 254.51 1352.18 250.26" stroke="#495057" stroke-width="2.1" opacity="0.88"/>
    <path d="M 1352.18 250.26 C 1352.18 246.7 1357.48 246.08 1356.42 242.02" stroke="#495057" stroke-width="2.1" opacity="0.88"/>
    <path d="M 1356.42 242.02 L 1357.04 240.77" stroke="#495057" stroke-width="2.1" opacity="0.88"/>
  </g>
  <g id="nodes" fill="#111">
    <circle cx="1323.71" cy="265.75" r="1.5" opacity="0.75"/>
    <circle cx="1324.02" cy="267" r="1.5" opacity="0.75"/>
    <circle cx="1321.78" cy="270.93" r="1.5" opacity="0.75"/>
    <circle cx="1337.79" cy="274.43" r="1.5" opacity="0.75"/>
    <circle cx="1324.78" cy="293.16" r="1.5" opacity="0.75"/>
    <circle cx="1334" cy="294.97" r="1.5" opacity="0.75"/>
    <circle cx="1344.28" cy="298.28" r="1.5" opacity="0.75"/>
    <circle cx="1347.7" cy="305.08" r="1.5" opacity="0.75"/>
    <circle cx="1340.73" cy="310.39" r="1.5" opacity="0.75"/>
    <circle cx="1346.09" cy="312.89" r="1.5" opacity="0.75"/>
    <circle cx="1348.02" cy="317.51" r="1.5" opacity="0.75"/>
    <circle cx="1353" cy="316.88" r="1.5" opacity="0.75"/>
    <circle cx="1367.08" cy="335.36" r="1.5" opacity="0.75"/>
    <circle cx="1370.14" cy="354.09" r="1.5" opacity="0.75"/>
    <circle cx="1354.89" cy="365.78" r="1.5" opacity="0.75"/>
    <circle cx="1305.41" cy="360.22" r="1.5" opacity="0.75"/>
    <circle cx="1291.33" cy="359.35" r="1.5" opacity="0.75"/>
    <circle cx="1276.69" cy="388.88" r="1.5" opacity="0.75"/>
    <circle cx="1273.02" cy="395.13" r="1.5" opacity="0.75"/>
    <circle cx="1250.34" cy="428.66" r="1.5" opacity="0.75"/>
    <circle cx="1244.37" cy="461.31" r="1.5" opacity="0.75"/>
    <circle cx="1056.14" cy="322.6" r="1.5" opacity="0.75"/>
    <circle cx="1061.74" cy="333.84" r="1.5" opacity="0.75"/>
    <circle cx="1072.22" cy="370.74" r="1.5" opacity="0.75"/>
    <circle cx="1077.44" cy="389.16" r="1.5" opacity="0.75"/>
    <circle cx="1115.58" cy="372.67" r="1.5" opacity="0.75"/>
    <circle cx="1136.51" cy="355.06" r="1.5" opacity="0.75"/>
    <circle cx="1148.97" cy="350.69" r="1.5" opacity="0.75"/>
    <circle cx="1188.22" cy="349.5" r="1.5" opacity="0.75"/>
    <circle cx="1227.47" cy="354.92" r="1.5" opacity="0.75"/>
    <circle cx="1248.03" cy="357.17" r="1.5" opacity="0.75"/>
    <circle cx="1289.15" cy="359.41" r="1.5" opacity="0.75"/>
    <circle cx="994.66" cy="436.75" r="1.5" opacity="0.75"/>
    <circle cx="994.47" cy="438.06" r="1.5" opacity="0.75"/>
    <circle cx="988.93" cy="466.78" r="1.5" opacity="0.75"/>
    <circle cx="984.77" cy="521.1" r="1.5" opacity="0.75"/>
    <circle cx="979.97" cy="543.45" r="1.5" opacity="0.75"/>
    <circle cx="980.35" cy="562.87" r="1.5" opacity="0.75"/>
    <circle cx="995.05" cy="578.1" r="1.5" opacity="0.75"/>
    <circle cx="1011.86" cy="585.77" r="1.5" opacity="0.75"/>
    <circle cx="1044.34" cy="602.26" r="1.5" opacity="0.75"/>
    <circle cx="1054.4" cy="606.43" r="1.5" opacity="0.75"/>
    <circle cx="1059.29" cy="608.5" r="1.5" opacity="0.75"/>
    <circle cx="1082.97" cy="621.61" r="1.5" opacity="0.75"/>
    <circle cx="1089.2" cy="624.04" r="1.5" opacity="0.75"/>
    <circle cx="1090.51" cy="624.48" r="1.5" opacity="0.75"/>
    <circle cx="1199.7" cy="505.71" r="1.5" opacity="0.75"/>
    <circle cx="1198.83" cy="506.77" r="1.5" opacity="0.75"/>
    <circle cx="1192.54" cy="523.63" r="1.5" opacity="0.75"/>
    <circle cx="1179.65" cy="545.61" r="1.5" opacity="0.75"/>
    <circle cx="1162.27" cy="568.77" r="1.5" opacity="0.75"/>
    <circle cx="1153.05" cy="577.77" r="1.5" opacity="0.75"/>
    <circle cx="1150.19" cy="582.1" r="1.5" opacity="0.75"/>
    <circle cx="1140.59" cy="621.04" r="1.5" opacity="0.75"/>
    <circle cx="1137.79" cy="647.26" r="1.5" opacity="0.75"/>
    <circle cx="1135.18" cy="680.35" r="1.5" opacity="0.75"/>
    <circle cx="1131.95" cy="701.39" r="1.5" opacity="0.75"/>
    <circle cx="1131.95" cy="702.2" r="1.5" opacity="0.75"/>
    <circle cx="1143.84" cy="689.72" r="1.5" opacity="0.75"/>
    <circle cx="1147.15" cy="692.15" r="1.5" opacity="0.75"/>
    <circle cx="1158.92" cy="700.45" r="1.5" opacity="0.75"/>
    <circle cx="1166.17" cy="703.45" r="1.5" opacity="0.75"/>
    <circle cx="1172.57" cy="722.74" r="1.5" opacity="0.75"/>
    <circle cx="1173.94" cy="730.86" r="1.5" opacity="0.75"/>
    <circle cx="1177" cy="745.97" r="1.5" opacity="0.75"/>
    <circle cx="1189.39" cy="740.1" r="1.5" opacity="0.75"/>
    <circle cx="1203.91" cy="730.98" r="1.5" opacity="0.75"/>
    <circle cx="1207.16" cy="728.75" r="1.5" opacity="0.75"/>
    <circle cx="1209.39" cy="722.74" r="1.5" opacity="0.75"/>
    <circle cx="1215.68" cy="695.26" r="1.5" opacity="0.75"/>
    <circle cx="1220.04" cy="687.21" r="1.5" opacity="0.75"/>
    <circle cx="1226.02" cy="668.48" r="1.5" opacity="0.75"/>
    <circle cx="1225.96" cy="655.3" r="1.5" opacity="0.75"/>
    <circle cx="1259.29" cy="660.97" r="1.5" opacity="0.75"/>
    <circle cx="1263.08" cy="661.04" r="1.5" opacity="0.75"/>
    <circle cx="1267.51" cy="670.84" r="1.5" opacity="0.75"/>
    <circle cx="1274.18" cy="669.97" r="1.5" opacity="0.75"/>
    <circle cx="1276.98" cy="652.11" r="1.5" opacity="0.75"/>
    <circle cx="1270.62" cy="644.93" r="1.5" opacity="0.75"/>
    <circle cx="1284.95" cy="644.56" r="1.5" opacity="0.75"/>
    <circle cx="1289.5" cy="624.76" r="1.5" opacity="0.75"/>
    <circle cx="1284.2" cy="617.9" r="1.5" opacity="0.75"/>
    <circle cx="1276.35" cy="621.33" r="1.5" opacity="0.75"/>
    <circle cx="1270.65" cy="616.99" r="1.5" opacity="0.75"/>
    <circle cx="1253.42" cy="603.85" r="1.5" opacity="0.75"/>
    <circle cx="1229.74" cy="590.18" r="1.5" opacity="0.75"/>
    <circle cx="1218.09" cy="588.75" r="1.5" opacity="0.75"/>
    <circle cx="1208.12" cy="586.75" r="1.5" opacity="0.75"/>
    <circle cx="1277.97" cy="615.02" r="1.5" opacity="0.75"/>
    <circle cx="1277.97" cy="599.67" r="1.5" opacity="0.75"/>
    <circle cx="1265.38" cy="596.42" r="1.5" opacity="0.75"/>
    <circle cx="1286" cy="590.17" r="1.5" opacity="0.75"/>
    <circle cx="1285.5" cy="578.56" r="1.5" opacity="0.75"/>
    <circle cx="1295.97" cy="574.13" r="1.5" opacity="0.75"/>
    <circle cx="1295.41" cy="561.7" r="1.5" opacity="0.75"/>
    <circle cx="1302.26" cy="564.82" r="1.5" opacity="0.75"/>
    <circle cx="1319.08" cy="549.84" r="1.5" opacity="0.75"/>
    <circle cx="1326.37" cy="541.09" r="1.5" opacity="0.75"/>
    <circle cx="1333.59" cy="544.9" r="1.5" opacity="0.75"/>
    <circle cx="1344.68" cy="535.35" r="1.5" opacity="0.75"/>
    <circle cx="1342.25" cy="532.48" r="1.5" opacity="0.75"/>
    <circle cx="1345.93" cy="520.49" r="1.5" opacity="0.75"/>
    <circle cx="1340.69" cy="520.43" r="1.5" opacity="0.75"/>
    <circle cx="1334.65" cy="503.69" r="1.5" opacity="0.75"/>
    <circle cx="1196.32" cy="348.81" r="1.5" opacity="0.75"/>
    <circle cx="1197.94" cy="330.7" r="1.5" opacity="0.75"/>
    <circle cx="1207.34" cy="302.48" r="1.5" opacity="0.75"/>
    <circle cx="1225.47" cy="279.38" r="1.5" opacity="0.75"/>
    <circle cx="1242.22" cy="268.31" r="1.5" opacity="0.75"/>
    <circle cx="1247.95" cy="266.88" r="1.5" opacity="0.75"/>
    <circle cx="1279.79" cy="258.45" r="1.5" opacity="0.75"/>
    <circle cx="1302.72" cy="259.63" r="1.5" opacity="0.75"/>
    <circle cx="1325.27" cy="266.19" r="1.5" opacity="0.75"/>
    <circle cx="1333.99" cy="265.31" r="1.5" opacity="0.75"/>
    <circle cx="1341.41" cy="269.56" r="1.5" opacity="0.75"/>
    <circle cx="1356.3" cy="269.24" r="1.5" opacity="0.75"/>
    <circle cx="1369.13" cy="263.75" r="1.5" opacity="0.75"/>
    <circle cx="1343.52" cy="250.95" r="1.5" opacity="0.75"/>
    <circle cx="1331.5" cy="250.64" r="1.5" opacity="0.75"/>
    <circle cx="1345.52" cy="246.64" r="1.5" opacity="0.75"/>
    <circle cx="1357.23" cy="232.53" r="1.5" opacity="0.75"/>
    <circle cx="1363.27" cy="236.4" r="1.5" opacity="0.75"/>
    <circle cx="1381.9" cy="238.77" r="1.5" opacity="0.75"/>
    <circle cx="1389.87" cy="233.9" r="1.5" opacity="0.75"/>
    <circle cx="1403.14" cy="234.96" r="1.5" opacity="0.75"/>
    <circle cx="1414.36" cy="235.08" r="1.5" opacity="0.75"/>
    <circle cx="1424.82" cy="231.34" r="1.5" opacity="0.75"/>
    <circle cx="1418.09" cy="225.53" r="1.5" opacity="0.75"/>
    <circle cx="1403.39" cy="226.97" r="1.5" opacity="0.75"/>
    <circle cx="1388.75" cy="217.54" r="1.5" opacity="0.75"/>
    <circle cx="1383.7" cy="205.87" r="1.5" opacity="0.75"/>
    <circle cx="1384.45" cy="199.06" r="1.5" opacity="0.75"/>
    <circle cx="1396.1" cy="193.69" r="1.5" opacity="0.75"/>
    <circle cx="1406.19" cy="197.68" r="1.5" opacity="0.75"/>
    <circle cx="1421.58" cy="200.05" r="1.5" opacity="0.75"/>
    <circle cx="1448.62" cy="182.76" r="1.5" opacity="0.75"/>
    <circle cx="1446.43" cy="175.26" r="1.5" opacity="0.75"/>
    <circle cx="1447.06" cy="166.4" r="1.5" opacity="0.75"/>
    <circle cx="1429.8" cy="170.71" r="1.5" opacity="0.75"/>
    <circle cx="1410.24" cy="160.97" r="1.5" opacity="0.75"/>
    <circle cx="1406.06" cy="153.35" r="1.5" opacity="0.75"/>
    <circle cx="1401.01" cy="154.35" r="1.5" opacity="0.75"/>
    <circle cx="1399.95" cy="150.05" r="1.5" opacity="0.75"/>
    <circle cx="1388.68" cy="146.74" r="1.5" opacity="0.75"/>
    <circle cx="1372.6" cy="154.55" r="1.5" opacity="0.75"/>
    <circle cx="1368.87" cy="151.61" r="1.5" opacity="0.75"/>
    <circle cx="1380.33" cy="143.37" r="1.5" opacity="0.75"/>
    <circle cx="1355.34" cy="136.5" r="1.5" opacity="0.75"/>
    <circle cx="1351.92" cy="128.08" r="1.5" opacity="0.75"/>
    <circle cx="1355.78" cy="124.08" r="1.5" opacity="0.75"/>
    <circle cx="1336.28" cy="103.48" r="1.5" opacity="0.75"/>
    <circle cx="1330.85" cy="87.93" r="1.5" opacity="0.75"/>
    <circle cx="1319.02" cy="82.38" r="1.5" opacity="0.75"/>
    <circle cx="1316.84" cy="82.88" r="1.5" opacity="0.75"/>
    <circle cx="1316.4" cy="90.99" r="1.5" opacity="0.75"/>
    <circle cx="1310.86" cy="96.86" r="1.5" opacity="0.75"/>
    <circle cx="1311.48" cy="102.54" r="1.5" opacity="0.75"/>
    <circle cx="1304.56" cy="102.3" r="1.5" opacity="0.75"/>
    <circle cx="1307.18" cy="89.87" r="1.5" opacity="0.75"/>
    <circle cx="1302.76" cy="82.63" r="1.5" opacity="0.75"/>
    <circle cx="1293.72" cy="98.49" r="1.5" opacity="0.75"/>
    <circle cx="1283.57" cy="103.49" r="1.5" opacity="0.75"/>
    <circle cx="1282.39" cy="110.48" r="1.5" opacity="0.75"/>
    <circle cx="1275.41" cy="114.16" r="1.5" opacity="0.75"/>
    <circle cx="1243.02" cy="149.76" r="1.5" opacity="0.75"/>
    <circle cx="1240.53" cy="154.07" r="1.5" opacity="0.75"/>
    <circle cx="1238.1" cy="156.12" r="1.5" opacity="0.75"/>
    <circle cx="1223.58" cy="179.42" r="1.5" opacity="0.75"/>
    <circle cx="1217.23" cy="184.29" r="1.5" opacity="0.75"/>
    <circle cx="1204.96" cy="184.1" r="1.5" opacity="0.75"/>
    <circle cx="1201.53" cy="192.9" r="1.5" opacity="0.75"/>
    <circle cx="1199.97" cy="183.48" r="1.5" opacity="0.75"/>
    <circle cx="1188.76" cy="183.67" r="1.5" opacity="0.75"/>
    <circle cx="1151.38" cy="189.23" r="1.5" opacity="0.75"/>
    <circle cx="1139.67" cy="202.84" r="1.5" opacity="0.75"/>
    <circle cx="1138.24" cy="213.31" r="1.5" opacity="0.75"/>
    <circle cx="1130.89" cy="228.5" r="1.5" opacity="0.75"/>
    <circle cx="1112.07" cy="249.05" r="1.5" opacity="0.75"/>
    <circle cx="1107.71" cy="253.17" r="1.5" opacity="0.75"/>
    <circle cx="1108.96" cy="260.91" r="1.5" opacity="0.75"/>
    <circle cx="1088.47" cy="282.2" r="1.5" opacity="0.75"/>
    <circle cx="1077.87" cy="280.33" r="1.5" opacity="0.75"/>
    <circle cx="1077.94" cy="287.76" r="1.5" opacity="0.75"/>
    <circle cx="1014.96" cy="326.48" r="1.5" opacity="0.75"/>
    <circle cx="1003.43" cy="325.98" r="1.5" opacity="0.75"/>
    <circle cx="1005.68" cy="357.14" r="1.5" opacity="0.75"/>
    <circle cx="1000.88" cy="362.7" r="1.5" opacity="0.75"/>
    <circle cx="1006.8" cy="366.69" r="1.5" opacity="0.75"/>
    <circle cx="1004.87" cy="371" r="1.5" opacity="0.75"/>
    <circle cx="987.3" cy="356.58" r="1.5" opacity="0.75"/>
    <circle cx="931.29" cy="346.72" r="1.5" opacity="0.75"/>
    <circle cx="917.02" cy="359.09" r="1.5" opacity="0.75"/>
    <circle cx="910.85" cy="359.02" r="1.5" opacity="0.75"/>
    <circle cx="881.76" cy="366.89" r="1.5" opacity="0.75"/>
    <circle cx="874.1" cy="381.88" r="1.5" opacity="0.75"/>
    <circle cx="851.49" cy="420.03" r="1.5" opacity="0.75"/>
    <circle cx="854.54" cy="431.71" r="1.5" opacity="0.75"/>
    <circle cx="846.82" cy="440.95" r="1.5" opacity="0.75"/>
    <circle cx="851.06" cy="470.67" r="1.5" opacity="0.75"/>
    <circle cx="871.75" cy="486.46" r="1.5" opacity="0.75"/>
    <circle cx="865.02" cy="491.21" r="1.5" opacity="0.75"/>
    <circle cx="862.15" cy="503.94" r="1.5" opacity="0.75"/>
    <circle cx="861.59" cy="507.63" r="1.5" opacity="0.75"/>
    <circle cx="863.34" cy="520.74" r="1.5" opacity="0.75"/>
    <circle cx="867.95" cy="520.11" r="1.5" opacity="0.75"/>
    <circle cx="869.57" cy="520.11" r="1.5" opacity="0.75"/>
    <circle cx="870.14" cy="521.39" r="1.5" opacity="0.75"/>
    <circle cx="880.91" cy="529.91" r="1.5" opacity="0.75"/>
    <circle cx="869.2" cy="532.79" r="1.5" opacity="0.75"/>
    <circle cx="873.87" cy="544.46" r="1.5" opacity="0.75"/>
    <circle cx="893.56" cy="544.84" r="1.5" opacity="0.75"/>
    <circle cx="878.36" cy="550.02" r="1.5" opacity="0.75"/>
    <circle cx="875.49" cy="563.32" r="1.5" opacity="0.75"/>
    <circle cx="882.78" cy="569.37" r="1.5" opacity="0.75"/>
    <circle cx="904.53" cy="557.51" r="1.5" opacity="0.75"/>
    <circle cx="917.61" cy="573.12" r="1.5" opacity="0.75"/>
    <circle cx="917.61" cy="574.99" r="1.5" opacity="0.75"/>
    <circle cx="914" cy="593.16" r="1.5" opacity="0.75"/>
    <circle cx="906.96" cy="597.84" r="1.5" opacity="0.75"/>
    <circle cx="914" cy="604.9" r="1.5" opacity="0.75"/>
    <circle cx="921.54" cy="619.94" r="1.5" opacity="0.75"/>
    <circle cx="922.79" cy="642.42" r="1.5" opacity="0.75"/>
    <circle cx="922.23" cy="652.97" r="1.5" opacity="0.75"/>
    <circle cx="929.09" cy="660.46" r="1.5" opacity="0.75"/>
    <circle cx="925.29" cy="673.26" r="1.5" opacity="0.75"/>
    <circle cx="946.66" cy="664.27" r="1.5" opacity="0.75"/>
    <circle cx="947.72" cy="671.89" r="1.5" opacity="0.75"/>
    <circle cx="954.51" cy="673.63" r="1.5" opacity="0.75"/>
    <circle cx="962.61" cy="675.5" r="1.5" opacity="0.75"/>
    <circle cx="978.12" cy="676" r="1.5" opacity="0.75"/>
    <circle cx="986.97" cy="671.19" r="1.5" opacity="0.75"/>
    <circle cx="1002.67" cy="674.19" r="1.5" opacity="0.75"/>
    <circle cx="1011.95" cy="665.38" r="1.5" opacity="0.75"/>
    <circle cx="1357.06" cy="366.89" r="1.5" opacity="0.75"/>
    <circle cx="1364.16" cy="377.13" r="1.5" opacity="0.75"/>
    <circle cx="1371.76" cy="378.32" r="1.5" opacity="0.75"/>
    <circle cx="1393.26" cy="401.79" r="1.5" opacity="0.75"/>
    <circle cx="1399.24" cy="401.91" r="1.5" opacity="0.75"/>
    <circle cx="1411.14" cy="414.52" r="1.5" opacity="0.75"/>
    <circle cx="1413.76" cy="421.89" r="1.5" opacity="0.75"/>
    <circle cx="1422.98" cy="423.2" r="1.5" opacity="0.75"/>
    <circle cx="1411.89" cy="441.56" r="1.5" opacity="0.75"/>
    <circle cx="1400.49" cy="436.13" r="1.5" opacity="0.75"/>
    <circle cx="1396.69" cy="441.31" r="1.5" opacity="0.75"/>
    <circle cx="1392.52" cy="437.44" r="1.5" opacity="0.75"/>
    <circle cx="1374.26" cy="437.44" r="1.5" opacity="0.75"/>
    <circle cx="1363.79" cy="423.83" r="1.5" opacity="0.75"/>
    <circle cx="1360.8" cy="425.39" r="1.5" opacity="0.75"/>
    <circle cx="1366.72" cy="440.44" r="1.5" opacity="0.75"/>
    <circle cx="1357.88" cy="438.76" r="1.5" opacity="0.75"/>
    <circle cx="1352.77" cy="444.5" r="1.5" opacity="0.75"/>
    <circle cx="1340.06" cy="464.17" r="1.5" opacity="0.75"/>
    <circle cx="1337.82" cy="478.28" r="1.5" opacity="0.75"/>
    <circle cx="1340.81" cy="490.02" r="1.5" opacity="0.75"/>
    <circle cx="1320.26" cy="514.5" r="1.5" opacity="0.75"/>
    <circle cx="1290.42" cy="523.8" r="1.5" opacity="0.75"/>
    <circle cx="1271.1" cy="535.17" r="1.5" opacity="0.75"/>
    <circle cx="1267.3" cy="536.23" r="1.5" opacity="0.75"/>
    <circle cx="1229.3" cy="540.54" r="1.5" opacity="0.75"/>
    <circle cx="1226.81" cy="539.98" r="1.5" opacity="0.75"/>
    <circle cx="1225.76" cy="538.52" r="1.5" opacity="0.75"/>
    <circle cx="1351.46" cy="444.94" r="1.5" opacity="0.75"/>
    <circle cx="1307.29" cy="452" r="1.5" opacity="0.75"/>
    <circle cx="1276.08" cy="459.75" r="1.5" opacity="0.75"/>
    <circle cx="1259.88" cy="460.93" r="1.5" opacity="0.75"/>
    <circle cx="1206.99" cy="463.69" r="1.5" opacity="0.75"/>
    <circle cx="1201.32" cy="458.69" r="1.5" opacity="0.75"/>
    <circle cx="1169.17" cy="461.76" r="1.5" opacity="0.75"/>
    <circle cx="1163.5" cy="469.44" r="1.5" opacity="0.75"/>
    <circle cx="1158.28" cy="475.45" r="1.5" opacity="0.75"/>
    <circle cx="1150.29" cy="477.49" r="1.5" opacity="0.75"/>
    <circle cx="1101.08" cy="482.12" r="1.5" opacity="0.75"/>
    <circle cx="1061.83" cy="480.07" r="1.5" opacity="0.75"/>
    <circle cx="1060.27" cy="480.07" r="1.5" opacity="0.75"/>
    <circle cx="1049.92" cy="423.75" r="1.5" opacity="0.75"/>
    <circle cx="1057.28" cy="453.09" r="1.5" opacity="0.75"/>
    <circle cx="1060.02" cy="466.14" r="1.5" opacity="0.75"/>
    <circle cx="1051.67" cy="501.11" r="1.5" opacity="0.75"/>
    <circle cx="1037.54" cy="536.14" r="1.5" opacity="0.75"/>
    <circle cx="1032.68" cy="545.63" r="1.5" opacity="0.75"/>
    <circle cx="1025.95" cy="561.68" r="1.5" opacity="0.75"/>
    <circle cx="1016.24" cy="577.91" r="1.5" opacity="0.75"/>
    <circle cx="1005.34" cy="614.81" r="1.5" opacity="0.75"/>
    <circle cx="1002.54" cy="643.53" r="1.5" opacity="0.75"/>
    <circle cx="1006.9" cy="658.64" r="1.5" opacity="0.75"/>
    <circle cx="1018.62" cy="672.63" r="1.5" opacity="0.75"/>
    <circle cx="1017.56" cy="693.48" r="1.5" opacity="0.75"/>
    <circle cx="1015.01" cy="705.59" r="1.5" opacity="0.75"/>
    <circle cx="1026.78" cy="704.53" r="1.5" opacity="0.75"/>
    <circle cx="1040.05" cy="692.23" r="1.5" opacity="0.75"/>
    <circle cx="1044.41" cy="689.73" r="1.5" opacity="0.75"/>
    <circle cx="951.86" cy="428.38" r="1.5" opacity="0.75"/>
    <circle cx="951.48" cy="429.32" r="1.5" opacity="0.75"/>
    <circle cx="944.01" cy="441.18" r="1.5" opacity="0.75"/>
    <circle cx="934.67" cy="447.43" r="1.5" opacity="0.75"/>
    <circle cx="906.57" cy="474.84" r="1.5" opacity="0.75"/>
    <circle cx="891.44" cy="497.57" r="1.5" opacity="0.75"/>
    <circle cx="871.07" cy="520.49" r="1.5" opacity="0.75"/>
    <circle cx="1273.62" cy="687.83" r="1.5" opacity="0.75"/>
    <circle cx="1272.18" cy="684.39" r="1.5" opacity="0.75"/>
    <circle cx="1264.21" cy="689.64" r="1.5" opacity="0.75"/>
    <circle cx="1260.6" cy="695.38" r="1.5" opacity="0.75"/>
    <circle cx="1256.05" cy="707.12" r="1.5" opacity="0.75"/>
    <circle cx="1254.62" cy="715.8" r="1.5" opacity="0.75"/>
    <circle cx="1256.86" cy="734.09" r="1.5" opacity="0.75"/>
    <circle cx="1257.55" cy="737.4" r="1.5" opacity="0.75"/>
    <circle cx="1265.84" cy="728.78" r="1.5" opacity="0.75"/>
    <circle cx="1271.75" cy="726.66" r="1.5" opacity="0.75"/>
    <circle cx="1267.39" cy="706.62" r="1.5" opacity="0.75"/>
    <circle cx="1221.91" cy="725.23" r="1.5" opacity="0.75"/>
    <circle cx="1231.88" cy="722.8" r="1.5" opacity="0.75"/>
    <circle cx="1251.19" cy="707.12" r="1.5" opacity="0.75"/>
    <circle cx="1252.94" cy="704.06" r="1.5" opacity="0.75"/>
    <circle cx="1259.97" cy="683.77" r="1.5" opacity="0.75"/>
    <circle cx="1267.26" cy="676.84" r="1.5" opacity="0.75"/>
    <circle cx="1259.29" cy="667.79" r="1.5" opacity="0.75"/>
    <circle cx="1139.67" cy="214.58" r="1.5" opacity="0.75"/>
    <circle cx="1166.09" cy="231.68" r="1.5" opacity="0.75"/>
    <circle cx="1178.98" cy="231.49" r="1.5" opacity="0.75"/>
    <circle cx="1193.31" cy="230.12" r="1.5" opacity="0.75"/>
    <circle cx="1205.77" cy="225.81" r="1.5" opacity="0.75"/>
    <circle cx="1219.49" cy="220.14" r="1.5" opacity="0.75"/>
    <circle cx="1240.6" cy="208.2" r="1.5" opacity="0.75"/>
    <circle cx="1251.44" cy="205.07" r="1.5" opacity="0.75"/>
    <circle cx="1255.42" cy="188.15" r="1.5" opacity="0.75"/>
    <circle cx="1241.83" cy="155.25" r="1.5" opacity="0.75"/>
    <circle cx="1148.38" cy="581.7" r="1.5" opacity="0.75"/>
    <circle cx="1109" cy="584.64" r="1.5" opacity="0.75"/>
    <circle cx="1104.71" cy="590.45" r="1.5" opacity="0.75"/>
    <circle cx="1085.27" cy="634.72" r="1.5" opacity="0.75"/>
    <circle cx="1082.78" cy="647.27" r="1.5" opacity="0.75"/>
    <circle cx="1083.6" cy="670.37" r="1.5" opacity="0.75"/>
    <circle cx="1083.53" cy="678.49" r="1.5" opacity="0.75"/>
    <circle cx="1076.68" cy="685.29" r="1.5" opacity="0.75"/>
    <circle cx="1065.16" cy="698.47" r="1.5" opacity="0.75"/>
    <circle cx="1052.94" cy="612.24" r="1.5" opacity="0.75"/>
    <circle cx="1054.24" cy="607.87" r="1.5" opacity="0.75"/>
    <circle cx="1221.88" cy="517.38" r="1.5" opacity="0.75"/>
    <circle cx="1225.12" cy="521.69" r="1.5" opacity="0.75"/>
    <circle cx="1220.71" cy="554.84" r="1.5" opacity="0.75"/>
    <circle cx="1200.9" cy="602.36" r="1.5" opacity="0.75"/>
    <circle cx="1201.34" cy="622.28" r="1.5" opacity="0.75"/>
    <circle cx="1195.86" cy="658.49" r="1.5" opacity="0.75"/>
    <circle cx="1190.88" cy="665.36" r="1.5" opacity="0.75"/>
    <circle cx="1238.23" cy="260.64" r="1.5" opacity="0.75"/>
    <circle cx="1130.95" cy="701.58" r="1.5" opacity="0.75"/>
    <circle cx="1120.48" cy="700.71" r="1.5" opacity="0.75"/>
    <circle cx="1117.74" cy="682.85" r="1.5" opacity="0.75"/>
    <circle cx="1110.57" cy="681.73" r="1.5" opacity="0.75"/>
    <circle cx="1104.22" cy="689.97" r="1.5" opacity="0.75"/>
    <circle cx="1089.7" cy="677.86" r="1.5" opacity="0.75"/>
    <circle cx="1084.84" cy="670.37" r="1.5" opacity="0.75"/>
    <circle cx="1358.91" cy="276.98" r="1.5" opacity="0.75"/>
    <circle cx="1355.74" cy="277.8" r="1.5" opacity="0.75"/>
    <circle cx="1351.75" cy="285.29" r="1.5" opacity="0.75"/>
    <circle cx="1341.29" cy="287.98" r="1.5" opacity="0.75"/>
    <circle cx="1348.2" cy="296.47" r="1.5" opacity="0.75"/>
    <circle cx="1361.59" cy="278.61" r="1.5" opacity="0.75"/>
    <circle cx="1060.7" cy="411.39" r="1.5" opacity="0.75"/>
    <circle cx="1053.03" cy="419.32" r="1.5" opacity="0.75"/>
    <circle cx="1051.79" cy="420.57" r="1.5" opacity="0.75"/>
    <circle cx="1016.9" cy="432.43" r="1.5" opacity="0.75"/>
    <circle cx="987" cy="436.87" r="1.5" opacity="0.75"/>
    <circle cx="962.64" cy="431.94" r="1.5" opacity="0.75"/>
    <circle cx="911.67" cy="406.72" r="1.5" opacity="0.75"/>
    <circle cx="874.85" cy="382.5" r="1.5" opacity="0.75"/>
    <circle cx="1200.1" cy="652.25" r="1.5" opacity="0.75"/>
    <circle cx="1357.04" cy="240.77" r="1.5" opacity="0.75"/>
    <circle cx="1368.26" cy="245.89" r="1.5" opacity="0.75"/>
    <circle cx="1367.01" cy="250.76" r="1.5" opacity="0.75"/>
    <circle cx="1361.4" cy="248.89" r="1.5" opacity="0.75"/>
    <circle cx="1352.18" cy="250.26" r="1.5" opacity="0.75"/>
    <circle cx="1356.42" cy="242.02" r="1.5" opacity="0.75"/>
  </g>
</svg>