<?xml version="1.0" encoding="UTF-8"?>
<svg id="b" data-name="Layer 2" xmlns="http://www.w3.org/2000/svg" viewBox="0 0 968.49 1067.8">
  <defs>
    <style>
      .d {
        fill: none;
        stroke: #000;
        stroke-linecap: round;
        stroke-linejoin: round;
        stroke-width: 2px;
      }
    </style>
  </defs>
  <g id="c" data-name="Layer 1">
    <g>
      <path class="d" d="M766.72,299.47c.8,2.9-2.65,3.67-3.62,6.34,8.53,1.75,17.54-1.45,25.66,5.56.92,14.85-13.62,19.6-20.86,29.95,3.24,6.39,9.86,3.14,14.8,2.85,7-.41,9.87,8.48,16.53,5.33,2.16,4.3,3.79,7.65,5.5,10.93-1.6,5.58-8.83,4.23-11.19,8.46,1.42,5.37,5.43,2.78,8.56,3.97,1.26,2.11-.09,6.13,3.11,7.35,3.1,1.38,3.91-2.86,8-1.03,1.3,13.24,8.05,24.25,22.6,29.6-3.17,11.38,12.76,16.92,4.87,29.97-7.75,3.59-14.57,12.14-24.64,18.83-25.87,1.65-52.31-6.45-79.35-8.99-7.61-.72-15.36.14-22.58-1.41-11.57,14.26-17.89,30.57-23.5,47.27-1.22,3.64-2.9,7.35-5.93,10.01-16.84,14.79-23.24,36.66-36.37,53.72-12.74,16.55-8.64,34.51-9.61,52.3"/>
      <path class="d" d="M337.72,389.47c5.38,4.39,7.54,10.34,7.98,17,1.37,20.92,11.03,39.42,16.81,59.06,2.95,10.02,5.79,20.06,8.35,29.62,24.58-.41,44.15-12.81,61.24-26.47,11.26-9,21.81-19.48,33.64-28.2,5.92-4.36,12.45-7.14,19.99-7.02,21.03.33,42-1.32,63-1.89,21.43-.58,42.19,4.31,63.04,8.72,10.76,2.27,21.49,4.31,32.99,3.57,22-1.4,44.07.67,65.98,3.61"/>
      <path class="d" d="M237.72,573.47c-1.1,15.7-7.15,30.47-8.92,46.01-3.29,28.91-9.25,57.76-6.72,86.96,1.15,13.28-.84,25.36-7.67,35.83-7.32,11.22-2.71,21.2.57,31.11,3.79,11.45,11.24,19.53,23.59,24.44,27.28,10.85,52.32,26.63,79.12,38.68,7.91,3.56,16.09,6.5,23.96,10.08,13.18,5.99,24.33,15.76,38.02,20.98,3.34,1.28,6.64,2.74,10.04,3.91"/>
      <path class="d" d="M565.72,683.47c-4.16,8.69-7.33,17.73-10.1,26.97-4,13.35-11.6,24.55-20.7,35.2-10.02,11.72-17.91,25.16-27.86,37.11-4.48,5.38-10.52,8.4-14.75,14.43-14.78,21.08-22.77,43.04-19.99,69.33,1.46,13.86-2.55,27.99-4.46,41.98-2.4,17.55-2.39,35.35-4.23,52.97-1.16,11.05-5.24,21.71-5.2,35,8.25-6.27,18.26-8.39,19.06-19.97,3.18-.29,3.96,1.96,5.29,3.94,4.58,6.77,10.01,11.63,18.89,13.32,14.5,2.76,24.57,13.8,21.9,35.71-.59,4.81-.4,9.19,2.23,12.96,5.18,7.41.79,16.57,4.86,24.24,8.66,1.14,14.47-4.56,19.87-9.38,7.03-6.27,14.69-11.31,23.26-14.6,6.64-2.55,8.01-7.71,8.82-13.21,2.19-14.95,6.26-29.44,10.14-43.97,1.29-4.83,3.22-9.64,7.03-12.94,9.39-8.14,11.02-19.06,9.58-30.03-.93-7.07,1.71-13.35-.3-22.07,21.06,6.72,40.66,10.2,59.85,10.21,4.98,4.95.32,12.61,7.06,15.7,4.1,1.67,6.36-4.5,10.66-1.41,3.67-10.48.62-20.44,4.53-28.64-1.38-6.03-6.33-7.6-10.24-11.53,7.84-3.07,14.83-7.44,23.01-.63,9.37-9.76.79-22.81,7.3-31.65-2.51-4.9-4.11-9.09-8.52-11.03-4.18,1.63-7.07,5.87-12.59,5.45-11.57-9.34-24.92-17.52-36.78-28.03-10.78-9.56-25.61-13.86-37.97-21.9-4.37-2.85-12.36-1.46-18.7-2.26-5.46-.69-10.78-1.48-15.97-3.25"/>
      <path class="d" d="M783.72,678.47c6.96,7.66,14.58,15.07,9.68,26.82,2.98,1.6,5.65,1.6,8.37.14,2.9,7.94-2.76,13.11-5.9,19.23.98,1.63,3.59,2.28,3.9,4.59-2.15,9.91-14.26,7.57-17.78,15.28-4.14-.75-4.82-6.24-11.58-6.06-2.08,0-10.72,8.64-11.69,14-2.12,11.68-15.5,23.57-27,24-2.64-9.45-2.73-9.49-11-5q2.45,8.28.87,19.93c-6.05.66-14.63-2.22-16.75,7.1-1.34,5.91,1.48,11.92.76,18.56-10.29,4.86-21.29,8.52-33.14,10.05q5.27,7.42,20.25,5.21c0,8.48,0,16.81,0,24.58-4,2.88-7.99.3-11,2.57"/>
      <path class="d" d="M561.72,430.47c1.74-9.59,2.6-19.43,2.64-29,.08-17.06,6.62-30.99,15.08-45.17,8.19-13.73,17.54-25.98,29.12-37,10.48-9.96,21.42-17.73,36.14-19.96,17.49-2.65,34.12-8.86,51.13-13.48,11.88-3.23,24.97-2.1,36.81,1.86,11.93,3.98,24.09,7.12,36.15,10.5,4.21,1.18,9.39,1.44,13.98-1.41,3.89,2.79,8.36,4.12,11.87,6.78,8.25,6.25,16.7,3.37,23.9-.45,6.58-3.5,12.79-7.28,20.61-8.79-14.51-6.71-30.96-8.79-41.13-20.55-6.96-1.13-12.63,3.78-19.28-.5,6.55-5.46,14.17-4.27,22.46-6.43,9.83-3.24,8.53-19.17,18.79-22.56,5.24,1.06,7.32,3.84,9.73,6.18,9.56,9.25,18.87,10.76,29.9,3.85,4.05-2.54,8.17-5.06,12.78-7.83,6.25,5.02,14.03,1.84,21.31,1.71,6.03-.11,11.97-1.02,18.02.23,6.74,1.4,12.43-.81,16.84-5.98-4.21-2.12-6.55-6.74-10.82-9.3-7.56,2.57-15.29,2.53-23.56,2.26-4.58-9.61-12.46-15.11-23.49-15.11.2-8.09-4.23-13.41-8.1-18.73-3.26-4.47-3.06-8.62,1.23-10.87,5.77-3.02,10.87-7.84,18.67-8.62,3.05,7.6,9.53,7.12,16.22,6.44,8.19-.83,16.09,1.18,24.68,3.77,11.03-13.63,28.43-16.7,43.43-27.71,2.23-4.24-1.84-9-3.55-12.04-1.69-6.04,4.49-8.71.95-14.18-9.04,2.26-18.31,4.58-27.74,6.93-11-4.03-16.53-19.65-31.36-15.55-4.4-2.87-1.79-8.48-6.69-12.25-2.24-1.16-6.34,3.25-8.08,1.57-3.94-3.25-1.49-4.92-1.69-6.92-4.48-6.67-12.37-1.55-18.11-5.33-7.82,6.18-15.3,13.05-25.84,12.45-2.07-.12-6-.72-6.01-4.71,4.63-5.97,17.36,1.37,18.39-13.22-14.58,2.02-24.99-10.39-40.14-11.02-2.53-3.68-3.46-9.42-5.49-13.45.79-4.79,4.05-4.94,6.25-6.38.9-21.9,10.47-25.29-31.29-33.05-5.02-7.45-5.83-16.57-8.72-24.95-4.33-12.55-6.45-13.6-18.96-8.89-1.02.38-1.91.96-3.51.84-1.13,3.95-.19,8.05-.7,12.96-2.1,3.09-5.95,5.66-8.86,9.37,1.39,2.61.97,5.7,1.03,9.09-3.68,1.1-7.34,1.02-11.14-.41.76-6.43,3.69-12.43,4.19-19.87-2.01-3.31-5.18-6.82-7.11-11.61-1.49,10.61-12.47,14.87-14.48,25.43-1.24,6.52-10.01,7.11-16.33,7.98-2.52,3.48.2,7.76-1.94,11.18-3.58,2.47-7.46,4.09-11.21,5.93-24.83,12.19-43.32,30.14-51.95,57.03-1.43,4.46-3.79,7.31-7.87,10.23-19.09,13.67-18.88,13.97-23.27,37.29-4.06,1.46-7.33,4.67-10.25,7.85-6.98-1.74-13.32-2.05-19.74-.31-4.41,3.53-4.81,8.88-5.46,14.06q-8.54-2.47-2.45-15.13c-6-2.8-12.21-.6-17.96.26-20,2.99-39.77,7.31-60.02,8.92-10.93.87-19.54,10.83-18.82,21.82,1.05,15.92-7.26,28.06-14.1,41.06-7.21,13.69-17.72,24.16-30.16,32.85-2.87,2-5.04,4.32-7.02,6.64.82,4.11,2.36,7.62,2,12.37-7.93,13.56-24.61,19.87-32.9,34.08-6.02,1.02-10.37-7.49-17-2.99-3.88,3.75,2.33,6.5.15,11.86-24.64,8.65-24.14,35.12-35.52,56.75-19.63,13.51-42.48,12.16-65.57,5.17-6.26-1.9-11.92-3.03-18.46-.79-7.95,17.23-2,33.6,3.65,49.87-1.74,3.79-5.6,5.6-7.72,8.87,3.15,2.72,7.1,3.29,9.52,6.36-.35,2.53-.85,5.08-3.05,6.9-9.12,0-25.97-13.24-28.25-23.08-30.83,2.81-58.47-13.45-89.92-15.76-8.73,4.56-15.64,13-22.88,19.84-3.95,0-7.17.72-9.91-.12-18.22-5.51-32.8,4.58-46.74,12.63-11.72,6.77-12.99,6.75-12.27,24.13-16.79,16.88-28.52,37.37-36.35,61.03,4.93,4.51,6.25,10.61,4.95,18.7-3.7,3.57-8.18,8.19-12.35,14.76,9.62,14,6.17,30.68,6.82,47.58,14.13,3.87,20.49,18.42,33.25,25.33-4.44,1.67-8.15,3.87-10.75,7.62,1.39,7.67,3.71,15.27-4.57,20.39-2.27,1.41-1.16,4.06-.92,5.94.91,7.01,1.53,14.07,2.84,21,2.86.84,5.16-2.46,7.35-.99,1.36,0,2.57-.15,2.62.02,2.58,9.26,18.09,3.88,18.24,15.74-5.44,7.87-14.5-8.39-18.85,4.58,2.9,5.11,3,12.8,7.53,18.72,10.65-4.49,20.99-4.39,31.61.64-5.82,10.16-16.12,3.82-24.41,8.28-1.22,6.06-6.59,12.05-4.62,21.28,2.94,2.37,5.89,7.67,11.69,9.72,13.44-2.86,24.23-10.8,34.89-18.99,8.08,2.41,20.12,16.72,20.99,25,.1.99.43,2.31-.05,2.95-6.76,9.01-6.34,19.64-5.84,29.13-3.85,3.89-8.87,3.08-11.33,7.51,2.46,4.72,6.49,8.52,11.26,11.34,9.3,5.5,12.78,13.32,12.12,24.07-.74,12-.12,24.1,1.99,35.96,1,5.62-4.47,10.46-.91,16.88,6.34.48,9.12,5.29,10.99,11.95-7.22,4.77-6.61,12.51-6.07,20.51,14.51,4.05,24.05-4.96,34.28-14.38,2.57,4.3,1.05,8.37,1.71,12.19,2.8,3.51,6.9,3.05,10.85,2.84,4.66-.25,9.09.15,13.01,3.03,8.1,5.96,16.83,4.34,24.89.76,4.8-2.13,9.57-4.83,14.18-7.65,9.48-5.8,17.76-.67,25.22,4.78,6.06-3.08,9.47-7.4,12.71-11.89"/>
      <path class="d" d="M819.72,459.47c6.79,3.19,6.43,11.29,11.41,16.43,3.25,2.25,7.92-1.1,12.21,1.86,3.45,19.37,24.07,23.77,34.53,37.6,1.94,2.57,5.85,1.31,9.63.18,5.28,7.2,8.5,16.91,19.14,20.19,4.76,1.47-.28,8.75,4.18,11.82,4.33,2.2,9.46-.37,14.83,2.07,1.04,14.46-12.66,19.35-17.85,29.43-7.35-1.98-12.23-6.33-18.3-8.67-3.89,1.17-2.94,6.05-6.08,8.3-3.42-.6-3.22-5.55-6.7-6.21-10.33,14.08-20.66-1.9-29.29-.07-8.77-5.87-11.07-15.05-16.83-21.84-.47-.55-2.88-.76-4.8,2.46,1.27,7.68,11.63,12.75,9.49,24.07-4.34,4.98-9.42.53-14.25-2.74-5.22,1.75-6.01,7.07-8.23,9.19-.77,15.34-7.36,25.52-20.39,31.52,2,8.29,5.29,16.19-3.56,22.61-2.45,1.78,1.24,13.83,4.85,18.8-5.72,18.54-18.39,30.99-33.03,39.15-18.87.35-34.5,4.48-47.89,14.94-9.57,7.48-18.86,15-31.01,18.17-1.92.5-3.8,1.86-6.07,1.74-20.73-1.15-40.83,3.27-61.01,6.94-1.29.23-2.98.7-3.99-.94"/>
      <path class="d" d="M810.72,584.47c-25-4.94-47.42,6.95-70.94,11.3-16.87,3.12-33.38,8.44-50.12,12.41-8.3,1.97-17.34,1.46-25.95,1.87-28.33,1.36-56.62,3.62-84.9,4.36-3.72-2.22-6.59-5.46-9.13-8.01-17.67.6-34.75-3.27-51.62,4.87-2.87,3.37-6.81,7.47-9.14,12.29-4.44,9.16-11.82,12.66-21.18,12.86-26.5.56-52.37,7.09-78.99,7.41-21.16.25-41.86-5.32-63-3.35"/>
      <path class="d" d="M326.72,550.47c4.67,15.5,9.81,30.92,11.82,47.02.89,7.15,2.58,14.12,4.4,20.92,5.69,21.29-6.06,38.16-13.4,55.98-7.68,18.66-14.38,37.72-22.74,56.11-2.37,5.2-4.7,10.22-7.79,15.15-4.88,7.8-9.17,15.9-10.81,25.73-1.65,9.89-10.03,17.53-15.64,25.99-11.96,18.03-16.26,38.37-17.47,59.12-.9,15.43-3.23,30.63-4.54,45.96-.8,9.26.64,16.9,7,24.16,6.39,7.29,11.3,15.87,18.82,22.42-5.23,11.31-7.33,22.25-1.66,33.44,3.75,7.39-2.98,12.6-4.12,19.42,6.8,5.87,13.9,2.73,18.89-1.69,7.2-6.38,14.58-12.7,21.28-19.69,1.85-1.93,3.75-4.24,6.95-4.05"/>
      <path class="d" d="M168.72,559.47c-3.97,6.35-8.75,12.19-12.01,19-3.01,6.28-9.53,7.3-14.97,10.05-19.59,9.92-34.12,25.06-45.05,43.94-7.34,12.67-17.96,23.63-24.29,36.36-7.86,15.81-22.73,23.71-32.68,36.66"/>
      <path class="d" d="M685.72,973.47c-.75-1.64-.79-3.55-2.27-5.55-4.09,3.19-8.52,5.69-12.84,8.39-3.73,2.32-5.67,5.2-5.82,9.17-.27,7.18-3.15,13.7-7.35,18.76-4.01,4.82-4.22,11.21-2.29,13.93,6.76,9.55,4,19.38,3.62,29.3-.06,1.67-.77,3.61,1.14,5.28,7.15-2.16,6.61-11.35,13.35-13.82,2.03-3.12,5.91.19,9.47-3.39-1.6-10.33,1.21-22.2-7.04-32.12,8.9-7.71,1.35-21.13,10.04-28.95"/>
      <path class="d" d="M662.72,932.47v8.79c3.27,5.5,8.58,9.05,12.77,14.5-4.16,3.66-4.78,10.37-11.71,11.13-4.76,10.24-9.29,20.92-11.33,32.54-.22,1.28-.97,4.39-2.76,4.94-13.76,4.21-19.27,18.48-30.99,25.07-4.91,2.76-10.59,3.18-16,3.91-7.97,1.06-14.7,6.49-22.98,6.13"/>
      <path class="d" d="M470.72,215.47c11.84,12.57,28.4,18.06,42.38,27.43,4.54,3.04,13.59,1.23,20.65-.27,7.5-1.6,15.17-2.76,22.97-2.19,7.59.55,13.33-4.65,20.03-6.87,20.06-6.64,38.03-17.36,55.87-28.25,5.57-3.4,12.01-.03,17.42-4.95,1.54-8.67,3.47-18.43,6.43-27.15-5.28-18.84-6.25-38.86-21.75-52.74"/>
      <path class="d" d="M45.72,484.47c20.76,11.35,38.95,26.66,59.13,38.78,26.09,15.66,51.8,32.3,81.81,40.42,12.91,3.5,25.5,7.38,39.05,7.94,16.55.69,32.23-3.25,48.01-7.13,17.84-4.38,34.14-14.17,52.99-15.12,1.65-.08,1.79-2.72,3.01-3.89"/>
      <path class="d" d="M484.72,803.47c-21.6-5.92-42.83-9.69-63.2,4.71-3.85,2.72-5.68,5.2-6.85,9.27-7.19,25.02-19.42,47.9-31.17,70.9-3.42,6.69-4.99,12.57-4.01,20.14,2.15,16.55,1.19,33.3,1.2,49.97,0,7.17-6.16,8.64-11,10.93-9,4.26-16.97,9.28-18.49,21.14-12.67-.28-23.54-2.91-32.4-13.23,5.58-41.44,4.84-83.56,12.82-124.86.48-2.46,1.86-4.53,2.1-6.98"/>
      <path class="d" d="M501.72,634.47c20.41,17.7,42.15,33.93,65.37,47.35,11.41,6.59,22.83,14.22,35.62,18.67,3.2,1.11,4.4,3.37,5.18,6.94,4.06,18.64.88,36.01-7.09,53.08-11.64,24.91-21.73,50.51-31.84,76.06-4.03,10.18.4,21.24.65,31.91.46,19.8,2.39,39.92-8.83,58.03-2.41,3.89-5.18,7.43-7.97,11.03-14.65,18.91-29.52,37.7-39.09,59.93"/>
      <path class="d" d="M599.72,226.47c5.7,22.83,19.3,42.02,29.31,62.85,1.76,3.66,2.9,7.91,5.69,11.15"/>
      <path class="d" d="M456.72,995.47c-6.09,1.38-10.88-4.58-16.83-1.38-4.75-10.13.68-20.14-4.38-28.62-3.32-1.41-6.9-2.59-11.52-1.77-1.49,4.96-3.39,10.39-10.21,13.16-12.62-.53-10.21-20.62-23.29-19.38-3.43-4.48-.92-11.23-7.78-12.02"/>
      <path class="d" d="M822.72,315.47c-1.34,1.99-3.39.4-5.11,1.28-1.5,3.92-1.97,8.68-6.44,12-7.14-5.49-12-1.06-16.78,4.33,1.44,7.28,11,5.72,11.09,13.56,9.65-9.25,15.3-19.31,21.5-28.58-.96-1.85-2.15-1.61-3.27-1.59"/>
      <path class="d" d="M369.72,496.47c-12.94,8.07-14.91,24.34-25.72,34.31-4.2,3.87-10.13,6.66-12.28,12.69"/>
      <path class="d" d="M567.72,916.47c13.76.94,27.72.2,41,5"/>
      <path class="d" d="M819.72,257.47c5.49,3.82,12.5,4.21,18,8.18.08,2.68-.52,5.36-2,7.82-3.3-.11-5.41-3.78-9-3-8.4,8.85-9.23,8.96-14.82,2.21.03-5.69,8.46-6.74,6.82-13.21"/>
    </g>
  </g>
</svg>