<?xml version="1.0" encoding="UTF-8"?>
<svg xmlns="http://www.w3.org/2000/svg" width="2646" height="1280" viewBox="0 0 2646 1280">
  <image href="indo_map_sm.jpg" x="0" y="0" width="2646" height="1280" preserveAspectRatio="none"/>
  <g id="areas" stroke="#111" stroke-width="1.5">
    <path d="M 852.11 419.97 C 856.97 405.25 864.24 392.46 874.7 381.91 L 875.47 382.5 C 888.37 389.62 899.71 399.17 912.29 406.72 C 925.35 414.54 938.24 422.8 952.49 428.37 L 952.11 429.32 C 949.62 433.25 946.63 436.94 944.63 441.18 C 942.76 445.12 938.71 445.74 935.29 447.43 C 923.08 453.61 914.05 463.1 907.19 474.84 C 902.65 482.77 895.98 489.58 892.06 497.57 C 887.14 507.44 877.92 512.37 871.69 520.49 L 871 521.24 C 870.54 521 870.34 520.56 870.19 520.05 C 870.19 519.93 869.45 520.05 868.57 520.05 C 867.2 519.12 865.77 521.18 863.96 520.68 C 863.15 516.37 862.78 511.94 862.22 507.57 C 862.03 506.44 861.34 504.76 862.78 503.88 C 867.95 500.7 866.51 495.95 865.64 491.14 C 867.26 488.83 869.63 487.46 872.37 486.4 C 864.46 482.09 860.47 473.04 851.68 470.6 C 851.31 460.05 853.42 449.63 847.44 440.89 C 850.06 436.76 852.86 433.89 855.17 431.64 C 855.98 426.59 855.17 422.78 852.11 419.97 Z" fill="#ff6b6b" fill-opacity="0.47"/>
    <path d="M 995.28 436.75 L 995.1 438.06 C 994.41 447.86 990.68 457.1 989.56 466.78 C 987.5 484.82 983.83 502.87 985.39 521.1 C 986.08 529.4 984.89 536.96 980.59 543.45 C 976.05 550.44 978.91 556.69 980.97 562.87 C 983.34 570.05 987.95 575.04 995.68 578.1 C 1001.41 580.37 1006.98 583 1012.48 585.77 C 1008.27 594.93 1006.54 604.82 1005.96 614.81 C 1005.4 624.43 1003.97 633.92 1003.16 643.53 C 1002.66 649.34 1003.54 654.08 1007.52 658.64 C 1009.36 660.74 1010.99 663 1012.68 665.24 C 1010.58 668.13 1007.09 672.19 1003.29 674.13 C 998.68 670.69 993.51 667.51 987.59 671.13 C 984.72 672.94 981.73 674.63 978.74 675.94 C 973.7 678.13 968.28 679.19 963.23 675.44 C 960.8 673.69 958.06 673.45 955.13 673.57 C 952.64 673.7 950.08 674.01 948.34 671.82 C 947.97 669.45 948.9 666.89 947.28 664.21 C 940.86 670.08 934.95 675.7 925.91 673.2 C 925.6 668.2 925.22 663.4 929.71 660.4 C 928.53 656.22 926.78 653.22 922.86 652.91 C 920.61 648.91 924.04 645.85 923.42 642.36 C 922.11 634.93 921.73 627.37 922.17 619.88 C 922.6 613.14 920.42 608.27 914.63 604.83 C 911.63 603.09 909.14 600.71 907.58 597.78 C 909.08 595.03 912.26 595.53 914.62 593.1 C 914.31 587.16 914 580.55 918.24 574.93 C 918.48 574.49 918.23 573.68 918.23 573.05 C 917.67 567.87 910.2 558.94 905.15 557.45 C 898.48 562.57 891.76 567.5 883.41 569.31 C 879.79 568.06 877.92 564.75 876.12 563.26 C 874.87 557.45 878.23 553.77 878.98 549.96 C 884.15 547.15 890.57 551.14 894.18 544.77 C 887.58 541.65 881.16 541.59 874.5 544.4 C 871.69 540.72 871.63 535.91 869.82 532.73 C 872.5 524.61 878.17 534.79 881.53 529.85 C 881.48 523.13 873.43 525.35 870.79 521.38 L 871.69 520.49 C 877.92 512.37 887.14 507.44 892.06 497.57 C 895.98 489.58 902.65 482.77 907.19 474.84 C 914.05 463.1 923.08 453.61 935.29 447.43 C 938.71 445.74 942.76 445.12 944.63 441.18 C 946.63 436.94 949.62 433.25 952.11 429.32 L 952.48 428.38 C 955.99 429.74 959.57 430.94 963.26 431.94 C 971.36 434.13 979.15 436.5 987.62 436.87 C 990.2 436.98 992.75 436.91 995.28 436.7 Z" fill="#4dabf7" fill-opacity="0.47"/>
    <path d="M 1057.38 323.23 C 1060.75 325.97 1062.06 329.66 1062.37 333.84 C 1063.24 346.89 1069.22 358.44 1072.84 370.74 C 1074.7 376.96 1076.44 383.25 1078.06 389.16 C 1070.04 394.23 1068.04 405.21 1061.32 411.39 C 1058.7 413.82 1055.03 415.57 1053.66 419.32 L 1052.41 420.57 C 1051.66 421.32 1051.54 422.94 1050.54 423 C 1038.74 423.64 1028.66 429.69 1017.52 432.43 C 1010.15 434.26 1002.82 436.08 995.28 436.7 C 992.75 436.91 990.2 436.98 987.62 436.87 C 979.15 436.5 971.36 434.13 963.26 431.94 C 959.57 430.94 955.99 429.74 952.49 428.37 C 938.24 422.8 925.35 414.54 912.29 406.72 C 899.71 399.17 888.37 389.62 875.47 382.5 L 874.7 381.91 C 874.29 371.08 875.1 371.08 882.38 366.83 C 891.04 361.84 900.14 355.53 911.48 358.96 C 913.16 359.46 915.22 359.02 917.65 359.02 C 922.19 354.78 926.49 349.53 931.91 346.66 C 951.47 348.09 968.73 358.27 987.92 356.52 C 989.29 362.7 999.82 370.94 1005.49 370.94 C 1006.86 369.81 1007.17 368.19 1007.42 366.63 C 1005.93 364.69 1003.43 364.32 1001.5 362.63 C 1002.81 360.57 1005.24 359.45 1006.3 357.08 C 1002.81 346.9 999.13 336.66 1004.05 325.92 C 1008.16 324.55 1011.65 325.23 1015.58 326.42 C 1029.97 330.79 1044.24 331.6 1056.45 323.17 Z" fill="#51cf66" fill-opacity="0.47"/>
    <path d="M 995.1 438.06 L 995.28 436.75 C 1002.82 436.08 1010.15 434.26 1017.52 432.43 C 1028.66 429.69 1038.74 423.64 1050.5 423 C 1053.47 433.43 1056.65 443.04 1057.9 453.09 C 1058.46 457.59 1059.52 461.9 1060.64 466.14 C 1061.97 471.1 1061.78 475.68 1060.78 480.04 C 1059.1 487.39 1055.15 494.14 1052.3 501.11 C 1047.5 512.79 1043.33 524.65 1038.16 536.14 C 1036.67 539.38 1035.23 542.51 1033.3 545.63 C 1030.25 550.5 1027.57 555.56 1026.58 561.68 C 1025.58 567.86 1020.35 572.6 1016.86 577.91 C 1015.16 580.46 1013.72 583.08 1012.48 585.77 C 1006.98 583 1001.41 580.37 995.68 578.1 C 987.95 575.04 983.34 570.05 980.97 562.87 C 978.91 556.69 976.05 550.44 980.59 543.45 C 984.89 536.96 986.08 529.4 985.39 521.1 C 983.83 502.87 987.5 484.82 989.56 466.78 C 990.68 457.1 994.41 447.86 995.1 438.06 Z" fill="#ffd43b" fill-opacity="0.47"/>
    <path d="M 1012.48 585.77 C 1023.31 591.23 1033.89 597.25 1044.96 602.26 C 1048.25 603.75 1051.67 605.06 1055.02 606.43 L 1054.87 607.87 C 1054.74 609.44 1053.87 610.68 1053.56 612.24 C 1048.61 637.86 1049.07 664.04 1045.66 689.72 C 1043.04 689.6 1041.86 691.04 1040.67 692.23 C 1036.5 696.6 1031.89 700.53 1027.4 704.53 C 1024.29 707.28 1019.87 709.28 1015.63 705.59 C 1016.31 701.35 1020.55 698.1 1018.18 693.48 C 1014.69 686.49 1016 679.68 1019.24 672.63 C 1016.71 670.43 1014.66 667.86 1012.68 665.24 C 1010.99 663 1009.36 660.74 1007.52 658.64 C 1003.54 654.08 1002.66 649.34 1003.16 643.53 C 1003.97 633.92 1005.4 624.43 1005.96 614.81 C 1006.54 604.82 1008.27 594.93 1012.48 585.77 Z" fill="#b197fc" fill-opacity="0.47"/>
    <path d="M 1055.05 606.44 C 1058.42 607.81 1058.29 607.81 1059.91 608.5 C 1068.14 612.24 1075.05 618.36 1083.59 621.61 C 1085.65 622.42 1087.7 623.29 1089.82 624.04 L 1091.13 624.48 C 1089.38 627.97 1087.64 631.35 1085.9 634.72 C 1083.78 638.9 1082.78 642.58 1083.41 647.27 C 1084.38 654.9 1084.32 662.63 1084.23 670.37 C 1084.19 673.08 1084.16 675.78 1084.16 678.49 C 1084.16 682.98 1080.3 683.86 1077.31 685.29 C 1071.7 687.98 1066.71 691.1 1065.78 698.47 C 1057.87 698.28 1051.14 696.66 1045.59 690.23 C 1049.07 664.04 1048.61 637.86 1053.56 612.24 C 1053.87 610.68 1054.74 609.44 1054.87 607.87 L 1054.99 606.5 Z" fill="#ffa94d" fill-opacity="0.47"/>
    <path d="M 1044.96 602.26 C 1033.89 597.25 1023.31 591.23 1012.48 585.77 C 1013.72 583.08 1015.16 580.46 1016.86 577.91 C 1020.35 572.6 1025.58 567.86 1026.58 561.68 C 1027.57 555.56 1030.25 550.5 1033.3 545.63 C 1035.23 542.51 1036.67 539.38 1038.16 536.14 C 1043.33 524.65 1047.5 512.79 1052.3 501.11 C 1055.15 494.14 1059.1 487.39 1060.78 480.04 L 1062.45 480.07 C 1075.6 478.82 1088.49 482.25 1101.7 482.12 C 1118.27 481.93 1134.41 477.87 1150.92 477.49 C 1153.85 477.43 1156.46 476.85 1158.69 475.57 C 1172.29 487.23 1185.81 497.34 1200.33 505.71 L 1199.45 506.77 C 1196.84 512.2 1194.91 517.82 1193.16 523.63 C 1190.67 531.93 1185.94 538.93 1180.27 545.61 C 1174.04 552.91 1169.12 561.34 1162.89 568.77 C 1160.09 572.15 1156.35 574.02 1153.67 577.77 C 1152.67 579.2 1151.71 580.65 1150.81 582.1 L 1149 581.7 C 1135.54 578.02 1122.33 575.65 1109.63 584.64 C 1107.2 586.33 1106.08 587.89 1105.33 590.45 C 1101.92 602.39 1096.65 613.53 1091.13 624.48 L 1089.82 624.04 C 1087.7 623.29 1085.65 622.42 1083.59 621.61 C 1075.05 618.36 1068.14 612.24 1059.91 608.5 C 1058.29 607.81 1058.42 607.81 1055.05 606.44 C 1051.67 605.06 1048.25 603.75 1044.96 602.26 Z" fill="#63e6be" fill-opacity="0.47"/>
    <path d="M 1150.8 582.12 C 1143.44 593.97 1139.66 606.42 1141.22 621.04 C 1142.15 629.72 1139.66 638.52 1138.42 647.26 C 1136.92 658.19 1136.93 669.3 1135.81 680.35 C 1135.08 686.99 1132.73 693.46 1132.58 701.39 L 1131.57 701.58 C 1127.77 702.45 1124.78 698.71 1121.11 700.71 C 1118.11 694.4 1121.54 688.16 1118.36 682.85 C 1116.31 681.98 1114.06 681.23 1111.2 681.73 C 1110.26 684.85 1109.08 688.22 1104.84 689.97 C 1096.99 689.66 1098.49 677.11 1090.33 677.86 C 1088.21 675.05 1089.76 670.87 1085.46 670.37 L 1084.28 670.37 C 1084.32 662.63 1084.38 654.9 1083.41 647.27 C 1082.78 642.58 1083.78 638.9 1085.9 634.72 C 1087.64 631.35 1089.38 627.97 1091.07 624.6 C 1096.65 613.53 1101.92 602.39 1105.33 590.45 C 1106.08 587.89 1107.2 586.33 1109.63 584.64 C 1122.33 575.65 1135.54 578.02 1149 581.7 L 1150.8 582.12 Z" fill="#f06595" fill-opacity="0.47"/>
    <path d="M 1062.37 333.84 C 1062.06 329.66 1060.75 325.97 1057.38 323.23 C 1063.54 309.16 1063.45 293.06 1078.56 287.7 C 1079.93 284.33 1076.07 282.64 1078.5 280.27 C 1082.61 277.46 1085.35 282.77 1089.09 282.14 C 1094.26 273.27 1104.66 269.34 1109.58 260.85 C 1109.83 257.85 1108.83 255.67 1108.34 253.11 C 1109.58 251.67 1110.89 250.23 1112.7 248.98 C 1120.48 243.55 1127.02 236.99 1131.51 228.44 C 1134.13 223.42 1137.1 218.6 1138.84 213.3 L 1140.29 214.58 C 1147.64 222.44 1157.99 225.88 1166.71 231.68 C 1169.51 233.55 1175.18 232.43 1179.61 231.49 C 1184.28 230.49 1189.08 229.74 1193.93 230.12 C 1198.67 230.43 1202.22 227.18 1206.39 225.81 C 1211.14 224.25 1215.68 222.31 1220.11 220.14 C 1223.96 234.86 1232.69 247.66 1238.92 260.64 C 1239.97 262.8 1242.49 267.63 1242.81 268.25 C 1236.42 270.46 1231.18 274.45 1226.09 279.31 C 1218.86 286.18 1213.07 293.86 1207.96 302.42 C 1202.67 311.28 1198.56 319.96 1198.56 330.64 C 1198.56 336.63 1196.82 349.62 1196.82 349.62 C 1194.17 349.48 1191.51 349.42 1188.84 349.5 C 1175.76 349.87 1162.68 350.87 1149.59 350.69 C 1144.92 350.63 1140.81 352.31 1137.13 355.06 C 1129.78 360.49 1123.24 367.05 1116.2 372.67 C 1105.55 381.22 1093.4 388.97 1078.08 389.22 C 1076.44 383.25 1074.7 376.96 1072.84 370.74 C 1069.22 358.44 1063.24 346.89 1062.37 333.84 Z" fill="#74c0fc" fill-opacity="0.47"/>
    <path d="M 1291.95 359.35 C 1284.73 368.28 1280.8 378.45 1277.32 388.88 C 1276.57 391.13 1275.51 393.5 1273.64 395.13 C 1263.17 404.37 1259.19 418.04 1250.97 428.66 C 1243.06 438.96 1245.61 450.2 1244.99 461.31 C 1232.55 462.54 1220.08 463.33 1207.61 463.69 C 1205.3 462.32 1203.5 460.26 1201.94 458.69 C 1190.91 459.07 1180.26 456.64 1169.79 461.76 C 1167.99 463.88 1165.56 466.44 1164.12 469.44 C 1162.8 472.22 1161.03 474.17 1158.9 475.45 C 1156.46 476.85 1153.85 477.43 1150.92 477.49 C 1134.41 477.87 1118.27 481.93 1101.7 482.12 C 1088.49 482.25 1075.6 478.82 1062.45 480.07 L 1060.89 480.07 C 1061.78 475.68 1061.97 471.1 1060.64 466.14 C 1059.52 461.9 1058.46 457.59 1057.9 453.09 C 1056.65 443.04 1053.47 433.43 1050.54 423.75 C 1051.54 422.94 1051.66 421.32 1052.41 420.57 L 1053.66 419.32 C 1055.03 415.57 1058.7 413.82 1061.32 411.39 C 1068.04 405.21 1070.04 394.23 1078.06 389.17 C 1093.4 388.97 1105.55 381.22 1116.2 372.67 C 1123.24 367.05 1129.78 360.49 1137.13 355.06 C 1140.81 352.31 1144.92 350.63 1149.59 350.69 C 1162.68 350.87 1175.76 349.87 1188.84 349.5 C 1191.51 349.42 1194.17 349.48 1196.81 349.65 C 1207.37 350.33 1217.73 352.73 1228.09 354.92 C 1234.82 356.36 1241.49 357.61 1248.65 357.17 C 1262.36 356.29 1276.13 357.6 1289.77 359.41 L 1291.89 359.22 Z" fill="#69db7c" fill-opacity="0.47"/>
    <path d="M 1199.45 506.77 L 1200.33 505.71 C 1207.43 509.83 1214.53 514.57 1222.51 517.38 C 1224.5 518.07 1225.25 519.5 1225.75 521.69 C 1227.01 527.43 1227.16 532.99 1226.39 538.43 C 1225.56 544.12 1223.82 549.5 1221.33 554.84 C 1216.52 565.19 1212.13 575.73 1207.87 586.34 C 1205.72 591.7 1203.62 597.03 1201.52 602.36 C 1199.03 608.73 1201.77 615.6 1201.96 622.28 C 1202.21 632.33 1203.02 642.51 1199.6 652 C 1198.78 654.2 1197.79 656.37 1196.48 658.49 C 1194.99 660.93 1193.25 663.11 1191.5 665.36 C 1182.34 677.16 1173.13 688.9 1167.15 702.76 C 1164.72 701.96 1162.25 700.98 1159.55 700.45 C 1154 699.39 1150.64 696.4 1147.77 692.15 C 1146.96 690.96 1146.46 689.53 1144.47 689.72 C 1143.97 696.96 1137.68 698.27 1132.57 702.2 C 1132.57 701.94 1132.57 701.67 1132.58 701.4 C 1132.73 693.46 1135.08 686.99 1135.81 680.35 C 1136.93 669.3 1136.92 658.19 1138.42 647.26 C 1139.66 638.52 1142.15 629.72 1141.22 621.04 C 1139.66 606.42 1143.44 593.97 1150.8 582.12 C 1151.71 580.65 1152.67 579.2 1153.67 577.77 C 1156.35 574.02 1160.09 572.15 1162.89 568.77 C 1169.12 561.34 1174.04 552.91 1180.27 545.61 C 1185.94 538.93 1190.67 531.93 1193.16 523.63 C 1194.91 517.82 1196.84 512.2 1199.45 506.77 Z" fill="#fcc419" fill-opacity="0.47"/>
    <path d="M 1238.72 156.06 C 1239.66 155.4 1240.45 154.74 1241.12 154.04 L 1242.46 155.25 C 1252.18 163.86 1252.74 176.41 1256.04 188.15 C 1254.24 193.58 1252.99 199.64 1252.06 205.07 C 1248.69 208.19 1244.71 206.07 1241.22 208.2 C 1234.29 212.39 1227.36 216.58 1220.11 220.14 C 1215.68 222.31 1211.14 224.25 1206.39 225.81 C 1202.22 227.18 1198.67 230.43 1193.93 230.12 C 1189.08 229.74 1184.28 230.49 1179.61 231.49 C 1175.18 232.43 1169.51 233.55 1166.71 231.68 C 1157.99 225.88 1147.64 222.44 1140.29 214.58 L 1138.92 213.33 C 1139.92 210.03 1140.53 206.57 1140.29 202.78 C 1139.85 195.91 1145.21 189.73 1152 189.16 C 1164.58 188.16 1176.92 185.48 1189.38 183.6 C 1192.99 183.04 1196.86 181.67 1200.59 183.41 C 1198.1 188.66 1198.6 191.84 1202.15 192.84 C 1202.59 189.6 1202.84 186.22 1205.58 184.04 C 1209.57 182.98 1213.49 183.16 1217.85 184.22 C 1219.66 182.29 1221.65 180.29 1224.21 179.35 C 1226.95 164.8 1226.82 164.62 1238.72 156.06 Z" fill="#9775fa" fill-opacity="0.47"/>
    <path d="M 1259.91 660.97 C 1249.21 660.56 1238.2 658.42 1226.45 654.68 C 1217.98 652.31 1209.32 652.74 1200.72 652.18 L 1199.6 652.01 C 1203.02 642.51 1202.21 632.33 1201.96 622.28 C 1201.77 615.6 1199.03 608.73 1201.52 602.36 C 1203.62 597.03 1205.72 591.7 1207.85 586.39 L 1208.75 586.75 C 1211.99 587.81 1215.29 588.31 1218.72 588.75 C 1222.64 589.25 1227.63 588.43 1230.37 590.18 C 1238.09 595.18 1247.31 597.86 1254.04 603.85 C 1259.57 608.74 1265.58 612.83 1271.28 616.99 C 1273.22 618.42 1275.13 619.85 1276.97 621.33 C 1280.4 621.58 1282.21 618.89 1284.82 617.9 C 1287.56 619.08 1288.56 621.7 1290.12 624.76 C 1286.07 630.32 1291.43 638.44 1285.57 644.56 C 1280.46 640.31 1276.1 643 1271.24 644.93 C 1273.67 647.37 1276.73 648.37 1277.6 652.11 C 1275.17 657.23 1277.1 663.41 1274.8 669.97 C 1272.12 668.03 1270.69 671.9 1268.13 670.84 C 1263.9 668.91 1266.82 664.16 1263.71 661.04 C 1262.45 661.04 1261.18 661.02 1259.91 660.97 Z" fill="#20c997" fill-opacity="0.47"/>
    <path d="M 1173.19 722.74 C 1174.37 713.17 1171.64 706.93 1166.79 703.45 C 1173.13 688.9 1182.34 677.16 1191.5 665.36 C 1193.25 663.11 1194.99 660.93 1196.48 658.49 C 1197.79 656.37 1198.78 654.2 1199.59 652.02 L 1200.72 652.18 C 1209.32 652.74 1217.98 652.31 1226.26 655.3 C 1227.57 660.49 1226.1 664.23 1226.64 668.48 C 1227.51 675.28 1226.52 682.15 1220.66 687.21 C 1218.29 689.27 1217.11 692.27 1216.3 695.26 C 1213.93 704.38 1211.38 713.37 1210.01 722.74 C 1209.69 724.97 1209.21 727.09 1207.78 728.75 C 1207.02 729.65 1205.97 730.41 1204.53 730.98 C 1199.17 733.04 1194.38 736.16 1190.02 740.1 C 1186.65 743.09 1183.04 746.65 1177.62 745.97 C 1175.06 741.22 1177.8 735.48 1174.56 730.86 C 1172.94 728.48 1172.82 725.74 1173.19 722.74 Z" fill="#20c997" fill-opacity="0.47"/>
    <path d="M 1207.78 728.75 C 1209.21 727.09 1209.69 724.97 1210.01 722.74 C 1211.38 713.37 1213.93 704.38 1216.3 695.26 C 1217.11 692.27 1218.29 689.27 1220.66 687.21 C 1226.52 682.15 1227.51 675.28 1226.64 668.48 C 1226.1 664.23 1227.57 660.49 1226.59 655.35 C 1238.2 658.42 1249.21 660.56 1259.91 660.97 L 1259.91 667.79 C 1261.96 671.22 1265.27 673.4 1267.88 676.84 C 1265.33 679.09 1264.89 683.27 1260.6 683.77 C 1257.67 690.14 1254.8 696.82 1253.56 704.06 C 1253.37 704.81 1252.94 706.81 1251.81 707.12 C 1243.22 709.74 1239.79 718.67 1232.5 722.8 C 1229.45 724.48 1225.9 724.79 1222.54 725.23 C 1217.55 725.86 1213.38 729.29 1208.21 729.04 Z" fill="#20c997" fill-opacity="0.47"/>
    <path d="M 1353.35 445.13 C 1352.71 454.33 1348.61 460.51 1340.69 464.17 C 1341.93 469.35 1343.99 474.28 1338.44 478.28 C 1336.89 479.41 1339.19 486.9 1341.44 490.02 C 1339.89 495.05 1337.52 499.37 1334.58 503.07 C 1330.77 507.86 1326.02 511.61 1320.88 514.5 C 1309.11 514.69 1299.39 517.31 1291.04 523.8 C 1285.06 528.49 1279.27 533.17 1271.73 535.17 C 1270.54 535.48 1269.36 536.36 1267.93 536.23 C 1255.03 535.48 1242.51 538.3 1229.92 540.54 C 1229.11 540.67 1228.06 540.98 1227.43 539.98 L 1226.4 538.55 C 1227.16 532.99 1227.01 527.43 1225.75 521.69 C 1225.25 519.5 1224.5 518.07 1222.51 517.38 C 1214.53 514.57 1207.43 509.83 1200.33 505.71 C 1185.81 497.34 1172.29 487.23 1159.58 476.18 C 1161.03 474.17 1162.8 472.22 1164.12 469.44 C 1165.56 466.44 1167.99 463.88 1169.79 461.76 C 1180.26 456.64 1190.91 459.07 1201.94 458.69 C 1203.5 460.26 1205.3 462.32 1207.61 463.69 C 1220.08 463.33 1232.55 462.54 1245.02 461.8 C 1250.18 461.49 1255.34 461.19 1260.5 460.93 C 1265.92 460.68 1271.53 461 1276.7 459.75 C 1287.11 457.25 1297.38 453.94 1307.91 452 C 1322.55 449.31 1336.51 441.88 1352.08 444.94 L 1353.33 445.13 Z" fill="#fab005" fill-opacity="0.47"/>
    <path d="M 1271.28 616.99 C 1265.58 612.83 1259.57 608.74 1254.04 603.85 C 1247.31 597.86 1238.09 595.18 1230.37 590.18 C 1227.63 588.43 1222.64 589.25 1218.72 588.75 C 1215.29 588.31 1211.99 587.81 1208.75 586.75 L 1207.89 586.35 C 1212.13 575.73 1216.52 565.19 1221.33 554.84 C 1223.82 549.5 1225.56 544.12 1226.37 538.62 L 1227.43 539.98 C 1228.06 540.98 1229.11 540.67 1229.92 540.54 C 1242.51 538.3 1255.03 535.48 1267.93 536.23 C 1269.36 536.36 1270.54 535.48 1271.73 535.17 C 1279.27 533.17 1285.06 528.49 1291.04 523.8 C 1299.39 517.31 1309.11 514.69 1320.88 514.5 C 1326.02 511.61 1330.77 507.86 1334.58 503.07 C 1339.63 508.44 1344.37 513.06 1341.32 520.43 C 1343.19 521.42 1344.87 521.42 1346.55 520.49 C 1348.36 525.42 1344.81 528.67 1342.88 532.48 C 1343.5 533.47 1345.12 533.91 1345.31 535.35 C 1343.94 541.53 1336.4 540.09 1334.22 544.9 C 1331.6 544.4 1331.23 540.97 1326.99 541.09 C 1325.68 541.09 1320.32 546.46 1319.7 549.84 C 1318.39 557.14 1310.05 564.57 1302.88 564.82 C 1301.26 558.89 1301.2 558.89 1296.03 561.7 C 1297.09 565.14 1297.28 569.26 1296.59 574.13 C 1292.79 574.56 1287.43 572.75 1286.13 578.56 C 1285.32 582.24 1287.06 586.05 1286.63 590.17 C 1280.27 593.17 1273.42 595.48 1266 596.42 C 1268.19 599.48 1272.36 600.6 1278.59 599.66 L 1278.59 615.02 C 1276.1 616.84 1273.61 615.21 1271.74 616.65 Z" fill="#228be6" fill-opacity="0.47"/>
    <path d="M 1324.34 265.75 L 1324.65 267 C 1325.15 268.81 1322.97 269.31 1322.41 270.93 C 1327.7 272.06 1333.31 270 1338.42 274.43 C 1338.98 283.73 1329.95 286.67 1325.4 293.16 C 1327.39 297.16 1331.57 295.09 1334.62 294.97 C 1338.98 294.72 1340.79 300.28 1344.9 298.28 C 1346.27 300.96 1347.27 303.02 1348.33 305.08 C 1347.33 308.58 1342.85 307.71 1341.35 310.39 C 1342.22 313.76 1344.71 312.14 1346.71 312.89 C 1347.52 314.2 1346.71 316.7 1348.64 317.51 C 1350.57 318.38 1351.07 315.7 1353.62 316.88 C 1354.44 325.12 1358.61 331.99 1367.71 335.36 C 1365.71 342.48 1375.68 345.91 1370.76 354.09 C 1365.92 356.33 1361.7 361.6 1355.52 365.78 C 1339.27 366.82 1322.83 361.78 1306.03 360.22 C 1301.3 359.78 1296.44 360.28 1291.95 359.35 L 1289.77 359.41 C 1276.13 357.6 1262.36 356.29 1248.65 357.17 C 1241.49 357.61 1234.82 356.36 1228.09 354.92 C 1217.73 352.73 1207.37 350.33 1196.81 349.65 C 1196.82 349.62 1198.56 336.63 1198.56 330.64 C 1198.56 319.96 1202.67 311.28 1207.96 302.42 C 1213.07 293.86 1218.86 286.18 1226.09 279.31 C 1231.18 274.45 1236.42 270.46 1242.81 268.25 C 1244.64 267.62 1246.55 267.14 1248.58 266.82 C 1259.48 265.14 1269.82 261.26 1280.41 258.39 C 1287.83 256.39 1295.99 257.08 1303.34 259.57 C 1310.25 261.9 1317.32 263.74 1324.35 265.69 Z" fill="#40c057" fill-opacity="0.47"/>
    <path d="M 1248.58 266.82 C 1246.55 267.14 1244.64 267.62 1242.82 268.25 C 1242.49 267.63 1239.97 262.8 1238.92 260.64 C 1232.69 247.66 1223.96 234.86 1220.41 220.62 C 1227.36 216.58 1234.29 212.39 1241.22 208.2 C 1244.71 206.07 1248.69 208.19 1252.06 205.07 C 1252.99 199.64 1254.24 193.58 1256.04 188.15 C 1252.74 176.41 1252.18 163.86 1242.46 155.25 L 1241.15 154.06 C 1242.29 152.83 1243.09 151.47 1243.64 149.69 C 1249.06 132.9 1260.58 121.72 1276.03 114.1 C 1278.34 112.98 1280.77 111.98 1283.01 110.42 C 1284.32 108.29 1282.63 105.61 1284.19 103.42 C 1288.12 102.86 1293.6 102.48 1294.35 98.43 C 1295.59 91.87 1302.44 89.18 1303.38 82.57 C 1304.56 85.56 1306.56 87.75 1307.8 89.81 C 1307.49 94.49 1305.69 98.24 1305.19 102.23 C 1307.56 103.11 1309.8 103.17 1312.1 102.48 C 1312.1 100.36 1312.35 98.42 1311.48 96.8 C 1313.29 94.49 1315.72 92.87 1317.02 90.93 C 1317.33 87.87 1316.77 85.25 1317.46 82.81 C 1318.46 82.94 1319.02 82.56 1319.64 82.31 C 1327.43 79.38 1328.8 80 1331.48 87.87 C 1333.28 93.05 1333.78 98.8 1336.9 103.42 C 1362.94 108.22 1356.96 110.34 1356.4 124.02 C 1355.03 124.95 1353.04 125.02 1352.54 128.01 C 1353.79 130.57 1354.41 134.13 1355.97 136.44 C 1365.38 136.81 1371.86 144.56 1380.95 143.31 C 1380.33 152.42 1372.35 147.8 1369.49 151.55 C 1369.49 154.05 1371.92 154.42 1373.23 154.48 C 1379.77 154.79 1384.44 150.55 1389.3 146.68 C 1392.85 149.05 1397.77 145.8 1400.58 149.98 C 1400.7 151.23 1399.21 152.29 1401.64 154.29 C 1402.76 155.29 1405.31 152.54 1406.68 153.29 C 1409.74 155.6 1408.12 159.1 1410.86 160.91 C 1420.14 158.35 1423.57 168.15 1430.42 170.65 C 1436.28 169.21 1442.07 167.77 1447.68 166.34 C 1449.86 169.77 1446 171.46 1447.06 175.2 C 1448.12 177.07 1450.61 180.07 1449.24 182.69 C 1439.89 189.56 1429.05 191.5 1422.2 199.99 C 1416.84 198.37 1411.92 197.12 1406.81 197.62 C 1402.64 198.06 1398.59 198.37 1396.72 193.63 C 1391.86 194.13 1388.68 197.12 1385.07 199 C 1382.39 200.43 1382.27 202.99 1384.32 205.8 C 1386.75 209.11 1389.5 212.42 1389.37 217.48 C 1396.23 217.48 1401.15 220.91 1404.01 226.9 C 1409.19 227.03 1413.98 227.09 1418.72 225.47 C 1421.4 227.09 1422.83 229.96 1425.45 231.27 C 1422.71 234.52 1419.15 235.89 1414.98 235.02 C 1411.24 234.27 1407.5 234.83 1403.77 234.9 C 1399.22 234.96 1394.36 236.96 1390.5 233.84 C 1387.63 235.52 1385.01 237.15 1382.52 238.71 C 1375.67 243.08 1369.88 242.08 1363.89 236.34 C 1362.4 234.84 1361.09 233.15 1357.85 232.47 C 1351.43 234.59 1352.24 244.58 1346.14 246.58 C 1340.97 247.89 1336.17 247.14 1332.12 250.58 C 1336.3 253.26 1339.78 250.2 1344.15 250.89 C 1350.44 258.19 1360.72 259.5 1369.75 263.68 C 1364.89 264.62 1361.03 266.99 1356.92 269.18 C 1352.43 271.62 1347.14 273.36 1342.03 269.49 C 1339.85 267.81 1337.05 267 1334.62 265.25 C 1331.75 267 1328.51 266.87 1325.89 266.13 C 1325.38 265.98 1324.87 265.84 1324.35 265.69 C 1317.32 263.74 1310.25 261.9 1303.34 259.57 C 1295.99 257.08 1287.83 256.39 1280.41 258.39 C 1269.82 261.26 1259.48 265.14 1248.58 266.82 Z" fill="#e64980" fill-opacity="0.47"/>
    <path d="M 1368.88 245.89 C 1365.45 243.39 1361.09 243.14 1357.66 240.77 L 1357.04 242.02 C 1358.1 246.08 1352.81 246.7 1352.81 250.26 C 1356.3 254.51 1356.79 254.45 1362.03 248.89 C 1364.27 248.39 1365.58 250.7 1367.63 250.76 C 1368.57 249.26 1368.88 247.58 1368.88 245.89 Z" fill="#e64980" fill-opacity="0.47"/>
    <path d="M 1306.03 360.22 C 1322.83 361.78 1339.27 366.82 1355.38 365.83 L 1357.68 366.89 C 1361.92 368.89 1361.67 373.95 1364.78 377.13 C 1366.78 378.5 1369.71 376.44 1372.39 378.32 C 1374.57 390.43 1387.4 393.17 1393.88 401.79 C 1395.07 403.41 1397.5 402.6 1399.86 401.91 C 1403.17 406.41 1405.16 412.46 1411.77 414.52 C 1414.76 415.46 1411.58 420.02 1414.38 421.89 C 1417.06 423.26 1420.3 421.64 1423.6 423.2 C 1424.23 432.25 1415.69 435.25 1412.52 441.56 C 1407.97 440.31 1404.91 437.63 1401.11 436.13 C 1398.68 436.88 1399.31 439.87 1397.31 441.31 C 1395.2 440.94 1395.32 437.88 1393.14 437.44 C 1386.72 446.25 1380.24 436.26 1374.89 437.44 C 1369.4 433.76 1367.97 428.08 1364.42 423.83 C 1364.11 423.52 1362.61 423.33 1361.43 425.39 C 1362.24 430.2 1368.66 433.39 1367.35 440.44 C 1364.67 443.56 1361.49 440.75 1358.5 438.76 C 1355.26 439.88 1354.76 443.19 1353.39 444.5 L 1352.08 444.94 C 1336.51 441.88 1322.55 449.31 1307.91 452 C 1297.38 453.94 1287.11 457.25 1276.7 459.75 C 1271.53 461 1265.92 460.68 1260.5 460.93 C 1255.34 461.19 1250.18 461.49 1245.02 461.8 C 1245.61 450.2 1243.06 438.96 1250.97 428.66 C 1259.19 418.04 1263.17 404.37 1273.64 395.13 C 1275.51 393.5 1276.57 391.13 1277.32 388.88 C 1280.8 378.45 1284.73 368.28 1291.95 359.35 C 1296.44 360.28 1301.3 359.78 1306.03 360.22 Z" fill="#845ef7" fill-opacity="0.47"/>
  </g>
  <g id="anchors">
    <circle cx="889.36" cy="444.24" r="2.4" fill="#111"/>
    <circle cx="949.27" cy="555.62" r="2.4" fill="#111"/>
    <circle cx="988.38" cy="383.99" r="2.4" fill="#111"/>
    <circle cx="1018.24" cy="498.95" r="2.4" fill="#111"/>
    <circle cx="1028.1" cy="642.59" r="2.4" fill="#111"/>
    <circle cx="1065.82" cy="653.72" r="2.4" fill="#111"/>
    <circle cx="1104.28" cy="540.54" r="2.4" fill="#111"/>
    <circle cx="1116.47" cy="636.92" r="2.4" fill="#111"/>
    <circle cx="1144.42" cy="298.38" r="2.4" fill="#111"/>
    <circle cx="1164.36" cy="414.25" r="2.4" fill="#111"/>
    <circle cx="1177.77" cy="609.12" r="2.4" fill="#111"/>
    <circle cx="1200.14" cy="200.48" r="2.4" fill="#111"/>
    <circle cx="1225.67" cy="664.01" r="2.4" fill="#111"/>
    <circle cx="1262.25" cy="488.93" r="2.4" fill="#111"/>
    <circle cx="1274.8" cy="558.06" r="2.4" fill="#111"/>
    <circle cx="1282.16" cy="316.13" r="2.4" fill="#111"/>
    <circle cx="1321.38" cy="186.59" r="2.4" fill="#111"/>
    <circle cx="1324.85" cy="412.77" r="2.4" fill="#111"/>
    <circle cx="1194.19" cy="699.98" r="4.2" fill="none" stroke="#b30000" stroke-width="1.4"/>
    <circle cx="1249.56" cy="627.38" r="4.2" fill="none" stroke="#b30000" stroke-width="1.4"/>
  </g>
  <g id="leaders" stroke-width="1">
    <line x1="889.36" y1="444.24" x2="895.36" y2="438.24" stroke="#222"/>
    <line x1="949.27" y1="555.62" x2="955.27" y2="549.62" stroke="#222"/>
    <line x1="988.38" y1="383.99" x2="994.38" y2="377.99" stroke="#222"/>
    <line x1="1018.24" y1="498.95" x2="1024.24" y2="492.95" stroke="#222"/>
    <line x1="1028.1" y1="642.59" x2="1034.1" y2="636.59" stroke="#222"/>
    <line x1="1065.82" y1="653.72" x2="1077.24" y2="657.43" stroke="#222"/>
    <line x1="1104.28" y1="540.54" x2="1110.28" y2="534.54" stroke="#222"/>
    <line x1="1116.47" y1="636.92" x2="1122.47" y2="630.92" stroke="#222"/>
    <line x1="1144.42" y1="298.38" x2="1150.42" y2="292.38" stroke="#222"/>
    <line x1="1164.36" y1="414.25" x2="1170.36" y2="408.25" stroke="#222"/>
    <line x1="1177.77" y1="609.12" x2="1183.77" y2="603.12" stroke="#222"/>
    <line x1="1200.14" y1="200.48" x2="1206.14" y2="194.48" stroke="#222"/>
    <line x1="1225.67" y1="664.01" x2="1231.67" y2="658.01" stroke="#222"/>
    <line x1="1262.25" y1="488.93" x2="1268.25" y2="482.93" stroke="#222"/>
    <line x1="1274.8" y1="558.06" x2="1280.8" y2="552.06" stroke="#222"/>
    <line x1="1282.16" y1="316.13" x2="1288.16" y2="310.13" stroke="#222"/>
    <line x1="1321.38" y1="186.59" x2="1327.38" y2="180.59" stroke="#222"/>
    <line x1="1324.85" y1="412.77" x2="1330.85" y2="406.77" stroke="#222"/>
    <line x1="1194.19" y1="699.98" x2="1200.19" y2="693.98" stroke="#b30000"/>
    <line x1="1249.56" y1="627.38" x2="1255.56" y2="621.38" stroke="#b30000"/>
  </g>
  <g id="label_boxes">
    <rect x="889.36" y="423.24" width="45.9" height="20" rx="2" fill="#ffffff" fill-opacity="0.78" stroke="#111" stroke-opacity="0.22"/>
    <rect x="949.27" y="534.62" width="45.9" height="20" rx="2" fill="#ffffff" fill-opacity="0.78" stroke="#111" stroke-opacity="0.22"/>
    <rect x="988.38" y="362.99" width="45.9" height="20" rx="2" fill="#ffffff" fill-opacity="0.78" stroke="#111" stroke-opacity="0.22"/>
    <rect x="1018.24" y="477.95" width="45.9" height="20" rx="2" fill="#ffffff" fill-opacity="0.78" stroke="#111" stroke-opacity="0.22"/>
    <rect x="1028.1" y="621.59" width="45.9" height="20" rx="2" fill="#ffffff" fill-opacity="0.78" stroke="#111" stroke-opacity="0.22"/>
    <rect x="1071.24" y="642.43" width="45.9" height="20" rx="2" fill="#ffffff" fill-opacity="0.78" stroke="#111" stroke-opacity="0.22"/>
    <rect x="1104.28" y="519.54" width="45.9" height="20" rx="2" fill="#ffffff" fill-opacity="0.78" stroke="#111" stroke-opacity="0.22"/>
    <rect x="1116.47" y="615.92" width="45.9" height="20" rx="2" fill="#ffffff" fill-opacity="0.78" stroke="#111" stroke-opacity="0.22"/>
    <rect x="1144.42" y="277.38" width="45.9" height="20" rx="2" fill="#ffffff" fill-opacity="0.78" stroke="#111" stroke-opacity="0.22"/>
    <rect x="1164.36" y="393.25" width="45.9" height="20" rx="2" fill="#ffffff" fill-opacity="0.78" stroke="#111" stroke-opacity="0.22"/>
    <rect x="1177.77" y="588.12" width="45.9" height="20" rx="2" fill="#ffffff" fill-opacity="0.78" stroke="#111" stroke-opacity="0.22"/>
    <rect x="1200.14" y="179.48" width="45.9" height="20" rx="2" fill="#ffffff" fill-opacity="0.78" stroke="#111" stroke-opacity="0.22"/>
    <rect x="1225.67" y="643.01" width="45.9" height="20" rx="2" fill="#ffffff" fill-opacity="0.78" stroke="#111" stroke-opacity="0.22"/>
    <rect x="1262.25" y="467.93" width="45.9" height="20" rx="2" fill="#ffffff" fill-opacity="0.78" stroke="#111" stroke-opacity="0.22"/>
    <rect x="1274.8" y="537.06" width="45.9" height="20" rx="2" fill="#ffffff" fill-opacity="0.78" stroke="#111" stroke-opacity="0.22"/>
    <rect x="1282.16" y="295.13" width="45.9" height="20" rx="2" fill="#ffffff" fill-opacity="0.78" stroke="#111" stroke-opacity="0.22"/>
    <rect x="1321.38" y="165.59" width="45.9" height="20" rx="2" fill="#ffffff" fill-opacity="0.78" stroke="#111" stroke-opacity="0.22"/>
    <rect x="1324.85" y="391.77" width="45.9" height="20" rx="2" fill="#ffffff" fill-opacity="0.78" stroke="#111" stroke-opacity="0.22"/>
    <rect x="1194.19" y="678.98" width="55.2" height="20" rx="2" fill="#fff1f0" fill-opacity="0.90" stroke="#b30000" stroke-opacity="0.45"/>
    <rect x="1249.56" y="606.38" width="55.2" height="20" rx="2" fill="#fff1f0" fill-opacity="0.90" stroke="#b30000" stroke-opacity="0.45"/>
  </g>
  <g id="labels" font-family="monospace" font-weight="700" font-size="15">
    <text x="895.36" y="438.24" fill="#111">B01</text>
    <text x="955.27" y="549.62" fill="#111">B02</text>
    <text x="994.38" y="377.99" fill="#111">B03</text>
    <text x="1024.24" y="492.95" fill="#111">B04</text>
    <text x="1034.1" y="636.59" fill="#111">B05</text>
    <text x="1077.24" y="657.43" fill="#111">B06</text>
    <text x="1110.28" y="534.54" fill="#111">B07</text>
    <text x="1122.47" y="630.92" fill="#111">B08</text>
    <text x="1150.42" y="292.38" fill="#111">B09</text>
    <text x="1170.36" y="408.25" fill="#111">B10</text>
    <text x="1183.77" y="603.12" fill="#111">B11</text>
    <text x="1206.14" y="194.48" fill="#111">B13</text>
    <text x="1231.67" y="658.01" fill="#111">B14</text>
    <text x="1268.25" y="482.93" fill="#111">B16</text>
    <text x="1280.8" y="552.06" fill="#111">B17</text>
    <text x="1288.16" y="310.13" fill="#111">B18</text>
    <text x="1327.38" y="180.59" fill="#111">B19</text>
    <text x="1330.85" y="406.77" fill="#111">B20</text>
    <text x="1200.19" y="693.98" fill="#b30000">B12?</text>
    <text x="1255.56" y="621.38" fill="#b30000">B15?</text>
  </g>
</svg>