<?xml version="1.0" encoding="UTF-8"?>
<svg xmlns="http://www.w3.org/2000/svg" width="2646" height="1280" viewBox="0 0 2646 1280">
  <image href="indo_map_sm.jpg" x="0" y="0" width="2646" height="1280" preserveAspectRatio="none"/>
  <g id="areas" stroke="#111" stroke-width="1.5">
    <path d="M 851.49 420.03 C 856.35 405.3 863.63 392.5 874.1 381.94 L 874.85 382.5 C 887.74 389.62 899.08 399.17 911.67 406.72 C 924.72 414.54 937.62 422.8 951.86 428.37 L 951.48 429.32 C 948.99 433.25 946 436.94 944.01 441.18 C 942.14 445.12 938.09 445.74 934.67 447.43 C 922.46 453.61 913.42 463.1 906.57 474.84 C 902.02 482.77 895.36 489.58 891.44 497.57 C 886.51 507.44 877.29 512.37 871.07 520.49 L 870.38 521.24 C 869.9 521.02 869.71 520.6 869.57 520.11 C 869.57 519.99 868.82 520.11 867.95 520.11 C 866.58 519.18 865.15 521.24 863.34 520.74 C 862.53 516.43 862.16 512 861.59 507.63 C 861.41 506.5 860.72 504.82 862.15 503.94 C 867.32 500.76 865.89 496.01 865.02 491.21 C 866.64 488.9 869.01 487.52 871.75 486.46 C 863.83 482.15 859.84 473.1 851.06 470.67 C 850.68 460.12 852.8 449.69 846.82 440.95 C 849.44 436.83 852.24 433.95 854.54 431.71 C 855.35 426.65 854.54 422.84 851.49 420.03 Z" fill="#ff6b6b" fill-opacity="0.47"/>
    <path d="M 994.66 436.75 L 994.47 438.06 C 993.79 447.86 990.05 457.1 988.93 466.78 C 986.88 484.82 983.21 502.87 984.77 521.1 C 985.45 529.4 984.27 536.96 979.97 543.45 C 975.42 550.44 978.29 556.69 980.35 562.87 C 982.72 570.05 987.33 575.04 995.05 578.1 C 1000.78 580.37 1006.35 583 1011.86 585.77 C 1007.65 594.93 1005.91 604.82 1005.34 614.81 C 1004.78 624.43 1003.35 633.92 1002.54 643.53 C 1002.04 649.34 1002.91 654.08 1006.9 658.64 C 1008.75 660.75 1010.39 663.03 1012.09 665.28 C 1009.96 668.19 1006.47 672.25 1002.67 674.19 C 998.06 670.75 992.88 667.57 986.97 671.19 C 984.1 673 981.11 674.69 978.12 676 C 973.07 678.19 967.65 679.25 962.61 675.5 C 960.18 673.76 957.44 673.51 954.51 673.63 C 952.02 673.76 949.46 674.07 947.72 671.89 C 947.34 669.51 948.28 666.95 946.66 664.27 C 940.24 670.14 934.32 675.76 925.29 673.26 C 924.98 668.27 924.6 663.46 929.09 660.46 C 927.9 656.28 926.16 653.28 922.23 652.97 C 919.99 648.98 923.42 645.92 922.79 642.42 C 921.48 634.99 921.11 627.43 921.54 619.94 C 921.98 613.2 919.8 608.33 914 604.9 C 911.01 603.15 908.52 600.78 906.96 597.84 C 908.46 595.09 911.63 595.59 914 593.16 C 913.69 587.23 913.38 580.61 917.61 574.99 C 917.86 574.55 917.61 573.74 917.61 573.12 C 917.05 567.93 909.57 559.01 904.53 557.51 C 897.86 562.63 891.13 567.56 882.78 569.37 C 879.17 568.13 877.3 564.82 875.49 563.32 C 874.25 557.51 877.61 553.83 878.36 550.02 C 883.53 547.21 889.95 551.2 893.56 544.84 C 886.96 541.71 880.54 541.65 873.87 544.46 C 871.07 540.78 871.01 535.97 869.2 532.79 C 871.88 524.67 877.55 534.85 880.91 529.91 C 880.85 523.17 872.75 525.43 870.14 521.39 L 871.07 520.49 C 877.29 512.37 886.51 507.44 891.44 497.57 C 895.36 489.58 902.02 482.77 906.57 474.84 C 913.42 463.1 922.46 453.61 934.67 447.43 C 938.09 445.74 942.14 445.12 944.01 441.18 C 946 436.94 948.99 433.25 951.48 429.32 L 951.86 428.38 C 955.37 429.74 958.95 430.94 962.64 431.94 C 970.74 434.13 978.52 436.5 987 436.87 C 989.58 436.98 992.13 436.91 994.66 436.7 Z" fill="#4dabf7" fill-opacity="0.47"/>
    <path d="M 1056.76 323.23 C 1060.12 325.97 1061.43 329.66 1061.74 333.84 C 1062.62 346.89 1068.6 358.44 1072.22 370.74 C 1074.08 376.96 1075.82 383.25 1077.44 389.16 C 1069.41 394.23 1067.42 405.21 1060.7 411.39 C 1058.08 413.82 1054.4 415.57 1053.03 419.32 L 1051.79 420.57 C 1051.04 421.32 1050.92 422.94 1049.92 423 C 1038.12 423.64 1028.04 429.69 1016.9 432.43 C 1009.53 434.26 1002.19 436.08 994.66 436.7 C 992.13 436.91 989.58 436.98 987 436.87 C 978.52 436.5 970.74 434.13 962.64 431.94 C 958.95 430.94 955.37 429.74 951.86 428.37 C 937.62 422.8 924.72 414.54 911.67 406.72 C 899.08 399.17 887.74 389.62 874.85 382.5 L 874.1 381.93 C 873.67 371.14 874.49 371.13 881.76 366.89 C 890.42 361.9 899.52 355.59 910.85 359.02 C 912.54 359.52 914.59 359.09 917.02 359.09 C 921.57 354.84 925.87 349.59 931.29 346.72 C 950.85 348.15 968.11 358.33 987.3 356.58 C 988.67 362.76 999.2 371 1004.87 371 C 1006.24 369.87 1006.55 368.25 1006.8 366.69 C 1005.3 364.75 1002.81 364.38 1000.88 362.7 C 1002.19 360.63 1004.62 359.51 1005.68 357.14 C 1002.19 346.96 998.51 336.72 1003.43 325.98 C 1007.54 324.61 1011.03 325.29 1014.96 326.48 C 1029.35 330.85 1043.61 331.66 1055.82 323.23 Z" fill="#51cf66" fill-opacity="0.47"/>
    <path d="M 994.47 438.06 L 994.66 436.75 C 1002.19 436.08 1009.53 434.26 1016.9 432.43 C 1028.04 429.69 1038.12 423.64 1049.88 423 C 1052.85 433.43 1056.03 443.04 1057.28 453.09 C 1057.84 457.59 1058.9 461.9 1060.02 466.14 C 1061.34 471.1 1061.15 475.68 1060.16 480.04 C 1058.48 487.39 1054.53 494.14 1051.67 501.11 C 1046.88 512.79 1042.71 524.65 1037.54 536.14 C 1036.04 539.38 1034.61 542.51 1032.68 545.63 C 1029.63 550.5 1026.95 555.56 1025.95 561.68 C 1024.96 567.86 1019.72 572.6 1016.24 577.91 C 1014.54 580.46 1013.09 583.08 1011.86 585.77 C 1006.35 583 1000.78 580.37 995.05 578.1 C 987.33 575.04 982.72 570.05 980.35 562.87 C 978.29 556.69 975.42 550.44 979.97 543.45 C 984.27 536.96 985.45 529.4 984.77 521.1 C 983.21 502.87 986.88 484.82 988.93 466.78 C 990.05 457.1 993.79 447.86 994.47 438.06 Z" fill="#ffd43b" fill-opacity="0.47"/>
    <path d="M 1011.86 585.77 C 1022.69 591.23 1033.27 597.25 1044.34 602.26 C 1047.63 603.75 1051.04 605.06 1054.4 606.43 L 1054.24 607.87 C 1054.12 609.44 1053.25 610.68 1052.94 612.24 C 1047.99 637.86 1048.45 664.04 1045.04 689.72 C 1042.42 689.6 1041.23 691.04 1040.05 692.23 C 1035.88 696.6 1031.27 700.53 1026.78 704.53 C 1023.67 707.28 1019.24 709.28 1015.01 705.59 C 1015.69 701.35 1019.93 698.1 1017.56 693.48 C 1014.07 686.49 1015.38 679.68 1018.62 672.63 C 1016.1 670.44 1014.06 667.89 1012.09 665.28 C 1010.39 663.03 1008.75 660.75 1006.9 658.64 C 1002.91 654.08 1002.04 649.34 1002.54 643.53 C 1003.35 633.92 1004.78 624.43 1005.34 614.81 C 1005.91 604.82 1007.65 594.93 1011.86 585.77 Z" fill="#b197fc" fill-opacity="0.47"/>
    <path d="M 1054.43 606.44 C 1057.79 607.81 1057.67 607.81 1059.29 608.5 C 1067.51 612.24 1074.43 618.36 1082.97 621.61 C 1085.02 622.42 1087.08 623.29 1089.2 624.04 L 1090.51 624.48 C 1088.76 627.97 1087.02 631.35 1085.27 634.72 C 1083.16 638.9 1082.16 642.58 1082.78 647.27 C 1083.75 654.9 1083.7 662.63 1083.6 670.37 C 1083.57 673.08 1083.53 675.78 1083.53 678.49 C 1083.54 682.98 1079.67 683.86 1076.68 685.29 C 1071.08 687.98 1066.09 691.1 1065.16 698.47 C 1057.25 698.28 1050.52 696.66 1044.97 690.23 C 1048.45 664.04 1047.99 637.86 1052.94 612.24 C 1053.25 610.68 1054.12 609.44 1054.24 607.87 L 1054.37 606.5 Z" fill="#ffa94d" fill-opacity="0.47"/>
    <path d="M 1044.34 602.26 C 1033.27 597.25 1022.69 591.23 1011.86 585.77 C 1013.09 583.08 1014.54 580.46 1016.24 577.91 C 1019.72 572.6 1024.96 567.86 1025.95 561.68 C 1026.95 555.56 1029.63 550.5 1032.68 545.63 C 1034.61 542.51 1036.04 539.38 1037.54 536.14 C 1042.71 524.65 1046.88 512.79 1051.67 501.11 C 1054.53 494.14 1058.48 487.39 1060.16 480.04 L 1061.83 480.07 C 1074.97 478.82 1087.87 482.25 1101.08 482.12 C 1117.65 481.93 1133.78 477.87 1150.29 477.49 C 1153.31 477.43 1155.99 476.82 1158.26 475.46 C 1171.67 487.23 1185.19 497.34 1199.7 505.71 L 1198.83 506.77 C 1196.22 512.2 1194.28 517.82 1192.54 523.63 C 1190.05 531.93 1185.32 538.93 1179.65 545.61 C 1173.42 552.91 1168.5 561.34 1162.27 568.77 C 1159.47 572.15 1155.73 574.02 1153.05 577.77 C 1152.04 579.2 1151.09 580.65 1150.19 582.1 L 1148.38 581.7 C 1134.92 578.02 1121.71 575.65 1109 584.64 C 1106.57 586.33 1105.45 587.89 1104.71 590.45 C 1101.29 602.39 1096.03 613.53 1090.51 624.48 L 1089.2 624.04 C 1087.08 623.29 1085.02 622.42 1082.97 621.61 C 1074.43 618.36 1067.51 612.24 1059.29 608.5 C 1057.67 607.81 1057.79 607.81 1054.43 606.44 C 1051.04 605.06 1047.63 603.75 1044.34 602.26 Z" fill="#63e6be" fill-opacity="0.47"/>
    <path d="M 1150.17 582.12 C 1142.82 593.97 1139.04 606.42 1140.59 621.04 C 1141.53 629.72 1139.04 638.52 1137.79 647.26 C 1136.3 658.19 1136.3 669.3 1135.18 680.35 C 1134.46 686.99 1132.11 693.46 1131.95 701.39 L 1130.95 701.58 C 1127.15 702.46 1124.16 698.71 1120.48 700.71 C 1117.49 694.4 1120.92 688.16 1117.74 682.85 C 1115.68 681.98 1113.44 681.23 1110.57 681.73 C 1109.64 684.85 1108.46 688.22 1104.22 689.97 C 1096.37 689.66 1097.86 677.11 1089.7 677.86 C 1087.58 675.05 1089.14 670.87 1084.84 670.37 L 1083.66 670.37 C 1083.7 662.63 1083.75 654.9 1082.78 647.27 C 1082.16 642.58 1083.16 638.9 1085.27 634.72 C 1087.02 631.35 1088.76 627.97 1090.44 624.6 C 1096.03 613.53 1101.29 602.39 1104.71 590.45 C 1105.45 587.89 1106.57 586.33 1109 584.64 C 1121.71 575.65 1134.92 578.02 1148.38 581.7 L 1150.17 582.12 Z" fill="#f06595" fill-opacity="0.47"/>
    <path d="M 1291.33 359.35 C 1284.1 368.28 1280.18 378.45 1276.69 388.88 C 1275.94 391.13 1274.89 393.5 1273.02 395.13 C 1262.55 404.37 1258.57 418.04 1250.34 428.66 C 1242.43 438.96 1244.99 450.2 1244.37 461.31 C 1231.93 462.54 1219.46 463.33 1206.99 463.69 C 1204.68 462.32 1202.87 460.26 1201.32 458.69 C 1190.29 459.07 1179.64 456.64 1169.17 461.76 C 1167.36 463.88 1164.93 466.44 1163.5 469.44 C 1162.17 472.22 1160.41 474.17 1158.28 475.45 C 1155.99 476.82 1153.31 477.43 1150.29 477.49 C 1133.78 477.87 1117.65 481.93 1101.08 482.12 C 1087.87 482.25 1074.97 478.82 1061.83 480.07 L 1060.27 480.07 C 1061.15 475.68 1061.34 471.1 1060.02 466.14 C 1058.9 461.9 1057.84 457.59 1057.28 453.09 C 1056.03 443.04 1052.85 433.43 1049.92 423.75 C 1050.92 422.94 1051.04 421.32 1051.79 420.57 L 1053.03 419.32 C 1054.4 415.57 1058.08 413.82 1060.7 411.39 C 1067.42 405.21 1069.41 394.23 1077.44 389.17 C 1092.78 388.97 1104.93 381.22 1115.58 372.67 C 1122.62 367.05 1129.16 360.49 1136.51 355.06 C 1140.18 352.31 1144.3 350.63 1148.97 350.69 C 1162.05 350.87 1175.14 349.87 1188.22 349.5 C 1201.55 349.12 1214.51 352.18 1227.47 354.92 C 1234.2 356.36 1240.86 357.61 1248.03 357.17 C 1261.74 356.29 1275.5 357.6 1289.15 359.41 L 1291.27 359.22 Z" fill="#74c0fc" fill-opacity="0.47"/>
    <path d="M 1198.83 506.77 L 1199.7 505.71 C 1206.81 509.83 1213.91 514.57 1221.88 517.38 C 1223.88 518.07 1224.63 519.5 1225.12 521.69 C 1226.39 527.43 1226.54 532.99 1225.77 538.43 C 1224.96 544.05 1223.21 549.47 1220.71 554.84 C 1213.48 570.39 1207.19 586.38 1200.9 602.36 C 1198.41 608.73 1201.15 615.6 1201.34 622.28 C 1201.65 634.64 1202.84 647.19 1195.86 658.49 C 1194.37 660.93 1192.62 663.11 1190.88 665.36 C 1181.72 677.16 1172.5 688.9 1166.52 702.76 C 1164.09 701.96 1161.63 700.98 1158.92 700.45 C 1153.38 699.39 1150.01 696.4 1147.15 692.15 C 1146.34 690.96 1145.84 689.53 1143.84 689.72 C 1143.35 696.96 1137.05 698.27 1131.95 702.2 C 1131.95 701.94 1131.95 701.67 1131.95 701.4 C 1132.11 693.46 1134.46 686.99 1135.18 680.35 C 1136.3 669.3 1136.3 658.19 1137.79 647.26 C 1139.04 638.52 1141.53 629.72 1140.59 621.04 C 1139.04 606.42 1142.82 593.97 1150.17 582.12 C 1151.09 580.65 1152.04 579.2 1153.05 577.77 C 1155.73 574.02 1159.47 572.15 1162.27 568.77 C 1168.5 561.34 1173.42 552.91 1179.65 545.61 C 1185.32 538.93 1190.05 531.93 1192.54 523.63 C 1194.28 517.82 1196.22 512.2 1198.83 506.77 Z" fill="#69db7c" fill-opacity="0.47"/>
    <path d="M 1272.18 684.39 C 1273.12 685.64 1273.12 686.83 1273.62 687.83 C 1268.2 693.45 1272.93 701.81 1267.39 706.62 C 1272.5 712.8 1270.76 720.23 1271.75 726.66 C 1269.51 728.91 1267.08 726.85 1265.84 728.78 C 1261.66 730.35 1262.04 736.03 1257.55 737.4 C 1256.37 736.34 1256.86 735.15 1256.86 734.09 C 1257.11 727.91 1258.86 721.73 1254.62 715.8 C 1253.44 714.11 1253.56 710.12 1256.05 707.12 C 1258.6 703.94 1260.41 699.88 1260.6 695.38 C 1260.66 692.88 1261.91 691.07 1264.21 689.64 C 1266.89 687.95 1269.63 686.39 1272.18 684.39 Z" fill="#fcc419" fill-opacity="0.47"/>
    <path d="M 1238.1 156.12 C 1239.05 155.45 1239.85 154.78 1240.53 154.07 L 1241.83 155.25 C 1251.55 163.86 1252.12 176.41 1255.42 188.15 C 1253.61 193.58 1252.37 199.64 1251.44 205.07 C 1248.07 208.2 1244.08 206.07 1240.6 208.2 C 1233.67 212.39 1226.74 216.57 1219.49 220.14 C 1215.06 222.31 1210.52 224.25 1205.77 225.81 C 1201.6 227.18 1198.05 230.43 1193.31 230.12 C 1188.45 229.74 1183.65 230.49 1178.98 231.49 C 1174.56 232.43 1168.89 233.55 1166.09 231.68 C 1157.36 225.88 1147.02 222.44 1139.67 214.58 L 1138.3 213.33 C 1139.3 210.05 1139.9 206.61 1139.67 202.84 C 1139.23 195.97 1144.59 189.79 1151.38 189.23 C 1163.96 188.23 1176.3 185.54 1188.76 183.67 C 1192.37 183.1 1196.23 181.73 1199.97 183.48 C 1197.48 188.72 1197.98 191.91 1201.53 192.9 C 1201.97 189.66 1202.21 186.29 1204.96 184.1 C 1208.94 183.04 1212.87 183.23 1217.23 184.29 C 1219.04 182.35 1221.03 180.35 1223.58 179.42 C 1226.32 164.87 1226.2 164.68 1238.1 156.12 Z" fill="#9775fa" fill-opacity="0.47"/>
    <path d="M 1207.16 728.75 C 1208.58 727.09 1209.07 724.97 1209.39 722.74 C 1210.76 713.37 1213.31 704.38 1215.68 695.26 C 1216.49 692.27 1217.67 689.27 1220.04 687.21 C 1225.89 682.15 1226.89 675.28 1226.02 668.48 C 1225.48 664.21 1226.95 660.47 1225.96 655.3 C 1237.58 658.42 1248.59 660.56 1259.29 660.97 L 1259.29 667.79 C 1261.34 671.22 1264.64 673.4 1267.26 676.84 C 1264.71 679.09 1264.27 683.27 1259.97 683.77 C 1257.05 690.14 1254.18 696.82 1252.94 704.06 C 1252.75 704.81 1252.31 706.81 1251.19 707.12 C 1242.59 709.74 1239.17 718.67 1231.88 722.8 C 1228.83 724.48 1225.28 724.79 1221.91 725.23 C 1216.93 725.86 1212.75 729.29 1207.58 729.04 Z" fill="#20c997" fill-opacity="0.47"/>
    <path d="M 1352.73 445.13 C 1352.09 454.33 1347.98 460.51 1340.06 464.17 C 1341.31 469.35 1343.37 474.28 1337.82 478.28 C 1336.26 479.41 1338.57 486.9 1340.81 490.02 C 1339.27 495.05 1336.9 499.37 1333.96 503.07 C 1330.15 507.86 1325.39 511.61 1320.26 514.5 C 1308.48 514.69 1298.76 517.31 1290.42 523.8 C 1284.44 528.49 1278.64 533.17 1271.1 535.17 C 1269.92 535.48 1268.74 536.36 1267.3 536.23 C 1254.41 535.48 1241.89 538.3 1229.3 540.54 C 1228.49 540.67 1227.43 540.98 1226.81 539.98 L 1225.76 538.52 C 1226.54 532.99 1226.39 527.43 1225.12 521.69 C 1224.63 519.5 1223.88 518.07 1221.88 517.38 C 1213.91 514.57 1206.81 509.83 1199.7 505.71 C 1185.19 497.34 1171.67 487.23 1158.95 476.18 C 1160.41 474.17 1162.17 472.22 1163.5 469.44 C 1164.93 466.44 1167.36 463.88 1169.17 461.76 C 1179.64 456.64 1190.29 459.07 1201.32 458.69 C 1202.87 460.26 1204.68 462.32 1206.99 463.69 C 1219.46 463.33 1231.93 462.54 1244.4 461.8 C 1249.56 461.49 1254.72 461.19 1259.88 460.93 C 1265.3 460.68 1270.91 461 1276.08 459.75 C 1286.48 457.25 1296.76 453.94 1307.29 452 C 1321.93 449.31 1335.89 441.88 1351.46 444.94 L 1352.71 445.13 Z" fill="#fab005" fill-opacity="0.47"/>
    <path d="M 1358.91 276.98 C 1358.11 278.23 1356.8 277.23 1355.74 277.8 C 1354.8 280.23 1354.49 283.23 1351.75 285.29 C 1347.33 281.86 1344.28 284.6 1341.29 287.98 C 1342.16 292.53 1348.14 291.53 1348.2 296.47 C 1354.24 290.72 1357.73 284.41 1361.59 278.61 C 1360.97 277.42 1360.22 277.61 1359.54 277.61 Z" fill="#228be6" fill-opacity="0.47"/>
    <path d="M 1247.95 266.88 C 1245.94 267.2 1244.03 267.68 1242.22 268.31 C 1240.04 265.57 1239.36 262.95 1238.23 260.64 C 1232 247.66 1223.28 234.86 1219.73 220.62 C 1226.74 216.57 1233.67 212.39 1240.6 208.2 C 1244.08 206.07 1248.07 208.2 1251.44 205.07 C 1252.37 199.64 1253.61 193.58 1255.42 188.15 C 1252.12 176.41 1251.55 163.86 1241.83 155.25 L 1240.53 154.07 C 1241.68 152.86 1242.47 151.52 1243.02 149.76 C 1248.44 132.96 1259.96 121.78 1275.41 114.16 C 1277.71 113.04 1280.14 112.04 1282.39 110.48 C 1283.69 108.35 1282.01 105.67 1283.57 103.49 C 1287.49 102.92 1292.98 102.55 1293.72 98.49 C 1294.97 91.93 1301.82 89.25 1302.76 82.63 C 1303.94 85.63 1305.93 87.81 1307.18 89.87 C 1306.87 94.55 1305.06 98.3 1304.56 102.3 C 1306.93 103.17 1309.18 103.23 1311.48 102.54 C 1311.48 100.42 1311.73 98.49 1310.86 96.86 C 1312.66 94.55 1315.09 92.93 1316.4 90.99 C 1316.71 87.93 1316.15 85.31 1316.84 82.88 C 1317.83 83 1318.39 82.63 1319.02 82.38 C 1326.8 79.44 1328.17 80.07 1330.85 87.93 C 1332.66 93.11 1333.16 98.86 1336.28 103.48 C 1362.32 108.28 1356.34 110.41 1355.78 124.08 C 1354.41 125.02 1352.42 125.08 1351.92 128.08 C 1353.16 130.64 1353.79 134.19 1355.34 136.5 C 1364.75 136.88 1371.23 144.62 1380.33 143.37 C 1379.71 152.48 1371.73 147.87 1368.87 151.61 C 1368.87 154.11 1371.3 154.48 1372.6 154.55 C 1379.15 154.86 1383.82 150.61 1388.68 146.74 C 1392.23 149.11 1397.15 145.86 1399.95 150.05 C 1400.08 151.3 1398.58 152.36 1401.01 154.35 C 1402.14 155.35 1404.69 152.61 1406.06 153.35 C 1409.11 155.66 1407.49 159.16 1410.24 160.97 C 1419.52 158.41 1422.95 168.21 1429.8 170.71 C 1435.66 169.27 1441.45 167.84 1447.06 166.4 C 1449.24 169.83 1445.38 171.52 1446.43 175.26 C 1447.49 177.14 1449.99 180.13 1448.62 182.76 C 1439.27 189.63 1428.43 191.56 1421.58 200.05 C 1416.22 198.43 1411.3 197.18 1406.19 197.68 C 1402.02 198.12 1397.97 198.43 1396.1 193.69 C 1391.24 194.19 1388.06 197.19 1384.45 199.06 C 1381.77 200.5 1381.65 203.06 1383.7 205.87 C 1386.13 209.18 1388.87 212.48 1388.75 217.54 C 1395.6 217.54 1400.52 220.97 1403.39 226.97 C 1408.56 227.09 1413.36 227.15 1418.09 225.53 C 1420.77 227.15 1422.21 230.02 1424.82 231.34 C 1422.08 234.58 1418.53 235.96 1414.36 235.08 C 1410.62 234.33 1406.88 234.9 1403.14 234.96 C 1398.6 235.02 1393.74 237.02 1389.87 233.9 C 1387.01 235.59 1384.39 237.21 1381.9 238.77 C 1375.05 243.14 1369.25 242.14 1363.27 236.4 C 1361.78 234.9 1360.47 233.22 1357.23 232.53 C 1350.81 234.65 1351.62 244.64 1345.52 246.64 C 1340.35 247.95 1335.55 247.21 1331.5 250.64 C 1335.67 253.32 1339.16 250.26 1343.52 250.95 C 1349.82 258.26 1360.1 259.56 1369.13 263.75 C 1364.27 264.68 1360.41 267.06 1356.3 269.24 C 1351.81 271.68 1346.52 273.43 1341.41 269.56 C 1339.23 267.87 1336.42 267.06 1333.99 265.31 C 1331.13 267.06 1327.89 266.94 1325.27 266.19 C 1324.75 266.04 1324.23 265.9 1323.71 265.75 C 1316.69 263.8 1309.62 261.96 1302.72 259.63 C 1295.36 257.14 1287.2 256.45 1279.79 258.45 C 1269.2 261.33 1258.86 265.2 1247.95 266.88 Z" fill="#40c057" fill-opacity="0.47"/>
    <path d="M 1357.04 240.77 C 1360.47 243.14 1364.83 243.39 1368.26 245.89 C 1368.26 247.58 1367.94 249.26 1367.01 250.76 C 1364.95 250.7 1363.65 248.39 1361.4 248.89 C 1356.17 254.45 1355.67 254.51 1352.18 250.26 C 1352.18 246.7 1357.48 246.08 1356.42 242.02 L 1357.04 240.77 Z" fill="#40c057" fill-opacity="0.47"/>
    <path d="M 1305.41 360.22 C 1322.21 361.78 1338.64 366.82 1354.76 365.84 L 1357.06 366.89 C 1361.29 368.89 1361.05 373.95 1364.16 377.13 C 1366.16 378.5 1369.08 376.44 1371.76 378.32 C 1373.94 390.43 1386.78 393.17 1393.26 401.79 C 1394.44 403.41 1396.87 402.6 1399.24 401.91 C 1402.54 406.41 1404.54 412.46 1411.14 414.52 C 1414.13 415.46 1410.96 420.02 1413.76 421.89 C 1416.44 423.26 1419.68 421.64 1422.98 423.2 C 1423.6 432.25 1415.07 435.25 1411.89 441.56 C 1407.35 440.31 1404.29 437.63 1400.49 436.13 C 1398.06 436.88 1398.69 439.87 1396.69 441.31 C 1394.57 440.94 1394.7 437.88 1392.52 437.44 C 1386.1 446.25 1379.62 436.26 1374.26 437.44 C 1368.78 433.76 1367.35 428.08 1363.79 423.83 C 1363.48 423.52 1361.99 423.33 1360.8 425.39 C 1361.61 430.2 1368.03 433.39 1366.72 440.44 C 1364.05 443.56 1360.87 440.75 1357.88 438.76 C 1354.64 439.88 1354.14 443.19 1352.77 444.5 L 1351.46 444.94 C 1335.89 441.88 1321.93 449.31 1307.29 452 C 1296.76 453.94 1286.48 457.25 1276.08 459.75 C 1270.91 461 1265.3 460.68 1259.88 460.93 C 1254.72 461.19 1249.56 461.49 1244.4 461.8 C 1244.99 450.2 1242.43 438.96 1250.34 428.66 C 1258.57 418.04 1262.55 404.37 1273.02 395.13 C 1274.89 393.5 1275.94 391.13 1276.69 388.88 C 1280.18 378.45 1284.1 368.28 1291.33 359.35 C 1295.81 360.28 1300.67 359.78 1305.41 360.22 Z" fill="#e64980" fill-opacity="0.47"/>
  </g>
  <g id="leaders" stroke-width="1">
    <line x1="888.74" y1="444.26" x2="893.74" y2="439.26" stroke="#222"/>
    <line x1="948.64" y1="555.65" x2="953.64" y2="550.65" stroke="#222"/>
    <line x1="987.78" y1="384.01" x2="992.78" y2="379.01" stroke="#222"/>
    <line x1="1017.62" y1="498.95" x2="1022.62" y2="493.95" stroke="#222"/>
    <line x1="1027.48" y1="642.59" x2="1032.48" y2="637.59" stroke="#222"/>
    <line x1="1065.2" y1="653.72" x2="1074.6" y2="657.14" stroke="#222"/>
    <line x1="1103.65" y1="540.54" x2="1108.65" y2="535.54" stroke="#222"/>
    <line x1="1115.85" y1="636.92" x2="1120.85" y2="631.92" stroke="#222"/>
    <line x1="1163.73" y1="414.25" x2="1168.73" y2="409.25" stroke="#222"/>
    <line x1="1177.15" y1="609.12" x2="1182.15" y2="604.12" stroke="#222"/>
    <line x1="1263.82" y1="711.31" x2="1268.82" y2="706.31" stroke="#222"/>
    <line x1="1199.53" y1="200.5" x2="1204.53" y2="195.5" stroke="#222"/>
    <line x1="1236.26" y1="690.98" x2="1241.26" y2="685.98" stroke="#222"/>
    <line x1="1261.63" y1="488.93" x2="1266.63" y2="483.93" stroke="#222"/>
    <line x1="1351.09" y1="286.65" x2="1356.09" y2="281.65" stroke="#222"/>
    <line x1="1320.75" y1="186.66" x2="1325.75" y2="181.66" stroke="#222"/>
    <line x1="1324.22" y1="412.77" x2="1329.22" y2="407.77" stroke="#222"/>
    <line x1="1146.7" y1="292.04" x2="1151.7" y2="287.04" stroke="#b30000"/>
    <line x1="1249.56" y1="627.38" x2="1254.56" y2="622.38" stroke="#b30000"/>
    <line x1="1272.23" y1="559.63" x2="1277.23" y2="554.63" stroke="#b30000"/>
  </g>
  <g id="label_boxes">
    <rect x="888.74" y="425.26" width="43.6" height="19" rx="2" fill="#ffffff" fill-opacity="0.78" stroke="#111" stroke-opacity="0.22"/>
    <rect x="948.64" y="536.65" width="43.6" height="19" rx="2" fill="#ffffff" fill-opacity="0.78" stroke="#111" stroke-opacity="0.22"/>
    <rect x="987.78" y="365.01" width="43.6" height="19" rx="2" fill="#ffffff" fill-opacity="0.78" stroke="#111" stroke-opacity="0.22"/>
    <rect x="1017.62" y="479.95" width="43.6" height="19" rx="2" fill="#ffffff" fill-opacity="0.78" stroke="#111" stroke-opacity="0.22"/>
    <rect x="1027.48" y="623.59" width="43.6" height="19" rx="2" fill="#ffffff" fill-opacity="0.78" stroke="#111" stroke-opacity="0.22"/>
    <rect x="1069.6" y="643.14" width="43.6" height="19" rx="2" fill="#ffffff" fill-opacity="0.78" stroke="#111" stroke-opacity="0.22"/>
    <rect x="1103.65" y="521.54" width="43.6" height="19" rx="2" fill="#ffffff" fill-opacity="0.78" stroke="#111" stroke-opacity="0.22"/>
    <rect x="1115.85" y="617.92" width="43.6" height="19" rx="2" fill="#ffffff" fill-opacity="0.78" stroke="#111" stroke-opacity="0.22"/>
    <rect x="1163.73" y="395.25" width="43.6" height="19" rx="2" fill="#ffffff" fill-opacity="0.78" stroke="#111" stroke-opacity="0.22"/>
    <rect x="1177.15" y="590.12" width="43.6" height="19" rx="2" fill="#ffffff" fill-opacity="0.78" stroke="#111" stroke-opacity="0.22"/>
    <rect x="1263.82" y="692.31" width="43.6" height="19" rx="2" fill="#ffffff" fill-opacity="0.78" stroke="#111" stroke-opacity="0.22"/>
    <rect x="1199.53" y="181.5" width="43.6" height="19" rx="2" fill="#ffffff" fill-opacity="0.78" stroke="#111" stroke-opacity="0.22"/>
    <rect x="1236.26" y="671.98" width="43.6" height="19" rx="2" fill="#ffffff" fill-opacity="0.78" stroke="#111" stroke-opacity="0.22"/>
    <rect x="1261.63" y="469.93" width="43.6" height="19" rx="2" fill="#ffffff" fill-opacity="0.78" stroke="#111" stroke-opacity="0.22"/>
    <rect x="1351.09" y="267.65" width="43.6" height="19" rx="2" fill="#ffffff" fill-opacity="0.78" stroke="#111" stroke-opacity="0.22"/>
    <rect x="1320.75" y="167.66" width="43.6" height="19" rx="2" fill="#ffffff" fill-opacity="0.78" stroke="#111" stroke-opacity="0.22"/>
    <rect x="1324.22" y="393.77" width="43.6" height="19" rx="2" fill="#ffffff" fill-opacity="0.78" stroke="#111" stroke-opacity="0.22"/>
    <rect x="1146.7" y="273.04" width="52.8" height="19" rx="2" fill="#fff1f0" fill-opacity="0.90" stroke="#b30000" stroke-opacity="0.45"/>
    <rect x="1249.56" y="608.38" width="52.8" height="19" rx="2" fill="#fff1f0" fill-opacity="0.90" stroke="#b30000" stroke-opacity="0.45"/>
    <rect x="1272.23" y="540.63" width="52.8" height="19" rx="2" fill="#fff1f0" fill-opacity="0.90" stroke="#b30000" stroke-opacity="0.45"/>
  </g>
  <g id="labels" font-family="monospace" font-weight="700" font-size="15">
    <text x="893.74" y="439.26" fill="#111">B01</text>
    <text x="953.64" y="550.65" fill="#111">B02</text>
    <text x="992.78" y="379.01" fill="#111">B03</text>
    <text x="1022.62" y="493.95" fill="#111">B04</text>
    <text x="1032.48" y="637.59" fill="#111">B05</text>
    <text x="1074.6" y="657.14" fill="#111">B06</text>
    <text x="1108.65" y="535.54" fill="#111">B07</text>
    <text x="1120.85" y="631.92" fill="#111">B08</text>
    <text x="1168.73" y="409.25" fill="#111">B10</text>
    <text x="1182.15" y="604.12" fill="#111">B11</text>
    <text x="1268.82" y="706.31" fill="#111">B12</text>
    <text x="1204.53" y="195.5" fill="#111">B13</text>
    <text x="1241.26" y="685.98" fill="#111">B14</text>
    <text x="1266.63" y="483.93" fill="#111">B16</text>
    <text x="1356.09" y="281.65" fill="#111">B18</text>
    <text x="1325.75" y="181.66" fill="#111">B19</text>
    <text x="1329.22" y="407.77" fill="#111">B20</text>
    <text x="1151.7" y="287.04" fill="#b30000">B09?</text>
    <text x="1254.56" y="622.38" fill="#b30000">B15?</text>
    <text x="1277.23" y="554.63" fill="#b30000">B17?</text>
  </g>
</svg>