<?xml version="1.0" encoding="UTF-8"?>
<svg id="b" data-name="Layer 2" xmlns="http://www.w3.org/2000/svg" viewBox="0 0 1556.79 1555.85">
  <defs>
    <style>
      .e {
        fill: #a69583;
      }
    </style>
  </defs>
  <g id="c" data-name="Layer 1">
    <g id="d" data-name="WcdFtU.tif">
      <path class="e" d="M929.11,1538.7c-6.26,1.83-12,4.3-18.79,6.12-7.3,2.18-15.84.52-22.81,1.94-48.45,11.52-102.73,10.36-152.53,5.94-12.71-.92-25.19,2.73-37.85,1.65-17.81-2.58-34.54-9.94-52.65-11.29-14.68-2.01-27.74-2.15-41.77-6.66-48.99-16.1-97.25-29.12-144.51-49.65-41.54-19.57-80.61-42.54-117.77-69.42-12.51-10.72-26.67-16.41-40.2-26.27-24.44-25.43-51.99-43.62-77.7-67.37-52.75-64.39-109.27-129.01-143.08-205.94-4.77-12.06-10.35-24.29-19.61-33.54-15.12-13.51-11.59-19.96-12.18-38.46-10.33-40.45-29.3-80.45-31.73-122.51-12.9-57.7-12.36-118.16-15.93-176.59,7.79-125.29,39.65-254.55,107.37-361.01,9.55-18.95,20.48-37.45,33.43-54.53,9.54-12.42,21.95-21.26,31.78-34.01,12.36-14.69,19.94-32.52,32.91-46.6,10.75-11.1,21.03-22.96,32.63-33.19,24.44-17.84,46.07-37.1,67.28-58.53,13.1-9.95,26.38-18.86,40.45-27.06,12.69-4.57,22.27-13.41,33.48-20.52,6.01-3.45,12.85-5.06,18.92-8.39,6.94-3.61,13.07-9.39,19.69-13.63,9.37-6.31,19.83-6.28,28.84-12.07,22.54-20.24,18.05-15.35,46.75-20.49,14.04-4.23,26.81-11.51,40.77-16.54,14.07-6.79,29.77-7.34,44.77-10.71,32.56-12.1,67.2-16.99,101.69-20.03,10.85-1.76,20.56-8.31,31.9-8.85,11.03-1.13,22.46.03,33.59.31,64.07,1.99,130.43,1.68,192.61,18.15,10.36,3.37,19.78,2.61,31.17,4.52,35.13,10.75,68.74,27.15,104.96,34.91,53.27,20.49,98.02,57.68,149.52,81.23,66.05,49.41,128.77,103.88,174.38,173.13,89.71,115.57,146.88,258.87,156.96,405.28-.63,49.07,2.98,97.4-.75,146.24-4.7,23.72-6.86,47.03-9.93,70.59-19.59,62.68-32.12,128.83-66.09,186-13.86,23.05-24.54,48.36-36.96,72.29-5.76,9.71-13.57,15.17-20.36,24.06-8.15,10.79-13.36,22.52-21.99,33.25-10.83,12.69-21.49,25.01-31.44,38.52-18.54,20.6-42.02,36.84-57.67,59.75-8.45,8.91-21.73,13.11-27.97,24.13-3.88,6.63-4.64,13.26-10.28,17.57-6.31,4.78-16.01,4.11-23.17,6.95-18.35,7.27-29.68,25.97-46.87,35.28-8.69,4.28-16.95,9.59-25.64,13.95-31.48,9.57-24.19,12.45-47.91,28.72-40.71,17.45-80.98,34.4-124.37,43.72-24.94,7.59-48.78,20.86-75.31,19.66ZM494.39,693.18c65.13-43.11,54.02-47.74,74.45-117.41,28.24-96.77,54.43-214.29,81.55-313.34,30.52-77.03,11.02-94.78,109.03-92.3,64.39,8.81,174.48-33.7,191.47,54.98,3.79,11.39,9.48,22.17,10.77,34.38.64,6.85.88,14,2.68,20.59,20.93,49.46,22.77,106.28,44.13,155.26,5.06,13.39,8.55,27.53,11.64,41.14,2.66,32.89,20.78,63.35,25.75,96.11,17.21,89.09,39.25,89.26,107.5,139.14,79.91,65.57,174.85,110.59,254.2,177.41,44.62,73.87-134.92-7.48-120.19,82.86-1.57,16.36,7.23,23.07,21.64,15.88,11.82-5.64,15.56-20.93,28.41-24.75,37.15-8.45,111.26,8.98,110.43-45.35,4.16-22.62,9.68-29.31-10.71-46.17-21.29-18.75-44.7-37.28-69.06-51.77-59.81-49.73-131.43-82.91-190.36-133.72-15.97-11.85-32.78-24.83-23.66-46.64,3.8-10.21,9.79-20.79,13.87-31.34,4.36-11.44,7.37-23.49,15.1-33.25,11.82-13.09,19.18-29.21,25.69-45.55,18.01-31.58,32.84-64.46,50.69-96.19,5.54-10.32,10.99-21.69,20.37-28.94,8.65-7.01,20.95-7.8,31.48-9.76,8.11-1.54,14.58-3.63,22.02-4.91,37.46-2.53,41.85-32.3,13.16-55.35-33.78-36.29-63.4-77.33-105.48-104.87-26.78-19.99-50.06-45.24-79.36-61.45-23.62-11.69-48.8-22.5-70.72-36.86-95.22-37.5-193.57-69.42-297.38-64.69-52.96,4.44-108.81-6.63-159.66,11.75-115.66,28.01-232.03,74.92-319.13,158.03-19.49,12.54-35.36,30.45-53.47,45.07-13.75,11.15-22.56,26.8-33.41,40.48-6.73,8.51-15.65,14.46-22.5,22.57-9.93,11.91-14.53,26.05-23.23,39.08-6.53,10.04-15.7,18.61-22.85,28.06-16.34,27.24-26.79,58.78-39.23,87.92-10.54,22.5-46.45,90.28-5.56,97.5,61.92-5.66,97.99,1.51,154.09,26.76,15.69,7.54,29.79,20.46,45.45,27.9,28.1,17.53,127.97,37.22,63.18,76.54-28.54,25.5-61.45,45.41-90.77,69.96-13.21,8.77-28.86,13.47-40.74,24.35-6.48,5.91-12.04,12.85-19.08,18.13-7.91,6.1-17.3,10.18-25.26,16.24-11.87,8.56-19.39,20.44-29.45,31.11-34.54,27.2-4.15,64.81,30.59,71.17,28.18,12.76,85.4-1.66,97.36,32.79,1.88,11.38,1.05,30.4-10.97,34.61-14.75,3.61-32.47-8.99-46.98-13.13-9.4-3.16-17.46-3.83-26.17-5.53-8.69-2.17-17.31-5.82-26.47-6.44-13.49-.87-27.52,1.71-41.21,1.28-10.21.25-22.11-1.47-30.31,5.61-14.71,15.83-4.58,40.17,3.58,56.93,4.97,14.9,12.58,31.07,21.56,43.42,8,12.34,10.09,27.23,18.2,39.69,12.87,17.49,24.63,35.02,40.05,49.9,24.6,21.58,58.89,14.13,89.47,15.09,109.63,1.46,219.35.85,328.89-1.22,19.71,1.76,48.84-1.7,49.18-26.83-.91-10.13-8.97-16.07-15.66-23.64-12.2-14.99-25.59-27.89-42.85-37.03-47.36-29.92-104.87-34.21-157.87-18.66-27.1,12.25-62.82,45.92-84.57,6.85-35.05-40.88-32.18-61.97-29.03-113.28-7.01-92.1-47.88-64.97-119.36-71.89-34.3-8.47-9.86-39.11,8.67-50.71,29.94-16.43,54.01-40.8,84.8-56.32,62.02-42.29,115.67-88.5,181.64-127.24ZM1154.36,1164.43c14.14.29,29.1-.83,42.89-2.89,32.77-7.4,22.59-48.72,22.83-74.55-.56-14.36.56-29.45.85-43.8.27-22.45-1.06-44.85-1.47-67.14-.21-14.49,4.37-31.51-8.89-41.91-10.35-8.68-23.66-13.08-37.07-11.16-17.61,3.22-35.33-2.51-52.81.7-38.45,2.54-35.6,51.5-33.67,79.79,2.68,37.3-3.26,75.98.86,113,11.2,49.86,21.42,42.5,66.48,47.97ZM526.02,1057.26c15.55,3.59,31.47-2.03,46.82-3.56,53.57-.61,43.93-49.51,40.78-87.24,3.07-33.7-14.41-36.34-42.61-41.29-26.75-4.72-53.6,4.93-80.71,2.13-8.21-.13-16.5,1.09-24.7.96-50.8-11.85-52.59,29.25-51.83,67.94.15,19.03.16,24.84,10.81,41.15,9.51,16.65,15.19,22.12,34.51,21.55,20.67-.58,46.07-2.58,66.93-1.63ZM889.76,1044.15c17.99-22.24,23.73-109.15-12.56-117.31-46.48-4.66-101.46.81-149.57-2-11.73,1.55-21.81,9.88-26.95,20.4-7.22,15.37-4.09,32.03-3.61,48.29-2.86,78.8,52.86,62.09,109.32,60.86,27.84-3.52,62.79,14.28,83.36-10.25ZM1360.46,1191.89c16.68-9.01,23.89-26.22,33.46-41.68,5.95-9.71,13.22-18.93,18.36-29.13,4.44-8.92,6.35-18.94,10.38-28.04,4.09-9.93,11.62-19.05,12.94-29.9-.31-39.85-101-42.97-128.53-33.88-18.7,2.93-23.07,4.5-24.04,24.11-2.57,16.39-4.55,32.41-2.48,48.96.56,17.36-1.12,32.31-1.71,50.36-2.78,61.31,32.35,82.63,81.63,39.18Z"/>
    </g>
  </g>
</svg>