<?xml version="1.0" encoding="UTF-8"?>
<svg id="b" data-name="Layer 2" xmlns="http://www.w3.org/2000/svg" viewBox="0 0 528.48 530.05">
  <defs>
    <style>
      .d {
        fill: none;
        stroke: #000;
        stroke-miterlimit: 10;
        stroke-width: 2px;
      }
    </style>
  </defs>
  <g id="c" data-name="Layer 1">
    <g>
      <path class="d" d="M289.9,332.85c31.72-13.61,104.22-15.55,125.76,13.26,19.91,26.65,2.3,93.58-38.16,97.96-28.3-8.69-24.21-47.04-89.64-61.78-27.8-12.11-13.3-40.94,2.04-49.44Z"/>
      <path class="d" d="M194.61,454.26c18.52-16.52,30.69-22.64,52.97-22.78,43.29,1.22,6.07,52.8-14.3,71.24-9.98,10.21-48.81,45.61-55.35,12.45-4.76-19.01.49-48.12,16.68-60.91Z"/>
      <path class="d" d="M58.17,434.01c27.94.52,36.81,10.79,58.81,30.05,68.32,58.92-59.84,64.8-85.94,63.69C.02,524.54-1.03,515.73,2.29,494.12c3.48-14.14,22.91-60.38,55.89-60.11Z"/>
      <path class="d" d="M171.56,2.46c-21.69,6.05-26.89,6.23-44.08,39.17-13.56,26.33-26.42,55.37-18.37,82.66.82,2.5,6.97,14.46,20.8,19.72,3.02,1.15,24.34,2.92,30.57-2.43,24.81-22.88-8.16-42.68-15.17-60.51-2.69-10.91,2.35-21.45,3.51-23.88,4.06-17.5,42.18-8.43,57.73-12.44,27.71-9.87,17.19-36.62-6.25-42.29-10.59-2.41-21.79-1.41-28.73,0Z"/>
      <path class="d" d="M451.12,39.35c-40.13-7.61-74.74,30.64-43.9,66.83,5.31,15.15,69.5,30.96,80.53,29.48,18.09-.88,42.04,1.48,39.55-21.37-1.45-7.72-7.05-9.14-14.5-17.62-8.24-9.37-6.23-14.79-12.19-26.01-10.05-18.93-32.15-28.99-49.49-31.32Z"/>
    </g>
  </g>
</svg>