<svg xmlns="http://www.w3.org/2000/svg" width="2646" height="1280" viewBox="0 0 2646 1280">
<rect width="100%" height="100%" fill="#f6f6f6"/>
<path d="M 1551.1 457.45 C 1547.47 459.83 1543.97 462.47 1541.34 464.53 C 1531.06 466.56 1523.27 463.9 1517.42 456.29 L 1499.48 456.34 C 1494.86 463.48 1490.93 471.36 1484.05 476.88 C 1485.89 483.37 1480.13 488.83 1477.26 493.46 C 1474.6 490.29 1470.24 490.64 1467.22 489.3 C 1469.91 484.63 1463.63 480.58 1463.73 476.56 C 1464.16 474.12 1467.61 473.68 1467.54 471.05 C 1466.72 467.37 1466.45 463.81 1467.51 460.24 C 1470.64 457.49 1474.59 456.16 1478.34 454.22 C 1476.33 452.28 1475.26 450.23 1474.94 448.1 C 1477.36 440.85 1485.21 442.89 1489.34 439.13 C 1491.08 435.37 1489.82 431.19 1491.56 427.69 C 1493.19 427.74 1494.51 427.43 1495.58 428.24 C 1497.15 430.36 1495.47 433.05 1496.73 435.04 C 1499.36 436.22 1501.38 437.97 1503.89 438.9 C 1510.59 435.51 1511.88 426.13 1520.91 424.92 C 1516.56 419.49 1522.33 417.04 1523.32 413.73 C 1522.75 410.54 1519.29 409.05 1520.29 405.11 C 1524.05 405.35 1528.06 404.65 1531.33 405.46 C 1536.83 412.76 1537.81 420.74 1540.61 428.05 C 1543.7 436.16 1546.36 444.46 1549.52 452.58 C 1550.19 454.31 1550.87 455.8 1551.84 456.92 Z" fill="#f9414422" stroke="#f94144" stroke-width="1.5"/>
<text x="1508.85" y="448.89" fill="#111" font-size="16" font-family="Arial">D01</text>
<path d="M 1532.77 405.7 C 1538.66 404.87 1543.25 407.36 1546.59 413.16 C 1548.59 412.97 1550.16 412.09 1551.66 410.65 C 1552.91 409.39 1554.79 409.2 1557.3 409.38 C 1562.95 411.3 1563.15 416.61 1563.04 422.05 C 1569.25 420.84 1575.34 422.01 1580.59 418.19 C 1581.66 417.43 1585.23 416.92 1585.93 418.67 C 1587.57 422.85 1590.82 421.53 1593.65 421.71 C 1596.91 421.89 1600.48 420.76 1602.5 424.81 C 1603.32 426.43 1605.39 425.37 1606.83 425.42 C 1612.91 425.53 1618.93 425.39 1625.2 425.37 C 1629.92 428.36 1632.82 433.41 1636.65 437.59 C 1639.53 435.7 1641.41 433.64 1642.15 430.7 C 1649.17 428.74 1657.21 431.47 1662.77 424.2 C 1666.05 431.38 1674.57 428.92 1677.66 434.78 C 1685.81 432.07 1693.34 433.55 1701.24 434.09 C 1702.44 438.09 1704.02 440.64 1705.34 443.33 C 1709.55 451.7 1715.27 457.9 1723.99 459.71 C 1715.57 466.35 1704.91 468.26 1695.32 469.97 C 1686.92 471.43 1678.2 471.02 1669.61 471.29 C 1664.22 471.5 1659.94 467.07 1654.48 464.34 C 1654.47 461.34 1655.21 457.34 1650.06 455.73 C 1636.09 461.27 1621.34 457.69 1606.85 455.73 C 1599.07 454.69 1593.05 455.58 1587.55 460.53 L 1577.33 460.56 C 1570.85 454.33 1562.63 453.85 1556.94 459.05 C 1554.68 459 1553.19 458.32 1552.08 457.18 C 1550.87 455.8 1550.19 454.31 1549.52 452.58 C 1546.36 444.46 1543.7 436.16 1540.61 428.05 C 1537.81 420.74 1536.83 412.76 1531.58 405.79 Z" fill="#f3722c22" stroke="#f3722c" stroke-width="1.5"/>
<text x="1623.65" y="442.96" fill="#111" font-size="16" font-family="Arial">D02</text>
<path d="M 1701.24 434.09 C 1704.05 430.9 1709.01 431.07 1712.83 428.87 C 1716.08 426.99 1718.96 425.29 1720.39 421.35 C 1723.51 412.72 1723.88 412.72 1733.42 413.13 C 1734.48 413.13 1735.55 413.25 1736.55 413.12 C 1738.36 407.99 1734.03 409.57 1732.77 407.51 C 1733.01 403.82 1736.02 402.19 1738.14 399.75 C 1744.11 402.54 1747.86 398.41 1752.25 396.27 C 1751.99 394.21 1753.05 392.02 1751.41 390.34 C 1753.66 386.02 1756.66 382.76 1760.29 379.75 C 1763.94 384.43 1769.2 381.67 1774.22 382.9 C 1773.48 386.59 1775.56 389.64 1775.38 393.14 C 1774.07 395.65 1770.93 395.66 1768.93 397.6 C 1768.48 413.91 1762.99 427.11 1745.01 432.28 C 1743.78 439.34 1738.59 445.48 1737.86 453.42 C 1735.17 455.43 1732.66 458 1729.6 460.25 C 1727.7 460.26 1725.92 460.09 1724.25 459.76 C 1715.27 457.9 1709.55 451.7 1705.34 443.33 C 1704.02 440.64 1702.44 438.09 1701.56 435.22 Z" fill="#f8961e22" stroke="#f8961e" stroke-width="1.5"/>
<text x="1739.74" y="422.67" fill="#111" font-size="16" font-family="Arial">D03</text>
<path d="M 1514.86 570.83 C 1508.48 578.66 1509.45 588.34 1510.36 597.46 C 1511.07 604.95 1512.66 612.38 1512.68 619.94 L 1512.68 621.26 C 1508.94 621.36 1505.2 621.37 1501.46 621.41 C 1492.99 621.56 1484.58 621.09 1476.36 619.05 C 1475.42 618.8 1474.79 618.8 1473.48 618.62 C 1465.45 617.2 1459.04 613.72 1452.32 611.18 C 1448.14 609.57 1443.47 608.57 1438.61 609.12 C 1441.07 603.9 1441.38 599.78 1437.85 595.29 C 1435.59 592.42 1434.7 588.49 1435.62 584.17 C 1437.05 577.61 1437.03 570.86 1437.01 564.17 C 1437 562.11 1436.5 559.8 1438.88 558.55 C 1443.45 556.1 1444 551.66 1445.24 547.28 C 1446.67 542.34 1448.41 536.34 1453.36 534.51 C 1456.18 533.5 1458.49 531.56 1461.25 530.74 C 1463.96 535.54 1464.27 535.79 1467.79 536.6 C 1468.97 533.53 1467.9 531.22 1465.76 529.04 C 1458.34 521.5 1458.25 513.07 1462.55 504.06 C 1463.3 502.43 1464.11 500.87 1463.67 498.68 C 1459.84 499.19 1458.33 496.38 1456.88 493.45 C 1458.38 490.57 1456.23 485.83 1460.37 484.76 C 1464.2 485.62 1460.94 489.32 1464.59 490.62 C 1465.44 490.03 1466.07 489.46 1466.53 488.88 C 1470.24 490.64 1474.6 490.29 1476.84 493.73 C 1475.46 497.9 1476.72 502.39 1478.62 506.32 C 1480 509.26 1481.08 512.13 1480.9 515.13 C 1480.18 526.06 1482.09 535.81 1492.26 542.4 C 1495.28 543.77 1498.66 543.63 1501.48 541.19 C 1507.63 544.04 1511.23 552.09 1509.87 559.78 C 1511.26 561.65 1513.27 563.21 1514.91 565.02 C 1514.03 566.71 1513.79 568.39 1514.92 570.08 Z" fill="#f9844a22" stroke="#f9844a" stroke-width="1.5"/>
<text x="1474.9" y="569.77" fill="#111" font-size="16" font-family="Arial">D04</text>
<path d="M 1598.45 568.53 C 1600.66 573.21 1603.18 577.64 1607.89 580.37 C 1605.43 583.09 1602.89 585.81 1601.02 588.89 C 1594.69 590.41 1589.98 588.55 1585.28 589.31 C 1580.6 597.2 1577.68 606.83 1565.95 606.05 L 1563.43 603.56 C 1560.16 598.5 1554.07 597.58 1549.73 594.16 C 1548.67 595.1 1548.23 596.1 1548.43 597.6 C 1549.06 600.35 1553.01 599.65 1554.02 602.39 C 1553.34 605.21 1547.69 605.47 1550.22 609.97 C 1553.98 609.7 1555.78 605.26 1560.11 605.5 C 1561.7 611.18 1566.47 615.17 1569.12 620.47 C 1568.48 621.51 1567.36 621.73 1566.12 622.04 C 1561.24 623.29 1556.43 623.56 1551.63 623.43 C 1547.67 623.32 1543.71 622.94 1539.72 622.62 C 1530.71 621.89 1521.71 621.51 1512.68 621.4 L 1512.68 619.94 C 1512.66 612.38 1511.07 604.95 1510.36 597.46 C 1509.45 588.34 1508.48 578.66 1514.86 570.83 C 1523.39 565.95 1531.01 573.42 1539.63 570.57 C 1542.38 566.75 1546.51 562.93 1550.01 558.54 C 1553.7 553.97 1554.87 547.91 1558.18 542.96 C 1563.18 535.58 1565.87 535.19 1571.41 541.74 C 1574.49 543.04 1577.74 542.03 1582.2 542.58 C 1583.24 544.2 1584.33 545.82 1585.45 547.46 C 1589.93 553.99 1594.87 560.8 1598.45 568.53 Z" fill="#f9c74f22" stroke="#f9c74f" stroke-width="1.5"/>
<text x="1554.36" y="584.22" fill="#111" font-size="16" font-family="Arial">D05</text>
<path d="M 1607.89 580.37 C 1603.18 577.64 1600.66 573.21 1598.45 568.53 C 1594.87 560.8 1589.93 553.99 1585.45 547.46 C 1589.47 541.5 1598.44 542.1 1599.17 532.66 C 1610.78 537.25 1622.8 529.97 1633.67 537.38 C 1635.8 535.56 1639.31 535.55 1640.12 533.11 C 1639.73 529.61 1636.98 530.31 1635.41 529.12 L 1633.52 527.25 C 1635.77 525.19 1638.53 526.18 1641.04 525.98 C 1643.17 525.85 1646 526.72 1647.19 525.22 C 1650.62 520.9 1655.26 521.32 1659.59 520.87 C 1663.75 527.54 1675.04 527.08 1675.32 537.63 C 1672.69 540.7 1670.76 544.89 1668.83 549.02 C 1667.33 552.21 1665.7 552.34 1663 551.48 C 1658.54 550.05 1654.4 548.38 1654.51 542.88 C 1648.86 540.02 1643.17 546.22 1638.08 541.8 C 1636.01 544.37 1639.47 547.61 1636.66 549.61 C 1631.59 553.25 1629.22 558.7 1626.85 563.76 C 1624.59 564.58 1622.08 563.9 1620.27 566.03 C 1619.34 568.28 1619.47 570.97 1618.54 573.41 L 1616.03 575.91 C 1613.29 577.3 1610.73 578.9 1608.43 580.71 Z" fill="#90be6d22" stroke="#90be6d" stroke-width="1.5"/>
<text x="1627.59" y="546.7" fill="#111" font-size="16" font-family="Arial">D06</text>
<path d="M 1448.32 703.29 C 1445.24 701.86 1443.29 698.49 1439.02 698.25 C 1434.9 706.57 1427.62 702.03 1421.85 702.11 C 1418.65 702.43 1419.48 706.68 1416.03 706.57 C 1416.51 700.57 1410.23 695.52 1414.35 689.33 C 1410.26 686.4 1410.69 683.03 1411.12 679.09 C 1411.73 672.84 1415.97 665.52 1408.5 661.98 C 1406.61 659.17 1408.18 657.67 1408.11 655.98 C 1408.1 654.29 1407.85 652.54 1408.66 650.98 C 1416.8 648.89 1422.19 645.19 1427.31 637.74 C 1423.77 628.38 1430.71 620.18 1431.19 611.24 C 1433.64 610.08 1436.09 609.41 1438.5 609.13 C 1443.47 608.57 1448.14 609.57 1452.32 611.18 C 1459.04 613.72 1465.45 617.2 1472.72 618.43 C 1470.81 629.5 1469.52 640.06 1470.81 650.8 C 1471 652.11 1471.01 654.05 1470.63 654.43 C 1466 659.25 1465.83 666.25 1462.02 671.45 L 1459.53 675.2 C 1456.98 684.64 1453.12 693.65 1449.63 702.72 Z" fill="#43aa8b22" stroke="#43aa8b" stroke-width="1.5"/>
<text x="1440.62" y="657.06" fill="#111" font-size="16" font-family="Arial">D07</text>
<path d="M 1551.63 623.43 C 1551.17 628.85 1553.04 635.55 1552.5 641.2 C 1551.34 652.7 1546.35 660.52 1535.38 664.37 C 1533.97 662.43 1531.53 661.83 1525.96 660.71 C 1525.01 655.27 1531.47 656.57 1533.03 653.31 C 1531.02 652.01 1528.45 652.2 1527.19 650.08 L 1524.67 647.59 C 1520.09 647.16 1516.97 650.23 1514.15 652.74 C 1506.89 659.2 1498.06 662.78 1489.23 667.18 C 1493.19 671.92 1493.59 678.48 1498.87 682.84 C 1502.08 685.45 1501.71 690.77 1502.29 695.08 C 1503.38 703.82 1504.22 712.56 1505.57 721.81 C 1502.13 725.19 1502.83 729.44 1504.59 733.31 C 1503.6 736 1500.9 736.25 1499.78 738.44 C 1501.74 744.06 1500.94 750.25 1501.27 756.68 C 1500.09 757.08 1499.22 758.45 1498.32 759.75 C 1492.71 766.77 1486.32 768.79 1479.23 768.68 C 1471.08 768.58 1463.04 765.98 1454.65 769.06 C 1454.58 762.38 1455.91 757.8 1457.42 752.75 C 1451.52 748.39 1453.69 741.76 1453.55 735.76 C 1453.42 732.58 1453.6 729.58 1450.95 727.02 C 1443.03 719.42 1446.46 710.98 1449.63 702.72 C 1453.12 693.65 1456.98 684.64 1459.53 675.2 L 1462.02 671.45 C 1465.83 666.25 1466 659.25 1470.63 654.43 C 1471.01 654.05 1471 652.11 1470.81 650.8 C 1469.52 640.06 1470.81 629.5 1472.72 618.43 C 1474.79 618.8 1475.42 618.8 1476.36 619.05 C 1484.58 621.09 1492.99 621.56 1501.46 621.41 C 1505.2 621.37 1508.94 621.36 1512.68 621.4 C 1521.71 621.51 1530.71 621.89 1539.72 622.62 C 1543.71 622.94 1547.67 623.32 1551.63 623.43 Z" fill="#4d908e22" stroke="#4d908e" stroke-width="1.5"/>
<text x="1489.35" y="687.86" fill="#111" font-size="16" font-family="Arial">D08</text>
<path d="M 1552.5 641.2 C 1553.04 635.55 1551.17 628.85 1551.63 623.43 C 1556.43 623.56 1561.24 623.29 1566.12 622.04 C 1567.36 621.73 1568.48 621.51 1569.51 621.4 C 1575.34 620.77 1578.16 623.45 1582.45 630.56 C 1583.39 632.18 1584.15 633.86 1584.97 635.55 C 1587.3 640.54 1588.26 646.35 1593.1 649.89 C 1595.3 651.45 1591.6 652.84 1593.74 654.89 C 1598.58 656.44 1602.17 661.74 1608.38 663.04 C 1610.09 669.22 1605.66 678.35 1616.33 680.07 C 1616.91 686.44 1609.19 685.71 1607.83 691.97 C 1612.97 690.39 1614.98 692.94 1615.88 697.88 C 1612.93 698.14 1610.17 697.33 1608.29 699.21 C 1607.92 701.09 1608.87 703.08 1607.81 704.77 C 1606.22 705.31 1604.85 705.98 1603.4 706.5 C 1596.21 708.43 1589.13 708.45 1585.25 713.15 C 1578.75 721.04 1570.87 726.93 1562.54 732.46 C 1560.45 733.2 1558.95 732.48 1557.53 733.72 C 1554.89 731.54 1551.43 730.05 1549.54 727.37 C 1547.4 724.31 1544.46 724.7 1541.51 723.96 C 1538.54 716.28 1533.25 710.73 1526.53 707.5 C 1525.46 704.88 1525.33 702.76 1524.7 700.51 C 1528.2 696.5 1531.89 692.49 1532.94 686.93 C 1536.5 681.48 1535.1 676.93 1535.34 672.55 C 1535.57 668.59 1535.67 666.22 1535.02 664.65 C 1546.35 660.52 1551.34 652.7 1552.5 641.2 Z" fill="#57759022" stroke="#577590" stroke-width="1.5"/>
<text x="1569.36" y="680.21" fill="#111" font-size="16" font-family="Arial">D09</text>
<path d="M 1624.69 754.02 C 1627.45 753.89 1629.52 755.07 1632.22 756.5 C 1633.35 757.06 1635.62 759.18 1632.11 760.25 C 1628.6 760.2 1625.71 758.64 1623.44 755.9 C 1622.87 754.47 1618.67 755.35 1616.8 756.86 C 1610.79 761.75 1603.45 762.08 1596.88 765.79 C 1596.89 769.04 1593.82 771.67 1593.33 775.11 C 1594.59 778.73 1598.67 779.9 1599.87 783.34 C 1591.61 788.86 1591.11 788.86 1584.89 784.5 C 1583.7 786.19 1581.88 785.14 1580.19 785.39 C 1569.59 786.98 1561.23 778.51 1562.52 767.95 C 1563.31 761.7 1565.11 755.57 1564.28 749.2 C 1565.84 745.94 1569.79 744.68 1570.84 741.18 C 1570.03 736.87 1563.93 736.52 1562 733.71 C 1570.87 726.93 1578.75 721.04 1585.25 713.15 C 1589.13 708.45 1596.21 708.43 1602.04 706.91 C 1606.93 709.55 1609.35 717.01 1615.8 715.94 C 1618.19 718.43 1619.58 721.67 1622.28 723.92 C 1624.61 725.53 1627.68 723.9 1630.13 725.08 C 1630.82 727.26 1629.64 728.52 1628.01 729.96 C 1630.9 732.64 1631.79 735.95 1630.11 739.45 C 1632.75 743.38 1634.88 742.44 1636.56 737.75 C 1639.08 740.36 1640.9 743.17 1640.41 747.11 C 1640.11 749.73 1641.49 752.1 1642.25 754.6 C 1639.44 757.48 1638.56 756.55 1635.48 755.87 C 1635.17 755.81 1633.72 755 1633.47 754.81 C 1631.52 753.26 1630.39 752.51 1628.13 751.27 C 1625 751.02 1624.49 751.34 1624.69 754.02 Z" fill="#277da122" stroke="#277da1" stroke-width="1.5"/>
<text x="1595.46" y="746.53" fill="#111" font-size="16" font-family="Arial">D10</text>
<path d="M 1498.33 759.75 C 1500.67 765.37 1507.02 771.98 1501.9 778.74 C 1500.71 780.3 1501.28 782.43 1501.23 784.3 C 1500.1 786.3 1497.34 786.06 1496.72 788.06 C 1493.86 797.19 1491.63 806.26 1497.61 814.93 L 1500.13 817.42 C 1501.77 821.91 1504.48 825.9 1505.75 830.4 C 1501.68 833.22 1500.29 828.67 1498.21 827.36 C 1489.68 826.45 1483.56 836.02 1475.33 830.74 C 1471.07 833.43 1470.27 839.25 1464.44 840.08 C 1460.86 838.09 1457.03 834.79 1451.33 836.86 C 1451.57 832.05 1446.55 832.07 1444.97 828.88 L 1442.45 825.14 C 1440.37 822.09 1437.35 819.1 1438.79 815.22 C 1440.78 809.96 1441.26 804.22 1444.83 799.52 C 1448.51 794.57 1450.44 788.94 1449.86 782.7 C 1449.34 777.45 1450.33 772.76 1454.21 768.94 C 1463.04 765.98 1471.08 768.58 1479.23 768.68 C 1486.32 768.79 1492.71 766.77 1497.58 760.76 Z" fill="#ff006e22" stroke="#ff006e" stroke-width="1.5"/>
<text x="1471.91" y="801.45" fill="#111" font-size="16" font-family="Arial">D11</text>
<path d="M 1608.26 487.28 C 1600.8 487.98 1594.09 490.44 1588.53 496.52 C 1587.47 499.08 1588.61 501.64 1590.12 504.2 C 1603.17 508.1 1612.07 505.07 1619.88 493.74 C 1616.67 490.88 1614.28 486.76 1608.95 487.27 Z" fill="#8338ec22" stroke="#8338ec" stroke-width="1.5"/>
<text x="1603.58" y="497.15" fill="#111" font-size="16" font-family="Arial">D12</text>
<path d="M 1546.59 413.16 C 1543.25 407.36 1538.66 404.87 1532.77 405.7 C 1528.06 404.65 1524.05 405.35 1520.29 405.11 C 1519.29 409.05 1522.75 410.54 1523.32 413.73 C 1522.33 417.04 1516.56 419.49 1520.91 424.92 C 1511.88 426.13 1510.59 435.51 1503.89 438.9 C 1501.38 437.97 1499.36 436.22 1496.73 435.04 C 1495.47 433.05 1497.15 430.36 1495.58 428.24 C 1494.51 427.43 1493.19 427.74 1491.56 427.69 C 1489.82 431.19 1491.08 435.37 1489.34 439.13 C 1485.21 442.89 1477.36 440.85 1474.94 448.1 C 1475.26 450.23 1476.33 452.28 1478.34 454.22 C 1474.59 456.16 1470.64 457.49 1467.51 460.24 C 1466.45 463.81 1466.72 467.37 1467.54 471.05 C 1467.61 473.68 1464.16 474.12 1463.73 476.56 C 1463.63 480.58 1469.91 484.63 1466.53 488.88 C 1466.07 489.46 1465.44 490.03 1464.59 490.62 C 1460.94 489.32 1464.2 485.62 1460.37 484.76 C 1456.23 485.83 1458.38 490.57 1456.88 493.45 C 1458.33 496.38 1459.84 499.19 1463.67 498.68 C 1464.11 500.87 1463.3 502.43 1462.55 504.06 C 1458.25 513.07 1458.34 521.5 1465.76 529.04 C 1467.9 531.22 1468.97 533.53 1467.79 536.6 C 1464.27 535.79 1463.96 535.54 1461.25 530.74 C 1458.49 531.56 1456.18 533.5 1453.36 534.51 C 1448.41 536.34 1446.67 542.34 1445.24 547.28 C 1444 551.66 1443.45 556.1 1438.88 558.55 C 1436.5 559.8 1437 562.11 1437.01 564.17 C 1437.03 570.86 1437.05 577.61 1435.62 584.17 C 1434.7 588.49 1435.59 592.42 1437.85 595.29 C 1441.38 599.78 1441.07 603.9 1438.95 608.53 C 1436.09 609.41 1433.64 610.08 1431.19 611.24 C 1430.71 620.18 1423.77 628.38 1427.31 637.74 C 1422.19 645.19 1416.8 648.89 1408.66 650.98 C 1407.85 652.54 1408.1 654.29 1408.11 655.98 C 1408.18 657.67 1406.61 659.17 1408.5 661.98 C 1415.97 665.52 1411.73 672.84 1411.12 679.09 C 1410.69 683.03 1410.26 686.4 1414.35 689.33 C 1410.23 695.52 1416.51 700.57 1416.03 706.57 C 1419.48 706.68 1418.65 702.43 1421.85 702.11 C 1427.62 702.03 1434.9 706.57 1439.02 698.25 C 1443.29 698.49 1445.24 701.86 1448.32 703.29 C 1446.46 710.98 1443.03 719.42 1450.95 727.02 C 1453.6 729.58 1453.42 732.58 1453.55 735.76 C 1453.69 741.76 1451.52 748.39 1457.42 752.75 C 1455.91 757.8 1454.58 762.38 1454.64 768.56 C 1450.33 772.76 1449.34 777.45 1449.86 782.7 C 1450.44 788.94 1448.51 794.57 1444.83 799.52 C 1441.26 804.22 1440.78 809.96 1438.79 815.22 C 1437.35 819.1 1440.37 822.09 1442.45 825.14 L 1444.97 828.88 C 1446.55 832.07 1451.57 832.05 1451.33 836.86 C 1457.03 834.79 1460.86 838.09 1464.44 840.08 C 1470.27 839.25 1471.07 833.43 1475.33 830.74 C 1483.56 836.02 1489.68 826.45 1498.21 827.36 C 1500.29 828.67 1501.68 833.22 1505.75 830.4 C 1504.48 825.9 1501.77 821.91 1500.13 817.42 L 1497.61 814.93 C 1491.63 806.26 1493.86 797.19 1496.72 788.06 C 1497.34 786.06 1500.1 786.3 1501.23 784.3 C 1501.28 782.43 1500.71 780.3 1501.9 778.74 C 1507.02 771.98 1500.67 765.37 1498.33 759.75 C 1499.22 758.45 1500.09 757.08 1501.27 756.68 C 1500.94 750.25 1501.74 744.06 1499.78 738.44 C 1500.9 736.25 1503.6 736 1504.59 733.31 C 1502.83 729.44 1502.13 725.19 1505.57 721.81 C 1504.22 712.56 1503.38 703.82 1502.29 695.08 C 1501.71 690.77 1502.08 685.45 1498.87 682.84 C 1493.59 678.48 1493.19 671.92 1489.23 667.18 C 1498.06 662.78 1506.89 659.2 1514.15 652.74 C 1516.97 650.23 1520.09 647.16 1524.67 647.59 L 1527.19 650.08 C 1528.45 652.2 1531.02 652.01 1533.03 653.31 C 1531.47 656.57 1525.01 655.27 1525.96 660.71 C 1531.53 661.83 1533.97 662.43 1534.94 664.49 C 1535.67 666.22 1535.57 668.59 1535.34 672.55 C 1535.1 676.93 1536.5 681.48 1534.19 685.68 C 1531.89 692.49 1528.2 696.5 1524.7 700.51 C 1525.33 702.76 1525.46 704.88 1526.53 707.5 C 1533.25 710.73 1538.54 716.28 1541.51 723.96 C 1544.46 724.7 1547.4 724.31 1549.54 727.37 C 1551.43 730.05 1554.89 731.54 1557.53 733.72 C 1558.95 732.48 1560.45 733.2 1561.88 733.69 C 1563.93 736.52 1570.03 736.87 1570.84 741.18 C 1569.79 744.68 1565.84 745.94 1564.28 749.2 C 1565.11 755.57 1563.31 761.7 1562.52 767.95 C 1561.23 778.51 1569.59 786.98 1580.19 785.39 C 1581.88 785.14 1583.7 786.19 1584.89 784.5 C 1591.11 788.86 1591.61 788.86 1599.87 783.34 C 1598.67 779.9 1594.59 778.73 1593.33 775.11 C 1593.82 771.67 1596.89 769.04 1596.88 765.79 C 1603.45 762.08 1610.79 761.75 1616.8 756.86 C 1618.67 755.35 1622.87 754.47 1623.44 755.9 C 1625.71 758.64 1628.6 760.2 1632.11 760.25 C 1635.62 759.18 1633.35 757.06 1632.22 756.5 C 1629.52 755.07 1627.45 753.89 1624.69 754.02 C 1624.49 751.34 1625 751.02 1628.13 751.27 C 1630.39 752.51 1631.52 753.26 1633.47 754.81 C 1633.72 755 1635.17 755.81 1635.48 755.87 C 1638.56 756.55 1639.44 757.48 1642.25 754.6 C 1641.49 752.1 1640.11 749.73 1640.41 747.11 C 1640.9 743.17 1639.08 740.36 1636.56 737.75 C 1634.88 742.44 1632.75 743.38 1630.11 739.45 C 1631.79 735.95 1630.9 732.64 1628.01 729.96 C 1629.64 728.52 1630.82 727.26 1630.13 725.08 C 1627.68 723.9 1624.61 725.53 1622.28 723.92 C 1619.58 721.67 1618.19 718.43 1615.8 715.94 C 1609.35 717.01 1606.93 709.55 1603.4 706.5 C 1604.85 705.98 1606.22 705.31 1607.81 704.77 C 1608.87 703.08 1607.92 701.09 1608.29 699.21 C 1610.17 697.33 1612.93 698.14 1615.88 697.88 C 1614.98 692.94 1612.97 690.39 1607.83 691.97 C 1609.19 685.71 1616.91 686.44 1616.33 680.07 C 1605.66 678.35 1610.09 669.22 1608.38 663.04 C 1602.17 661.74 1598.58 656.44 1593.74 654.89 C 1591.6 652.84 1595.3 651.45 1593.1 649.89 C 1588.26 646.35 1587.3 640.54 1584.97 635.55 C 1584.15 633.86 1583.39 632.18 1582.45 630.56 C 1578.16 623.45 1575.34 620.77 1569.51 621.4 C 1566.47 615.17 1561.7 611.18 1560.11 605.5 C 1555.78 605.26 1553.98 609.7 1550.22 609.97 C 1547.69 605.47 1553.34 605.21 1554.02 602.39 C 1553.01 599.65 1549.06 600.35 1548.43 597.6 C 1548.23 596.1 1548.67 595.1 1549.73 594.16 C 1554.07 597.58 1560.16 598.5 1563.43 603.56 L 1565.95 606.05 C 1577.68 606.83 1580.6 597.2 1585.28 589.31 C 1589.98 588.55 1594.69 590.41 1600.21 589.46 C 1602.89 585.81 1605.43 583.09 1608.42 580.72 C 1610.73 578.9 1613.29 577.3 1616.03 575.91 L 1618.54 573.41 C 1619.47 570.97 1619.34 568.28 1620.27 566.03 C 1622.08 563.9 1624.59 564.58 1626.85 563.76 C 1629.22 558.7 1631.59 553.25 1636.66 549.61 C 1639.47 547.61 1636.01 544.37 1638.08 541.8 C 1643.17 546.22 1648.86 540.02 1654.51 542.88 C 1654.4 548.38 1658.54 550.05 1663 551.48 C 1665.7 552.34 1667.33 552.21 1668.83 549.02 C 1670.76 544.89 1672.69 540.7 1675.32 537.63 C 1675.04 527.08 1663.75 527.54 1659.59 520.87 C 1655.26 521.32 1650.62 520.9 1647.19 525.22 C 1646 526.72 1643.17 525.85 1641.04 525.98 C 1638.53 526.18 1635.77 525.19 1633.52 527.25 L 1635.41 529.12 C 1636.98 530.31 1639.73 529.61 1640.12 533.11 C 1639.31 535.55 1635.8 535.56 1633.67 537.38 C 1622.8 529.97 1610.78 537.25 1599.17 532.66 C 1598.44 542.1 1589.47 541.5 1585.91 546.76 C 1584.33 545.82 1583.24 544.2 1582.2 542.58 C 1577.74 542.03 1574.49 543.04 1571.41 541.74 C 1565.87 535.19 1563.18 535.58 1558.18 542.96 C 1554.87 547.91 1553.7 553.97 1550.01 558.54 C 1546.51 562.93 1542.38 566.75 1539.63 570.57 C 1531.01 573.42 1523.39 565.95 1515.29 570.57 C 1513.79 568.39 1514.03 566.71 1514.91 565.02 C 1513.27 563.21 1511.26 561.65 1509.87 559.78 C 1511.23 552.09 1507.63 544.04 1501.48 541.19 C 1498.66 543.63 1495.28 543.77 1492.26 542.4 C 1482.09 535.81 1480.18 526.06 1480.9 515.13 C 1481.08 512.13 1480 509.26 1478.62 506.32 C 1476.72 502.39 1475.46 497.9 1476.95 493.9 C 1480.13 488.83 1485.89 483.37 1484.05 476.88 C 1490.93 471.36 1494.86 463.48 1499.48 456.34 L 1517.42 456.29 C 1523.27 463.9 1531.06 466.56 1541.34 464.53 C 1543.97 462.47 1547.47 459.83 1551.1 457.45 C 1553.19 458.32 1554.68 459 1556.94 459.05 C 1562.63 453.85 1570.85 454.33 1577.33 460.56 L 1587.55 460.53 C 1593.05 455.58 1599.07 454.69 1606.85 455.73 C 1621.34 457.69 1636.09 461.27 1650.06 455.73 C 1655.21 457.34 1654.47 461.34 1654.48 464.34 C 1659.94 467.07 1664.22 471.5 1669.61 471.29 C 1678.2 471.02 1686.92 471.43 1695.32 469.97 C 1704.91 468.26 1715.57 466.35 1723.7 460.21 C 1725.92 460.09 1727.7 460.26 1729.6 460.25 C 1732.66 458 1735.17 455.43 1737.86 453.42 C 1738.59 445.48 1743.78 439.34 1745.01 432.28 C 1762.99 427.11 1768.48 413.91 1768.93 397.6 C 1770.93 395.66 1774.07 395.65 1775.38 393.14 C 1775.56 389.64 1773.48 386.59 1774.22 382.9 C 1769.2 381.67 1763.94 384.43 1760.29 379.75 C 1756.66 382.76 1753.66 386.02 1751.41 390.34 C 1753.05 392.02 1751.99 394.21 1752.25 396.27 C 1747.86 398.41 1744.11 402.54 1738.14 399.75 C 1736.02 402.19 1733.01 403.82 1732.77 407.51 C 1734.03 409.57 1738.36 407.99 1737.8 411.99 C 1735.55 413.25 1734.48 413.13 1733.42 413.13 C 1723.88 412.72 1723.51 412.72 1720.39 421.35 C 1718.96 425.29 1716.08 426.99 1712.83 428.87 C 1709.01 431.07 1704.05 430.9 1701.24 434.09 C 1693.34 433.55 1685.81 432.07 1677.66 434.78 C 1674.57 428.92 1666.05 431.38 1662.77 424.2 C 1657.21 431.47 1649.17 428.74 1642.15 430.7 C 1641.41 433.64 1639.53 435.7 1636.65 437.59 C 1632.82 433.41 1629.92 428.36 1625.2 425.37 C 1618.93 425.39 1612.91 425.53 1606.83 425.42 C 1605.39 425.37 1603.32 426.43 1602.5 424.81 C 1600.48 420.76 1596.91 421.89 1593.65 421.71 C 1590.82 421.53 1587.57 422.85 1585.93 418.67 C 1585.23 416.92 1581.66 417.43 1580.59 418.19 C 1575.34 422.01 1569.25 420.84 1563.04 422.05 C 1563.15 416.61 1562.95 411.3 1557.3 409.38 C 1554.79 409.2 1552.91 409.39 1551.66 410.65 C 1550.16 412.09 1548.59 412.97 1546.59 413.16 Z" fill="#3a86ff22" stroke="#3a86ff" stroke-width="1.5"/>
<text x="1541.67" y="608.51" fill="#111" font-size="16" font-family="Arial">D13</text>
</svg>