<?xml version="1.0" encoding="UTF-8"?>
<svg id="b" xmlns="http://www.w3.org/2000/svg" version="1.1" viewBox="0 0 589.9 737.5">
  <!-- Generator: Adobe Illustrator 30.1.0, SVG Export Plug-In . SVG Version: 2.1.1 Build 136)  -->
  <defs>
    <style>
      .st0 {
        fill: none;
        stroke: #000;
        stroke-linecap: round;
        stroke-linejoin: round;
        stroke-width: 2px;
      }
    </style>
  </defs>
  <g id="c">
    <g>
      <path class="st0" d="M200.2,41.6h1.7c9.4-1.3,16.7,2.7,22,12,3.2-.3,5.7-1.7,8.1-4,2-2,5-2.3,9-2,9,3.1,9.3,11.6,9.1,20.3,9.9-1.9,19.6,0,28-6.1,1.7-1.2,7.4-2,8.5.8,2.6,6.7,7.8,4.6,12.3,4.9,5.2.3,10.9-1.5,14.1,5,1.3,2.6,4.6.9,6.9,1,9.7.2,19.3,0,29.3,0,7.5,4.8,12.1,12.9,18.2,19.6,4.6-3,7.6-6.3,8.8-11,11.2-3.1,24,1.3,32.9-10.3,5.2,11.5,18.8,7.6,23.7,17,13-4.3,25-1.9,37.6-1,4.5-5.1,12.4-4.8,18.5-8.3,5.2-3,9.8-5.7,12.1-12,5-13.8,5.6-13.8,20.8-13.1,1.7,0,3.4.2,5,0,.8-.1,1.3-1.2,2-1.8.9-6.4-6-3.9-8-7.2.4-5.9,5.2-8.5,8.6-12.4,9.5,4.5,15.5-2.1,22.5-5.5-.4-3.3,1.3-6.8-1.3-9.5,3.6-6.9,8.4-12.1,14.2-16.9,5.8,7.5,14.2,3.1,22.2,5.1-1.2,5.9,2.1,10.8,1.8,16.4-2.1,4-7.1,4-10.3,7.1-.8,26.1-9.6,47.2-38.3,55.4-2,11.3-10.3,21.1-11.5,33.8-4.3,3.2-8.3,7.3-13.2,10.9-19.1,0-30.6-11.1-38.6-27.2-2.1-4.3-4.6-8.4-6-13l-.4-1.3"/>
      <path class="st0" d="M232.3,123.5l-1.4,1c-5.8,3.8-11.4,8-15.6,11.3-16.4,3.2-28.8-1.1-38.1-13.3h-28.6c-7.4,11.4-13.7,24-24.7,32.8,2.9,10.4-6.3,19.1-10.9,26.5"/>
      <path class="st0" d="M321.8,322.1l-.9-.6c-7.5-4.4-11.5-11.5-15-19-7.1-15.5-17.6-28.7-25.8-41.6-7.1-.9-12.3.7-17.2-1.4-8.8-10.5-13.1-9.9-21.1,1.9-5.3,7.9-7.2,17.6-13.1,24.9-5.6,7-12.2,13.1-16.6,19.2-14,4.6-26.3-7.9-39.5.3-10.2,12.5-8.7,28-7.3,42.6,1.1,12,3.6,23.9,3.6,36v2.1"/>
      <path class="st0" d="M507,128.9l-.9.8c-13,9.8-30,12.8-45.3,15.5-13.4,2.3-27.3,1.6-41,2-8.6.3-15.4-6.8-24.1-11.2,0-4.8,1.2-11.2-7-13.8-22.3,8.8-45.8,3-68.9-.2-12.4-1.7-22-.3-30.8,7.6h-16.3c-10.3-10-23.4-10.8-32.5-2.5-7.2-.2-9.5-4.4-11.8-10.4-5-13-9.2-26.3-14.1-39.3-4.5-11.9-6-24.9-14.7-36.2-5.2-1.3-11.6-.2-17.6-.6-1.6,6.3,3.9,8.7,4.8,13.8-1.6,5.3-10.8,9.2-3.9,17.9-14.4,1.9-16.5,16.9-27.2,22.3-4-1.5-7.2-4.3-11.4-6.2-2-3.2.7-7.5-1.8-10.9-1.7-1.3-3.8-.8-6.4-.9-2.8,5.6-.8,12.3-3.6,18.3-6.6,6-19.1,2.7-23,14.3.5,3.4,2.2,6.7,5.4,9.8-6,3.1-12.3,5.2-17.3,9.6-1.7,5.7-1.3,11.4,0,17.3.1,4.2-5.4,4.9-6.1,8.8-.2,7.3,12.7,14.7,1.3,22.5-5.8-2.1-.6-8-6.7-9.4-6.6,1.7-3.2,9.3-5.6,13.9,2.3,4.7,4.7,9.2,10.8,8.4.7,3.5-.6,6-1.8,8.6-6.9,14.4-6.8,27.9,5,40,3.4,3.5,5.1,7.2,3.2,12.1-5.6-1.3-6.1-1.7-10.4-9.4-4.4,1.3-8.1,4.4-12.6,6-7.9,2.9-10.7,12.5-13,20.4-2,7-2.9,14.1-10.2,18-3.8,2-3,5.7-3,9,0,10.7,0,21.5-2.3,32-1.5,6.9-.1,13.2,3.5,17.8,5.6,7.2,5.1,13.8,1.7,21.2l-.7,1.2"/>
      <path class="st0" d="M96,174.5l1,.6c4.9,2.2,12,1.6,15.5,7.4-2.4,6.4-.4,13.6,2.6,19.9,2.2,4.7,3.9,9.3,3.6,14.1-1.2,17.5,1.8,33.1,18,43.7,4.8,2.2,10.2,2,14.7-1.9,9.8,4.6,15.5,17.5,13.3,29.8,2.2,3,5.4,5.5,8,8.4-1.4,2.7-1.8,5.4,0,8.1l.6.8"/>
      <path class="st0" d="M346.9,599.5c4.4-.2,7.7,1.7,12,4"/>
      <path class="st0" d="M246.9,566.5c2.9,4.7,12.9,5.2,14.2,12.2-1.7,5.6-8,7.6-10.5,12.8,1.3,10.2-1.6,20-2.9,30-2.1,16.9,11.2,30.5,28.1,28,2.7-.4,5.6,1.3,7.5-1.4,9.9,7,10.7,7,23.9-1.8-1.9-5.5-8.4-7.4-10.4-13.2.8-5.5,5.7-9.7,5.7-14.9,10.5-5.9,22.2-6.4,31.8-14.2,3-2.4,9.7-3.8,10.6-1.5"/>
      <path class="st0" d="M231,390c-.8,8.7,2.2,19.5,1.3,28.6-1.9,18.4-9.9,30.9-27.4,37l-.7.2"/>
      <path class="st0" d="M145.4,608.1c3.7,9,13.8,19.6,5.6,30.4-1.9,2.5-1,5.9-1.1,8.9-1.8,3.2-6.2,2.8-7.2,6-4.6,14.6-8.2,29.1,1.3,43l4,4c2.6,7.2,6.9,13.6,8.9,20.8-6.5,4.5-8.7-2.8-12-4.9-13.6-1.5-23.4,13.8-36.5,5.3-6.8,4.3-8.1,13.6-17.4,14.9-5.7-3.2-11.8-8.5-20.9-5.2.4-7.7-7.6-7.7-10.1-12.8l-4-6c-3.3-4.9-8.1-9.7-5.8-15.9,3.2-8.4,4-17.6,9.7-25.1,5.9-7.9,9-16.9,8.1-26.9-.8-8.4.8-15.9,7-22l.8-.6"/>
      <path class="st0" d="M313,523.2c5.7,4.8,9.5,17,19.9,15.3,3.8,4,6,9.2,10.3,12.8,3.7,2.6,8.6,0,12.5,1.9,1.1,3.5-.8,5.5-3.4,7.8,4.6,4.3,6,9.6,3.3,15.2,4.2,6.3,7.6,4.8,10.3-2.7"/>
      <path class="st0" d="M67.1,518.2l-1.2-.7c-4.9-2.3-8-7.7-14.8-8.1-6.6,13.3-18.2,6-27.4,6.1-5.1.5-3.8,7.3-9.3,7.1.8-9.6-9.2-17.7-2.6-27.6-6.5-4.7-5.8-10.1-5.1-16.4,1-10,7.8-21.7-4.1-27.4-3-4.5-.5-6.9-.6-9.6,0-2.7-.4-5.5.9-8,13-3.3,21.6-9.2,29.8-21.1-5.6-15,5.5-28.1,6.3-42.4,11.9-5.6,23.7-3.9,33.7,0,10.7,4.1,20.9,9.7,32.5,11.7-3.1,17.7-5.2,34.6-3.2,51.8.3,2.1.3,5.2-.3,5.8-7.4,7.7-7.7,18.9-13.8,27.2l-4,6c-4.1,15.1-10.3,29.5-15.9,44-5.1,13.2-10.6,26.7,2,38.9,4.2,4.1,3.9,8.9,4.1,14,.2,9.6-3.3,20.2,6.1,27.2-2.5,8.3-4.7,15.8-4.5,26.1,13.4-4.9,26.2-.7,39.2-.5,11.3.2,21.5-3,29.3-12.6,1.9-2.4,3.5-5.7,5.9-6.5-.5-10.3.8-20.2-2.3-29.2,1.8-3.5,6.1-3.9,7.7-8.2-2.8-6.2-3.9-13,1.6-18.4-2.1-14.8-3.4-28.8-5.1-42.8-.9-6.9-.3-15.4-5.4-19.6-8.4-7-9-17.5-15.3-25.1,14.1-7,28.2-12.7,39.8-23,4.5-4,9.5-8.9,16.8-8.2l4,4c2,3.4,6.1,3.1,9.3,5.2-2.5,5.2-12.8,3.1-11.3,11.8,15.6,3.2,15.8,3.8,14.9,19-.4,7,1.8,14.3-1.9,21l-2,2c-1.7,8.9-7.6,15.3-13.2,21.7,1,3.6,1.2,7,2.9,11.2,10.7,5.2,19.1,14.1,23.8,26.4,4.7,1.2,9.4.6,12.8,5.5,3,4.3,8.5,6.7,12.7,10.2,2.3-2,4.7-.8,7,0,1.9.1.4-1.6,1-2,13.3-8.8,25.9-18.2,36.3-30.8,6.2-7.5,17.5-7.5,26.8-9.9,3.2-.8,5.9-2.3,9.2-3.4,1.7-2.7.2-5.9.8-8.9,3-3,7.4-1.7,12.1-2.1-1.4-7.9-4.6-12-12.8-9.5,2.2-10,14.5-8.8,13.6-19-17-2.8-9.9-17.4-12.6-27.3-9.9-2.1-15.6-10.6-23.3-13.1-3.4-3.3,2.5-5.5-1-8-7.7-5.7-9.2-15-12.9-23-1.3-2.7-2.5-5.4-4-8-8-13.4-12.8-17-26-13.7-14.2,3.6-28,2-42.1.8-20.3-1.7-40.6-2.3-61-2.1-13.5.2-26.9-.6-40-3.9-1.5-.4-3.6-1-5,.9l-1,1.1"/>
      <path class="st0" d="M259.5,386.8l-.6-1.3c-4.2-8.5-11.8-14.9-14.3-24-6.9-.4-9.8,6.7-15.8,7.1-4-7.2,5-7.6,6.1-12.1-1.6-4.4-7.9-3.3-8.9-7.7-.3-2.4.4-4,2.1-5.5,6.9,5.5,16.6,7,21.8,15.1l4,4c18.7,1.3,23.4-14.1,30.9-26.7,7.5-1.2,15,1.8,23.8.3s1-.4,1.3-.9c5.3-8.7,13.9-15.6,24-20.7l4-4c1.5-3.9,1.3-8.2,2.8-11.8,2.9-3.4,6.9-2.3,10.5-3.6,3.8-8.1,7.6-16.8,15.7-22.6,4.5-3.2-1-8.4,2.3-12.5,8.1,7.1,17.2-2.8,26.2,1.8-.2,8.8,6.4,11.5,13.5,13.8,4.3,1.4,6.9,1.2,9.3-3.9,3.1-6.6,6.2-13.3,10.4-18.2-.4-16.9-18.4-16.2-25-26.9-6.9.7-14.3,0-19.8,6.9-1.9,2.4-6.4,1-9.8,1.2-4,.3-8.4-1.3-12,2l3,3c2.5,1.9,6.9.8,7.5,6.4-1.3,3.9-6.9,3.9-10.3,6.8-17.3-11.9-36.5-.3-55-7.7-1.2,15.1-15.5,14.1-21.2,22.5l-.7,1.1"/>
      <path class="st0" d="M344.9,602.5c3.6,4.4,8.2,6.9,13.8,7,5.6-1.7,2-5.1.2-6"/>
      <path class="st0" d="M365.9,573.5c4,4.2,6.9,8.7,6.1,15-.5,4.2,1.7,8,2.9,12-4.5,4.6-5.9,3.1-10.8,2-.5-.1-2.8-1.4-3.2-1.7-3.1-2.5-4.9-3.7-8.5-5.7-5-.4-5.8.1-5.5,4.4"/>
      <path class="st0" d="M321.9,172.5c-11.9,1.1-22.6,5-31.5,14.7-1.7,4.1.1,8.2,2.5,12.3,20.8,6.3,35,1.5,47.5-16.6-5.1-4.6-8.9-11.2-17.4-10.4"/>
    </g>
  </g>
</svg>