<?xml version="1.0" encoding="UTF-8"?>
<svg id="b" data-name="Layer 2" xmlns="http://www.w3.org/2000/svg" viewBox="0 0 516.9 499.33">
  <defs>
    <style>
      .d {
        stroke-linecap: round;
        stroke-linejoin: round;
      }

      .d, .e {
        fill: none;
        stroke: #000;
        stroke-width: 2px;
      }

      .e {
        stroke-miterlimit: 10;
      }
    </style>
  </defs>
  <g id="c" data-name="Layer 1">
    <g>
      <g>
        <path class="d" d="M157.41,115.22c4.34-.3,8.69.47,13.04-.53,2.09-.48,4.69-.66,5.09,3.17,5.69-4.6,12.81-3.98,17.66-8.48.88,1.24,2.48,1.68,1.69,4.56-.35.9-3.96-.37-4.01,3.26,6.01,4.99,13.33-1.09,19.13-.87-.99-2.18-3.72-2.2-2.52-5.44,1.82-2.4,2.1-6.76,3.79-10.72-1.81-3.46-3.3-7.26-4.86-11.02-1.48-3.57-.78-6.62,3.1-7.99,3.13-1.1,5.04-3.21,4.83-6.26-.37-5.36,1.18-10.14,3.65-15.33-6.57-5.19-8.21-14.05-14.72-20.05,1.22-3.09,5.11-4.72,7.11-8.17-2.98-1.72-6.37-2.56-7.89-5.77-18.62,1.06-37.08,2.69-47.41-15.82h-6C134.07,1.42,118.64.26,101.98,1.34c-3.45,3.4-7.18,7.87-13.39,8.55-1.35.15-2.73,1.91-2.99,3.03-2.69,11.63-12.96,11.75-21.25,12.6-7.62.78-14.56,2.08-21.07,6.13-.16,3.55,4.42,4.09,4.53,8.63-.41.87-1.01,3.14-1.43,5.48-.94,5.19-2.69,9.4-8.6,11.34-5.14,1.69-7.87,6.4-9.99,11.97,6.04.96,12.53-1.76,16.08,3.86,4.52.84,4.83-5.02,7.46-4.22,4.25,0,4.47,3.57,6.17,4.36,3.18-.04,1.97-3.15,3.94-3.78,9.93,3.08,17.47,9.16,21.88,20.23-1.16,6.14,8.8,20.48,15.8,20.74,2.24,2.2,3.56,5.08,5.42,7.42q5.41.57,9.47-3.7,6.31,1.43,10.83,9.17c4.98-7.55,16.57-1.16,20.67-10.79,3.11,1.71,6.26,1.77,9.44,1.62l2.48,1.24Z"/>
        <path class="d" d="M246.09,200.81c11.75,1.9,23.45,4.5,35.35,4.79,6.21.15,11.56,1.2,17.51,3.5,11.59,4.48,23.79,5.84,35.9-.69,10.16-5.48,21.44-6.12,33.06-3.99,7.5-3.24,15.95-2.92,23.91-2.67,11.59.37,23.17-.41,34.74.31,5.04.31,9.87.44,15.03,2,6.32,1.91,13.78,1.01,19.73-3.84,5.01-4.09,11.44-3.7,17.33-5.03,11.47-2.58,23.1-4.08,34.74-5.54h2.02"/>
        <path class="d" d="M232.77,221.83c9.52,8.19-1.43,4.53-2.7,6.34-1.48,2.11,5.29,6.48,7.93,9.26,3.36,3.55,7.53.89,12.36,2.32,3.45,2.92,6.22,8.52,11.88,10.63,1.96.73,3.88,1.51,6.19,1.35,6.73-.46,13.36.05,19.87,2.31,3.71,1.29,7.68,1.82,11.76,1.38,9.45-1.02,17.47.66,19.37,12.36,5,0,9.55,0,14.11,0l1.24,2.48c7.65,1.91,15.1,4.2,19.81,10.52,7.48.23,14.3-1.5,21.02-.23.45,1.68-.57,3.3.69,4.62,1.72-.3,3.45.5,5.05-1.21,4.1-4.36,8.08-8.81,10.43-14.34,2.99-7.02,5.33-14.26,12.37-18.71,2.09-1.32,4.52-3.1,5.32-6.55-2.51-5.97-1.06-13.52-4.8-19.25-4.45-6.83-7.33-14.03-9.12-21.82"/>
        <path class="d" d="M25.31,26.54c-4-2.37-5.54,1.65-8.31,3.81-2.55-4.73-6.6-4.96-10.67-4.33C2.54,28.01.01,30.64,1.37,35.58c5.2,1.3,10.45-2.2,15.65-.85,3.27-2.23,5.66-5.03,8.29-7.58"/>
        <path class="d" d="M244.85,155.53c-1.01,1.05-1.27,2.87-4.25,3.27-.73-8.39-5.4-16.06-2.92-24.89-3.09-1.12-5.44-.48-7.99-.78-1.77,1.34-3.42,2.99-4.8,4.81.77,2.46,3.4,4.33,1.35,7.05-5.08-3.58-9.68-11.37-16.23-28.65"/>
        <path class="d" d="M195.24,120.18c-.26,2.15,1.77,3.54,1.93,5.51-2.2,2.24-3.75-.69-5.67-.62-3.43,3.45-1.55,7.43-1.22,11.29-2.05,2.59-7.21-.55-7.51,4.42-5.29-.56-3.38-5.41-5.79-7.42-3.99-1.52-8.52-1.77-13.03-3.61-.72-.92-.57-2.7-2.05-4.59-2.39-.05-5.31.01-8.21-.02-6.66,6.41-17.3,9.2-19.29,21.37-.75.99-3.27,1.24-4.64,2.82-2.16.06-3.64-.71-5.26-1.78-5.6-3.7-11.6-6.2-18.55-6.38-4.72-.12-8.98.74-12.32,3.92-1.93,1.84-3.74,2.76-7.12,2.16,1.04,4.76-.35,8.71-5,12.67,7.48-.11,13.48.14,19.96-.56,1.78.82,2.91,3.21,4.49,4.24h6.84c7.75,4.93,7.2,13.85,11.74,20.87,5.14,3.13,6.29-5.86,11.18-4.74.9,1.24,1.05,3.4-.04,3.55-3.73.52-1.89,4.16-1.69,4.36,2.03,1.95,1.08,4.29,1.03,6.35-.19,8.41-.66,8.85-9.07,9.99-.43,2.64.51,5.31,1.81,7.3,2.86,4.38,4.92,9.13,7.32,13.72,3.97,7.6,5.84,7.98,12.47,2.43,3.47.35,6.11,3.54,10.72,3.07,3.97-5.65,5.08-13.87,11.66-17.98-.34-2.56-3.02-2.83-3.22-4.88l1.24-1.24c4.41-2.74,6.37-7.66,9.87-10.52.28-3.2-3.27-3.67-3.04-6.56,1.56-1.96,3.97-1.45,6.43-1.55,1.53-2.72,2.99-5.61,4.21-8.66,1.91.1,2.75,1.62,3.82,3.44-2.07,3.05-4.76,5.85-7.02,9.26,1.7,4.24,2.81,8.98,4.88,13.31,3.62,1.86,7.36,3.34,10.59,5.66,4.61,3.3,8.78,4.05,12.12-1.77q2.35,3.79-1.13,7.53c2.02,3.8,6.1,5.98,8,9.72,0,0,10.67-1.25,14.52-3.73,6.86-4.42,7.1-6.74,9.27-11.18,5.21-10.63,9.24-21.82,15.69-32.21-4.02-3.24-6.73-6.98-8.02-11.25-.64-2.12-.68-4.83.8-7.52,1.17-2.13.73-5.78-3.48-6.07"/>
        <path class="d" d="M255.4,182.2c3.31,1.19,6.1-1.62,9.3-1.24q7.82,5.25,19.01,6.3c5.69-11.23,11.47-23.25,25.1-28.45-.16-5.73,1.85-11.37,4.68-17.14,1.79-.82,4.13-.23,5.77-.37,3.79-1.84,5.76-4.83,8.2-6.93-1.02-9.13,3.07-15.67,7.41-21.16,6.67-1.45,11.49.34,15.48,3.29,1.78.01,2.94-.94,3.55-1.42,5.72-4.49,11.56-7.98,19.35-7.47,2.76.18,5.62-1.65,6.81-4.79-1.3-3.88-6.87-2.19-8.03-6.07,2.02-7.79,5.21-14.12,14.85-13.19,1.3.13,2.56-.46,3.73-1.19,9.18-5.77,18.31-11.64,28.69-15.58,5.31,2.9,6.02,9.82,11.03,13.11,1.46.07,2.89-1.35,4.29-.6,10.11,5.41,22.81,4.3,31.77,12.86,1.93,1.84,4.91,2.95,7.28,4.53,11.01,7.29,24.28,10.34,34.72,18.61,1.26,1,2.37,1.28,3.77,1.17,3.83-.28,3.82,2.3,3.72,4.96v356.82l-1.24-.22c-4.82-1.05-8.33,2.26-12.13,3.88-5.13-.82-7.86-5.17-11.53-7.04-7.58.87-7.8,8.5-12.2,11.76-1.76-.85-3.41-.85-5.07-.05.21,3.7-1.51,6.78-2.2,11.76-5.98-7.26-14.97-5.61-20.77-11.01-2.41,2.53-5.08,4.82-7.19,7.87-3.65-1.37-5.76-5.5-10.16-4.18-10.32,3.11-21.38-1.02-32.04,4.06,2.45-9.27,8.94-16.38,6.97-26.07,6.28-5.43,9-13.35,12.97-20.32,2.72-4.79,5.34-8.31,10.14-11.16,6.78-4.04,14.04-6.69,21.15-9.83,4.28-1.89,7.57-.59,11.24,1.27,2.85,1.45,3.91,5.71,8.03,5.02-.43-7.33-8.09-9-11.35-14.14,3.44-2.24,6.33,1.92,9.48.48,4.59-2.1,8.69-1.59,12.42,1.87,1.8,1.67,2.47.2,3.38-1.7-4.31-2.42-7.96-5.51-13.26-6.61-4.25-.89-9.71-1.18-11.84-6.56l-3.1-1.86c-.62,0-1.41.24-1.83-.05-.94-.67-1.69-1.6-2.65-2.56,3.44-2.44,6.75-.55,9.7.13,2.79-.71,4.24-2.68,5.93-4.36,2.27,2.89,4.82,2.25,7.76.82-.82-5.02-7.55-3.12-7.38-7.56-4.55-.27-8.58.99-10.9-2.7-.1-4.28,4.65-.36,4.79-3.82.86-3.38-2.21-4.9-4.25-6.47-10.29-7.92-13.49-13.95-12.93-29.26-4.02-3.32-7.14-7.98-10.53-12.03-.37-4.24,5.35-7.11,1.93-11.66-3.42.41-4.09,5.6-8.54,4.18-4.2-2.66-3.28-7.91-4.45-12.14-2.38-8.67-7.74-14.31-15.64-17.95-9.35-4.31-17.58-10.03-23.57-18.61"/>
        <path class="d" d="M27.79,33.98c-9.92,2.31-12.7,3.65-15.71,7.72,1.69,2.94,3.48,5.83,4.35,9.54.86,3.64,4.47,7.14,8.12,9.47,1.36-.41,2.79.61,3.86-.69,2.02-2.47,3.92-4.54,7.31-5.91,3.78-1.53,3.44-6.81,2.39-10.15-1.44-4.58-2.65-10.43-9.7-9.99"/>
      </g>
      <path class="e" d="M163.36,230.47c-.23.52.16,1.3,1.06,2.92.81,1.46,7.31,7.43,8.15,7.62,2.21.5,7.08.18,9.39,0,.26-.02,1.14-1.79,0-1.86-8.67-.57-17.7-10.71-18.6-8.68Z"/>
    </g>
  </g>
</svg>