<?xml version="1.0" encoding="UTF-8"?>
<svg id="b" xmlns="http://www.w3.org/2000/svg" version="1.1" viewBox="0 0 516.9 499.3">
  <!-- Generator: Adobe Illustrator 30.1.0, SVG Export Plug-In . SVG Version: 2.1.1 Build 136)  -->
  <defs>
    <style>
      .st0 {
        stroke-linecap: round;
        stroke-linejoin: round;
      }

      .st0, .st1 {
        fill: none;
        stroke: #000;
        stroke-width: 2px;
      }

      .st1 {
        stroke-miterlimit: 10;
      }
    </style>
  </defs>
  <g id="c">
    <g>
      <g>
        <path class="st0" d="M157.4,115.2c4.3-.3,8.7.5,13-.5,2.1-.5,4.7-.7,5.1,3.2,5.7-4.6,12.8-4,17.7-8.5.9,1.2,2.5,1.7,1.7,4.6-.4.9-4-.4-4,3.3,6,5,13.3-1.1,19.1-.9-1-2.2-3.7-2.2-2.5-5.4,1.8-2.4,2.1-6.8,3.8-10.7-1.8-3.5-3.3-7.3-4.9-11-1.5-3.6-.8-6.6,3.1-8,3.1-1.1,5-3.2,4.8-6.3-.4-5.4,1.2-10.1,3.6-15.3-6.6-5.2-8.2-14-14.7-20,1.2-3.1,5.1-4.7,7.1-8.2-3-1.7-6.4-2.6-7.9-5.8-18.6,1.1-37.1,2.7-47.4-15.8h-6C134.1,1.4,118.6.3,102,1.3c-3.4,3.4-7.2,7.9-13.4,8.6-1.3.1-2.7,1.9-3,3-2.7,11.6-13,11.8-21.2,12.6-7.6.8-14.6,2.1-21.1,6.1-.2,3.5,4.4,4.1,4.5,8.6-.4.9-1,3.1-1.4,5.5-.9,5.2-2.7,9.4-8.6,11.3-5.1,1.7-7.9,6.4-10,12,6,1,12.5-1.8,16.1,3.9,4.5.8,4.8-5,7.5-4.2,4.2,0,4.5,3.6,6.2,4.4,3.2,0,2-3.2,3.9-3.8,9.9,3.1,17.5,9.2,21.9,20.2-1.2,6.1,8.8,20.5,15.8,20.7,2.2,2.2,3.6,5.1,5.4,7.4,3.6.4,6.8-.9,9.5-3.7,4.2,1,7.8,4,10.8,9.2,5-7.6,16.6-1.2,20.7-10.8,3.1,1.7,6.3,1.8,9.4,1.6l2.5,1.2h0Z"/>
        <path class="st0" d="M245.4,200.5l.7.3c11.8,1.9,23.5,4.5,35.4,4.8,6.2.1,11.6,1.2,17.5,3.5,11.6,4.5,23.8,5.8,35.9-.7,10.2-5.5,21.4-6.1,33.1-4,7.5-3.2,16-2.9,23.9-2.7,11.6.4,23.2-.4,34.7.3,5,.3,9.9.4,15,2,6.3,1.9,13.8,1,19.7-3.8,5-4.1,11.4-3.7,17.3-5,11.5-2.6,23.1-4.1,34.7-5.5h2.5"/>
        <path class="st0" d="M232.8,221.8c9.5,8.2-1.4,4.5-2.7,6.3-1.5,2.1,5.3,6.5,7.9,9.3,3.4,3.6,7.5.9,12.4,2.3,3.4,2.9,6.2,8.5,11.9,10.6,2,.7,3.9,1.5,6.2,1.4,6.7-.5,13.4,0,19.9,2.3,3.7,1.3,7.7,1.8,11.8,1.4,9.5-1,17.5.7,19.4,12.4h14.1l1.2,2.5c7.6,1.9,15.1,4.2,19.8,10.5,7.5.2,14.3-1.5,21-.2.5,1.7-.6,3.3.7,4.6,1.7-.3,3.5.5,5-1.2,4.1-4.4,8.1-8.8,10.4-14.3,3-7,5.3-14.3,12.4-18.7,2.1-1.3,4.5-3.1,5.3-6.6-2.5-6-1.1-13.5-4.8-19.2-4.5-6.8-7.3-14-9.1-21.8l-.4-1.5"/>
        <path class="st0" d="M25.3,26.5c-4-2.4-5.5,1.6-8.3,3.8-2.6-4.7-6.6-5-10.7-4.3C2.5,28,0,30.6,1.4,35.6c5.2,1.3,10.4-2.2,15.7-.8,3.3-2.2,5.7-5,8.3-7.6"/>
        <path class="st0" d="M244.9,155.5c-1,1.1-1.3,2.9-4.2,3.3-.7-8.4-5.4-16.1-2.9-24.9-3.1-1.1-5.4-.5-8-.8-1.8,1.3-3.4,3-4.8,4.8.8,2.5,3.4,4.3,1.4,7.1-5.1-3.6-9.7-11.4-16.2-28.7"/>
        <path class="st0" d="M195.3,119.1v1.1c-.3,2.2,1.7,3.5,1.9,5.5-2.2,2.2-3.8-.7-5.7-.6-3.4,3.5-1.6,7.4-1.2,11.3-2.1,2.6-7.2-.6-7.5,4.4-5.3-.6-3.4-5.4-5.8-7.4-4-1.5-8.5-1.8-13-3.6-.7-.9-.6-2.7-2.1-4.6-2.4,0-5.3,0-8.2,0-6.7,6.4-17.3,9.2-19.3,21.4-.8,1-3.3,1.2-4.6,2.8-2.2,0-3.6-.7-5.3-1.8-5.6-3.7-11.6-6.2-18.5-6.4-4.7-.1-9,.7-12.3,3.9-1.9,1.8-3.7,2.8-7.1,2.2,1,4.8-.3,8.7-5,12.7,7.5-.1,13.5.1,20-.6,1.8.8,2.9,3.2,4.5,4.2h6.8c7.8,4.9,7.2,13.9,11.7,20.9,5.1,3.1,6.3-5.9,11.2-4.7.9,1.2,1.1,3.4,0,3.6-3.7.5-1.9,4.2-1.7,4.4,2,1.9,1.1,4.3,1,6.4-.2,8.4-.7,8.9-9.1,10-.4,2.6.5,5.3,1.8,7.3,2.9,4.4,4.9,9.1,7.3,13.7,4,7.6,5.8,8,12.5,2.4,3.5.4,6.1,3.5,10.7,3.1,4-5.6,5.1-13.9,11.7-18-.3-2.6-3-2.8-3.2-4.9l1.2-1.2c4.4-2.7,6.4-7.7,9.9-10.5.3-3.2-3.3-3.7-3-6.6,1.6-2,4-1.4,6.4-1.6,1.5-2.7,3-5.6,4.2-8.7,1.9.1,2.8,1.6,3.8,3.4-2.1,3.1-4.8,5.9-7,9.3,1.7,4.2,2.8,9,4.9,13.3,3.6,1.9,7.4,3.3,10.6,5.7,4.6,3.3,8.8,4.1,12.1-1.8,1.6,2.5,1.2,5-1.1,7.5,2,3.8,6.1,6,8,9.7,0,0,10.7-1.2,14.5-3.7,6.9-4.4,7.1-6.7,9.3-11.2,5.2-10.6,9.2-21.8,15.7-32.2-4-3.2-6.7-7-8-11.2-.6-2.1-.7-4.8.8-7.5,1.2-2.1.7-5.8-3.5-6.1"/>
        <path class="st0" d="M254.5,181.9l.9.3c3.3,1.2,6.1-1.6,9.3-1.2,5.2,3.5,11.6,5.6,19,6.3,5.7-11.2,11.5-23.2,25.1-28.4-.2-5.7,1.9-11.4,4.7-17.1,1.8-.8,4.1-.2,5.8-.4,3.8-1.8,5.8-4.8,8.2-6.9-1-9.1,3.1-15.7,7.4-21.2,6.7-1.4,11.5.3,15.5,3.3,1.8,0,2.9-.9,3.5-1.4,5.7-4.5,11.6-8,19.4-7.5,2.8.2,5.6-1.7,6.8-4.8-1.3-3.9-6.9-2.2-8-6.1,2-7.8,5.2-14.1,14.9-13.2,1.3.1,2.6-.5,3.7-1.2,9.2-5.8,18.3-11.6,28.7-15.6,5.3,2.9,6,9.8,11,13.1,1.5,0,2.9-1.3,4.3-.6,10.1,5.4,22.8,4.3,31.8,12.9,1.9,1.8,4.9,2.9,7.3,4.5,11,7.3,24.3,10.3,34.7,18.6,1.3,1,2.4,1.3,3.8,1.2,3.8-.3,3.8,2.3,3.7,5v356.8l-1.2-.2c-4.8-1-8.3,2.3-12.1,3.9-5.1-.8-7.9-5.2-11.5-7-7.6.9-7.8,8.5-12.2,11.8-1.8-.9-3.4-.9-5.1,0,.2,3.7-1.5,6.8-2.2,11.8-6-7.3-15-5.6-20.8-11-2.4,2.5-5.1,4.8-7.2,7.9-3.6-1.4-5.8-5.5-10.2-4.2-10.3,3.1-21.4-1-32,4.1,2.5-9.3,8.9-16.4,7-26.1,6.3-5.4,9-13.4,13-20.3,2.7-4.8,5.3-8.3,10.1-11.2,6.8-4,14-6.7,21.1-9.8,4.3-1.9,7.6-.6,11.2,1.3,2.9,1.5,3.9,5.7,8,5-.4-7.3-8.1-9-11.4-14.1,3.4-2.2,6.3,1.9,9.5.5,4.6-2.1,8.7-1.6,12.4,1.9,1.8,1.7,2.5.2,3.4-1.7-4.3-2.4-8-5.5-13.3-6.6-4.2-.9-9.7-1.2-11.8-6.6l-3.1-1.9c-.6,0-1.4.2-1.8,0-.9-.7-1.7-1.6-2.6-2.6,3.4-2.4,6.8-.5,9.7.1,2.8-.7,4.2-2.7,5.9-4.4,2.3,2.9,4.8,2.2,7.8.8-.8-5-7.5-3.1-7.4-7.6-4.5-.3-8.6,1-10.9-2.7-.1-4.3,4.6-.4,4.8-3.8.9-3.4-2.2-4.9-4.2-6.5-10.3-7.9-13.5-14-12.9-29.3-4-3.3-7.1-8-10.5-12-.4-4.2,5.4-7.1,1.9-11.7-3.4.4-4.1,5.6-8.5,4.2-4.2-2.7-3.3-7.9-4.5-12.1-2.4-8.7-7.7-14.3-15.6-18-9.4-4.3-17.6-10-23.6-18.6l-.7-.7"/>
        <path class="st0" d="M27.8,34c-9.9,2.3-12.7,3.7-15.7,7.7,1.7,2.9,3.5,5.8,4.3,9.5.9,3.6,4.5,7.1,8.1,9.5,1.4-.4,2.8.6,3.9-.7,2-2.5,3.9-4.5,7.3-5.9,3.8-1.5,3.4-6.8,2.4-10.1-1.4-4.6-2.7-10.4-9.7-10"/>
      </g>
      <path class="st1" d="M163.4,230.5c-.2.5.2,1.3,1.1,2.9.8,1.5,7.3,7.4,8.1,7.6,2.2.5,7.1.2,9.4,0,.3,0,1.1-1.8,0-1.9-8.7-.6-17.7-10.7-18.6-8.7h0Z"/>
    </g>
  </g>
</svg>