<?xml version="1.0" encoding="UTF-8"?>
<svg id="b" data-name="Layer 2" xmlns="http://www.w3.org/2000/svg" viewBox="0 0 589.89 737.54">
  <defs>
    <style>
      .d {
        fill: none;
        stroke: #000;
        stroke-linecap: round;
        stroke-linejoin: round;
        stroke-width: 2px;
      }
    </style>
  </defs>
  <g id="c" data-name="Layer 1">
    <g>
      <path class="d" d="M201.89,41.5q14.08-1.91,22.03,12.05c3.19-.27,5.69-1.68,8.05-3.97,2.04-1.98,5.03-2.3,8.98-2,8.97,3.08,9.34,11.56,9.09,20.26,9.95-1.9,19.64-.08,28.03-6.08,1.71-1.22,7.41-2.03,8.54.85,2.62,6.72,7.75,4.62,12.28,4.86,5.21.28,10.85-1.48,14.13,4.97,1.29,2.55,4.56.95,6.87.99,9.66.17,19.33.07,29.28.07,7.55,4.84,12.1,12.95,18.23,19.64,4.61-2.97,7.59-6.32,8.8-11,11.24-3.07,23.98,1.33,32.92-10.26,5.21,11.46,18.84,7.62,23.73,16.97,13.04-4.31,25.04-1.91,37.58-.96,4.52-5.07,12.38-4.78,18.52-8.29,5.22-2.99,9.82-5.74,12.1-12.04,4.96-13.78,5.6-13.83,20.85-13.07,1.66.08,3.37.22,4.98-.08.76-.14,1.35-1.24,1.95-1.84.94-6.44-6.01-3.89-8.02-7.22.38-5.89,5.21-8.51,8.61-12.37,9.45,4.5,15.52-2.13,22.48-5.54-.36-3.27,1.31-6.8-1.3-9.53,3.59-6.95,8.4-12.15,14.25-16.91,5.78,7.52,14.22,3.14,22.24,5.11-1.18,5.91,2.08,10.83,1.81,16.39-2.13,4.05-7.12,4.01-10.35,7.15-.8,26.14-9.58,47.16-38.31,55.39-2.02,11.26-10.28,21.09-11.47,33.76-4.32,3.22-8.33,7.27-13.2,10.93-19.09.06-30.63-11.08-38.64-27.24-2.12-4.27-4.64-8.37-6.03-12.99"/>
      <path class="d" d="M230.89,124.5c-5.82,3.79-11.36,7.96-15.65,11.26-16.37,3.16-28.84-1.13-38.14-13.26h-28.56c-7.45,11.4-13.72,23.96-24.69,32.83,2.95,10.38-6.31,19.05-10.88,26.46"/>
      <path class="d" d="M320.89,321.5c-7.52-4.35-11.52-11.46-15.01-19-7.14-15.46-17.57-28.73-25.84-41.63-7.14-.91-12.27.68-17.16-1.37-8.76-10.54-13.11-9.95-21.08,1.94-5.29,7.9-7.22,17.6-13.1,24.91-5.59,6.96-12.22,13.12-16.63,19.22-13.96,4.61-26.31-7.93-39.47.26-10.21,12.54-8.69,28.03-7.31,42.62,1.13,11.99,3.64,23.88,3.58,36.04"/>
      <path class="d" d="M506.12,129.73c-13.03,9.81-30.04,12.83-45.29,15.46-13.4,2.31-27.3,1.56-40.96,1.98-8.63.26-15.42-6.79-24.06-11.21.08-4.8,1.18-11.18-6.97-13.79-22.3,8.84-45.83,2.97-68.88-.24-12.43-1.73-22.01-.34-30.75,7.57h-16.33c-10.34-10.01-23.42-10.81-32.46-2.5-7.22-.15-9.51-4.41-11.81-10.4-5-13-9.21-26.32-14.11-39.34-4.48-11.9-6.03-24.94-14.74-36.23-5.22-1.27-11.55-.19-17.58-.62-1.55,6.3,3.93,8.71,4.84,13.81-1.58,5.34-10.76,9.25-3.93,17.94-14.42,1.86-16.54,16.93-27.18,22.34-3.97-1.53-7.21-4.31-11.36-6.16-2.02-3.22.7-7.5-1.79-10.94-1.71-1.3-3.84-.85-6.43-.93-2.84,5.56-.81,12.31-3.57,18.31-6.56,6-19.09,2.67-22.97,14.29.5,3.38,2.17,6.71,5.43,9.75-5.98,3.06-12.34,5.21-17.35,9.61-1.69,5.73-1.33,11.39.08,17.27.11,4.24-5.37,4.92-6.08,8.78-.23,7.34,12.65,14.67,1.32,22.48-5.76-2.09-.61-7.97-6.71-9.38-6.61,1.74-3.23,9.26-5.6,13.91,2.26,4.7,4.72,9.18,10.81,8.42.72,3.54-.57,6.02-1.79,8.59-6.87,14.37-6.79,27.95,5,39.96,3.45,3.51,5.06,7.25,3.22,12.08-5.57-1.27-6.07-1.72-10.43-9.37-4.4,1.34-8.13,4.39-12.57,6-7.95,2.88-10.73,12.47-13,20.39-2.02,7.05-2.87,14.15-10.24,17.95-3.84,1.98-3.02,5.68-2.99,8.98.1,10.72.02,21.53-2.26,31.95-1.51,6.91-.11,13.16,3.52,17.84,5.59,7.23,5.11,13.82,1.73,21.21"/>
      <path class="d" d="M97.03,175.1c4.9,2.25,11.99,1.56,15.5,7.35-2.45,6.38-.36,13.57,2.64,19.92,2.21,4.68,3.91,9.31,3.58,14.12-1.2,17.48,1.85,33.06,18.01,43.68,4.79,2.22,10.18,2.05,14.72-1.86,9.77,4.63,15.51,17.45,13.31,29.77,2.16,2.97,5.39,5.46,8.02,8.37-1.38,2.72-1.79,5.39.08,8.06"/>
      <path class="d" d="M346.89,599.5c4.44-.16,7.72,1.66,12,4"/>
      <path class="d" d="M246.92,566.52c2.9,4.66,12.86,5.18,14.25,12.2-1.72,5.57-8.04,7.61-10.48,12.76,1.27,10.23-1.65,20.05-2.91,30.01-2.14,16.92,11.24,30.54,28.1,28.01,2.66-.4,5.58,1.3,7.45-1.38,9.94,7.01,10.68,6.95,23.86-1.82-1.85-5.5-8.38-7.38-10.44-13.15.78-5.48,5.67-9.73,5.71-14.91,10.51-5.93,22.21-6.44,31.84-14.21,2.95-2.38,9.73-3.81,10.58-1.52"/>
      <path class="d" d="M231.04,389.96c-.83,8.71,2.25,19.5,1.29,28.59-1.93,18.43-9.87,30.88-27.45,36.95"/>
      <path class="d" d="M145.35,608.13c3.7,8.99,13.77,19.58,5.61,30.43-1.87,2.49-1.02,5.91-1.08,8.94-1.76,3.21-6.24,2.79-7.25,5.97-4.65,14.58-8.19,29.11,1.26,43.03l4,4c2.57,7.19,6.87,13.63,8.93,20.79-6.54,4.45-8.72-2.8-11.96-4.88-13.58-1.54-23.36,13.76-36.53,5.27-6.78,4.35-8.08,13.63-17.4,14.86-5.71-3.2-11.76-8.53-20.93-5.25.36-7.67-7.63-7.7-10.12-12.79l-4-6c-3.27-4.86-8.14-9.74-5.8-15.92,3.18-8.38,4.05-17.6,9.71-25.14,5.92-7.87,9.03-16.89,8.06-26.94-.81-8.38.77-15.92,7.02-22"/>
      <path class="d" d="M313.04,523.19c5.7,4.75,9.49,16.99,19.91,15.26,3.76,4,5.97,9.2,10.27,12.8,3.73,2.6,8.57,0,12.54,1.91,1.13,3.53-.84,5.45-3.43,7.78,4.62,4.32,6,9.58,3.28,15.22,4.24,6.28,7.65,4.8,10.28-2.66"/>
      <path class="d" d="M65.89,517.5c-4.89-2.27-7.99-7.69-14.8-8.15-6.56,13.3-18.16,5.96-27.44,6.08-5.1.49-3.84,7.31-9.28,7.12.76-9.6-9.23-17.7-2.64-27.63-6.48-4.67-5.75-10.11-5.1-16.44,1.02-9.98,7.78-21.69-4.11-27.38-3.05-4.48-.54-6.86-.6-9.59-.06-2.7-.42-5.47.93-7.99,13-3.26,21.56-9.17,29.78-21.08-5.56-14.95,5.48-28.1,6.33-42.37,11.93-5.56,23.68-3.89,33.72-.02,10.7,4.12,20.9,9.7,32.51,11.7-3.09,17.66-5.23,34.62-3.16,51.75.26,2.13.29,5.19-.33,5.84-7.42,7.7-7.71,18.92-13.81,27.18l-4,6c-4.09,15.12-10.31,29.46-15.95,44.02-5.1,13.18-10.6,26.67,1.99,38.93,4.19,4.08,3.93,8.87,4.07,14.05.25,9.63-3.26,20.2,6.11,27.22-2.46,8.29-4.69,15.8-4.47,26.07,13.4-4.87,26.25-.74,39.24-.48,11.28.23,21.54-2.97,29.28-12.58,1.92-2.38,3.54-5.74,5.86-6.53-.5-10.32.8-20.23-2.32-29.25,1.81-3.48,6.06-3.9,7.67-8.22-2.84-6.19-3.87-13.03,1.62-18.4-2.12-14.79-3.36-28.84-5.08-42.83-.85-6.9-.27-15.41-5.35-19.62-8.41-6.97-9.01-17.45-15.26-25.1,14.13-6.98,28.17-12.67,39.77-23.05,4.46-4,9.54-8.93,16.8-8.22l4,4c2.02,3.43,6.15,3.07,9.29,5.19-2.48,5.16-12.76,3.1-11.3,11.8,15.65,3.2,15.76,3.84,14.95,19-.37,7.01,1.79,14.3-1.95,21l-2,2c-1.72,8.88-7.62,15.28-13.19,21.71,1.03,3.59,1.23,7.01,2.93,11.18,10.68,5.25,19.14,14.13,23.79,26.44,4.73,1.15,9.39.58,12.76,5.46,2.96,4.28,8.54,6.66,12.71,10.19,2.33-2.05,4.67-.83,7.03.03,1.92.12.42-1.61.99-1.99,13.28-8.85,25.88-18.19,36.31-30.76,6.21-7.49,17.53-7.49,26.76-9.93,3.2-.85,5.92-2.31,9.19-3.43,1.74-2.72.2-5.93.79-8.93,3.04-3.01,7.35-1.66,12.06-2.15-1.37-7.93-4.58-12.05-12.83-9.5,2.19-9.96,14.51-8.81,13.6-18.98-16.99-2.75-9.93-17.38-12.6-27.27-9.87-2.06-15.61-10.6-23.3-13.07-3.4-3.33,2.45-5.5-.98-8.04-7.71-5.7-9.19-15.04-12.94-23.01-1.28-2.71-2.5-5.39-4.04-7.99-7.95-13.42-12.81-17.01-25.98-13.69-14.21,3.58-27.98,2.05-42.08.83-20.27-1.74-40.63-2.32-60.99-2.08-13.51.16-26.87-.6-40.03-3.94-1.48-.38-3.61-.95-4.98.9"/>
      <path class="d" d="M258.89,385.5c-4.24-8.47-11.79-14.88-14.31-23.96-6.93-.35-9.75,6.66-15.76,7.1-4.04-7.19,5.03-7.65,6.05-12.06-1.56-4.35-7.89-3.26-8.91-7.72-.34-2.4.42-4.02,2.08-5.49,6.93,5.5,16.61,7.05,21.84,15.14l4,4c18.7,1.31,23.4-14.08,30.91-26.71,7.75-1.26,15.42,2,24.61.15,5.2-9.07,14.06-16.16,24.48-21.43l4-4c1.49-3.88,1.26-8.18,2.77-11.8,2.91-3.38,6.88-2.27,10.53-3.62,3.83-8.1,7.59-16.82,15.69-22.61,4.51-3.23-1-8.37,2.3-12.53,8.15,7.09,17.21-2.81,26.2,1.8-.18,8.79,6.42,11.5,13.52,13.77,4.26,1.36,6.89,1.19,9.27-3.89,3.06-6.56,6.16-13.32,10.41-18.23-.35-16.92-18.43-16.21-25.05-26.94-6.89.66-14.31.04-19.83,6.88-1.9,2.35-6.43.99-9.78,1.21-4.05.26-8.44-1.31-12,1.96l3,3c2.52,1.91,6.89.84,7.55,6.37-1.29,3.94-6.94,3.88-10.32,6.79-17.29-11.95-36.52-.33-54.99-7.67-1.22,15.06-15.51,14.07-21.23,22.52"/>
      <path class="d" d="M344.89,602.5c3.65,4.38,8.22,6.88,13.77,7.05,5.65-1.65,2-5.08.23-6.05"/>
      <path class="d" d="M365.89,573.5c4.05,4.18,6.85,8.74,6.08,15.01-.51,4.21,1.73,8.04,2.92,12-4.48,4.6-5.85,3.08-10.83,1.99-.49-.11-2.79-1.43-3.18-1.74-3.12-2.49-4.89-3.67-8.48-5.7-5.05-.42-5.82.13-5.51,4.44"/>
      <path class="d" d="M321.89,172.5c-11.93,1.14-22.62,5-31.54,14.69-1.71,4.09.15,8.24,2.5,12.3,20.84,6.3,34.99,1.48,47.47-16.61-5.12-4.56-8.85-11.22-17.43-10.38"/>
    </g>
  </g>
</svg>