<svg xmlns="http://www.w3.org/2000/svg" width="2646" height="1280" viewBox="0 0 2646 1280">
<image href="indo_map_sm.jpg" x="0" y="0" width="2646" height="1280"/>
<path d="M 2222.33 622.96 C 2226.63 622.66 2231.04 623.46 2235.34 622.46 C 2237.44 621.96 2240.04 621.76 2240.44 625.67 C 2246.14 621.06 2253.25 621.66 2258.15 617.15 C 2259.05 618.35 2260.65 618.85 2259.85 621.76 C 2259.45 622.66 2255.85 621.36 2255.85 625.07 C 2257.25 626.24 2258.73 626.8 2260.24 626.98 C 2259.95 630.18 2261.95 631.49 2262.15 633.49 C 2259.95 635.7 2258.35 632.79 2256.45 632.89 C 2253.05 636.4 2254.85 640.31 2255.25 644.22 C 2253.15 646.83 2248.04 643.62 2247.74 648.64 C 2242.44 648.03 2244.34 643.22 2241.94 641.21 C 2237.94 639.71 2233.44 639.41 2228.93 637.6 C 2228.23 636.7 2228.33 634.9 2226.83 632.99 C 2224.43 632.99 2221.53 632.99 2218.63 632.99 C 2211.93 639.41 2201.32 642.22 2199.32 654.45 C 2198.52 655.46 2196.02 655.66 2194.72 657.26 C 2192.52 657.26 2191.11 656.56 2189.41 655.46 C 2183.81 651.74 2177.81 649.24 2170.9 649.04 C 2166.2 648.94 2161.9 649.74 2158.6 652.95 C 2156.7 654.75 2154.9 655.76 2151.49 655.15 C 2152.5 659.97 2151.19 663.88 2146.49 667.89 C 2154 667.79 2160 667.99 2166.5 667.29 C 2168.3 668.09 2169.4 670.5 2171 671.5 L 2177.81 671.5 C 2185.61 676.42 2185.01 685.44 2189.51 692.46 C 2194.62 695.57 2195.82 686.54 2200.72 687.75 C 2201.62 688.95 2201.82 691.16 2200.72 691.36 C 2197.02 691.86 2198.82 695.57 2199.02 695.77 C 2201.02 697.68 2200.12 700.08 2200.02 702.19 C 2199.82 710.61 2199.32 711.12 2190.91 712.22 C 2190.51 714.83 2191.42 717.53 2192.72 719.54 C 2195.62 723.95 2197.62 728.67 2200.02 733.28 C 2204.02 740.9 2205.82 741.3 2212.53 735.69 C 2216.03 736.09 2218.63 739.2 2223.23 738.8 C 2227.23 733.18 2228.33 724.86 2234.94 720.74 C 2234.64 718.14 2231.94 717.94 2231.74 715.83 C 2237.34 711.92 2239.34 706.9 2242.84 704.1 C 2243.14 700.89 2239.54 700.38 2239.84 697.48 C 2241.44 695.47 2243.84 696.07 2246.24 695.87 C 2247.74 693.16 2249.24 690.26 2250.45 687.15 C 2252.35 687.25 2253.25 688.75 2254.25 690.56 C 2252.15 693.67 2249.44 696.47 2247.24 699.88 C 2248.94 704.1 2250.05 708.91 2252.15 713.22 C 2255.75 715.13 2259.55 716.53 2262.75 718.94 C 2267.35 722.25 2271.56 723.05 2274.86 717.13 C 2276.46 719.64 2276.06 722.15 2273.76 724.65 C 2275.76 728.47 2279.86 730.67 2281.76 734.38 C 2281.76 734.38 2292.47 733.18 2296.27 730.67 C 2296.77 730.35 2297.24 730.04 2297.68 729.74 C 2307.27 738.09 2296.37 734.38 2295.07 736.19 C 2293.57 738.29 2300.37 742.71 2302.97 745.51 C 2306.37 749.12 2310.48 746.42 2315.38 747.82 C 2318.78 750.73 2321.58 756.35 2327.28 758.45 C 2329.29 759.15 2331.19 759.96 2333.49 759.86 C 2340.19 759.35 2346.89 759.86 2353.4 762.16 C 2357.1 763.47 2361.1 763.97 2365.2 763.57 C 2374.71 762.56 2382.71 764.27 2384.61 776 L 2398.72 776 L 2399.92 778.51 C 2407.53 780.42 2415.03 782.72 2419.73 789.04 C 2427.24 789.24 2434.04 787.54 2440.74 788.84 C 2441.24 790.54 2440.14 792.15 2441.44 793.45 C 2443.14 793.15 2444.95 793.95 2446.45 792.25 C 2447.44 791.17 2448.44 790.1 2449.4 789.01 C 2456.25 798.47 2464.46 804.18 2473.86 808.5 C 2481.76 812.21 2487.07 817.82 2489.47 826.55 C 2490.67 830.76 2489.77 835.97 2493.97 838.68 C 2498.37 840.09 2499.07 834.87 2502.47 834.47 C 2505.98 839.08 2500.17 841.99 2500.57 846.2 C 2503.98 850.22 2507.08 854.93 2511.08 858.24 C 2510.48 873.58 2513.68 879.7 2523.99 887.62 C 2525.99 889.23 2529.09 890.73 2528.19 894.14 C 2527.99 897.55 2523.29 893.64 2523.39 897.95 C 2525.69 901.66 2529.79 900.36 2534.29 900.66 C 2534.19 905.17 2540.89 903.27 2541.69 908.28 C 2538.69 909.69 2536.19 910.39 2533.89 907.48 C 2532.19 909.19 2530.79 911.19 2527.99 911.89 C 2525.09 911.29 2521.68 909.39 2518.28 911.79 C 2519.18 912.8 2519.98 913.7 2520.88 914.4 C 2521.28 914.6 2522.08 914.4 2522.68 914.4 L 2525.79 916.31 C 2527.89 921.72 2533.39 922.02 2537.59 922.93 C 2542.9 924.03 2546.6 927.14 2550.9 929.54 C 2550 931.45 2549.3 932.95 2547.5 931.25 C 2543.8 927.74 2539.69 927.24 2535.09 929.34 C 2531.89 930.75 2528.99 926.64 2525.59 928.84 C 2528.89 933.96 2536.59 935.66 2536.99 942.98 C 2532.89 943.68 2531.89 939.47 2528.99 937.97 C 2525.39 936.06 2522.08 934.76 2517.78 936.66 C 2510.68 939.77 2503.48 942.48 2496.67 946.49 C 2491.87 949.4 2489.27 952.91 2486.57 957.73 C 2482.56 964.65 2479.86 972.67 2473.56 978.08 C 2475.46 987.81 2469.06 994.93 2466.56 1004.26 C 2477.16 999.14 2488.27 1003.26 2498.57 1000.15 C 2502.97 998.84 2505.18 1002.96 2508.78 1004.36 C 2510.88 1001.25 2513.58 998.94 2515.98 996.44 C 2521.78 1001.85 2530.79 1000.15 2536.79 1007.47 C 2537.49 1002.45 2539.19 999.34 2538.99 995.63 C 2540.69 994.73 2542.29 994.73 2544.1 995.63 C 2548.5 992.32 2548.7 984.7 2556.3 983.8 C 2559.9 985.61 2562.71 990.02 2567.81 990.82 C 2571.61 989.22 2575.11 985.91 2579.91 986.91 L 2581.11 987.11 L 2581.11 697.68 L 2581.11 629.28 C 2581.21 626.57 2581.21 623.96 2577.41 624.27 C 2576.01 624.37 2574.91 624.07 2573.61 623.06 C 2563.21 614.74 2549.9 611.73 2538.89 604.41 C 2536.49 602.8 2533.49 601.7 2531.59 599.9 C 2522.58 591.27 2509.88 592.37 2499.77 586.96 C 2498.37 586.26 2496.97 587.56 2495.47 587.56 C 2490.47 584.25 2489.77 577.33 2484.47 574.42 C 2474.06 578.43 2464.96 584.25 2455.75 590.07 C 2454.65 590.77 2453.35 591.37 2452.05 591.27 C 2442.34 590.37 2439.14 596.69 2437.14 604.51 C 2438.24 608.42 2443.84 606.72 2445.15 610.63 C 2443.94 613.74 2441.14 615.64 2438.34 615.44 C 2430.54 614.94 2424.63 618.45 2418.93 622.96 C 2418.33 623.46 2417.23 624.37 2415.43 624.37 C 2411.43 621.36 2406.63 619.65 2399.92 621.06 C 2395.62 626.57 2391.52 633.19 2392.52 642.32 C 2390.12 644.42 2388.12 647.43 2384.31 649.24 C 2382.61 649.44 2380.31 648.84 2378.51 649.64 C 2375.71 655.36 2373.61 661.07 2373.81 666.79 C 2360.2 672 2354.4 684.04 2348.7 695.27 C 2341.29 694.57 2334.89 692.46 2329.69 688.95 C 2326.48 688.55 2323.68 691.36 2320.38 690.16 C 2320.22 688.89 2320.74 688.02 2321.28 687.15 C 2317.28 683.94 2314.58 680.13 2313.28 675.91 C 2312.68 673.81 2312.58 671.1 2314.08 668.39 C 2315.28 666.29 2314.78 662.58 2310.58 662.28 C 2308.88 664.48 2308.58 666.29 2305.67 666.69 C 2304.97 658.26 2300.27 650.54 2302.77 641.72 C 2299.67 640.61 2297.37 641.21 2294.77 640.91 C 2292.97 642.22 2291.37 643.92 2289.97 645.73 C 2290.77 648.23 2293.37 650.04 2291.37 652.85 C 2286.26 649.24 2281.66 641.42 2275.16 624.07 C 2273.95 621.96 2271.26 621.96 2272.46 618.75 C 2274.26 616.34 2274.56 611.93 2276.26 608.02 C 2274.46 604.51 2272.96 600.7 2271.36 596.99 C 2269.86 593.38 2270.56 590.37 2274.46 588.96 C 2277.56 587.86 2279.46 585.75 2279.26 582.65 C 2278.86 577.23 2280.46 572.52 2282.86 567.3 C 2276.26 562.09 2274.66 553.26 2268.15 547.24 C 2269.36 544.14 2273.26 542.53 2275.26 539.02 C 2272.26 537.32 2268.85 536.41 2267.35 533.2 C 2248.74 534.31 2230.23 535.91 2219.93 517.36 L 2213.93 517.36 C 2199.02 508.83 2183.51 507.73 2166.9 508.73 C 2163.5 512.14 2159.7 516.66 2153.5 517.36 C 2152.19 517.46 2150.79 519.26 2150.49 520.37 C 2147.79 532 2137.49 532.2 2129.28 533 C 2121.68 533.81 2114.68 535.11 2108.17 539.12 C 2107.97 542.63 2112.57 543.23 2112.67 547.75 C 2112.27 548.65 2111.67 550.85 2111.27 553.26 C 2110.37 558.48 2108.57 562.69 2102.67 564.59 C 2097.57 566.3 2094.77 571.01 2092.66 576.63 C 2098.67 577.63 2105.17 574.82 2108.77 580.54 C 2113.28 581.34 2113.58 575.53 2116.28 576.33 C 2120.48 576.33 2120.78 579.94 2122.48 580.74 C 2125.68 580.74 2124.48 577.53 2126.38 576.93 C 2136.29 580.04 2143.89 586.16 2148.29 597.19 C 2147.09 603.31 2157.1 617.75 2164.1 617.95 C 2166.3 620.15 2167.7 623.06 2169.5 625.37 C 2173.11 625.77 2176.31 624.47 2179.01 621.66 C 2183.21 622.66 2186.81 625.67 2189.81 630.88 C 2194.82 623.26 2206.42 629.68 2210.52 620.05 C 2213.63 621.76 2216.83 621.86 2219.93 621.66 L 2222.43 622.86 Z" fill="#ff000014" stroke="#cc0000" stroke-width="1.2"/>
<text x="2404.41" y="712.01" font-size="5" font-family="Arial" text-anchor="middle" dominant-baseline="middle" fill="#fff" stroke="#fff" stroke-width="0.6" paint-order="stroke">Z/F00</text>
<text x="2404.41" y="712.01" font-size="5" font-family="Arial" text-anchor="middle" dominant-baseline="middle" fill="#111">Z/F00</text>
<path d="M 2460.25 709.8 C 2470.76 709.97 2481.25 709.38 2491.67 710.01 C 2496.67 710.31 2501.57 710.41 2506.68 712.02 C 2512.98 713.92 2520.48 713.02 2526.39 708.21 C 2531.39 704.1 2537.79 704.5 2543.7 703.19 C 2555.2 700.59 2566.81 699.08 2578.41 697.68 L 2580.91 697.68 L 2581.11 987.11 L 2579.91 986.91 C 2575.11 985.91 2571.61 989.22 2567.81 990.82 C 2562.71 990.02 2559.9 985.61 2556.3 983.8 C 2548.7 984.7 2548.5 992.32 2544.1 995.63 C 2542.29 994.73 2540.69 994.73 2538.99 995.63 C 2539.19 999.34 2537.49 1002.45 2536.79 1007.47 C 2530.79 1000.15 2521.78 1001.85 2515.98 996.44 C 2513.58 998.94 2510.88 1001.25 2508.78 1004.36 C 2505.18 1002.96 2502.97 998.84 2498.57 1000.15 C 2488.27 1003.26 2477.16 999.14 2466.56 1004.26 C 2469.06 994.93 2475.46 987.81 2473.56 978.08 C 2479.86 972.67 2482.56 964.65 2486.57 957.73 C 2489.27 952.91 2491.87 949.4 2496.67 946.49 C 2503.48 942.48 2510.68 939.77 2517.78 936.66 C 2522.08 934.76 2525.39 936.06 2528.99 937.97 C 2531.89 939.47 2532.89 943.68 2536.99 942.98 C 2536.59 935.66 2528.89 933.96 2525.59 928.84 C 2528.99 926.64 2531.89 930.75 2535.09 929.34 C 2539.69 927.24 2543.8 927.74 2547.5 931.25 C 2549.3 932.95 2550 931.45 2550.9 929.54 C 2546.6 927.14 2542.9 924.03 2537.59 922.93 C 2533.39 922.02 2527.89 921.72 2525.79 916.31 L 2522.68 914.4 C 2522.08 914.4 2521.28 914.6 2520.88 914.4 C 2519.98 913.7 2519.18 912.8 2518.28 911.79 C 2521.68 909.39 2525.09 911.29 2527.99 911.89 C 2530.79 911.19 2532.19 909.19 2533.89 907.48 C 2536.19 910.39 2538.69 909.69 2541.69 908.28 C 2540.89 903.27 2534.19 905.17 2534.29 900.66 C 2529.79 900.36 2525.69 901.66 2523.39 897.95 C 2523.29 893.64 2527.99 897.55 2528.19 894.14 C 2529.09 890.73 2525.99 889.23 2523.99 887.62 C 2513.68 879.7 2510.48 873.58 2511.08 858.24 C 2507.08 854.93 2503.98 850.22 2500.57 846.2 C 2500.17 841.99 2505.98 839.08 2502.47 834.47 C 2499.07 834.87 2498.37 840.09 2493.97 838.68 C 2489.77 835.97 2490.67 830.76 2489.47 826.55 C 2487.07 817.82 2481.76 812.21 2473.86 808.5 C 2464.46 804.18 2456.25 798.47 2450.25 789.84 C 2452.4 785.62 2455.11 782.08 2456.85 777.91 C 2459.85 770.89 2462.15 763.57 2469.26 759.15 C 2471.36 757.85 2473.76 756.04 2474.56 752.53 C 2472.06 746.52 2473.46 739 2469.76 733.28 C 2465.26 726.46 2462.45 719.24 2460.65 711.42 L 2460.25 709.91 Z" fill="#f9414433" stroke="#f94144" stroke-width="1.6"/>
<text x="2531.62" y="838.9" font-size="6" font-family="Arial" text-anchor="middle" dominant-baseline="middle" fill="#fff" stroke="#fff" stroke-width="0.7" paint-order="stroke">F01/F01</text>
<text x="2531.62" y="838.9" font-size="6" font-family="Arial" text-anchor="middle" dominant-baseline="middle" fill="#111">F01/F01</text>
<path d="M 2346.49 713.62 C 2334.59 713.32 2322.88 710.71 2311.08 708.81 C 2313.32 702.32 2316.11 696.01 2319.61 689.93 C 2323.68 691.36 2326.48 688.55 2329.69 688.95 C 2334.89 692.46 2341.29 694.57 2348.7 695.27 C 2354.4 684.04 2360.2 672 2373.81 666.79 C 2373.61 661.07 2375.71 655.36 2378.51 649.64 C 2380.31 648.84 2382.61 649.44 2384.31 649.24 C 2388.12 647.43 2390.12 644.42 2392.52 642.32 C 2391.52 633.19 2395.62 626.57 2399.92 621.06 C 2406.63 619.65 2411.43 621.36 2415.43 624.37 C 2417.23 624.37 2418.33 623.46 2418.93 622.96 C 2424.63 618.45 2430.54 614.94 2438.34 615.44 C 2441.14 615.64 2443.94 613.74 2445.15 610.63 C 2443.84 606.72 2438.24 608.42 2437.14 604.51 C 2439.14 596.69 2442.34 590.37 2452.05 591.27 C 2453.35 591.37 2454.65 590.77 2455.75 590.07 C 2464.96 584.25 2474.06 578.43 2484.47 574.42 C 2489.77 577.33 2490.47 584.25 2495.47 587.56 C 2496.97 587.56 2498.37 586.26 2499.77 586.96 C 2509.88 592.37 2522.58 591.27 2531.59 599.9 C 2533.49 601.7 2536.49 602.8 2538.89 604.41 C 2549.9 611.73 2563.21 614.74 2573.61 623.06 C 2574.91 624.07 2576.01 624.37 2577.41 624.27 C 2581.21 623.96 2581.21 626.57 2581.11 629.28 L 2581.11 697.68 L 2578.41 697.68 C 2566.81 699.08 2555.2 700.59 2543.7 703.19 C 2537.79 704.5 2531.39 704.1 2526.39 708.21 C 2520.48 713.02 2512.98 713.92 2506.68 712.02 C 2501.57 710.41 2496.67 710.31 2491.67 710.01 C 2481.25 709.38 2470.76 709.97 2460.25 709.8 C 2459.15 709.78 2458.05 709.75 2456.95 709.71 C 2449.05 709.51 2440.54 709.21 2433.04 712.42 C 2421.33 710.31 2410.13 710.92 2399.92 716.43 C 2387.82 722.95 2375.61 721.65 2364 717.13 C 2358.1 714.83 2352.7 713.72 2346.49 713.62 Z" fill="#f3722c33" stroke="#f3722c" stroke-width="1.6"/>
<text x="2469.61" y="659.44" font-size="6" font-family="Arial" text-anchor="middle" dominant-baseline="middle" fill="#fff" stroke="#fff" stroke-width="0.7" paint-order="stroke">F02/F02</text>
<text x="2469.61" y="659.44" font-size="6" font-family="Arial" text-anchor="middle" dominant-baseline="middle" fill="#111">F02/F02</text>
<path d="M 2235.34 622.46 C 2231.04 623.46 2226.63 622.66 2222.33 622.96 L 2219.93 621.66 C 2216.83 621.86 2213.63 621.76 2210.52 620.05 C 2206.42 629.68 2194.82 623.26 2189.81 630.88 C 2186.81 625.67 2183.21 622.66 2179.01 621.66 C 2176.31 624.47 2173.11 625.77 2169.5 625.37 C 2167.7 623.06 2166.3 620.15 2164.1 617.95 C 2157.1 617.75 2147.09 603.31 2148.29 597.19 C 2143.89 586.16 2136.29 580.04 2126.38 576.93 C 2124.48 577.53 2125.68 580.74 2122.48 580.74 C 2120.78 579.94 2120.48 576.33 2116.28 576.33 C 2113.58 575.53 2113.28 581.34 2108.77 580.54 C 2105.17 574.82 2098.67 577.63 2092.66 576.63 C 2094.77 571.01 2097.57 566.3 2102.67 564.59 C 2108.57 562.69 2110.37 558.48 2111.27 553.26 C 2111.67 550.85 2112.27 548.65 2112.67 547.75 C 2112.57 543.23 2107.97 542.63 2108.17 539.12 C 2114.68 535.11 2121.68 533.81 2129.28 533 C 2137.49 532.2 2147.79 532 2150.49 520.37 C 2150.79 519.26 2152.19 517.46 2153.5 517.36 C 2159.7 516.66 2163.5 512.14 2166.9 508.73 C 2183.51 507.73 2199.02 508.83 2213.93 517.36 L 2219.93 517.36 C 2230.23 535.91 2248.74 534.31 2267.35 533.2 C 2268.85 536.41 2272.26 537.32 2275.26 539.02 C 2273.26 542.53 2269.36 544.14 2268.15 547.24 C 2274.66 553.26 2276.26 562.09 2282.86 567.3 C 2280.46 572.52 2278.86 577.23 2279.26 582.65 C 2279.46 585.75 2277.56 587.86 2274.46 588.96 C 2270.56 590.37 2269.86 593.38 2271.36 596.99 C 2272.96 600.7 2274.46 604.51 2276.26 608.02 C 2274.56 611.93 2274.26 616.34 2272.46 618.75 C 2271.26 621.96 2273.95 621.96 2274.95 624.16 C 2270.61 624.02 2265.41 627.42 2260.55 627.01 C 2258.73 626.8 2257.25 626.24 2255.85 625.07 C 2255.85 621.36 2259.45 622.66 2259.85 621.76 C 2260.65 618.85 2259.05 618.35 2258.15 617.15 C 2253.25 621.66 2246.14 621.06 2240.44 625.67 C 2240.04 621.76 2237.44 621.96 2235.34 622.46 Z" fill="#f8961e33" stroke="#f8961e" stroke-width="1.6"/>
<text x="2198.26" y="569.48" font-size="6" font-family="Arial" text-anchor="middle" dominant-baseline="middle" fill="#fff" stroke="#fff" stroke-width="0.7" paint-order="stroke">F03/F03</text>
<text x="2198.26" y="569.48" font-size="6" font-family="Arial" text-anchor="middle" dominant-baseline="middle" fill="#111">F03/F03</text>
<path d="M 2311.08 708.81 C 2322.88 710.71 2334.59 713.32 2346.49 713.62 C 2352.7 713.72 2358.1 714.83 2364 717.13 C 2375.61 721.65 2387.82 722.95 2399.92 716.43 C 2410.13 710.92 2421.33 710.31 2433.04 712.42 C 2440.54 709.21 2449.05 709.51 2456.95 709.71 C 2458.05 709.75 2459.15 709.78 2460.25 709.8 L 2460.65 711.42 C 2462.45 719.24 2465.26 726.46 2469.76 733.28 C 2473.46 739 2472.06 746.52 2474.56 752.53 C 2473.76 756.04 2471.36 757.85 2469.26 759.15 C 2462.15 763.57 2459.85 770.89 2456.85 777.91 C 2455.11 782.08 2452.4 785.62 2449.4 789.01 C 2448.44 790.1 2447.44 791.17 2446.45 792.25 C 2444.95 793.95 2443.14 793.15 2441.44 793.45 C 2440.14 792.15 2441.24 790.54 2440.74 788.84 C 2434.04 787.54 2427.24 789.24 2419.73 789.04 C 2415.03 782.72 2407.53 780.42 2399.92 778.51 L 2398.72 776 L 2384.61 776 C 2382.71 764.27 2374.71 762.56 2365.2 763.57 C 2361.1 763.97 2357.1 763.47 2353.4 762.16 C 2346.89 759.86 2340.19 759.35 2333.49 759.86 C 2331.19 759.96 2329.29 759.15 2327.28 758.45 C 2321.58 756.35 2318.78 750.73 2315.38 747.82 C 2310.48 746.42 2306.37 749.12 2302.97 745.51 C 2300.37 742.71 2293.57 738.29 2295.07 736.19 C 2296.37 734.38 2307.27 738.09 2297.77 729.87 C 2303.21 725.91 2303.53 723.62 2305.57 719.44 C 2307.31 715.9 2308.91 712.29 2310.51 708.66 Z" fill="#90be6d33" stroke="#90be6d" stroke-width="1.6"/>
<text x="2395.39" y="743.91" font-size="6" font-family="Arial" text-anchor="middle" dominant-baseline="middle" fill="#fff" stroke="#fff" stroke-width="0.7" paint-order="stroke">F04/F04</text>
<text x="2395.39" y="743.91" font-size="6" font-family="Arial" text-anchor="middle" dominant-baseline="middle" fill="#111">F04/F04</text>
<path d="M 2092.66 541.53 C 2082.76 543.83 2079.96 545.24 2076.96 549.25 C 2078.66 552.16 2080.46 555.07 2081.26 558.78 C 2082.16 562.39 2085.76 565.9 2089.36 568.3 C 2090.76 567.9 2092.16 568.91 2093.26 567.6 C 2095.27 565.1 2097.17 563.09 2100.57 561.69 C 2104.37 560.18 2103.97 554.87 2102.97 551.56 C 2101.57 546.94 2100.27 541.13 2093.26 541.53 Z" fill="#ff000014" stroke="#cc0000" stroke-width="1.2"/>
<text x="2091.17" y="553.93" font-size="5" font-family="Arial" text-anchor="middle" dominant-baseline="middle" fill="#fff" stroke="#fff" stroke-width="0.6" paint-order="stroke">Z/F05</text>
<text x="2091.17" y="553.93" font-size="5" font-family="Arial" text-anchor="middle" dominant-baseline="middle" fill="#111">Z/F05</text>
<path d="M 2081.86 537.82 C 2084.66 535.61 2086.16 531.6 2090.16 534.01 C 2087.66 537.32 2085.26 540.12 2081.96 542.33 C 2076.66 540.93 2071.45 544.44 2066.25 543.13 C 2064.85 538.12 2067.35 535.51 2071.15 533.5 C 2075.26 532.8 2079.26 533.1 2081.86 537.82 Z" fill="#8338ec33" stroke="#8338ec" stroke-width="1.6"/>
<text x="2076.25" y="538.24" font-size="6" font-family="Arial" text-anchor="middle" dominant-baseline="middle" fill="#fff" stroke="#fff" stroke-width="0.7" paint-order="stroke">F06/F06</text>
<text x="2076.25" y="538.24" font-size="6" font-family="Arial" text-anchor="middle" dominant-baseline="middle" fill="#111">F06/F06</text>
<path d="M 2229.43 741.5 C 2228.53 739.9 2228.13 739.1 2228.33 738.59 C 2229.23 736.49 2238.24 746.62 2246.94 747.22 C 2248.04 747.32 2247.24 749.12 2246.94 749.12 C 2244.64 749.33 2239.74 749.63 2237.54 749.12 C 2236.74 748.92 2230.23 743.01 2229.43 741.5 Z" fill="#277da133" stroke="#277da1" stroke-width="1.6"/>
<text x="2237.18" y="745.22" font-size="6" font-family="Arial" text-anchor="middle" dominant-baseline="middle" fill="#fff" stroke="#fff" stroke-width="0.7" paint-order="stroke">F05/F07</text>
<text x="2237.18" y="745.22" font-size="6" font-family="Arial" text-anchor="middle" dominant-baseline="middle" fill="#111">F05/F07</text>
</svg>