<?xml version="1.0" encoding="UTF-8"?>
<svg id="b" data-name="Layer 2" xmlns="http://www.w3.org/2000/svg" viewBox="0 0 75.33 25.98">
  <g id="c" data-name="ëÎÓÈ 1">
    <g>
      <path d="M62.24,20.03c14.53,9.66,15.1-17.12-3.05-15.44-15.58.32-31.37,19.66-46.13,7.94-3.72-3.35-2.33-10.57,2.88-10.55,3.4-.25,5.26,4.21,2.98,6.22,2.94-3.53-2.74-7.97-5.87-4.37-5.25,7.54,6.28,12.69,12.96,10.95,11.53-1.54,20.9-11.36,33.14-11.72,18.53-2.51,23.53,28.31,2.3,21.84-5.34-1.99-5.85-11.91.46-11.5,1.15.06,2.41,1.62,1.66,2.24-2.63-.24-2.74,2.64-1.32,4.39Z"/>
      <path d="M65.73,14.6c-1.25-15.12-33.62-1.82-30.11,8.61,2.85,3.93,7.29-1.9,3.07-3.46,2,.06,3.3,3.35.97,4.95-2.71,1.97-6.26-1.11-5.57-4.32,3.46-11.73,32.2-22.68,36.04-5.96.48,2.41-2.95,6.61-4.88,4.16-.05-1.3.66-2.58.47-3.98Z"/>
      <path d="M7.21,17.79C-.75,7.75-4.99,39.61,34.87,14.43,27.7,20.57,3.4,34.93,0,18.03c-.08-6.6,9.95-7.22,11.42-1.55,1.41,2.41-2.34,7.39-4.12,4.35.27-1.09.41-1.97-.09-3.04Z"/>
      <path d="M28.89,5.46c-5.5-5.78-8.01,11.44,9.34,4.44-9.4,6.19-19.62-1.87-11.45-7.01,6.29-1.72,4.35,8.47,2.12,2.57Z"/>
      <path d="M40.64,2.47c-6.1-2.62-3.95,7.97,2.54,4.63,1.58-.69,5.66-2.8,6.46-3.02-2.2,1.14-6.56,4.86-10.02,4.17-2.45-.41-4.17-3.29-3.11-5.69,4.24-7.25,9.66,3.54,4.13-.1Z"/>
      <path d="M36.11,21.29c-1.22,3.02,3.56,4.87,4.69,1.81,1.22-3.02-3.56-4.87-4.69-1.81Z"/>
    </g>
  </g>
</svg>