<?xml version="1.0" encoding="UTF-8"?>
<svg id="b" data-name="Layer 2" xmlns="http://www.w3.org/2000/svg" viewBox="0 0 1199.67 1166.98">
  <defs>
    <style>
      .d {
        fill: none;
        stroke: #000;
        stroke-linecap: round;
        stroke-linejoin: round;
        stroke-width: 2px;
      }
    </style>
  </defs>
  <g id="c" data-name="Layer 1">
    <g>
      <path class="d" d="M284,242.98c8.3-12.12,7.03-25.14.62-36.79-4.41-8-5.39-15.65-5.74-24.21-.63-15.68.68-30.86,9.1-45.61-6.38-2.53-11.76-5.7-14.54-11.42-3.13.13-5.93-.56-8.01,1.45-1.09-1.09-2.28-1.71-2.35-2.43-1.69-18.41-6.19-35.06-24-45.12-8.56-4.84-14.04-13.27-21.19-22.35-9.05,4.33-18.17,10.3-29.5,11.38-1.7-3.81-2.92-9.67-7.45-10.6-8.12-1.66-16.53-1.96-24.97-.44-5.93,1.07-10.31,6.18-16.99,5.3-5.25-.69-10.72-.63-16.59,1.35-6.76-9.33-16.42-11.75-27.7-10.23-16.14-15.98-30.9-34.87-57.62-31.96-4.75,7.26-6.32,16.61-17.57,18.46,2.98,16.41.45,33.13,12.13,47.54,3.94,4.86,3.77,13.21,6.12,19.83,8.25,4.97,18.92,7.93,17.26,20.86,9.84,5.07,7.87,20.93,21,23,10.48,14.68,26.31,24.78,35.02,40.99,3.53,6.57,7.75,12.63,12.66,16.64,9.12,1.24,16.7-.44,25.33-2.09,11.32,11.87,23.96,23.04,29.97,39.47.11.29-.12.75.03.98,8.12,12.03,20.57,20.63,26.98,34.01,7.19-.73,10.74,7.92,18.75,6.95-1.89,14.82,7.76,28.06,5.34,43.07-.37,2.28.75,4.21,2.8,6.11,5.73,5.31,10.34,11.69,15.19,18.34,6.29-3.12,9.02-6.68,7.29-14.54-1.62-7.36-1.26-15.29-2.35-22.92,9.32-24.27,22.31-46.89,32.59-70.63-23.19-16.2-41.36-36.93-61.61-55.36-21.11-19.21-40.63-40.15-62.95-58.06-6.53-5.24-14.77-5.11-22.04-7.95"/>
      <path class="d" d="M640,437.98c-3.76-1.58-5.62-5.02-8.04-7.97-3.05-3.7-6.87-5.99-11.83-4.91-2.25-2.13-3.52-4.76-5.22-7.05-6.19-8.36-14.39-14.38-24.92-14.85-9.06-.4-16.72-3.35-25.17-9.91-3.34-4.77-1.24-11.55.58-18.91-4.72-4.72-9.29-9.88-14.47-14.32-5.82-4.99-8.88-10.43-5.46-18.23-14.7-3.12-26.72-.57-34.42,13.22,2.82,7.15,7.77,13.38,9.85,21.46-14.54-3.66-21.31-18.78-34.7-22.78-4.84-16.61-17.82-29.21-16.14-46.27-5.66-1.16-8.66,1.19-14.37,2.14-1.54.42-1.84-5.65-5.6-4.62-4.01-.34-4.89,4.19-7.6,5.26-3.41-1.78-7.57-.5-9.49-4.26"/>
      <path class="d" d="M208,419.98c8.04,6.35,16.77,12.78,20.61,22.16,3.84,9.39,9.72,16.06,17.31,21.69,3.57,1.84,7.57.66,11.14,1.51-.68,10.26.93,20.37-6.14,28.74,2.53,7.59,1.2,14.35-4.92,19.89-2.4,2.17-6.23,1.83-7.84.78-7.47-4.88-8.15-12.66-6.92-20.11-6.33-4.74-11.92-10.01-19.26-11.49-5.06-1.02-6.43-5.35-6.67-8.2-1.25-15.22-12.87-23.61-21.54-33.77-2.29-2.67-4.79-5.22-7.01-8.03,4.66-7.76,10.91-9.64,19.31-7.36,3.49.94,8.19,1.46,9.95-3.81"/>
      <path class="d" d="M1157,872.98c1.07-2.48.99-5.63,4.86-6.83,3.68.75,8.59.93,11.45,6.42,2,2.71-4.62,5.01-1.08,8.74,11.94,2.86,9.07-15.43,20.82-14.18-.08-6.02.44-11.72,3.72-17.28,5.05-8.55-.3-23.54-11.77-25.85-10.28-2.07-20.07-5.67-28.91-11.16-5.82-3.62-10.76-.11-16.78.19.47,9.04-3.58,17.23-5.3,25-.16,4.48,5.15,3.44,5.03,6.92-9.29,11.08-8.12,18.28,5.11,31.18-1.32,2.9-4.19,4.48-6.65,7.51,11.41,6.97,14.42-12.5,25.38-5.29-1.23-3.84-1.85-5.2-2.87-6.36"/>
      <path class="d" d="M288,249.98c10.8,11.8,19.11,25.5,28.94,38.05,13.53,17.29,30.56,30.91,47.3,44.66,7.05,5.8,12.59,11.6,14.71,20.3,2.47,10.16,8.32,17.06,18.03,21.04,11.27,4.62,19.21,13.53,25.85,23.07,12.15,17.44,28.21,31.19,42.37,46.7,8.1,8.87,14.85,18.56,21.74,28.23,8.74,12.27,23.71,18.4,31.06,31.96"/>
      <path class="d" d="M927,885.98c-25.79-3.6-50.16-13.82-76.02-16.79-12.1-1.39-22.62-8.01-34.97-8.42-9.7-.32-19.34-.68-30.11-.83,5.19,19.25,13.17,35.55,26.17,48.98,16.78,17.33,34.79,33.49,48.03,54,3.65,5.65,6.86,11.01,5.94,18.07-.97,7.44,1.14,14.87,2.38,21.92,3.81,21.71-3.21,42.69-2.42,64.07"/>
      <path class="d" d="M92,313.98c-3.33-5.83,1.23-7.72,5.02-10.01-.72-3.01-4.3-3.98-4.99-6.84-3.55-1.81-5.66,2.87-10.1,1.53-4.5-7.81-10.75-14.8-22.82-13.18,1.5,6.34-6.54,7.18-8.36,13.31,4.96,4.42,7.82,10.68,10.13,17.54,3.65,1.33,7.44.29,11.71.79,3.21.72,3.85,4.74,7.45,7.75,14.09-1.67,24.36,7.05,32.85,17.01,5.57.43,9.72-1.42,14.09-1.09,0-4.8,0-8.8,0-13.59-9.06.77-12.89-7.86-19.89-11.43-4.84-2.47-9.07-3.78-14.11-1.78"/>
      <path class="d" d="M324,416.98c-1.69,4.14,1.98,8.41,3.33,9.63,11.62,10.42,10.36,25.74,16.02,38.21,6.38,14.05,7.22,28.41,6.55,41.66,6.14,8.09,15.72,5.59,21.63,11.58-7.1,11.91-8.92,23.91-.41,36.09,4.06-.76,7.04-3.34,10.03-6.3,3.65,5.03,7.97,8.03,14.87,7.29,7.59-.82,12.97,4.06,16.86,9.91,2.95,4.45,4.94,9.55,8.57,13.46-1.7,3.09-3.55,5.29-5.75,7.86,3.58,3.72,7.59,7.53,6.21,13.27,5.01,3.49,10.05,6.43,15.13,9.27,2.76,1.55,7.17,3.02,7.66,5.13,4.43,18.74,21.05,30.47,27.09,48,2.02,5.87,3.4,11.67,7.75,14.63,1.82,5.98-3.97,6.69-4.81,11.21,8.08,2.23,11.2,11.3,19.23,14.2-2.42,7.03-1.15,13.15,5.04,17.89"/>
      <path class="d" d="M659,546.98c4.41,16.33.64,32.72-.32,48.98-.65,10.95-3.65,21.57,2.25,32.06,5.76,10.23,8.81,21.48,11.11,32.95,1.26,6.3,1.99,12.77,1.73,19-.76,18.06,1.9,35.99,1.2,54.01-.27,7.02,3.75,13.12,4.2,21.54-12.4,24.55-38.57,38.26-53.98,58.86-24.2,10.1-46.5,20.34-69.19,29.6"/>
      <path class="d" d="M936,736.98q-7.25,8.82-18,14c-3.5,4.33-1.74,8.67.04,13.02,8.29,3.73,16.63-4.18,25.36.71,4.42,8.16,15.55,11.29,31.87,8.22,2.16.44,4.51,2.81,4.51,4.05-.11,14.6,6.33,28.09,7.63,42.06,1.66,17.8,10.16,29.1,28.6,29.93,2.99.13,6,.02,9.99.02,8.64,11.2,21.6,16.98,35.23,22.08,3.09-1.43,4.85-4.35,6.78-6.48-4.63-7.73-16.65-7.02-18.25-17.86,5.59-11.2,12-21.93,22.97-30.7-8.9-5.2-17.39-6-25.73-6.99-10.91-1.29-20.35-4.71-26.02-15.04-5.66-10.32-6.97-21.91-10.01-33-.9-3.3,4.17-3.76,2.6-8.12-.88-10.03-16.57-17.13-8.21-30.54-3.04-3.53-7-2.42-12.52-4.45-2.69-1.95-5.98-6.85-10.77-10.32-3.55,3.3-8.08,3.04-12.07,4.42-3.7,6.5,7.08,13.72-1.1,19.97q-9.14-2.81-5.75-12.37c-13.39-9.01-24.07-.46-35.17,5.04-.25,6.17,8.56,5.37,8.03,11.36"/>
      <path class="d" d="M557,465.98c4.61,3.73,7.58,9.31,13.93,11.23,2.19.66,3.3,3.78,4.36,6.67,4.33,11.74,8.55,23.4,15.04,34.5,4.71,8.05,10.02,17.83,8.68,28.61-.28,2.27.12,4.4,1.96,5.98-12.88,25.53-16.3,53.74-22.19,82.61,5.02,10.18-.2,23.44,4.33,36.47,30.35-1.3,59,7.92,91.14,15.39,14.3-2.85,33.44.05,48.84-13.4,8.37,8.36,7.33,19.84,11.63,29.07,1.25,2.69,1.83,6.07,3.31,8.85,6.83,12.85,9.38,26.49,9.13,41.02-.18,10.26,5.6,19.14,10.13,27.84,3.74,7.17,5.91,14.36,8.03,22.07,5.27,19.22,12.65,37.81,20.68,56.09"/>
      <path class="d" d="M466,520.98c6.59,19.96,23.11,32.82,35.01,48.99.55.75,1.62,1.22,1.94,2.03,8.17,20.42,27.27,19.23,44.07,21.81,12.61,1.94,25.51,2,37.97,5.18"/>
      <path class="d" d="M625,815.98c12.11,14.78,30.36,19.96,46.16,28.72,20.99,11.64,39.82,26.35,59.58,39.67,11.27,7.59,17.55,20.84,22.01,33.7,4.3,12.37,8.94,24.46,15.79,36.49-28.56,10.38-54.69,26.16-84.55,32.37-4.4.92-8.39,2.44-11.99,5.06"/>
      <path class="d" d="M868,446.98c-6.99,1.73-12.53,7.68-21.11,5.42-3.54-.93-8.81,1.74-11.88,5.58-.68,4.4,1.67,7.69,4.21,11.37,5.21-2.71,11.45-1.63,16.34-5.11,3.61,5.03-1.41,8.64-.46,13.13,2.56,5.97,8.08,6.61,14.69,6.62.7-5.74,4.21-9.26,9.9-9.97,1.87-5.3,1.2-10.69,1.36-16.53-6.74-.8-9.66-5.88-12.03-11.51"/>
      <path class="d" d="M581,671.98c-13.35,5.6-27.67,8.64-40.85,14.34-10.84,4.69-20.02,12.81-27.13,22.67-3.44,4.76-7.02,9.28-13.52,11.42-3.65,17.7,12.48,26.92,18.39,42.06-2.64,12.51-2.96,27.5.96,40.25,4.51,14.64,13.68,28.89,28.24,37.1,6.36,3.58,8.81,8.39,10.04,15.14,2.24,12.33,7.04,23.16,16.67,32.24,11.14,10.49,22.58,20.71,33.32,31.67,5.67,5.78,13.87,8.2,21.03,11.82,2.87,1.45,4.34,3.88,6.84,5.23.44,2.73-3.63,4.65-1.89,7,6.19,8.38,6.77,19.57,14.78,27.2,11.1,10.56,22.07,21.26,33.17,31.82,3.84,3.65,8.37,7.57,9.58,12.15,2.41,9.09,9.39,12.38,16.45,14.63,9.36,2.98,17.08,7.46,22.91,15.27"/>
      <path class="d" d="M281,164.98c5.73,6.95,12.75,11.17,21.99,12.13,7.68.8,11.84,9.54,19.99,9.61,7.27,23.98,31.7,22.71,47.74,33.65,8.17,6.36,11.79,17.7,23.23,20.77,1.48.4,3.07,2.22,3.18,4.83.2,4.8,4.32,8.42,7.89,8.7,16.02,1.28,20.43,12.69,24.5,26.02,8.42.75,14.17,6.05,17.76,14.99-4.22,5-11.78,5.43-16.59,10.6-9.86-4.79-18.27-1.09-25.65,5.74-10.22,9.47-24.46,14.47-31.05,27.95"/>
      <path class="d" d="M882,571.98c-3.8.24-5.96,3.4-9.51,5.59-5-5.98-12.82-9.9-11.43-19.99-3.53-.16-6.51-2.31-9.95-2.75-1.76,2.4-10.35,30.75-10.04,33.84,9.94-1.29,19.84-3.19,29.94-2.77,3.17.13,5.63.84,8.05,3.03,7.51,6.79,9.33,6.37,16.6-3.86-8.28-.64-9.57-7.63-12.65-13.08"/>
      <path class="d" d="M926,1082.98c2.47-39.67,1.15-79.33-.05-119-.22-7.4-2.46-14.57-3.08-21.99-1.29-15.31.31-30.26,4.24-44.98,1.09-4.07.53-8.03.83-10.93,14.37-14.59,28.48-28.34,46.97-35.34,9.57-.07,17.3,3.59,22.35,12.69-3.43,5.67.2,10.51,2.73,15.55-11.85,10.91-18.78,29.5-19,51,1.76,3.21,6.24,2.79,8.22,6.43-4.13,10.24-3.54,21.89-7.39,32.51-.65,1.8-1.37,4.05-.7,4.96,7.66,10.36-.02,22.55,4.01,33.04,4.25,11.08-.77,21.39-1.16,32.06-.28,3.89,4.14,4.83,5.48,7.88-4.02,8.11-6.2,16.46-7.5,25.11-3.04,20.11-7.28,40.01-10.78,60.04-.96,5.51-3.61,9.3-5.81,12.7-7.43,1.5-12.03-3.09-15.03-6.08-9.3-9.26-22.78-10.45-32.4-18.59-.58-.49-1.95-.06-2.95-.06"/>
      <path class="d" d="M442,811.98c-2.45.77-4.63,2.28-3.91,4.98,2.56,9.64-1.4,19.42,1.16,29.19,5.37,3.81,9.54-3.05,15.21-2.09,4.34,6.47,1.4,15.27,6.21,22.15,1.51,2.16,2.13,7.09,4.38,7.43,5.16.79,4.58,3.87,5.01,7.33,1.53,12.27,7.88,15.7,20.31,10.86-4.46-8.06-7.49-16.33-5.52-25.88.95-4.59-1.18-8.8-4.86-11.98-14.04-12.12-23.36-28.51-37-41"/>
      <path class="d" d="M602,406.98c-4.51,14.25-20.07,18.67-27.17,30.9-8.85,15.25-20.4,28.56-33.86,40.07-1.67,1.43-1.64,3.12-2.07,5.01-3.98,17.41-18.57,21.71-32.92,25.97-15.67,4.65-31.27,9.64-47.05,13.81-13.41,3.54-23.26,11.1-32,21.19-5.09,5.87-11.15,10.88-15.93,17.06"/>
      <path class="d" d="M432,798.98c-5.83-6.07-13.43-10.54-13.41-21,0-4.1-5.42-7.67-7.01-12-2.98.18-5.07-1.86-8.67-.55,1.08,4.75-1.16,9.5-2.22,15.18,6.83,7.52,9.5,19.38,22.3,21.47,3.54.58,6.91,2.58,9.02-2.11"/>
      <path class="d" d="M914,1121.98c-4.16,7.36-3.44,15.15-1.43,24.77-10.45.24-18.06-4.78-24.42-10.93-8.12-7.84-16.77-12.24-28.9-10.31-.47,13.97,7.86,25.99,7.77,40.47-14.96-1.86-16.23-16.39-24.7-23.4-8.64-7.15-20.57-11.05-24.66-22.34-3.49-1.12-5.89,1.31-8.67.74"/>
      <path class="d" d="M257,349.98c8.59,6.31,16.45,13.8,27.22,17.13,1.87,1.96.23,4.57.95,7.25,17.5.45,27.87,11.37,36.08,26.05,2.8,1.71,6.66-.26,9.87.91-.65,5.73,2.06,11.96-5.12,14.66"/>
      <path class="d" d="M726,675.98c2.01-5.42,6.64-2.12,10.01-2.97,8-2.02,15.84-4.53,23.96-6.19,11.35-2.31,22.34-4.06,33.05,2.13,3.9,2.25,7.64-2.08,12.07-.16,6.3,2.73,13.84,2.54,17.84,8.03,6.25.92,8.12-4.38,12.11-6.05,8.71,5.66,12.58,15.53,20.04,21.28-.63,16.27-1.19,31.62,6.59,45.19-3.71,4.72-11.48.58-12.71,8,.04,1.83,2.17,2.31,2.99,3.74,3.41.47,4.31-3.37,7.12-4.55,3.99,4.1,10.39,2.98,13.96,7.6.12,3.48-5.19,2.44-5.06,5.93,1.69,4.74,4.72,3.94,8.03,2.03"/>
      <path class="d" d="M316,602.98c-5.4-7.2-5.26-16.89-10.95-24.04-5.38-6.76-5.2-6.9-14.74-5.76,9.46,10.91,12.77,24.26,20.15,35.86,3.38.48,4.81-1.87,5.54-5.06"/>
      <path class="d" d="M768,815.98c-11.95,5.18-24.5,8.99-37.07,11.67-17.67,3.77-30.68,14.92-44.93,24.33"/>
      <path class="d" d="M697,493.98c9.88-3.25,18.35-.39,26.14,6.64,3.56-6.58,2.28-11.69-3.18-15.59-6.51-4.66-11.2-10.57-14.41-17.97,9.92-1.69,6.9,11.28,14.45,11.92,1.64-12.98-10.55-26.15-25.16-27.01-2.51-2.73-2.66-7.43-7.24-8.68-4.12-.17-4.18,4.44-6.89,6.97,1.13,2.68,3.14,5.38,2.12,8.82,6.01,4.58,13.46,4.69,20.17,6.9"/>
      <path class="d" d="M338,659.98c.26,1.62-1.17,2.69-2.03,2.9-15.84,3.93-15.89,18.76-21.22,29.64,8.99,12.83,20.16,23.6,23.55,39.39.85,3.95,4.42,8.03,9.69,9.12,8.6,1.79,17.06,4.41,26.28,2.39.8-1.68,1.69-3.88-1.9-5.78,5.09-4.99,7.36-9.93.75-15.78-5.37-4.75.16-12.25-3.14-17.82-3.85,1.73-7.97.6-11.94,1-6.81-11.46-3.58-25.79-10.94-37.11-2.11-3.25-1.63-8.37-7.09-8.94"/>
      <path class="d" d="M654,836.98c-1.16,1.57-2.66,2.56-3.16,4.97-2.93,13.98-12.32,24.09-20.39,35.35-8.77,12.24-17.53,24.52-26.45,36.68"/>
      <path class="d" d="M698,543.98c8.38-7.28,20.97-9.78,25.36-21.95-3.65-9.83-12.92-14.94-17.29-21.86-8.66-5.01-16.75-5.77-25.07-5.18"/>
      <path class="d" d="M768,956.98c10.81,16.39,19.15,34.1,26.84,52.07,3.06,7.17.68,15.27,1.16,22.93"/>
      <path class="d" d="M837,629.98c2.67-1.11,1.14-5.02,4.15-5.9,2.85-.64,4.36,2.26,7.09,3,2.83-7.89,5.85-15.7,13.22-20.41-2.28-4.43-4.59-7.75-7.85-9.67-6.48-.23-10.99,3.01-13.66,5.67-6.67,1.05-6.13-5.21-9.56-5.69-5.5,1.82-2.01,7.08-4.58,10.55,12.21,4.77,3.51,18.07,10.2,25.45"/>
      <path class="d" d="M977,1090.98c-21.55-3.63-43.3-5.63-65-8.02-14.04-1.55-27.99-3.7-39.98-12.02-6.82-4.73-12.52-3.74-20.24-.46-9.78,4.16-17.59,10.19-26.12,16.01-11.07,7.56-19.8,16.36-26.67,27.48"/>
      <path class="d" d="M867,1001.98c-18.96,8.38-38.54,15.51-55.99,27.01-8.26,5.44-17.93,4.55-27.03,5.86-14.04,2.02-27.69,5.27-40.98,10.13"/>
      <path class="d" d="M853,697.98c-15.08,13.45-27.53,29.24-39.4,44.22-3.08,25.25,1.74,49,6.4,72.78"/>
      <path class="d" d="M698,547.98c11.97-6.67,26.17-10.27,34.72-24.89,15.87-8.21,28.7-5.81,36.22,11.92.19.45-.02,1.54,1.08,1.94,14.75,5.3,15.06,18.92,17.76,31.99-3.96,7.21-12.49,3.57-18.79,6.15-6.11,3.34-9.06,9.54-13.26,14.83,8.47,4.54,18.1-.41,26.88,3.98.99,6.07.7,10.61-6.53,13.26-10.53,3.86-18.03,12.92-28.39,16.99,1.73,3.67,2.92,6.63,5.4,8.95-1.7,1.92-4.37,3.08-5.19,6.39,10.53,4.38,18.94,10.93,20.12,23.5"/>
      <path class="d" d="M144,62.98c8.47,16.17,1.68,32.67.79,48.99-.28,5.1-4.33,9.59-7.03,13.86-11.17,17.65-20.37,36.65-34.76,52.15"/>
      <path class="d" d="M732,1045.98c1.67,0,3.33,2.54,5.2-.37,1.89,3.13,3.15,6.36,4.8,9.37,10.02,2.77,16.29,9.04,17.05,17.56,9.47-.29,13.3,9.16,21.23,12.17,1.1,3.61,1.1,6.94-.15,11.05,8.09,3.9,15.21,9.49,17.97,19.2.58,2.05,2.86,2.33,4.91,2.02"/>
      <path class="d" d="M180,355.98c8.11,3.55,17.85,4.21,22.61,14.26,3.02-9.71,2-12.02-8.12-19.65-4.54,4.84-11.44-1.14-16.48,3.39"/>
      <path class="d" d="M697,545.98c-16.75,4.05-33.26-1.76-50.01-1.4-13.36.29-25.84,2.52-37.93,7.55-2.53,1.05-4.76.31-7.07.84"/>
      <path class="d" d="M880,794.98c1.01.66,1.4,2.36,3,1.98,11.84-2.76,24.48,1.6,36.59-4.1,11,6.4,24.4,3.1,36.42,7.12-.99,3.34-2.46,6.53-3.24,10.6,2.24,4.24,6.93,7.72,7.24,13.4,5.53,2.12,12.13,2.45,15.25,9.06-1.35,5.56-1.34,11.25-1.25,16.94"/>
      <path class="d" d="M925,992.98c-18.59.3-36.47,6.25-55,7"/>
      <path class="d" d="M982,996.98c-12.47,1.87-24.73-.7-36.98-2.17-6-.72-12.08-.61-18.02-1.83"/>
      <path class="d" d="M298,599.98c3.39,4.63,6.7,9.31,10.09,13.94,4.74,6.47,3.89,11.26-2.81,15.17-7.56-.53-13.47-4.21-20.31-8.73,9.51-.97,5.9-8.62,7.95-13.41,1.23-2.88-2.2-7.39,3.08-8.97"/>
      <path class="d" d="M878,757.98c7.66.69,12.46,5.41,12.96,13,.22,3.32.04,6.66.04,10.57-9.96,13.08-26.04,19.88-35.07,31.27-29.79,6.07-57.91,3.53-85.93,4.15"/>
      <path class="d" d="M703,467.98c-11.08,2.04-21.52,2.19-25.88-11.04-1.18-3.58-3.5-1.17-5.12-1.97-2.17,3.35-2.35,7.24-1.98,10.38-3.95,2.42-7.41,3.26-10.02,5.62"/>
      <path class="d" d="M794,885.98c-16.27,4.52-28.65,15.57-42,25"/>
      <path class="d" d="M838,481.98c-3.83-1.84-7.47-4.25-12-4-.98,7.59,4.83,20.95,11.73,23.68-3.06-6.91-4.25-13.11.27-18.68"/>
      <path class="d" d="M32,1.98c-3.82-.32-2.18,3.72-4.06,5.05-4.75.41-5.13-6.51-10.93-6-.24,7.67,4.91,11.79,8.6,15.56,6.48,1.87,7.22-6.23,12.37-4.39.31-4.53-1.88-7.6-4.98-10.21"/>
      <path class="d" d="M817,445.98c12.21,4.56,1.61,12.73,3.83,17.79-3.66,5.31-8.53,1.87-12.2,3.84-1.69-3.26-5.77-5.79-5.66-11.62,3.73-3.42,10.63-4.05,13.03-10"/>
      <path class="d" d="M664,433.98c3.05,8.9-1.05,18.06,1.09,27.14,1.78,2.8,6.38,1.37,8.02,6.32.52,7.71-7.68,5.12-12.11,7.54"/>
      <path class="d" d="M662,432.98c-4.05.45-8.16.04-9.89-4.05-2.79-6.58-9.09-2.47-13.27-6.09,3.53,14.34,1.86,27.79,2.21,41.2,2.59,3.1,6.64,3.9,9.95,5.94.85,2.77-2.11,4.44-2.17,7.58,3.93,3.78,6.64,8.9,9.91,13.46,7.48-.56,13.11,5.27,20.27,4.95"/>
      <path class="d" d="M786,475.98c0-2-2.66-4,.33-6.25,8.83,2.95,10.73,12.51,19.01,19.2-6.63.09-10.99.04-15.35.06-1.51-3.94-7.45-6.41-4-12"/>
      <path class="d" d="M330,565.98c2.34-1.44,2.92-4.35,5-6-4.02-2.83-25.95-.56-29.31,3.37,7.17,3.41,13.93,7.58,22.31,4.63"/>
      <path class="d" d="M183,365.98c-1.9,2.74-4.33,5.09-6.49,8.21,3.83,1.16,7.16,1.16,10.4.18.57-3.61-.45-6.27-2.91-8.39"/>
      <path class="d" d="M1079,854.98v-6.31c-3.34-1.91-6.71-4.07-11-3.69-3.94,1.57-2.89,5-3,8.29,4.22,1.2,8.54,2.25,13,2.71"/>
      <path class="d" d="M642,459.98c7.3,3.87,16.41,5.71,18.01,16-2.38,1.26-4.94,2.2-7.01,4"/>
      <path class="d" d="M741,518.98c0-.67-.11-1.36.02-2,1.11-5.39-1.11-10.72-6.01-10.57-6.71.2-7.17,5.98-5.8,9.85,1.84,3.91,4.72,1.54,5.78,3.72"/>
      <path class="d" d="M757,452.98c8.4,2.26,5.24,8.65,6.24,14.48-7.23-2.84-9.09-7.43-8.24-13.48"/>
      <path class="d" d="M1,10.98c2.3,2.57,1.53,6.5,4.39,10.01,2.87-5.84,1.95-9.53-3.39-12.01"/>
      <path class="d" d="M600,365.98c-3.01,1.12-5.04,3.81-9.4,4.54-3.93-2.31-10.15-1.31-15.28-4.33-8.12,5.71-6.04,13.6-6.36,21.76,3.51,2.57,5.65,7.54,11.04,9.03,14.24,3.96,18.89.73,22.29-13.95.67-2.91-.76-6.5,2.43-9.38,1.05-.94,2.64-7.53-3.72-7.68"/>
      <path class="d" d="M759,476.98c-4.26,1.44-5.14,4.5-2.92,7.95,3.47,5.39,7.78,10.13,13.03,16.44,2.14-5.73,3.44-9.11-.12-12.38-3.54-3.24-6.57-6.87-8.99-11.01"/>
    </g>
  </g>
</svg>