<svg xmlns="http://www.w3.org/2000/svg" width="1600" height="800" viewBox="0 0 1600 800">
<rect width="100%" height="100%" fill="#fafafa"/>
<path d="M 158.84 168.14 C 159.83 168.28 160.74 168.2 161.6 168 C 167.21 178.61 162.96 188.81 162.39 198.89 C 162.19 202.04 159.7 204.82 158.02 207.47 C 151.02 218.38 145.29 230.16 136.33 239.71 C 130.49 234.47 124.21 229.44 119.59 222.98 C 111.45 221.67 112.65 211.9 106.57 208.73 C 107.58 200.7 100.93 198.89 95.85 195.79 C 94.42 191.7 94.5 186.57 92.08 183.54 C 84.89 174.62 86.46 164.29 84.62 154.15 C 91.64 152.98 92.58 147.23 95.58 142.73 C 112.17 140.96 121.34 152.67 131.33 162.59 C 138.35 161.61 144.31 163.17 148.53 168.93 C 152.19 167.76 155.61 167.7 158.84 168.14 Z" fill="#f9414433" stroke="#f94144" stroke-width="1.2"/>
<text x="125.35" y="186.69" fill="#111" font-size="12" font-family="Arial" stroke="white" stroke-width="2" paint-order="stroke">A01</text>
<path d="M 132.46 317.57 C 130.09 318.98 127.29 320.15 129.34 323.74 C 132.94 322.51 135.61 323.32 138.59 324.88 C 142.94 327.05 145.29 332.43 150.94 331.95 L 150.93 340.36 C 148.19 340.17 145.64 341.28 142.16 341.02 C 136.96 334.83 130.57 329.44 121.81 330.47 C 119.57 328.55 119.2 326.08 117.22 325.64 C 114.55 325.32 112.18 325.94 109.95 325.13 C 108.53 320.92 106.79 317.02 103.69 314.29 C 104.88 310.52 109.85 309.98 108.93 306.08 C 116.39 305.1 120.29 309.44 123.08 314.27 C 125.81 315.14 127.12 312.24 129.36 313.36 C 129.79 315.09 132.02 315.71 132.46 317.57 Z" fill="#f3722c33" stroke="#f3722c" stroke-width="1.2"/>
<text x="125.68" y="322.76" fill="#111" font-size="12" font-family="Arial" stroke="white" stroke-width="2" paint-order="stroke">A02</text>
<path d="M 141.29 248.38 C 139.72 245.47 137.79 242.88 135.67 240.44 C 145.29 230.16 151.02 218.38 157.99 207.52 C 158.02 207.54 168.45 209.35 172.49 212.57 C 186.32 223.67 198.41 236.68 211.5 248.58 C 223.47 259.49 234.26 271.69 247.72 281.49 C 248.39 281.97 248.99 282.45 249.65 282.88 C 243.28 297.56 235.18 311.52 229.37 326.54 C 230.04 331.24 229.85 336.12 230.83 340.7 C 231.25 342.64 231.23 344.17 230.8 345.41 C 230.09 347.32 228.56 348.55 226.28 349.66 C 223.24 345.57 220.39 341.61 216.86 338.32 C 215.62 337.15 214.87 335.97 215.12 334.55 C 216.7 325.27 210.68 317.04 211.88 307.89 C 206.85 308.43 204.68 303.11 200.21 303.54 C 196.25 295.24 188.49 289.91 183.47 282.48 C 179.77 271.65 171.89 264.77 164.88 257.39 C 159.54 258.43 154.81 259.42 149.16 258.66 C 146.12 256.18 143.45 252.47 141.29 248.38 Z" fill="#f8961e33" stroke="#f8961e" stroke-width="1.2"/>
<text x="196.19" y="267.98" fill="#111" font-size="12" font-family="Arial" stroke="white" stroke-width="2" paint-order="stroke">A03</text>
<path d="M 248.72 280.07 C 247.79 281.36 247.72 281.36 247.72 281.36 C 234.26 271.69 223.47 259.49 211.5 248.58 C 198.41 236.68 186.32 223.67 172.49 212.57 C 168.45 209.35 158.02 207.54 158.02 207.54 C 159.7 204.82 162.19 202.04 162.39 198.89 C 162.96 188.81 167.21 178.61 161.95 168.58 C 164.43 167.29 166.66 165.39 169.41 164.89 C 174.69 163.91 179.91 164.1 184.94 165.16 C 187.74 165.72 188.48 169.37 189.53 171.73 C 196.55 171.06 202.21 167.36 207.87 164.71 C 212.34 170.29 215.68 175.55 221.02 178.53 C 232.07 184.73 234.84 195.07 235.88 206.45 C 235.94 206.88 236.68 207.25 237.37 207.94 C 238.67 206.7 240.41 207.14 242.34 207.08 C 244.01 210.61 247.36 212.59 251.33 214.15 C 248.26 219.48 246.71 224.92 246.02 230.46 C 245.53 234.37 245.48 238.33 245.62 242.34 C 245.8 247.66 246.41 252.36 249.14 257.31 C 253.1 264.55 253.89 272.59 248.72 280.07 Z" fill="#f9844a33" stroke="#f9844a" stroke-width="1.2"/>
<text x="209.62" y="213.05" fill="#111" font-size="12" font-family="Arial" stroke="white" stroke-width="2" paint-order="stroke">A04</text>
<path d="M 178.15 384.54 C 182.98 380.76 197.47 377.52 205.18 381.6 C 227.93 393.66 273.43 445.92 287.15 472.15 C 290.66 478.88 289.57 489.19 286.12 499.66 C 284.66 504.09 276.7 520.32 262.07 525.86 C 256.11 528.12 251.64 527.38 248.87 525.32 C 233.03 513.51 232.87 491.3 219.41 469.3 C 201.13 439.44 194.68 434.48 177.77 410.66 C 174.84 406.56 169.16 391.62 178.15 384.56 Z" fill="#f9c74f33" stroke="#f9c74f" stroke-width="1.2"/>
<text x="235.82" y="450.79" fill="#111" font-size="12" font-family="Arial" stroke="white" stroke-width="2" paint-order="stroke">A05</text>
<path d="M 280.53 539.81 C 281.02 539.69 281.96 539.01 281.77 538.02 L 283.14 537.4 C 286.56 537.72 286.24 540.93 287.54 542.91 C 292.06 549.91 290.06 558.75 294.27 565.87 C 296.69 565.63 299.24 566.31 301.67 565.27 C 303.71 568.73 300.22 573.3 303.57 576.28 C 307.66 579.94 306.23 582.96 303.05 586.05 C 305.29 587.23 304.73 588.59 304.23 589.64 C 298.51 590.86 293.23 589.25 287.89 588.12 C 284.6 587.44 282.43 584.96 281.87 582.48 C 279.84 572.71 272.9 566.02 267.32 558.09 C 270.63 551.42 270.71 542.2 280.53 539.81 Z" fill="#90be6d33" stroke="#90be6d" stroke-width="1.2"/>
<text x="286.52" y="565.61" fill="#111" font-size="12" font-family="Arial" stroke="white" stroke-width="2" paint-order="stroke">A06</text>
<path d="M 247.72 281.36 C 247.72 281.36 247.79 281.36 248.72 280.07 C 253.89 272.59 253.1 264.55 249.14 257.31 C 246.41 252.36 245.8 247.66 245.62 242.34 C 245.48 238.33 245.53 234.37 246.02 230.46 L 246.95 231.83 C 250.48 236.1 254.89 238.77 260.6 239.34 C 265.39 239.84 267.93 245.22 273.02 245.3 C 277.53 260.15 292.69 259.37 302.62 266.13 C 307.71 270.1 309.93 277.09 317.01 279.02 C 317.94 279.27 318.93 280.39 318.99 282 C 319.11 284.97 321.65 287.2 323.89 287.39 C 333.83 288.21 336.55 295.27 339.08 303.5 C 344.3 304 347.9 307.22 350.12 312.79 C 347.76 315.57 343.72 316.06 340.73 318.46 C 340.72 318.47 340.71 318.48 340.7 318.49 C 340.26 318.84 339.94 319.1 339.71 319.29 C 333.6 316.37 328.41 318.65 323.88 322.82 C 317.53 328.69 308.64 331.76 304.59 340.1 L 304.27 341.28 C 302.6 339.32 300.63 337.51 298.44 335.7 C 288.08 327.14 277.48 318.71 269.11 308 C 263.03 300.19 256.41 290.1 249.71 282.79 C 248.99 282.45 248.39 281.97 247.72 281.49 Z" fill="#43aa8b33" stroke="#43aa8b" stroke-width="1.2"/>
<text x="291.3" y="290.28" fill="#111" font-size="12" font-family="Arial" stroke="white" stroke-width="2" paint-order="stroke">A07</text>
<path d="M 230.8 345.41 C 231.23 344.17 231.25 342.64 230.83 340.7 C 229.85 336.12 230.04 331.24 229.37 326.54 C 235.18 311.52 243.28 297.56 249.71 282.91 C 256.41 290.1 263.03 300.19 269.11 308 C 277.48 318.71 288.08 327.14 298.44 335.7 C 300.63 337.51 302.6 339.32 304.17 341.35 C 305.73 343.36 306.91 345.6 307.55 348.27 C 309.1 354.58 312.69 358.86 318.71 361.28 C 325.73 364.14 330.63 369.65 334.78 375.6 C 342.28 386.37 352.26 394.93 361.07 404.53 C 366.09 410.04 370.3 416.05 374.52 421.99 C 379.91 429.61 389.22 433.4 393.8 441.82 C 391.56 443.21 388.91 443.99 386.28 444.77 C 378.02 447.18 369.77 449.77 361.43 452.07 C 359.98 452.47 358.52 452.87 357.06 453.25 C 348.73 455.4 342.57 460.09 337.15 466.32 C 333.97 469.97 330.24 473.05 327.25 476.88 C 324.64 474.71 321.73 472.79 317.94 473.21 C 313.65 473.64 310.92 471.78 308.69 468.68 C 306.82 470.53 305.02 472.08 302.47 472.57 C 297.2 465.01 298.33 457.59 302.76 450.24 C 299.1 446.52 293.13 448.06 289.35 443.04 C 289.8 434.82 289.32 425.91 285.36 417.24 C 281.9 409.51 282.66 400.05 275.47 393.6 C 274.66 392.86 272.37 390.19 273.43 387.66 L 274.67 387.04 C 279.15 385.38 277.48 381.48 277.86 377.96 C 275.87 377.21 273.45 378.45 271.71 377.39 C 266.63 368.35 260.18 361.6 249.31 361.27 C 248.81 359.66 249.87 358.05 248.7 356.81 C 242.05 354.76 237.15 350.11 231.82 346.21 L 230.85 345.47 Z" fill="#4d908e33" stroke="#4d908e" stroke-width="1.2"/>
<text x="304.77" y="390.37" fill="#111" font-size="12" font-family="Arial" stroke="white" stroke-width="2" paint-order="stroke">A08</text>
<path d="M 314.86 594.38 C 318.78 591.47 324.1 592.53 327.38 594.56 C 334.27 598.84 353.36 617.56 366.45 635.31 C 384.4 659.67 383.26 662.66 385.08 671.76 C 385.62 674.48 386.58 686.53 378.77 691.63 C 369.6 697.6 352.34 683.64 347.49 677.01 C 330.26 653.51 318.77 634.92 314.85 619.7 C 312.56 610.79 309.48 598.33 314.85 594.37 Z" fill="#57759033" stroke="#577590" stroke-width="1.2"/>
<text x="348.89" y="644.88" fill="#111" font-size="12" font-family="Arial" stroke="white" stroke-width="2" paint-order="stroke">A09</text>
<path d="M 438.72 379.51 C 441.48 379.64 443.97 380.39 446.23 381.59 C 443.3 390.65 433.6 393.35 429.17 400.89 C 425.71 406.78 421.62 412.2 416.99 417.16 C 414.21 420.15 411.22 422.98 408.06 425.65 C 407 426.51 407 427.56 406.75 428.74 C 404.99 436.3 399.98 439.85 394.07 442.21 C 389.22 433.4 379.91 429.61 374.52 421.99 C 370.3 416.05 366.09 410.04 361.07 404.53 C 352.26 394.93 342.28 386.37 334.78 375.6 C 330.63 369.65 325.73 364.14 318.71 361.28 C 312.69 358.86 309.1 354.58 307.55 348.27 C 306.91 345.6 305.73 343.36 304.17 341.35 L 304.59 340.1 C 308.64 331.76 317.53 328.69 323.88 322.82 C 328.41 318.65 333.6 316.37 339.71 319.29 C 339.94 319.1 340.26 318.84 340.7 318.49 C 342.4 321.56 345.01 320.76 347.12 321.88 C 348.8 321.2 349.37 318.42 351.85 318.61 C 354.21 318 354.39 321.71 355.33 321.46 C 358.87 320.91 360.74 319.43 364.28 320.18 C 363.2 330.75 371.26 338.56 374.22 348.83 C 382.55 351.32 386.75 360.67 395.76 362.97 C 394.52 357.96 391.43 354.06 389.69 349.67 C 394.49 341.14 401.95 339.61 411.08 341.54 C 408.96 346.36 410.88 349.71 414.48 352.81 C 417.71 355.53 420.56 358.76 423.47 361.67 C 422.34 366.24 421.03 370.38 423.08 373.36 C 428.35 377.39 433.07 379.25 438.72 379.51 Z" fill="#277da133" stroke="#277da1" stroke-width="1.2"/>
<text x="374.85" y="373.88" fill="#111" font-size="12" font-family="Arial" stroke="white" stroke-width="2" paint-order="stroke">A10</text>
<path d="M 435.87 500.78 C 434.29 508.11 433 515.63 431.42 523.22 C 434.51 529.52 431.29 537.65 434.03 545.73 L 432.75 545.73 C 424.48 549.12 415.52 551.02 407.38 554.53 C 400.66 557.42 394.94 562.42 390.51 568.53 C 388.39 571.5 386.15 574.27 382.11 575.57 C 377.95 572.4 377.15 568.57 378.65 564.24 C 373.69 562.44 371.77 556.81 366.74 555.44 C 367.24 552.65 370.85 552.23 369.74 548.52 C 367.01 546.72 366.14 543.13 364.91 539.48 C 361.14 528.65 350.84 521.33 348.13 509.76 C 347.82 508.46 345.09 507.53 343.35 506.6 C 340.18 504.8 337.08 503 333.98 500.83 C 334.85 497.24 332.37 494.89 330.14 492.59 C 331.57 490.99 332.69 489.63 333.75 487.72 C 331.46 485.24 330.28 482.14 328.43 479.36 C 327.93 478.68 329.11 479.91 326.88 477.31 C 330.24 473.05 333.97 469.97 337.15 466.32 C 342.57 460.09 348.73 455.4 357.06 453.25 C 358.52 452.87 359.98 452.47 361.43 452.07 C 365.55 464.59 375.79 472.52 383.16 482.56 C 383.47 483.05 384.15 483.3 384.34 483.79 C 389.41 496.42 401.28 495.7 411.71 497.33 C 419.54 498.52 427.56 498.6 435.32 500.59 Z" fill="#ff006e33" stroke="#ff006e" stroke-width="1.2"/>
<text x="382.07" y="513.13" fill="#111" font-size="12" font-family="Arial" stroke="white" stroke-width="2" paint-order="stroke">A11</text>
<path d="M 417.03 417.19 L 418.08 418.31 C 420.93 420.6 422.79 424.07 426.7 425.25 C 428.07 425.68 428.75 427.6 429.43 429.4 C 432.09 436.64 434.68 443.88 438.71 450.75 C 441.62 455.7 444.9 461.77 444.08 468.45 C 443.89 469.87 444.14 471.17 445.32 472.16 C 440.69 481.22 438.01 490.84 435.87 500.77 C 427.56 498.6 419.54 498.52 411.71 497.33 C 401.28 495.7 389.41 496.42 384.34 483.79 C 384.15 483.3 383.47 483.05 383.16 482.56 C 375.79 472.52 365.55 464.59 361.47 452.21 C 369.77 449.77 378.02 447.18 386.28 444.77 C 388.91 443.99 391.56 443.21 394.05 442.22 C 399.98 439.85 404.99 436.3 406.75 428.74 C 407 427.56 407 426.51 408.06 425.65 C 411.22 422.98 414.21 420.15 416.99 417.16 Z" fill="#8338ec33" stroke="#8338ec" stroke-width="1.2"/>
<text x="409.3" y="464.02" fill="#111" font-size="12" font-family="Arial" stroke="white" stroke-width="2" paint-order="stroke">A12</text>
<path d="M 490.23 555.33 C 490.22 565.01 491.41 574.61 491.02 584.25 C 490.82 588.58 493.36 592.35 493.6 597.55 C 485.87 612.69 469.57 621.19 459.98 633.91 C 444.59 640.28 430.89 646.48 416.94 652.13 L 415.36 652.69 C 414.41 651.44 413.19 650.39 411.54 649.46 C 402.54 644.37 396.84 635.52 394.07 626.49 C 391.6 618.63 391.86 609.35 393.49 601.62 C 389.85 592.22 379.85 586.51 382.11 575.57 C 386.15 574.27 388.39 571.5 390.51 568.53 C 394.94 562.42 400.66 557.42 407.38 554.53 C 415.52 551.02 424.48 549.12 432.75 545.73 L 434.03 545.73 C 452.75 545.03 470.46 550.68 490.23 555.33 Z" fill="#3a86ff33" stroke="#3a86ff" stroke-width="1.2"/>
<text x="437.57" y="593.66" fill="#111" font-size="12" font-family="Arial" stroke="white" stroke-width="2" paint-order="stroke">A13</text>
<path d="M 416.94 652.13 C 430.89 646.48 444.59 640.28 459.43 634.14 L 459.91 634.84 C 464.83 640.85 471.41 644.31 478.12 647.5 C 477.22 648.79 476.29 649.4 475.97 650.89 C 474.16 659.48 468.3 665.71 463.26 672.69 C 457.77 680.29 452.29 687.82 446.75 695.36 C 440.32 690 434.1 684.44 428.08 678.75 C 422.06 673.17 419.09 666.42 417.74 658.81 C 417.31 656.41 416.63 654.39 415.36 652.69 L 416.94 652.13 Z" fill="#fb560733" stroke="#fb5607" stroke-width="1.2"/>
<text x="446.45" y="661.89" fill="#111" font-size="12" font-family="Arial" stroke="white" stroke-width="2" paint-order="stroke">A14</text>
<path d="M 481.13 467.64 L 481.36 468.52 C 484.08 478.61 481.69 488.74 481.12 498.82 C 480.67 505.63 478.79 512.18 482.44 518.68 C 486.04 524.99 487.89 531.99 489.3 539.1 C 490.1 543 490.53 547.02 490.34 550.85 C 490.27 552.35 490.24 553.84 490.23 555.33 C 470.46 550.68 452.75 545.03 434.05 545.8 C 431.29 537.65 434.51 529.52 431.42 523.22 C 433 515.63 434.29 508.11 435.87 500.78 C 438.01 490.84 440.69 481.22 445.32 472.16 C 447.37 471.92 448.79 472.35 450.35 471.74 C 457.87 468.66 465.58 467.32 473.91 467.15 C 476.29 467.09 478.67 467.24 481.04 467.48 Z" fill="#ffbe0b33" stroke="#ffbe0b" stroke-width="1.2"/>
<text x="460.9" y="511.76" fill="#111" font-size="12" font-family="Arial" stroke="white" stroke-width="2" paint-order="stroke">A15</text>
<path d="M 464.72 396.13 C 466.21 397.99 467.33 400.1 469.69 401.09 C 470.91 410.24 470.11 408.94 470.28 417.23 C 471.89 419.15 474.37 419.65 476.48 420.89 C 476.98 422.63 475.17 423.61 475.11 425.59 C 477.53 427.94 479.2 431.1 481.24 433.95 C 485.9 433.59 489.37 437.24 493.85 437.07 L 495.09 436.45 C 500.25 436.09 505.28 436.59 510.68 439.7 C 513.41 443.97 519.12 447.14 521.41 453.26 C 518.66 460.8 510.83 462.33 505.6 466.84 L 505.05 467.92 C 497.14 469.91 489.42 468.34 481.67 467.54 C 478.67 467.24 476.29 467.09 473.91 467.15 C 465.58 467.32 457.87 468.66 450.35 471.74 C 448.79 472.35 447.37 471.92 445.94 472.23 C 444.14 471.17 443.89 469.87 444.08 468.45 C 444.9 461.77 441.62 455.7 438.71 450.75 C 434.68 443.88 432.09 436.64 429.43 429.4 C 428.75 427.6 428.07 425.68 426.7 425.25 C 422.79 424.07 420.93 420.6 418.08 418.31 L 417.03 417.19 C 421.62 412.2 425.71 406.78 429.17 400.89 C 433.6 393.35 443.3 390.65 446.11 381.81 C 449.32 383.24 451.96 385.75 454.18 388.75 C 455.23 390.12 456.03 391.79 457.4 393.09 C 460.44 392.41 462.87 393.84 464.72 396.13 Z" fill="#8ac92633" stroke="#8ac926" stroke-width="1.2"/>
<text x="464.08" y="434.76" fill="#111" font-size="12" font-family="Arial" stroke="white" stroke-width="2" paint-order="stroke">A16</text>
<path d="M 478.46 647.66 C 481.87 649.28 485.32 650.84 488.58 652.64 C 491.51 654.26 494.37 655.97 497.18 657.75 C 506.89 663.9 516.04 670.82 525.57 677.27 C 531.41 681.19 535.05 687.52 537.71 694.14 C 538.29 695.61 538.76 696.87 539.2 698.13 C 541.86 705.81 544.7 713.3 548.97 720.73 C 548.65 720.84 548.33 720.96 548.01 721.08 C 530.59 727.48 514.61 736.93 496.43 740.66 C 493.69 741.21 491.21 742.13 488.97 743.8 C 483.62 739.38 478.8 734.73 473.96 730.1 C 469 725.39 468.64 718.47 464.79 713.26 C 463.74 711.84 466.23 710.61 465.98 708.94 C 464.43 708.13 463.56 706.65 461.76 705.71 C 457.36 703.48 452.26 701.98 448.73 698.39 C 447.9 697.54 447.07 696.7 446.23 695.87 C 452.29 687.82 457.77 680.29 463.26 672.69 C 468.3 665.71 474.16 659.48 475.97 650.89 C 476.29 649.4 477.22 648.79 477.97 647.8 Z" fill="#1982c433" stroke="#1982c4" stroke-width="1.2"/>
<text x="497.12" y="698.83" fill="#111" font-size="12" font-family="Arial" stroke="white" stroke-width="2" paint-order="stroke">A17</text>
<path d="M 491.02 584.25 C 491.41 574.61 490.22 565.01 490.23 555.33 C 499.53 553.71 511.39 555.47 520.97 547.2 C 521.41 547.63 521.8 548.08 522.16 548.54 C 526.07 553.99 525.79 560.11 528.15 565.21 C 528.89 566.88 529.26 568.99 530.19 570.66 C 534.4 578.58 536 587.06 535.79 596.02 C 535.66 602.39 539.25 607.84 542.04 613.23 C 544.33 617.69 545.68 622.14 546.98 626.91 C 547.71 629.55 548.5 632.18 549.35 634.8 C 541.3 638.21 533.53 640.55 525.7 642.2 C 514.7 644.53 506.61 651.38 497.77 657.18 C 494.37 655.97 491.51 654.26 488.58 652.64 C 485.32 650.84 481.87 649.28 478.46 647.66 C 471.41 644.31 464.83 640.85 459.91 634.84 L 459.44 634.13 C 469.57 621.19 485.87 612.69 493.6 597.55 C 493.36 592.35 490.82 588.58 491.02 584.25 Z" fill="#6a4c9333" stroke="#6a4c93" stroke-width="1.2"/>
<text x="508.28" y="608.29" fill="#111" font-size="12" font-family="Arial" stroke="white" stroke-width="2" paint-order="stroke">A18</text>
<path d="M 481.36 468.52 L 481.13 467.64 C 489.42 468.34 497.14 469.91 504.97 468.07 L 505.59 469.12 C 512.99 465 521.88 462.79 527.18 453.77 C 537.07 448.72 545.02 450.22 549.66 461.17 C 549.79 461.42 549.66 462.1 550.34 462.35 C 559.53 465.64 559.7 474.05 561.36 482.16 C 558.87 486.67 553.59 484.37 549.68 485.97 C 545.88 488 544.01 491.83 541.39 495.11 C 546.67 497.96 552.64 494.88 558.1 497.61 C 558.72 501.39 558.53 504.17 554.05 505.83 C 547.52 508.23 542.85 513.79 536.38 516.31 C 537.43 518.6 538.18 520.46 539.73 521.88 C 538.67 523.05 536.99 523.79 536.49 525.83 C 543.01 528.57 548.28 532.6 549.01 540.39 L 549.01 541.75 C 547.34 542.07 545.66 542.39 543.97 542.73 C 538.88 543.77 534.03 545.31 529.05 546.54 C 526.94 547.09 524.09 545.04 522.84 548.38 C 521.8 548.08 521.41 547.63 520.97 547.2 C 511.39 555.47 499.53 553.71 490.64 555.43 C 490.24 553.84 490.27 552.35 490.34 550.85 C 490.53 547.02 490.1 543 489.3 539.1 C 487.89 531.99 486.04 524.99 482.44 518.68 C 478.79 512.18 480.67 505.63 481.12 498.82 C 481.69 488.74 484.08 478.61 481.36 468.52 Z" fill="#ef476f33" stroke="#ef476f" stroke-width="1.2"/>
<text x="518.05" y="502.5" fill="#111" font-size="12" font-family="Arial" stroke="white" stroke-width="2" paint-order="stroke">A19</text>
<path d="M 559.83 662.24 C 561.34 667.83 563.24 673.03 565.66 677.83 L 564.84 678.33 C 554.7 681.09 546.99 687.94 538.71 693.74 L 537.85 694.31 C 535.05 687.52 531.41 681.19 525.57 677.27 C 516.04 670.82 506.89 663.9 497.19 657.76 C 506.61 651.38 514.7 644.53 525.7 642.2 C 533.53 640.55 541.3 638.21 548.77 635.01 C 549.45 635.11 549.55 635.42 549.65 635.73 C 552.55 644.51 556.06 653.12 559.77 661.62 Z" fill="#06d6a033" stroke="#06d6a0" stroke-width="1.2"/>
<text x="535.55" y="662.32" fill="#111" font-size="12" font-family="Arial" stroke="white" stroke-width="2" paint-order="stroke">A20</text>
<path d="M 496.43 740.66 C 514.61 736.93 530.59 727.48 548 721.08 C 554.69 731.22 560.49 743.34 565.25 754.4 C 567.17 758.86 565.67 763.86 565.97 768.56 L 565.96 769.61 C 563.45 769.96 560.88 770.05 558.38 770.4 C 549.71 771.62 537.64 774 529.37 777 C 528.16 778.68 527.2 777.26 526.18 777.21 C 522.59 772.31 516.57 768.28 510.73 766.42 C 506.32 765.05 501.98 763 500.5 757.37 C 499.76 754.52 496.9 752.1 494.55 749.81 C 492.52 747.89 490.49 745.96 488.47 744.02 C 491.21 742.13 493.69 741.21 496.43 740.66 Z" fill="#118ab233" stroke="#118ab2" stroke-width="1.2"/>
<text x="532.88" y="751" fill="#111" font-size="12" font-family="Arial" stroke="white" stroke-width="2" paint-order="stroke">A21</text>
<path d="M 610.72 749.69 C 610.79 750.05 610.86 750.42 610.92 750.78 C 613.26 764.2 608.89 777.18 609.36 790.42 C 606.36 790.42 603.72 791.13 600.53 792.44 C 594.44 795.09 589.58 798.79 584.29 802.36 C 577.39 807.05 571.97 812.48 567.67 819.34 C 565.38 813.95 560.98 810.48 555.95 808.06 C 556.76 805.48 556.77 803.45 556.1 801.24 C 551.12 799.39 548.77 793.51 542.87 793.69 C 542.44 788.37 538.53 784.53 532.32 782.78 C 531.34 780.94 530.54 778.91 529.37 777 C 537.64 774 549.71 771.62 558.38 770.4 C 560.88 770.05 563.45 769.96 565.97 769.67 C 569.16 769.31 572.29 768.64 575.17 766.79 C 586.05 759.7 610.74 749.85 610.74 749.85 Z" fill="#073b4c33" stroke="#073b4c" stroke-width="1.2"/>
<text x="576.87" y="782.39" fill="#111" font-size="12" font-family="Arial" stroke="white" stroke-width="2" paint-order="stroke">A22</text>
<path d="M 528.15 565.21 C 525.79 560.11 526.07 553.99 522.53 549.04 C 524.09 545.04 526.94 547.09 529.05 546.54 C 534.03 545.31 538.88 543.77 543.97 542.73 C 545.66 542.39 547.34 542.07 549 541.83 C 554.4 541.08 559.49 541.18 564.48 544.07 C 566.9 545.43 569.2 542.78 571.99 543.96 C 575.91 545.64 580.57 545.52 583.04 548.93 C 586.9 549.49 588.08 546.22 590.57 545.23 C 595.97 548.77 598.38 554.83 602.97 558.43 C 602.94 559.17 602.91 559.92 602.89 560.66 L 601.72 562.08 C 592.32 570.41 584.6 580.1 577.19 589.36 C 575.23 604.94 578.19 619.67 581.08 634.39 L 581.25 635.41 C 570.26 635.86 560.09 635.4 549.94 635.63 C 549.55 635.42 549.45 635.11 549.35 634.8 C 548.5 632.18 547.71 629.55 546.98 626.91 C 545.68 622.14 544.33 617.69 542.04 613.23 C 539.25 607.84 535.66 602.39 535.79 596.02 C 536 587.06 534.4 578.58 530.19 570.66 C 529.26 568.99 528.89 566.88 528.15 565.21 Z" fill="#e76f5133" stroke="#e76f51" stroke-width="1.2"/>
<text x="560.25" y="581.95" fill="#111" font-size="12" font-family="Arial" stroke="white" stroke-width="2" paint-order="stroke">A23</text>
<path d="M 565.66 677.83 C 568.39 683.24 571.79 688.15 576.06 692.58 C 586.47 703.3 597.64 713.34 605.82 726.03 C 608.11 729.56 610.09 732.84 609.46 737.23 C 608.92 741.16 609.8 745.13 610.56 748.92 L 610.71 749.69 C 610.74 749.85 586.05 759.7 575.17 766.79 C 572.29 768.64 569.16 769.31 565.97 769.67 L 565.97 768.56 C 565.67 763.86 567.17 758.86 565.25 754.4 C 560.49 743.34 554.69 731.22 548.01 721.08 C 548.33 720.96 548.65 720.84 548.97 720.73 C 544.7 713.3 541.86 705.81 539.2 698.13 C 538.76 696.87 538.29 695.61 537.79 694.35 L 538.71 693.74 C 546.99 687.94 554.7 681.09 564.84 678.33 L 565.65 677.84 Z" fill="#2a9d8f33" stroke="#2a9d8f" stroke-width="1.2"/>
<text x="574.38" y="723.58" fill="#111" font-size="12" font-family="Arial" stroke="white" stroke-width="2" paint-order="stroke">A24</text>
<path d="M 601.72 562.08 L 602.71 560.89 C 602.55 570.08 602.59 578.67 607.02 586.39 C 604.71 589.29 599.87 586.75 599.12 591.32 C 599.12 592.44 600.48 592.75 600.98 593.61 C 603.09 593.93 603.65 591.52 605.39 590.84 C 607.87 593.38 611.85 592.71 614.08 595.56 C 614.14 597.72 610.85 597.04 610.91 599.2 C 611.96 602.11 613.82 601.62 615.88 600.45 L 617.12 599.21 C 621.9 599.65 624.88 602.57 625.18 607.27 C 625.3 609.31 625.18 611.41 625.17 613.82 C 622.97 616.68 620.31 619.05 617.53 621.23 C 612.45 625.23 606.99 628.58 603.32 633.14 C 595.82 634.65 588.49 635.28 581.26 635.52 L 581.08 634.39 C 578.19 619.67 575.23 604.94 577.19 589.36 C 584.6 580.1 592.32 570.41 601.72 562.08 Z" fill="#e9c46a33" stroke="#e9c46a" stroke-width="1.2"/>
<text x="596.91" y="605.27" fill="#111" font-size="12" font-family="Arial" stroke="white" stroke-width="2" paint-order="stroke">A25</text>
<path d="M 536.21 398.48 C 547.05 397.11 566.57 395.19 579.82 393.8 C 590.88 392.61 597.38 391.62 608.13 392.76 C 612.51 393.21 617.48 395.2 621.82 399.5 C 629.66 407.29 629.34 419.01 629.13 425.86 C 628.69 441.11 623.99 440.9 624.1 451.28 C 624.22 460.97 631.42 465.61 636.66 481.64 C 637.84 485.24 637.21 494.21 635.66 497.56 C 629.81 510.15 606.41 528.15 595.68 529.06 C 595.68 529.06 588.66 530.11 585.41 528.59 C 582.27 527.14 578.09 523.51 575.25 510.26 C 571.25 491.63 576.94 486.83 573.64 474.06 C 571.36 465.2 568.86 452.41 556.3 449.4 C 538.51 445.16 529.62 426.56 528.56 415.7 C 527.19 401.56 533.83 398.76 536.21 398.47 Z" fill="#26465333" stroke="#264653" stroke-width="1.2"/>
<text x="590.11" y="451.33" fill="#111" font-size="12" font-family="Arial" stroke="white" stroke-width="2" paint-order="stroke">A26</text>
<path d="M 600.27 668.01 C 616.3 669.9 631.45 676.23 647.48 678.55 C 647.79 680.34 648.14 682.73 647.46 685.23 C 645.02 694.32 644.01 703.59 644.8 713.06 C 645.16 717.63 646.58 722.09 646.7 726.67 C 646.87 732.67 647.04 738.67 647.19 744.66 L 646.1 744.66 C 634.55 744.82 622.55 748.45 610.99 748.92 C 609.8 745.13 608.92 741.16 609.46 737.23 C 610.09 732.84 608.11 729.56 605.82 726.03 C 597.64 713.34 586.47 703.3 576.06 692.58 C 571.79 688.15 568.39 683.24 565.66 677.83 C 563.24 673.03 561.34 667.83 559.83 662.24 C 566.55 662.32 572.51 662.58 578.54 662.77 C 586.24 663.04 592.76 667.13 600.27 668.01 Z" fill="#00b4d833" stroke="#00b4d8" stroke-width="1.2"/>
<text x="612.41" y="700.89" fill="#111" font-size="12" font-family="Arial" stroke="white" stroke-width="2" paint-order="stroke">A27</text>
<path d="M 647.48 678.55 C 631.45 676.23 616.3 669.9 600.27 668.01 C 592.76 667.13 586.24 663.04 578.54 662.77 C 572.51 662.58 566.55 662.32 559.83 662.24 C 556.06 653.12 552.55 644.51 549.65 635.73 C 560.09 635.4 570.26 635.86 580.65 635.54 C 588.49 635.28 595.82 634.65 603.32 633.14 C 606.99 628.58 612.45 625.23 617.53 621.23 L 618.38 622.16 C 619 622.59 619.25 623.64 620.24 623.4 C 627.58 621.68 635.46 624.42 642.99 620.91 C 649.82 624.88 658.15 622.85 665.6 625.34 C 664.97 627.38 664.04 629.36 663.6 631.89 C 664.96 634.49 667.88 636.66 668.05 640.19 C 671.47 641.49 675.57 641.75 677.49 645.83 C 676.67 649.3 676.67 652.76 676.72 656.28 C 665.71 661.03 656.94 669.48 647.97 678.49 Z" fill="#9b5de533" stroke="#9b5de5" stroke-width="1.2"/>
<text x="619.68" y="648.71" fill="#111" font-size="12" font-family="Arial" stroke="white" stroke-width="2" paint-order="stroke">A28</text>
<path d="M 610.72 749.69 C 610.67 749.43 610.61 749.18 610.56 748.92 C 622.55 748.45 634.55 744.82 646.1 744.66 L 647.19 744.66 C 647.63 763.47 647.76 781.85 646.56 800.26 L 646.55 801.19 C 643.35 800.93 640.39 800.58 637.92 800.3 C 629.22 799.3 620.53 797.98 613.08 792.84 C 611.8 791.89 610.58 791.33 609.37 791.03 C 608.89 777.18 613.26 764.2 610.92 750.78 C 610.86 750.42 610.79 750.05 610.72 749.69 Z" fill="#f15bb533" stroke="#f15bb5" stroke-width="1.2"/>
<text x="629.88" y="772.78" fill="#111" font-size="12" font-family="Arial" stroke="white" stroke-width="2" paint-order="stroke">A29</text>
<path d="M 646.55 801.19 L 646.56 800.26 C 647.76 781.85 647.63 763.47 647.2 745.07 C 651.01 745.41 654.8 745.36 658.53 745.8 C 666.17 746.74 674.37 748.36 682.14 747.14 C 682.48 749.24 682.56 751.3 683.31 753.27 C 685.9 760.14 682.78 766.5 682.52 773.12 C 682.33 775.53 685.06 776.09 685.93 778.01 C 683.44 783.01 682.06 788.21 681.24 793.52 C 680.64 797.46 679.96 801.38 679.24 805.3 C 677.33 805.07 659.94 802.89 646.54 801.3 Z" fill="#fee44033" stroke="#fee440" stroke-width="1.2"/>
<text x="665.17" y="774.61" fill="#111" font-size="12" font-family="Arial" stroke="white" stroke-width="2" paint-order="stroke">A30</text>
<path d="M 647.19 744.66 C 647.04 738.67 646.87 732.67 646.7 726.67 C 646.58 722.09 645.16 717.63 644.8 713.06 C 644.01 703.59 645.02 694.32 647.46 685.23 C 648.14 682.73 647.79 680.34 647.97 678.55 C 656.94 669.48 665.71 661.03 677.21 656.72 C 683.22 656.75 687.97 658.99 691.06 664.6 C 688.94 668.12 691.17 671.09 692.72 674.19 C 685.37 680.92 681 692.41 680.85 705.71 C 681.97 707.69 684.7 707.44 685.94 709.67 C 683.38 715.98 683.74 723.21 681.3 729.76 C 680.87 730.88 680.43 732.24 680.86 732.85 C 684.19 737.34 682.87 742.33 682.59 747.14 C 674.37 748.36 666.17 746.74 658.53 745.8 C 654.8 745.36 651.01 745.41 647.35 744.66 Z" fill="#f9414433" stroke="#f94144" stroke-width="1.2"/>
<text x="666.52" y="703.46" fill="#111" font-size="12" font-family="Arial" stroke="white" stroke-width="2" paint-order="stroke">A31</text>
<path d="M 653.25 586.36 C 650.26 590 646.52 592.84 642.05 594.99 C 639.87 597.65 640.98 600.37 642.03 603.03 C 647.18 605.33 652.35 600.46 657.81 603.5 C 660.54 608.57 667.43 610.5 677.62 608.61 C 678.99 608.86 680.42 610.34 680.41 611.08 C 680.33 620.11 684.29 628.47 685.09 637.13 C 686.12 648.14 691.39 655.14 702.82 655.66 C 704.68 655.72 706.55 655.66 709.03 655.67 C 714.36 662.6 722.43 666.21 730.88 669.38 C 732.81 668.51 733.87 666.72 735.11 665.37 C 732.26 660.6 724.74 661.02 723.82 654.27 C 727.32 647.35 731.31 640.74 738.15 635.32 C 732.63 632.09 727.35 631.58 722.19 630.96 C 715.42 630.14 709.58 628.02 706.05 621.65 C 702.53 615.27 701.73 608.1 699.88 601.23 C 699.33 599.19 702.5 598.88 701.51 596.22 C 700.96 590.04 691.21 585.63 696.45 577.35 C 694.59 575.18 692.1 575.86 688.69 574.55 C 687.01 573.31 684.97 570.34 681.99 568.17 C 679.81 570.21 676.95 570.01 674.46 570.88 C 672.16 574.89 678.86 579.36 673.76 583.24 C 669.97 582.06 668.79 579.52 670.17 575.57 C 661.85 569.98 655.19 575.23 648.29 578.62 C 648.16 582.45 653.63 581.97 653.25 585.68 Z" fill="#f3722c33" stroke="#f3722c" stroke-width="1.2"/>
<text x="689.91" y="615.32" fill="#111" font-size="12" font-family="Arial" stroke="white" stroke-width="2" paint-order="stroke">A32</text>
<path d="M 793.45 666.53 C 791.09 667.25 791.09 669.09 790.45 670.61 L 792.14 670.05 C 792.82 670.8 793.2 671.66 793.94 674.01 C 787.11 669.55 785.22 681.6 778.15 677.26 C 779.71 675.41 781.51 674.42 782.32 672.63 C 774.13 664.64 773.4 660.18 779.19 653.33 C 779.32 651.17 775.96 651.84 776.09 649.06 C 777.16 644.23 779.71 639.17 779.41 633.6 C 783.14 633.42 786.25 631.27 789.85 633.5 C 795.31 636.91 801.4 639.15 807.8 640.46 C 814.94 641.9 818.28 651.18 815.1 656.43 C 813.04 659.89 812.78 663.41 812.78 667.12 C 805.51 666.37 807.23 677.69 799.84 675.88 C 797.67 673.59 801.77 672.17 800.53 670.5 C 798.8 667.1 795.75 667.03 793.45 666.53 Z" fill="#f8961e33" stroke="#f8961e" stroke-width="1.2"/>
<text x="794.43" y="654.57" fill="#111" font-size="12" font-family="Arial" stroke="white" stroke-width="2" paint-order="stroke">A33</text>
<path d="M 641.54 823.19 C 641.18 822.89 640.36 823.17 639.74 823.19 C 637.12 827.78 636.99 833.83 638.22 839.76 C 631.69 839.87 626.98 836.77 623.07 832.99 C 618.04 828.1 612.64 825.36 605.12 826.52 C 604.73 835.18 609.94 842.61 609.86 851.58 C 600.54 850.39 599.81 841.42 594.54 837.08 C 589.21 832.62 581.75 830.19 579.22 823.26 C 577.1 822.53 575.61 823.98 573.89 823.62 C 570.82 819.36 567.48 821.25 567.11 819.96 C 571.97 812.48 577.39 807.05 584.29 802.36 C 589.58 798.79 594.44 795.09 600.53 792.5 C 603.72 791.13 606.36 790.42 609.02 790.95 C 610.58 791.33 611.8 791.89 613.08 792.77 C 620.53 797.98 629.22 799.3 637.92 800.3 C 640.39 800.58 643.35 800.93 646.54 801.3 C 659.94 802.89 677.33 805.07 679.24 805.31 C 677.69 813.76 675.96 822.17 674.46 830.62 C 674.02 834.08 672.4 836.43 671.03 838.53 C 666.43 839.44 663.57 836.59 661.71 834.74 C 655.88 828.97 647.5 828.28 641.54 823.19 Z" fill="#f9844a33" stroke="#f9844a" stroke-width="1.2"/>
<text x="623.65" y="816.83" fill="#111" font-size="12" font-family="Arial" stroke="white" stroke-width="2" paint-order="stroke">A34</text>
<path d="M 246.02 230.46 C 246.71 224.92 248.26 219.48 251.33 214.15 C 247.36 212.59 244.01 210.61 242.34 207.08 C 240.41 207.14 238.67 206.7 237.37 207.94 C 236.68 207.25 235.94 206.88 235.88 206.45 C 234.84 195.07 232.07 184.73 221.02 178.53 C 215.68 175.55 212.34 170.29 207.87 164.71 C 202.21 167.36 196.55 171.06 189.53 171.73 C 188.48 169.37 187.74 165.72 184.94 165.16 C 179.91 164.1 174.69 163.91 169.41 164.89 C 166.66 165.39 164.43 167.29 161.73 167.97 C 160.74 168.2 159.83 168.28 158.84 168.14 C 155.61 167.7 152.19 167.76 148.53 168.93 C 144.31 163.17 138.35 161.61 131.33 162.59 C 121.34 152.67 112.17 140.96 95.58 142.73 C 92.58 147.23 91.64 152.98 84.62 154.15 C 86.46 164.29 84.89 174.62 92.08 183.54 C 94.5 186.57 94.42 191.7 95.85 195.79 C 100.93 198.89 107.58 200.7 106.57 208.73 C 112.65 211.9 111.45 221.67 119.59 222.98 C 124.21 229.44 130.49 234.47 135.67 240.43 C 137.79 242.88 139.72 245.47 141.29 248.38 C 143.45 252.47 146.12 256.18 149.16 258.66 C 154.81 259.42 159.54 258.43 164.88 257.39 C 171.89 264.77 179.77 271.65 183.48 281.86 C 188.49 289.91 196.25 295.24 200.21 303.54 C 204.68 303.11 206.85 308.43 211.88 307.89 C 210.68 317.04 216.7 325.27 215.12 334.55 C 214.87 335.97 215.62 337.15 216.86 338.32 C 220.39 341.61 223.24 345.57 226.28 349.66 C 228.56 348.55 230.09 347.32 230.76 345.54 L 231.82 346.21 C 237.15 350.11 242.05 354.76 248.7 356.81 C 249.87 358.05 248.81 359.66 249.31 361.27 C 260.18 361.6 266.63 368.35 271.71 377.39 C 273.45 378.45 275.87 377.21 277.86 377.96 C 277.48 381.48 279.15 385.38 274.67 387.04 L 273.43 387.66 C 272.37 390.19 274.66 392.86 275.47 393.6 C 282.66 400.05 281.9 409.51 285.36 417.24 C 289.32 425.91 289.8 434.82 289.35 443.04 C 293.13 448.06 299.1 446.52 302.76 450.24 C 298.33 457.59 297.2 465.01 302.47 472.57 C 305.02 472.08 306.82 470.53 308.69 468.68 C 310.92 471.78 313.65 473.64 317.94 473.21 C 321.73 472.79 324.64 474.71 326.88 477.31 C 329.11 479.91 327.93 478.68 328.43 479.36 C 330.28 482.14 331.46 485.24 333.75 487.72 C 332.69 489.63 331.57 490.99 330.14 492.59 C 332.37 494.89 334.85 497.24 333.98 500.83 C 337.08 503 340.18 504.8 343.35 506.6 C 345.09 507.53 347.82 508.46 348.13 509.76 C 350.84 521.33 361.14 528.65 364.91 539.48 C 366.14 543.13 367.01 546.72 369.74 548.52 C 370.85 552.23 367.24 552.65 366.74 555.44 C 371.77 556.81 373.69 562.44 378.65 564.24 C 377.15 568.57 377.95 572.4 381.74 575.32 C 379.85 586.51 389.85 592.22 393.49 601.62 C 391.86 609.35 391.6 618.63 394.07 626.49 C 396.84 635.52 402.54 644.37 411.54 649.46 C 413.19 650.39 414.41 651.44 415.33 652.65 C 416.63 654.39 417.31 656.41 417.74 658.81 C 419.09 666.42 422.06 673.17 428.08 678.75 C 434.1 684.44 440.32 690 446.23 695.87 C 447.07 696.7 447.9 697.54 448.73 698.39 C 452.26 701.98 457.36 703.48 461.76 705.71 C 463.56 706.65 464.43 708.13 465.98 708.94 C 466.23 710.61 463.74 711.84 464.79 713.26 C 468.64 718.47 469 725.39 473.96 730.1 C 478.8 734.73 483.62 739.38 488.45 744 C 490.49 745.96 492.52 747.89 494.55 749.81 C 496.9 752.1 499.76 754.52 500.5 757.37 C 501.98 763 506.32 765.05 510.73 766.42 C 516.57 768.28 522.59 772.31 526.18 777.14 C 527.2 777.26 528.16 778.68 529.3 777.04 C 530.54 778.91 531.34 780.94 532.32 782.78 C 538.53 784.53 542.44 788.37 542.87 793.69 C 548.77 793.51 551.12 799.39 556.02 801.26 C 556.77 803.45 556.76 805.48 555.95 808.06 C 560.98 810.48 565.38 813.95 567.11 819.96 C 567.48 821.25 570.82 819.36 573.85 823.64 C 575.61 823.98 577.1 822.53 579.24 823.18 C 581.75 830.19 589.21 832.62 594.54 837.08 C 599.81 841.42 600.54 850.39 609.86 851.58 C 609.94 842.61 604.73 835.18 605.06 826.52 C 612.64 825.36 618.04 828.1 623.07 832.93 C 626.98 836.77 631.69 839.87 638.22 839.76 C 636.99 833.83 637.12 827.78 639.72 823.22 C 640.36 823.17 641.18 822.89 641.54 823.19 C 647.5 828.28 655.88 828.97 661.65 834.74 C 663.57 836.59 666.43 839.44 671.03 838.53 C 672.4 836.43 674.02 834.08 674.64 830.68 C 675.96 822.17 677.69 813.76 679.24 805.31 C 679.96 801.38 680.64 797.46 681.24 793.52 C 682.06 788.21 683.44 783.01 685.93 778.01 C 685.06 776.09 682.33 775.53 682.52 773.12 C 682.78 766.5 685.9 760.14 683.31 753.27 C 682.56 751.3 682.48 749.24 682.59 747.14 C 682.87 742.33 684.19 737.34 680.86 732.85 C 680.43 732.24 680.87 730.88 681.3 729.76 C 683.74 723.21 683.38 715.98 685.94 709.67 C 684.7 707.44 681.97 707.69 680.85 705.71 C 681 692.41 685.37 680.92 692.72 674.19 C 691.17 671.09 688.94 668.12 691.06 664.6 C 687.97 658.99 683.22 656.75 677.28 656.72 C 676.67 652.76 676.67 649.3 677.49 645.83 C 675.57 641.75 671.47 641.49 668.05 640.19 C 667.88 636.66 664.96 634.49 663.6 631.89 C 664.04 629.36 664.97 627.38 665.6 625.34 C 658.15 622.85 649.82 624.88 642.99 620.91 C 635.46 624.42 627.58 621.68 620.24 623.4 C 619.25 623.64 619 622.59 618.38 622.16 L 617.58 621.29 C 620.31 619.05 622.97 616.68 625.17 613.82 C 625.18 611.41 625.3 609.31 625.18 607.27 C 624.88 602.57 621.9 599.65 617.12 599.21 L 615.88 600.45 C 613.82 601.62 611.96 602.11 610.91 599.2 C 610.85 597.04 614.14 597.72 614.08 595.56 C 611.85 592.71 607.87 593.38 605.39 590.84 C 603.65 591.52 603.09 593.93 600.98 593.61 C 600.48 592.75 599.12 592.44 599.12 591.32 C 599.87 586.75 604.71 589.29 607.02 586.39 C 602.59 578.67 602.55 570.08 602.88 560.94 C 602.91 559.92 602.94 559.17 602.97 558.43 C 598.38 554.83 595.97 548.77 590.57 545.23 C 588.08 546.22 586.9 549.49 583.04 548.93 C 580.57 545.52 575.91 545.64 571.99 543.96 C 569.2 542.78 566.9 545.43 564.48 544.07 C 559.49 541.18 554.4 541.08 549.21 541.8 L 549.01 540.39 C 548.28 532.6 543.01 528.57 536.49 525.83 C 536.99 523.79 538.67 523.05 539.73 521.88 C 538.18 520.46 537.43 518.6 536.38 516.31 C 542.85 513.79 547.52 508.23 554.05 505.83 C 558.53 504.17 558.72 501.39 558.1 497.61 C 552.64 494.88 546.67 497.96 541.39 495.11 C 544.01 491.83 545.88 488 549.68 485.97 C 553.59 484.37 558.87 486.67 561.36 482.16 C 559.7 474.05 559.53 465.64 550.34 462.35 C 549.66 462.1 549.79 461.42 549.66 461.17 C 545.02 450.22 537.07 448.72 527.18 453.77 C 521.88 462.79 512.99 465 505.59 469.12 L 505.03 467.99 L 505.6 466.84 C 510.83 462.33 518.66 460.8 521.41 453.26 C 519.12 447.14 513.41 443.97 510.68 439.7 C 505.28 436.59 500.25 436.09 495.09 436.45 L 493.85 437.07 C 489.37 437.24 485.9 433.59 481.24 433.95 C 479.2 431.1 477.53 427.94 475.11 425.59 C 475.17 423.61 476.98 422.63 476.48 420.89 C 474.37 419.65 471.89 419.15 470.28 417.23 C 470.11 408.94 470.91 410.24 470.31 401.46 C 467.33 400.1 466.21 397.99 464.72 396.13 C 462.87 393.84 460.44 392.41 457.4 393.09 C 456.03 391.79 455.23 390.12 454.18 388.75 C 451.96 385.75 449.32 383.24 446.23 381.59 C 443.97 380.39 441.48 379.64 438.72 379.51 C 433.07 379.25 428.35 377.39 423.08 373.36 C 421.03 370.38 422.34 366.24 423.47 361.67 C 420.56 358.76 417.71 355.53 414.48 352.81 C 410.88 349.71 408.96 346.36 411.08 341.54 C 401.95 339.61 394.49 341.14 389.69 349.67 C 391.43 354.06 394.52 357.96 395.76 362.97 C 386.75 360.67 382.55 351.32 374.22 348.83 C 371.26 338.56 363.2 330.75 364.28 320.18 C 360.74 319.43 358.87 320.91 355.33 321.46 C 354.39 321.71 354.21 318 351.85 318.61 C 349.37 318.42 348.8 321.2 347.12 321.88 C 345.01 320.76 342.4 321.56 341.23 319.21 C 340.71 318.48 340.72 318.47 340.73 318.46 C 343.72 316.06 347.76 315.57 350.12 312.79 C 347.9 307.22 344.3 304 339.08 303.5 C 336.55 295.27 333.83 288.21 323.89 287.39 C 321.65 287.2 319.11 284.97 318.99 282 C 318.93 280.39 317.94 279.27 317.01 279.02 C 309.93 277.09 307.71 270.1 302.62 266.13 C 292.69 259.37 277.53 260.15 273.02 245.3 C 267.93 245.22 265.39 239.84 260.6 239.34 C 254.89 238.77 250.48 236.1 246.95 231.83 L 246.02 230.46 Z" fill="#ff000022" stroke="#ff0000" stroke-width="1"/>
<text x="437.76" y="518.38" fill="#f00" font-size="11" font-family="Arial">Z01</text>
<path d="M 444.92 356.51 C 443.05 357.19 441.81 358.86 439.07 359.29 C 436.65 357.86 432.74 358.47 429.57 356.61 C 424.53 360.12 425.83 365.01 425.57 370.08 C 427.74 371.69 429.1 374.73 432.39 375.66 C 441.21 378.15 444.13 376.12 446.27 367.03 C 446.7 365.24 445.78 363.01 447.77 361.22 C 448.39 360.66 449.39 356.59 445.48 356.45 Z" fill="#ff000022" stroke="#ff0000" stroke-width="1"/>
<text x="436.45" y="366.22" fill="#f00" font-size="11" font-family="Arial">Z33</text>
<path d="M 89.88 133.87 C 91.06 133.01 90.07 130.53 92.43 130.72 C 94.97 132.4 96.34 134.32 96.15 137.1 C 92.92 135.98 92.47 140.99 88.44 139.81 C 86.14 137.45 82.98 134.91 83.11 130.15 C 86.71 129.85 86.89 134.11 89.88 133.87 Z" fill="#ff000022" stroke="#ff0000" stroke-width="1"/>
<text x="89.75" y="135.03" fill="#f00" font-size="11" font-family="Arial">Z34</text>
<path d="M 532.35 450.07 C 532.28 450.5 531.79 450.62 531.79 451.06 L 528.62 451.85 C 527.62 451.48 526.13 451.97 525.02 449.56 C 524.15 447.21 524.47 443.62 528.63 443.5 C 531.68 443.45 533.04 446.73 532.35 450.07 Z" fill="#ff000022" stroke="#ff0000" stroke-width="1"/>
<text x="528.6" y="447.71" fill="#f00" font-size="11" font-family="Arial">Z35</text>
<path d="M 741.96 659.5 L 741.97 655.61 C 739.92 654.43 737.81 653.06 735.13 653.31 C 732.71 654.29 733.33 656.39 733.26 658.44 C 735.87 659.18 738.54 659.81 741.34 660.12 Z" fill="#ff000022" stroke="#ff0000" stroke-width="1"/>
<text x="737.64" y="656.71" fill="#f00" font-size="11" font-family="Arial">Z36</text>
</svg>