<?xml version="1.0" encoding="UTF-8"?>
<svg id="b" data-name="Layer 2" xmlns="http://www.w3.org/2000/svg" viewBox="0 0 746.46 726.13">
  <defs>
    <style>
      .e {
        stroke-linecap: round;
        stroke-linejoin: round;
      }

      .e, .f {
        fill: none;
        stroke: #000;
        stroke-width: 2px;
      }

      .f {
        stroke-miterlimit: 10;
      }
    </style>
  </defs>
  <g id="c" data-name="Layer 1">
    <g>
      <path class="f" d="M465.21,272.02c10.83-1.37,30.33-3.28,43.56-4.68,11.05-1.17,17.55-2.16,28.28-1.03,4.38.46,9.35,2.44,13.69,6.73,7.83,7.75,7.5,19.41,7.3,26.23-.44,15.19-5.14,14.98-5.02,25.32.11,9.64,7.3,14.26,12.54,30.22,1.18,3.58.55,12.52-1,15.85-5.84,12.54-29.22,30.45-39.94,31.36,0,0-7.01,1.04-10.26-.46-3.14-1.45-7.31-5.05-10.15-18.25-3.99-18.55,1.69-23.33-1.6-36.04-2.28-8.82-4.79-21.55-17.33-24.55-17.78-4.24-26.66-22.75-27.71-33.56-1.37-14.08,5.26-16.86,7.64-17.16Z"/>
      <path class="f" d="M107.49,258.16c4.83-3.78,19.31-7,27.01-2.94,22.73,12,68.18,64.04,81.89,90.16,3.51,6.69,2.42,16.96-1.03,27.38-1.46,4.42-9.41,20.57-24.03,26.09-5.95,2.25-10.42,1.51-13.19-.55-15.82-11.75-15.98-33.85-29.43-55.76-18.25-29.73-24.69-34.66-41.59-58.38-2.92-4.09-8.59-18.97.38-25.99Z"/>
      <path class="f" d="M244.07,467.05c3.92-2.89,9.23-1.83,12.5.19,6.9,4.27,25.97,22.9,39.04,40.57,17.93,24.25,16.79,27.22,18.61,36.29.54,2.71,1.5,14.7-6.31,19.78-9.15,5.95-26.39-7.95-31.25-14.55-17.21-23.4-28.68-41.9-32.6-57.06-2.29-8.87-5.37-21.27,0-25.23Z"/>
    </g>
    <g id="d" data-name="c">
      <g>
        <path class="e" d="M175.94,152.73s.06.05.97-1.32c5.16-7.53,4.37-15.63.39-22.87-2.74-4.97-3.35-9.73-3.57-15.05-.39-9.75.42-19.18,5.66-28.35-3.97-1.57-7.31-3.54-9.04-7.1-1.95.08-3.69-.35-4.98.9-.68-.68-1.42-1.06-1.46-1.51-1.05-11.44-3.85-21.79-14.92-28.05-5.32-3.01-8.73-8.25-13.17-13.89-5.63,2.69-11.29,6.4-18.34,7.07-1.06-2.37-1.82-6.01-4.63-6.59-5.05-1.03-10.27-1.22-15.52-.27-3.69.67-6.41,3.84-10.56,3.29-3.26-.43-6.66-.39-10.31.84-4.2-5.8-10.21-7.3-17.22-6.36-10.03-9.93-19.21-21.67-35.82-19.87-2.95,4.51-3.93,10.32-10.92,11.47,1.85,10.2.28,20.59,7.54,29.55,2.45,3.02,2.34,8.21,3.8,12.33,5.13,3.09,11.76,4.93,10.73,12.97,6.12,3.15,4.89,13.01,13.05,14.3,6.51,9.12,16.35,15.4,21.77,25.48,2.19,4.08,4.82,7.85,7.87,10.34,5.67.77,10.38-.27,15.74-1.3,7.04,7.38,14.89,14.32,18.63,24.53.07.18-.07.47.02.61,5.05,7.48,12.79,12.82,16.77,21.14,4.47-.45,6.68,4.92,11.65,4.32-1.17,9.21,4.82,17.44,3.32,26.77-.23,1.42.47,2.62,1.74,3.8,3.56,3.3,6.43,7.27,9.44,11.4,3.91-1.94,5.61-4.15,4.53-9.04-1.01-4.57-.78-9.5-1.46-14.25,5.79-15.09,13.87-29.15,20.26-43.9-.66-.46-1.32-.93-1.97-1.4-13.49-9.85-24.32-22.08-36.33-33.01-13.12-11.94-25.25-24.96-39.13-36.09-4.06-3.26-14.48-5.05-14.48-5.05"/>
        <path class="e" d="M719.55,543.01c.67-1.54.62-3.5,3.02-4.25,2.29.47,5.34.58,7.12,3.99,1.24,1.68-2.87,3.11-.67,5.43,7.42,1.78,5.64-9.59,12.94-8.81-.05-3.74.27-7.28,2.31-10.74,3.14-5.31-.19-14.63-7.32-16.07-6.39-1.29-12.48-3.52-17.97-6.94-3.62-2.25-6.69-.07-10.43.12.29,5.62-2.23,10.71-3.29,15.54-.1,2.78,3.2,2.14,3.13,4.3-5.77,6.89-5.05,11.36,3.18,19.38-.82,1.8-2.6,2.78-4.13,4.67,7.09,4.33,8.96-7.77,15.78-3.29-.76-2.39-1.15-3.23-1.78-3.95l-1.87.62Z"/>
        <path class="e" d="M177.91,154.14c6.71,7.33,13.36,17.47,19.47,25.27,8.41,10.75,19,19.21,29.4,27.76,4.38,3.61,7.83,7.21,9.14,12.62,1.54,6.32,5.17,10.6,11.21,13.08,7.01,2.87,11.94,8.41,16.07,14.34,7.55,10.84,17.53,19.39,26.34,29.03,5.03,5.51,9.23,11.54,13.51,17.55,5.43,7.63,14.74,11.44,19.31,19.87l.3.51"/>
        <path class="e" d="M577.17,551.15l-.58-.06c-16.03-2.24-31.18-8.59-47.25-10.44-7.52-.86-14.06-4.98-21.74-5.23-6.03-.2-12.02-.42-18.72-.52,3.23,11.97,8.19,22.1,16.27,30.45,10.43,10.77,21.62,20.82,29.85,33.57,2.27,3.51,4.26,6.84,3.69,11.23-.6,4.62.71,9.24,1.48,13.63,2.37,13.49-2,26.54-1.5,39.82l-.07.69"/>
        <path class="e" d="M57.56,195.54c-2.07-3.62.76-4.8,3.12-6.22-.45-1.87-2.67-2.47-3.1-4.25-2.21-1.13-3.52,1.78-6.28.95-2.8-4.85-6.68-9.2-14.18-8.19.93,3.94-4.07,4.46-5.2,8.27,3.08,2.75,4.86,6.64,6.3,10.9,2.27.83,4.62.18,7.28.49,2,.45,2.39,2.95,4.63,4.82,8.76-1.04,15.14,4.38,20.42,10.57,3.46.27,6.04-.88,8.76-.68v-8.45c-5.63.48-8.01-4.89-12.36-7.1-3.01-1.54-5.64-2.35-8.77-1.11"/>
        <path class="e" d="M409.67,339.21l.33,1.16c2.74,10.15.4,20.34-.2,30.45-.4,6.81-2.27,13.41,1.4,19.93,3.58,6.36,5.48,13.35,6.91,20.48.78,3.92,1.24,7.94,1.08,11.81-.47,11.23,1.18,22.37.75,33.57-.17,4.36,2.33,8.16,2.61,13.39-7.71,15.26-23.97,23.78-33.55,36.59-15.04,6.28-28.9,12.64-43.01,18.4l-1.75.62"/>
        <path class="e" d="M582.18,458.47c-3,3.65-6.73,6.56-11.19,8.7-2.18,2.69-1.08,5.39.02,8.09,5.15,2.32,10.34-2.6,15.76.44,2.75,5.07,9.67,7.02,19.81,5.11,1.34.27,2.8,1.75,2.8,2.52-.07,9.08,3.93,17.46,4.74,26.14,1.03,11.06,6.32,18.09,17.78,18.6,1.86.08,3.73.01,6.21.01,5.37,6.96,13.43,10.55,21.9,13.72,1.92-.89,3.01-2.7,4.21-4.03-2.88-4.8-10.35-4.36-11.34-11.1,3.47-6.96,7.46-13.63,14.28-19.08-5.53-3.23-10.81-3.73-15.99-4.34-6.78-.8-12.65-2.93-16.17-9.35-3.52-6.41-4.33-13.62-6.22-20.51-.56-2.05,2.59-2.34,1.62-5.05-.55-6.23-10.3-10.65-5.1-18.98-1.89-2.19-4.35-1.5-7.78-2.77-1.67-1.21-3.72-4.26-6.69-6.41-2.21,2.05-5.02,1.89-7.5,2.75-2.3,4.04,4.4,8.53-.68,12.41-3.79-1.16-4.98-3.73-3.57-7.69-8.32-5.6-14.96-.29-21.86,3.13-.16,3.84,5.32,3.34,4.99,7.06"/>
        <path class="e" d="M345.55,288.9l1.05,1.12c2.87,2.32,4.71,5.79,8.66,6.98,1.36.41,2.05,2.35,2.71,4.15,2.69,7.3,5.31,14.55,9.35,21.44,2.93,5,6.23,11.08,5.4,17.78-.17,1.41.07,2.73,1.22,3.72-8.01,15.87-10.13,33.4-13.79,51.35,3.12,6.33-.12,14.57,2.69,22.67,18.87-.81,36.67,4.92,56.65,9.57,8.89-1.77,20.79.03,30.36-8.33,5.2,5.2,4.56,12.33,7.23,18.07.78,1.67,1.14,3.77,2.06,5.5,4.25,7.99,5.83,16.47,5.68,25.5-.11,6.38,3.48,11.9,6.3,17.3,2.32,4.46,3.67,8.93,4.99,13.72,3.28,11.95,7.86,23.5,12.85,34.86l-.06.6"/>
        <path class="e" d="M290.04,324.21c4.1,12.41,14.36,20.4,21.76,30.45.34.47,1.01.76,1.21,1.26,5.08,12.69,16.95,11.95,27.39,13.56,7.84,1.21,15.86,1.24,23.6,3.22l.55.18"/>
        <path class="e" d="M388.39,506.83l.48.74c7.53,9.19,18.87,12.41,28.69,17.85,13.05,7.24,24.75,16.38,37.03,24.66,7.01,4.72,10.91,12.95,13.68,20.95,2.67,7.69,5.56,15.2,9.81,22.68-17.75,6.45-33.99,16.26-52.55,20.12-2.73.57-5.22,1.52-7.45,3.15l-.55.27"/>
        <path class="e" d="M362.83,418.11l-1.31-.04c-8.3,3.48-17.2,5.37-25.39,8.91-6.74,2.92-12.44,7.96-16.86,14.09-2.14,2.96-4.36,5.77-8.4,7.1-2.27,11,7.76,16.73,11.43,26.14-1.64,7.78-1.84,17.09.6,25.02,2.8,9.1,8.5,17.96,17.55,23.06,3.95,2.23,5.48,5.22,6.24,9.41,1.39,7.66,4.38,14.4,10.36,20.04,6.92,6.52,14.04,12.87,20.71,19.69,3.52,3.59,8.62,5.1,13.07,7.35,1.78.9,2.7,2.41,4.25,3.25.27,1.7-2.26,2.89-1.17,4.35,3.85,5.21,4.21,12.16,9.19,16.91,6.9,6.56,13.72,13.21,20.62,19.78,2.39,2.27,5.2,4.71,5.95,7.55,1.5,5.65,5.84,7.7,10.23,9.09,5.82,1.85,11.86,5.88,15.48,10.73"/>
        <path class="e" d="M174.09,101.56l.96,1.36c3.56,4.32,7.93,6.94,13.67,7.54,4.77.5,7.36,5.93,12.43,5.97,4.52,14.91,19.7,14.12,29.67,20.92,5.08,3.95,7.33,11,14.44,12.91.92.25,1.91,1.38,1.98,3,.12,2.98,2.69,5.23,4.9,5.41,9.96.8,12.7,7.89,15.23,16.17,5.23.47,8.81,3.76,11.04,9.32-2.36,2.8-6.4,3.29-9.37,5.71-.33.27-.65.56-.94.88-6.13-2.98-11.36-.68-15.94,3.57-6.35,5.89-15.2,8.99-19.3,17.37l-.28,1.19"/>
        <path class="e" d="M575.92,674.45l.05-.91c1.54-24.66.71-49.31-.03-73.97-.14-4.6-1.53-9.06-1.91-13.67-.8-9.52.19-18.81,2.64-27.96.68-2.53.33-4.99.52-6.79,8.93-9.07,17.7-17.62,29.2-21.97,5.95-.04,10.75,2.23,13.89,7.89-2.13,3.52.12,6.53,1.7,9.67-7.37,6.78-11.67,18.34-11.81,31.7,1.09,2,3.88,1.73,5.11,4-2.57,6.37-2.2,13.61-4.59,20.21-.4,1.12-.85,2.52-.44,3.08,4.76,6.44-.01,14.02,2.49,20.54,2.64,6.89-.48,13.3-.72,19.93-.17,2.42,2.57,3,3.41,4.9-2.5,5.04-3.85,10.23-4.66,15.61-1.89,12.5-4.53,24.87-6.7,37.32"/>
        <path class="e" d="M255.48,349.54l.37-.47c2.97-3.84,6.74-6.96,9.9-10.6,5.43-6.27,11.56-10.97,19.89-13.17,9.81-2.59,19.51-5.69,29.25-8.58,8.92-2.65,17.99-5.32,20.46-16.14.27-1.17.25-2.23,1.29-3.11,8.37-7.15,15.55-15.43,21.05-24.91,4.41-7.6,14.09-10.35,16.89-19.21"/>
        <path class="e" d="M508.62,696.7c-2.17-.7-3.66.81-5.39.46"/>
        <path class="e" d="M523.95,710.59c-5.37-4.44-12.79-6.87-15.33-13.89"/>
        <path class="e" d="M534.47,699.98c-.29,8.68,4.89,16.15,4.83,25.16"/>
        <path class="e" d="M552.44,706.38c-5.05-4.87-10.42-7.61-17.96-6.41"/>
        <path class="e" d="M159.06,217.13l1.06.79c5.34,3.92,10.23,8.58,16.92,10.65,1.16,1.22.14,2.84.59,4.51,10.88.28,17.32,7.07,22.43,16.19,1.74,1.06,4.14-.16,6.14.57-.4,3.56,1.28,7.43-3.18,9.11l-1.24.62c-1.05,2.57,1.23,5.23,2.07,5.99,7.22,6.48,6.44,16,9.96,23.75,3.97,8.73,4.49,17.66,4.07,25.9,3.82,5.03,9.77,3.47,13.44,7.2-4.41,7.4-5.54,14.86-.25,22.43,2.52-.47,4.38-2.08,6.23-3.92,2.27,3.13,4.95,4.99,9.24,4.53,3.79-.41,6.69,1.46,8.94,4.1.55.65,1.07,1.34,1.54,2.06,1.83,2.77,3.07,5.94,5.33,8.37-1.06,1.92-2.21,3.29-3.57,4.89,2.23,2.31,4.72,4.68,3.86,8.25,3.11,2.17,6.25,4,9.4,5.76,1.72.96,4.46,1.88,4.76,3.19,2.75,11.65,13.08,18.94,16.84,29.84,1.26,3.65,2.11,7.25,4.82,9.09,1.13,3.72-2.47,4.16-2.99,6.97,5.02,1.39,6.96,7.02,11.95,8.83-1.5,4.37-.71,8.17,3.13,11.12"/>
        <path class="e" d="M478.45,507.32l-.69.25c-7.43,3.22-15.23,5.59-23.04,7.25-10.98,2.34-19.07,9.27-27.93,15.12l-.62.6"/>
        <path class="e" d="M210.47,410.61c.16,1.01-.73,1.67-1.26,1.8-9.85,2.44-9.88,11.66-13.19,18.42,5.59,7.97,12.53,14.67,14.64,24.48.53,2.46,2.75,4.99,6.02,5.67,5.35,1.11,10.6,2.74,16.34,1.49.5-1.04,1.05-2.41-1.18-3.59,3.16-3.1,4.57-6.17.47-9.81-3.34-2.95.1-7.61-1.95-11.08-2.39,1.08-4.95.37-7.42.62-4.23-7.12-2.23-16.03-6.8-23.07-1.31-2.02-1.01-5.2-4.41-5.56l-1.25.62Z"/>
        <path class="e" d="M375.26,569.02l.56-.53c5.54-7.56,10.99-15.19,16.44-22.8,5.02-7,10.85-13.28,12.67-21.97.31-1.5,1.24-2.11,1.96-3.09l.21-.36"/>
        <path class="e" d="M477.11,594.07c6.72,10.19,12.55,22.35,17.33,33.52,1.9,4.46.42,9.49.72,14.25l-.03,1.07"/>
        <path class="e" d="M529.83,665.77c-6.08,2.59-10.93,6.33-16.24,9.95"/>
        <path class="e" d="M542.41,666.06c-4.24-2.94-7.78-2.32-12.58-.29"/>
        <path class="e" d="M567.26,673.53c-8.73-.96-17.4-2.3-24.85-7.47"/>
        <path class="e" d="M567.26,673.53c13.49,1.49,41.5,4.99,41.5,4.99"/>
        <path class="e" d="M531.8,432.77l-1.21,1.46c-9.37,8.36-17.11,18.18-24.49,27.49-1.91,15.69,1.08,30.46,3.98,45.24l.19,1.1"/>
        <path class="e" d="M477.81,413.95l-.04-1.47c-.73-7.81-5.96-11.88-12.51-14.61.51-2.06,2.17-2.78,3.23-3.97-1.54-1.44-2.28-3.28-3.36-5.56,6.44-2.53,11.1-8.16,17.65-10.56,4.49-1.65,4.67-4.47,4.06-8.24-5.46-2.73-11.44.35-16.71-2.47,2.61-3.29,4.44-7.14,8.24-9.22,3.92-1.6,9.22.66,11.68-3.82-1.68-8.12-1.87-16.59-11.04-19.88-.68-.25-.55-.93-.67-1.21-4.67-11.02-12.65-12.51-22.51-7.41-5.31,9.09-14.14,11.33-21.58,15.47l-.62-1.24"/>
        <path class="e" d="M89.49,38.85l.4.68c5.26,10.05,1.04,20.31.49,30.45-.17,3.17-2.69,5.96-4.37,8.62-6.94,10.97-12.66,22.78-21.61,32.42l-.66.72"/>
        <path class="e" d="M496.46,693.42c.36,1.27,3.73-.61,6.78,3.74"/>
        <path class="e" d="M513.6,675.72c-6.88,4.7-12.31,10.17-16.58,17.08l-.55.62c-1.72-6.04-6.14-9.51-11.17-11.93"/>
        <path class="e" d="M485.39,674.62c.68,2.24.68,4.31-.09,6.87"/>
        <path class="e" d="M455.38,650.54c1.04,0,2.07,1.58,3.23-.23,1.17,1.95,1.96,3.95,2.98,5.82,6.23,1.72,10.13,5.62,10.6,10.92,5.89-.18,8.27,5.69,13.2,7.56"/>
        <path class="e" d="M546.55,493.65l.82.87c.63.41.87,1.47,1.86,1.23,7.36-1.72,15.22.99,22.74-2.55,6.84,3.98,15.17,1.93,22.64,4.43-.62,2.08-1.53,4.06-2.01,6.59,1.39,2.64,4.31,4.8,4.5,8.33,3.44,1.32,7.54,1.52,9.48,5.63-.84,3.46-.83,6.99-.78,10.53l.56.47"/>
        <path class="e" d="M611.98,620.03l-.59.05c-7.75,1.16-15.99-.44-23.61-1.35-3.73-.45-7.51-.38-11.2-1.14h-1.24c-11.56.19-23.57,3.88-35.09,4.35h-.42l.18.96s-24.68,9.93-35.53,17.07c-5.13,3.38-11.14,2.83-16.8,3.64-8.73,1.26-20.82,3.67-29.08,6.69"/>
        <path class="e" d="M451.39,421.18l.26-.62c1.25-3.37,4.13-1.32,6.22-1.85,4.97-1.26,9.85-2.82,14.89-3.85,7.05-1.44,13.89-2.52,20.54,1.32,2.42,1.4,4.75-1.29,7.5-.1,3.92,1.7,8.6,1.58,11.09,4.99,3.88.57,5.05-2.72,7.53-3.76,5.41,3.52,7.82,9.65,12.46,13.23-.39,10.11-.74,19.65,4.1,28.09-2.31,2.93-7.14.36-7.9,4.97.02,1.14,1.35,1.44,1.86,2.32,2.12.29,2.68-2.09,4.43-2.83,2.48,2.55,6.46,1.85,8.68,4.72.07,2.16-3.23,1.52-3.15,3.69,1.05,2.95,2.93,2.45,4.99,1.26l1.24-1.25c4.76.43,7.74,3.36,8.06,8.08.14,2.06.02,4.14.02,6.57-6.19,8.13-16.19,12.36-21.8,19.44-18.52,3.77-36,2.19-53.41,2.58"/>
        <path class="e" d="M494.75,550.61l-.83.48c-10.11,2.81-17.81,9.68-26.11,15.54l-.94.6"/>
        <path class="e" d="M20.27,1.61c-2.37-.2-1.36,2.31-2.52,3.14-2.95.25-3.19-4.05-6.79-3.73-.15,4.77,3.05,7.33,5.35,9.67,4.03,1.16,4.49-3.87,7.69-2.73.19-2.82-1.17-4.72-3.1-6.35h-.62Z"/>
        <path class="e" d="M374.57,344.09c1.44-.33,2.82.13,4.39-.52,7.51-3.13,15.27-4.51,23.58-4.69,10.41-.22,20.67,3.39,31.09.87l.62-1.24c5.21-4.53,13.03-6.08,15.76-13.64-2.27-6.11-8.03-9.29-10.75-13.59-5.38-3.11-10.41-3.59-15.58-3.22l-1.24.61c-4.45.2-7.95-3.42-12.6-3.08-2.03-2.83-3.72-6.02-6.16-8.37.04-1.95,1.88-2.99,1.35-4.71-2.06-1.27-6.22-3.61-7.41-5.9-.52-7.9-.34-11.38.69-14.12l-1.82-1.08c-2.34-.98-1.8-1.91-3.3-3.75-1.9-2.3-4.27-3.72-7.35-3.05-1.4-1.32-2.19-2.96-3.24-4.38-3.85-5.2-8.94-8.94-15.49-9.23-5.63-.25-10.39-2.08-15.65-6.16-2.08-2.96-.77-7.18.36-11.75-2.93-2.93-5.77-6.14-8.99-8.9-3.62-3.1-5.52-6.48-3.39-11.33-9.14-1.94-16.61-.35-21.39,8.22,1.75,4.44,4.83,8.32,6.12,13.34-9.04-2.28-13.25-11.67-21.57-14.16-3.01-10.32-11.08-18.16-10.03-28.76-3.52-.72-5.38.74-8.93,1.33-.96.26-1.14-3.51-3.48-2.87-2.49-.21-3.04,2.6-4.72,3.27-2.12-1.11-4.71-.31-5.9-2.65l-.49-.7"/>
        <path class="e" d="M671.07,531.82v-3.92c-2.08-1.19-4.17-2.53-6.84-2.29-2.45.98-1.8,3.11-1.86,5.15,2.62.75,5.31,1.4,8.08,1.68l.62-.62Z"/>
        <path class="e" d="M460.42,322.71c0-.42.48-.59.56-.99.69-3.35-.69-6.66-3.74-6.57-4.17.12-4.46,3.72-3.61,6.12,1.14,2.43,2.63,1.95,3.59,2.31l3.19-.88Z"/>
        <path class="e" d="M1,7.2c1.43,1.6.95,4.04,2.73,6.22,1.78-3.63,1.21-5.92-2.11-7.47l-.62,1.24Z"/>
        <path class="e" d="M373.33,227.86c-1.87.7-3.13,2.37-5.84,2.82-2.44-1.44-6.31-.81-9.5-2.69-5.05,3.55-3.75,8.45-3.95,13.53,2.18,1.6,3.51,4.69,6.86,5.61,8.85,2.46,11.74.45,13.86-8.67.42-1.81-.47-4.04,1.51-5.83.65-.58,1.64-4.68-2.31-4.77h-.62Z"/>
      </g>
    </g>
    <path class="e" d="M397.84,263.84c-.42.01-.69.45-.5.83.6,1.24.65,6.82.97,7.82.4,1.26,2.09,2.13,1.9,4.52-.24,2.97-.54,8.18.18,9.28.38.59,5.66,2.61,7.68,3.84.46.28.39,1.5.25,2.47-.08.52.46.9.92.65l5.08-2.73c.88-.47,1.18-1.59.65-2.43l-.99-1.58c-.28-.45-.41-.97-.38-1.49.14-2.15.38-9.94.11-13.85-.19-2.78-5.26-1.77-6.49-2.74-2.66-2.1-1.84-3.91-3.94-4.6-1.28-.42-3.59-.05-5.43,0Z"/>
    <path class="f" d="M388.39,252.45l2.21,3.56c.67,1.08,1.59,1.97,2.68,2.61l2.77,1.62c.29.17.62.26.95.26h6.06c.45,0,.88.16,1.22.44l7.95,7.93c.38.31.98.83,1.47.83l2.73-1.11c.8,0,1.26-.73,1.21-1.53-.42-7.29-2.93-12.68-2.93-12.68-.14-.61-.68-1.03-1.31-1.03l-3.64.04c-.33-.03-.65-.12-.96-.26l-6.12-2.76c-.39-.18-.82-.27-1.24-.27h-13.19c-.71.05-.23,1.74.14,2.34Z"/>
    <path class="e" d="M405.61,299.41l12.73-7.3c.66-.38.95-1.19.67-1.9l-1.44-3.71c-.21-.53-.21-1.12-.02-1.66l.44-1.22c.25-.68.94-1.08,1.65-.95l.57.1c.58.11,1.07.5,1.31,1.05l1.14,2.69c.2.48.49.92.86,1.3l2.3,2.39c.45.47,1.06.76,1.71.82l9.69.88c.93.08,1.8.5,2.45,1.17,0,0,6.92,8.79,10.52,10.87.69.4.86,1.33.86,2.13v3.8c0,1.04-1.14.71-2.03.16l-4.64-2.84c-.5-.3-1.07-.47-1.65-.49l-29.32-.68"/>
    <path class="f" d="M426.21,276.97l-1.08,1.27c-.72.84-1.07,1.94-.99,3.04l.11,1.42c.1,1.37.84,2.61,1.99,3.36l1.47.95c1.38.89,2.94,1.45,4.57,1.63l7.48.83c.93.1,1.77.61,2.29,1.39l2.99,4.44c.79,1.17,2.11,1.87,3.52,1.87h0c.7,0,1.19-.7.95-1.36l-1.05-2.84c-.79-2.15-1.99-4.13-3.54-5.82l-2.95-3.24c-1.68-1.85-4.09-2.88-6.59-2.83l-1.62.03c-1.15.02-2.16-.76-2.42-1.88l-.42-1.83c-.15-.67-.66-1.21-1.31-1.41h0c-1.23-.38-2.57.01-3.4.99Z"/>
    <path class="f" d="M112.3,219.33l8.84-.52c1.08-.06,2.13.36,2.87,1.15l2.04,2.17c.75.55,1.19,1.43,1.19,2.36v3.85c0,.56-1.82-.15-2.25-.52l-3.23-2.83c-.31-.27-.66-.49-1.05-.65-1.08-.45-3.41-1.33-4.91-1.33-1.15,0-4.35-1.5-4.35-1.5-.31-.11-.52-.4-.52-.73h0c0-.77.6-1.4,1.37-1.45Z"/>
    <path class="f" d="M113.04,227.84l-3.73,5.31,4.72.56c1.14.14,2.14-.75,2.14-1.9v-3.64c0-.34-.17-.66-.46-.85h0c-.89-.58-2.07-.35-2.67.52Z"/>
  </g>
</svg>