<?xml version="1.0" encoding="UTF-8"?>
<svg id="b" xmlns="http://www.w3.org/2000/svg" version="1.1" viewBox="0 0 1199.7 1167">
  <!-- Generator: Adobe Illustrator 30.1.0, SVG Export Plug-In . SVG Version: 2.1.1 Build 136)  -->
  <defs>
    <style>
      .st0 {
        fill: none;
        stroke: #000;
        stroke-linecap: round;
        stroke-linejoin: round;
        stroke-width: 2px;
      }
    </style>
  </defs>
  <g id="c">
    <g>
      <path class="st0" d="M282.4,245.1s.1,0,1.6-2.1c8.3-12.1,7-25.1.6-36.8-4.4-8-5.4-15.6-5.7-24.2-.6-15.7.7-30.9,9.1-45.6-6.4-2.5-11.8-5.7-14.5-11.4-3.1.1-5.9-.6-8,1.4-1.1-1.1-2.3-1.7-2.4-2.4-1.7-18.4-6.2-35.1-24-45.1-8.6-4.8-14-13.3-21.2-22.3-9.1,4.3-18.2,10.3-29.5,11.4-1.7-3.8-2.9-9.7-7.4-10.6-8.1-1.7-16.5-2-25-.4-5.9,1.1-10.3,6.2-17,5.3-5.2-.7-10.7-.6-16.6,1.3-6.8-9.3-16.4-11.8-27.7-10.2-16.1-16-30.9-34.9-57.6-32-4.8,7.3-6.3,16.6-17.6,18.5,3,16.4.5,33.1,12.1,47.5,3.9,4.9,3.8,13.2,6.1,19.8,8.2,5,18.9,7.9,17.3,20.9,9.8,5.1,7.9,20.9,21,23,10.5,14.7,26.3,24.8,35,41,3.5,6.6,7.8,12.6,12.7,16.6,9.1,1.2,16.7-.4,25.3-2.1,11.3,11.9,24,23,30,39.5.1.3-.1.8,0,1,8.1,12,20.6,20.6,27,34,7.2-.7,10.7,7.9,18.8,7-1.9,14.8,7.8,28.1,5.3,43.1-.4,2.3.8,4.2,2.8,6.1,5.7,5.3,10.3,11.7,15.2,18.3,6.3-3.1,9-6.7,7.3-14.5-1.6-7.4-1.3-15.3-2.4-22.9,9.3-24.3,22.3-46.9,32.6-70.6-1.1-.7-2.1-1.5-3.2-2.3-21.7-15.8-39.1-35.5-58.4-53.1-21.1-19.2-40.6-40.2-62.9-58.1-6.5-5.2-23.3-8.1-23.3-8.1"/>
      <path class="st0" d="M641,438.6l-1-.6c-3.8-1.6-5.6-5-8-8-3-3.7-6.9-6-11.8-4.9-2.2-2.1-3.5-4.8-5.2-7-6.2-8.4-14.4-14.4-24.9-14.9-9.1-.4-16.7-3.4-25.2-9.9-3.3-4.8-1.2-11.5.6-18.9-4.7-4.7-9.3-9.9-14.5-14.3-5.8-5-8.9-10.4-5.5-18.2-14.7-3.1-26.7-.6-34.4,13.2,2.8,7.1,7.8,13.4,9.8,21.5-14.5-3.7-21.3-18.8-34.7-22.8-4.8-16.6-17.8-29.2-16.1-46.3-5.7-1.2-8.7,1.2-14.4,2.1-1.5.4-1.8-5.6-5.6-4.6-4-.3-4.9,4.2-7.6,5.3-3.4-1.8-7.6-.5-9.5-4.3l-.8-1.1"/>
      <path class="st0" d="M1157,873c1.1-2.5,1-5.6,4.9-6.8,3.7.8,8.6.9,11.4,6.4,2,2.7-4.6,5-1.1,8.7,11.9,2.9,9.1-15.4,20.8-14.2,0-6,.4-11.7,3.7-17.3,5.1-8.5-.3-23.5-11.8-25.8-10.3-2.1-20.1-5.7-28.9-11.2-5.8-3.6-10.8-.1-16.8.2.5,9-3.6,17.2-5.3,25-.2,4.5,5.2,3.4,5,6.9-9.3,11.1-8.1,18.3,5.1,31.2-1.3,2.9-4.2,4.5-6.7,7.5,11.4,7,14.4-12.5,25.4-5.3-1.2-3.8-1.8-5.2-2.9-6.4l-3,1Z"/>
      <path class="st0" d="M285.6,247.4c10.8,11.8,21.5,28.1,31.3,40.7,13.5,17.3,30.6,30.9,47.3,44.7,7,5.8,12.6,11.6,14.7,20.3,2.5,10.2,8.3,17.1,18,21,11.3,4.6,19.2,13.5,25.9,23.1,12.1,17.4,28.2,31.2,42.4,46.7,8.1,8.9,14.9,18.6,21.7,28.2,8.7,12.3,23.7,18.4,31.1,32l.5.8"/>
      <path class="st0" d="M927.9,886.1h-.9c-25.8-3.7-50.2-13.9-76-16.9-12.1-1.4-22.6-8-35-8.4-9.7-.3-19.3-.7-30.1-.8,5.2,19.2,13.2,35.5,26.2,49,16.8,17.3,34.8,33.5,48,54,3.7,5.7,6.9,11,5.9,18.1-1,7.4,1.1,14.9,2.4,21.9,3.8,21.7-3.2,42.7-2.4,64.1v1.1"/>
      <path class="st0" d="M92,314c-3.3-5.8,1.2-7.7,5-10-.7-3-4.3-4-5-6.8-3.6-1.8-5.7,2.9-10.1,1.5-4.5-7.8-10.8-14.8-22.8-13.2,1.5,6.3-6.5,7.2-8.4,13.3,5,4.4,7.8,10.7,10.1,17.5,3.6,1.3,7.4.3,11.7.8,3.2.7,3.8,4.7,7.4,7.8,14.1-1.7,24.4,7,32.8,17,5.6.4,9.7-1.4,14.1-1.1v-13.6c-9.1.8-12.9-7.9-19.9-11.4-4.8-2.5-9.1-3.8-14.1-1.8"/>
      <path class="st0" d="M658.5,545.1l.5,1.9c4.4,16.3.6,32.7-.3,49-.7,11-3.7,21.6,2.2,32.1,5.8,10.2,8.8,21.5,11.1,33,1.3,6.3,2,12.8,1.7,19-.8,18.1,1.9,36,1.2,54-.3,7,3.8,13.1,4.2,21.5-12.4,24.5-38.6,38.3-54,58.9-24.2,10.1-46.5,20.3-69.2,29.6l-2.8,1"/>
      <path class="st0" d="M936,737c-4.8,5.9-10.8,10.5-18,14-3.5,4.3-1.7,8.7,0,13,8.3,3.7,16.6-4.2,25.4.7,4.4,8.2,15.5,11.3,31.9,8.2,2.2.4,4.5,2.8,4.5,4-.1,14.6,6.3,28.1,7.6,42.1,1.7,17.8,10.2,29.1,28.6,29.9,3,.1,6,0,10,0,8.6,11.2,21.6,17,35.2,22.1,3.1-1.4,4.8-4.3,6.8-6.5-4.6-7.7-16.7-7-18.2-17.9,5.6-11.2,12-21.9,23-30.7-8.9-5.2-17.4-6-25.7-7-10.9-1.3-20.3-4.7-26-15-5.7-10.3-7-21.9-10-33-.9-3.3,4.2-3.8,2.6-8.1-.9-10-16.6-17.1-8.2-30.5-3-3.5-7-2.4-12.5-4.5-2.7-2-6-6.8-10.8-10.3-3.5,3.3-8.1,3-12.1,4.4-3.7,6.5,7.1,13.7-1.1,20-6.1-1.9-8-6-5.8-12.4-13.4-9-24.1-.5-35.2,5-.2,6.2,8.6,5.4,8,11.4"/>
      <path class="st0" d="M555.3,464.2l1.7,1.8c4.6,3.7,7.6,9.3,13.9,11.2,2.2.7,3.3,3.8,4.4,6.7,4.3,11.7,8.5,23.4,15,34.5,4.7,8,10,17.8,8.7,28.6-.3,2.3.1,4.4,2,6-12.9,25.5-16.3,53.7-22.2,82.6,5,10.2-.2,23.4,4.3,36.5,30.3-1.3,59,7.9,91.1,15.4,14.3-2.8,33.4,0,48.8-13.4,8.4,8.4,7.3,19.8,11.6,29.1,1.2,2.7,1.8,6.1,3.3,8.8,6.8,12.8,9.4,26.5,9.1,41-.2,10.3,5.6,19.1,10.1,27.8,3.7,7.2,5.9,14.4,8,22.1,5.3,19.2,12.7,37.8,20.7,56.1v1"/>
      <path class="st0" d="M466,521c6.6,20,23.1,32.8,35,49,.5.8,1.6,1.2,1.9,2,8.2,20.4,27.3,19.2,44.1,21.8,12.6,1.9,25.5,2,38,5.2l.9.3"/>
      <path class="st0" d="M624.2,814.8l.8,1.2c12.1,14.8,30.4,20,46.2,28.7,21,11.6,39.8,26.3,59.6,39.7,11.3,7.6,17.5,20.8,22,33.7,4.3,12.4,8.9,24.5,15.8,36.5-28.6,10.4-54.7,26.2-84.5,32.4-4.4.9-8.4,2.4-12,5.1l-.9.4"/>
      <path class="st0" d="M583.1,672h-2.1c-13.3,5.5-27.7,8.6-40.8,14.3-10.8,4.7-20,12.8-27.1,22.7-3.4,4.8-7,9.3-13.5,11.4-3.6,17.7,12.5,26.9,18.4,42.1-2.6,12.5-3,27.5,1,40.2,4.5,14.6,13.7,28.9,28.2,37.1,6.4,3.6,8.8,8.4,10,15.1,2.2,12.3,7,23.2,16.7,32.2,11.1,10.5,22.6,20.7,33.3,31.7,5.7,5.8,13.9,8.2,21,11.8,2.9,1.5,4.3,3.9,6.8,5.2.4,2.7-3.6,4.7-1.9,7,6.2,8.4,6.8,19.6,14.8,27.2,11.1,10.6,22.1,21.3,33.2,31.8,3.8,3.7,8.4,7.6,9.6,12.2,2.4,9.1,9.4,12.4,16.5,14.6,9.4,3,19.1,9.5,24.9,17.3"/>
      <path class="st0" d="M279.5,162.8l1.5,2.2c5.7,6.9,12.8,11.2,22,12.1,7.7.8,11.8,9.5,20,9.6,7.3,24,31.7,22.7,47.7,33.6,8.2,6.4,11.8,17.7,23.2,20.8,1.5.4,3.1,2.2,3.2,4.8.2,4.8,4.3,8.4,7.9,8.7,16,1.3,20.4,12.7,24.5,26,8.4.8,14.2,6,17.8,15-3.8,4.5-10.3,5.3-15.1,9.2s-1,.9-1.5,1.4c-9.9-4.8-18.3-1.1-25.6,5.7-10.2,9.5-24.5,14.5-31,28l-.5,1.9"/>
      <path class="st0" d="M917.9,1120c-.6-.5-2,0-3,0"/>
      <path class="st0" d="M950.3,1138.6c-9.3-9.3-22.8-10.4-32.4-18.6"/>
      <path class="st0" d="M965.4,1144.7c-7.4,1.5-12-3.1-15-6.1"/>
      <path class="st0" d="M971.2,1132c-1,5.5-3.6,9.3-5.8,12.7"/>
      <path class="st0" d="M925.9,1084.4v-1.5c2.5-39.7,1.2-79.3,0-119-.2-7.4-2.5-14.6-3.1-22-1.3-15.3.3-30.3,4.2-45,1.1-4.1.5-8,.8-10.9,14.4-14.6,28.5-28.3,47-35.3,9.6,0,17.3,3.6,22.3,12.7-3.4,5.7.2,10.5,2.7,15.5-11.8,10.9-18.8,29.5-19,51,1.8,3.2,6.2,2.8,8.2,6.4-4.1,10.2-3.5,21.9-7.4,32.5-.7,1.8-1.4,4-.7,5,7.7,10.4,0,22.5,4,33,4.2,11.1-.8,21.4-1.2,32.1-.3,3.9,4.1,4.8,5.5,7.9-4,8.1-6.2,16.5-7.5,25.1-3,20.1-7.3,40-10.8,60"/>
      <path class="st0" d="M410.4,561.7l.6-.7c4.8-6.2,10.8-11.2,15.9-17.1,8.7-10.1,18.6-17.7,32-21.2,15.8-4.2,31.4-9.2,47-13.8,14.3-4.3,28.9-8.6,32.9-26,.4-1.9.4-3.6,2.1-5,13.5-11.5,25-24.8,33.9-40.1,7.1-12.2,22.7-16.6,27.2-30.9"/>
      <path class="st0" d="M817.7,1120.2c-3.5-1.1-5.9,1.3-8.7.7"/>
      <path class="st0" d="M842.3,1142.6c-8.6-7.2-20.6-11.1-24.7-22.3"/>
      <path class="st0" d="M867,1166c-15-1.9-16.2-16.4-24.7-23.4"/>
      <path class="st0" d="M859.2,1125.5c-.5,14,7.9,26,7.8,40.5"/>
      <path class="st0" d="M888.2,1135.8c-8.1-7.8-16.8-12.2-28.9-10.3"/>
      <path class="st0" d="M912.6,1146.8c-10.5.2-18.1-4.8-24.4-10.9"/>
      <path class="st0" d="M915,1120c-4.2,7.4-4.4,17.2-2.4,26.8"/>
      <path class="st0" d="M255.3,348.7l1.7,1.3c8.6,6.3,16.5,13.8,27.2,17.1,1.9,2,.2,4.6,1,7.2,17.5.5,27.9,11.4,36.1,26,2.8,1.7,6.7-.3,9.9.9-.6,5.7,2.1,12-5.1,14.7l-2,1c-1.7,4.1,2,8.4,3.3,9.6,11.6,10.4,10.4,25.7,16,38.2,6.4,14,7.2,28.4,6.5,41.7,6.1,8.1,15.7,5.6,21.6,11.6-7.1,11.9-8.9,23.9-.4,36.1,4.1-.8,7-3.3,10-6.3,3.6,5,8,8,14.9,7.3,6.1-.7,10.8,2.4,14.4,6.6s1.7,2.2,2.5,3.3c3,4.5,4.9,9.5,8.6,13.5-1.7,3.1-3.5,5.3-5.8,7.9,3.6,3.7,7.6,7.5,6.2,13.3,5,3.5,10,6.4,15.1,9.3,2.8,1.5,7.2,3,7.7,5.1,4.4,18.7,21,30.5,27.1,48,2,5.9,3.4,11.7,7.8,14.6,1.8,6-4,6.7-4.8,11.2,8.1,2.2,11.2,11.3,19.2,14.2-2.4,7-1.1,13.2,5,17.9"/>
      <path class="st0" d="M769.1,815.6l-1.1.4c-12,5.2-24.5,9-37.1,11.7-17.7,3.8-30.7,14.9-44.9,24.3l-1,1"/>
      <path class="st0" d="M338,660c.3,1.6-1.2,2.7-2,2.9-15.8,3.9-15.9,18.8-21.2,29.6,9,12.8,20.2,23.6,23.5,39.4.9,4,4.4,8,9.7,9.1,8.6,1.8,17.1,4.4,26.3,2.4.8-1.7,1.7-3.9-1.9-5.8,5.1-5,7.4-9.9.8-15.8-5.4-4.8.2-12.2-3.1-17.8-3.9,1.7-8,.6-11.9,1-6.8-11.5-3.6-25.8-10.9-37.1-2.1-3.2-1.6-8.4-7.1-8.9l-2,1Z"/>
      <path class="st0" d="M603.1,914.8l.9-.9c8.9-12.2,17.7-24.4,26.5-36.7,8.1-11.3,17.5-21.4,20.4-35.3.5-2.4,2-3.4,3.2-5l.3-.6"/>
      <path class="st0" d="M767,955.1c10.8,16.4,20.2,36,27.9,53.9,3.1,7.2.7,15.3,1.2,22.9v1.7"/>
      <path class="st0" d="M851.8,1070.5c-9.8,4.2-17.6,10.2-26.1,16"/>
      <path class="st0" d="M872,1070.9c-6.8-4.7-12.5-3.7-20.2-.5"/>
      <path class="st0" d="M912,1083c-14-1.6-28-3.7-40-12"/>
      <path class="st0" d="M912,1083c21.7,2.4,66.8,8,66.8,8"/>
      <path class="st0" d="M854.9,695.6l-1.9,2.3c-15.1,13.5-27.5,29.2-39.4,44.2-3.1,25.2,1.7,49,6.4,72.8l.3,1.8"/>
      <path class="st0" d="M768.1,665.4v-2.4c-1.2-12.6-9.7-19.1-20.2-23.5.8-3.3,3.5-4.5,5.2-6.4-2.5-2.3-3.7-5.3-5.4-9,10.4-4.1,17.9-13.1,28.4-17,7.2-2.7,7.5-7.2,6.5-13.3-8.8-4.4-18.4.6-26.9-4,4.2-5.3,7.2-11.5,13.3-14.8,6.3-2.6,14.8,1.1,18.8-6.2-2.7-13.1-3-26.7-17.8-32-1.1-.4-.9-1.5-1.1-1.9-7.5-17.7-20.3-20.1-36.2-11.9-8.5,14.6-22.8,18.2-34.7,24.9l-1-2"/>
      <path class="st0" d="M143.4,61.9l.6,1.1c8.5,16.2,1.7,32.7.8,49-.3,5.1-4.3,9.6-7,13.9-11.2,17.6-20.4,36.7-34.8,52.2l-1.1,1.2"/>
      <path class="st0" d="M798.1,1115c.6,2.1,6-1,10.9,6"/>
      <path class="st0" d="M825.7,1086.5c-11.1,7.6-19.8,16.4-26.7,27.5l-.9,1c-2.8-9.7-9.9-15.3-18-19.2"/>
      <path class="st0" d="M780.3,1084.7c1.1,3.6,1.1,6.9-.2,11.1"/>
      <path class="st0" d="M732,1046c1.7,0,3.3,2.5,5.2-.4,1.9,3.1,3.2,6.4,4.8,9.4,10,2.8,16.3,9,17,17.6,9.5-.3,13.3,9.2,21.2,12.2"/>
      <path class="st0" d="M878.7,793.6l1.3,1.4c1,.7,1.4,2.4,3,2,11.8-2.8,24.5,1.6,36.6-4.1,11,6.4,24.4,3.1,36.4,7.1-1,3.3-2.5,6.5-3.2,10.6,2.2,4.2,6.9,7.7,7.2,13.4,5.5,2.1,12.1,2.5,15.2,9.1-1.3,5.6-1.3,11.2-1.2,16.9l.9.8"/>
      <path class="st0" d="M983.9,996.9h-.9c-12.5,2-25.7-.6-38-2.1-6-.7-12.1-.6-18-1.8h-2c-18.6.3-37.9,6.2-56.5,7h-.7l.3,1.5s-39.7,16-57.2,27.5c-8.3,5.4-17.9,4.6-27,5.9-14,2-33.5,5.9-46.8,10.8"/>
      <path class="st0" d="M725.6,677l.4-1c2-5.4,6.6-2.1,10-3,8-2,15.8-4.5,24-6.2,11.3-2.3,22.3-4.1,33,2.1,3.9,2.2,7.6-2.1,12.1-.2,6.3,2.7,13.8,2.5,17.8,8,6.2.9,8.1-4.4,12.1-6,8.7,5.7,12.6,15.5,20,21.3-.6,16.3-1.2,31.6,6.6,45.2-3.7,4.7-11.5.6-12.7,8,0,1.8,2.2,2.3,3,3.7,3.4.5,4.3-3.4,7.1-4.5,4,4.1,10.4,3,14,7.6.1,3.5-5.2,2.4-5.1,5.9,1.7,4.7,4.7,3.9,8,2l2-2c7.7.7,12.5,5.4,13,13,.2,3.3,0,6.7,0,10.6-10,13.1-26,19.9-35.1,31.3-29.8,6.1-57.9,3.5-85.9,4.2"/>
      <path class="st0" d="M660,471"/>
      <path class="st0" d="M795.3,885.2l-1.3.8c-16.3,4.5-28.7,15.6-42,25l-1.5,1"/>
      <path class="st0" d="M32,2c-3.8-.3-2.2,3.7-4.1,5.1-4.8.4-5.1-6.5-10.9-6-.2,7.7,4.9,11.8,8.6,15.6,6.5,1.9,7.2-6.2,12.4-4.4.3-4.5-1.9-7.6-5-10.2h-1Z"/>
      <path class="st0" d="M661,475"/>
      <path class="st0" d="M641,438.6c1,14.2-.3,12.1,0,25.5,2.6,3.1,6.6,3.9,10,5.9.8,2.8-2.1,4.4-2.2,7.6,3.9,3.8,6.6,8.9,9.9,13.5,7.5-.6,13.1,5.3,20.3,5l2-1c8.3-.6,16.4.2,25.1,5.2,4.4,6.9,13.6,12,17.3,21.9-4.4,12.2-17,14.7-25.4,22l-1,2c-16.8,4-33.3-1.8-50-1.4-13.4.3-25.8,2.5-37.9,7.5-2.5,1-4.8.3-7.1.8"/>
      <path class="st0" d="M1079,855v-6.3c-3.3-1.9-6.7-4.1-11-3.7-3.9,1.6-2.9,5-3,8.3,4.2,1.2,8.5,2.2,13,2.7l1-1Z"/>
      <path class="st0" d="M740.1,518.6c0-.7.8-.9.9-1.6,1.1-5.4-1.1-10.7-6-10.6-6.7.2-7.2,6-5.8,9.8,1.8,3.9,4.2,3.1,5.8,3.7l5.1-1.4Z"/>
      <path class="st0" d="M1,11c2.3,2.6,1.5,6.5,4.4,10,2.9-5.8,2-9.5-3.4-12l-1,2Z"/>
      <path class="st0" d="M600,366c-3,1.1-5,3.8-9.4,4.5-3.9-2.3-10.2-1.3-15.3-4.3-8.1,5.7-6,13.6-6.4,21.8,3.5,2.6,5.7,7.5,11,9,14.2,4,18.9.7,22.3-14,.7-2.9-.8-6.5,2.4-9.4,1-.9,2.6-7.5-3.7-7.7h-1Z"/>
    </g>
  </g>
</svg>