<?xml version="1.0" encoding="UTF-8"?>
<svg id="b" data-name="Layer 2" xmlns="http://www.w3.org/2000/svg" viewBox="0 0 378.55 401.33">
  <defs>
    <style>
      .d {
        fill: none;
        stroke: #000;
        stroke-linecap: round;
        stroke-linejoin: round;
        stroke-width: 2px;
      }
    </style>
  </defs>
  <g id="c" data-name="Layer 1">
    <g>
      <path class="d" d="M142.2,395.49c4.59.6,8.42,1.45,12.92-2.73,3.26-3.02,8.64-4.28,11.78-8.4-1.51-5.32,1.94-10.08.93-15.24-1.63-.48-2.79-2.47-5.01-1.83-1.61.69-1.35,3.03-3.19,3.77-2.23.17-2.7-2.26-4.27-3.14,1.08-2.04,1.81-4.28,3.85-5.58-7.27-9.84-15.65-13.11-27.68-11.48-4.11.56-8.36-.05-12.53.13-4.71.2-9.38.77-12.12,5.16-2.34-.85-3.56-2.61-6.08-3.01-9.58,4.62-11.04,12.89-3.12,21.02,2.67,2.74,5.42,5.27,6.45,9.36.51,2.01,2.26,3.87,5.45,4.01,3.33.15,6.9,2.25,8.6,4.94,2.84,4.47,7.65,5.18,11.58,7.19,4.55,2.33,8.1-2,11.81-4.17"/>
      <path class="d" d="M186.1,274.44c6.44-5.05,14.01-3.69,21.32-3.76,3.98-.04,7.97,0,11.84,0,.49-4.07-2.64-6.26-2.93-9.3-1.2-1.38-3.28-.02-3.79-.8-5.67-8.49-16.79-9.07-23.78-16.43-2.46,3.56-6.6,5.26-10.21,7.67-6.89,4.59-7.96,13.01-1.8,18.18,2.56,2.14,5.34,4.21,8.73,5.08"/>
      <path class="d" d="M28.68,266.92c-4.03.1-8.25-.59-11.82-1.59-6.59-1.86-11.38-.6-15.71,4.06-.24,5.91-.7,11.84,3.38,17.02,12.79,1.73,17.15,1.12,22.53-3.39,4.13,2.72,9.38,2.33,12.72-.06,5.14-3.68,10.36-3.43,15.87-3.47.67-6.8-1.36-9.46-8.2-10.69-1.44,3.09-3.6,4.04-6.87,2.55-3.01-1.38-5.67-3.87-9.39-3.17l-2.51-1.25Z"/>
      <path class="d" d="M172.3,183.51c-2.23.13-1.54-3.25-3.75-3.15-5.44,7.01-3.93,20.58,3.16,22.8-.39,4.7-.1,9.6,5.04,12.55,2.73-1.64,6.11-1.43,8.98-3.54,2.6,1.67,2.84,6.02,6.96,6.5,3.43-1.72,5.72-4.87,8.22-8.06-3.7-4.3-9.83-4.44-12.28-9.06-3.16.08-5.67,6.12-8.23.02.27-4.49,4.45-7.72,4-12.81-1.87-2.91-4.93-5.51-7.76-8.45-1.72.49-2.39,2.24-3.72,3.2"/>
      <path class="d" d="M92.65,275.7c-9.88-.79-19.85-.92-29.4-4.14-2.17,4.71.45,7.56,2.9,10.25,6.84,1.01,13.99-1.85,20.91,2.97,9.45-5.33,21.57-4.02,32.69-10.58-9.12-2.52-16.86,1.63-24.59.25l-2.51,1.25Z"/>
      <path class="d" d="M154.11,194.17c3.53-.71,4.66-4.88,8.24-5.44,1.57-4.39-.26-8.21-1.06-12.57-2.77,2.33-6.15,2.58-8.94,4.94,3.85,4.15.12,8.73,1.13,13.08"/>
      <path class="d" d="M181.71,105.74c3.19-1.66,6.47-2.56,9.72-1.58,5.67-1.98,8.67-7.88,15-9.53,3.07-5.49,4.94-12.1,7-18.45,2.36-7.28,1.44-14.97-4.12-21.24l-2.51-1.25c-1.01-2.79-4.71.45-5.61-3.51.45-2.68,4.9-1.41,6.34-4.25-1.09-5.32,3.83-9.08,4.58-14.41-2.73-.78-5.3-.19-8.37-.51-4.98,5.28-11.53,10.07-14.18,17.15-2.08,5.55-5.52,9.49-9.39,13.34,1.3,8.65.18,16.54-4.74,23.53-4.2,5.97-1.72,12.51-2.64,18.62,3.05.75,4.56-.98,6.46-1.65,1.74,1.47,1.92,3.51,1.85,5.62,1.96,2.22,5.78,2.58,6.13,6.63-.99,2.51-4.01,3.02-6.8,4.83.4,3.61-1.61,8.25,1.46,10.93,4.86,4.25-1.24,14.81,9.63,15.29-1.59,12.26,2.26,24.15,2.16,36.71,10.74,2.15,11.42,11.55,14.27,19.1,2.47,6.52,6.77,10.31,13.31,11.79,1.08.24,1.29,1.65,2.5,1.33,1.21,1.94,1.29,4.34,2.67,6.55,2.67,1.06,5.31-.22,9.1-.92-8.93-8.27-14.57-18.23-21.85-26.91-6.46-7.71-2.36-18.75-8.52-26.6,5.94-5.67,2.43-12.45.81-18.53-1.42-5.33-2.27-5.1,1.49-10.11,6.45.33,12.95-1.06,19.01,3.5,2.27,1.71,6.9.28,10.45.28,1.71,1.14,3.46,3.63,4.79,4.35.52.28,2.9.63,3.46.82,2.55.9,11.91,3.47,17.03,7.24.83.61,1.76-4.7-.88-5.01-.72-.09-2.9,0-2.9,0-5.15-2.16-5.27-3.53-10.32-7.1,3.65-9.37,1.41-12.73-6.68-15.64-5.97-2.14-12.76-3.11-18.41-7.96,3.5-2.64,9.4-2.66,7.59-8.97,8.06-1.69,14.46-5.62,21.42-10.7-.13-4.74-.53-10.6,3.61-15.47.83-.97.83-4.03,0-4.78-4.08-3.68-2.62-10.58-8.48-13.25-3.44,6.79-9.97,2.58-15.91,4.03-1.2,5.01-8.8,2.49-10.59,7.84-1.47,4.39-3.2,8.69-4.23,13.74.54,1.79,3.12-.21,4.39,1.55-2.11,4.72-7.48,3.17-11.07,6.7.97,3.86-4.54,6.5-4.79,11.25"/>
      <path class="d" d="M224.36,383.57c-4.61.99-10.23-2.44-14.03,2.97.8,2.68,1.25,5.25,3.49,7.15,2.8-.2,3.64-4.14,6.78-3.85,1.9,2.12-1.36,3.66-.63,5.64,4.92-.61,5.64-1.27,8.27-7.8,2.24-.15,4.35-1.5,7.04-1.91,1.45-2.48-.21-5.73-2.11-5.6-2.4.17-5.8-4.04-7.55.89l-1.25,2.51Z"/>
      <path class="d" d="M264.5,362.87c-.88-1.38-3.27.26-3.81-2.13-4.89,3.51-10.92,5.9-10.08,14.14-5.04-.33-9.8-.52-12,3.9-9.05-1.66-9.94-9.35-11.78-15.38-2.2-2.2-4.63-.13-6.27-1.77-.06-3.05,2.5-4.64,3.7-6.94-5.84-1.41-7.43,1.77-7.43,15.71-3.11,3.07-6.94,6.28-8.15,11.28l-.63,1.88c-.64-2.14-4.06-2.18-3.77-5.02.89-2.5,3.29-4.18,3.85-6.62-1.52-4.76-7.24-6.38-7.71-11.79,4.98-2.57,8.29-7.96,15.05-8.44-1.21-4.71,5.03-6.62,3-12.03h42.87c2.32-2.75,5.85-4.54,9.32-6.22,3.15,1.72,2.45,4.67,2.71,7.47.2,2.04-2.72,3.53-.74,5.65"/>
      <path class="d" d="M88.71,295.09c.33-7.57-.39-3.68,1.09-9.46,0,0,3.4-.2,4.1.1,2.97,2.46.73,5.36-.11,8.38,1.42,5.58,5.41,10.91,3.28,17.31-1.71.92-3.38.92-5.05.02-1.03-2.81.39-6.55.23-9.52-.08-1.45-3.54-6.83-3.54-6.83Z"/>
      <path class="d" d="M350.42,352.21c-10.53,6.05-16.97,16.08-24.46,25.08-.38.45-.83.84-1.25,1.26"/>
      <path class="d" d="M159.13,206.08c.99.72,1.47,2.3,3.74,1.72.33-4.48-4.69-6.15-5.55-10.37-3.49,2.42-.59,6.29-2.9,8.41,1.57,1.11,2.83,1.07,4.08.24"/>
      <path class="d" d="M170.42,118.28c.13-1.72,2.27-2.11,2.48-2.91.09-3.11-.5-4.9-3.38-5.43-2.86,1.54-.49,5.39-3.18,6.7,1.98,2.37,4.52,2.87,6.59,4.15.24,2.73-.4,5.02-3.09,6.41-.67-2.23-1.29-4.32-.04-6.41l.63-2.51Z"/>
      <path class="d" d="M174.81,141.49c-1.82-1.73.84-4.81-1.96-6.28-2.93-.49-2.75,2.19-3.98,3.47.88,2.49,1.9,4.34,3.93,5.43,1.2-.3,1.93-.81,2.02-1.98"/>
      <path class="d" d="M191.74,105.11c-.19,1.81,1.43,2.85,2.07,5.05,8.21-.56,16.18,1.89,24.3,3.59,2.32.49,3.29,1.68,4.36,3.28"/>
      <path class="d" d="M358.57,355.98c-5.99-1.86-9.6-5.98-10.36-12.4-6.51,3.05-12.34,4.22-18.49,3.62l-2.51,1.25c-4.95-.99-6.38-5.74-9.59-9.03-10.19,2.94-18.36-7.06-29.02-4.44-.73,5.18-5.85,6.21-9.74,8.35-4.29,2.36-8.02,4.88-8.72,10.13-.57,4.27-2.47,7.67-5.53,10.78-1.41,1.44-3.26,3.47-2.6,6.78,3.5,0,7.87-1.33,10.48.25,7.7,4.66,16.55,4.47,24.21,7.35,2.54-.42,2.63-2.47,3.13-3.61.38-2.16-2.29-2.57-2-5.64,6.77,2.18,13.68,2.28,20.41,1.5,1.49,1.18,2.24,2.7,3.25,3.96,4.43,5.53,9.18,9.68,16.99,10.2,6.63.45,12.83,4.27,17.35,8.78,5.37,5.36,10.88,6.79,16.99,5.87,2.88-3.7,1.48-8.19,4.72-10.72-2.41-5.66-6.84-9.75-7.83-15.34-2.79-.32-5.17.33-6.79-.26-2.32-2.96-2.94-5.98-4.36-8.62v-8.78Z"/>
      <path class="d" d="M247.56,1c-2.52,2.79-5.19,5.06-9.41,4.44-2.9-.42-5.8,1.84-6.01,3.74-.55,5.17-4.87,6.18-8.14,9.06-1.15,7.48.83,14.67,3.87,21.93,3.74-1.21,7.24-1.87,10.91-1.59,4.35.33,5.7-2.93,6.9-6.23,2.18-5.99,1.18-13.26,7.39-17.75.69-.5.74-3.67-1.03-5.53-1.91-2.02-4.22-4.12-3.85-7.45l-.63-.63Z"/>
      <path class="d" d="M244.43,379.81c-2.71.91-4.62,2.36-3.38,6.39,5.59-.77,11.91,1.63,17.54-3.48-3.93-4.26-8.98-2.53-13.53-2.91h-.63Z"/>
    </g>
  </g>
</svg>