<svg xmlns="http://www.w3.org/2000/svg" width="2646" height="1280" viewBox="0 0 2646 1280">
<image href="indo_map_sm.jpg" x="0" y="0" width="2646" height="1280"/>
<path d="M 1900.57 428.38 C 1903.83 426.64 1907.19 425.73 1910.46 426.75 C 1910.56 429.6 1912.19 430.62 1912.9 432.96 C 1916.66 432.69 1920.37 433.05 1924.07 433.69 C 1928.6 434.48 1933.12 435.68 1937.66 436.63 C 1940 437.14 1941.02 438.37 1942.14 440 C 1948.5 446.02 1955.4 447.04 1961.5 449.17 C 1969.76 452.13 1972 455.49 1968.33 465.07 C 1973.42 468.74 1973.63 470.07 1978.82 472.31 C 1978.82 472.31 1981.07 472.31 1981.78 472.31 C 1984.53 472.62 1983.51 478.02 1982.7 477.41 C 1977.5 473.64 1968.02 470.99 1965.37 470.07 C 1964.76 469.86 1962.32 469.56 1961.81 469.25 C 1960.48 468.44 1958.65 465.89 1956.92 464.77 C 1953.35 464.77 1948.66 466.19 1946.32 464.46 C 1940.1 459.77 1933.48 461.2 1926.96 460.89 C 1923.09 465.99 1924 465.78 1925.43 471.19 C 1927.06 477.4 1930.63 484.23 1924.61 490.04 C 1930.83 497.99 1926.65 509.31 1933.27 517.15 C 1940.71 526.02 1946.52 536.11 1955.59 544.57 C 1951.71 545.29 1949.06 546.61 1946.31 545.49 C 1944.89 543.15 1944.78 540.7 1943.56 538.76 C 1942.34 539.07 1942.14 537.64 1941.01 537.44 C 1934.39 535.91 1930.01 532.03 1927.46 525.41 C 1924.51 517.76 1923.8 508.08 1912.89 505.94 C 1913 493.1 1909.02 481.07 1910.66 468.53 C 1899.65 468.02 1905.87 457.22 1900.87 452.94 C 1897.72 450.19 1899.75 445.5 1899.35 441.83 C 1902.2 439.99 1905.26 439.49 1906.28 436.94 C 1905.97 432.86 1902.1 432.45 1900.06 430.21 C 1900.06 429.68 1900.05 429.17 1900.01 428.66 Z" fill="#f9414422" stroke="#f94144" stroke-width="1.4"/>
<path d="M 1860.3 723.65 C 1864.98 724.26 1868.86 725.18 1873.44 720.9 C 1876.8 717.84 1882.21 716.51 1885.47 712.34 C 1883.94 706.93 1887.4 702.04 1886.38 696.84 C 1884.75 696.33 1883.53 694.29 1881.29 695.01 C 1879.66 695.72 1879.86 698.07 1878.03 698.88 C 1875.79 699.08 1875.28 696.54 1873.65 695.72 C 1874.77 693.68 1875.48 691.34 1877.62 690.01 C 1870.18 680.02 1861.73 676.66 1849.4 678.29 C 1845.22 678.9 1840.84 678.29 1836.66 678.39 C 1831.87 678.59 1827.08 679.21 1824.33 683.69 C 1821.99 682.77 1820.66 681.04 1818.12 680.63 C 1808.33 685.32 1806.91 693.78 1814.96 702.04 C 1817.71 704.79 1820.46 707.44 1821.48 711.62 C 1821.98 713.66 1823.82 715.59 1826.98 715.69 C 1830.34 715.8 1834.01 717.94 1835.74 720.69 C 1838.59 725.28 1843.59 725.99 1847.56 728.03 C 1852.25 730.37 1855.81 725.99 1859.58 723.75 Z" fill="#f3722c22" stroke="#f3722c" stroke-width="1.4"/>
<path d="M 2072.45 679.53 C 2061.75 685.65 2055.13 695.94 2047.48 705.11 C 2047.07 705.62 2046.67 705.93 2046.26 706.44 C 2045.12 705.32 2044.05 704.08 2043 702.77 C 2041.98 701.44 2041.27 699.91 2039.74 698.69 C 2032.91 699.51 2025.88 699.4 2018.95 697.16 C 2018.65 700.22 2021.4 700.63 2020.99 702.87 C 2020.48 703.99 2020.38 706.13 2017.83 706.54 C 2009.98 703.58 2001.02 703.78 1993.17 698.99 C 1990.52 697.46 1986.04 698.79 1982.47 698.79 C 1981.76 695.42 1983.7 693.28 1985.12 691.86 C 1988.47 688.15 1990.16 684.89 1990.73 680.85 C 1991.08 678.2 1992.21 676.24 1993.79 674.63 C 1995.58 672.89 1997.52 671.71 1999.59 670.56 C 2003.47 668.31 2008.76 667.3 2009.48 662 C 2020.28 659.24 2028.63 669.44 2039.03 666.48 C 2042.29 669.85 2043.71 674.64 2048.81 675.66 L 2051.36 674.43 C 2057.67 675.05 2063.58 673.82 2070.21 670.77 C 2070.62 674.04 2071.75 676.73 2073.54 678.83 Z" fill="#f8961e22" stroke="#f8961e" stroke-width="1.4"/>
<path d="M 1910.46 426.75 C 1907.19 425.73 1903.83 426.64 1900.57 428.38 C 1899.87 427.1 1899.43 425.66 1898.13 424.5 C 1896.19 425.21 1894.66 427.05 1891.5 426.23 C 1892.42 420.02 1889.87 413.39 1894.15 407.28 C 1899.15 400.14 1900.27 392.09 1898.94 383.32 C 1902.92 379.45 1906.38 375.37 1908.52 369.77 C 1911.28 362.63 1917.9 357.74 1922.99 352.34 C 1926.15 352.65 1928.8 352.04 1931.55 352.85 C 1930.74 358.25 1925.74 362.13 1926.87 367.53 C 1925.44 370.38 1920.85 369.06 1920.45 371.81 C 1921.36 375.89 1925.13 372.52 1926.15 375.38 L 1928.7 376.6 C 1934.3 382.92 1935.32 390.77 1932.87 398.21 C 1930.73 404.73 1928.9 411.46 1925.74 417.06 C 1919.32 418.69 1916.26 424.71 1910.46 426.75 Z" fill="#f9844a22" stroke="#f9844a" stroke-width="1.4"/>
<path d="M 1984.92 690.43 C 1984 689 1981.56 690.74 1981.05 688.29 C 1976.05 691.86 1969.94 694.3 1970.75 702.66 C 1965.66 702.35 1960.77 702.15 1958.53 706.63 C 1949.25 704.9 1948.44 697.05 1946.5 690.94 C 1944.26 688.69 1941.82 690.83 1940.08 689.1 C 1940.09 686.04 1942.63 684.41 1943.86 682.07 C 1937.95 680.64 1936.32 683.9 1936.31 698.07 C 1933.15 701.23 1929.28 704.49 1928.06 709.59 L 1927.45 711.52 C 1926.84 709.38 1923.27 709.28 1923.58 706.43 C 1924.49 703.88 1926.94 702.15 1927.55 699.7 C 1926.02 694.81 1920.21 693.18 1919.71 687.67 C 1924.8 685.02 1928.16 679.52 1935.09 679.11 C 1933.87 674.32 1940.19 672.39 1938.15 666.88 L 1981.86 666.89 C 1984.21 664.03 1987.88 662.3 1991.34 660.57 C 1994.5 662.3 1993.89 665.36 1994.09 668.21 C 1994.3 670.25 1991.34 671.78 1993.38 673.92 C 1992.21 676.24 1991.08 678.2 1990.73 680.85 C 1990.16 684.89 1988.47 688.15 1985.82 691.11 Z" fill="#f9c74f22" stroke="#f9c74f" stroke-width="1.4"/>
<path d="M 1950.5 431.84 C 1952.33 438.27 1946.32 438.37 1942.76 441.02 C 1941.02 438.37 1940 437.14 1937.66 436.63 C 1933.12 435.68 1928.6 434.48 1924.07 433.69 C 1924.62 427.87 1930.22 425.22 1929.2 421.24 C 1932.87 417.68 1938.38 419.2 1940.52 414.41 C 1939.19 412.58 1936.54 414.62 1936.03 412.78 C 1937.05 407.69 1938.78 403.3 1940.31 398.82 C 1942.15 393.42 1949.89 395.97 1951.11 390.87 C 1957.13 389.44 1963.85 393.73 1967.32 386.8 C 1973.33 389.45 1971.8 396.48 1975.98 400.25 C 1976.79 401.07 1976.79 404.12 1975.98 405.14 C 1971.8 410.14 1972.21 416.15 1972.31 420.94 C 1965.28 426.14 1958.75 430.11 1950.5 431.84 Z" fill="#90be6d22" stroke="#90be6d" stroke-width="1.4"/>
<path d="M 2047.48 705.11 C 2055.13 695.94 2061.75 685.65 2072.45 679.53 C 2075.33 680.92 2077.76 682.44 2080.8 683.41 L 2080.8 692.58 C 2082.33 695.23 2082.94 698.29 2085.29 701.34 C 2086.92 701.96 2089.36 701.34 2092.22 701.65 C 2093.23 707.26 2097.72 711.44 2100.16 717.25 C 2096.9 719.79 2098.33 724.38 2095.37 728.15 C 2089.16 729.07 2083.55 727.64 2078.05 722.14 C 2073.36 717.55 2067.05 713.68 2060.32 713.17 C 2054.23 712.77 2049.94 710.17 2046.24 706.45 C 2046.67 705.93 2047.07 705.62 2047.48 705.11 Z" fill="#43aa8b22" stroke="#43aa8b" stroke-width="1.4"/>
<path d="M 1732.63 590.93 C 1736.3 591.95 1740.58 592.66 1744.66 592.56 L 1747.2 593.79 C 1750.97 593.07 1753.72 595.62 1756.78 597.05 C 1760.14 598.58 1762.39 597.66 1763.81 594.5 C 1770.74 595.72 1772.88 598.48 1772.17 605.41 C 1766.56 605.51 1761.16 605.2 1755.96 608.97 C 1752.6 611.32 1747.2 611.72 1743.02 608.97 C 1737.52 613.56 1733.14 614.17 1720.1 612.44 C 1715.92 607.14 1716.43 601.12 1716.63 595.11 C 1721.02 590.32 1725.91 588.99 1732.63 590.93 Z" fill="#4d908e22" stroke="#4d908e" stroke-width="1.4"/>
<path d="M 1926.74 596.35 C 1919.31 596.45 1911.56 595.12 1905.04 600.22 C 1900.86 600.02 1898.11 597.88 1895.46 595.73 C 1889.14 590.43 1890.27 581.87 1897.3 577.18 C 1900.97 574.74 1905.14 573.01 1907.69 569.34 C 1914.82 576.78 1926.13 577.39 1931.94 586.05 C 1932.45 586.87 1934.59 585.44 1935.81 586.87 C 1936.12 589.93 1939.28 592.17 1938.77 596.35 C 1934.9 596.35 1930.82 596.35 1926.74 596.35 Z" fill="#57759022" stroke="#577590" stroke-width="1.4"/>
<path d="M 1967.73 321.56 C 1965.18 324.42 1962.43 326.76 1958.15 326.05 C 1955.2 325.64 1952.24 327.88 1952.04 329.82 C 1951.43 335.12 1947.04 336.14 1943.78 339.09 C 1942.66 346.74 1944.6 354.08 1947.75 361.41 C 1951.52 360.19 1955.09 359.48 1958.86 359.78 C 1963.34 360.09 1964.67 356.83 1965.89 353.47 C 1968.14 347.35 1967.12 339.91 1973.43 335.32 C 1974.15 334.81 1974.15 331.55 1972.42 329.72 C 1970.48 327.68 1968.14 325.54 1968.44 322.18 Z" fill="#277da122" stroke="#277da1" stroke-width="1.4"/>
<path d="M 1887.11 504.41 C 1889.46 504.31 1888.74 507.67 1890.99 507.57 C 1892.92 506.65 1893.64 504.92 1895.37 504.41 C 1898.32 507.37 1901.38 510.02 1903.32 512.97 C 1903.72 518.17 1899.54 521.43 1899.24 526.02 C 1901.79 532.24 1904.33 526.02 1907.59 526.02 C 1910.14 530.81 1916.36 530.91 1920.13 535.3 C 1917.58 538.56 1915.23 541.82 1911.77 543.55 C 1907.49 543.04 1907.29 538.66 1904.64 536.93 C 1901.68 539.07 1898.22 538.86 1895.47 540.49 C 1890.27 537.43 1889.96 532.44 1890.37 527.65 C 1883.14 525.41 1881.61 511.54 1887.11 504.41 Z" fill="#ff006e22" stroke="#ff006e" stroke-width="1.4"/>
<path d="M 1779.91 597.36 C 1789.69 600.62 1799.78 600.72 1809.87 601.54 L 1812.42 600.21 C 1820.26 601.64 1828.21 597.46 1837.48 600.01 C 1826.17 606.74 1813.74 605.41 1804.16 610.81 C 1797.13 605.82 1789.79 608.77 1782.87 607.75 C 1780.42 605.1 1777.67 602.15 1779.91 597.36 Z" fill="#8338ec22" stroke="#8338ec" stroke-width="1.4"/>
<path d="M 1929.79 714.58 C 1933.66 709.08 1939.37 712.54 1944.06 711.53 L 1945.38 708.88 C 1947.22 703.88 1950.68 708.16 1953.13 707.96 C 1955.06 707.86 1956.69 711.12 1955.27 713.67 C 1952.62 714.07 1950.37 715.5 1948.13 715.6 C 1945.38 722.23 1944.67 722.94 1939.67 723.55 C 1938.86 721.62 1942.22 719.98 1940.29 717.84 C 1937.03 717.64 1936.21 721.62 1933.36 721.82 C 1931.01 719.88 1930.61 717.33 1929.79 714.58 Z" fill="#3a86ff22" stroke="#3a86ff" stroke-width="1.4"/>
<path d="M 1806.91 611.63 C 1805.38 617.54 1806.1 613.56 1805.79 621.31 C 1805.79 621.31 1809.36 626.71 1809.36 628.24 C 1809.56 631.3 1808.13 635.07 1809.15 637.92 C 1810.88 638.84 1812.62 638.84 1814.35 637.92 C 1816.49 631.4 1812.41 626 1810.99 620.29 C 1811.8 617.23 1814.15 614.28 1811.09 611.73 C 1810.38 611.42 1806.91 611.63 1806.91 611.63 Z" fill="#fb560722" stroke="#fb5607" stroke-width="1.4"/>
<path d="M 1880.8 512.97 C 1877.23 513.48 1876.01 517.76 1872.44 518.47 C 1870.71 513.99 1874.58 509.3 1870.61 505.12 C 1873.46 502.78 1876.82 502.47 1879.68 500.13 C 1880.49 504.61 1882.43 508.49 1880.8 512.97 Z" fill="#ffbe0b22" stroke="#ffbe0b" stroke-width="1.4"/>
<path d="M 1964.44 707.65 C 1961.69 708.57 1959.75 710.1 1960.97 714.18 C 1966.68 713.36 1973.1 715.81 1978.8 710.61 C 1974.83 706.23 1969.63 708.06 1965.05 707.65 Z" fill="#8ac92622" stroke="#8ac926" stroke-width="1.4"/>
<path d="M 1881.3 532.34 C 1879.06 532.95 1878.55 531.32 1877.53 530.6 C 1875.5 531.42 1874.27 531.42 1872.64 530.3 C 1874.99 528.16 1872.03 524.18 1875.6 521.74 C 1876.52 526.12 1881.61 527.75 1881.3 532.34 Z" fill="#1982c422" stroke="#1982c4" stroke-width="1.4"/>
<path d="M 1891.6 438.16 C 1891.4 438.97 1889.16 439.38 1889.06 441.11 C 1887.43 441.68 1886.07 440.91 1884.88 439.48 C 1887.63 438.16 1885.18 434.18 1888.14 432.65 C 1891.09 433.16 1891.6 435 1891.6 438.16 Z" fill="#6a4c9322" stroke="#6a4c93" stroke-width="1.4"/>
<path d="M 1891.5 458.34 C 1894.35 459.87 1891.7 463.03 1893.54 464.76 C 1893.33 466.6 1892.62 467.11 1891.4 467.41 C 1889.36 466.29 1888.34 464.46 1887.42 461.91 C 1888.65 460.58 1888.54 457.83 1891.5 458.34 Z" fill="#ef476f22" stroke="#ef476f" stroke-width="1.4"/>
<path d="M 1888.79 442.34 C 1889.75 442.8 1890.71 443.21 1891.6 443.76 C 1891.81 446.52 1891.19 448.86 1888.44 450.29 C 1887.73 448.05 1887.12 445.9 1888.44 443.76 L 1888.79 442.34 Z" fill="#06d6a022" stroke="#06d6a0" stroke-width="1.4"/>
<text x="1929.44" y="469.45" font-size="5" font-family="Arial" text-anchor="middle" dominant-baseline="middle" fill="#fff" stroke="#fff" stroke-width="0.5" paint-order="stroke">F00</text>
<text x="1929.44" y="469.45" font-size="5" font-family="Arial" text-anchor="middle" dominant-baseline="middle" fill="#111">F00</text>
<text x="1848.79" y="701.06" font-size="5" font-family="Arial" text-anchor="middle" dominant-baseline="middle" fill="#fff" stroke="#fff" stroke-width="0.5" paint-order="stroke">F01</text>
<text x="1848.79" y="701.06" font-size="5" font-family="Arial" text-anchor="middle" dominant-baseline="middle" fill="#111">F01</text>
<text x="2024.93" y="684.56" font-size="5" font-family="Arial" text-anchor="middle" dominant-baseline="middle" fill="#fff" stroke="#fff" stroke-width="0.5" paint-order="stroke">F02</text>
<text x="2024.93" y="684.56" font-size="5" font-family="Arial" text-anchor="middle" dominant-baseline="middle" fill="#111">F02</text>
<text x="1914.00" y="394.88" font-size="5" font-family="Arial" text-anchor="middle" dominant-baseline="middle" fill="#fff" stroke="#fff" stroke-width="0.5" paint-order="stroke">F03</text>
<text x="1914.00" y="394.88" font-size="5" font-family="Arial" text-anchor="middle" dominant-baseline="middle" fill="#111">F03</text>
<text x="1958.95" y="683.22" font-size="5" font-family="Arial" text-anchor="middle" dominant-baseline="middle" fill="#fff" stroke="#fff" stroke-width="0.5" paint-order="stroke">F04</text>
<text x="1958.95" y="683.22" font-size="5" font-family="Arial" text-anchor="middle" dominant-baseline="middle" fill="#111">F04</text>
<text x="1952.47" y="413.74" font-size="5" font-family="Arial" text-anchor="middle" dominant-baseline="middle" fill="#fff" stroke="#fff" stroke-width="0.5" paint-order="stroke">F05</text>
<text x="1952.47" y="413.74" font-size="5" font-family="Arial" text-anchor="middle" dominant-baseline="middle" fill="#111">F05</text>
<text x="2074.85" y="705.31" font-size="5" font-family="Arial" text-anchor="middle" dominant-baseline="middle" fill="#fff" stroke="#fff" stroke-width="0.5" paint-order="stroke">F06</text>
<text x="2074.85" y="705.31" font-size="5" font-family="Arial" text-anchor="middle" dominant-baseline="middle" fill="#111">F06</text>
<text x="1740.17" y="601.82" font-size="5" font-family="Arial" text-anchor="middle" dominant-baseline="middle" fill="#fff" stroke="#fff" stroke-width="0.5" paint-order="stroke">F07</text>
<text x="1740.17" y="601.82" font-size="5" font-family="Arial" text-anchor="middle" dominant-baseline="middle" fill="#111">F07</text>
<text x="1912.36" y="586.89" font-size="5" font-family="Arial" text-anchor="middle" dominant-baseline="middle" fill="#fff" stroke="#fff" stroke-width="0.5" paint-order="stroke">F08</text>
<text x="1912.36" y="586.89" font-size="5" font-family="Arial" text-anchor="middle" dominant-baseline="middle" fill="#111">F08</text>
<text x="1957.84" y="342.46" font-size="5" font-family="Arial" text-anchor="middle" dominant-baseline="middle" fill="#fff" stroke="#fff" stroke-width="0.5" paint-order="stroke">F09</text>
<text x="1957.84" y="342.46" font-size="5" font-family="Arial" text-anchor="middle" dominant-baseline="middle" fill="#111">F09</text>
<text x="1898.43" y="524.86" font-size="5" font-family="Arial" text-anchor="middle" dominant-baseline="middle" fill="#fff" stroke="#fff" stroke-width="0.5" paint-order="stroke">F10</text>
<text x="1898.43" y="524.86" font-size="5" font-family="Arial" text-anchor="middle" dominant-baseline="middle" fill="#111">F10</text>
<text x="1803.76" y="603.69" font-size="5" font-family="Arial" text-anchor="middle" dominant-baseline="middle" fill="#fff" stroke="#fff" stroke-width="0.5" paint-order="stroke">F11</text>
<text x="1803.76" y="603.69" font-size="5" font-family="Arial" text-anchor="middle" dominant-baseline="middle" fill="#111">F11</text>
<text x="1942.69" y="714.66" font-size="5" font-family="Arial" text-anchor="middle" dominant-baseline="middle" fill="#fff" stroke="#fff" stroke-width="0.5" paint-order="stroke">F12</text>
<text x="1942.69" y="714.66" font-size="5" font-family="Arial" text-anchor="middle" dominant-baseline="middle" fill="#111">F12</text>
<text x="1810.34" y="624.86" font-size="5" font-family="Arial" text-anchor="middle" dominant-baseline="middle" fill="#fff" stroke="#fff" stroke-width="0.5" paint-order="stroke">F13</text>
<text x="1810.34" y="624.86" font-size="5" font-family="Arial" text-anchor="middle" dominant-baseline="middle" fill="#111">F13</text>
<text x="1876.22" y="509.16" font-size="5" font-family="Arial" text-anchor="middle" dominant-baseline="middle" fill="#fff" stroke="#fff" stroke-width="0.5" paint-order="stroke">F14</text>
<text x="1876.22" y="509.16" font-size="5" font-family="Arial" text-anchor="middle" dominant-baseline="middle" fill="#111">F14</text>
<text x="1968.88" y="710.87" font-size="5" font-family="Arial" text-anchor="middle" dominant-baseline="middle" fill="#fff" stroke="#fff" stroke-width="0.5" paint-order="stroke">F15</text>
<text x="1968.88" y="710.87" font-size="5" font-family="Arial" text-anchor="middle" dominant-baseline="middle" fill="#111">F15</text>
<text x="1876.70" y="528.01" font-size="5" font-family="Arial" text-anchor="middle" dominant-baseline="middle" fill="#fff" stroke="#fff" stroke-width="0.5" paint-order="stroke">F16</text>
<text x="1876.70" y="528.01" font-size="5" font-family="Arial" text-anchor="middle" dominant-baseline="middle" fill="#111">F16</text>
<text x="1888.53" y="437.28" font-size="5" font-family="Arial" text-anchor="middle" dominant-baseline="middle" fill="#fff" stroke="#fff" stroke-width="0.5" paint-order="stroke">F17</text>
<text x="1888.53" y="437.28" font-size="5" font-family="Arial" text-anchor="middle" dominant-baseline="middle" fill="#111">F17</text>
<text x="1890.72" y="462.72" font-size="5" font-family="Arial" text-anchor="middle" dominant-baseline="middle" fill="#fff" stroke="#fff" stroke-width="0.5" paint-order="stroke">F18</text>
<text x="1890.72" y="462.72" font-size="5" font-family="Arial" text-anchor="middle" dominant-baseline="middle" fill="#111">F18</text>
<text x="1889.55" y="446.15" font-size="5" font-family="Arial" text-anchor="middle" dominant-baseline="middle" fill="#fff" stroke="#fff" stroke-width="0.5" paint-order="stroke">F19</text>
<text x="1889.55" y="446.15" font-size="5" font-family="Arial" text-anchor="middle" dominant-baseline="middle" fill="#111">F19</text>
</svg>