<?xml version="1.0" encoding="UTF-8"?>
<svg id="b" xmlns="http://www.w3.org/2000/svg" version="1.1" viewBox="0 0 378.5 401.3">
  <!-- Generator: Adobe Illustrator 30.1.0, SVG Export Plug-In . SVG Version: 2.1.1 Build 136)  -->
  <defs>
    <style>
      .st0 {
        fill: none;
        stroke: #000;
        stroke-linecap: round;
        stroke-linejoin: round;
        stroke-width: 2px;
      }
    </style>
  </defs>
  <g id="c">
    <g>
      <path class="st0" d="M142.2,395.5c4.6.6,8.4,1.5,12.9-2.7,3.3-3,8.6-4.3,11.8-8.4-1.5-5.3,1.9-10.1.9-15.2-1.6-.5-2.8-2.5-5-1.8-1.6.7-1.4,3-3.2,3.8-2.2.2-2.7-2.3-4.3-3.1,1.1-2,1.8-4.3,3.9-5.6-7.3-9.8-15.6-13.1-27.7-11.5-4.1.6-8.4,0-12.5.1-4.7.2-9.4.8-12.1,5.2-2.3-.9-3.6-2.6-6.1-3-9.6,4.6-11,12.9-3.1,21,2.7,2.7,5.4,5.3,6.4,9.4.5,2,2.3,3.9,5.4,4,3.3.1,6.9,2.2,8.6,4.9,2.8,4.5,7.7,5.2,11.6,7.2,4.6,2.3,8.1-2,11.8-4.2"/>
      <path class="st0" d="M186.1,274.4c6.4-5,14-3.7,21.3-3.8,4,0,8,0,11.8,0,.5-4.1-2.6-6.3-2.9-9.3-1.2-1.4-3.3,0-3.8-.8-5.7-8.5-16.8-9.1-23.8-16.4-2.5,3.6-6.6,5.3-10.2,7.7-6.9,4.6-8,13-1.8,18.2,2.6,2.1,5.3,4.2,8.7,5.1"/>
      <path class="st0" d="M28.7,266.9c-4,.1-8.2-.6-11.8-1.6-6.6-1.9-11.4-.6-15.7,4.1-.2,5.9-.7,11.8,3.4,17,12.8,1.7,17.1,1.1,22.5-3.4,4.1,2.7,9.4,2.3,12.7,0,5.1-3.7,10.4-3.4,15.9-3.5.7-6.8-1.4-9.5-8.2-10.7-1.4,3.1-3.6,4-6.9,2.5-3-1.4-5.7-3.9-9.4-3.2l-2.5-1.2h0Z"/>
      <path class="st0" d="M172.3,183.5c-2.2.1-1.5-3.2-3.8-3.1-5.4,7-3.9,20.6,3.2,22.8-.4,4.7-.1,9.6,5,12.6,2.7-1.6,6.1-1.4,9-3.5,2.6,1.7,2.8,6,7,6.5,3.4-1.7,5.7-4.9,8.2-8.1-3.7-4.3-9.8-4.4-12.3-9.1-3.2,0-5.7,6.1-8.2,0,.3-4.5,4.4-7.7,4-12.8-1.9-2.9-4.9-5.5-7.8-8.4-1.7.5-2.4,2.2-3.7,3.2"/>
      <path class="st0" d="M92.7,275.7c-9.9-.8-19.8-.9-29.4-4.1-2.2,4.7.5,7.6,2.9,10.2,6.8,1,14-1.9,20.9,3,9.4-5.3,21.6-4,32.7-10.6-9.1-2.5-16.9,1.6-24.6.2l-2.5,1.2Z"/>
      <path class="st0" d="M154.1,194.2c3.5-.7,4.7-4.9,8.2-5.4,1.6-4.4-.3-8.2-1.1-12.6-2.8,2.3-6.1,2.6-8.9,4.9,3.9,4.1.1,8.7,1.1,13.1"/>
      <path class="st0" d="M181.1,106.1l.6-.3c3.2-1.7,6.5-2.6,9.7-1.6,5.7-2,8.7-7.9,15-9.5,3.1-5.5,4.9-12.1,7-18.5,2.4-7.3,1.4-15-4.1-21.2l-2.5-1.2c-1-2.8-4.7.5-5.6-3.5.4-2.7,4.9-1.4,6.3-4.2-1.1-5.3,3.8-9.1,4.6-14.4-2.7-.8-5.3-.2-8.4-.5-5,5.3-11.5,10.1-14.2,17.1-2.1,5.5-5.5,9.5-9.4,13.3,1.3,8.6.2,16.5-4.7,23.5-4.2,6-1.7,12.5-2.6,18.6,3.1.8,4.6-1,6.5-1.7,1.7,1.5,1.9,3.5,1.9,5.6,2,2.2,5.8,2.6,6.1,6.6-1,2.5-4,3-6.8,4.8.4,3.6-1.6,8.2,1.5,10.9,4.9,4.2-1.2,14.8,9.6,15.3-1.6,12.3,2.3,24.1,2.2,36.7,10.7,2.1,11.4,11.6,14.3,19.1,2.5,6.5,6.8,10.3,13.3,11.8,1.1.2,1.3,1.6,2.5,1.3,1.2,1.9,1.3,4.3,2.7,6.6,2.7,1.1,5.3-.2,9.1-.9-8.9-8.3-14.6-18.2-21.9-26.9-6.5-7.7-2.4-18.8-8.5-26.6,5.9-5.7,2.4-12.4.8-18.5-1.4-5.3-2.3-5.1,1.5-10.1,6.4.3,12.9-1.1,19,3.5,2.3,1.7,6.9.3,10.4.3,1.7,1.1,3.5,3.6,4.8,4.4.5.3,2.9.6,3.5.8,2.6.9,11.9,3.5,17,7.2.8.6,1.8-4.7-.9-5-.7,0-2.9,0-2.9,0-5.1-2.2-5.3-3.5-10.3-7.1,3.6-9.4,1.4-12.7-6.7-15.6-6-2.1-12.8-3.1-18.4-8,3.5-2.6,9.4-2.7,7.6-9,8.1-1.7,14.5-5.6,21.4-10.7-.1-4.7-.5-10.6,3.6-15.5.8-1,.8-4,0-4.8-4.1-3.7-2.6-10.6-8.5-13.2-3.4,6.8-10,2.6-15.9,4-1.2,5-8.8,2.5-10.6,7.8-1.5,4.4-3.2,8.7-4.2,13.7.5,1.8,3.1-.2,4.4,1.6-2.1,4.7-7.5,3.2-11.1,6.7,1,3.9-4.5,6.5-4.8,11.2l-.2.8"/>
      <path class="st0" d="M224.4,383.6c-4.6,1-10.2-2.4-14,3,.8,2.7,1.2,5.2,3.5,7.1,2.8-.2,3.6-4.1,6.8-3.9,1.9,2.1-1.4,3.7-.6,5.6,4.9-.6,5.6-1.3,8.3-7.8,2.2-.1,4.4-1.5,7-1.9,1.4-2.5-.2-5.7-2.1-5.6-2.4.2-5.8-4-7.6.9l-1.2,2.5h0Z"/>
      <path class="st0" d="M265.3,363.5l-.8-.6c-.9-1.4-3.3.3-3.8-2.1-4.9,3.5-10.9,5.9-10.1,14.1-5-.3-9.8-.5-12,3.9-9.1-1.7-9.9-9.4-11.8-15.4-2.2-2.2-4.6-.1-6.3-1.8,0-3,2.5-4.6,3.7-6.9-5.8-1.4-7.4,1.8-7.4,15.7-3.1,3.1-6.9,6.3-8.1,11.3l-.6,1.9c-.6-2.1-4.1-2.2-3.8-5,.9-2.5,3.3-4.2,3.9-6.6-1.5-4.8-7.2-6.4-7.7-11.8,5-2.6,8.3-8,15.1-8.4-1.2-4.7,5-6.6,3-12h42.9c2.3-2.8,5.9-4.5,9.3-6.2,3.1,1.7,2.5,4.7,2.7,7.5.2,2-2.7,3.5-.7,5.6l.7.5"/>
      <path class="st0" d="M88.7,295.1c.3-7.6-.4-3.7,1.1-9.5,0,0,3.4-.2,4.1.1,3,2.5.7,5.4-.1,8.4,1.4,5.6,5.4,10.9,3.3,17.3-1.7.9-3.4.9-5.1,0-1-2.8.4-6.5.2-9.5,0-1.5-3.5-6.8-3.5-6.8h0Z"/>
      <path class="st0" d="M351.5,351.5l-1.1.7c-10.5,6-17,16.1-24.5,25.1-.4.5-.8.8-1.2,1.3"/>
      <path class="st0" d="M159.1,206.1c1,.7,1.5,2.3,3.7,1.7.3-4.5-4.7-6.1-5.6-10.4-3.5,2.4-.6,6.3-2.9,8.4,1.6,1.1,2.8,1.1,4.1.2"/>
      <path class="st0" d="M170.4,118.3c.1-1.7,2.3-2.1,2.5-2.9,0-3.1-.5-4.9-3.4-5.4-2.9,1.5-.5,5.4-3.2,6.7,2,2.4,4.5,2.9,6.6,4.2.2,2.7-.4,5-3.1,6.4-.7-2.2-1.3-4.3,0-6.4l.6-2.5h0Z"/>
      <path class="st0" d="M174.8,141.5c-1.8-1.7.8-4.8-2-6.3-2.9-.5-2.8,2.2-4,3.5.9,2.5,1.9,4.3,3.9,5.4,1.2-.3,1.9-.8,2-2"/>
      <path class="st0" d="M191.4,104.2l.3,1c-.2,1.8,1.4,2.8,2.1,5.1,8.2-.6,16.2,1.9,24.3,3.6,2.3.5,3.3,1.7,4.4,3.3l.5,1.2"/>
      <path class="st0" d="M358.6,356c-6-1.9-9.6-6-10.4-12.4-6.5,3-12.3,4.2-18.5,3.6l-2.5,1.2c-5-1-6.4-5.7-9.6-9-10.2,2.9-18.4-7.1-29-4.4-.7,5.2-5.9,6.2-9.7,8.4-4.3,2.4-8,4.9-8.7,10.1-.6,4.3-2.5,7.7-5.5,10.8-1.4,1.4-3.3,3.5-2.6,6.8,3.5,0,7.9-1.3,10.5.2,7.7,4.7,16.5,4.5,24.2,7.4,2.5-.4,2.6-2.5,3.1-3.6.4-2.2-2.3-2.6-2-5.6,6.8,2.2,13.7,2.3,20.4,1.5,1.5,1.2,2.2,2.7,3.2,4,4.4,5.5,9.2,9.7,17,10.2,6.6.5,12.8,4.3,17.4,8.8,5.4,5.4,10.9,6.8,17,5.9,2.9-3.7,1.5-8.2,4.7-10.7-2.4-5.7-6.8-9.8-7.8-15.3-2.8-.3-5.2.3-6.8-.3-2.3-3-2.9-6-4.4-8.6v-8.8h0Z"/>
      <path class="st0" d="M247.6,1c-2.5,2.8-5.2,5.1-9.4,4.4-2.9-.4-5.8,1.8-6,3.7-.6,5.2-4.9,6.2-8.1,9.1-1.1,7.5.8,14.7,3.9,21.9,3.7-1.2,7.2-1.9,10.9-1.6,4.4.3,5.7-2.9,6.9-6.2,2.2-6,1.2-13.3,7.4-17.8.7-.5.7-3.7-1-5.5-1.9-2-4.2-4.1-3.9-7.4l-.6-.6h0Z"/>
      <path class="st0" d="M244.4,379.8c-2.7.9-4.6,2.4-3.4,6.4,5.6-.8,11.9,1.6,17.5-3.5-3.9-4.3-9-2.5-13.5-2.9h-.6Z"/>
    </g>
  </g>
</svg>