<svg xmlns="http://www.w3.org/2000/svg" width="2646" height="1280" viewBox="0 0 2646 1280">
<image href="indo_map_sm.jpg" x="0" y="0" width="2646" height="1280"/>
<path d="M 1898.56 434.17 C 1901.95 432.39 1905.44 431.39 1908.78 432.28 C 1908.84 435.05 1910.5 435.99 1911.2 438.25 C 1915.08 437.87 1918.91 438.1 1922.71 438.61 C 1927.38 439.23 1932.02 440.26 1936.69 441.04 C 1939.1 441.47 1940.13 442.62 1941.26 444.17 C 1947.71 449.83 1954.82 450.6 1961.07 452.49 C 1969.54 455.11 1971.79 458.31 1967.84 467.73 C 1973.03 471.14 1973.22 472.42 1978.55 474.44 C 1978.55 474.44 1980.86 474.37 1981.59 474.35 C 1984.43 474.56 1983.28 479.85 1982.45 479.28 C 1977.15 475.77 1967.42 473.49 1964.7 472.68 C 1964.08 472.5 1961.56 472.28 1961.04 472 C 1959.69 471.25 1957.84 468.83 1956.07 467.79 C 1952.39 467.9 1947.53 469.44 1945.14 467.83 C 1938.81 463.46 1931.95 465.06 1925.22 464.96 C 1921.14 470.04 1922.09 469.81 1923.46 475.02 C 1925.04 481.01 1928.6 487.54 1922.29 493.37 C 1928.57 500.91 1924.06 512.04 1930.75 519.46 C 1938.27 527.85 1944.09 537.48 1953.3 545.42 C 1949.29 546.23 1946.54 547.6 1943.72 546.6 C 1942.29 544.37 1942.22 541.99 1941 540.15 C 1939.73 540.48 1939.54 539.1 1938.39 538.94 C 1931.58 537.66 1927.13 534.03 1924.61 527.67 C 1921.7 520.33 1921.13 510.94 1909.92 509.2 C 1910.25 496.71 1906.36 485.14 1908.26 472.9 C 1896.91 472.75 1903.52 462.05 1898.44 458.05 C 1895.23 455.47 1897.41 450.85 1897.06 447.29 C 1900.03 445.42 1903.2 444.83 1904.29 442.32 C 1904.05 438.37 1900.06 438.09 1898 435.97 C 1898.01 435.46 1898 434.96 1897.97 434.47 Z" fill="#f9414433" stroke="#f94144" stroke-width="1.6"/>
<path d="M 1851.84 722.49 C 1856.67 722.93 1860.65 723.71 1865.45 719.4 C 1868.98 716.32 1874.57 714.87 1878.01 710.7 C 1876.53 705.5 1880.19 700.63 1879.23 695.61 C 1877.56 695.17 1876.33 693.22 1874 693.99 C 1872.31 694.73 1872.48 697 1870.57 697.85 C 1868.25 698.12 1867.77 695.66 1866.1 694.92 C 1867.3 692.9 1868.07 690.6 1870.31 689.25 C 1862.8 679.77 1854.14 676.76 1841.38 678.73 C 1837.06 679.46 1832.55 679 1828.24 679.23 C 1823.29 679.57 1818.34 680.32 1815.42 684.76 C 1813.02 683.95 1811.68 682.3 1809.06 681.99 C 1798.88 686.85 1797.26 695.12 1805.42 702.89 C 1808.21 705.48 1811.01 707.97 1811.99 712 C 1812.48 713.97 1814.33 715.79 1817.59 715.8 C 1821.06 715.79 1824.81 717.76 1826.55 720.38 C 1829.41 724.75 1834.55 725.29 1838.62 727.14 C 1843.41 729.28 1847.17 724.9 1851.1 722.61 Z" fill="#f3722c33" stroke="#f3722c" stroke-width="1.6"/>
<path d="M 2071.55 672.97 C 2060.4 679.25 2053.38 689.46 2045.34 698.62 C 2044.91 699.13 2044.48 699.44 2044.05 699.94 C 2042.89 698.89 2041.81 697.72 2040.75 696.48 C 2039.72 695.22 2039.01 693.76 2037.46 692.62 C 2030.4 693.62 2023.14 693.74 2016.03 691.78 C 2015.66 694.76 2018.49 695.07 2018.03 697.26 C 2017.49 698.37 2017.35 700.45 2014.71 700.93 C 2006.67 698.3 1997.41 698.78 1989.4 694.37 C 1986.69 692.96 1982.04 694.39 1978.36 694.5 C 1977.68 691.25 1979.72 689.11 1981.21 687.68 C 1984.73 683.97 1986.54 680.75 1987.19 676.8 C 1987.6 674.22 1988.8 672.27 1990.45 670.66 C 1992.34 668.92 1994.36 667.71 1996.52 666.52 C 2000.55 664.22 2006.04 663.06 2006.87 657.89 C 2018.06 654.88 2026.51 664.52 2037.29 661.33 C 2040.59 664.5 2041.98 669.11 2047.22 669.94 L 2049.87 668.67 C 2056.38 669.07 2062.5 667.7 2069.39 664.52 C 2069.75 667.69 2070.87 670.27 2072.69 672.26 Z" fill="#f8961e33" stroke="#f8961e" stroke-width="1.6"/>
<path d="M 1908.78 432.28 C 1905.44 431.39 1901.95 432.39 1898.56 434.17 C 1897.85 432.96 1897.43 431.57 1896.1 430.49 C 1894.09 431.24 1892.48 433.07 1889.23 432.38 C 1890.29 426.3 1887.78 419.94 1892.3 413.86 C 1897.58 406.77 1898.88 398.91 1897.66 390.43 C 1901.83 386.54 1905.48 382.47 1907.79 376.95 C 1910.75 369.93 1917.67 364.97 1923.02 359.56 C 1926.28 359.76 1929.02 359.08 1931.85 359.79 C 1930.91 365.06 1925.69 368.98 1926.75 374.2 C 1925.23 377.02 1920.52 375.87 1920.05 378.56 C 1920.93 382.5 1924.88 379.11 1925.88 381.85 L 1928.49 382.96 C 1934.16 388.93 1935.07 396.53 1932.42 403.84 C 1930.1 410.25 1928.09 416.84 1924.73 422.39 C 1918.07 424.18 1914.81 430.12 1908.78 432.28 Z" fill="#f9844a33" stroke="#f9844a" stroke-width="1.6"/>
<path d="M 1981.03 686.3 C 1980.11 684.94 1977.55 686.7 1977.07 684.34 C 1971.85 687.96 1965.5 690.53 1966.2 698.63 C 1960.94 698.49 1955.9 698.45 1953.51 702.88 C 1943.97 701.48 1943.27 693.88 1941.37 687.99 C 1939.1 685.88 1936.54 688.04 1934.78 686.41 C 1934.84 683.44 1937.49 681.77 1938.8 679.45 C 1932.72 678.25 1930.98 681.47 1930.73 695.25 C 1927.42 698.42 1923.37 701.71 1922.01 706.7 L 1921.35 708.6 C 1920.76 706.54 1917.08 706.55 1917.44 703.77 C 1918.43 701.26 1920.99 699.5 1921.66 697.1 C 1920.17 692.4 1914.21 690.99 1913.78 685.66 C 1919.08 682.92 1922.65 677.47 1929.8 676.85 C 1928.63 672.23 1935.18 670.15 1933.17 664.87 L 1978.29 663.51 C 1980.75 660.66 1984.57 658.86 1988.18 657.07 C 1991.41 658.65 1990.72 661.64 1990.88 664.41 C 1991.06 666.39 1987.98 667.97 1990.05 669.98 C 1988.8 672.27 1987.6 674.22 1987.19 676.8 C 1986.54 680.75 1984.73 683.97 1981.94 686.94 Z" fill="#f9c74f33" stroke="#f9c74f" stroke-width="1.6"/>
<path d="M 1950.02 435.99 C 1951.8 442.17 1945.6 442.46 1941.87 445.15 C 1940.13 442.62 1939.1 441.47 1936.69 441.04 C 1932.02 440.26 1927.38 439.23 1922.71 438.61 C 1923.38 432.93 1929.21 430.18 1928.23 426.35 C 1932.08 422.76 1937.73 424.08 1940.02 419.35 C 1938.69 417.61 1935.92 419.68 1935.42 417.91 C 1936.56 412.92 1938.43 408.61 1940.09 404.2 C 1942.07 398.89 1950.02 401.13 1951.37 396.14 C 1957.6 394.56 1964.47 398.51 1968.16 391.67 C 1974.32 394.06 1972.62 400.94 1976.87 404.48 C 1977.69 405.24 1977.64 408.22 1976.78 409.23 C 1972.38 414.22 1972.7 420.05 1972.72 424.71 C 1965.37 429.98 1958.57 434.05 1950.02 435.99 Z" fill="#90be6d33" stroke="#90be6d" stroke-width="1.6"/>
<path d="M 2045.34 698.62 C 2053.38 689.46 2060.4 679.25 2071.55 672.97 C 2074.49 674.23 2076.98 675.63 2080.1 676.47 L 2079.94 685.39 C 2081.47 687.92 2082.05 690.87 2084.42 693.77 C 2086.09 694.32 2088.62 693.65 2091.56 693.86 C 2092.51 699.27 2097.07 703.2 2099.49 708.77 C 2096.08 711.35 2097.47 715.76 2094.36 719.52 C 2087.92 720.6 2082.17 719.39 2076.58 714.21 C 2071.83 709.9 2065.38 706.33 2058.44 706.05 C 2052.17 705.86 2047.78 703.46 2044.04 699.96 C 2044.48 699.44 2044.91 699.13 2045.34 698.62 Z" fill="#43aa8b33" stroke="#43aa8b" stroke-width="1.6"/>
<path d="M 1722.41 597.45 C 1726.17 598.33 1730.58 598.89 1734.79 598.66 L 1737.39 599.77 C 1741.3 598.96 1744.09 601.35 1747.22 602.65 C 1750.66 604.03 1752.99 603.07 1754.52 599.95 C 1761.65 600.92 1763.81 603.53 1762.95 610.29 C 1757.17 610.56 1751.6 610.44 1746.17 614.26 C 1742.66 616.65 1737.08 617.21 1732.82 614.67 C 1727.06 619.3 1722.52 620.03 1709.09 618.75 C 1704.88 613.73 1705.51 607.87 1705.82 602.01 C 1710.43 597.22 1715.5 595.78 1722.41 597.45 Z" fill="#ff000022" stroke="#ff1f1f" stroke-width="1.6"/>
<path d="M 1900.17 601.1 C 1906.99 595.94 1914.96 596.99 1922.63 596.65 C 1926.84 596.53 1931.05 596.4 1935.04 596.28 C 1935.64 592.2 1932.42 590.12 1932.16 587.16 C 1930.92 585.81 1928.69 587.26 1928.18 586.48 C 1922.34 578.24 1910.67 578 1903.44 570.99 C 1900.75 574.64 1896.41 576.45 1892.58 578.94 C 1885.24 583.72 1883.94 592.08 1890.36 597.04 C 1893.06 599.03 1895.86 601.03 1899.42 601.81 Z" fill="#57759033" stroke="#577590" stroke-width="1.6"/>
<path d="M 1969.73 328.24 C 1967.05 331.09 1964.17 333.46 1959.76 332.9 C 1956.72 332.59 1953.63 334.86 1953.39 336.75 C 1952.67 341.92 1948.13 343.05 1944.71 346.03 C 1943.42 353.49 1945.29 360.57 1948.42 367.6 C 1952.33 366.3 1956.02 365.49 1959.91 365.67 C 1964.53 365.83 1965.95 362.62 1967.28 359.31 C 1969.7 353.29 1968.78 346.09 1975.38 341.44 C 1976.12 340.92 1976.18 337.75 1974.42 336.02 C 1972.46 334.1 1970.08 332.09 1970.45 328.81 Z" fill="#277da133" stroke="#277da1" stroke-width="1.6"/>
<path d="M 1887.28 511.46 C 1884.97 511.63 1885.76 508.34 1883.34 508.51 C 1877.54 515.62 1878.87 529.05 1886.3 531 C 1885.79 535.67 1886.02 540.52 1891.33 543.33 C 1894.2 541.66 1897.77 541.75 1900.86 539.58 C 1903.56 541.18 1903.69 545.43 1908.1 545.79 C 1911.71 544 1914.18 540.76 1916.87 537.51 C 1913.06 533.36 1906.64 533.46 1904.1 528.88 C 1900.73 528.98 1898 535.11 1895.48 529.14 C 1895.87 524.67 1900.24 521.37 1899.91 516.33 C 1897.96 513.52 1894.86 511.04 1891.86 508.26 C 1890.06 508.81 1889.3 510.51 1887.91 511.54 Z" fill="#ff006e33" stroke="#ff006e" stroke-width="1.6"/>
<path d="M 1771.09 602.22 C 1781.12 605.09 1791.53 604.87 1801.93 605.35 L 1804.58 603.98 C 1812.65 605.13 1820.93 600.82 1830.45 603 C 1818.66 609.9 1805.86 609 1795.88 614.55 C 1788.71 609.91 1781.09 613.01 1773.95 612.24 C 1771.48 609.74 1768.69 606.95 1771.09 602.22 Z" fill="#8338ec33" stroke="#8338ec" stroke-width="1.6"/>
<path d="M 1923.71 711.5 C 1927.81 706.03 1933.63 709.22 1938.49 708.08 L 1939.9 705.47 C 1941.88 700.55 1945.38 704.61 1947.91 704.33 C 1949.91 704.17 1951.54 707.29 1950.02 709.82 C 1947.28 710.29 1944.94 711.75 1942.62 711.92 C 1939.67 718.45 1938.92 719.16 1933.76 719.91 C 1932.95 718.06 1936.45 716.37 1934.49 714.34 C 1931.13 714.25 1930.22 718.14 1927.27 718.43 C 1924.88 716.62 1924.51 714.15 1923.71 711.5 Z" fill="#ff000022" stroke="#ff1f1f" stroke-width="1.6"/>
<path d="M 1797.38 624.7 C 1797.83 617.16 1797.02 621.05 1798.7 615.25 C 1798.7 615.25 1802.28 614.95 1803.01 615.22 C 1806.12 617.6 1803.65 620.55 1802.76 623.55 C 1804.13 629.05 1808.24 634.18 1805.92 640.59 C 1804.11 641.53 1802.33 641.58 1800.55 640.75 C 1799.55 638 1801.09 634.29 1800.93 631.33 C 1800.96 629.84 1797.38 624.7 1797.38 624.7 Z" fill="#ff000022" stroke="#ff1f1f" stroke-width="1.6"/>
<path d="M 1876.67 517.03 C 1872.98 517.64 1871.65 521.84 1867.95 522.64 C 1866.24 518.34 1870.32 513.66 1866.29 509.72 C 1869.28 507.35 1872.75 506.95 1875.74 504.58 C 1876.5 508.92 1878.43 512.62 1876.67 517.03 Z" fill="#ff000022" stroke="#ff1f1f" stroke-width="1.6"/>
<path d="M 1955.9 710.13 C 1954.71 706.21 1956.73 704.66 1959.59 703.68 C 1964.94 703.92 1970.34 701.97 1974.36 706.11 C 1968.38 711.34 1961.8 709.16 1955.9 710.13 Z" fill="#ff000022" stroke="#ff1f1f" stroke-width="1.6"/>
<path d="M 1876.86 535.84 C 1874.53 536.51 1874.04 534.94 1873 534.28 C 1870.88 535.13 1869.62 535.17 1867.95 534.13 C 1870.41 531.98 1867.43 528.21 1871.15 525.72 C 1872.02 529.95 1877.25 531.38 1876.86 535.84 Z" fill="#ff000022" stroke="#ff1f1f" stroke-width="1.6"/>
<path d="M 1889.13 443.97 C 1888.91 444.77 1886.59 445.23 1886.45 446.92 C 1884.76 447.52 1883.37 446.82 1882.17 445.46 C 1885.03 444.09 1882.58 440.3 1885.65 438.72 C 1888.69 439.13 1889.19 440.89 1889.13 443.97 Z" fill="#ff000022" stroke="#ff1f1f" stroke-width="1.6"/>
<path d="M 1890.66 469.77 C 1888.8 468.14 1891.59 464.99 1888.67 463.59 C 1885.63 463.19 1885.69 465.86 1884.4 467.18 C 1885.3 469.63 1886.32 471.38 1888.41 472.41 C 1889.67 472.08 1890.42 471.56 1890.55 470.37 Z" fill="#ff000022" stroke="#ff1f1f" stroke-width="1.6"/>
<path d="M 1886.15 448.12 C 1887.14 448.54 1888.12 448.91 1889.03 449.42 C 1889.19 452.09 1888.52 454.38 1885.66 455.86 C 1884.96 453.7 1884.37 451.64 1885.77 449.51 L 1886.15 448.12 Z" fill="#ff000022" stroke="#ff1f1f" stroke-width="1.6"/>
<text x="1927.63" y="473.21" font-size="5" font-family="Arial" font-weight="700" text-anchor="middle" dominant-baseline="middle" fill="#fff" stroke="#fff" stroke-width="0.55" paint-order="stroke">E03/F00</text>
<text x="1927.63" y="473.21" font-size="5" font-family="Arial" font-weight="700" text-anchor="middle" dominant-baseline="middle" fill="#111">E03/F00</text>
<text x="1840.36" y="700.89" font-size="5" font-family="Arial" font-weight="700" text-anchor="middle" dominant-baseline="middle" fill="#fff" stroke="#fff" stroke-width="0.55" paint-order="stroke">E08/F01</text>
<text x="1840.36" y="700.89" font-size="5" font-family="Arial" font-weight="700" text-anchor="middle" dominant-baseline="middle" fill="#111">E08/F01</text>
<text x="2022.42" y="679.34" font-size="5" font-family="Arial" font-weight="700" text-anchor="middle" dominant-baseline="middle" fill="#fff" stroke="#fff" stroke-width="0.55" paint-order="stroke">E07/F02</text>
<text x="2022.42" y="679.34" font-size="5" font-family="Arial" font-weight="700" text-anchor="middle" dominant-baseline="middle" fill="#111">E07/F02</text>
<text x="1913" y="401.19" font-size="5" font-family="Arial" font-weight="700" text-anchor="middle" dominant-baseline="middle" fill="#fff" stroke="#fff" stroke-width="0.55" paint-order="stroke">E10/F03</text>
<text x="1913" y="401.19" font-size="5" font-family="Arial" font-weight="700" text-anchor="middle" dominant-baseline="middle" fill="#111">E10/F03</text>
<text x="1954.35" y="680.1" font-size="5" font-family="Arial" font-weight="700" text-anchor="middle" dominant-baseline="middle" fill="#fff" stroke="#fff" stroke-width="0.55" paint-order="stroke">E09/F04</text>
<text x="1954.35" y="680.1" font-size="5" font-family="Arial" font-weight="700" text-anchor="middle" dominant-baseline="middle" fill="#111">E09/F04</text>
<text x="1952.37" y="418.33" font-size="5" font-family="Arial" font-weight="700" text-anchor="middle" dominant-baseline="middle" fill="#fff" stroke="#fff" stroke-width="0.55" paint-order="stroke">E02/F05</text>
<text x="1952.37" y="418.33" font-size="5" font-family="Arial" font-weight="700" text-anchor="middle" dominant-baseline="middle" fill="#111">E02/F05</text>
<text x="2073.57" y="697.96" font-size="5" font-family="Arial" font-weight="700" text-anchor="middle" dominant-baseline="middle" fill="#fff" stroke="#fff" stroke-width="0.55" paint-order="stroke">E11/F06</text>
<text x="2073.57" y="697.96" font-size="5" font-family="Arial" font-weight="700" text-anchor="middle" dominant-baseline="middle" fill="#111">E11/F06</text>
<text x="1729.99" y="607.8" font-size="5" font-family="Arial" font-weight="700" text-anchor="middle" dominant-baseline="middle" fill="#fff" stroke="#fff" stroke-width="0.55" paint-order="stroke">Z01/F07</text>
<text x="1729.99" y="607.8" font-size="5" font-family="Arial" font-weight="700" text-anchor="middle" dominant-baseline="middle" fill="#111">Z01/F07</text>
<text x="1907.96" y="587.91" font-size="5" font-family="Arial" font-weight="700" text-anchor="middle" dominant-baseline="middle" fill="#fff" stroke="#fff" stroke-width="0.55" paint-order="stroke">E05/F08</text>
<text x="1907.96" y="587.91" font-size="5" font-family="Arial" font-weight="700" text-anchor="middle" dominant-baseline="middle" fill="#111">E05/F08</text>
<text x="1959.15" y="348.87" font-size="5" font-family="Arial" font-weight="700" text-anchor="middle" dominant-baseline="middle" fill="#fff" stroke="#fff" stroke-width="0.55" paint-order="stroke">E01/F09</text>
<text x="1959.15" y="348.87" font-size="5" font-family="Arial" font-weight="700" text-anchor="middle" dominant-baseline="middle" fill="#111">E01/F09</text>
<text x="1894.67" y="528.04" font-size="5" font-family="Arial" font-weight="700" text-anchor="middle" dominant-baseline="middle" fill="#fff" stroke="#fff" stroke-width="0.55" paint-order="stroke">E04/F10</text>
<text x="1894.67" y="528.04" font-size="5" font-family="Arial" font-weight="700" text-anchor="middle" dominant-baseline="middle" fill="#111">E04/F10</text>
<text x="1795.58" y="607.63" font-size="5" font-family="Arial" font-weight="700" text-anchor="middle" dominant-baseline="middle" fill="#fff" stroke="#fff" stroke-width="0.55" paint-order="stroke">E06/F11</text>
<text x="1795.58" y="607.63" font-size="5" font-family="Arial" font-weight="700" text-anchor="middle" dominant-baseline="middle" fill="#111">E06/F11</text>
<text x="1937.02" y="711.18" font-size="5" font-family="Arial" font-weight="700" text-anchor="middle" dominant-baseline="middle" fill="#fff" stroke="#fff" stroke-width="0.55" paint-order="stroke">Z02/F12</text>
<text x="1937.02" y="711.18" font-size="5" font-family="Arial" font-weight="700" text-anchor="middle" dominant-baseline="middle" fill="#111">Z02/F12</text>
<text x="1802.01" y="628.01" font-size="5" font-family="Arial" font-weight="700" text-anchor="middle" dominant-baseline="middle" fill="#fff" stroke="#fff" stroke-width="0.55" paint-order="stroke">Z03/F13</text>
<text x="1802.01" y="628.01" font-size="5" font-family="Arial" font-weight="700" text-anchor="middle" dominant-baseline="middle" fill="#111">Z03/F13</text>
<text x="1872.02" y="513.47" font-size="5" font-family="Arial" font-weight="700" text-anchor="middle" dominant-baseline="middle" fill="#fff" stroke="#fff" stroke-width="0.55" paint-order="stroke">Z04/F14</text>
<text x="1872.02" y="513.47" font-size="5" font-family="Arial" font-weight="700" text-anchor="middle" dominant-baseline="middle" fill="#111">Z04/F14</text>
<text x="1964.12" y="706.67" font-size="5" font-family="Arial" font-weight="700" text-anchor="middle" dominant-baseline="middle" fill="#fff" stroke="#fff" stroke-width="0.55" paint-order="stroke">Z05/F15</text>
<text x="1964.12" y="706.67" font-size="5" font-family="Arial" font-weight="700" text-anchor="middle" dominant-baseline="middle" fill="#111">Z05/F15</text>
<text x="1872.18" y="531.78" font-size="5" font-family="Arial" font-weight="700" text-anchor="middle" dominant-baseline="middle" fill="#fff" stroke="#fff" stroke-width="0.55" paint-order="stroke">Z06/F16</text>
<text x="1872.18" y="531.78" font-size="5" font-family="Arial" font-weight="700" text-anchor="middle" dominant-baseline="middle" fill="#111">Z06/F16</text>
<text x="1885.97" y="443.21" font-size="5" font-family="Arial" font-weight="700" text-anchor="middle" dominant-baseline="middle" fill="#fff" stroke="#fff" stroke-width="0.55" paint-order="stroke">Z07/F17</text>
<text x="1885.97" y="443.21" font-size="5" font-family="Arial" font-weight="700" text-anchor="middle" dominant-baseline="middle" fill="#111">Z07/F17</text>
<text x="1887.79" y="467.87" font-size="5" font-family="Arial" font-weight="700" text-anchor="middle" dominant-baseline="middle" fill="#fff" stroke="#fff" stroke-width="0.55" paint-order="stroke">Z08/F18</text>
<text x="1887.79" y="467.87" font-size="5" font-family="Arial" font-weight="700" text-anchor="middle" dominant-baseline="middle" fill="#111">Z08/F18</text>
<text x="1886.88" y="451.8" font-size="5" font-family="Arial" font-weight="700" text-anchor="middle" dominant-baseline="middle" fill="#fff" stroke="#fff" stroke-width="0.55" paint-order="stroke">Z09/F19</text>
<text x="1886.88" y="451.8" font-size="5" font-family="Arial" font-weight="700" text-anchor="middle" dominant-baseline="middle" fill="#111">Z09/F19</text>
</svg>