<?xml version="1.0" encoding="UTF-8"?>
<svg id="b" data-name="Layer 2" xmlns="http://www.w3.org/2000/svg" viewBox="0 0 832.24 551.63">
  <defs>
    <style>
      .d {
        fill: #23344f;
      }

      .e {
        fill: #baa8ca;
      }

      .f {
        fill: none;
        stroke: #8a7f9b;
        stroke-miterlimit: 10;
        stroke-width: 12px;
      }
    </style>
  </defs>
  <g id="c" data-name="Layer 1">
    <g>
      <g>
        <rect class="e" width="832.24" height="551.63" rx="67.48" ry="67.48"/>
        <line class="f" x1="832.24" y1="429.97" y2="429.97"/>
      </g>
      <g>
        <path class="d" d="M284.67,151.34c-3.45-4.49-9.28-3.85-14.6-3.87-51.98-.94-109.97-1.29-162.69.36-18.54,2.12-6.46,9.88-2.64,19.65,1.52,14.41-.3,39.56.41,54.27-.03,6.64,24.29,3.11,29.52,3.72,36.85.55,73.13.58,109.92.41,47.05.21,32.94,5.51,35.68-43.8,1-9.27-2.08-16.26,6.3-22.59,1.81-2.68.26-6.07-1.89-8.13Z"/>
        <path class="d" d="M105.95,111.65c-1.03,34.25,1.25,27.57,36.21,27.5,47.53-.1,88.6.88,134.83.72,9.55-.03,2.64-22.49,3.81-30.68-.46-6.68,7.47-8.64,9.72-14.03,2.65-6.17.09-14.91-7.26-15.66-50.42-1.6-105.66-.04-158.35-1.4-8.66,1.76-20.12-2.21-27.53,2.94-8.06,17.19,9.82,16.29,8.56,30.63Z"/>
        <path class="d" d="M285.37,244.07c3.96-6.05,1.22-10.69-5.81-10.22-58.13.37-116.06-1.18-174.11-.14-4.31.15-9.55,2.39-7.55,7.7,1.68,3.7,6.5,6.43,6.6,10.72.05,8.58.02,19.13-.21,26.84-.08,4.64-.26,11.61,6.68,11.15,40.28.13,87.52.78,126.34.59,49.16-1.26,41.4,11.62,42.69-35.17-.19-4.32,2.06-8.61,5.37-11.46Z"/>
        <path class="d" d="M280.63,298.9c-53.79.02-119.38-.79-176.76-.02-9.92.06-13.03,13.09-6.62,19.22,12,6.63,38.88,1.53,56.63,2.97,43.33-.67,87.29,2.48,130.46-.93,10.3-3.43,6.99-21.48-3.71-21.24Z"/>
      </g>
    </g>
  </g>
</svg>