<?xml version="1.0" encoding="UTF-8"?>
<svg id="b" data-name="Layer 2" xmlns="http://www.w3.org/2000/svg" viewBox="0 0 233.13 281.23">
  <defs>
    <style>
      .d {
        fill: #ccb890;
      }

      .e {
        fill: #675130;
      }
    </style>
  </defs>
  <g id="c" data-name="Layer 1">
    <g>
      <path class="d" d="M222.82,222.04c-.68-.85-1.59-1.99-2.21-2.86,14.71-54.43,13.69-109.18-.97-159.5,14.47-15.92,20.25-35.01-.69-53.42-22.66-16.35-73.58,6.5-101.88,1.63-26.91.79-53.72-4.64-81.12-7.61C6.5-3.5-14.51,32.1,12.43,60.18c-14.33,50.3-15.55,109.17.66,159.32-21.75,22.45-14.89,59.26,19.46,61.72,27.3-2.21,51.65-9.33,79.43-9.17,32.75-3.34,60.79,8.82,93.17,7.56,29.16-4.15,36.35-39.5,17.67-57.58Z"/>
      <path class="e" d="M83.43,253.83c-13.01,1.94-26.68,3.95-39.76,5.9-5.24.51-11.59,2.51-15.27.72-5.84-2.37-9.99-9.39-7.99-15.48,3.41-9.68,15.24-17.03,12.42-28.74-17.4-49.54-13.37-106.4-.63-156.13,1.04-9.68-8.78-14.48-11.33-22.77-3.6-10.94,3.04-18.48,13.82-17.14,48.41,7.31,96.43,12.06,145.02,1.63,9.04-.46,18.86-4.27,27.14.46,6.58,5.54,7.23,13.84,1.07,19.4-10.08,12.23-9.9,15.51-6.68,28.06,13.38,46.12,12.38,95.82.34,142.11-6.85,15.71,10.25,22.52,11.64,35.19-.18,12.56-13.89,14.64-23.95,12.06-12.95-2.04-27.8-3.28-40.59-5.98-21.34-2.82-43.34-1.5-65.25.71ZM126.63,99.94c-7.65-42.03-32.85-1.31-14,20.26,9.8,5.96,14.73-13.12,14-20.26ZM150.55,123.09c-6.71-10.09-35.83,12.42-27.55,26.19,12.76,10.31,34.52-16.8,27.55-26.19ZM100.59,150.94c21.5,8.53,7.2-29.1-13.53-29.86-9.03.16-6.7,9.37-3.87,14.92,3.21,7.77,9.1,12.82,17.4,14.94ZM123.4,187.35c12.51,7.52,34.97-17.08,27.08-28.52-12.26-5.75-35.3,15.62-27.08,28.52ZM110.8,184.74c2.07-11.52-9.83-22.09-19.63-25.87-29.98-7.77,10.35,46.95,19.63,25.87Z"/>
    </g>
  </g>
</svg>