<?xml version="1.0" encoding="UTF-8"?>
<svg id="b" data-name="Layer 2" xmlns="http://www.w3.org/2000/svg" viewBox="0 0 525.13 501.53">
  <defs>
    <style>
      .d {
        fill: none;
        stroke: #2e7d32;
        stroke-width: 1.1px;
      }
    </style>
  </defs>
  <g id="c" data-name="Layer 1">
    <path class="d" d="M11.44,125.59c-.22-1.95,1.27-6.3-.4-9-1.87-3.03-4.79-12.62-10.27-16.68l.92-1.23C26.09,68.2,61.12,31.16,85.82.78c6.74,5.54,14.1,11.04,21.55,15.16,52.41,28.98,98.79,64.17,141.53,93.26,42.51,30.57,83.07,56.29,121.85,86.96-32.61,38.58-71.5,75.63-105.63,113.74h0c-.88-4.72-2.33-7.76-2.33-7.76-.14-.61-.68-1.03-1.31-1.03l-3.64.04c-.33-.03-.65-.12-.97-.26l-6.12-2.78c-.39-.18-.82-.27-1.24-.27h-13.21c-.71.05-.23,1.75.14,2.35h0s2.22,3.59,2.22,3.59c.67,1.08,1.59,1.98,2.68,2.62l2.77,1.63c.29.17.62.26.95.26h6.07c.45,0,.88.16,1.22.44l7.96,7.97c.19.15.43.36.68.52l-.31.21c-1.61-.81-4.5-.48-5.39-1.18-2.66-2.1-1.84-3.92-3.94-4.62-1.28-.42-3.59-.05-5.44,0h-.01c-.42.02-.69.47-.5.85.6,1.24.65,6.85.98,7.85l-.39-.28c-1.82-1.09-2.84-2.91-4.14-4.54-1.85-2.29-4.28-3.72-7.32-3.04h-.48c-5.44-7.34-8.08-9.85-11.29-11.28-2.14-1.42-4.63-2.17-7.39-2.3-5.65-.26-10.37-2.12-15.64-6.15-2.05-2.98-.74-7.12.39-11.69-2.91-2.91-5.76-6.14-8.99-8.86-3.6-3.1-5.52-6.45-3.4-11.27-9.13-1.93-16.59-.4-21.39,8.13,1.74,4.39,4.83,8.29,6.07,13.3-9.01-2.3-13.21-11.65-21.54-14.14-2.96-10.27-11.02-18.08-9.94-28.65-3.54-.75-5.41.73-8.95,1.28-10.32-.7-12.93.1-14.63-2.97,3.02-2.43,7.06-2.92,9.42-5.7-2.22-5.57-5.82-8.79-11.04-9.29-2.53-8.23-5.25-15.29-15.19-16.11-2.24-.19-4.78-2.42-4.9-5.39-1.27-.69-1.16-3.99-2.18-4.75-1.27-.93-3.61.68-4.6-.3-3.94-3.93-6.09-8.09-9.59-10.82-9.93-6.76-28.34-9.41-30.46-22.66-6.49.79-6.77-3.63-11.56-4.13-5.71-.57-10.12-3.24-13.65-7.51-.24-6.91,1.31-12.35,4.38-17.68-3.97-1.56-7.32-3.54-8.99-7.07-.26-.39-.52-.77-.77-1.16l-6.77.29Z"/>
    <path class="d" d="M282.07,386.58l.19-.36c5.23-4.51,13.06-6.04,15.81-13.58-2.29-6.12-8-9.29-10.73-13.56-3-1.73-5.89-2.65-8.75-3.07l.25-1.58,11.53.27c.58.02,1.15.19,1.65.49l4.65,2.85c.89.55,2.03.89,2.03-.16v-3.82c0-.8-.17-1.73-.86-2.14-3.61-2.09-10.53-10.91-10.53-10.91-.65-.68-1.53-1.1-2.46-1.18l-9.68-.88c-.66-.06-1.27-.36-1.73-.83l-2.3-2.4c-.37-.38-.66-.82-.86-1.3l-1.14-2.71c-.24-.55-.73-.94-1.31-1.05l-.57-.1c-.71-.13-1.4.27-1.66.95l-.44,1.23c-.19.54-.19,1.14.02,1.68l1.45,3.71c.28.72-.01,1.53-.67,1.91l-12.75,7.33h.01s-1.45-2.4-1.45-2.4c.06-1.98,1.87-2.96,1.37-4.7-2.11-1.24-4.59-1.74-6.2-3.66l1.05-2.42c.38.6,5.66,2.63,7.69,3.86.46.28.39,1.51.25,2.48-.08.52.46.91.92.66l5.08-2.75c.88-.47,1.18-1.59.65-2.44l-.99-1.58c-.28-.46-.41-.98-.38-1.5.14-2.16.38-9.99.11-13.91-.05-.78-.49-1.26-1.11-1.58l.31-.21c.26.17.54.31.79.31l2.73-1.11c.8,0,1.26-.74,1.21-1.54-.1-1.76-.32-3.4-.6-4.89l.48-.09c34.13-38.11,72.03-76.16,105.63-113.74,85.84,59.08,110.45,86.53,139.78,175.31,5.79,34.93,8.72,19.07,14.01,64.72-45.19,21.49-97.01,45.23-142.15,64.64-3.16-6.17-3.16-13.17-3.03-20.56-4.33-6.06-6.74-12.12-12.14-15.66-2.49.99-3.67,4.26-7.53,3.7-2.47-3.41-7.13-3.29-11.05-4.97-2.79-1.18-5.09,1.47-7.51.11-4.99-2.89-10.08-2.99-15.48-2.24-.72-9.23-5.99-13.26-12.51-16,1.69-5.37.94-7.23-.11-9.52,6.47-2.52,11.14-8.08,17.67-10.48,4.48-1.66,4.67-4.44,4.05-8.22-5.46-2.73-11.43.35-16.71-2.5,2.62-3.28,4.49-7.11,8.29-9.14,3.91-1.6,9.19.7,11.68-3.81-1.66-8.11-1.83-16.52-11.02-19.81-5.14-11.73-12.74-13.52-22.18-9.06-.65.31-1.25.73-1.78,1.22l-3.52,4.19c-.83.99-1.82,1.83-2.93,2.49-1.22.72-2.64,1.5-3.12,1.77l-10.34,5.79c-.31.18-.71.09-.93-.19h0c-.3-.39-.35-.92-.12-1.36Z"/>
  </g>
</svg>