<?xml version="1.0" encoding="UTF-8"?>
<svg id="b" data-name="Layer 2" xmlns="http://www.w3.org/2000/svg" viewBox="0 0 386.08 297.68">
  <defs>
    <style>
      .d {
        fill: #7ea6ad;
      }
    </style>
  </defs>
  <g id="c" data-name="Layer 1">
    <path class="d" d="M155.65,93.37c.63,22.94.93,47.67-5.82,58.71-2.08,3.4-7.27,2.1-7.43-1.88-1.77-43.43-5.57-80.65-11.21-119.79-.76-5.28-7.67-6.78-10.52-2.28-14.31,22.56-31.35,52.56-52.01,61.1-.78-.18-7.22.23-12.72.6-4.3.29-7.51,4.05-7.14,8.34h0s.84,9.61.84,9.61c5.99,46.11-16.77,81.98-47.25,111.25-4.59,4.4-2.2,12.14,4.08,13.12l13.31,2.09,18.87,58.46c.91,2.82,3.52,4.75,6.49,4.77,61.81.49,165.66-1.44,224.58.16,8.01.22,16.01-.8,23.65-3.21,46.63-14.68,68.1-57.99,91.62-92.5,3.18-4.67-1.01-10.82-6.52-9.59l-8.24,1.83-113.35-88.76c-1.31-38.21-5.21-64.45-10.34-101.11-.62-4.4-6.25-5.86-8.92-2.31-17.24,22.9-35.29,53.04-58.11,66.67-2.66,1.59-5.61,2.64-8.67,3.14l-9.52,1.56c-3.82.63-6.56,4.03-6.34,7.9l.68,12.11Z"/>
  </g>
</svg>