<?xml version="1.0" encoding="UTF-8"?>
<svg id="b" data-name="Layer 2" xmlns="http://www.w3.org/2000/svg" viewBox="0 0 832.24 551.63">
  <defs>
    <style>
      .d {
        fill: #9fc4c5;
      }

      .e {
        fill: none;
        stroke: #7ea6ad;
        stroke-miterlimit: 10;
        stroke-width: 12px;
      }

      .f {
        fill: #396c78;
      }
    </style>
  </defs>
  <g id="c" data-name="Layer 1">
    <g>
      <g>
        <rect class="d" width="832.24" height="551.63" rx="67.48" ry="67.48"/>
        <line class="e" x1="832.24" y1="429.97" y2="429.97"/>
      </g>
      <g>
        <path class="f" d="M305.95,253.85l69.91-10.47c-22.01,27.99-56.54,67.62-93.75,57.97-44.66-3.98-165.86-11.1-212.32-14.63l-11.45-46.31c27.82,5.44,53.39,9.54,80.58,12.41,1.79-1.63,2.73-8.71.57-9.48-9.83-3.5-19.82-4.24-30.08-6.59l-60.46-13.86c32.12-27.5,47.81-65.45,47.07-108.08,1.59.01,46.21,41.16,47.37,36.65,2.29-4.06-21.15-19.94-25.79-23.74l-14-13.33c19.97-7.35,32.5-20.25,46.24-38.36,3.36,48.83-1.01,128.29-2.12,177.74,36.29,3.33,72.04,3.32,107.75,2.7.59-3.47,1.15-5.89.08-8.83l-97.72-13.98c4.53-10.97,10.68-18.65,16.36-28.02,16.04-31.71,23.33-66.63,22.83-103.79l61.96,40.13c1.9-.46,1.12-4.92-1.42-5.39l-47.81-32.44c25.36-9.04,39.42-26.84,56.86-46.95,4,61.42-1.94,137.76-2.75,199.06"/>
        <path class="f" d="M355.06,235.59l-81.76,13.35c-2.54-2.11-1.01-6.58.3-9.37,3.46-25.89,3.44-51.68-.57-77.59-.54-3.49-3.49-6.75.8-10.06,16.06,18.22,64.27,65.12,81.23,83.68Z"/>
        <path class="f" d="M364.17,223.5c-3.66,2.3-7.03,2.92-11.44,3.76l-31.12-31.43c-4.84-7.35-22.98-16.66-17.81-26.18,8.68,8.51,53.94,44.84,60.37,53.85Z"/>
      </g>
    </g>
  </g>
</svg>