<?xml version="1.0" encoding="UTF-8"?>
<svg id="b" data-name="Layer 2" xmlns="http://www.w3.org/2000/svg" viewBox="0 0 386.08 297.68">
  <defs>
    <style>
      .d {
        fill: #7ea6ad;
      }

      .e {
        fill: #fdfaf8;
      }
    </style>
  </defs>
  <g id="c" data-name="Layer 1">
    <g>
      <path class="d" d="M155.65,93.37c.63,22.94.93,47.67-5.82,58.71-2.08,3.4-7.27,2.1-7.43-1.88-1.77-43.43-5.57-80.65-11.21-119.79-.76-5.28-7.67-6.78-10.52-2.28-14.31,22.56-31.35,52.56-52.01,61.1-.78-.18-7.22.23-12.72.6-4.3.29-7.51,4.05-7.14,8.34h0s.84,9.61.84,9.61c5.99,46.11-16.77,81.98-47.25,111.25-4.59,4.4-2.2,12.14,4.08,13.12l13.31,2.09,18.87,58.46c.91,2.82,3.52,4.75,6.49,4.77,61.81.49,165.66-1.44,224.58.16,8.01.22,16.01-.8,23.65-3.21,46.63-14.68,68.1-57.99,91.62-92.5,3.18-4.67-1.01-10.82-6.52-9.59l-8.24,1.83-113.35-88.76c-1.31-38.21-5.21-64.45-10.34-101.11-.62-4.4-6.25-5.86-8.92-2.31-17.24,22.9-35.29,53.04-58.11,66.67-2.66,1.59-5.61,2.64-8.67,3.14l-9.52,1.56c-3.82.63-6.56,4.03-6.34,7.9l.68,12.11Z"/>
      <g>
        <path class="e" d="M287.67,228.19l69.01-15.32c-20,29.45-51.68,71.4-89.48,64.37-44.83-.86-166.23.5-212.83.22l-14.66-45.39c28.13,3.48,53.92,5.79,81.25,6.76,1.67-1.75,2.11-8.88-.1-9.5-10.05-2.8-20.07-2.85-30.47-4.48l-61.28-9.61c30.12-29.67,43.13-68.62,39.42-111.1,1.58-.1,48.97,37.83,49.81,33.26,2-4.21-22.49-18.41-27.39-21.88l-14.9-12.32c19.41-8.73,31.01-22.47,43.46-41.49,6.76,48.48,7.94,128.05,10.29,177.46,36.43.79,72.1-1.72,107.68-4.82.35-3.51.73-5.96-.53-8.82l-98.46-7.13c3.76-11.26,9.36-19.35,14.37-29.1,13.79-32.75,18.63-68.09,15.53-105.13l64.61,35.71c1.87-.59.78-4.99-1.79-5.27l-49.96-29.02c24.66-10.79,37.45-29.53,53.45-50.8,8.27,61,7.68,137.56,11.14,198.77"/>
        <path class="e" d="M335.39,206.54l-80.63,19.02c-2.68-1.93-1.47-6.49-.35-9.37,1.65-26.07-.18-51.79-5.98-77.36-.78-3.45-3.95-6.49.1-10.09,17.29,17.05,68.65,60.47,86.87,77.81Z"/>
        <path class="e" d="M343.64,193.85c-3.49,2.55-6.81,3.4-11.15,4.55l-33.23-29.18c-5.34-7-24.08-15.02-19.59-24.87,9.25,7.89,56.94,40.97,63.98,49.5Z"/>
      </g>
    </g>
  </g>
</svg>