<?xml version="1.0" encoding="UTF-8"?>
<svg id="b" data-name="Layer 2" xmlns="http://www.w3.org/2000/svg" viewBox="0 0 316.96 226.87">
  <defs>
    <style>
      .d {
        fill: #73a7ae;
      }
    </style>
  </defs>
  <g id="c" data-name="Layer 1">
    <path class="d" d="M313.56,131.5c-6.03-6.62-14.06-3.9-17.92-2.6-1.43.48-3.38,1.15-4.48,1.27-12.13,1.36-15.75,11.89-17.3,16.39-.22.65-.52,1.52-.7,1.91l-.34.51-.59,1.23c-2.39.67-6.02,1.34-9.45,1.9l-.2-2.6c-.17-4.72-.29-9.77-.41-14.66-.07-2.7-.13-5.38-.2-8.01-.21-28.34-3.19-88.97-3.32-91.54l-1.62-32.85c-.13-2.55-3.48-3.38-4.78-1.19l-16.81,28.27c-2.9,4.87-7.03,11.25-8.64,13.05-11.57,12.89-28.32,29.24-49.78,48.59-.29.26-.57.53-.84.82-3.41-29.64-8.42-68.16-8.69-70.18l-1.17-9c-.53-4.03-4.85-6.37-8.51-4.59l-8.16,3.96c-4.6,2.23-13.19,6.18-16.75,7.34l-92.62,29.08c-5.42,1.7-7.12,8.54-3.12,12.58l5.67,5.72c13.99,14.11,18.27,40.51,22.41,66.04.75,4.62,1.52,9.37,2.34,13.98l-6.32-1.16c-3.6-.66-9.62-1.76-14.47,3.22l-3.51,3.63c-5.45-7.67-17.68-7.07-24.91-4.55-2.95,1.03-5.41,2.53-7.29,4.46-3.87,3.95-5.17,9.41-3.49,14.59,2.21,6.8,5.67,13.42,8.62,18.38L0,204.63l.05,4.67c.09,7.58,5.61,15.8,15.99,16.87l6.92.71,4.25-5.5c2.75-3.56,6.85-8.92,10.41-13.57,5.29,1.53,11.25,1.91,16.57,1.8,7.38.06,15.9.14,25.24.22,57.58.52,144.6,1.32,190.55-.28l5.57-.19,3.58-4.28c7.16-8.57,14.62-21.58,21.84-34.17,4.89-8.54,9.51-16.6,13.38-22.1l.69-.98.49-1.09c3.64-8.12-.58-13.7-1.96-15.22ZM179.54,117.28c4.57,8.48,10.38,28.17,9.55,33.84l-1.96,7.95-4.65.12c-.94-8.94-1.65-17.74-2.4-26.91-.39-4.84-.8-9.81-1.24-14.86l.7-.14Z"/>
  </g>
</svg>