<?xml version="1.0" encoding="UTF-8"?>
<svg id="b" data-name="Layer 2" xmlns="http://www.w3.org/2000/svg" viewBox="0 0 297.35 270.18">
  <defs>
    <style>
      .d {
        fill: #7ea6ad;
      }
    </style>
  </defs>
  <g id="c" data-name="Layer 1">
    <path class="d" d="M295.55,217.51c3.35-4.07,1.89-10.01-3.34-10.63l-23.85-1.7c-32.79-56.2-76.51-129.15-120.28-200.51-5.24-8.55-14.81-4.55-14.86,5.48l-1.12,56.17c0,1.93-3.36,6.23-4.42,7.84-25.48,38.66-61.69,83.3-80.66,126.08-1.04,2.34-3.43,3.77-5.98,3.58-15.89-1.18-37.88-5.05-40.93,15.14-.03.22-.06.45-.07.67-1.63,24.81,43.08,46.69,62.83,48.87.17.02.34.03.52.03,22.67.65,65.11.35,86.54.98,14.67.43,28.07,1.84,44.62-1.41,19.58-3.64,36.29-10.37,53.52-18.94,0,0,38.15-20.27,47.49-31.64Z"/>
  </g>
</svg>