<?xml version="1.0" encoding="UTF-8"?>
<svg id="b" data-name="Layer 2" xmlns="http://www.w3.org/2000/svg" viewBox="0 0 373.38 209.94">
  <defs>
    <style>
      .d {
        fill: #653437;
      }

      .e {
        fill: #ddd6d0;
      }
    </style>
  </defs>
  <g id="c" data-name="Layer 1">
    <g>
      <path class="e" d="M373.22,84.5c.65-20.54-10.54-36.62-27.9-41.88-9.79-16.84-16.62-39.53-49.43-41.62C232.01-.21,168.5,1.48,104.71.12,63.32-.75,46.78,2.33,28.63,42.71,9.17,47.18-.81,67.81.25,87.62c-1.64,14.11,4.89,31.02,19.92,39.79,4.82,16.03,10.71,32.51,14.52,48.5,12.64,48.83,86.11,29.53,124.37,33.39,44.23,0,87.64-.28,131.39-.46,43.25,2.39,51.71-49.39,61.88-81.01,14.82-7.42,22.24-27.58,20.89-43.34Z"/>
      <path class="d" d="M84.73,188.97c-11.96.63-27.28-4.79-30.52-17.4-4.11-17.42-10.48-35.03-15.53-52.07-6.93-13.66-20.77-10.99-18.43-31.67,1.02-30.05,9.71-19.31,23.73-31.66,8.36-14.01,14.5-35.62,34.45-35.41,72.03-.72,145.08-.22,217.1.23,29.52.98,22.94,37.01,49.24,43.29,11.43,8.05,9.8,26.15,5.62,37.85-10.74,15.33-14.44,5.09-20.39,30.58-8.55,20.92-10.47,57.16-39.13,56.14-68.3.29-137.93.8-206.14.13ZM116.49,67.37c65.13.45,130.23.52,195.22-.37,5.73-.76,1.1-8.51-.54-11.33-4.24-7.69-7.53-19.62-18.52-18.43-16.44-.47-32.33-.6-48.88-.39-54.13.52-107.19-.19-160.96-.05-12.89-1.67-17.16,13.06-22.54,22-2.3,3.45-1.88,8.27,3.17,8.12,16.92.85,35.88-.04,53.04.44ZM70.35,167.25c2.19,3.72,6.1,6.08,10.28,5.99,68.55.94,139.31-.08,207.75.29,9.64.29,13.07-3.82,15.65-13.06,4.81-14.52,10.15-28.56,14.2-43.25,1.2-5.04,4.1-10.88-3.98-10.81-55.25-1.25-111.14.93-166.33-.35-30.21.27-60.63-.36-90.62.12-6.61-.32-5.77,5.41-4.23,9.89,5.87,16.15,11.08,35.39,17.29,51.19Z"/>
    </g>
  </g>
</svg>