<?xml version="1.0" encoding="UTF-8"?>
<svg id="b" data-name="Layer 2" xmlns="http://www.w3.org/2000/svg" viewBox="0 0 193.34 241.24">
  <defs>
    <style>
      .d {
        fill: #6f5a43;
      }
    </style>
  </defs>
  <g id="c" data-name="Layer 1">
    <path class="d" d="M63.55,233.89c-13.01,1.94-26.68,3.95-39.76,5.9-5.24.51-11.59,2.51-15.27.72-5.84-2.37-9.99-9.39-7.99-15.48,3.41-9.68,15.24-17.03,12.42-28.74C-4.45,146.74-.42,89.89,12.32,40.16,13.36,30.48,3.54,25.68.99,17.39-2.62,6.46,4.03-1.08,14.81.25c48.41,7.31,96.43,12.06,145.02,1.63,9.04-.46,18.86-4.27,27.14.46,6.58,5.54,7.23,13.84,1.07,19.4-10.08,12.23-9.9,15.51-6.68,28.06,13.38,46.12,12.38,95.82.34,142.11-6.85,15.71,10.25,22.52,11.64,35.19-.18,12.56-13.89,14.64-23.95,12.06-12.95-2.04-27.8-3.28-40.59-5.98-21.34-2.82-43.34-1.5-65.25.71ZM106.75,80c-7.65-42.03-32.85-1.31-14,20.26,9.8,5.96,14.73-13.12,14-20.26ZM130.66,103.15c-6.71-10.09-35.83,12.42-27.55,26.19,12.76,10.31,34.52-16.8,27.55-26.19ZM80.7,131c21.5,8.53,7.2-29.1-13.53-29.86-9.03.16-6.7,9.37-3.87,14.92,3.21,7.77,9.1,12.82,17.4,14.94ZM103.52,167.41c12.51,7.52,34.97-17.08,27.08-28.52-12.26-5.75-35.3,15.62-27.08,28.52ZM90.92,164.8c2.07-11.52-9.83-22.09-19.63-25.87-29.98-7.77,10.35,46.95,19.63,25.87Z"/>
  </g>
</svg>