<?xml version="1.0" encoding="UTF-8"?>
<svg id="b" data-name="Layer 2" xmlns="http://www.w3.org/2000/svg" viewBox="0 0 333.55 168.91">
  <defs>
    <style>
      .d {
        fill: #62422b;
      }
    </style>
  </defs>
  <g id="c" data-name="Layer 1">
    <path class="d" d="M64.75,168.58c-11.96.63-27.28-4.79-30.52-17.4-4.11-17.42-10.48-35.03-15.53-52.07-6.93-13.66-20.77-10.99-18.43-31.67,1.02-30.05,9.71-19.31,23.73-31.66C32.36,21.76,38.5.15,58.44.36c72.03-.72,145.08-.22,217.1.23,29.52.98,22.94,37.01,49.24,43.29,11.43,8.05,9.8,26.15,5.62,37.85-10.74,15.33-14.44,5.09-20.39,30.58-8.55,20.92-10.47,57.16-39.13,56.14-68.3.29-137.93.8-206.14.13ZM96.5,46.98c65.13.45,130.23.52,195.22-.37,5.73-.76,1.1-8.51-.54-11.33-4.24-7.69-7.53-19.62-18.52-18.43-16.44-.47-32.33-.6-48.88-.39-54.13.52-107.19-.19-160.96-.05-12.89-1.67-17.16,13.06-22.54,22-2.3,3.45-1.88,8.27,3.17,8.12,16.92.85,35.88-.04,53.04.44ZM50.36,146.86c2.19,3.72,6.1,6.08,10.28,5.99,68.55.94,139.31-.08,207.75.29,9.64.29,13.07-3.82,15.65-13.06,4.81-14.52,10.15-28.56,14.2-43.25,1.2-5.04,4.1-10.88-3.98-10.81-55.25-1.25-111.14.93-166.33-.35-30.21.27-60.63-.36-90.62.12-6.61-.32-5.77,5.41-4.23,9.89,5.87,16.15,11.08,35.39,17.29,51.19Z"/>
  </g>
</svg>
