<?xml version="1.0" encoding="UTF-8"?>
<svg id="b" data-name="Layer 2" xmlns="http://www.w3.org/2000/svg" viewBox="0 0 276.43 254.65">
  <defs>
    <style>
      .d {
        fill: #3c5831;
      }
    </style>
  </defs>
  <g id="c" data-name="Layer 1">
    <g>
      <path class="d" d="M152.36,222.27c23.53,1.87,23.18,34.14-1.76,32.3-18.7-3.64-16.19-29.4,1.76-32.3Z"/>
      <path class="d" d="M177.93,194.34c2.39.59,4.3,2.05,6.74,2.27,7.44,9.03,8.96,15.98,1.74,26.37-13.96,7.48-9.36,2.76-20.76-3.73-16.84-8.38-2.35-26.9,12.27-24.91Z"/>
      <path class="d" d="M151.65,59.65c14.27-10.44,33.86,7.61,22.64,22.37-3.86,8.3-13.33,2.26-19.21-.38-13.87-1.63-13.42-15.13-3.43-21.99Z"/>
      <path class="d" d="M177.03,151.26c4.31,10.6-11.66,12.54-15.97,19.31-7.79,6.94-17.5-8.94-15.26-16.06,2.14-16.3,25.58-18.43,31.23-3.25Z"/>
      <path class="d" d="M157.95,89.54c10.05,5.09,12.15,13.64.22,17.86-6.94,3.12-14.28,18.97-21.14,7.1-10.27-14.6,5.05-30.98,20.92-24.97Z"/>
      <path class="d" d="M175.93,112.81c8.55,5.27,11.6,17.1,6.82,25.76-6.17,1.7-11.47-4.37-17.64-4.57-3.91-1.62-9.2,1.56-11.66-1.06-2.37-6.19-4.01-3.78-.28-10.13,4.41-10.44,12.63-12.67,22.76-10Z"/>
      <path class="d" d="M128.64,119.1c3.46-1.37,5.03,2.28,7.46,3.89,13.21,6.93,12.84,16.33,2.1,25.69-17.66,7.97-28.62-25.35-9.56-29.58Z"/>
      <path class="d" d="M190.39,169.2c2.69,2.64,5.83,4.39,6.92,7.72,1.31,5.61,2.15,11.42-1.97,16.03-6.7.49-12.24-4.72-18.93-5.38-3.14.54-7.37-.76-9.77-2.42-3.57-12.44,13.23-22.44,23.74-15.95Z"/>
      <path class="d" d="M135.27,64.13c3.86,7.07,5.08,17.46-.83,23.53-5.78,1.69-11.98-.75-17.86-2.19-11.79,2.12-6.24-32.41,18.69-21.33Z"/>
      <path class="d" d="M143.45,32.37c7.58-2.01,15.78,1.46,19.08,8.72,1.86,3.36,3.16,4.52-.97,6.78-6.77,1.68-13.13,4.53-18.77,8.72-3.76,2.79-8.8-.98-10.52-4.41-3.36-8.37,2.48-18.12,11.18-19.81Z"/>
      <path class="d" d="M118.36,93.41c10.51.35,11.56,13.64,4.74,19.33-4.14,2.93-7.48,6.65-11.07,9.93-13.71,1.19-13.65-28.95,6.33-29.25Z"/>
      <path class="d" d="M149.69,203.51c5.97,15.23-5.96,9.8-10.91,19.06-3.1,1.08-7.37,5.56-10.49,3.85-3.36-2.42-4.52-13.29-2.96-16.98,4.08-8.22,17.39-13.98,24.37-5.92Z"/>
      <path class="d" d="M152.56,178.35c4.31,1.96,6.68,6.15,6.26,10.66.39,3.57-.25,8.8-5.16,7.53-5.17-2.06-10.97-4.19-16.68-2.87-2.74,2.15-3.28-.9-4.87-2.66-2.54-3.84-.16-10.08,1.77-13.91,6.52-10.01,11.41-3.05,18.68,1.23Z"/>
      <path class="d" d="M122.83,154.2l15.05,4.99c3.17,5.76-9.53,11.48-12.39,16.45-5.36,3.69-7.34-4.23-9.79-7.14-4.22-5.46-2.32-19.89,7.13-14.3Z"/>
      <g>
        <path class="d" d="M173.67,23.39c-7.88,14.1-6.98,4.84-17.67,1.47-8.5-2.46-19.65.71-25.64,7.38-7.07,7.23-2.8,20.99-14.06,24.33-12.66,6.54-13.32,19.73-12.71,32.08-5.57,12.86-10.67,13.21-7.88,29.44.83,6.99-17.45,9.95-22.73,11.39-19.73,5.28-40.93,5.71-60.98,1.65C-37.74,128.26,77.95-29.73,162.01,4.98c2.14.77,5.62,1.91,7.82,2.7,12.66,4.9,10.24,5.3,3.84,15.71Z"/>
        <path class="d" d="M191.06,16.05c77.03,12.86,95.32,111.94,80.81,177.04-1.58,6.94-6.2,26-13.48,27.89-14.23.88-43.73-24.48-50.92-36.69-6.36-22.28-24.44-23.03-21.72-37.09,2.57-8.72,9.09-18.65,4.2-27.71-3.2-10.26-21.49-15.33-14.66-27.64,22.47-27.66-6.93-34.06-4.46-53.26,5.59-7.83,8.72-23.07,20.22-22.55Z"/>
      </g>
    </g>
  </g>
</svg>