<svg xmlns="http://www.w3.org/2000/svg" width="2646" height="1280" viewBox="0 0 2646 1280">
<rect width="100%" height="100%" fill="#f6f6f6"/>
<path d="M 1221.23 979.66 L 1221.23 980.52 C 1220.55 993.37 1211.63 1003.44 1209.01 1016.72 C 1203.21 1014.26 1195.91 1015.62 1191.85 1008.95 L 1184.98 1008.33 C 1184.55 1009.51 1182.92 1008.4 1182.43 1009.88 C 1178.05 1002.53 1176.43 994.44 1173.62 986.04 C 1178.92 983.19 1184.91 984 1190.9 982.82 C 1192.22 993.26 1201.32 986.64 1205.51 990.78 C 1208.81 986.21 1212.87 982.81 1216.42 979.1 C 1218.11 979.1 1219.73 979.29 1221.29 979.6 Z" fill="#f9414422" stroke="#f94144" stroke-width="1.5"/>
<text x="1197.92" y="997.28" fill="#111" font-size="16" font-family="Arial">C21</text>
<path d="M 1221.23 980.52 L 1221.23 979.66 C 1234.83 981.94 1243.7 992.13 1254.37 998.92 C 1252.94 1001.39 1253.25 1004.48 1251.19 1006.45 L 1246.82 1008.31 C 1245.83 1011.89 1242.52 1010.16 1240.52 1010.6 C 1232.91 1012.14 1230.29 1019.19 1225.05 1022.77 C 1224.37 1025.92 1227.55 1026.6 1228.05 1028.58 C 1227.11 1031.6 1224.99 1033.46 1221.87 1034.94 L 1210.58 1034.95 C 1210.64 1028.15 1219.38 1030.62 1220.12 1024.63 C 1217.87 1021.17 1211.95 1019.69 1209.07 1016.79 C 1211.63 1003.44 1220.55 993.37 1221.23 980.52 Z" fill="#f3722c22" stroke="#f3722c" stroke-width="1.5"/>
<text x="1228.54" y="1005.03" fill="#111" font-size="16" font-family="Arial">C22</text>
<path d="M 1299 1031.51 C 1295.57 1035.04 1290.64 1032.69 1287.39 1035.47 C 1285.58 1033.25 1286.77 1029.79 1283.21 1029.98 C 1280.03 1029.67 1279.78 1033.99 1275.79 1033.62 C 1268.8 1030.48 1259.63 1033.88 1252.01 1029.37 C 1251.2 1028.44 1251.14 1027.27 1250.7 1026.22 C 1250.32 1025.42 1250.14 1024.06 1251.07 1022.89 C 1253.13 1022.76 1254.94 1023.62 1256.75 1023.93 C 1262.8 1025.04 1266.11 1022.88 1266.11 1017.01 C 1266.11 1011.82 1266.1 1006.7 1266.1 1000.89 C 1272.15 995.45 1276.95 987.73 1287 986.98 C 1292.31 992.05 1302.66 989.63 1305.85 997.91 C 1303.05 1005.69 1301.3 1013.41 1296.75 1020.09 C 1293.82 1024.35 1293.44 1028.55 1299 1031.51 Z" fill="#f8961e22" stroke="#f8961e" stroke-width="1.5"/>
<text x="1282.14" y="1011.71" fill="#111" font-size="16" font-family="Arial">C23</text>
<path d="M 1372.25 1007.64 C 1373.81 1011.1 1377.37 1011.78 1380.36 1013.2 C 1379.74 1015.11 1379.3 1017.09 1376.12 1018.27 C 1374.25 1018.45 1374 1014.13 1370.25 1014.5 C 1367.07 1015.92 1365.2 1019.94 1361.4 1022.22 C 1357.78 1018.27 1353.41 1015.31 1353.28 1008.88 C 1353.28 1005.55 1349.22 1005.06 1346.16 1005.18 C 1343.73 1004.56 1346.04 1001.35 1342.42 1001.04 C 1341.61 1001.23 1339.74 1002.16 1337.8 1000.8 C 1335.62 1001.79 1334.43 1004.2 1332.69 1005.31 C 1319.89 1001.55 1318.21 1002.23 1311.16 1013.04 C 1312.22 1018.72 1313.41 1024.22 1313.6 1029.9 C 1313.66 1031.69 1312.85 1032.31 1311.67 1032.99 L 1310.42 1034.23 C 1311.42 1037.32 1313.17 1040.1 1314.73 1043.49 L 1324.34 1043.49 C 1325.65 1047.81 1329.64 1047.32 1333.95 1047.13 C 1338 1043.61 1342 1039.53 1344.12 1036.31 C 1352.41 1030.51 1362.4 1037.91 1368.39 1029.26 C 1379.56 1029.2 1384.23 1020.79 1389.54 1013.01 C 1390.04 1014.37 1391.66 1013.26 1392.22 1014.92 C 1392.16 1019.8 1383.42 1021.54 1386.36 1027.84 C 1393.35 1031.79 1398.09 1021.9 1404.52 1025.05 C 1405.46 1025.51 1406.4 1025.79 1407.35 1025.96 C 1407.52 1026.81 1407.91 1027.78 1408.57 1028.88 C 1413.32 1027.52 1419.06 1030.79 1424.49 1025.66 C 1418.21 1023.77 1412.76 1026.89 1407.35 1025.96 C 1406.75 1023.01 1408.79 1021.33 1411.69 1019.8 C 1414.94 1022.14 1417.74 1021.09 1420.24 1017.14 C 1423.49 1023.13 1428.17 1021.46 1432.66 1020.71 C 1433.34 1018.37 1434.9 1016.14 1433.09 1014.29 C 1429.91 1012.81 1427.85 1015.59 1425.17 1015.1 C 1423.17 1013.24 1421.8 1011.02 1421.48 1009.29 C 1421.23 1005.58 1424.73 1007.19 1425.16 1005.21 C 1422.73 1003.18 1421.04 1000.52 1419.29 997.62 C 1419.92 996.13 1422.29 995.52 1421.98 992.86 L 1410.37 992.86 C 1402.07 995.77 1407.38 1005.53 1400.27 1010.91 C 1400.45 1003.37 1401.7 997.01 1400.07 991.14 C 1396.45 990.03 1393.4 989.16 1390.03 990.52 C 1387.34 992.75 1386.41 996.46 1384.04 999.05 C 1376.99 997.94 1376.18 996.46 1377.86 986.39 C 1373.99 987.63 1371.05 985.9 1368.37 983.61 C 1363.82 984.73 1360.14 989.61 1354.64 986.21 C 1352.15 988.07 1351.03 990.35 1350.15 993.32 C 1354.4 994.43 1358.02 996.28 1357.71 1001.53 C 1359.7 1003.94 1363.26 1004.62 1364.57 1007.71 L 1372.06 1007.7 Z M 1347.28 984.8 C 1345.41 986.34 1342.91 984.67 1341.41 985.54 C 1338.98 989.19 1341.6 990.3 1343.04 990.79 C 1344.66 993.45 1340.23 995.3 1343.85 997.34 C 1349.09 995.36 1346.1 988.87 1349.71 985.97 C 1349.84 985.91 1348.59 985.41 1347.9 985.41 Z M 1407.35 1025.96 C 1412.76 1026.89 1418.21 1023.77 1424.49 1025.66 C 1419.06 1030.79 1413.32 1027.52 1408.57 1028.88 C 1407.91 1027.78 1407.52 1026.81 1407.35 1025.96 Z M 1425.9 983.53 C 1427.9 985.2 1427.22 987.11 1426.72 989.27 C 1424.53 989.71 1422.6 990.7 1422.1 987.24 C 1421.72 984.52 1423.35 984.03 1425.28 983.53 Z" fill="#f9844a22" stroke="#f9844a" stroke-width="1.5"/>
<text x="1365.37" y="1014.56" fill="#111" font-size="16" font-family="Arial">C24</text>
<path d="M 1621.85 1013.72 C 1618.42 1013.41 1615.18 1014.53 1611.37 1015.27 C 1609.37 1012.49 1606.07 1010.83 1604.38 1007.55 L 1600.64 1006.32 C 1599.45 1005.21 1598.45 1003.91 1596.95 1003.23 C 1590.34 1009.47 1582.73 1004.04 1574.99 1005.28 C 1573.37 1005.9 1573.68 1008.74 1571.81 1010.16 C 1569.12 1009.11 1565.07 1012.14 1563.26 1007.57 L 1559.51 1006.33 C 1549.78 1000.59 1538.98 996.64 1528.81 989.98 C 1521.26 994.61 1512.27 993.87 1503.35 994.13 C 1497.61 994.31 1493.99 998.89 1490.25 1002.65 C 1488.56 1002.72 1487.06 1001.17 1485.25 1002.16 C 1483.69 1003.03 1485.88 1005.68 1483.38 1006.3 L 1480.89 1007.54 C 1480.14 1009.02 1479.39 1010.5 1478.46 1012.36 C 1480.64 1015.38 1479.27 1019.28 1479.71 1023.1 C 1480.96 1024.53 1483.45 1022.61 1484.7 1024.83 C 1487.95 1031.01 1492.25 1028.78 1496.5 1026.06 C 1497.31 1025.57 1497.81 1024.52 1498.99 1024.7 C 1504.67 1027.11 1510.54 1033.04 1515.15 1024.02 C 1519.33 1025.31 1522.95 1024.39 1526.39 1024.94 C 1530.63 1025.62 1533.19 1028.64 1534.5 1032.23 C 1538.74 1032.41 1535.37 1028.58 1538.62 1028.33 C 1544.49 1036.24 1553.97 1032.9 1562.71 1033.51 C 1564.27 1031.23 1562.2 1028.32 1564.2 1025.48 C 1566.82 1030.36 1571.38 1029.68 1575.75 1029.86 C 1578.06 1029.98 1581.05 1028.25 1582.61 1031.65 L 1583.86 1032.89 C 1588.1 1031.83 1586.23 1026.58 1589.16 1025.1 C 1594.65 1026.33 1599.83 1027.81 1603.64 1022.38 C 1608.82 1022.38 1614.56 1023.92 1618.68 1022.06 C 1626.41 1018.48 1633.96 1018.47 1641.89 1019.27 L 1642.51 1018.04 C 1643.63 1015.07 1645.5 1012.23 1643.82 1008.71 C 1643.26 1007.54 1644.13 1006.49 1645.63 1006.3 L 1648.12 1007.53 L 1648.12 1012.54 C 1653.55 1014.2 1655.11 1010.74 1656.86 1007.53 L 1660.6 1006.29 C 1664.6 1003.88 1668.78 1001.72 1672.71 998.2 C 1673.58 999.93 1675.26 1000.11 1675.95 1001.04 C 1674.08 1005.92 1669.34 1008.14 1665.66 1011.73 C 1670.03 1012.9 1674.96 1011.54 1676.33 1016.23 C 1679.7 1015.86 1683.2 1017.03 1685.57 1014.25 C 1685.56 1009.68 1684.25 1004.49 1691.12 1003.07 C 1691.99 1002.88 1692.8 1001.59 1693.11 1000.1 C 1694.48 994.05 1699.1 991.39 1705.53 990.65 C 1702.9 988.86 1702.47 985.96 1699.78 985.22 C 1698.53 985.22 1697.97 986.33 1697.41 987.13 C 1693.67 992.14 1689.05 994.61 1683.06 991.34 C 1680.25 989.79 1678.94 992.7 1676.26 992.76 C 1673.64 987.2 1668.33 989.3 1664.22 989.31 C 1656.73 990.54 1658.23 998.45 1654.24 1002.03 C 1647.74 995.67 1656.73 991.04 1655.48 985.11 C 1653.42 983.87 1651.48 982.21 1650.05 980.23 C 1648.67 978.38 1647.36 976.9 1645.12 976.47 C 1638.07 983.57 1637.57 987.71 1643.13 993.21 C 1641.63 995.92 1639.63 997.96 1636.26 998.15 L 1635.02 999.39 C 1633.52 1002.6 1630.4 1003.77 1627.53 1004.89 C 1623.29 1006.49 1621.79 1009.46 1621.92 1013.6 Z M 1460.43 1023.92 C 1456.74 1017.43 1456.43 1011.01 1460.23 1004.52 L 1460.86 1002.73 C 1462.85 1005.26 1466.29 1005.88 1468.28 1007.54 C 1468.85 1012.48 1464.17 1013.29 1462.73 1016.32 C 1463.17 1018.97 1464.79 1022 1460.43 1023.92 Z M 1473.96 1011.31 C 1475.46 1013.1 1474.65 1015.45 1475.59 1017.61 C 1477.27 1021.44 1474.34 1024.28 1469.6 1024.28 C 1469.16 1021.38 1470.53 1018.29 1468.16 1015.51 C 1469.47 1013.53 1471.28 1011.99 1473.34 1010.69 Z" fill="#f9c74f22" stroke="#f9c74f" stroke-width="1.5"/>
<text x="1569.91" y="1010.78" fill="#111" font-size="16" font-family="Arial">C25</text>
<path d="M 1522.05 1097.77 C 1519.3 1096.91 1518.11 1094.87 1516.93 1092.27 C 1512.99 1083.57 1511.31 1082.76 1501.45 1083.57 C 1500.01 1083.69 1498.7 1083.51 1497.27 1081.78 C 1496.52 1078.94 1497.7 1075.23 1496.83 1071.9 C 1492.89 1068.87 1490.15 1072.09 1486.65 1073.2 C 1483.6 1069.99 1479.91 1067.02 1476.98 1062.95 C 1473.48 1064.62 1471.49 1067.83 1469.12 1070.61 C 1461.13 1066.48 1461.07 1066.23 1450.96 1068.27 C 1448.28 1068.83 1446.09 1068.83 1443.41 1068.27 C 1433.49 1065.87 1426.69 1072.05 1418.76 1077.49 C 1423.76 1083.97 1429.19 1089.16 1436.55 1092.92 C 1441.42 1093.42 1447.72 1088.41 1452.22 1095.45 C 1455.71 1095.08 1458.52 1092.48 1462.76 1092.23 C 1464.39 1092.73 1465.95 1094.33 1467.76 1095.32 C 1468.88 1103.6 1473.13 1107.43 1482.92 1108.97 C 1485.86 1117.67 1491.35 1123.17 1501.46 1121.81 C 1503.77 1121.5 1504.77 1123.29 1506.39 1123.97 C 1508.45 1124.83 1510.14 1126.68 1512.82 1126.13 C 1514.38 1124.58 1512.32 1122.23 1513.88 1120.63 C 1520.06 1119.58 1525.86 1119.26 1528.6 1111.48 C 1530.78 1105.3 1527.98 1102.46 1524.54 1099 L 1522.05 1097.77 Z" fill="#90be6d22" stroke="#90be6d" stroke-width="1.5"/>
<text x="1480.06" y="1091.9" fill="#111" font-size="16" font-family="Arial">C26</text>
<path d="M 1788.48 1051.34 C 1788.79 1052.51 1786.92 1052.64 1787.23 1053.81 L 1785.36 1053.81 L 1784.74 1055.05 C 1777.12 1056.28 1772.88 1062.59 1767.39 1066.91 C 1765.09 1068.7 1761.59 1070.25 1761.66 1074.2 L 1760.41 1076.67 C 1758.23 1080.32 1753.42 1080.57 1750.99 1084.03 C 1749.18 1086.56 1746.56 1088.35 1746.56 1092.12 C 1746.56 1094.53 1743.94 1095.89 1742.32 1097.68 C 1739.33 1101.02 1734.52 1103.25 1735.4 1109.05 C 1727.6 1111.28 1720.3 1110.79 1712.81 1109.62 C 1711.31 1111.97 1708.51 1113.7 1706.88 1116.23 C 1702.52 1122.9 1695.84 1122.84 1689.35 1122.17 C 1685.23 1121.74 1681.11 1120.07 1676.81 1120.63 C 1677.43 1111.36 1685.54 1108.7 1690.09 1103.7 C 1689.53 1101.16 1688.35 1099.93 1686.22 1099.5 L 1684.98 1100.73 C 1683.85 1101.85 1682.48 1101.17 1680.05 1101.66 C 1683.48 1095.92 1683.22 1090.54 1680.48 1085.11 C 1686.9 1081.21 1683.84 1072.75 1688.71 1067.99 C 1691.39 1067.99 1694.14 1067.99 1697.13 1067.99 C 1700.12 1061.44 1706.36 1058.35 1710.54 1053.22 L 1714.29 1051.98 C 1716.47 1051.92 1718.65 1052.41 1720.52 1050.75 C 1725.2 1046.54 1731.01 1046.79 1737.06 1047.1 C 1742.3 1040.92 1750.85 1040.3 1757.27 1035.85 C 1759.06 1034.58 1760.92 1034.27 1762.63 1034.57 C 1763.97 1034.84 1765.04 1035.35 1765.95 1036.03 C 1772.81 1041.09 1781.61 1043.25 1787.29 1050.1 L 1788.48 1051.28 Z M 1651.86 1143.43 C 1653.79 1143.74 1653.04 1141.39 1654.85 1140.71 C 1661.96 1137.99 1669.33 1134.84 1670.45 1125.39 C 1670.45 1125.39 1670.32 1124.15 1669.13 1123.59 C 1664.46 1126.25 1662.96 1132.18 1658.41 1134.78 C 1654.54 1134.84 1650.92 1134.35 1647.49 1136.02 C 1645.55 1138.18 1648.55 1141.52 1645.62 1143.43 L 1651.86 1143.43 Z M 1669.94 1118.1 C 1675 1116.92 1671.25 1110.44 1675.93 1109.08 C 1674 1107.22 1671.94 1107.16 1669.94 1106.92 C 1668.69 1109.57 1669.88 1112.72 1667.51 1115.13 C 1666.51 1116.18 1668.57 1117.17 1669.26 1118.1 Z" fill="#43aa8b22" stroke="#43aa8b" stroke-width="1.5"/>
<text x="1723.5" y="1079.6" fill="#111" font-size="16" font-family="Arial">C27</text>
<path d="M 1763.49 984.02 C 1760.75 985.69 1758.5 988.03 1754.63 985.44 C 1752.95 984.27 1749.77 985.26 1746.89 985.26 C 1744.9 989.95 1743.34 995.08 1740.1 999.28 C 1747.78 1004.22 1756.2 995.94 1763.69 1001.19 C 1766.81 999.27 1770.68 999.4 1774.17 999.08 C 1779.47 998.53 1781.28 995.44 1781.47 991.42 C 1781.65 987.04 1778.47 985.12 1774.16 984.57 C 1770.86 984.14 1767.49 984.08 1764.18 984.02 Z M 1739.17 1006.26 C 1737.85 1004.91 1735.92 1003.98 1735.29 1001.51 C 1740.35 997.12 1739.22 991.13 1738.97 985.01 C 1732.85 986.13 1733.29 992 1730.42 995.15 C 1728.43 995.46 1729.36 992.25 1726.18 992.93 C 1722.31 994.97 1721.5 999.91 1719.82 1004.36 C 1721.94 1006.15 1723.56 1003.98 1725.19 1003.67 C 1726.87 1004.66 1727.06 1006.08 1726.37 1008 C 1729.62 1008.12 1731.93 1008.18 1734.17 1008.74 L 1739.17 1006.26 Z" fill="#4d908e22" stroke="#4d908e" stroke-width="1.5"/>
<text x="1751.77" y="994.56" fill="#111" font-size="16" font-family="Arial">C28</text>
<path d="M 1764.13 1026.08 C 1761.64 1028.25 1763.39 1031.4 1762.83 1034.05 C 1760.92 1034.27 1759.06 1034.58 1757.27 1035.85 C 1750.85 1040.3 1742.3 1040.92 1737.06 1047.1 C 1731.01 1046.79 1725.2 1046.54 1720.52 1050.75 C 1718.65 1052.41 1716.47 1051.92 1714.29 1051.98 L 1710.54 1053.22 C 1706.36 1058.35 1700.12 1061.44 1697.13 1067.99 C 1694.14 1067.99 1691.39 1067.99 1688.71 1067.99 C 1683.84 1072.75 1686.9 1081.21 1680.48 1085.11 C 1683.22 1090.54 1683.48 1095.92 1680.05 1101.66 C 1682.48 1101.17 1683.85 1101.85 1684.98 1100.73 L 1686.22 1099.5 C 1688.35 1099.93 1689.53 1101.16 1690.09 1103.7 C 1685.54 1108.7 1677.43 1111.36 1676.81 1120.63 C 1681.11 1120.07 1685.23 1121.74 1689.35 1122.17 C 1695.84 1122.84 1702.52 1122.9 1706.88 1116.23 C 1708.51 1113.7 1711.31 1111.97 1712.81 1109.62 C 1720.3 1110.79 1727.6 1111.28 1735.4 1109.05 C 1734.52 1103.25 1739.33 1101.02 1742.32 1097.68 C 1743.94 1095.89 1746.56 1094.53 1746.56 1092.12 C 1746.56 1088.35 1749.18 1086.56 1750.99 1084.03 C 1753.42 1080.57 1758.23 1080.32 1760.41 1076.67 L 1761.66 1074.2 C 1761.59 1070.25 1765.09 1068.7 1767.39 1066.91 C 1772.88 1062.59 1777.12 1056.28 1784.74 1055.05 L 1785.36 1053.81 L 1787.23 1053.81 C 1786.92 1052.64 1788.79 1052.51 1788.48 1051.34 L 1797.78 1051.95 C 1800.77 1049.17 1804.58 1048.06 1808.38 1047.07 C 1813.75 1045.64 1819.18 1043.97 1823.23 1040.14 C 1826.54 1037.12 1830.1 1037.18 1833.96 1037.17 C 1840.14 1037.23 1845.63 1036.55 1847.81 1029.2 C 1848.81 1025.99 1851.99 1024.57 1855.8 1024.81 C 1866.91 1025.61 1875.77 1020.48 1883.13 1013 C 1886 1010.16 1889.05 1007.32 1891.49 1004.17 C 1891.17 1001.51 1889.17 1000.21 1888.18 998.18 C 1879.19 995.65 1870.39 994.66 1861.28 998.68 C 1858.29 999.98 1856.29 1002.02 1853.92 1003.81 C 1851.24 1005.79 1848.49 1007.33 1845.18 1005.05 L 1842.69 1003.81 C 1839.63 1002.58 1836.76 1001.59 1833.89 1004.37 C 1831.33 1006.91 1827.84 1006.23 1824.59 1006.23 C 1818.98 1006.23 1813.36 1006.24 1807.74 1006.24 L 1804 1008.71 C 1797.01 1011.68 1789.46 1011.25 1782.16 1012.36 C 1776.73 1013.17 1771.12 1012.98 1766.56 1016.75 C 1766.5 1020.03 1767.19 1023.43 1764.13 1026.08 Z" fill="#57759022" stroke="#577590" stroke-width="1.5"/>
<text x="1768.28" y="1053.15" fill="#111" font-size="16" font-family="Arial">C29</text>
<path d="M 1862.7 961.74 C 1859.77 965.02 1858.27 970.88 1855.28 976.38 C 1850.16 971.75 1843.98 970.15 1837.18 969.6 C 1828.07 968.86 1824.39 976.21 1818.34 980.54 C 1819.9 970.53 1823.45 961.69 1830.25 954.16 C 1836.24 955.7 1842.23 957.12 1848.53 955.32 C 1849.97 953.72 1850.47 951.18 1852.15 949.27 C 1855.71 949.88 1859.2 948.89 1862.76 947.9 C 1865.38 949.57 1867.13 951.92 1868.94 954.33 C 1871.68 953.95 1873.68 954.57 1875.31 957.29 C 1876.43 959.14 1876.74 961.67 1878.93 962.91 C 1878.93 962.91 1872.19 965.38 1870.69 963.53 C 1867.94 960.19 1864.2 960.07 1862.7 961.68 Z" fill="#277da122" stroke="#277da1" stroke-width="1.5"/>
<text x="1847.3" y="962.12" fill="#111" font-size="16" font-family="Arial">C30</text>
<path d="M 1380.36 1013.2 C 1377.37 1011.78 1373.81 1011.1 1372.25 1007.64 L 1364.57 1007.71 C 1363.26 1004.62 1359.7 1003.94 1357.71 1001.53 C 1358.02 996.28 1354.4 994.43 1350.15 993.32 C 1351.03 990.35 1352.15 988.07 1354.64 986.21 C 1360.14 989.61 1363.82 984.73 1368.37 983.61 C 1371.05 985.9 1373.99 987.63 1377.86 986.39 C 1376.18 996.46 1376.99 997.94 1384.04 999.05 C 1386.41 996.46 1387.34 992.75 1390.03 990.52 C 1393.4 989.16 1396.45 990.03 1400.07 991.14 C 1401.7 997.01 1400.45 1003.37 1400.27 1010.91 C 1407.38 1005.53 1402.07 995.77 1410.37 992.86 L 1421.98 992.86 C 1422.29 995.52 1419.92 996.13 1419.29 997.62 C 1421.04 1000.52 1422.73 1003.18 1425.16 1005.21 C 1424.73 1007.19 1421.23 1005.58 1421.48 1009.29 C 1421.8 1011.02 1423.17 1013.24 1425.17 1015.1 C 1427.85 1015.59 1429.91 1012.81 1433.09 1014.29 C 1434.9 1016.14 1433.34 1018.37 1432.66 1020.71 C 1428.17 1021.46 1423.49 1023.13 1420.24 1017.14 C 1417.74 1021.09 1414.94 1022.14 1411.69 1019.8 C 1408.79 1021.33 1406.75 1023.01 1407.35 1025.96 C 1406.4 1025.79 1405.46 1025.51 1404.52 1025.05 C 1398.09 1021.9 1393.35 1031.79 1386.36 1027.84 C 1383.42 1021.54 1392.16 1019.8 1392.22 1014.92 C 1391.66 1013.26 1390.04 1014.37 1389.54 1013.01 C 1384.23 1020.79 1379.56 1029.2 1368.39 1029.26 C 1362.4 1037.91 1352.41 1030.51 1344.12 1036.31 C 1342 1039.53 1338 1043.61 1333.95 1047.13 C 1329.64 1047.32 1325.65 1047.81 1324.34 1043.49 L 1314.73 1043.49 C 1313.17 1040.1 1311.42 1037.32 1310.42 1034.23 L 1311.67 1032.99 C 1312.85 1032.31 1313.66 1031.69 1313.6 1029.9 C 1313.41 1024.22 1312.22 1018.72 1311.16 1013.04 C 1318.21 1002.23 1319.89 1001.55 1332.69 1005.31 C 1334.43 1004.2 1335.62 1001.79 1337.8 1000.8 C 1339.74 1002.16 1341.61 1001.23 1342.42 1001.04 C 1346.04 1001.35 1343.73 1004.56 1346.16 1005.18 C 1349.22 1005.06 1353.28 1005.55 1353.28 1008.88 C 1353.41 1015.31 1357.78 1018.27 1361.4 1022.22 C 1365.2 1019.94 1367.07 1015.92 1370.25 1014.5 C 1374 1014.13 1374.25 1018.45 1376.12 1018.27 C 1379.3 1017.09 1379.74 1015.11 1380.36 1013.2 Z" fill="#ff000022" stroke="#ff0000" stroke-width="1.2"/>
<text x="1364.41" y="1014.85" fill="#f00" font-size="12" font-family="Arial">Z04</text>
<path d="M 1191.85 1008.95 C 1195.91 1015.62 1203.21 1014.26 1209.01 1016.72 C 1211.95 1019.69 1217.87 1021.17 1220.12 1024.63 C 1219.38 1030.62 1210.64 1028.15 1210.58 1034.95 L 1221.87 1034.94 C 1224.99 1033.46 1227.11 1031.6 1228.05 1028.58 C 1227.55 1026.6 1224.37 1025.92 1225.05 1022.77 C 1230.29 1019.19 1232.91 1012.14 1240.52 1010.6 C 1242.52 1010.16 1245.83 1011.89 1246.82 1008.31 L 1251.19 1006.45 C 1253.25 1004.48 1252.94 1001.39 1254.37 998.92 C 1243.7 992.13 1234.83 981.94 1221.29 979.6 C 1219.73 979.29 1218.11 979.1 1216.42 979.1 C 1212.87 982.81 1208.81 986.21 1205.51 990.78 C 1201.32 986.64 1192.22 993.26 1190.9 982.82 C 1184.91 984 1178.92 983.19 1173.62 986.04 C 1176.43 994.44 1178.05 1002.53 1182.43 1009.88 C 1182.92 1008.4 1184.55 1009.51 1184.98 1008.33 L 1191.85 1008.95 Z" fill="#ff000022" stroke="#ff0000" stroke-width="1.2"/>
<text x="1214.55" y="1001.58" fill="#f00" font-size="12" font-family="Arial">Z06</text>
</svg>