<?xml version="1.0" encoding="UTF-8"?>
<svg id="b" xmlns="http://www.w3.org/2000/svg" version="1.1" viewBox="0 0 1152.5 318.4">
  <!-- Generator: Adobe Illustrator 30.1.0, SVG Export Plug-In . SVG Version: 2.1.1 Build 136)  -->
  <defs>
    <style>
      .st0 {
        fill: none;
        stroke: #000;
        stroke-linecap: round;
        stroke-linejoin: round;
        stroke-width: 2px;
      }
    </style>
  </defs>
  <g id="c">
    <g>
      <path class="st0" d="M559.3,243.3c-4.4-1.4-6.3-4.7-8.2-8.9-6.3-14.1-9-15.4-24.8-14.1-2.3.2-4.4-.1-6.7-2.9-1.2-4.6.7-10.6-.7-16-6.3-4.9-10.7.3-16.3,2.1-4.9-5.2-10.8-10-15.5-16.6-5.6,2.7-8.8,7.9-12.6,12.4-12.8-6.7-12.9-7.1-29.1-3.8-4.3.9-7.8.9-12.1,0-15.9-3.9-26.8,6.1-39.5,14.9,8,10.5,16.7,18.9,28.5,25,7.8.8,17.9-7.3,25.1,4.1,5.6-.6,10.1-4.8,16.9-5.2,2.6.8,5.1,3.4,8,5,1.8,13.4,8.6,19.6,24.3,22.1,4.7,14.1,13.5,23,29.7,20.8,3.7-.5,5.3,2.4,7.9,3.5,3.3,1.4,6,4.4,10.3,3.5,2.5-2.5-.8-6.3,1.7-8.9,9.9-1.7,19.2-2.2,23.6-14.8,3.5-10-1-14.6-6.5-20.2l-4-2h0Z"/>
      <path class="st0" d="M1105.3,23.3c-4.7,5.3-7.1,14.8-11.9,23.7-8.2-7.5-18.1-10.1-29-11-14.6-1.2-20.5,10.7-30.2,17.7,2.5-16.2,8.2-30.5,19.1-42.7,9.6,2.5,19.2,4.8,29.3,1.9,2.3-2.6,3.1-6.7,5.8-9.8,5.7,1,11.3-.6,17-2.2,4.2,2.7,7,6.5,9.9,10.4,4.4-.6,7.6.4,10.2,4.8,1.8,3,2.3,7.1,5.8,9.1,0,0-10.8,4-13.2,1-4.4-5.4-10.4-5.6-12.8-3h0Z"/>
      <path class="st0" d="M183.3,142.3c5.2-4.5,13.1-.7,18.6-6.4-8.9-4.8-8.3-11.6-3.6-18.5,7.3-10.8,10.1-23.3,14.6-35.9-5.1-13.4-21.7-9.5-30.2-17.7-16.1,1.2-23.8,13.7-33.5,22.5,0,9.4,0,17.7,0,26.1,0,9.5-5.3,13-15,11.2-2.9-.5-5.8-1.9-9.1-1.7-1.5,1.9-1.2,4.1-.6,5.4.7,1.7.8,3.6,2.1,5.1,12.2,7.3,26.9,1.8,38.1,6.9,6.4.6,6.8-6.4,11.9-5.9,5.7-.3,3.8,5.3,5.7,8l1,1h0Z"/>
      <path class="st0" d="M907.3,95.3c-2.1-2.2-5.2-3.7-6.2-7.7,8.1-7.1,6.3-16.8,5.9-26.7-9.8,1.8-9.1,11.3-13.7,16.4-3.2.5-1.7-4.7-6.8-3.6-6.2,3.3-7.5,11.3-10.2,18.5,3.4,2.9,6-.6,8.6-1.1,2.7,1.6,3,3.9,1.9,7,5.2.2,8.9.3,12.5,1.2l8-4h0Z"/>
      <path class="st0" d="M319.3,97.3c2.5,5.6,8.2,6.7,13,9-1,3.1-1.7,6.3-6.8,8.2-3,.3-3.4-6.7-9.4-6.1-5.1,2.3-8.1,8.8-14.2,12.5-5.8-6.4-12.8-11.2-13-21.6,0-5.4-6.5-6.2-11.4-6-3.9-1-.2-6.2-6-6.7-1.3.3-4.3,1.8-7.4-.4-3.5,1.6-5.4,5.5-8.2,7.3-20.5-6.1-23.2-5-34.5,12.5,1.7,9.2,3.6,18.1,3.9,27.3.1,2.9-1.2,3.9-3.1,5l-2,2c1.6,5,4.4,9.5,6.9,15h15.4c2.1,7,8.5,6.2,15.4,5.9,6.5-5.7,12.9-12.3,16.3-17.5,13.3-9.4,29.3,2.6,38.9-11.4,17.9-.1,25.4-13.7,33.9-26.3.8,2.2,3.4.4,4.3,3.1-.1,7.9-14.1,10.7-9.4,20.9,11.2,6.4,18.8-9.6,29.1-4.5,10.2,5,20.2-2.6,32,1-8.7,8.3-17.9,3-25.5,5.2-4.7-7.9-1-11.5,5-14.7,5.2,3.8,9.7,2.1,13.7-4.3,5.2,9.7,12.7,7,19.9,5.8,1.1-3.8,3.6-7.4.7-10.4-5.1-2.4-8.4,2.1-12.7,1.3-3.2-3-5.4-6.6-5.9-9.4-.4-6,5.2-3.4,5.9-6.6-3.9-3.3-6.6-7.6-9.4-12.3,1-2.4,4.8-3.4,4.3-7.7h-18.6c-13.3,4.7-4.8,20.5-16.2,29.2.3-12.2,2.3-22.5-.3-32-5.8-1.8-10.7-3.2-16.1-1-4.3,3.6-5.8,9.6-9.6,13.8-11.3-1.8-12.6-4.2-9.9-20.5-6.2,2-10.9-.8-15.2-4.5-7.3,1.8-13.2,9.7-22,4.2-4,3-5.8,6.7-7.2,11.5,6.8,1.8,12.6,4.8,12.1,13.3,3.2,3.9,8.9,5,11,10h12Z"/>
      <path class="st0" d="M77.3,51.9v1.4c-1.1,20.8-15.4,37.1-19.6,58.6-9.3-4-21-1.8-27.5-12.6l-11-1c-.7,1.9-3.3.1-4.1,2.5-7-11.9-9.6-25-14.1-38.6,8.5-4.6,18.1-3.3,27.7-5.2,2.1,16.9,16.7,6.2,23.4,12.9,5.3-7.4,11.8-12.9,17.5-18.9,2.7,0,5.3.3,7.8.8,21.7,3.8,35.9,20.3,53,31.3-2.3,4-1.8,9-5.1,12.2l-7,3c-1.6,5.8-6.9,3-10.1,3.7-12.2,2.5-16.4,13.9-24.8,19.7-1.1,5.1,4,6.2,4.8,9.4-1.5,4.9-4.9,7.9-9.9,10.3h-18.1c.1-11,14.1-7,15.3-16.7-3.6-5.6-13.1-8-17.7-12.7"/>
      <path class="st0" d="M945.2,141.2v-.9c.9-4.3-1.9-9.4,2.1-12.9,4.9-4.3,3.8-9.8,3.9-15.1,7.3-6.1,16.3-5.8,25-7.1,11.7-1.8,23.8-1.1,35-5.9l6-4c9,0,18,0,27,0,5.2,0,10.8,1.1,14.9-3,4.6-4.5,9.2-2.9,14.1-.9l4,2c5.3,3.7,9.7,1.2,14-2,3.8-2.9,7-6.2,11.8-8.3,14.6-6.5,28.7-4.9,43.1-.8,1.6,3.3,4.8,5.4,5.3,9.7-3.9,5.1-8.8,9.7-13.4,14.3-11.8,12.1-26,20.4-43.8,19.1-6.1-.4-11.2,1.9-12.8,7.1-3.5,11.9-12.3,13-22.2,12.9-6.2,0-11.9-.1-17.2,4.8-6.5,6.2-15.2,8.9-23.8,11.2-6.1,1.6-12.2,3.4-17,7.9l-15-1"/>
      <path class="st0" d="M460.3,92.3c-6.1,10.5-5.6,20.9.3,31.4,7-3.1,4.4-8,3.7-12.3,2.3-4.9,9.8-6.2,8.9-14.2-3.2-2.7-8.7-3.7-11.9-7.8l-1,3h0Z"/>
      <path class="st0" d="M767.3,317.3c3.1.5,1.9-3.3,4.8-4.4,11.4-4.4,23.2-9.5,25-24.8,0,0-.2-2-2.1-2.9-7.5,4.3-9.9,13.9-17.2,18.1-6.2.1-12-.7-17.5,2-3.1,3.5,1.7,8.9-3,12h10Z"/>
      <path class="st0" d="M796.3,276.3c8.1-1.9,2.1-12.4,9.6-14.6-3.1-3-6.4-3.1-9.6-3.5-2,4.3-.1,9.4-3.9,13.3-1.6,1.7,1.7,3.3,2.8,4.8"/>
      <path class="st0" d="M279.3,60.3c-3,2.5-7-.2-9.4,1.2-3.9,5.9.3,7.7,2.6,8.5,2.6,4.3-4.5,7.3,1.3,10.6,8.4-3.2,3.6-13.7,9.4-18.4.2-.1-1.8-.9-2.9-.9l-1-1Z"/>
      <path class="st0" d="M482.3,103.3c2.4,2.9,1.1,6.7,2.6,10.2,2.7,6.2-2,10.8-9.6,10.8-.7-4.7,1.5-9.7-2.3-14.2,2.1-3.2,5-5.7,8.3-7.8l1,1h0Z"/>
      <path class="st0" d="M405.3,58.3c3.2,2.7,2.1,5.8,1.3,9.3-3.5.7-6.6,2.3-7.4-3.3-.6-4.4,2-5.2,5.1-6"/>
      <path class="st0" d="M719.3,107.3c-5.5-.5-10.7,1.3-16.8,2.5-3.2-4.5-8.5-7.2-11.2-12.5l-6-2c-1.9-1.8-3.5-3.9-5.9-5-10.6,10.1-22.8,1.3-35.2,3.3-2.6,1-2.1,5.6-5.1,7.9-4.3-1.7-10.8,3.2-13.7-4.2l-6-2c-15.6-9.3-32.9-15.7-49.2-26.5-12.1,7.5-26.5,6.3-40.8,6.7-9.2.3-15,7.7-21,13.8-2.7.1-5.1-2.4-8-.8-2.5,1.4,1,5.7-3,6.7l-4,2c-1.2,2.4-2.4,4.8-3.9,7.8,3.5,4.9,1.3,11.2,2,17.4,2,2.3,6-.8,8,2.8,5.2,10,12.1,6.4,18.9,2,1.3-.8,2.1-2.5,4-2.2,9.1,3.9,18.5,13.5,25.9-1.1,6.7,2.1,12.5.6,18,1.5,6.8,1.1,10.9,6,13,11.8,6.8.3,1.4-5.9,6.6-6.3,9.4,12.8,24.6,7.4,38.6,8.4,2.5-3.7-.8-8.4,2.4-13,4.2,7.9,11.5,6.8,18.5,7.1,3.7.2,8.5-2.6,11,2.9l2,2c6.8-1.7,3.8-10.2,8.5-12.6,8.8,2,17.1,4.4,23.2-4.4,8.3,0,17.5,2.5,24.1-.5,12.4-5.8,24.5-5.8,37.2-4.5l1-2c1.8-4.8,4.8-9.4,2.1-15.1-.9-1.9.5-3.6,2.9-3.9l4,2v8.1c8.7,2.7,11.2-2.9,14-8.1l6-2c6.4-3.9,13.1-7.4,19.4-13.1,1.4,2.8,4.1,3.1,5.2,4.6-3,7.9-10.6,11.5-16.5,17.3,7,1.9,14.9-.3,17.1,7.3,5.4-.6,11,1.3,14.8-3.2,0-7.4-2.1-15.8,8.9-18.1,1.4-.3,2.7-2.4,3.2-4.8,2.2-9.8,9.6-14.1,19.9-15.3-4.2-2.9-4.9-7.6-9.2-8.8-2,0-2.9,1.8-3.8,3.1-6,8.1-13.4,12.1-23,6.8-4.5-2.5-6.6,2.2-10.9,2.3-4.2-9-12.7-5.6-19.3-5.6-12,2-9.6,14.8-16,20.6-10.4-10.3,4-17.8,2-27.4-3.3-2-6.4-4.7-8.7-7.9-2.2-3-4.3-5.4-7.9-6.1-11.3,11.5-12.1,18.2-3.2,27.1-2.4,4.4-5.6,7.7-11,8l-2,2c-2.4,5.2-7.4,7.1-12,8.9-6.8,2.6-9.2,7.4-9,14.1"/>
      <path class="st0" d="M1027.3,57.3c-2.5,5.4-1.2,12.8-5.7,12.8-2.4-5.5-.5-9.7,5.7-12.8"/>
      <path class="st0" d="M986.3,168.3c.5,1.9-2.5,2.1-2,4h-3l-1,2c-12.2,2-19,12.2-27.8,19.2-3.7,2.9-9.3,5.4-9.2,11.8l-2,4c-3.5,5.9-11.2,6.3-15.1,11.9-2.9,4.1-7.1,7-7.1,13.1,0,3.9-4.2,6.1-6.8,9-4.8,5.4-12.5,9-11.1,18.4-12.5,3.6-24.2,2.8-36.2.9-2.4,3.8-6.9,6.6-9.5,10.7-7,10.8-17.7,10.7-28.1,9.6-6.6-.7-13.2-3.4-20.1-2.5,1-15,14-19.3,21.3-27.4-.9-4.1-2.8-6.1-6.2-6.8l-2,2c-1.8,1.8-4,.7-7.9,1.5,5.5-9.3,5.1-18,.7-26.8,10.3-6.3,5.4-20,13.2-27.7,4.3,0,8.7,0,13.5,0,4.8-10.6,14.8-15.6,21.5-23.9l6-2c3.5-.1,7,.7,10-2,7.5-6.8,16.8-6.4,26.5-5.9,8.4-10,22.1-11,32.4-18.2,4.9-3.5,10.2-2.5,13.9.3,11,8.2,25.1,11.7,34.2,22.8l2,2h0Z"/>
      <path class="st0" d="M946.3,59.3c-4.4,2.7-8,6.5-14.2,2.3-2.7-1.9-7.8-.3-12.4-.3-3.2,7.6-5.7,15.9-10.9,22.7,12.3,8,25.8-5.4,37.8,3.1,5-3.1,11.2-2.9,16.8-3.4,8.5-.9,11.4-5.9,11.7-12.4.3-7.1-4.8-10.2-11.7-11.1-5.3-.7-10.7-.8-16-.9"/>
    </g>
  </g>
</svg>