<svg xmlns="http://www.w3.org/2000/svg" width="2646" height="1280" viewBox="0 0 2646 1280">
<rect width="100%" height="100%" fill="#f6f6f6"/>
<path d="M 724.86 887.52 C 722.24 897.01 719.66 906.66 717.57 916.6 L 716.88 917.16 C 711.7 921.02 706.47 919.65 701.29 917.16 L 700.66 915.92 C 694.8 911.75 688.94 907.58 680.89 905.59 C 679.65 905.9 679.65 908.39 678.21 909.69 L 677.59 910.94 C 673.66 909.75 670.04 910.5 666.36 912.12 C 662.99 913.55 659.62 913.67 657.32 910.44 C 651.83 912.62 647.09 909.57 641.66 909.82 C 640.66 901.42 647.34 899.24 650.96 894.94 C 654.63 898.18 655.26 903.78 661.25 904.34 C 661.12 898.37 666.05 895.69 668.54 892.64 C 669.6 888.16 669.67 884.49 670.79 881.07 C 674.34 881.13 676.59 880.57 677.96 876.21 C 679.15 872.42 680.52 868.81 680.08 864.95 C 679.4 858.92 681.71 855.18 687.82 854 C 686.51 849.33 689.75 849.21 692.5 848.77 C 694.8 849.64 694.62 853.19 697.36 853.19 C 698.42 853 699.48 853.56 700.1 852.51 C 702.1 848.9 704.47 849.46 708.28 850.33 C 712.95 851.39 718.07 852.07 723.18 850.83 C 726.74 849.96 730.98 849.96 733.1 854.37 L 733.41 855.49 C 730.92 866.08 727.86 876.69 724.86 887.52 Z" fill="#f9414422" stroke="#f94144" stroke-width="1.5"/>
<text x="696.82" y="884.51" fill="#111" font-size="16" font-family="Arial">C01</text>
<path d="M 750.93 946.43 C 741.83 947.11 732.81 948.96 723.18 948.96 C 721.25 948.09 720.5 944.73 717.5 944.54 C 711.02 944.17 710.89 940.06 711.45 935.33 C 717.94 932.1 719.38 926.25 720.69 920.4 C 719.57 919.18 718.23 918.23 717.74 917.17 C 719.66 906.66 722.24 897.01 724.86 887.52 L 726.3 887.98 C 737.71 892.21 750.44 892.96 761.1 898.8 C 765.84 901.36 770.23 903.47 774.64 905.52 L 774.26 906.65 C 769.27 917.72 764.66 928.98 755.05 937.26 C 752.87 939.19 752 942.74 751.19 945.85 Z" fill="#f3722c22" stroke="#f3722c" stroke-width="1.5"/>
<text x="740.82" y="919.42" fill="#111" font-size="16" font-family="Arial">C02</text>
<path d="M 724.86 887.52 C 727.86 876.69 730.92 866.08 733.41 855.49 C 736.9 853.5 739.9 855.18 742.14 854.06 C 741.83 849.52 742.08 845.16 739.15 841.24 C 745.26 839.88 749.88 841.56 753.56 844.36 C 755.68 844.54 756.74 843.48 757.99 843.24 C 765.84 841.49 768.84 842.74 772.89 850.08 C 776.51 856.62 783.06 858.48 789.17 861.28 C 777.5 871.59 769.28 884.81 761.79 898.56 C 750.44 892.96 737.71 892.21 726.3 887.98 L 724.93 887.54 Z" fill="#f8961e22" stroke="#f8961e" stroke-width="1.5"/>
<text x="754.02" y="868.8" fill="#111" font-size="16" font-family="Arial">C03</text>
<path d="M 793.1 962.28 L 791.1 961.41 L 788.61 961.41 C 782.62 961.41 781 955.74 777.38 952.69 C 771.33 952.44 765.34 952.13 760.54 947.65 C 758.86 946.1 757.17 946.16 754.93 946.22 C 753.61 946.26 752.29 946.33 750.97 946.43 C 752 942.74 752.87 939.19 755.05 937.26 C 764.66 928.98 769.27 917.72 774.26 906.65 L 774.64 905.53 C 781.62 908.77 788.67 911.86 795.53 915.36 C 796.03 915.61 796.78 915.36 797.4 915.36 L 802.39 917.85 C 803.28 917.78 804.18 917.79 805.07 917.87 C 807.68 918.08 810.22 918.83 812.31 919.9 C 815.57 921.56 818.9 922.96 822.29 924.19 C 817.05 930.11 817.3 940 811.81 945.97 C 808.57 949.52 806.63 954 801.14 955.37 C 797.66 956.24 796.16 960.2 793.13 962.32 Z" fill="#f9844a22" stroke="#f9844a" stroke-width="1.5"/>
<text x="787.47" y="935.08" fill="#111" font-size="16" font-family="Arial">C04</text>
<path d="M 831.15 884.93 C 822.29 895.45 815.37 907.46 805.51 917.22 C 804.18 917.79 803.28 917.78 802.39 917.85 L 797.4 915.36 C 796.78 915.36 796.03 915.61 795.53 915.36 C 788.67 911.86 781.62 908.77 774.64 905.52 C 770.23 903.47 765.84 901.36 761.55 899.04 C 769.28 884.81 777.5 871.59 789.63 861.81 C 790.88 860.81 791.94 860.01 793.04 859.23 C 797.53 860.04 796.66 863.83 798.15 866.07 C 799.84 868.56 803.33 868.5 806.14 869.31 L 813.62 869.31 C 816.93 870.12 819.73 867.51 823.29 868.13 C 825.22 873.23 829.34 876.34 834.2 878.64 L 835.89 880.82 C 833.56 881.9 832.32 883.51 831.15 884.93 Z" fill="#f9c74f22" stroke="#f9c74f" stroke-width="1.5"/>
<text x="797.7" y="888.97" fill="#111" font-size="16" font-family="Arial">C05</text>
<path d="M 851.1 954.69 C 850.17 957.25 848.11 960.14 849.46 963.2 C 844.18 966.57 838.07 965.14 834.7 963.9 C 827.78 964.33 832.77 973.23 825.59 974.1 C 816.74 967.07 803.51 969.81 793.1 962.34 C 796.16 960.2 797.66 956.24 801.14 955.37 C 806.63 954 808.57 949.52 811.81 945.97 C 817.3 940 817.05 930.11 822.29 924.19 C 833.76 928.36 845.82 930.61 857.28 934.65 C 856 941.54 853.6 948.11 851.1 954.69 Z" fill="#90be6d22" stroke="#90be6d" stroke-width="1.5"/>
<text x="828.65" y="949.88" fill="#111" font-size="16" font-family="Arial">C06</text>
<path d="M 859.84 922.27 C 859.46 926.54 858.7 930.68 857.69 934.75 C 845.82 930.61 833.76 928.36 822.29 924.19 C 818.9 922.96 815.57 921.56 812.31 919.9 C 810.22 918.83 807.68 918.08 805.07 917.87 C 815.37 907.46 822.29 895.45 831.15 884.93 C 832.32 883.51 833.56 881.9 835.9 880.85 C 838.69 886.05 839.01 891.9 840.44 897.44 C 848.17 899.8 857.53 899.86 864.2 905.4 C 861.29 911.04 860.35 916.73 859.84 922.27 Z" fill="#43aa8b22" stroke="#43aa8b" stroke-width="1.5"/>
<text x="837.6" y="911.26" fill="#111" font-size="16" font-family="Arial">C07</text>
<path d="M 897.88 905.47 C 895.76 921.46 896.64 939.07 890.96 954.63 C 889.56 958.42 889.27 963.57 885.03 964.77 C 884.55 964.91 884.01 964.99 883.41 965.02 C 872.62 965.45 861.83 967.38 852.1 966.32 C 850.77 965.3 849.96 964.29 849.5 963.3 C 848.11 960.14 850.17 957.25 851.1 954.69 C 853.6 948.11 856 941.54 857.69 934.75 C 858.7 930.68 859.46 926.54 859.84 922.27 C 860.35 916.73 861.29 911.04 864.46 905.96 C 864.86 905.34 865.12 904.96 865.39 904.59 C 873.93 906.4 881.54 901.98 890.15 900.18 C 891.02 902.79 893.83 903.6 895.95 904.6 C 896.08 904.66 896.79 905 897.88 905.47 Z" fill="#4d908e22" stroke="#4d908e" stroke-width="1.5"/>
<text x="875.49" y="935.68" fill="#111" font-size="16" font-family="Arial">C08</text>
<path d="M 941.4 910.27 C 938.96 919.17 939.7 928.62 938.99 937.83 C 938.94 938.45 938.9 939.07 938.86 939.69 C 937.84 955.63 939.1 971.68 937.24 987.61 C 934.55 988.9 931.97 988.7 929.63 989.6 C 922.64 985.62 917.03 979.7 909.67 976.34 C 902.87 973.23 895.51 971.68 888.96 967.88 C 887.59 967.07 886.53 966.08 885.28 965.2 C 889.27 963.57 889.56 958.42 890.96 954.63 C 896.64 939.07 895.76 921.46 897.88 905.47 C 902.09 907.27 912.07 911.04 917.66 909.01 C 925.33 906.15 932.31 907.27 939.55 909.76 L 941.36 910.26 Z" fill="#57759022" stroke="#577590" stroke-width="1.5"/>
<text x="917.44" y="945.27" fill="#111" font-size="16" font-family="Arial">C09</text>
<path d="M 937.24 987.61 C 939.1 971.68 937.84 955.63 938.86 939.69 L 940.23 939.69 C 952.02 939.69 962.63 944.36 973.23 948.53 C 980.78 951.52 988.2 953.88 996.37 953.32 L 997.3 953.32 C 995.2 961.92 995.05 970.24 995.93 978.9 C 996.74 986.74 998.36 995.01 996.3 1003.1 C 995.79 1003.13 995.45 1002.79 995.12 1002.42 C 992.44 999.37 988.82 997.56 987.32 996.13 C 969.67 994.7 953.27 990.78 937.55 987.98 Z" fill="#277da122" stroke="#277da1" stroke-width="1.5"/>
<text x="966.67" y="970.06" fill="#111" font-size="16" font-family="Arial">C10</text>
<path d="M 998.18 890.47 C 1002.17 891.16 1005.1 893.83 1006.97 898.56 C 1006.52 899.73 1006.16 900.42 1006.16 901.74 C 1006.29 912.82 1005.5 923.78 1003.14 934.52 C 1002.06 939.41 1000.66 944.24 998.86 949.03 C 998.34 950.45 997.88 951.88 997.48 953.32 L 996.37 953.32 C 988.2 953.88 980.78 951.52 973.23 948.53 C 962.63 944.36 952.02 939.69 940.23 939.69 L 938.92 939.69 C 938.9 939.07 938.94 938.45 938.99 937.83 C 939.7 928.62 938.96 919.17 941.4 910.27 C 942.4 906.65 943.92 903.12 946.28 899.74 C 947.91 897.38 948.66 893.89 949.9 891.28 C 951.84 887.3 951.21 882.19 955.27 879.27 C 961.82 878.83 968.49 876.84 974.79 878.59 C 977.85 884.31 974.41 890.78 978.53 895.45 L 993.81 895.45 C 996.06 894.39 995.5 891.03 998.18 890.47 Z" fill="#ff006e22" stroke="#ff006e" stroke-width="1.5"/>
<text x="973.5" y="917.17" fill="#111" font-size="16" font-family="Arial">C11</text>
<path d="M 1042.64 942.23 C 1029.61 939.97 1016.64 937.8 1003.85 934.65 C 1005.5 923.78 1006.29 912.82 1006.16 901.74 C 1006.16 900.42 1006.52 899.73 1007.19 899.02 C 1009.65 899.25 1010.59 901.92 1013.77 901.74 C 1017.01 900.18 1021.13 899.43 1025.25 897.88 C 1029.24 898.69 1028.3 903.66 1031.3 905.47 C 1042.34 900.99 1053.25 908.95 1063.61 904.72 C 1065.85 909.08 1061.42 909.7 1061.92 913.06 C 1063.36 915.8 1062.36 918.85 1059.74 921.15 C 1061.98 927.56 1065.16 930.42 1069.28 929.68 C 1070.03 930.86 1071.34 931.36 1072.34 932.23 C 1073.15 932.91 1074.33 933.04 1074.83 934.09 C 1072.21 937.95 1072.84 943.43 1068.59 946.48 L 1067.76 946.96 C 1059.36 945.16 1050.99 943.68 1042.64 942.23 Z" fill="#8338ec22" stroke="#8338ec" stroke-width="1.5"/>
<text x="1036.55" y="922.94" fill="#111" font-size="16" font-family="Arial">C12</text>
<path d="M 1085.55 956.74 C 1082.97 960.38 1082.11 964.56 1081.94 968.44 C 1081.38 980.83 1079.01 992.77 1075.52 1004.54 C 1075.33 1005.16 1075.39 1005.97 1076.14 1006.4 C 1070.37 1008.42 1064.26 1008.41 1057.99 1004.47 C 1052.69 1001.11 1046.08 1002.23 1040.03 1002.67 C 1038.59 1002.79 1037.78 1002.79 1036.91 1001.86 L 1036.16 1002.42 C 1037.84 992.96 1038.03 983.94 1038.72 975.04 C 1039.53 964.21 1040.96 953.45 1042.52 942.68 C 1050.99 943.68 1059.36 945.16 1067.73 946.95 C 1069.28 952.08 1072.46 954.51 1078.08 954.13 C 1080.01 954.01 1083.06 954.88 1084.94 956.31 Z" fill="#3a86ff22" stroke="#3a86ff" stroke-width="1.5"/>
<text x="1059.46" y="975.86" fill="#111" font-size="16" font-family="Arial">C13</text>
<path d="M 1010.71 1006.15 C 1005.42 1007.01 1000.24 1007.19 996.14 1003.45 C 998.36 995.01 996.74 986.74 995.93 978.9 C 995.05 970.24 995.2 961.92 997.34 953.85 C 997.88 951.88 998.34 950.45 998.86 949.03 C 1000.66 944.24 1002.06 939.41 1003.14 934.52 C 1016.64 937.8 1029.61 939.97 1042.64 942.23 C 1040.96 953.45 1039.53 964.21 1038.72 975.04 C 1038.03 983.94 1037.84 992.96 1036.16 1002.36 C 1027.05 999.12 1019.26 1004.72 1010.71 1006.15 Z" fill="#fb560722" stroke="#fb5607" stroke-width="1.5"/>
<text x="1017.49" y="970.91" fill="#111" font-size="16" font-family="Arial">C14</text>
<path d="M 1127.91 990.22 C 1127.64 995.99 1127.61 1001.72 1128.77 1007.29 L 1125.16 1007.77 L 1122.17 1008.83 L 1120.42 1007.77 L 1115.5 1007.46 L 1103.77 1007.46 C 1100.9 1006.53 1102.65 1003.17 1099.47 1001.24 C 1093.79 1001.05 1087.49 1002.05 1081.13 1004.85 C 1079.58 1005.52 1078.03 1006.11 1076.48 1006.59 C 1075.39 1005.97 1075.33 1005.16 1075.52 1004.54 C 1079.01 992.77 1081.38 980.83 1081.94 968.44 C 1082.11 964.56 1082.97 960.38 1085.55 956.74 C 1085.86 956.29 1086.19 955.86 1086.56 955.44 C 1093.98 962.1 1101.59 962.41 1109.88 957.93 C 1114 955.75 1118.62 956 1123.61 957.68 C 1123.29 968.01 1123.86 978.15 1127.91 987.74 C 1128.16 988.48 1127.91 989.42 1127.91 990.22 Z" fill="#ffbe0b22" stroke="#ffbe0b" stroke-width="1.5"/>
<text x="1103.79" y="983.25" fill="#111" font-size="16" font-family="Arial">C15</text>
<path d="M 1147.75 912.38 C 1148.62 913.06 1148.31 915.99 1145.38 915.37 C 1145.5 915.18 1142.38 914.56 1141.94 917.05 C 1138.95 917.11 1136.64 916.98 1133.65 918.04 C 1133.34 920.66 1135.27 922.9 1133.65 925.14 C 1127.91 925.76 1122.36 923.7 1117.43 923.95 C 1113.88 927.06 1114.25 930.67 1114.25 934.03 C 1099.28 933.1 1086.43 925.07 1071.65 926.5 C 1070.65 923.27 1067.47 921.71 1068.22 917.36 C 1074.33 917.54 1073.52 911.32 1075.89 907.77 C 1084.87 907.77 1093.61 908.02 1102.34 907.77 C 1112.75 907.46 1123.17 908.83 1133.59 906.22 C 1138.95 904.91 1143.57 909.14 1147.75 912.38 Z" fill="#8ac92622" stroke="#8ac926" stroke-width="1.5"/>
<text x="1105.99" y="917.81" fill="#111" font-size="16" font-family="Arial">C16</text>
<path d="M 1123.61 957.49 C 1124.04 956.87 1125.04 956.25 1125.42 956.44 C 1132.4 958.99 1138.51 957.74 1143.32 951.58 C 1145.81 953.26 1145.87 955.94 1147.25 957.74 L 1161.22 957.74 C 1162.9 960.92 1165.46 963.59 1168.14 966.14 C 1167.08 968.14 1164.77 967.89 1163.96 969.94 C 1165.46 973.05 1167.02 976.47 1169.51 979.83 C 1165.08 983.75 1163.09 988.61 1164.08 994.52 C 1164.33 995.89 1163.77 997.01 1162.96 998.32 C 1159.22 1004.1 1160.34 1009.02 1166.02 1013.19 C 1169.64 1015.86 1174.56 1017.42 1174.75 1023.77 C 1170.82 1028.99 1164.96 1023.77 1160.03 1026.07 C 1161.78 1022.89 1161.9 1019.97 1161.53 1016.92 C 1159.22 1015.61 1156.66 1014.74 1155.17 1014.18 C 1151.8 1013.25 1153.92 1016.98 1151.61 1016.36 C 1148.74 1017.17 1149.18 1012.81 1146.31 1013.75 C 1141.76 1016.48 1137.2 1017.79 1132.65 1017.6 C 1130.72 1014.26 1129.51 1010.81 1128.77 1007.3 C 1127.61 1001.72 1127.64 995.99 1127.91 990.22 C 1127.91 989.42 1128.16 988.48 1127.91 987.74 C 1123.86 978.15 1123.29 968.01 1123.61 957.68 Z" fill="#1982c422" stroke="#1982c4" stroke-width="1.5"/>
<text x="1146.41" y="986.97" fill="#111" font-size="16" font-family="Arial">C17</text>
</svg>