<?xml version="1.0" encoding="UTF-8"?>
<svg id="b" data-name="Layer 2" xmlns="http://www.w3.org/2000/svg" viewBox="0 0 856.89 299.73">
  <defs>
    <style>
      .d {
        fill: none;
        stroke: #000;
        stroke-linecap: round;
        stroke-linejoin: round;
        stroke-width: 2px;
      }
    </style>
  </defs>
  <g id="c" data-name="Layer 1">
    <g>
      <path class="d" d="M808.85,120.92c4.68,1.01,5.17-3.69,3.81-4.75-6.66-5.21-14.08-12.04-22.72-9.88-16.71,4.17-33.41,2.02-50.09,2.54-13.99.44-28,.09-42.42.09-3.83,5.73-2.53,15.7-12.3,15.43-1.21,7.04,3.91,9.49,5.48,14.65,23.66-2.32,44.34,10.55,68.28,12.12-.1-5.45-.6-11.17,5.12-16.23,7.91-.42,16.79,2.92,25.97,1.91,2.59-3.55-.46-7.22-.08-11.36,4.77-1.66,8.48-1.5,13.27-1.56.66-3.96,5.68-2.96,5.68-2.96Z"/>
      <path class="d" d="M774.85,187.92c.67-1,1.31-1.27,2-1.01,11.22,4.14,20.96,2.09,28.67-7.84,4.03,2.71,4.14,6.97,6.33,9.85h22.44c2.7,5.08,6.8,9.41,11.07,13.46-1.65,3.24-5.39,2.82-6.69,6.06,2.42,5.03,4.86,10.47,8.89,15.94-7.08,6.31-10.32,14.09-8.74,23.55.37,2.23-.46,4-1.82,6.09-6.02,9.27-4.22,17.18,4.86,23.9,5.84,4.32,13.74,6.81,14.04,16.95-6.31,8.41-15.69-.07-23.57,3.67,2.78-5.06,2.96-9.79,2.44-14.66-3.69-2.14-7.83-3.46-10.16-4.44-5.44-1.54-2.05,4.52-5.71,3.48-4.56,1.32-3.87-5.71-8.53-4.19q-11.02,6.6-21.88,6.22c-7.95-13.89-8.32-28.87-7.63-44.02.06-1.33.42-2.84-.05-3.97-6.47-15.39-7.36-31.68-6.9-48.32-8.03-2.68-15.43-3.11-21.95.44-13.32,7.24-25.47,6.74-37.36-4-5.43,6.29-7.11,13.94-7.41,20.86-.86,19.87-4.69,39.05-10.28,58-.31,1.05-.25,2.28.97,2.99"/>
      <path class="d" d="M586.85,93.92q-4.55-11.33-14.13-13.02c-4.28.87-3.4,6.35-6.95,8.02-7.92,0-15.92,0-24.48,0-6.62-7.47-1.13-17.87-6.02-27.09-10.09-2.77-20.76.36-31.31,1.08-6.51,4.73-5.51,12.94-8.6,19.26-2.04,4.18-3.17,9.85-5.77,13.57-13.15,18.82-10.11,40.42-11.67,61.19-1.99,26.62.28,53.42-2.81,79.97-3.98,2.14-8.34,1.69-12.22,3.19-11.19-6.44-20.16-15.87-31.97-21.32-10.88-5.01-22.73-7.52-33.22-13.6-2.2-1.27-3.85-2.93-5.85-4.26"/>
      <path class="d" d="M411.85,106.92c-3.42,25.7-1.77,52.11-10.95,77.02-2.52,6.83-2.82,16.31-12.06,16.69-17.3.71-34.6,3.75-50.19,2.05-8.81-6.76-3.6-13.25-1.56-18.67,6.39-16.94,12.38-33.77,14-52.07.86-9.7,2.58-19.71,8.93-28.38,13.7,2.86,25.86-4.16,39.68-7.06,1.44,4.23,5.89,5.52,9.29,7.11,10.9,5.08,22.37,11.67,34.76,7.05,12.27-4.57,23.53-2.76,35.09,1.25l2.88.8"/>
      <path class="d" d="M244.01,196.34l-3.18-1.43h-3.98c-9.61-.03-12.18-9.1-18.02-13.96-9.66-.41-19.34-.86-26.96-8.06-2.68-2.53-5.35-2.39-9.03-2.27-16.76.54-33.21,4.4-50.93,4.35-3.06-1.44-4.28-6.8-9.06-7.06-10.38-.57-10.58-7.25-9.66-14.79,10.43-5.23,12.72-14.62,14.81-24.04-2.13-2.27-4.69-3.96-5.01-6.13,7.22-34.15,17.94-66.35,25.39-98.23,5.55-3.16,10.39-.55,14-2.29-.48-7.26-.1-14.27-4.78-20.63,9.8-2.23,17.24.48,23.15,5.02,3.4.31,5.1-1.4,7.12-1.84,12.63-2.77,17.43-.79,23.9,10.98,5.78,10.52,16.34,13.51,26.08,17.96"/>
      <path class="d" d="M643.85,164.92c-2.46,17.28-4.77,34.57-6.09,51.99-1.08,14.35-1.36,28.79-4.07,43.93-14.65-5.29-27.16,3.8-40.84,6.06-9.14,1.51-18.11,1.68-24.95-6.02-4.35-4.89-10.14-7.84-12.51-10.13-28.32-2.37-54.6-8.61-79.81-13.14"/>
      <path class="d" d="M569.85,181.92c-13.1.86-25-2.98-37.09-7.76-17-6.71-34.01-14.23-52.91-14.24"/>
      <path class="d" d="M290.81,135.09c-8.35,9.54-8.03,25.36-16.78,34.99-5.21,5.74-8.33,12.94-17.12,15.09-5.6,1.37-8.03,7.77-12.9,11.17,16.67,11.98,37.87,7.57,52.07,18.94,11.54-1.37,3.55-15.69,14.59-16.43,5.43,1.96,15.22,4.33,23.02-.71"/>
      <path class="d" d="M581.85,151.92c33.68,8.28,68.18,12.42,102.62,19.8,2.26,8.16,7.37,12.14,16.4,11.47,3.06-.23,8.04,1.17,10.96,3.53"/>
      <path class="d" d="M634.85,259.92c1.44,1.46,2.66,1.49,5.02,1.33,9.7-.66,20.28-2.45,28.82,2.91,12.7,7.96,24.97,5.88,37.07.56,10.15-4.46,20.28-6.07,29.4-5.82,5.07,3.06,2.31,8.52,6.92,10.02h18.77l7.88.52,2.76,1.72,4.82-1.66,6.04-.75"/>
      <path class="d" d="M569.85,261.92c3.33-13,.67-26.26-.63-38.94-1.71-16.73-1.05-32.55,4.72-48.03,9.18-24.59,12-50.08,11.71-76.03-.03-2.54.76-3.64,2.28-5.02,3.3.99,4.85,5.26,9.92,5,5.18-2.46,11.75-3.69,18.36-6.16,6.38,1.33,4.94,9.3,9.72,12.17,17.72-7.2,35.15,5.59,51.81-1.15,3.57,7.01-3.54,8.03-2.7,13.44,2.33,4.42.65,9.28-3.46,12.98q5.37,15.47,15.32,13.72c1.2,1.85,3.27,2.68,4.9,4.05,1.29,1.08,3.2,1.29,3.99,3.03-4.18,6.16-3.15,15.01-9.96,19.94"/>
      <path class="d" d="M213.85,106.92c-7.97,17.83-15.42,35.86-30.81,49.22-3.54,3.07-4.9,8.81-6.19,13.78"/>
      <path class="d" d="M263.85,123.92c15.8-15.65,26.91-35,41.06-51.95,1.94-2.32,3.89-4.88,7.67-6.58,4.39,8.44,4.93,17.76,7.2,26.7,12.41,3.83,27.35,3.86,38.07,12.83"/>
      <path class="d" d="M193.85,93.92c13.12-24.14,27.57-47.21,50.08-63.17,7.23,1.31,5.76,7.42,8.17,11,2.66,3.96,8.27,3.9,12.76,5.16h12c5.26,1.26,9.79-2.87,15.46-1.91,3.06,8.2,9.72,13.16,17.54,16.91l2.73,3.47"/>
      <path class="d" d="M136.85,76.92c18.31,6.84,38.66,8.01,55.8,17.36,18.01,9.83,37.02,17.31,55.22,26.59.79.4,1.97.05,2.97.05l8,4c5.6-.41,11.36.96,15.87,3.26,22.88,11.66,48.27,15.32,72.13,23.74"/>
      <path class="d" d="M121.85,123.92c-8.33,6.07-16.67,3.9-25,0l-1-2c-9.42-6.69-18.81-13.44-31.7-16.61-1.96.52-1.99,4.54-4.3,6.61l-1,2c-6.29-1.92-12.11-.66-18.04,1.9-5.36,2.31-10.84,2.51-14.53-2.73-8.79,3.54-16.43-1.4-25.1-.97-1.64-13.53,9.05-16.97,14.87-23.9,5.94,5.22,6.93,14.18,16.49,15.08-.23-9.57,7.73-13.88,11.73-18.81,1.73-7.21,1.76-13.05,3.59-18.57,5.69.11,9.3-.84,11.51-7.84,1.93-6.1,4.09-11.9,3.38-18.15-1.11-9.74,2.63-15.67,12.44-17.59-2.05-7.47,3.06-7.7,7.48-8.4,3.66,1.4,3.42,7.05,7.81,7.07,1.74-.3,3.43.6,4.37-1.09,3.25-5.78,7.02-4.92,13.13-3.54,7.48,1.69,15.69,2.76,23.94.82,5.73-1.35,12.51-1.36,15.94,5.73"/>
    </g>
  </g>
</svg>