<?xml version="1.0" encoding="UTF-8"?>
<svg id="b" data-name="Layer 2" xmlns="http://www.w3.org/2000/svg" viewBox="0 0 1152.49 318.35">
  <defs>
    <style>
      .d {
        fill: none;
        stroke: #000;
        stroke-linecap: round;
        stroke-linejoin: round;
        stroke-width: 2px;
      }
    </style>
  </defs>
  <g id="c" data-name="Layer 1">
    <g>
      <path class="d" d="M559.26,243.3c-4.44-1.42-6.3-4.71-8.18-8.92-6.28-14.14-9-15.38-24.82-14.08-2.28.19-4.4-.13-6.74-2.86-1.23-4.65.7-10.62-.72-16-6.28-4.94-10.67.3-16.31,2.11-4.93-5.22-10.79-10.03-15.5-16.62-5.61,2.7-8.83,7.91-12.6,12.44-12.79-6.73-12.87-7.1-29.08-3.83-4.32.87-7.84.93-12.09-.09-15.92-3.85-26.76,6.13-39.5,14.91,8.04,10.52,16.68,18.88,28.52,24.98,7.76.79,17.88-7.31,25.1,4.09,5.62-.6,10.15-4.84,16.86-5.18,2.56.8,5.06,3.37,8.04,4.96,1.81,13.39,8.57,19.59,24.33,22.14,4.67,14.12,13.53,22.97,29.67,20.81,3.71-.5,5.34,2.39,7.87,3.49,3.34,1.44,6.01,4.35,10.34,3.54,2.46-2.45-.84-6.33,1.72-8.88,9.94-1.67,19.2-2.25,23.62-14.82,3.52-10.03-1.01-14.57-6.53-20.19l-4-2Z"/>
      <path class="d" d="M1105.26,23.3c-4.66,5.28-7.1,14.78-11.95,23.73-8.23-7.47-18.12-10.07-29.03-10.99-14.59-1.23-20.51,10.73-30.18,17.67,2.49-16.22,8.23-30.49,19.11-42.68,9.6,2.51,19.16,4.78,29.35,1.92,2.3-2.62,3.09-6.68,5.82-9.79,5.73,1.03,11.28-.6,16.96-2.16,4.15,2.73,7.03,6.52,9.93,10.39,4.38-.55,7.61.37,10.21,4.77,1.8,3.04,2.33,7.1,5.77,9.14,0,0-10.76,3.99-13.24.95-4.39-5.38-10.39-5.64-12.76-2.95Z"/>
      <path class="d" d="M183.26,142.3c5.18-4.46,13.09-.73,18.61-6.42-8.92-4.76-8.26-11.56-3.55-18.54,7.26-10.75,10.05-23.33,14.61-35.9-5.12-13.44-21.74-9.52-30.2-17.68-16.1,1.18-23.8,13.72-33.47,22.48,0,9.39.05,17.73-.01,26.06-.07,9.52-5.27,12.98-15.03,11.23-2.88-.52-5.84-1.93-9.14-1.7-1.49,1.87-1.2,4.14-.64,5.4.74,1.67.75,3.58,2.08,5.07,12.2,7.33,26.91,1.84,38.11,6.91,6.45.56,6.83-6.36,11.92-5.92,5.73-.33,3.78,5.3,5.71,8.02l1,1Z"/>
      <path class="d" d="M907.26,95.3c-2.14-2.21-5.16-3.68-6.21-7.73,8.1-7.12,6.35-16.75,5.93-26.67-9.83,1.85-9.12,11.29-13.72,16.4-3.17.54-1.69-4.73-6.85-3.55-6.16,3.34-7.53,11.34-10.16,18.47,3.37,2.91,6.02-.56,8.6-1.13,2.7,1.56,3,3.91,1.86,6.99,5.17.16,8.92.35,12.55,1.21l8-4Z"/>
      <path class="d" d="M319.26,97.3c2.52,5.61,8.19,6.69,13,9-.98,3.09-1.73,6.33-6.8,8.2-3.01.26-3.39-6.66-9.4-6.14-5.1,2.31-8.13,8.77-14.25,12.54-5.82-6.41-12.78-11.21-12.95-21.6-.09-5.44-6.51-6.21-11.37-6.01-3.91-.99-.24-6.18-5.96-6.72-1.27.3-4.27,1.76-7.38-.43-3.55,1.64-5.37,5.49-8.23,7.35-20.46-6.06-23.23-5-34.46,12.5,1.72,9.22,3.61,18.11,3.93,27.3.1,2.86-1.2,3.9-3.13,5l-2,2c1.6,5.04,4.39,9.47,6.94,15h15.44c2.09,6.97,8.47,6.19,15.37,5.93,6.55-5.68,12.92-12.31,16.32-17.49,13.31-9.37,29.3,2.65,38.93-11.44,17.88-.1,25.41-13.74,33.9-26.34.82,2.23,3.38.45,4.34,3.09-.12,7.86-14.06,10.72-9.4,20.93,11.16,6.45,18.75-9.56,29.06-4.51,10.2,5,20.19-2.57,32.01,1-8.73,8.35-17.85,2.97-25.5,5.15-4.66-7.93-1-11.5,4.98-14.69,5.22,3.84,9.72,2.05,13.71-4.35,5.22,9.7,12.69,7.02,19.86,5.8,1.06-3.76,3.6-7.42.68-10.42-5.06-2.41-8.42,2.06-12.66,1.33-3.17-3.03-5.35-6.59-5.89-9.38-.37-6.02,5.22-3.38,5.92-6.64-3.91-3.32-6.57-7.57-9.42-12.29,1.03-2.43,4.82-3.36,4.28-7.7h-18.58c-13.33,4.66-4.84,20.49-16.16,29.22.34-12.17,2.3-22.46-.27-32.05-5.78-1.82-10.71-3.25-16.1-.97-4.33,3.58-5.8,9.59-9.62,13.82-11.34-1.78-12.6-4.16-9.9-20.53-6.25,2.01-10.94-.76-15.25-4.49-7.31,1.77-13.23,9.65-21.96,4.2-3.96,3.03-5.82,6.68-7.18,11.47,6.77,1.75,12.65,4.81,12.12,13.29,3.21,3.89,8.9,5.01,11.02,10.04h12Z"/>
      <path class="d" d="M77.26,53.3c-1.08,20.75-15.33,37.11-19.5,58.6-9.33-4-20.95-1.84-27.5-12.6l-11-1c-.74,1.86-3.27.13-4.15,2.48-6.96-11.89-9.59-24.99-14.11-38.63,8.51-4.59,18.06-3.27,27.68-5.18,2.11,16.94,16.73,6.16,23.37,12.89,5.34-7.43,11.83-12.94,17.52-18.91,26.22.64,41.72,19.75,60.83,32.09-2.31,4.04-1.77,8.96-5.14,12.25l-7,3c-1.57,5.75-6.88,3.03-10.07,3.68-12.15,2.49-16.37,13.94-24.79,19.66-1.08,5.11,4,6.21,4.79,9.38-1.51,4.89-4.92,7.85-9.89,10.28-5.39,0-11.74,0-18.14,0,.11-10.98,14.12-6.97,15.32-16.67-3.55-5.59-13.07-8-17.73-12.73"/>
      <path class="d" d="M945.26,140.3c.79-4.31-2.02-9.41,2.06-12.93,4.94-4.26,3.8-9.75,3.94-15.07,7.27-6.14,16.31-5.76,24.99-7.09,11.69-1.8,23.83-1.1,35.01-5.91l6-4c9,0,18,.02,27,0,5.19-.02,10.75,1.06,14.95-3.04,4.57-4.47,9.22-2.95,14.05-.95l4,2c5.29,3.68,9.74,1.19,13.98-2.02,3.85-2.91,7-6.18,11.85-8.35,14.62-6.51,28.72-4.95,43.09-.82,1.56,3.29,4.75,5.44,5.3,9.66-3.95,5.06-8.84,9.67-13.41,14.35-11.85,12.14-25.98,20.36-43.82,19.1-6.11-.43-11.2,1.89-12.76,7.15-3.52,11.85-12.3,13.04-22.24,12.92-6.2-.08-11.92-.13-17.16,4.84-6.51,6.17-15.15,8.92-23.82,11.25-6.07,1.63-12.2,3.45-17.02,7.92l-15-1"/>
      <path class="d" d="M460.26,92.3c-6.08,10.54-5.59,20.87.29,31.44,7.05-3.11,4.36-8.03,3.67-12.35,2.3-4.93,9.81-6.15,8.91-14.24-3.23-2.7-8.72-3.72-11.87-7.85l-1,3Z"/>
      <path class="d" d="M767.26,317.3c3.14.51,1.88-3.27,4.84-4.41,11.44-4.4,23.15-9.46,24.98-24.76-.02-.02-.18-1.98-2.12-2.91-7.52,4.26-9.9,13.89-17.25,18.06-6.19.13-12.03-.68-17.46,2.01-3.07,3.49,1.73,8.94-3,12h10Z"/>
      <path class="d" d="M796.26,276.3c8.13-1.92,2.08-12.35,9.64-14.59-3.13-2.96-6.42-3.08-9.58-3.54-2.02,4.27-.12,9.36-3.89,13.29-1.63,1.7,1.67,3.27,2.83,4.84"/>
      <path class="d" d="M279.26,60.3c-2.96,2.54-6.97-.18-9.44,1.15-3.89,5.93.27,7.67,2.57,8.5,2.63,4.35-4.49,7.35,1.34,10.62,8.37-3.22,3.62-13.69,9.42-18.41.17-.14-1.76-.91-2.89-.86l-1-1Z"/>
      <path class="d" d="M482.26,103.3c2.41,2.91,1.08,6.69,2.59,10.18,2.72,6.24-2,10.75-9.56,10.82-.68-4.67,1.5-9.74-2.29-14.22,2.15-3.21,4.99-5.71,8.26-7.77l1,1Z"/>
      <path class="d" d="M405.26,58.3c3.24,2.68,2.08,5.84,1.28,9.34-3.5.72-6.65,2.33-7.39-3.33-.57-4.36,2-5.21,5.1-6.01"/>
      <path class="d" d="M719.26,107.3c-5.48-.51-10.67,1.3-16.79,2.5-3.2-4.51-8.47-7.24-11.21-12.5l-6-2c-1.9-1.79-3.49-3.94-5.93-4.96-10.59,10.13-22.8,1.29-35.21,3.28-2.63,1.03-2.07,5.61-5.12,7.88-4.35-1.71-10.79,3.15-13.74-4.2l-6-2c-15.63-9.35-32.88-15.71-49.19-26.47-12.1,7.47-26.49,6.26-40.81,6.67-9.25.26-14.95,7.72-21.03,13.83-2.7.11-5.09-2.43-7.98-.75-2.54,1.38.98,5.65-2.99,6.71l-4,2c-1.21,2.41-2.4,4.82-3.89,7.77,3.45,4.91,1.34,11.22,1.98,17.38,2.01,2.35,6.04-.85,7.95,2.83,5.21,10.02,12.12,6.41,18.92,1.98,1.29-.84,2.09-2.51,4.03-2.25,9.14,3.9,18.51,13.5,25.92-1.06,6.66,2.1,12.48.6,18.05,1.49,6.79,1.08,10.91,6.05,13.02,11.83,6.85.29,1.43-5.9,6.56-6.29,9.41,12.84,24.64,7.43,38.57,8.35,2.55-3.69-.8-8.36,2.39-12.97,4.24,7.94,11.48,6.78,18.48,7.08,3.72.16,8.55-2.58,11.01,2.87l2,2c6.79-1.71,3.78-10.2,8.53-12.58,8.8,2.04,17.1,4.38,23.16-4.42,8.31,0,17.48,2.51,24.06-.54,12.4-5.75,24.52-5.77,37.25-4.46l1-2c1.84-4.84,4.78-9.42,2.11-15.05-.9-1.91.55-3.62,2.89-3.95l4,2v8.08c8.68,2.69,11.24-2.86,14-8.08l6-2c6.41-3.89,13.06-7.38,19.38-13.07,1.37,2.78,4.08,3.05,5.25,4.58-3.05,7.95-10.62,11.51-16.48,17.32,6.96,1.91,14.91-.29,17.12,7.34,5.36-.64,10.96,1.29,14.77-3.22.01-7.43-2.07-15.84,8.93-18.12,1.43-.3,2.67-2.4,3.21-4.79,2.21-9.83,9.6-14.14,19.89-15.3-4.22-2.92-4.87-7.6-9.19-8.78-1.95.07-2.88,1.84-3.81,3.1-6.02,8.07-13.36,12.13-23,6.83-4.52-2.48-6.58,2.22-10.94,2.29-4.19-8.97-12.72-5.61-19.33-5.59-11.96,1.99-9.63,14.83-15.96,20.6-10.43-10.34,4.01-17.85,2.01-27.37-3.29-1.97-6.41-4.66-8.74-7.88-2.17-3-4.35-5.38-7.94-6.09-11.34,11.53-12.09,18.22-3.22,27.13-2.42,4.36-5.58,7.73-10.96,8.04l-2,2c-2.37,5.17-7.36,7.09-12.04,8.89-6.77,2.58-9.15,7.39-8.96,14.11"/>
      <path class="d" d="M1027.26,57.3c-2.53,5.42-1.16,12.75-5.67,12.75q-3.65-8.23,5.67-12.75"/>
      <path class="d" d="M986.26,168.3c.5,1.92-2.51,2.08-1.99,4-1.01,0-2.01,0-3.01,0l-1,2c-12.25,2.03-19.04,12.2-27.82,19.23-3.68,2.95-9.34,5.4-9.18,11.77l-2,4c-3.45,5.94-11.23,6.26-15.12,11.91-2.86,4.15-7.14,7.01-7.1,13.09.03,3.9-4.23,6.15-6.75,9.02-4.8,5.45-12.47,9.01-11.11,18.43-12.47,3.63-24.17,2.77-36.24.92-2.43,3.8-6.89,6.63-9.53,10.71-6.98,10.78-17.71,10.72-28.1,9.61-6.64-.71-13.15-3.43-20.11-2.49.97-14.96,13.96-19.3,21.27-27.41-.88-4.11-2.84-6.15-6.19-6.79l-2,2c-1.76,1.76-3.99.71-7.91,1.49,5.46-9.31,5.13-17.97.72-26.8,10.3-6.34,5.38-19.97,13.18-27.69,4.35-.05,8.72.07,13.48-.07,4.79-10.57,14.84-15.65,21.52-23.93l6-2c3.45-.11,7.04.68,10.01-1.99,7.54-6.8,16.76-6.45,26.53-5.86,8.38-9.97,22.12-10.98,32.41-18.22,4.92-3.46,10.17-2.51,13.89.26,11.01,8.2,25.14,11.7,34.15,22.8l2,2Z"/>
      <path class="d" d="M946.26,59.3c-4.38,2.67-8.03,6.54-14.21,2.31-2.73-1.86-7.79-.31-12.38-.31-3.15,7.63-5.66,15.85-10.94,22.71,12.32,7.97,25.82-5.37,37.78,3.14,4.96-3.13,11.23-2.87,16.79-3.44,8.5-.87,11.41-5.87,11.7-12.41.31-7.06-4.84-10.17-11.72-11.1-5.35-.72-10.66-.83-16.02-.88"/>
    </g>
  </g>
</svg>