<?xml version="1.0" encoding="UTF-8"?>
<svg id="b" xmlns="http://www.w3.org/2000/svg" version="1.1" viewBox="0 0 856.9 299.7">
  <!-- Generator: Adobe Illustrator 30.1.0, SVG Export Plug-In . SVG Version: 2.1.1 Build 136)  -->
  <defs>
    <style>
      .st0 {
        fill: none;
        stroke: #000;
        stroke-linecap: round;
        stroke-linejoin: round;
        stroke-width: 2px;
      }
    </style>
  </defs>
  <g id="c">
    <g>
      <path class="st0" d="M808.8,120.9c4.7,1,5.2-3.7,3.8-4.8-6.7-5.2-14.1-12-22.7-9.9-16.7,4.2-33.4,2-50.1,2.5-14,.4-28,0-42.4,0-3.8,5.7-2.5,15.7-12.3,15.4-1.2,7,3.9,9.5,5.5,14.7,23.7-2.3,44.3,10.6,68.3,12.1,0-5.4-.6-11.2,5.1-16.2,7.9-.4,16.8,2.9,26,1.9,2.6-3.6-.5-7.2,0-11.4,4.8-1.7,8.5-1.5,13.3-1.6.7-4,5.7-3,5.7-3Z"/>
      <path class="st0" d="M773.9,188.6c.7-1,2.3-2,2.9-1.7,11.2,4.1,21,2.1,28.7-7.8,4,2.7,4.1,7,6.3,9.9h22.4c2.7,5.1,6.8,9.4,11.1,13.5-1.7,3.2-5.4,2.8-6.7,6.1,2.4,5,4.9,10.5,8.9,15.9-7.1,6.3-10.3,14.1-8.7,23.6.4,2.2-.5,4-1.8,6.1-6,9.3-4.2,17.2,4.9,23.9,5.8,4.3,13.7,6.8,14,17-6.3,8.4-15.7,0-23.6,3.7,2.8-5.1,3-9.8,2.4-14.7-3.7-2.1-7.8-3.5-10.2-4.4-5.4-1.5-2,4.5-5.7,3.5-4.6,1.3-3.9-5.7-8.5-4.2-7.3,4.4-14.6,6.5-21.9,6.2-8-13.9-8.3-28.9-7.6-44,0-1.3.4-2.8,0-4-6.5-15.4-7.4-31.7-6.9-48.3-8-2.7-15.4-3.1-22,.4-13.3,7.2-25.5,6.7-37.4-4-5.4,6.3-7.1,13.9-7.4,20.9-.9,19.9-4.7,39.1-10.3,58-.3,1-.2,2.3,1,3l.6.5"/>
      <path class="st0" d="M587.2,94.6l-.3-.7c-3-7.6-7.7-11.9-14.1-13-4.3.9-3.4,6.3-7,8h-24.5c-6.6-7.5-1.1-17.9-6-27.1-10.1-2.8-20.8.4-31.3,1.1-6.5,4.7-5.5,12.9-8.6,19.3-2,4.2-3.2,9.8-5.8,13.6-13.1,18.8-10.1,40.4-11.7,61.2-2,26.6.3,53.4-2.8,80-4,2.1-8.3,1.7-12.2,3.2-11.2-6.4-20.2-15.9-32-21.3-10.9-5-22.7-7.5-33.2-13.6-2.2-1.3-3.9-2.9-5.9-4.3l-.4-.7"/>
      <path class="st0" d="M411.9,105.4c-3.4,25.7-1.9,53.7-11,78.6-2.5,6.8-2.8,16.3-12.1,16.7-17.3.7-34.6,3.8-50.2,2.1-8.8-6.8-3.6-13.2-1.6-18.7,6.4-16.9,12.4-33.8,14-52.1.9-9.7,2.6-19.7,8.9-28.4,13.7,2.9,25.9-4.2,39.7-7.1,1.4,4.2,5.9,5.5,9.3,7.1,1,.5,23.5,11.2,34.8,7.1,12.3-4.6,23.5-2.8,35.1,1.2l2.9.8"/>
      <path class="st0" d="M244,196.3l-3.2-1.4h-4c-9.6,0-12.2-9.1-18-14-9.7-.4-19.3-.9-27-8.1-2.7-2.5-5.4-2.4-9-2.3-16.8.5-33.2,4.4-50.9,4.4-3.1-1.4-4.3-6.8-9.1-7.1-10.4-.6-10.6-7.2-9.7-14.8,10.4-5.2,12.7-14.6,14.8-24-2.1-2.3-4.7-4-5-6.1,7.2-34.2,17.9-66.3,25.4-98.2,5.6-3.2,10.4-.5,14-2.3-.5-7.3-.1-14.3-4.8-20.6,9.8-2.2,17.2.5,23.1,5,3.4.3,5.1-1.4,7.1-1.8,12.6-2.8,17.4-.8,23.9,11,5.8,10.5,16.3,13.5,26.1,18l1.1.6"/>
      <path class="st0" d="M474.6,237.1l1,.5c25.2,4.5,51.5,10.8,79.8,13.1,2.4,2.3,8.2,5.2,12.5,10.1,6.8,7.7,15.8,7.5,25,6,13.7-2.3,26.2-11.3,40.8-6.1,2.7-15.1,3-29.6,4.1-43.9,1.3-17.4,3.6-34.7,6.1-52l.2-.8"/>
      <path class="st0" d="M571.7,181.9h-1.8c-13.1.9-25-2.9-37.1-7.7-17-6.7-34-14.2-52.9-14.2h-2.1"/>
      <path class="st0" d="M290.8,135.1c-8.4,9.5-8,25.4-16.8,35-5.2,5.7-8.3,12.9-17.1,15.1-5.6,1.4-8,7.8-12.9,11.2,16.7,12,37.9,7.6,52.1,18.9,11.5-1.4,3.5-15.7,14.6-16.4,5.4,2,15.2,4.3,23-.7l.8-.3"/>
      <path class="st0" d="M580.8,151.7l1.1.2c33.7,8.3,68.2,12.4,102.6,19.8,2.3,8.2,7.4,12.1,16.4,11.5,3.1-.2,8,1.2,11,3.5l1,.7"/>
      <path class="st0" d="M634,258.9l.8,1c1.4,1.5,2.7,1.5,5,1.3,9.7-.7,20.3-2.5,28.8,2.9,12.7,8,25,5.9,37.1.6,10.2-4.5,20.3-6.1,29.4-5.8,5.1,3.1,2.3,8.5,6.9,10h18.8l7.9.5,2.8,1.7,4.8-1.7,6-.8"/>
      <path class="st0" d="M569.5,262.5l.3-.6c3.3-13,.7-26.3-.6-38.9-1.7-16.7-1-32.6,4.7-48,9.2-24.6,12-50.1,11.7-76,0-2.5.8-3.6,2.3-5,3.3,1,4.8,5.3,9.9,5,5.2-2.5,11.8-3.7,18.4-6.2,6.4,1.3,4.9,9.3,9.7,12.2,17.7-7.2,35.2,5.6,51.8-1.2,3.6,7-3.5,8-2.7,13.4,2.3,4.4.7,9.3-3.5,13,3.6,10.3,8.7,14.9,15.3,13.7,1.2,1.9,3.3,2.7,4.9,4.1,1.3,1.1,3.2,1.3,4,3-4.2,6.2-3.2,15-10,19.9l-1.4.8"/>
      <path class="st0" d="M214.4,105.1l-.6,1.8c-8,17.8-15.4,35.9-30.8,49.2-3.5,3.1-4.9,8.8-6.2,13.8l-.4,1.1"/>
      <path class="st0" d="M263.2,124.9l.7-1c15.8-15.7,26.9-35,41.1-51.9,1.9-2.3,3.9-4.9,7.7-6.6,4.4,8.4,4.9,17.8,7.2,26.7,12.4,3.8,27.4,3.9,38.1,12.8l.8.6"/>
      <path class="st0" d="M193.4,94.7l.4-.8c13.1-24.1,27.6-47.2,50.1-63.2,7.2,1.3,5.8,7.4,8.2,11,2.7,4,8.3,3.9,12.8,5.2h12c5.3,1.3,9.8-2.9,15.5-1.9,3.1,8.2,9.7,13.2,17.5,16.9l2.7,3.5"/>
      <path class="st0" d="M134.7,76.2l2.2.7c18.3,6.8,38.7,8,55.8,17.4,18,9.8,37,17.3,55.2,26.6.8.4,2,0,3,0l8,4c5.6-.4,11.4,1,15.9,3.3,22.9,11.7,48.3,15.3,72.1,23.7l.8.2"/>
      <path class="st0" d="M123.2,123.8h-1.4c-8.3,6.2-16.7,4-25,0l-1-2c-9.4-6.7-18.8-13.4-31.7-16.6-2,.5-2,4.5-4.3,6.6l-1,2c-6.3-1.9-12.1-.7-18,1.9-5.4,2.3-10.8,2.5-14.5-2.7-8.8,3.5-16.4-1.4-25.1-1-1.6-13.5,9.1-17,14.9-23.9,5.9,5.2,6.9,14.2,16.5,15.1-.2-9.6,7.7-13.9,11.7-18.8,1.7-7.2,1.8-13.1,3.6-18.6,5.7.1,9.3-.8,11.5-7.8,1.9-6.1,4.1-11.9,3.4-18.1-1.1-9.7,2.6-15.7,12.4-17.6-2.1-7.5,3.1-7.7,7.5-8.4,3.7,1.4,3.4,7.1,7.8,7.1,1.7-.3,3.4.6,4.4-1.1,3.2-5.8,7-4.9,13.1-3.5,7.5,1.7,15.7,2.8,23.9.8,5.7-1.4,12.5-1.4,15.9,5.7l.5,1.8"/>
    </g>
  </g>
</svg>