<?xml version="1.0" encoding="UTF-8"?>
<svg id="b" data-name="Layer 2" xmlns="http://www.w3.org/2000/svg" viewBox="0 0 317.7 293.89">
  <defs>
    <style>
      .d {
        fill: #3c433b;
      }

      .e {
        fill: #b4b78c;
      }
    </style>
  </defs>
  <g id="c" data-name="Layer 1">
    <g>
      <path class="e" d="M314.23,132.4l-.08-.4c-3.96-19.48-9.56-36.43-17.12-51.81l-.69-1.56c-2.83-6.44-6.04-13.73-11.46-20.6-.97-1.24-1.99-2.66-3.07-4.15-3.26-4.51-6.96-9.63-12.14-14.23l-.75-.63c-4.17-3.36-9.13-6.43-13.12-8.9-.87-.54-1.72-1.06-2.51-1.56l-.53-.32c-4.55-2.68-8.93-3.89-12.13-4.77-.95-.26-1.85-.51-2.48-.73l-.6-.19c-1.55-.47-3.4-1.22-5.36-2.01-4.94-2-11.1-4.48-18.48-5.14l-.62-.06-1.33-.03h-.02c-.15,0-.3,0-.44,0-4.18-3.41-9.16-5.37-13.28-6.99l-.53-.2c-1.17-.42-2.68-.94-4.19-1.45-1.14-.39-2.28-.77-3.21-1.1-.26-.11-.52-.22-.78-.33-3.32-1.4-7.83-3.29-13.83-3.82-2.94-.33-5.75-.46-8.24-.58-2.05-.09-4-.18-5.59-.37l-.15-.02c-22.41-2.42-46.81,4.46-70.58,19.88-.84.52-1.84,1.08-2.89,1.68-2.24,1.27-4.79,2.7-7.53,4.66-1.95,1.4-3.45,2.88-4.54,4.06-1.05.47-2.3,1.1-3.65,1.93l-.71.46c-5.49,3.73-10.78,8.04-15.74,12.8l-.44.39c-3.75,3.28-7.63,6.66-11.35,10.63l-.24.26c-2.44,2.7-4.9,5.71-7.28,8.63-1.45,1.77-2.82,3.45-3.98,4.8l-.4.48c-3.19,3.96-6.01,8.29-8.74,12.47-1.23,1.88-2.39,3.66-3.47,5.24l-.58.85-.5.9c-.97,1.78-1.8,3.49-2.52,5-.77,1.6-1.49,3.1-2.07,4.01l-.74,1.15-.58,1.24c-2.09,4.51-4.12,8.79-6.04,12.7l-.51,1.04-.39,1.09c-2.08,5.89-4.67,13.2-5.74,21.2-1.54,10.61,2.96,20.34,12.07,26.08,4.87,3.07,10.04,4.3,13.46,5.12.59.14,1.16.27,1.67.42l1.13.28c9.37,2.05,19.01,3.08,28.77,3.08,3.05,0,6.12-.1,9.19-.3h.91c4.46-.07,9.52-.13,14.89-.92,3.66-.54,6.87-1.38,9.71-2.13,1.87-.49,3.63-.96,4.99-1.18l.75-.13c2.53-.43,5.39-.92,9.2-2.25,1.26-.42,2.94-1,4.61-1.57,1.23-.42,2.46-.84,3.49-1.19,1.83-.52,3.5-1.13,5.03-1.8l-.95,1.68c-6.54,11.51-6.32,24.75.56,35.37l5.54,8.6,1.19,1.29c1.64,1.77,3.67,3.39,6.03,4.66-1.8,2.19-3.46,4.76-4.75,7.79-4.38,10.39-2.73,32.04,9.72,40.99l.79.54c.17.11.34.2.52.31.31,2.47.84,4.96,1.63,7.45l.15.45c4.06,11.8,14.91,20.79,27.63,22.9l.99.16,1,.06c1.01.06,2.01.1,3,.1,12.2,0,22.87-4.86,30.27-13.87l.72-.88.62-.96c3.04-4.7,4.92-9.96,5.62-15.35.45-.23.86-.45,1.22-.64.08-.04.16-.09.24-.13,3.44-1.1,6.46-2.83,8.95-5.13l.54-.5.5-.54c3.87-4.14,5.68-8.56,6.77-11.21.13-.33.27-.66.41-.98l.1-.24c.99-2.34,1.69-4.79,2.15-7.28,2.07,1.68,4.12,3.29,6.12,4.84l1.75,1.33c12.17,9.23,25.06,18.06,38.28,18.05,1.97,0,3.95-.2,5.93-.62l.89-.21c17.02-4.43,23.67-24.01,27.91-42.63,6.55-26.63,7.25-55.87,2.01-84.57Z"/>
      <g>
        <path class="d" d="M172.65,241.6c23.53,1.87,23.18,34.14-1.76,32.3-18.7-3.64-16.19-29.4,1.76-32.3Z"/>
        <path class="d" d="M198.22,213.66c2.39.59,4.3,2.05,6.74,2.27,7.44,9.03,8.96,15.98,1.74,26.37-13.96,7.48-9.36,2.76-20.76-3.73-16.84-8.38-2.35-26.9,12.27-24.91Z"/>
        <path class="d" d="M171.95,78.98c14.27-10.44,33.86,7.61,22.64,22.37-3.86,8.3-13.33,2.26-19.21-.38-13.87-1.63-13.42-15.13-3.43-21.99Z"/>
        <path class="d" d="M197.32,170.59c4.31,10.6-11.66,12.54-15.97,19.31-7.79,6.94-17.5-8.94-15.26-16.06,2.14-16.3,25.58-18.43,31.23-3.25Z"/>
        <path class="d" d="M178.25,108.86c10.05,5.09,12.15,13.64.22,17.86-6.94,3.12-14.28,18.97-21.14,7.1-10.27-14.6,5.05-30.98,20.92-24.97Z"/>
        <path class="d" d="M196.23,132.14c8.55,5.27,11.6,17.1,6.82,25.76-6.17,1.7-11.47-4.37-17.64-4.57-3.91-1.62-9.2,1.56-11.66-1.06-2.37-6.19-4.01-3.78-.28-10.13,4.41-10.44,12.63-12.67,22.76-10Z"/>
        <path class="d" d="M148.93,138.43c3.46-1.37,5.03,2.28,7.46,3.89,13.21,6.93,12.84,16.33,2.1,25.69-17.66,7.97-28.62-25.35-9.56-29.58Z"/>
        <path class="d" d="M210.68,188.53c2.69,2.64,5.83,4.39,6.92,7.72,1.31,5.61,2.15,11.42-1.97,16.03-6.7.49-12.24-4.72-18.93-5.38-3.14.54-7.37-.76-9.77-2.42-3.57-12.44,13.23-22.44,23.74-15.95Z"/>
        <path class="d" d="M155.56,83.46c3.86,7.07,5.08,17.46-.83,23.53-5.78,1.69-11.98-.75-17.86-2.19-11.79,2.12-6.24-32.41,18.69-21.33Z"/>
        <path class="d" d="M163.75,51.7c7.58-2.01,15.78,1.46,19.08,8.72,1.86,3.36,3.16,4.52-.97,6.78-6.77,1.68-13.13,4.53-18.77,8.72-3.76,2.79-8.8-.98-10.52-4.41-3.36-8.37,2.48-18.12,11.18-19.81Z"/>
        <path class="d" d="M138.65,112.74c10.51.35,11.56,13.64,4.74,19.33-4.14,2.93-7.48,6.65-11.07,9.93-13.71,1.19-13.65-28.95,6.33-29.25Z"/>
        <path class="d" d="M169.98,222.84c5.97,15.23-5.96,9.8-10.91,19.06-3.1,1.08-7.37,5.56-10.49,3.85-3.36-2.42-4.52-13.29-2.96-16.98,4.08-8.22,17.39-13.98,24.37-5.92Z"/>
        <path class="d" d="M172.86,197.68c4.31,1.96,6.68,6.15,6.26,10.66.39,3.57-.25,8.8-5.16,7.53-5.17-2.06-10.97-4.19-16.68-2.87-2.74,2.15-3.28-.9-4.87-2.66-2.54-3.84-.16-10.08,1.77-13.91,6.52-10.01,11.41-3.05,18.68,1.23Z"/>
        <path class="d" d="M143.12,173.53l15.05,4.99c3.17,5.76-9.53,11.48-12.39,16.45-5.36,3.69-7.34-4.23-9.79-7.14-4.22-5.46-2.32-19.89,7.13-14.3Z"/>
        <g>
          <path class="d" d="M193.96,42.72c-7.88,14.1-6.98,4.84-17.67,1.47-8.5-2.46-19.65.71-25.64,7.38-7.07,7.23-2.8,20.99-14.06,24.33-12.66,6.54-13.32,19.73-12.71,32.08-5.57,12.86-10.67,13.21-7.88,29.44.83,6.99-17.45,9.95-22.73,11.39-19.73,5.28-40.93,5.71-60.98,1.65C-17.44,147.59,98.24-10.4,182.3,24.31c2.14.77,5.62,1.91,7.82,2.7,12.66,4.9,10.24,5.3,3.84,15.71Z"/>
          <path class="d" d="M211.35,35.38c77.03,12.86,95.32,111.94,80.81,177.04-1.58,6.94-6.2,26-13.48,27.89-14.23.88-43.73-24.48-50.92-36.69-6.36-22.28-24.44-23.03-21.72-37.09,2.57-8.72,9.09-18.65,4.2-27.71-3.2-10.26-21.49-15.33-14.66-27.64,22.47-27.66-6.93-34.06-4.46-53.26,5.59-7.83,8.72-23.07,20.22-22.55Z"/>
        </g>
      </g>
    </g>
  </g>
</svg>