<?xml version="1.0" encoding="UTF-8"?>
<svg id="b" data-name="Layer 2" xmlns="http://www.w3.org/2000/svg" viewBox="0 0 317.1 293.83">
  <defs>
    <style>
      .d {
        fill: #b4b78c;
      }
    </style>
  </defs>
  <g id="c" data-name="Layer 1">
    <path class="d" d="M313.9,132.59c-8.38-36.5-18.95-67.06-45.29-93.38-9.4-7.31-20.57-14.17-31.36-16.47-8.03-2.75-16.01-7.17-26.26-7.24C165.75-12.48,114.34-.12,72,32.88,42.52,53.01,20.01,83.42,6.09,115.94c-10.75,25.15-9.52,48.78,22.2,54.19,30.42,6.38,62.48,2.94,91.55-8.39-7.33,11.67-7.7,25.93-.39,37.05,3.06,4.85,7.16,12.1,12.76,14.55-10.71,12.19-9.73,38.63,6.27,49.63,4.74,41.49,66.43,40.78,71.64.06,12.27-3.66,18.83-15.82,20.88-26.64,15.68,12.07,33.64,27.88,52.96,23.4,37.26-14.35,35.87-91.85,29.92-127.2Z"/>
  </g>
</svg>