<?xml version="1.0" encoding="UTF-8"?>
<svg id="b" data-name="Layer 2" xmlns="http://www.w3.org/2000/svg" viewBox="0 0 1502.8 462.14">
  <defs>
    <style>
      .d {
        fill: none;
        stroke: #000;
        stroke-miterlimit: 10;
        stroke-width: 2px;
      }
    </style>
  </defs>
  <g id="c" data-name="Layer 1">
    <g>
      <path class="d" d="M1430.77,391.52c1.93-4.04,20.6-4.3,26.44-7.2,8.26-4.1,15.87-8.44,17.8-13.22,1.41-3.49-2.55-8.09-4.07-10.37-2.55-3.84-4.48-4.59-5.49-8.14-.31-1.1-.29-4.54,1.41-7.63s3.93-3.97,6.73-4.78c1.43-.41,6.92-.99,12.41,0,1.93.35,9.97,3.46,12.2,14.34,1.5,7.31,2.52,13.73,3.46,36.99.61,15.18-.73,23.16-3.76,36.94-1.95,8.9-6.23,15.4-12.31,22.78-6.61,8.03-12.55,10.74-25.63,9.66-20.95-1.73-36.63-3.74-52.58-12.51-6.1-3.36-8.46-17.44-8.85-19.73-1.03-6.09-.31-11.98.81-13.83,4.43-7.3,22.48-1.63,28.68-4.88,3.47-1.82-1.73-9.05,2.75-18.43Z"/>
      <path class="d" d="M363.56,19.69c10.83-1.37,30.33-3.28,43.56-4.68,11.05-1.17,17.55-2.16,28.28-1.03,4.38.46,9.35,2.44,13.69,6.73,7.83,7.75,7.5,19.41,7.3,26.23-.44,15.19-5.14,14.98-5.02,25.32.11,9.64,7.3,14.26,12.54,30.22,1.18,3.58.55,12.52-1,15.85-5.84,12.54-29.22,30.45-39.94,31.36,0,0-7.01,1.04-10.26-.46-3.14-1.45-7.31-5.05-10.15-18.25-3.99-18.55,1.69-23.33-1.6-36.04-2.28-8.82-4.79-21.55-17.33-24.55-17.78-4.24-26.66-22.75-27.71-33.56-1.37-14.08,5.26-16.86,7.64-17.16Z"/>
      <path class="d" d="M5.85,5.82c4.83-3.78,19.31-7,27.01-2.94,22.73,12,68.18,64.04,81.89,90.16,3.51,6.69,2.42,16.96-1.03,27.38-1.46,4.42-9.41,20.57-24.03,26.09-5.95,2.25-10.42,1.51-13.19-.55-15.82-11.75-15.98-33.85-29.43-55.76C28.81,60.47,22.37,55.54,5.47,31.82c-2.92-4.09-8.59-18.97.38-25.99Z"/>
      <path class="d" d="M142.43,214.72c3.92-2.89,9.23-1.83,12.5.19,6.9,4.27,25.97,22.9,39.04,40.57,17.93,24.25,16.79,27.22,18.61,36.29.54,2.71,1.5,14.7-6.31,19.78-9.15,5.95-26.39-7.95-31.25-14.55-17.21-23.4-28.68-41.9-32.6-57.06-2.29-8.87-5.37-21.27,0-25.23Z"/>
    </g>
  </g>
</svg>